<?xml version="1.0" encoding="utf-8"?>
<!-- Generator: Adobe Illustrator 16.0.0, SVG Export Plug-In . SVG Version: 6.00 Build 0)  -->
<!DOCTYPE svg PUBLIC "-//W3C//DTD SVG 1.1//EN" "http://www.w3.org/Graphics/SVG/1.1/DTD/svg11.dtd">
<svg version="1.1" id="Layer_1" xmlns="http://www.w3.org/2000/svg" xmlns:xlink="http://www.w3.org/1999/xlink" x="0px" y="0px"
	 width="202px" height="318px" viewBox="34.615 -14.906 202 318" enable-background="new 34.615 -14.906 202 318"
	 xml:space="preserve">
<g id="Layer_1_1_">
</g>
<g id="Layer_5">
</g>
<g id="Layer_2">
</g>
<g id="neptune">
</g>
<g id="uranus">
</g>
<g id="saturn">
</g>
<g id="jupiter">
</g>
<g id="Layer_14">
</g>
<g id="mars">
</g>
<g id="venus">
</g>
<g id="mercury">
</g>
<g id="earth">
</g>
<g id="Layer_6">
</g>
<g>
	<path fill="#D9292C" d="M83.963,292.506c-0.017,0.553-0.109,1.188-0.271,1.91c-0.172,0.721-0.438,1.49-0.807,2.311
		c-0.37,0.822-0.887,1.584-1.558,2.287c-0.57,0.637-1.416,1.256-2.539,1.859c-1.121,0.604-2.568,0.903-4.347,0.903
		c-1.774,0-3.206-0.301-4.3-0.903c-1.088-0.604-1.915-1.224-2.485-1.859c-0.668-0.734-1.18-1.522-1.53-2.361
		c-0.354-0.837-0.605-1.635-0.757-2.387c-0.147-0.754-0.226-1.424-0.226-2.01s0-0.998,0-1.233v-25.931
		c0-0.838,0.293-1.548,0.881-2.137c0.585-0.586,1.295-0.879,2.134-0.879c0.84,0,1.549,0.293,2.135,0.879
		c0.59,0.589,0.881,1.299,0.881,2.137v26.183v0.102c0,0.169,0,0.402,0,0.703c0,0.302,0.033,0.621,0.1,0.955
		c0.068,0.336,0.169,0.678,0.303,1.029c0.133,0.353,0.317,0.646,0.556,0.882c0.098,0.099,0.316,0.259,0.65,0.476
		c0.334,0.221,0.887,0.328,1.659,0.328c0.87,0,1.479-0.107,1.838-0.328c0.347-0.217,0.574-0.377,0.675-0.476
		c0.47-0.504,0.754-1.108,0.852-1.812c0.104-0.704,0.153-1.206,0.153-1.507v-0.151v-0.05v-26.283c0-0.838,0.293-1.549,0.878-2.137
		c0.588-0.585,1.298-0.879,2.137-0.879c0.837,0,1.546,0.294,2.134,0.879c0.588,0.588,0.885,1.299,0.885,2.137v26.232
		C83.993,291.576,83.984,291.951,83.963,292.506z"/>
	<path fill="#D9292C" d="M109.822,297.004c0.367,0.771,0.391,1.541,0.071,2.311c-0.316,0.771-0.859,1.324-1.632,1.659
		c-0.399,0.167-0.804,0.252-1.206,0.252c-0.567,0-1.102-0.16-1.606-0.478c-0.499-0.318-0.891-0.763-1.155-1.332l-5.577-12.767
		h-3.018v11.561c0,0.838-0.292,1.55-0.881,2.136c-0.585,0.586-1.295,0.88-2.134,0.88c-0.837,0-1.548-0.294-2.134-0.88
		s-0.881-1.298-0.881-2.136v-33.169c0-0.837,0.295-1.549,0.881-2.135c0.586-0.587,1.296-0.88,2.134-0.88h7.289
		c1.271,0,2.498,0.358,3.668,1.08c1.173,0.722,2.196,1.751,3.068,3.091c1.506,2.38,2.261,5.094,2.261,8.142
		c0,1.475-0.195,2.897-0.58,4.271c-0.387,1.373-0.948,2.646-1.681,3.818c-0.337,0.503-0.689,0.955-1.059,1.357
		c-0.365,0.4-0.735,0.771-1.107,1.104L109.822,297.004z M99.971,280.621c0.166,0,0.39-0.109,0.676-0.327
		c0.288-0.218,0.613-0.595,0.982-1.13c0.435-0.671,0.763-1.424,0.979-2.264c0.22-0.836,0.328-1.689,0.328-2.562
		c0-0.87-0.108-1.735-0.328-2.588c-0.216-0.854-0.544-1.616-0.979-2.288c-0.37-0.502-0.694-0.861-0.982-1.079
		c-0.286-0.218-0.51-0.326-0.676-0.326h-4.274v12.563H99.971z"/>
	<path fill="#D9292C" d="M131.986,298.109c0.162,0.839,0.024,1.601-0.432,2.286c-0.449,0.688-1.099,1.114-1.933,1.281
		c-0.137,0.033-0.319,0.052-0.554,0.052c-0.699,0-1.333-0.228-1.889-0.678c-0.546-0.454-0.91-1.031-1.075-1.736l-1.059-5.125h-5.376
		l-1.055,5.125c-0.138,0.705-0.479,1.282-1.032,1.736c-0.55,0.45-1.18,0.678-1.883,0.678c-0.267,0-0.468-0.019-0.605-0.052
		c-0.834-0.167-1.481-0.595-1.933-1.281c-0.452-0.686-0.592-1.447-0.43-2.286l6.689-33.219v-0.051v-0.1
		c0-0.033,0.006-0.052,0.022-0.052c0.016,0,0.026-0.016,0.026-0.051v-0.051v-0.048c0.029-0.034,0.05-0.068,0.05-0.104
		c0-0.03,0.006-0.05,0.024-0.05c0.015,0,0.025-0.017,0.025-0.05v-0.049c0.099-0.271,0.251-0.504,0.449-0.705v-0.051
		c0.035,0,0.05-0.009,0.05-0.024s0.019-0.024,0.051-0.024v-0.052l0.05-0.05l0.05-0.049l0.053-0.052l0.052-0.05l0.05-0.052
		l0.101-0.051c0.197-0.199,0.433-0.35,0.7-0.451h0.05c0.033-0.033,0.072-0.051,0.103-0.051c0.171-0.066,0.318-0.107,0.45-0.127
		c0.135-0.017,0.288-0.039,0.456-0.074h0.051h0.098h0.104c0.166,0.035,0.316,0.059,0.449,0.074c0.133,0.02,0.287,0.061,0.452,0.127
		c0.035,0,0.068,0.018,0.104,0.051h0.048c0.269,0.103,0.502,0.252,0.706,0.451c0.031,0,0.064,0.019,0.101,0.051l0.047,0.052
		l0.051,0.05l0.054,0.052l0.051,0.049l0.047,0.05l0.053,0.052l0.051,0.05v0.051c0.2,0.201,0.349,0.436,0.451,0.705v0.049
		c0,0.033,0.007,0.05,0.023,0.05c0.018,0,0.027,0.02,0.027,0.05c0.063,0.201,0.101,0.354,0.101,0.453L131.986,298.109z
		 M122.383,280.771l-1.508,7.391h2.968L122.383,280.771z"/>
	<path fill="#D9292C" d="M153.089,261.978c0.839,0,1.552,0.294,2.136,0.879c0.589,0.585,0.881,1.3,0.881,2.136v33.219v0.201v0.149
		v0.051v0.102l-0.051,0.049v0.051v0.103v0.05c-0.035,0.032-0.05,0.067-0.05,0.101v0.05c0,0.034-0.009,0.051-0.026,0.051
		c-0.017,0-0.023,0.018-0.023,0.051s-0.008,0.059-0.026,0.075c-0.018,0.019-0.022,0.042-0.022,0.075s-0.01,0.06-0.026,0.075
		c-0.019,0.017-0.026,0.041-0.026,0.075c0,0.032-0.006,0.05-0.023,0.05c-0.015,0-0.026,0.019-0.026,0.052v0.05
		c-0.032,0-0.05,0.019-0.05,0.052l-0.048,0.049c0,0.034-0.019,0.068-0.052,0.102l-0.053,0.05v0.051
		c-0.032,0-0.048,0.019-0.048,0.051c0,0.031-0.017,0.052-0.053,0.052c0,0.032-0.005,0.049-0.023,0.049
		c-0.018,0-0.023,0.018-0.023,0.051h-0.046c0,0.033-0.021,0.067-0.058,0.1l-0.098,0.103l-0.102,0.1l-0.101,0.102h-0.05l-0.102,0.103
		c-0.034,0.031-0.07,0.049-0.101,0.049c0,0.032-0.021,0.051-0.05,0.051l-0.05,0.05c-0.036,0-0.051,0.008-0.051,0.024
		c0,0.018-0.018,0.025-0.054,0.025h-0.047l-0.104,0.101c-0.132,0.067-0.248,0.116-0.348,0.151c-0.101,0.031-0.233,0.066-0.402,0.101
		c-0.137,0.032-0.337,0.051-0.605,0.051c-0.198,0-0.35-0.019-0.449-0.051h-0.101h-0.054c-0.029,0-0.05-0.017-0.05-0.051h-0.198
		v-0.05h-0.103c-0.133-0.067-0.216-0.102-0.249-0.102c-0.035,0-0.053-0.019-0.053-0.051h-0.048c-0.035,0-0.054-0.018-0.054-0.049
		c-0.032,0-0.064-0.018-0.101-0.052c-0.033,0-0.047-0.016-0.047-0.051h-0.053c-0.032,0-0.048-0.008-0.048-0.023
		c0-0.018-0.021-0.025-0.053-0.025c-0.37-0.269-0.669-0.587-0.901-0.954v-0.052c-0.037,0-0.053-0.016-0.053-0.049l-0.05-0.052v-0.05
		c-0.032-0.033-0.05-0.068-0.05-0.102s-0.019-0.065-0.047-0.101l-8.597-19.851v18.693c0,0.838-0.292,1.55-0.877,2.136
		c-0.588,0.586-1.3,0.88-2.137,0.88c-0.839,0-1.553-0.294-2.14-0.88c-0.583-0.586-0.875-1.298-0.875-2.136v-33.219v-0.201v-0.15
		v-0.051v-0.099l0.047-0.051v-0.053v-0.1v-0.049c0.036-0.035,0.051-0.068,0.051-0.104v-0.049c0-0.034,0.012-0.05,0.025-0.05
		c0.016,0,0.023-0.017,0.023-0.051c0-0.033,0.009-0.06,0.027-0.076c0.015-0.017,0.027-0.041,0.027-0.075
		c0-0.033,0.006-0.058,0.021-0.076c0.016-0.015,0.026-0.041,0.026-0.072c0-0.034,0.01-0.054,0.023-0.054
		c0.019,0,0.024-0.014,0.024-0.049v-0.051l0.101-0.101c0-0.032,0.009-0.052,0.027-0.052c0.018,0,0.024-0.017,0.024-0.05l0.049-0.049
		v-0.052c0.031-0.032,0.053-0.065,0.053-0.102h0.048c0-0.032,0.009-0.051,0.027-0.051c0.018,0,0.023-0.016,0.023-0.049h0.054
		c0-0.034,0.015-0.067,0.05-0.101l0.098-0.102v-0.051c0.036,0,0.068-0.018,0.104-0.05v-0.051c0.028,0,0.067-0.018,0.097-0.051h0.054
		l0.102-0.1l0.097-0.103h0.05c0-0.033,0.019-0.051,0.05-0.051c0.035,0,0.051-0.007,0.051-0.023c0-0.019,0.018-0.025,0.053-0.025
		h0.047l0.101-0.102c0.239-0.133,0.471-0.217,0.706-0.25h0.047c0.168-0.032,0.42-0.05,0.754-0.05h0.15h0.053l0.051,0.05h0.101h0.047
		h0.104c0,0.033,0.014,0.05,0.047,0.05h0.104h0.051c0,0.033,0.032,0.051,0.098,0.051c0.033,0.033,0.083,0.05,0.15,0.05
		c0.035,0.034,0.068,0.052,0.102,0.052h0.053c0,0.032,0.033,0.049,0.102,0.049v0.052c0.066,0,0.101,0.018,0.101,0.05h0.05
		c0.03,0,0.05,0.008,0.05,0.025s0.018,0.023,0.051,0.023l0.05,0.051l0.047,0.051l0.054,0.052h0.05
		c0.036,0.032,0.065,0.049,0.099,0.049v0.051c0.036,0,0.053,0.008,0.053,0.024c0,0.019,0.015,0.025,0.05,0.025v0.051
		c0.029,0,0.047,0.009,0.047,0.023c0,0.018,0.019,0.025,0.055,0.025v0.051l0.101,0.102l0.102,0.101l0.097,0.1
		c0,0.035,0.019,0.068,0.05,0.102c0.036,0,0.054,0.018,0.054,0.052c0,0.032,0.016,0.049,0.051,0.049c0,0.068,0.018,0.102,0.05,0.102
		v0.05c0.036,0.034,0.05,0.067,0.05,0.102h0.05c0,0.067,0.009,0.108,0.027,0.125c0.015,0.018,0.026,0.043,0.026,0.075l8.592,19.851
		v-18.693c0-0.836,0.291-1.551,0.876-2.136C151.542,262.271,152.252,261.978,153.089,261.978z"/>
	<path fill="#D9292C" d="M180.552,292.506c-0.015,0.553-0.106,1.188-0.271,1.91c-0.172,0.721-0.438,1.49-0.808,2.311
		c-0.37,0.822-0.887,1.584-1.558,2.287c-0.571,0.637-1.416,1.256-2.54,1.859c-1.119,0.604-2.571,0.903-4.344,0.903
		c-1.779,0-3.211-0.301-4.301-0.903c-1.088-0.604-1.918-1.224-2.485-1.859c-0.671-0.734-1.181-1.522-1.534-2.361
		c-0.351-0.837-0.604-1.635-0.751-2.387c-0.15-0.754-0.229-1.424-0.229-2.01s0-0.998,0-1.233v-25.931
		c0-0.838,0.29-1.548,0.881-2.137c0.582-0.586,1.295-0.879,2.135-0.879c0.839,0,1.548,0.293,2.137,0.879
		c0.588,0.589,0.878,1.299,0.878,2.137v26.183v0.102c0,0.169,0,0.402,0,0.703c0,0.302,0.032,0.621,0.101,0.955
		c0.067,0.336,0.169,0.678,0.301,1.029c0.134,0.354,0.319,0.646,0.556,0.882c0.101,0.099,0.317,0.259,0.651,0.476
		c0.334,0.221,0.886,0.328,1.661,0.328c0.868,0,1.478-0.107,1.833-0.328c0.352-0.217,0.579-0.377,0.68-0.476
		c0.467-0.504,0.753-1.108,0.85-1.812c0.104-0.704,0.151-1.206,0.151-1.507v-0.151v-0.05v-26.283c0-0.838,0.296-1.549,0.881-2.137
		c0.589-0.585,1.298-0.879,2.138-0.879c0.838,0,1.545,0.294,2.138,0.879c0.585,0.588,0.881,1.299,0.881,2.137v26.232
		C180.582,291.576,180.573,291.951,180.552,292.506z"/>
	<path fill="#D9292C" d="M202.838,282.832c1.979,2.479,2.97,5.376,2.97,8.692c0,1.04-0.112,1.97-0.331,2.79
		c-0.216,0.821-0.481,1.551-0.804,2.186c-0.317,0.638-0.677,1.19-1.079,1.66c-0.402,0.469-0.804,0.871-1.208,1.205
		c-1.871,1.508-4.153,2.262-6.834,2.262c-1.303,0-2.522-0.185-3.668-0.553c-1.138-0.369-2.146-0.938-3.012-1.709
		c-0.372-0.302-0.747-0.688-1.131-1.155c-0.388-0.468-0.739-1.022-1.059-1.658c-0.315-0.637-0.577-1.374-0.776-2.212
		c-0.198-0.837-0.3-1.791-0.3-2.864c0-0.837,0.289-1.549,0.878-2.136c0.586-0.586,1.298-0.88,2.141-0.88
		c0.863,0,1.583,0.294,2.158,0.88c0.566,0.587,0.854,1.299,0.854,2.136c0,0.47,0.039,0.947,0.124,1.434
		c0.08,0.485,0.26,0.928,0.526,1.332c0.271,0.399,0.662,0.728,1.185,0.979c0.518,0.252,1.209,0.377,2.081,0.377
		c0.605,0,1.164-0.074,1.686-0.225c0.52-0.152,0.962-0.377,1.329-0.679c0.808-0.704,1.213-1.76,1.213-3.168
		c0-1.036-0.141-1.94-0.405-2.715c-0.27-0.77-0.662-1.479-1.183-2.135c-0.518-0.652-1.155-1.272-1.906-1.859
		c-0.757-0.585-1.604-1.213-2.538-1.884c-0.872-0.603-1.735-1.23-2.592-1.884c-0.853-0.654-1.649-1.399-2.386-2.237
		c-0.872-1.07-1.53-2.187-1.982-3.342s-0.681-2.421-0.681-3.795c0-0.201,0.01-0.569,0.024-1.104
		c0.017-0.535,0.103-1.155,0.254-1.859c0.15-0.702,0.402-1.44,0.754-2.21c0.353-0.771,0.86-1.509,1.534-2.211
		c0.564-0.638,1.421-1.258,2.562-1.861c1.138-0.603,2.609-0.903,4.421-0.903c1.841,0,3.311,0.311,4.398,0.93
		c1.087,0.621,1.915,1.249,2.484,1.885c0.637,0.771,1.115,1.584,1.432,2.437c0.316,0.856,0.532,1.645,0.629,2.362
		c0.104,0.722,0.136,1.35,0.104,1.885c-0.036,0.538-0.071,0.854-0.104,0.955c-0.097,0.604-0.298,1.106-0.603,1.508
		c-0.271,0.369-0.627,0.68-1.079,0.931c-0.453,0.252-1.064,0.294-1.833,0.126c-0.736-0.134-1.283-0.377-1.638-0.729
		c-0.35-0.352-0.585-0.721-0.7-1.104c-0.121-0.384-0.168-0.729-0.154-1.031c0.019-0.301,0.027-0.485,0.027-0.552
		c0.032-0.136,0.05-0.318,0.05-0.554c0-0.234-0.023-0.485-0.077-0.755c-0.047-0.268-0.124-0.535-0.225-0.804
		c-0.101-0.268-0.233-0.504-0.405-0.703c-0.402-0.503-1.17-0.754-2.309-0.754c-0.908,0-1.533,0.118-1.886,0.353
		c-0.354,0.233-0.575,0.401-0.677,0.502c-0.239,0.234-0.411,0.504-0.529,0.805c-0.117,0.303-0.207,0.603-0.277,0.904
		c-0.068,0.302-0.104,0.562-0.124,0.778c-0.019,0.218-0.023,0.377-0.023,0.479v0.1v0.102c0,0.672,0.115,1.28,0.35,1.836
		c0.235,0.553,0.562,1.071,0.983,1.557c0.416,0.486,0.943,0.973,1.578,1.459c0.639,0.485,1.362,1.012,2.164,1.58
		c0.937,0.673,1.9,1.392,2.888,2.162C201.088,280.939,202.004,281.827,202.838,282.832z"/>
</g>
<path fill="#D9292C" d="M232.65,145.659c4.93,31.324-8.826,61.856-32.25,79.688c-16.4,12.484-43.163,17.932-65.367,17.932
	c-16.7,0-34.263-3.554-48.007-10.945c-30.632-16.47-50.917-46.926-49.614-86.675c1.771-53.882,51.279-106.687,107.192-97.826
	c25.975,4.117,40.597,10.606,58.151,27.516C221.183,93.107,227.907,115.521,232.65,145.659z"/>
<g>
	<path fill="#731315" d="M59.697,130.834c0.017,0.082,0.017,0.154,0,0.219v0.121c-0.064,1.119-0.389,2.034-0.972,2.747
		c-0.713,0.907-1.726,1.466-3.038,1.677c-0.308,0.064-0.673,0.098-1.094,0.098h-0.122h-0.097c-0.34,0-0.681-0.025-1.021-0.073
		c-1.361-0.228-2.406-0.794-3.135-1.701c-0.648-0.843-0.973-1.944-0.973-3.306c0-2.397,0.567-4.171,1.701-5.322l0.049-0.049
		c-0.324-0.405-0.575-0.915-0.753-1.531c-0.082-0.34-0.146-0.721-0.194-1.143c-0.049-0.421-0.073-0.907-0.073-1.458v-0.194
		c0-0.162,0.003-0.373,0.012-0.632c0.009-0.259,0.049-0.543,0.122-0.851c0.073-0.308,0.178-0.623,0.316-0.947
		c0.137-0.324,0.336-0.632,0.596-0.924c0.274-0.308,0.68-0.611,1.215-0.911c0.533-0.3,1.247-0.45,2.138-0.45h0.097h0.122
		c0.892,0,1.601,0.15,2.127,0.45s0.927,0.604,1.203,0.911c0.259,0.292,0.462,0.6,0.607,0.924s0.255,0.64,0.328,0.947
		c0.073,0.308,0.113,0.592,0.122,0.851c0.008,0.259,0.012,0.47,0.012,0.632c0,0.097-0.009,0.162-0.025,0.194
		c0,0.551-0.02,1.037-0.061,1.458c-0.04,0.421-0.108,0.802-0.206,1.143c-0.179,0.616-0.422,1.126-0.729,1.531l0.05,0.049
		c1.117,1.134,1.676,2.908,1.676,5.322V130.834z M56.781,130.615c0-1.588-0.284-2.689-0.851-3.305
		c-0.324-0.324-0.811-0.535-1.459-0.632c-0.664,0.097-1.142,0.308-1.433,0.632c-0.583,0.616-0.875,1.717-0.875,3.305v0.098
		c0.016,0.064,0.048,0.211,0.097,0.438s0.154,0.462,0.316,0.705c0.308,0.502,0.753,0.802,1.336,0.898
		c0.081,0,0.17,0.005,0.268,0.013c0.098,0.009,0.194,0.013,0.291,0.013c0.114,0,0.224-0.004,0.329-0.013
		c0.104-0.008,0.198-0.021,0.279-0.036c0.6-0.098,1.054-0.396,1.361-0.899c0.112-0.194,0.194-0.386,0.243-0.571s0.08-0.32,0.097-0.4
		V130.615z M52.892,121.235c0,0.438,0.021,0.794,0.061,1.069c0.041,0.276,0.081,0.495,0.122,0.656
		c0.04,0.162,0.081,0.279,0.121,0.352c0.04,0.073,0.069,0.118,0.086,0.134c0.097,0.082,0.259,0.134,0.486,0.158
		c0.226,0.024,0.461,0.044,0.703,0.061c0.26-0.016,0.503-0.037,0.729-0.061c0.228-0.024,0.381-0.077,0.462-0.158
		c0.017-0.016,0.05-0.061,0.098-0.134c0.049-0.073,0.093-0.198,0.134-0.376c0.04-0.178,0.077-0.417,0.109-0.717
		s0.049-0.685,0.049-1.154c0-0.033,0.007-0.057,0.024-0.073v-0.121h-0.024l0.024-0.024c-0.018-0.162-0.054-0.377-0.109-0.644
		c-0.058-0.268-0.176-0.49-0.353-0.668c-0.049-0.049-0.154-0.125-0.316-0.231c-0.162-0.105-0.438-0.166-0.827-0.182
		c-0.371,0.016-0.639,0.077-0.801,0.182c-0.162,0.105-0.268,0.182-0.316,0.231c-0.179,0.178-0.3,0.401-0.365,0.668
		c-0.064,0.267-0.097,0.482-0.097,0.644v0.024C52.907,121.001,52.907,121.122,52.892,121.235z"/>
	<path fill="#731315" d="M61.398,132.074c0.405,0,0.75,0.142,1.033,0.426c0.283,0.283,0.425,0.627,0.425,1.031
		c0,0.422-0.142,0.774-0.425,1.059c-0.283,0.283-0.628,0.425-1.033,0.425c-0.421,0-0.773-0.142-1.057-0.425
		c-0.283-0.284-0.426-0.637-0.426-1.059c0-0.404,0.143-0.748,0.426-1.031C60.624,132.216,60.977,132.074,61.398,132.074z"/>
	<path fill="#731315" d="M71.727,116.545c0.404,0,0.749,0.142,1.032,0.425c0.284,0.284,0.426,0.628,0.426,1.033v16.064
		c0,0.405-0.142,0.75-0.426,1.033c-0.283,0.283-0.628,0.426-1.032,0.426s-0.749-0.143-1.033-0.426
		c-0.283-0.283-0.426-0.628-0.426-1.033v-6.586h-5.564c-0.228,0-0.441-0.048-0.645-0.146c-0.202-0.097-0.368-0.234-0.498-0.413
		c-0.308-0.389-0.396-0.81-0.268-1.264l2.14-8.02c0.097-0.389,0.319-0.684,0.668-0.887s0.717-0.255,1.105-0.158
		c0.39,0.114,0.685,0.345,0.888,0.693c0.202,0.349,0.255,0.717,0.158,1.106l-1.653,6.172h3.669v-6.562
		c0-0.405,0.143-0.749,0.426-1.033C70.978,116.687,71.323,116.545,71.727,116.545z"/>
	<path fill="#731315" d="M84.267,130.615c0,1.361-0.324,2.463-0.972,3.306c-0.924,1.183-2.382,1.774-4.374,1.774
		c-0.892,0-1.601-0.15-2.127-0.449c-0.526-0.301-0.928-0.604-1.203-0.912c-0.324-0.356-0.559-0.741-0.705-1.154
		c-0.146-0.413-0.243-0.799-0.292-1.154c-0.048-0.355-0.064-0.66-0.048-0.912c0.016-0.25,0.032-0.408,0.048-0.473
		c0.064-0.227,0.171-0.43,0.316-0.607c0.13-0.146,0.3-0.276,0.511-0.39c0.21-0.113,0.478-0.146,0.802-0.097s0.571,0.154,0.741,0.315
		c0.17,0.162,0.296,0.332,0.377,0.511c0.081,0.211,0.129,0.438,0.146,0.68c-0.017,0.113-0.012,0.32,0.012,0.62
		c0.024,0.3,0.126,0.547,0.304,0.741c0.194,0.243,0.567,0.365,1.119,0.365c0.501,0,0.915-0.045,1.239-0.135
		c0.323-0.088,0.57-0.227,0.74-0.412c0.171-0.187,0.288-0.414,0.354-0.682c0.064-0.268,0.098-0.578,0.098-0.936
		c0-1.588-0.293-2.689-0.876-3.305c-0.454-0.454-1.208-0.68-2.26-0.68c-0.405,0-0.749-0.142-1.033-0.426
		c-0.284-0.283-0.425-0.628-0.425-1.033v-0.024c0-0.421,0.141-0.769,0.425-1.045c0.284-0.275,0.628-0.413,1.033-0.413
		c0.146,0,0.319,0,0.522,0c0.202,0,0.4-0.008,0.596-0.024c0.194-0.016,0.371-0.04,0.534-0.073c0.161-0.032,0.275-0.081,0.34-0.146
		c0.017-0.016,0.05-0.061,0.098-0.134c0.048-0.073,0.098-0.198,0.146-0.376c0.049-0.178,0.089-0.417,0.121-0.717
		c0.033-0.3,0.05-0.685,0.05-1.154v-0.073c0.015-0.13-0.005-0.352-0.062-0.668c-0.057-0.316-0.19-0.579-0.4-0.79
		c-0.049-0.049-0.163-0.129-0.34-0.243c-0.18-0.113-0.479-0.17-0.899-0.17c-0.552,0-0.925,0.121-1.119,0.364
		c-0.178,0.194-0.279,0.441-0.304,0.741c-0.023,0.3-0.028,0.515-0.012,0.645v-0.024c0.016,0.259-0.017,0.494-0.098,0.705
		c-0.08,0.178-0.206,0.356-0.377,0.535c-0.17,0.178-0.44,0.292-0.813,0.34c-0.373,0.049-0.665,0.017-0.875-0.097
		c-0.21-0.113-0.373-0.25-0.485-0.413c-0.131-0.178-0.211-0.397-0.244-0.656c-0.016-0.049-0.032-0.203-0.048-0.462
		c-0.017-0.259,0-0.562,0.048-0.912c0.049-0.348,0.146-0.725,0.292-1.13c0.146-0.405,0.381-0.793,0.705-1.167
		c0.275-0.324,0.677-0.636,1.203-0.936s1.235-0.45,2.127-0.45c0.89,0,1.606,0.146,2.15,0.437c0.542,0.292,0.951,0.592,1.227,0.9
		c0.309,0.34,0.551,0.696,0.729,1.069c0.179,0.373,0.303,0.729,0.377,1.069c0.072,0.34,0.113,0.641,0.121,0.899
		c0.009,0.259,0.012,0.438,0.012,0.535c0,0.551-0.024,1.037-0.072,1.458c-0.049,0.421-0.113,0.802-0.194,1.143
		c-0.179,0.616-0.429,1.126-0.754,1.531l0.05,0.049C83.699,126.444,84.267,128.218,84.267,130.615z"/>
	<path fill="#731315" d="M108.035,130.592c0,0.049-0.005,0.206-0.012,0.473c-0.009,0.268-0.049,0.584-0.122,0.949
		c-0.073,0.363-0.198,0.757-0.377,1.178c-0.179,0.422-0.438,0.811-0.777,1.167c-0.275,0.308-0.685,0.607-1.228,0.899
		c-0.543,0.291-1.243,0.438-2.102,0.438c-0.859,0-1.552-0.146-2.079-0.438c-0.526-0.292-0.927-0.592-1.202-0.899
		c-0.324-0.356-0.575-0.737-0.754-1.142c-0.179-0.406-0.303-0.791-0.377-1.155c-0.072-0.364-0.108-0.688-0.108-0.972
		s0-0.482,0-0.596v-9.332c0-0.988,0.161-1.778,0.485-2.37s0.656-1.049,0.996-1.373c0.406-0.373,0.867-0.66,1.386-0.863
		c0.519-0.202,1.062-0.304,1.629-0.304c0.55,0,1.104,0.097,1.665,0.292c0.559,0.194,1.057,0.494,1.494,0.899
		c0.437,0.405,0.793,0.916,1.069,1.531c0.275,0.616,0.413,1.345,0.413,2.188c0,0.421-0.143,0.77-0.426,1.044
		c-0.283,0.276-0.628,0.413-1.033,0.413c-0.404,0-0.748-0.137-1.032-0.413c-0.284-0.275-0.425-0.623-0.425-1.044
		c0-0.438-0.061-0.786-0.183-1.045c-0.122-0.259-0.268-0.458-0.438-0.595c-0.169-0.138-0.355-0.231-0.559-0.28
		c-0.202-0.048-0.385-0.073-0.546-0.073c-0.113,0-0.26,0.021-0.438,0.061c-0.178,0.041-0.352,0.129-0.521,0.267
		c-0.17,0.138-0.316,0.336-0.438,0.595c-0.122,0.26-0.183,0.616-0.183,1.07v9.381v0.121c0,0.082,0,0.191,0,0.328
		c0,0.139,0.016,0.291,0.049,0.462c0.032,0.17,0.081,0.341,0.146,0.511s0.153,0.312,0.268,0.426c0.049,0.048,0.154,0.125,0.316,0.23
		c0.161,0.105,0.438,0.158,0.826,0.158c0.421,0,0.713-0.053,0.875-0.158c0.161-0.105,0.267-0.191,0.315-0.256
		c0.227-0.227,0.368-0.51,0.425-0.851s0.086-0.591,0.086-0.753c0-0.016,0-0.105,0-0.268s0.04-0.336,0.121-0.522
		c0.08-0.187,0.215-0.36,0.401-0.522s0.458-0.252,0.813-0.268c0.373-0.016,0.66,0.049,0.863,0.195
		c0.202,0.145,0.36,0.307,0.474,0.485C107.922,130.073,108.002,130.317,108.035,130.592z"/>
	<path fill="#731315" d="M119.106,132.961c0.282,0.283,0.425,0.628,0.425,1.033c0,0.404-0.143,0.75-0.425,1.033
		c-0.284,0.282-0.629,0.425-1.034,0.425h-5.954c-0.404,0-0.748-0.143-1.032-0.425c-0.283-0.283-0.426-0.629-0.426-1.033v-16.089
		c0-0.405,0.143-0.75,0.426-1.033c0.284-0.284,0.628-0.425,1.032-0.425h5.954c0.405,0,0.75,0.142,1.034,0.425
		c0.282,0.283,0.425,0.628,0.425,1.033c0,0.421-0.143,0.77-0.425,1.045c-0.284,0.276-0.629,0.414-1.034,0.414h-4.495v6.124h3.11
		c0.405,0,0.749,0.142,1.033,0.425c0.284,0.284,0.425,0.628,0.425,1.033c0,0.405-0.141,0.75-0.425,1.033s-0.628,0.425-1.033,0.425
		h-3.11v4.131h4.495C118.477,132.535,118.822,132.678,119.106,132.961z"/>
	<path fill="#731315" d="M130.418,116.471c0.404,0,0.749,0.142,1.033,0.425c0.282,0.284,0.426,0.628,0.426,1.033v16.064v0.097v0.073
		v0.023v0.049l-0.025,0.025v0.023v0.049v0.024c-0.017,0.017-0.024,0.032-0.024,0.048v0.025c0,0.016-0.004,0.023-0.012,0.023
		c-0.009,0-0.013,0.009-0.013,0.025c0,0.016-0.004,0.027-0.012,0.035c-0.009,0.01-0.012,0.021-0.012,0.037s-0.005,0.029-0.013,0.037
		c-0.009,0.008-0.012,0.02-0.012,0.036s-0.005,0.024-0.013,0.024c-0.009,0-0.012,0.008-0.012,0.023v0.024
		c-0.017,0-0.024,0.009-0.024,0.024l-0.024,0.024c0,0.017-0.009,0.032-0.024,0.049l-0.024,0.024v0.023
		c-0.017,0-0.024,0.01-0.024,0.025s-0.009,0.023-0.024,0.023c0,0.017-0.004,0.025-0.012,0.025c-0.009,0-0.012,0.008-0.012,0.023
		h-0.025c0,0.017-0.008,0.033-0.023,0.049l-0.049,0.049l-0.049,0.049l-0.049,0.049h-0.023l-0.049,0.048
		c-0.017,0.017-0.033,0.024-0.049,0.024c0,0.016-0.009,0.024-0.024,0.024l-0.024,0.024c-0.017,0-0.023,0.004-0.023,0.012
		s-0.01,0.012-0.024,0.012h-0.024l-0.049,0.049c-0.065,0.033-0.121,0.057-0.17,0.073c-0.049,0.016-0.115,0.032-0.194,0.049
		c-0.065,0.016-0.163,0.024-0.292,0.024c-0.098,0-0.17-0.009-0.219-0.024h-0.049h-0.024c-0.017,0-0.024-0.009-0.024-0.024h-0.097
		v-0.024h-0.049c-0.065-0.032-0.106-0.048-0.121-0.048c-0.017,0-0.024-0.009-0.024-0.025h-0.024c-0.017,0-0.024-0.008-0.024-0.023
		c-0.017,0-0.033-0.009-0.049-0.025c-0.017,0-0.024-0.008-0.024-0.023h-0.024c-0.016,0-0.024-0.004-0.024-0.012
		c0-0.01-0.008-0.013-0.024-0.013c-0.178-0.13-0.324-0.284-0.438-0.462v-0.024c-0.016,0-0.024-0.008-0.024-0.024l-0.023-0.024
		v-0.024c-0.017-0.016-0.024-0.031-0.024-0.048s-0.008-0.032-0.024-0.049l-4.155-9.6v9.041c0,0.406-0.143,0.75-0.426,1.033
		s-0.628,0.426-1.033,0.426c-0.404,0-0.749-0.143-1.033-0.426c-0.283-0.283-0.425-0.627-0.425-1.033v-16.063v-0.097v-0.073v-0.024
		v-0.048l0.024-0.024v-0.024v-0.049v-0.024c0.017-0.016,0.024-0.032,0.024-0.048v-0.024c0-0.016,0.004-0.024,0.012-0.024
		c0.009,0,0.013-0.008,0.013-0.024s0.004-0.028,0.012-0.036s0.012-0.021,0.012-0.037s0.005-0.028,0.013-0.037
		c0.009-0.008,0.013-0.02,0.013-0.037c0-0.016,0.003-0.024,0.012-0.024c0.008,0,0.013-0.008,0.013-0.024v-0.024l0.048-0.049
		c0-0.016,0.004-0.024,0.012-0.024c0.009,0,0.013-0.008,0.013-0.024l0.024-0.024v-0.024c0.017-0.016,0.024-0.032,0.024-0.048h0.024
		c0-0.016,0.004-0.024,0.012-0.024s0.012-0.008,0.012-0.024h0.025c0-0.016,0.008-0.032,0.023-0.048l0.049-0.049v-0.024
		c0.016,0,0.032-0.008,0.049-0.024v-0.024c0.017,0,0.032-0.008,0.049-0.024h0.023l0.049-0.048l0.049-0.049h0.024
		c0-0.016,0.009-0.024,0.024-0.024c0.017,0,0.024-0.003,0.024-0.012c0-0.008,0.008-0.012,0.023-0.012h0.024l0.049-0.048
		c0.113-0.064,0.227-0.105,0.341-0.122h0.024c0.08-0.016,0.201-0.024,0.364-0.024h0.073h0.023l0.024,0.024h0.049h0.024h0.049
		c0,0.017,0.008,0.024,0.024,0.024h0.048h0.024c0,0.017,0.017,0.024,0.049,0.024c0.017,0.016,0.04,0.024,0.073,0.024
		c0.016,0.016,0.032,0.024,0.048,0.024h0.025c0,0.017,0.016,0.024,0.048,0.024v0.024c0.033,0,0.049,0.009,0.049,0.024h0.024
		c0.017,0,0.024,0.004,0.024,0.012c0,0.009,0.008,0.012,0.024,0.012l0.023,0.024l0.025,0.024l0.023,0.024h0.024
		c0.016,0.017,0.033,0.024,0.049,0.024v0.024c0.016,0,0.024,0.004,0.024,0.012c0,0.008,0.008,0.012,0.024,0.012v0.024
		c0.016,0,0.024,0.004,0.024,0.013s0.007,0.012,0.024,0.012v0.024l0.048,0.049l0.049,0.048l0.049,0.049
		c0,0.016,0.008,0.033,0.024,0.048c0.016,0,0.023,0.009,0.023,0.024c0,0.017,0.008,0.024,0.025,0.024
		c0,0.033,0.008,0.048,0.024,0.048v0.024c0.015,0.017,0.024,0.033,0.024,0.049h0.023c0,0.033,0.004,0.053,0.013,0.061
		c0.008,0.008,0.012,0.021,0.012,0.037l4.155,9.6v-9.041c0-0.405,0.143-0.75,0.426-1.033
		C129.668,116.614,130.012,116.471,130.418,116.471z"/>
	<path fill="#731315" d="M143.286,116.909c0.282,0.276,0.425,0.624,0.425,1.045c0,0.405-0.143,0.75-0.425,1.033
		c-0.284,0.284-0.629,0.425-1.032,0.425h-2.262v14.583c0,0.404-0.141,0.75-0.425,1.033c-0.283,0.282-0.628,0.425-1.032,0.425
		c-0.406,0-0.75-0.143-1.033-0.425c-0.284-0.283-0.426-0.629-0.426-1.033v-14.583h-2.309c-0.405,0-0.749-0.141-1.033-0.425
		c-0.283-0.283-0.425-0.628-0.425-1.033c0-0.421,0.142-0.77,0.425-1.045c0.284-0.275,0.628-0.413,1.033-0.413h7.486
		C142.657,116.496,143.002,116.634,143.286,116.909z"/>
	<path fill="#731315" d="M146.919,116.471c0.421,0,0.769,0.142,1.046,0.425c0.274,0.284,0.412,0.628,0.412,1.033v16.088
		c0,0.406-0.138,0.75-0.412,1.033c-0.277,0.283-0.625,0.426-1.046,0.426c-0.405,0-0.749-0.143-1.033-0.426
		c-0.283-0.283-0.425-0.627-0.425-1.033V117.93c0-0.405,0.142-0.75,0.425-1.033C146.17,116.614,146.514,116.471,146.919,116.471z"/>
	<path fill="#731315" d="M162.667,134.018c0,0.406-0.142,0.75-0.425,1.033c-0.284,0.283-0.629,0.426-1.033,0.426
		c-0.405,0-0.75-0.143-1.033-0.426c-0.284-0.283-0.425-0.627-0.425-1.033v-10.012l-1.531,3.014c-0.13,0.356-0.365,0.616-0.705,0.777
		c-0.194,0.097-0.397,0.146-0.608,0.146h-0.023h-0.024h-0.024h-0.024c-0.211,0-0.413-0.049-0.607-0.146
		c-0.34-0.162-0.575-0.421-0.704-0.777l-1.531-3.014v10.012c0,0.406-0.143,0.75-0.426,1.033c-0.284,0.283-0.627,0.426-1.032,0.426
		s-0.75-0.143-1.034-0.426c-0.283-0.283-0.424-0.627-0.424-1.033V117.93v-0.073v-0.073v-0.024v-0.024
		c0-0.016,0.004-0.024,0.012-0.024s0.012-0.008,0.012-0.024v-0.024v-0.049c0-0.016,0.004-0.028,0.013-0.036
		c0.008-0.008,0.012-0.02,0.012-0.036c0.017-0.098,0.049-0.186,0.097-0.268c0-0.016,0.005-0.024,0.013-0.024
		c0.009,0,0.012-0.008,0.012-0.024l0.024-0.024l0.025-0.024c0-0.016,0.008-0.032,0.023-0.049v-0.024l0.049-0.048
		c0.032-0.032,0.061-0.064,0.085-0.097c0.024-0.032,0.053-0.065,0.085-0.098l0.049-0.048h0.023c0-0.016,0.004-0.024,0.013-0.024
		s0.013-0.007,0.013-0.024h0.023c0.017-0.016,0.033-0.024,0.049-0.024c0-0.016,0.009-0.024,0.024-0.024l0.024-0.024l0.049-0.024
		c0.016-0.016,0.032-0.024,0.049-0.024l0.024-0.024c0.016,0,0.032-0.008,0.048-0.024c0.017,0,0.029-0.004,0.037-0.012
		c0.008-0.008,0.02-0.012,0.036-0.012c0.016,0,0.028-0.004,0.036-0.013c0.008-0.008,0.021-0.012,0.037-0.012
		c0.016,0,0.031-0.008,0.048-0.024h0.024h0.049l0.024-0.024h0.024h0.049h0.024c0.016-0.016,0.032-0.024,0.049-0.024h0.023h0.073
		h0.073h0.072h0.049h0.024c0.016,0,0.032,0.008,0.049,0.024h0.049h0.023h0.049c0.064,0.033,0.122,0.053,0.171,0.061
		c0.048,0.009,0.097,0.029,0.146,0.061h0.023c0,0.017,0.017,0.024,0.05,0.024c0,0.017,0.007,0.024,0.023,0.024l0.024,0.024
		c0.016,0,0.031,0.008,0.049,0.024l0.049,0.049h0.023c0.081,0.048,0.146,0.113,0.195,0.194l0.049,0.048l0.049,0.049
		c0,0.016,0.003,0.024,0.012,0.024c0.007,0,0.012,0.009,0.012,0.024l0.024,0.024l0.024,0.024c0,0.017,0.008,0.033,0.024,0.048
		c0,0.017,0.003,0.029,0.012,0.037c0.008,0.009,0.013,0.021,0.013,0.037l3.062,6.003l3.062-6.003c0-0.032,0.008-0.057,0.024-0.073
		c0.016-0.016,0.023-0.032,0.023-0.048c0.017,0,0.025-0.008,0.025-0.024l0.023-0.024c0-0.016,0.009-0.032,0.025-0.048l0.048-0.049
		l0.049-0.048c0.049-0.081,0.112-0.146,0.194-0.194l0.049-0.049h0.024c0.016-0.016,0.032-0.024,0.048-0.024l0.025-0.024
		c0.015,0,0.023-0.008,0.023-0.024c0.033,0,0.049-0.007,0.049-0.024h0.023c0.033-0.032,0.074-0.052,0.122-0.061
		c0.049-0.008,0.089-0.02,0.122-0.036c0.031,0,0.057-0.008,0.072-0.024h0.049h0.024h0.048c0-0.016,0.009-0.024,0.025-0.024h0.049
		h0.048h0.073h0.072h0.073c0.032,0,0.058,0.008,0.073,0.024h0.049h0.048l0.024,0.024h0.049h0.024l0.048,0.024
		c0.017,0,0.028,0.004,0.037,0.012c0.008,0.009,0.021,0.013,0.036,0.013c0.017,0,0.032,0.008,0.048,0.024h0.025
		c0.016,0.017,0.033,0.024,0.049,0.024v0.024c0.032,0,0.057,0.009,0.072,0.024c0.017,0.017,0.033,0.024,0.049,0.024l0.024,0.024
		l0.024,0.024c0.017,0,0.032,0.008,0.049,0.024l0.049,0.048c0.031,0,0.048,0.016,0.048,0.048c0.081,0.049,0.146,0.114,0.194,0.195
		l0.049,0.048v0.024c0.016,0.017,0.024,0.033,0.024,0.049c0.017,0,0.024,0.008,0.024,0.024l0.023,0.024
		c0,0.017,0.009,0.033,0.024,0.049c0.032,0.082,0.065,0.17,0.098,0.268c0,0.033,0.009,0.057,0.024,0.072v0.049v0.024
		c0,0.016,0.008,0.033,0.024,0.049v0.024v0.024v0.073v0.073V134.018z"/>
	<path fill="#731315" d="M173.688,132.961c0.284,0.283,0.426,0.628,0.426,1.033c0,0.404-0.142,0.75-0.426,1.033
		c-0.283,0.282-0.628,0.425-1.033,0.425h-5.953c-0.404,0-0.75-0.143-1.033-0.425c-0.283-0.283-0.426-0.629-0.426-1.033v-16.089
		c0-0.405,0.143-0.75,0.426-1.033c0.283-0.284,0.629-0.425,1.033-0.425h5.953c0.405,0,0.75,0.142,1.033,0.425
		c0.284,0.283,0.426,0.628,0.426,1.033c0,0.421-0.142,0.77-0.426,1.045c-0.283,0.276-0.628,0.414-1.033,0.414h-4.495v6.124h3.111
		c0.404,0,0.749,0.142,1.032,0.425c0.283,0.284,0.426,0.628,0.426,1.033c0,0.405-0.143,0.75-0.426,1.033s-0.628,0.425-1.032,0.425
		h-3.111v4.131h4.495C173.06,132.535,173.405,132.678,173.688,132.961z"/>
	<path fill="#731315" d="M185.548,116.909c0.283,0.276,0.425,0.624,0.425,1.045c0,0.405-0.142,0.75-0.425,1.033
		c-0.284,0.284-0.628,0.425-1.032,0.425h-2.261v14.583c0,0.404-0.143,0.75-0.425,1.033c-0.285,0.282-0.629,0.425-1.034,0.425
		s-0.749-0.143-1.032-0.425c-0.283-0.283-0.426-0.629-0.426-1.033v-14.583h-2.309c-0.405,0-0.75-0.141-1.032-0.425
		c-0.284-0.283-0.425-0.628-0.425-1.033c0-0.421,0.141-0.77,0.425-1.045c0.282-0.275,0.627-0.413,1.032-0.413h7.486
		C184.92,116.496,185.264,116.634,185.548,116.909z"/>
	<path fill="#731315" d="M196.071,132.961c0.284,0.283,0.426,0.628,0.426,1.033c0,0.404-0.142,0.75-0.426,1.033
		c-0.283,0.282-0.628,0.425-1.032,0.425h-5.954c-0.405,0-0.75-0.143-1.033-0.425c-0.284-0.283-0.426-0.629-0.426-1.033v-16.089
		c0-0.405,0.142-0.75,0.426-1.033c0.283-0.284,0.628-0.425,1.033-0.425h5.954c0.404,0,0.749,0.142,1.032,0.425
		c0.284,0.283,0.426,0.628,0.426,1.033c0,0.421-0.142,0.77-0.426,1.045c-0.283,0.276-0.628,0.414-1.032,0.414h-4.496v6.124h3.11
		c0.404,0,0.75,0.142,1.033,0.425c0.283,0.284,0.425,0.628,0.425,1.033c0,0.405-0.142,0.75-0.425,1.033s-0.629,0.425-1.033,0.425
		h-3.11v4.131h4.496C195.443,132.535,195.787,132.678,196.071,132.961z"/>
	<path fill="#731315" d="M208.672,133.41c0.178,0.373,0.19,0.746,0.036,1.118c-0.153,0.373-0.417,0.64-0.79,0.802
		c-0.194,0.082-0.389,0.122-0.583,0.122c-0.275,0-0.534-0.077-0.778-0.231c-0.242-0.153-0.429-0.367-0.559-0.644l-2.697-6.173
		h-1.458v5.59c0,0.404-0.142,0.75-0.426,1.033c-0.283,0.282-0.628,0.425-1.032,0.425c-0.405,0-0.75-0.143-1.033-0.425
		c-0.284-0.283-0.425-0.629-0.425-1.033v-16.04c0-0.405,0.141-0.75,0.425-1.033c0.283-0.283,0.628-0.425,1.033-0.425h3.523
		c0.615,0,1.207,0.174,1.773,0.522c0.568,0.349,1.062,0.847,1.482,1.495c0.729,1.15,1.094,2.463,1.094,3.937
		c0,0.713-0.092,1.401-0.279,2.066c-0.186,0.665-0.457,1.28-0.814,1.847c-0.161,0.243-0.332,0.462-0.51,0.656
		c-0.179,0.194-0.355,0.373-0.534,0.534L208.672,133.41z M203.908,125.488c0.081,0,0.189-0.052,0.328-0.158
		c0.138-0.105,0.295-0.287,0.475-0.547c0.209-0.324,0.367-0.688,0.474-1.093c0.104-0.405,0.157-0.818,0.157-1.24
		c0-0.421-0.053-0.838-0.157-1.251c-0.106-0.413-0.265-0.781-0.474-1.106c-0.18-0.243-0.337-0.417-0.475-0.522
		c-0.139-0.105-0.247-0.158-0.328-0.158h-2.065v6.076H203.908z"/>
	<path fill="#731315" d="M218.879,126.557c0.955,1.199,1.434,2.6,1.434,4.205c0,0.502-0.053,0.951-0.158,1.349
		s-0.234,0.749-0.389,1.058c-0.154,0.308-0.328,0.574-0.522,0.801c-0.194,0.228-0.39,0.422-0.583,0.584
		c-0.908,0.729-2.009,1.094-3.305,1.094c-0.633,0-1.224-0.09-1.775-0.268c-0.551-0.178-1.036-0.453-1.457-0.826
		c-0.18-0.146-0.361-0.332-0.547-0.559c-0.187-0.227-0.356-0.494-0.511-0.803c-0.154-0.307-0.279-0.664-0.376-1.068
		c-0.098-0.405-0.146-0.867-0.146-1.386c0-0.405,0.142-0.749,0.426-1.032c0.283-0.283,0.627-0.426,1.032-0.426
		c0.421,0,0.77,0.143,1.045,0.426s0.413,0.627,0.413,1.032c0,0.228,0.02,0.458,0.061,0.692c0.041,0.235,0.126,0.449,0.256,0.645
		c0.129,0.193,0.32,0.352,0.57,0.474c0.252,0.122,0.588,0.183,1.01,0.183c0.291,0,0.562-0.037,0.813-0.109
		c0.251-0.073,0.466-0.183,0.645-0.328c0.389-0.341,0.583-0.852,0.583-1.531c0-0.502-0.064-0.939-0.194-1.312
		s-0.32-0.717-0.571-1.033c-0.252-0.316-0.559-0.615-0.924-0.899c-0.364-0.283-0.773-0.587-1.228-0.911
		c-0.421-0.292-0.839-0.596-1.251-0.912c-0.413-0.316-0.799-0.676-1.154-1.082c-0.422-0.518-0.741-1.057-0.961-1.616
		c-0.219-0.559-0.327-1.17-0.327-1.834c0-0.097,0.004-0.276,0.013-0.535c0.007-0.259,0.048-0.559,0.121-0.899
		c0.072-0.34,0.193-0.696,0.364-1.069c0.171-0.373,0.417-0.729,0.741-1.069c0.275-0.308,0.689-0.607,1.239-0.899
		c0.551-0.292,1.264-0.438,2.139-0.438c0.892,0,1.6,0.15,2.126,0.45c0.527,0.3,0.929,0.604,1.203,0.911
		c0.309,0.373,0.539,0.766,0.693,1.179s0.255,0.794,0.304,1.142c0.048,0.349,0.064,0.652,0.048,0.912
		c-0.016,0.259-0.031,0.413-0.048,0.462c-0.049,0.291-0.146,0.534-0.292,0.729c-0.129,0.179-0.304,0.328-0.522,0.45
		s-0.515,0.142-0.887,0.061c-0.356-0.064-0.62-0.182-0.79-0.352c-0.17-0.17-0.283-0.348-0.34-0.535
		c-0.057-0.186-0.082-0.352-0.073-0.498c0.008-0.146,0.013-0.235,0.013-0.268c0.016-0.064,0.023-0.154,0.023-0.268
		c0-0.113-0.012-0.234-0.036-0.364c-0.024-0.129-0.062-0.259-0.109-0.389c-0.049-0.129-0.113-0.243-0.194-0.34
		c-0.193-0.243-0.567-0.365-1.118-0.365c-0.438,0-0.741,0.057-0.911,0.17s-0.279,0.194-0.328,0.243
		c-0.113,0.114-0.199,0.243-0.256,0.389c-0.057,0.146-0.101,0.292-0.133,0.437c-0.033,0.146-0.053,0.272-0.061,0.377
		c-0.009,0.105-0.013,0.182-0.013,0.231v0.049v0.048c0,0.324,0.057,0.62,0.17,0.887c0.114,0.267,0.271,0.519,0.474,0.753
		c0.203,0.235,0.458,0.471,0.767,0.705c0.308,0.235,0.655,0.49,1.045,0.766c0.452,0.324,0.919,0.672,1.397,1.045
		C218.032,125.642,218.474,126.071,218.879,126.557z"/>
	<path fill="#731315" d="M87.766,159.78c0,1.361-0.323,2.463-0.971,3.305c-0.924,1.184-2.382,1.774-4.375,1.774
		c-0.891,0-1.601-0.149-2.127-0.45c-0.526-0.299-0.928-0.604-1.202-0.91c-0.325-0.357-0.56-0.742-0.705-1.154
		c-0.146-0.414-0.243-0.799-0.292-1.154c-0.049-0.357-0.064-0.66-0.049-0.912c0.017-0.251,0.033-0.408,0.049-0.475
		c0.065-0.227,0.17-0.428,0.315-0.607c0.13-0.145,0.3-0.275,0.511-0.389s0.479-0.146,0.803-0.097
		c0.323,0.048,0.57,0.153,0.741,0.315c0.17,0.162,0.295,0.332,0.376,0.511c0.082,0.21,0.13,0.437,0.146,0.681
		c-0.016,0.113-0.012,0.32,0.013,0.619c0.024,0.301,0.125,0.547,0.304,0.742c0.194,0.242,0.567,0.363,1.118,0.363
		c0.502,0,0.915-0.044,1.239-0.133c0.324-0.09,0.571-0.227,0.741-0.414c0.17-0.186,0.287-0.412,0.353-0.68
		c0.064-0.268,0.098-0.579,0.098-0.936c0-1.588-0.292-2.689-0.875-3.305c-0.454-0.454-1.207-0.682-2.261-0.682
		c-0.404,0-0.75-0.141-1.033-0.425c-0.283-0.283-0.425-0.628-0.425-1.032v-0.025c0-0.42,0.142-0.77,0.425-1.045
		s0.629-0.412,1.033-0.412c0.146,0,0.319,0,0.522,0s0.401-0.009,0.596-0.025c0.194-0.016,0.372-0.039,0.534-0.072
		s0.275-0.082,0.341-0.146c0.016-0.016,0.048-0.061,0.097-0.133c0.049-0.073,0.098-0.199,0.146-0.377
		c0.048-0.178,0.089-0.417,0.121-0.717s0.049-0.685,0.049-1.154v-0.073c0.016-0.13-0.005-0.353-0.062-0.669
		c-0.056-0.315-0.189-0.578-0.4-0.789c-0.049-0.049-0.162-0.129-0.341-0.244c-0.178-0.112-0.478-0.17-0.898-0.17
		c-0.551,0-0.924,0.122-1.118,0.365c-0.179,0.194-0.279,0.441-0.304,0.741s-0.028,0.515-0.013,0.644v-0.023
		c0.017,0.259-0.016,0.494-0.097,0.705c-0.082,0.178-0.207,0.355-0.377,0.533c-0.17,0.18-0.441,0.293-0.813,0.341
		c-0.374,0.049-0.665,0.017-0.875-0.097c-0.211-0.113-0.373-0.252-0.486-0.414c-0.13-0.178-0.211-0.396-0.243-0.656
		c-0.016-0.049-0.032-0.201-0.049-0.461c-0.016-0.26,0-0.562,0.049-0.912c0.049-0.348,0.146-0.725,0.292-1.129
		c0.146-0.406,0.38-0.795,0.705-1.167c0.274-0.324,0.676-0.636,1.202-0.937c0.526-0.299,1.236-0.449,2.127-0.449
		s1.607,0.146,2.15,0.438c0.543,0.292,0.951,0.592,1.229,0.9c0.307,0.34,0.55,0.695,0.729,1.068
		c0.178,0.373,0.304,0.729,0.377,1.069c0.072,0.341,0.112,0.64,0.121,0.899c0.008,0.26,0.012,0.438,0.012,0.535
		c0,0.551-0.023,1.037-0.072,1.457c-0.049,0.422-0.113,0.803-0.195,1.143c-0.178,0.615-0.429,1.127-0.752,1.531l0.048,0.049
		C87.199,155.608,87.766,157.381,87.766,159.78z"/>
	<path fill="#731315" d="M90.075,161.238c0.405,0,0.749,0.142,1.032,0.425c0.283,0.284,0.426,0.629,0.426,1.033
		c0,0.422-0.143,0.773-0.426,1.058c-0.283,0.283-0.627,0.425-1.032,0.425c-0.421,0-0.774-0.142-1.058-0.425
		c-0.283-0.284-0.425-0.636-0.425-1.058c0-0.404,0.142-0.749,0.425-1.033C89.301,161.379,89.655,161.238,90.075,161.238z"/>
	<path fill="#731315" d="M102.324,159.78c0,1.361-0.325,2.463-0.973,3.305c-0.924,1.184-2.382,1.774-4.374,1.774
		c-0.892,0-1.601-0.149-2.127-0.45c-0.526-0.299-0.928-0.604-1.203-0.91c-0.324-0.357-0.559-0.742-0.705-1.154
		c-0.146-0.414-0.243-0.799-0.292-1.154c-0.048-0.357-0.064-0.66-0.048-0.912c0.016-0.251,0.032-0.408,0.048-0.475
		c0.064-0.227,0.171-0.428,0.316-0.607c0.13-0.145,0.301-0.275,0.511-0.389c0.211-0.113,0.478-0.146,0.802-0.097
		c0.324,0.048,0.571,0.153,0.741,0.315s0.296,0.332,0.377,0.511c0.081,0.21,0.129,0.437,0.146,0.681
		c-0.017,0.113-0.012,0.32,0.012,0.619c0.024,0.301,0.126,0.547,0.305,0.742c0.194,0.242,0.566,0.363,1.118,0.363
		c0.501,0,0.915-0.044,1.239-0.133c0.324-0.09,0.57-0.227,0.74-0.414c0.171-0.186,0.288-0.412,0.354-0.68
		c0.064-0.268,0.098-0.579,0.098-0.936c0-1.588-0.293-2.689-0.876-3.305c-0.453-0.454-1.207-0.682-2.26-0.682
		c-0.405,0-0.749-0.141-1.033-0.425c-0.284-0.283-0.425-0.628-0.425-1.032v-0.025c0-0.42,0.141-0.77,0.425-1.045
		s0.628-0.412,1.033-0.412c0.146,0,0.319,0,0.522,0c0.202,0,0.4-0.009,0.596-0.025c0.194-0.016,0.372-0.039,0.534-0.072
		c0.161-0.033,0.275-0.082,0.34-0.146c0.017-0.016,0.05-0.061,0.098-0.133c0.048-0.073,0.098-0.199,0.146-0.377
		c0.049-0.178,0.089-0.417,0.121-0.717c0.033-0.3,0.05-0.685,0.05-1.154v-0.073c0.016-0.13-0.005-0.353-0.062-0.669
		c-0.057-0.315-0.19-0.578-0.4-0.789c-0.049-0.049-0.162-0.129-0.34-0.244c-0.18-0.112-0.479-0.17-0.899-0.17
		c-0.552,0-0.924,0.122-1.118,0.365c-0.179,0.194-0.28,0.441-0.305,0.741c-0.023,0.3-0.028,0.515-0.012,0.644v-0.023
		c0.016,0.259-0.017,0.494-0.097,0.705c-0.081,0.178-0.207,0.355-0.377,0.533c-0.171,0.18-0.441,0.293-0.814,0.341
		c-0.372,0.049-0.664,0.017-0.875-0.097c-0.21-0.113-0.373-0.252-0.485-0.414c-0.131-0.178-0.211-0.396-0.244-0.656
		c-0.016-0.049-0.032-0.201-0.048-0.461c-0.017-0.26,0-0.562,0.048-0.912c0.049-0.348,0.146-0.725,0.292-1.129
		c0.146-0.406,0.381-0.795,0.705-1.167c0.275-0.324,0.677-0.636,1.203-0.937c0.526-0.299,1.235-0.449,2.127-0.449
		c0.89,0,1.607,0.146,2.15,0.438c0.542,0.292,0.952,0.592,1.227,0.9c0.309,0.34,0.551,0.695,0.729,1.068s0.304,0.729,0.377,1.069
		s0.113,0.64,0.122,0.899c0.008,0.26,0.012,0.438,0.012,0.535c0,0.551-0.024,1.037-0.073,1.457
		c-0.048,0.422-0.113,0.803-0.194,1.143c-0.179,0.615-0.429,1.127-0.754,1.531l0.05,0.049
		C101.756,155.608,102.324,157.381,102.324,159.78z"/>
	<path fill="#731315" d="M112.361,159.561c0.405,0,0.749,0.143,1.033,0.426c0.283,0.283,0.425,0.627,0.425,1.032
		c0,0.454-0.036,0.907-0.108,1.36c-0.073,0.455-0.248,0.867-0.522,1.24c-0.324,0.453-0.754,0.777-1.289,0.973
		c-0.438,0.161-0.972,0.242-1.604,0.242h-4.787c-0.406,0-0.75-0.142-1.033-0.426c-0.283-0.283-0.426-0.627-0.426-1.032
		c0-0.843,0.118-1.632,0.353-2.37c0.234-0.736,0.538-1.438,0.911-2.102s0.785-1.296,1.239-1.896
		c0.454-0.599,0.907-1.174,1.361-1.725c0.356-0.438,0.696-0.867,1.021-1.288s0.616-0.839,0.875-1.251
		c0.259-0.414,0.466-0.822,0.62-1.229c0.154-0.404,0.23-0.81,0.23-1.215v-0.098c0.017-0.129-0.004-0.348-0.061-0.656
		c-0.057-0.307-0.183-0.574-0.377-0.801c-0.048-0.049-0.161-0.126-0.34-0.231c-0.179-0.104-0.479-0.157-0.899-0.157
		c-0.567,0-0.947,0.113-1.142,0.34c-0.179,0.211-0.279,0.474-0.304,0.789c-0.024,0.316-0.029,0.508-0.013,0.572
		c0.064,0.404-0.024,0.77-0.268,1.094c-0.242,0.323-0.567,0.51-0.972,0.559c-0.406,0.064-0.766-0.025-1.082-0.268
		c-0.315-0.243-0.507-0.566-0.57-0.973c0-0.049-0.009-0.202-0.025-0.461c-0.016-0.26,0-0.562,0.05-0.912
		c0.048-0.348,0.142-0.725,0.278-1.13c0.138-0.405,0.369-0.794,0.693-1.167c0.275-0.323,0.68-0.631,1.215-0.923
		s1.248-0.438,2.139-0.438c0.875,0,1.584,0.142,2.126,0.425c0.543,0.284,0.952,0.58,1.228,0.888c0.309,0.341,0.551,0.7,0.729,1.081
		c0.178,0.381,0.304,0.738,0.377,1.069c0.073,0.333,0.112,0.628,0.121,0.888c0.008,0.259,0.013,0.438,0.013,0.535
		c0,0.664-0.098,1.295-0.292,1.895s-0.454,1.18-0.777,1.738c-0.324,0.559-0.688,1.102-1.095,1.628
		c-0.404,0.526-0.817,1.041-1.238,1.544c-0.648,0.793-1.252,1.575-1.811,2.344c-0.56,0.771-0.953,1.584-1.18,2.443h3.111
		c0.146,0,0.264-0.004,0.353-0.012c0.089-0.009,0.157-0.021,0.206-0.037c0.017-0.064,0.028-0.158,0.036-0.279
		c0.009-0.121,0.013-0.312,0.013-0.571c0-0.405,0.142-0.749,0.426-1.032C111.612,159.703,111.955,159.561,112.361,159.561z"/>
	<path fill="#731315" d="M130.515,145.635c0.421,0,0.77,0.143,1.046,0.426c0.274,0.283,0.412,0.627,0.412,1.033v16.088
		c0,0.404-0.138,0.75-0.412,1.033c-0.276,0.283-0.625,0.425-1.046,0.425c-0.405,0-0.749-0.142-1.033-0.425
		c-0.283-0.283-0.425-0.629-0.425-1.033v-16.088c0-0.406,0.142-0.75,0.425-1.033C129.766,145.778,130.11,145.635,130.515,145.635z"
		/>
	<path fill="#731315" d="M143.176,145.635c0.404,0,0.75,0.143,1.033,0.426s0.426,0.627,0.426,1.033v16.063v0.097v0.073v0.024v0.049
		l-0.025,0.024v0.024v0.049v0.023c-0.016,0.017-0.023,0.033-0.023,0.049v0.024c0,0.017-0.004,0.024-0.012,0.024
		c-0.009,0-0.013,0.008-0.013,0.024s-0.005,0.028-0.013,0.036s-0.012,0.021-0.012,0.037c0,0.016-0.004,0.027-0.012,0.036
		c-0.009,0.009-0.012,0.021-0.012,0.036s-0.005,0.024-0.014,0.024c-0.008,0-0.012,0.009-0.012,0.024v0.023
		c-0.016,0-0.024,0.01-0.024,0.025l-0.024,0.023c0,0.017-0.008,0.033-0.023,0.049l-0.024,0.024v0.024
		c-0.017,0-0.024,0.008-0.024,0.024s-0.009,0.024-0.024,0.024c0,0.016-0.005,0.024-0.012,0.024c-0.009,0-0.013,0.009-0.013,0.024
		h-0.023c0,0.016-0.009,0.032-0.025,0.049l-0.049,0.049l-0.048,0.048l-0.049,0.048H144.1l-0.049,0.049
		c-0.016,0.017-0.032,0.025-0.049,0.025c0,0.016-0.008,0.023-0.023,0.023l-0.024,0.024c-0.016,0-0.024,0.004-0.024,0.013
		c0,0.008-0.009,0.012-0.024,0.012h-0.024l-0.049,0.049c-0.064,0.031-0.121,0.057-0.17,0.072s-0.113,0.033-0.194,0.049
		c-0.064,0.016-0.162,0.024-0.292,0.024c-0.097,0-0.17-0.009-0.219-0.024h-0.048h-0.024c-0.017,0-0.024-0.008-0.024-0.023h-0.097
		v-0.025h-0.049c-0.065-0.032-0.105-0.049-0.121-0.049c-0.018,0-0.024-0.008-0.024-0.023h-0.024c-0.017,0-0.025-0.009-0.025-0.024
		c-0.016,0-0.032-0.009-0.048-0.024c-0.017,0-0.024-0.008-0.024-0.024h-0.024c-0.017,0-0.024-0.005-0.024-0.013
		s-0.008-0.012-0.024-0.012c-0.179-0.129-0.323-0.283-0.438-0.461v-0.025c-0.017,0-0.024-0.008-0.024-0.023l-0.023-0.025v-0.023
		c-0.017-0.016-0.024-0.033-0.024-0.049s-0.009-0.032-0.024-0.049l-4.156-9.6v9.041c0,0.404-0.143,0.75-0.425,1.033
		c-0.284,0.283-0.628,0.425-1.033,0.425s-0.75-0.142-1.033-0.425s-0.425-0.629-0.425-1.033v-16.064v-0.098v-0.072v-0.024v-0.048
		l0.024-0.025v-0.023v-0.049v-0.024c0.016-0.017,0.024-0.032,0.024-0.048v-0.025c0-0.016,0.004-0.023,0.012-0.023
		s0.012-0.009,0.012-0.025c0-0.016,0.004-0.027,0.013-0.036c0.008-0.008,0.012-0.021,0.012-0.036s0.005-0.028,0.013-0.037
		c0.008-0.008,0.012-0.02,0.012-0.036s0.004-0.024,0.013-0.024c0.008,0,0.012-0.008,0.012-0.023v-0.025l0.049-0.049
		c0-0.016,0.004-0.023,0.013-0.023c0.007,0,0.012-0.008,0.012-0.024l0.024-0.024v-0.024c0.016-0.016,0.024-0.032,0.024-0.048h0.024
		c0-0.017,0.003-0.025,0.012-0.025c0.008,0,0.012-0.008,0.012-0.023h0.024c0-0.016,0.008-0.033,0.024-0.049l0.049-0.049v-0.024
		c0.016,0,0.032-0.008,0.049-0.024V146c0.016,0,0.032-0.009,0.049-0.025h0.023l0.049-0.049l0.049-0.048h0.024
		c0-0.017,0.008-0.024,0.024-0.024c0.016,0,0.024-0.004,0.024-0.012s0.008-0.013,0.024-0.013h0.023l0.049-0.048
		c0.113-0.065,0.228-0.105,0.341-0.123h0.024c0.08-0.016,0.202-0.023,0.364-0.023h0.073h0.024l0.023,0.023h0.049h0.024h0.048
		c0,0.018,0.008,0.025,0.025,0.025h0.049h0.023c0,0.016,0.016,0.023,0.049,0.023c0.016,0.018,0.04,0.025,0.073,0.025
		c0.016,0.016,0.032,0.023,0.048,0.023h0.024c0,0.018,0.017,0.025,0.05,0.025v0.023c0.031,0,0.048,0.009,0.048,0.024h0.024
		c0.016,0,0.024,0.005,0.024,0.013s0.008,0.012,0.024,0.012l0.023,0.024l0.024,0.024l0.024,0.023h0.025
		c0.015,0.018,0.031,0.025,0.048,0.025v0.023c0.016,0,0.024,0.004,0.024,0.013s0.008,0.013,0.023,0.013v0.023
		c0.017,0,0.025,0.004,0.025,0.013s0.007,0.012,0.023,0.012v0.024l0.049,0.049l0.049,0.049l0.049,0.049
		c0,0.016,0.008,0.032,0.023,0.048c0.017,0,0.025,0.009,0.025,0.024s0.008,0.024,0.023,0.024c0,0.032,0.008,0.048,0.024,0.048v0.025
		c0.016,0.016,0.024,0.032,0.024,0.049h0.024c0,0.031,0.003,0.053,0.013,0.061c0.008,0.008,0.012,0.02,0.012,0.036l4.156,9.6v-9.04
		c0-0.406,0.141-0.75,0.425-1.033C142.427,145.778,142.772,145.635,143.176,145.635z"/>
	<path fill="#731315" d="M156.446,159.755c0,0.048-0.004,0.206-0.012,0.474c-0.009,0.268-0.049,0.584-0.122,0.948
		s-0.198,0.757-0.376,1.179c-0.179,0.422-0.438,0.811-0.777,1.166c-0.277,0.309-0.686,0.607-1.229,0.899s-1.243,0.438-2.102,0.438
		s-1.552-0.146-2.078-0.438s-0.928-0.591-1.203-0.899c-0.324-0.355-0.575-0.736-0.753-1.143c-0.179-0.404-0.304-0.789-0.376-1.154
		c-0.074-0.364-0.11-0.688-0.11-0.972c0-0.283,0-0.481,0-0.595v-9.332c0-0.988,0.161-1.779,0.486-2.371
		c0.323-0.591,0.656-1.049,0.996-1.372c0.404-0.373,0.866-0.66,1.386-0.863c0.518-0.202,1.061-0.304,1.628-0.304
		c0.55,0,1.106,0.098,1.665,0.291c0.559,0.195,1.057,0.495,1.494,0.9c0.438,0.404,0.794,0.915,1.069,1.531
		c0.275,0.615,0.413,1.344,0.413,2.188c0,0.42-0.142,0.77-0.426,1.044c-0.283,0.276-0.628,0.413-1.032,0.413
		c-0.405,0-0.75-0.137-1.032-0.413c-0.284-0.274-0.426-0.624-0.426-1.044c0-0.438-0.061-0.787-0.183-1.046
		c-0.121-0.259-0.267-0.458-0.437-0.595c-0.171-0.139-0.357-0.232-0.56-0.28s-0.385-0.073-0.547-0.073
		c-0.113,0-0.259,0.021-0.438,0.061c-0.178,0.041-0.353,0.131-0.522,0.268c-0.171,0.139-0.316,0.337-0.438,0.596
		c-0.121,0.26-0.183,0.616-0.183,1.07v9.38v0.122c0,0.081,0,0.19,0,0.328c0,0.137,0.017,0.291,0.049,0.461s0.081,0.341,0.146,0.511
		c0.065,0.171,0.154,0.312,0.268,0.425c0.049,0.049,0.154,0.126,0.316,0.231s0.437,0.157,0.826,0.157
		c0.421,0,0.713-0.052,0.875-0.157c0.161-0.105,0.268-0.19,0.315-0.255c0.227-0.227,0.368-0.511,0.426-0.852
		c0.056-0.34,0.085-0.59,0.085-0.753c0-0.016,0-0.104,0-0.267s0.04-0.336,0.121-0.523c0.081-0.186,0.215-0.36,0.401-0.521
		c0.186-0.162,0.458-0.252,0.813-0.268c0.373-0.016,0.66,0.049,0.863,0.193c0.202,0.146,0.36,0.309,0.474,0.486
		C156.332,159.237,156.413,159.48,156.446,159.755z"/>
	<path fill="#731315" d="M167.237,145.635c0.404,0,0.748,0.143,1.032,0.426s0.425,0.627,0.425,1.033v16.088
		c0,0.404-0.141,0.75-0.425,1.033s-0.628,0.425-1.032,0.425c-0.406,0-0.75-0.142-1.033-0.425c-0.284-0.283-0.426-0.629-0.426-1.033
		v-5.59h-3.791v5.59c0,0.404-0.142,0.75-0.426,1.033c-0.283,0.283-0.628,0.425-1.032,0.425c-0.405,0-0.749-0.142-1.032-0.425
		c-0.285-0.283-0.426-0.629-0.426-1.033v-16.088c0-0.406,0.141-0.75,0.426-1.033c0.283-0.283,0.627-0.426,1.032-0.426
		c0.404,0,0.749,0.143,1.032,0.426c0.284,0.283,0.426,0.627,0.426,1.033v7.582h3.791v-7.582c0-0.406,0.142-0.75,0.426-1.033
		C166.487,145.778,166.83,145.635,167.237,145.635z"/>
	<path fill="#731315" d="M180.031,162.125c0.283,0.283,0.425,0.627,0.425,1.032s-0.142,0.749-0.425,1.032s-0.628,0.426-1.033,0.426
		h-5.954c-0.405,0-0.749-0.143-1.032-0.426c-0.284-0.283-0.426-0.627-0.426-1.032v-16.089c0-0.404,0.142-0.749,0.426-1.032
		c0.283-0.284,0.627-0.425,1.032-0.425h5.954c0.405,0,0.75,0.141,1.033,0.425c0.283,0.283,0.425,0.628,0.425,1.032
		c0,0.422-0.142,0.77-0.425,1.045c-0.283,0.276-0.628,0.414-1.033,0.414h-4.496v6.124h3.111c0.404,0,0.75,0.142,1.033,0.425
		c0.282,0.283,0.424,0.629,0.424,1.033c0,0.405-0.142,0.75-0.424,1.033c-0.283,0.283-0.629,0.425-1.033,0.425h-3.111v4.132h4.496
		C179.404,161.699,179.748,161.842,180.031,162.125z"/>
	<path fill="#731315" d="M190.906,155.721c0.956,1.199,1.435,2.6,1.435,4.204c0,0.503-0.054,0.952-0.158,1.349
		c-0.105,0.397-0.235,0.75-0.39,1.057c-0.153,0.309-0.328,0.576-0.521,0.803c-0.195,0.227-0.39,0.422-0.584,0.584
		c-0.907,0.729-2.009,1.094-3.305,1.094c-0.632,0-1.223-0.09-1.774-0.268c-0.551-0.179-1.036-0.453-1.458-0.826
		c-0.179-0.146-0.361-0.332-0.547-0.56c-0.187-0.227-0.356-0.494-0.51-0.802c-0.154-0.309-0.279-0.664-0.377-1.069
		s-0.146-0.866-0.146-1.386c0-0.404,0.141-0.749,0.425-1.033c0.283-0.283,0.628-0.425,1.033-0.425c0.421,0,0.77,0.142,1.045,0.425
		c0.275,0.284,0.412,0.629,0.412,1.033c0,0.228,0.021,0.459,0.062,0.693c0.04,0.234,0.126,0.449,0.255,0.644
		c0.13,0.194,0.32,0.353,0.571,0.474s0.588,0.183,1.009,0.183c0.292,0,0.562-0.036,0.814-0.109c0.251-0.073,0.465-0.183,0.645-0.328
		c0.389-0.341,0.582-0.851,0.582-1.531c0-0.502-0.064-0.939-0.193-1.312c-0.131-0.373-0.32-0.718-0.571-1.033
		c-0.252-0.316-0.56-0.615-0.924-0.9c-0.364-0.283-0.773-0.586-1.228-0.91c-0.422-0.292-0.839-0.596-1.252-0.912
		c-0.413-0.315-0.798-0.676-1.153-1.081c-0.423-0.519-0.742-1.058-0.961-1.616s-0.327-1.17-0.327-1.834
		c0-0.098,0.003-0.276,0.012-0.535c0.008-0.26,0.049-0.56,0.121-0.899c0.073-0.341,0.194-0.696,0.365-1.069
		c0.17-0.373,0.416-0.729,0.74-1.069c0.275-0.308,0.689-0.607,1.24-0.899c0.551-0.291,1.264-0.438,2.139-0.438
		c0.891,0,1.6,0.15,2.126,0.449c0.526,0.301,0.928,0.604,1.203,0.912c0.308,0.373,0.539,0.766,0.692,1.178
		c0.154,0.414,0.256,0.795,0.305,1.143c0.048,0.35,0.064,0.652,0.048,0.912c-0.016,0.259-0.032,0.412-0.048,0.461
		c-0.049,0.292-0.146,0.535-0.293,0.729c-0.129,0.179-0.303,0.327-0.521,0.45c-0.219,0.121-0.515,0.142-0.887,0.061
		c-0.357-0.064-0.62-0.184-0.79-0.354c-0.171-0.17-0.284-0.348-0.341-0.533c-0.057-0.188-0.081-0.354-0.072-0.498
		c0.008-0.146,0.012-0.236,0.012-0.268c0.016-0.064,0.024-0.154,0.024-0.268s-0.013-0.234-0.036-0.365
		c-0.024-0.129-0.062-0.258-0.109-0.389c-0.049-0.129-0.113-0.243-0.194-0.34c-0.194-0.244-0.567-0.365-1.118-0.365
		c-0.438,0-0.741,0.058-0.911,0.17c-0.171,0.114-0.28,0.195-0.329,0.244c-0.113,0.113-0.198,0.242-0.255,0.389
		c-0.057,0.146-0.101,0.291-0.134,0.438c-0.032,0.146-0.053,0.271-0.061,0.377s-0.012,0.182-0.012,0.23v0.049v0.049
		c0,0.324,0.057,0.619,0.17,0.887s0.271,0.519,0.474,0.753c0.202,0.235,0.458,0.47,0.766,0.705s0.656,0.49,1.046,0.766
		c0.452,0.323,0.919,0.673,1.396,1.044C190.06,154.805,190.502,155.235,190.906,155.721z"/>
	<path fill="#731315" d="M98.795,180.431c0.188,0.188,0.282,0.416,0.282,0.685c0,0.268-0.095,0.496-0.282,0.684
		s-0.416,0.281-0.684,0.281h-0.354l0.177,0.307c0.14,0.225,0.175,0.467,0.105,0.724c-0.07,0.258-0.223,0.456-0.459,0.595
		c-0.15,0.087-0.311,0.129-0.482,0.129c-0.161,0-0.319-0.042-0.475-0.129c-0.156-0.085-0.276-0.203-0.362-0.354l-0.161-0.306
		l-0.178,0.306c-0.086,0.15-0.203,0.269-0.354,0.354c-0.15,0.087-0.312,0.129-0.482,0.129c-0.172,0-0.333-0.042-0.483-0.129
		c-0.235-0.139-0.389-0.334-0.458-0.586c-0.07-0.253-0.035-0.496,0.104-0.732l0.177-0.307h-0.354c-0.268,0-0.496-0.094-0.683-0.281
		c-0.188-0.188-0.283-0.416-0.283-0.684c0-0.269,0.095-0.496,0.283-0.685c0.187-0.188,0.415-0.281,0.683-0.281h0.339l-0.161-0.29
		c-0.14-0.236-0.175-0.482-0.104-0.74c0.069-0.258,0.217-0.45,0.442-0.579c0.235-0.14,0.482-0.175,0.739-0.104
		c0.258,0.07,0.451,0.223,0.58,0.459l0.177,0.289l0.178-0.289c0.128-0.236,0.321-0.389,0.579-0.459s0.504-0.041,0.74,0.088
		c0.226,0.141,0.373,0.338,0.442,0.596s0.04,0.499-0.089,0.725l-0.177,0.306h0.354C98.379,180.15,98.608,180.243,98.795,180.431z"/>
	<path fill="#731315" d="M100.735,178.041c0.279,0,0.509,0.094,0.691,0.281c0.183,0.188,0.273,0.416,0.273,0.685v10.653
		c0,0.269-0.091,0.496-0.273,0.684c-0.183,0.188-0.412,0.283-0.691,0.283c-0.27,0-0.496-0.095-0.685-0.283
		c-0.188-0.188-0.281-0.415-0.281-0.684v-10.653c0-0.269,0.093-0.496,0.281-0.685C100.239,178.135,100.465,178.041,100.735,178.041z
		"/>
	<path fill="#731315" d="M109.118,178.041c0.269,0,0.497,0.094,0.684,0.281c0.188,0.188,0.282,0.416,0.282,0.685v10.638v0.064v0.048
		v0.017v0.031l-0.017,0.017v0.017v0.031v0.017c-0.011,0.011-0.016,0.021-0.016,0.032v0.016c0,0.012-0.003,0.016-0.008,0.016
		c-0.006,0-0.008,0.006-0.008,0.018c0,0.01-0.003,0.019-0.009,0.023c-0.006,0.006-0.008,0.014-0.008,0.024s-0.002,0.019-0.008,0.024
		c-0.006,0.005-0.008,0.014-0.008,0.023c0,0.012-0.003,0.017-0.009,0.017c-0.005,0-0.007,0.005-0.007,0.016v0.017
		c-0.012,0-0.017,0.006-0.017,0.016l-0.016,0.017c0,0.011-0.006,0.021-0.017,0.032l-0.017,0.016v0.016
		c-0.011,0-0.016,0.006-0.016,0.018c0,0.01-0.005,0.016-0.016,0.016c0,0.01-0.003,0.016-0.009,0.016s-0.008,0.006-0.008,0.016
		h-0.016c0,0.012-0.006,0.021-0.017,0.033l-0.032,0.031l-0.032,0.033l-0.032,0.031h-0.016l-0.033,0.033
		c-0.01,0.01-0.021,0.016-0.031,0.016c0,0.011-0.007,0.016-0.016,0.016l-0.017,0.016c-0.011,0-0.017,0.003-0.017,0.009
		c0,0.005-0.006,0.009-0.016,0.009h-0.016l-0.033,0.031c-0.043,0.021-0.08,0.037-0.112,0.049c-0.032,0.01-0.075,0.021-0.128,0.031
		c-0.043,0.012-0.108,0.018-0.194,0.018c-0.064,0-0.112-0.006-0.145-0.018h-0.032h-0.016c-0.012,0-0.017-0.005-0.017-0.016h-0.064
		v-0.016h-0.032c-0.043-0.021-0.07-0.033-0.08-0.033c-0.011,0-0.016-0.004-0.016-0.016h-0.018c-0.01,0-0.016-0.006-0.016-0.016
		c-0.011,0-0.021-0.006-0.032-0.016c-0.011,0-0.016-0.006-0.016-0.018h-0.016c-0.011,0-0.017-0.002-0.017-0.008
		c0-0.005-0.006-0.008-0.016-0.008c-0.119-0.086-0.215-0.188-0.29-0.306v-0.016c-0.011,0-0.016-0.005-0.016-0.017l-0.017-0.016
		v-0.017c-0.011-0.011-0.017-0.021-0.017-0.032c0-0.01-0.005-0.021-0.017-0.031l-2.751-6.357v5.986c0,0.269-0.094,0.496-0.281,0.684
		c-0.188,0.188-0.416,0.283-0.685,0.283s-0.496-0.095-0.684-0.283c-0.188-0.188-0.281-0.415-0.281-0.684v-10.638v-0.063v-0.049
		v-0.016v-0.033l0.015-0.016v-0.016v-0.033v-0.016c0.012-0.01,0.017-0.021,0.017-0.032v-0.016c0-0.011,0.002-0.017,0.008-0.017
		s0.009-0.006,0.009-0.016c0-0.011,0.003-0.02,0.009-0.024c0.004-0.005,0.008-0.013,0.008-0.024c0-0.01,0.002-0.018,0.007-0.023
		c0.006-0.006,0.009-0.014,0.009-0.024s0.002-0.017,0.008-0.017s0.008-0.005,0.008-0.016v-0.016l0.032-0.033
		c0-0.01,0.003-0.016,0.008-0.016c0.006,0,0.009-0.006,0.009-0.016l0.016-0.017v-0.017c0.012-0.01,0.016-0.021,0.016-0.031h0.017
		c0-0.011,0.003-0.017,0.009-0.017c0.005,0,0.008-0.005,0.008-0.017h0.016c0-0.01,0.006-0.021,0.016-0.031l0.033-0.032v-0.017
		c0.01,0,0.021-0.006,0.032-0.016v-0.016c0.011,0,0.021-0.006,0.031-0.018h0.017l0.032-0.031l0.032-0.033h0.016
		c0-0.01,0.006-0.016,0.017-0.016s0.017-0.002,0.017-0.008c0-0.005,0.004-0.008,0.016-0.008h0.016l0.033-0.032
		c0.074-0.043,0.149-0.069,0.225-0.081h0.017c0.053-0.01,0.134-0.016,0.241-0.016h0.048h0.017l0.016,0.016h0.032h0.017h0.032
		c0,0.012,0.005,0.017,0.016,0.017h0.032h0.016c0,0.011,0.011,0.017,0.033,0.017c0.01,0.01,0.026,0.016,0.048,0.016
		c0.011,0.011,0.021,0.016,0.032,0.016h0.016c0,0.012,0.011,0.017,0.032,0.017v0.017c0.021,0,0.032,0.005,0.032,0.016h0.016
		c0.011,0,0.017,0.003,0.017,0.008c0,0.006,0.005,0.008,0.016,0.008l0.017,0.016l0.016,0.018l0.018,0.016h0.015
		c0.011,0.011,0.021,0.016,0.033,0.016v0.016c0.01,0,0.015,0.004,0.015,0.009s0.006,0.009,0.017,0.009v0.016
		c0.011,0,0.017,0.002,0.017,0.008s0.005,0.008,0.016,0.008v0.017l0.033,0.032l0.031,0.031l0.033,0.033
		c0,0.01,0.004,0.021,0.016,0.031c0.01,0,0.016,0.006,0.016,0.017s0.005,0.017,0.016,0.017c0,0.021,0.006,0.031,0.017,0.031v0.017
		c0.011,0.011,0.017,0.021,0.017,0.032h0.016c0,0.021,0.003,0.035,0.008,0.04c0.006,0.006,0.009,0.015,0.009,0.024l2.751,6.357
		v-5.987c0-0.269,0.095-0.496,0.282-0.685C108.622,178.135,108.851,178.041,109.118,178.041z"/>
	<path fill="#731315" d="M124.825,178.814c0.226,0.215,0.445,0.519,0.66,0.909c0.214,0.393,0.322,0.915,0.322,1.569v6.083
		c0,0.654-0.108,1.178-0.322,1.569c-0.215,0.392-0.435,0.694-0.66,0.909c-0.568,0.516-1.238,0.773-2.011,0.773h-1.208h-0.885
		c-0.269,0-0.497-0.095-0.685-0.283c-0.188-0.188-0.281-0.415-0.281-0.684v-10.653c0-0.269,0.094-0.496,0.281-0.685
		c0.188-0.188,0.416-0.281,0.685-0.281h0.885h1.208C123.587,178.041,124.257,178.299,124.825,178.814z M123.876,181.292
		c0-0.3-0.04-0.536-0.121-0.708c-0.08-0.172-0.177-0.303-0.289-0.395c-0.113-0.091-0.231-0.15-0.354-0.178
		c-0.123-0.025-0.223-0.039-0.297-0.039h-1.127v8.723h1.127c0.074,0,0.174-0.014,0.297-0.041c0.123-0.026,0.241-0.086,0.354-0.177
		c0.112-0.091,0.209-0.223,0.289-0.394c0.081-0.172,0.121-0.408,0.121-0.709V181.292z"/>
	<path fill="#731315" d="M128.608,178.041c0.278,0,0.51,0.094,0.692,0.281c0.182,0.188,0.273,0.416,0.273,0.685v10.653
		c0,0.269-0.092,0.496-0.273,0.684c-0.183,0.188-0.414,0.283-0.692,0.283c-0.269,0-0.497-0.095-0.684-0.283
		c-0.188-0.188-0.281-0.415-0.281-0.684v-10.653c0-0.269,0.093-0.496,0.281-0.685C128.111,178.135,128.339,178.041,128.608,178.041z
		"/>
	<path fill="#731315" d="M137.04,189.613c0.054,0.269,0.008,0.513-0.137,0.731c-0.145,0.221-0.352,0.357-0.62,0.411
		c-0.043,0.011-0.102,0.017-0.178,0.017c-0.225,0-0.426-0.072-0.603-0.218s-0.292-0.329-0.347-0.556l-0.337-1.641h-1.722
		l-0.338,1.641c-0.043,0.227-0.153,0.41-0.33,0.556c-0.178,0.146-0.379,0.218-0.604,0.218c-0.087,0-0.15-0.006-0.193-0.017
		c-0.269-0.054-0.475-0.19-0.62-0.411c-0.145-0.219-0.19-0.463-0.137-0.731l2.141-10.638v-0.016v-0.033
		c0-0.01,0.003-0.016,0.008-0.016s0.009-0.006,0.009-0.016v-0.017v-0.017c0.01-0.01,0.016-0.021,0.016-0.031
		c0-0.012,0.003-0.017,0.009-0.017c0.005,0,0.007-0.005,0.007-0.017v-0.016c0.033-0.086,0.08-0.16,0.146-0.225v-0.017
		c0.011,0,0.016-0.003,0.016-0.008s0.006-0.009,0.017-0.009v-0.016l0.016-0.016l0.016-0.017l0.017-0.017l0.017-0.016l0.016-0.016
		l0.033-0.017c0.063-0.064,0.139-0.112,0.225-0.146h0.016c0.011-0.01,0.021-0.016,0.032-0.016c0.054-0.021,0.103-0.034,0.145-0.04
		c0.043-0.005,0.092-0.013,0.146-0.024h0.016h0.033h0.031c0.054,0.012,0.102,0.02,0.145,0.024c0.043,0.006,0.092,0.019,0.146,0.04
		c0.011,0,0.021,0.006,0.032,0.016h0.016c0.086,0.033,0.161,0.081,0.226,0.146c0.011,0,0.021,0.006,0.032,0.017l0.016,0.016
		l0.017,0.016l0.016,0.017l0.017,0.017l0.016,0.016l0.017,0.016l0.016,0.017v0.017c0.065,0.064,0.113,0.139,0.146,0.225v0.016
		c0,0.012,0.002,0.017,0.008,0.017c0.005,0,0.008,0.005,0.008,0.017c0.021,0.064,0.032,0.112,0.032,0.145L137.04,189.613z
		 M133.967,184.061l-0.483,2.365h0.949L133.967,184.061z"/>
	<path fill="#731315" d="M145.843,189.66c0,0.269-0.095,0.496-0.281,0.684c-0.188,0.188-0.417,0.283-0.685,0.283
		c-0.269,0-0.496-0.095-0.684-0.283c-0.188-0.188-0.281-0.415-0.281-0.684v-6.63l-1.015,1.995c-0.086,0.236-0.241,0.408-0.467,0.516
		c-0.128,0.064-0.263,0.096-0.402,0.096h-0.016h-0.017h-0.016h-0.017c-0.14,0-0.273-0.031-0.402-0.096
		c-0.226-0.107-0.38-0.279-0.466-0.516l-1.014-1.995v6.63c0,0.269-0.095,0.496-0.282,0.684c-0.188,0.188-0.416,0.283-0.684,0.283
		c-0.269,0-0.497-0.095-0.685-0.283c-0.188-0.188-0.281-0.415-0.281-0.684v-10.653v-0.048v-0.049v-0.016v-0.017
		c0-0.011,0.002-0.017,0.008-0.017c0.005,0,0.009-0.005,0.009-0.016v-0.016v-0.033c0-0.01,0.002-0.018,0.007-0.023
		c0.006-0.006,0.009-0.014,0.009-0.024c0.01-0.064,0.032-0.122,0.063-0.177c0-0.011,0.003-0.016,0.009-0.016
		c0.005,0,0.008-0.006,0.008-0.017l0.017-0.017l0.016-0.016c0-0.011,0.006-0.021,0.017-0.032v-0.017l0.031-0.031
		c0.021-0.021,0.04-0.043,0.057-0.064s0.035-0.043,0.057-0.064l0.032-0.033h0.016c0-0.01,0.003-0.016,0.009-0.016
		c0.005,0,0.008-0.005,0.008-0.016h0.017c0.01-0.011,0.021-0.016,0.031-0.016c0-0.012,0.006-0.018,0.016-0.018l0.017-0.016
		l0.032-0.016c0.011-0.011,0.021-0.016,0.032-0.016l0.017-0.017c0.01,0,0.021-0.005,0.031-0.017c0.012,0,0.02-0.002,0.025-0.008
		c0.005-0.006,0.013-0.008,0.023-0.008s0.02-0.002,0.024-0.008s0.014-0.008,0.024-0.008c0.01,0,0.021-0.006,0.031-0.017h0.017h0.032
		l0.016-0.017h0.017h0.032h0.016c0.011-0.01,0.021-0.016,0.032-0.016h0.017h0.048h0.049h0.048h0.031h0.018
		c0.01,0,0.021,0.006,0.031,0.016h0.033h0.016h0.032c0.042,0.021,0.081,0.035,0.112,0.041c0.032,0.006,0.064,0.019,0.097,0.04h0.016
		c0,0.011,0.011,0.017,0.033,0.017c0,0.01,0.005,0.016,0.016,0.016l0.016,0.016c0.011,0,0.021,0.006,0.032,0.016l0.033,0.033h0.016
		c0.053,0.031,0.096,0.074,0.129,0.129l0.032,0.031l0.032,0.033c0,0.01,0.002,0.016,0.007,0.016c0.006,0,0.009,0.006,0.009,0.016
		l0.016,0.017l0.017,0.017c0,0.01,0.005,0.021,0.016,0.031c0,0.012,0.003,0.02,0.009,0.024c0.006,0.006,0.008,0.014,0.008,0.024
		l2.027,3.975l2.028-3.975c0-0.021,0.005-0.037,0.017-0.049c0.01-0.01,0.016-0.021,0.016-0.031c0.01,0,0.016-0.006,0.016-0.017
		l0.017-0.017c0-0.01,0.005-0.021,0.016-0.031l0.032-0.033l0.032-0.031c0.032-0.055,0.075-0.098,0.129-0.129l0.032-0.033h0.017
		c0.011-0.01,0.021-0.016,0.031-0.016l0.017-0.016c0.011,0,0.016-0.006,0.016-0.016c0.021,0,0.033-0.006,0.033-0.017h0.016
		c0.021-0.021,0.048-0.034,0.08-0.04s0.059-0.014,0.08-0.024c0.021,0,0.038-0.005,0.049-0.017h0.031h0.018h0.031
		c0-0.01,0.006-0.016,0.017-0.016h0.032h0.031h0.049h0.048h0.049c0.021,0,0.037,0.006,0.048,0.016h0.033h0.031l0.016,0.017h0.033
		h0.016l0.032,0.017c0.011,0,0.02,0.002,0.024,0.008s0.014,0.008,0.024,0.008s0.021,0.006,0.032,0.016h0.016
		c0.01,0.012,0.022,0.017,0.033,0.017v0.017c0.021,0,0.037,0.005,0.048,0.016s0.021,0.016,0.032,0.016l0.016,0.016l0.016,0.018
		c0.011,0,0.022,0.005,0.033,0.016l0.031,0.031c0.021,0,0.033,0.012,0.033,0.033c0.053,0.032,0.097,0.075,0.128,0.129l0.032,0.031
		v0.017c0.01,0.011,0.016,0.021,0.016,0.032c0.011,0,0.018,0.006,0.018,0.016l0.016,0.017c0,0.011,0.005,0.021,0.016,0.032
		c0.021,0.055,0.043,0.112,0.064,0.177c0,0.022,0.006,0.038,0.016,0.048v0.033v0.016c0,0.011,0.006,0.021,0.017,0.032v0.017v0.016
		v0.049v0.048V189.66z"/>
	<path fill="#731315" d="M153.141,188.961c0.188,0.188,0.282,0.416,0.282,0.684s-0.094,0.496-0.282,0.684
		c-0.188,0.188-0.416,0.281-0.684,0.281h-3.943c-0.268,0-0.496-0.094-0.684-0.281s-0.282-0.416-0.282-0.684V178.99
		c0-0.268,0.095-0.496,0.282-0.684s0.416-0.281,0.684-0.281h3.943c0.268,0,0.496,0.094,0.684,0.281
		c0.188,0.188,0.282,0.416,0.282,0.684c0,0.279-0.094,0.51-0.282,0.691c-0.188,0.184-0.416,0.274-0.684,0.274h-2.978v4.056h2.061
		c0.269,0,0.495,0.094,0.683,0.281c0.188,0.188,0.283,0.416,0.283,0.684c0,0.27-0.095,0.497-0.283,0.685
		c-0.188,0.188-0.414,0.282-0.683,0.282h-2.061v2.735h2.978C152.725,188.679,152.953,188.774,153.141,188.961z"/>
	<path fill="#731315" d="M160.994,178.331c0.188,0.183,0.282,0.413,0.282,0.691c0,0.269-0.095,0.497-0.282,0.685
		s-0.416,0.281-0.684,0.281h-1.496v9.656c0,0.268-0.095,0.496-0.282,0.684c-0.188,0.188-0.416,0.281-0.685,0.281
		c-0.268,0-0.496-0.094-0.684-0.281s-0.282-0.416-0.282-0.684v-9.656h-1.528c-0.268,0-0.496-0.094-0.684-0.281
		s-0.282-0.416-0.282-0.685c0-0.278,0.095-0.509,0.282-0.691s0.416-0.274,0.684-0.274h4.957
		C160.578,178.057,160.807,178.149,160.994,178.331z"/>
	<path fill="#731315" d="M167.963,188.961c0.188,0.188,0.281,0.416,0.281,0.684s-0.094,0.496-0.281,0.684
		c-0.188,0.188-0.416,0.281-0.685,0.281h-3.942c-0.269,0-0.496-0.094-0.684-0.281s-0.282-0.416-0.282-0.684V178.99
		c0-0.268,0.095-0.496,0.282-0.684s0.415-0.281,0.684-0.281h3.942c0.269,0,0.496,0.094,0.685,0.281
		c0.188,0.188,0.281,0.416,0.281,0.684c0,0.279-0.094,0.51-0.281,0.691c-0.188,0.184-0.416,0.274-0.685,0.274h-2.977v4.056h2.06
		c0.268,0,0.496,0.094,0.684,0.281c0.188,0.188,0.281,0.416,0.281,0.684c0,0.27-0.093,0.497-0.281,0.685
		c-0.188,0.188-0.416,0.282-0.684,0.282h-2.06v2.735h2.977C167.547,188.679,167.775,188.774,167.963,188.961z"/>
	<path fill="#731315" d="M176.307,189.258c0.118,0.247,0.127,0.494,0.025,0.74c-0.103,0.248-0.277,0.424-0.523,0.531
		c-0.129,0.054-0.258,0.08-0.387,0.08c-0.184,0-0.354-0.051-0.516-0.152c-0.16-0.102-0.283-0.244-0.369-0.426l-1.787-4.088h-0.965
		v3.701c0,0.268-0.095,0.496-0.282,0.684c-0.188,0.188-0.416,0.281-0.684,0.281c-0.269,0-0.497-0.094-0.685-0.281
		s-0.281-0.416-0.281-0.684v-10.622c0-0.268,0.094-0.495,0.281-0.685c0.188-0.188,0.416-0.281,0.685-0.281h2.333
		c0.408,0,0.8,0.116,1.175,0.347c0.376,0.231,0.702,0.561,0.981,0.989c0.482,0.762,0.725,1.631,0.725,2.607
		c0,0.473-0.062,0.928-0.186,1.368c-0.123,0.44-0.303,0.848-0.539,1.224c-0.107,0.16-0.22,0.305-0.338,0.434
		c-0.117,0.129-0.235,0.247-0.354,0.354L176.307,189.258z M173.153,184.012c0.054,0,0.127-0.035,0.218-0.104s0.195-0.19,0.313-0.362
		c0.139-0.215,0.244-0.455,0.314-0.725c0.069-0.268,0.104-0.541,0.104-0.82s-0.034-0.555-0.104-0.828
		c-0.07-0.273-0.176-0.518-0.314-0.732c-0.118-0.161-0.223-0.277-0.313-0.347s-0.164-0.104-0.218-0.104h-1.367v4.023H173.153z"/>
</g>
</svg>
