<?xml version="1.0" encoding="utf-8"?>
<!-- Generator: Adobe Illustrator 16.0.0, SVG Export Plug-In . SVG Version: 6.00 Build 0)  -->
<!DOCTYPE svg PUBLIC "-//W3C//DTD SVG 1.1//EN" "http://www.w3.org/Graphics/SVG/1.1/DTD/svg11.dtd">
<svg version="1.1" id="Layer_1" xmlns="http://www.w3.org/2000/svg" xmlns:xlink="http://www.w3.org/1999/xlink" x="0px" y="0px"
	 width="202px" height="318px" viewBox="34.615 -14.906 202 318" enable-background="new 34.615 -14.906 202 318"
	 xml:space="preserve">
<g id="Layer_1_1_">
</g>
<g id="Layer_5">
</g>
<g id="Layer_2">
</g>
<g id="neptune">
</g>
<g id="uranus">
</g>
<g id="saturn">
</g>
<g id="jupiter">
</g>
<g id="Layer_14">
</g>
<g id="mars">
</g>
<g id="venus">
</g>
<g id="mercury">
</g>
<g id="earth">
</g>
<g id="Layer_6">
</g>
<g>
	<path fill="#D9292C" d="M83.963,292.506c-0.017,0.553-0.109,1.188-0.271,1.91c-0.172,0.721-0.438,1.49-0.807,2.311
		c-0.37,0.822-0.887,1.584-1.558,2.287c-0.57,0.637-1.416,1.256-2.539,1.859c-1.121,0.604-2.568,0.903-4.347,0.903
		c-1.774,0-3.206-0.301-4.3-0.903c-1.088-0.604-1.915-1.224-2.485-1.859c-0.668-0.734-1.18-1.522-1.53-2.361
		c-0.354-0.837-0.605-1.635-0.757-2.387c-0.147-0.754-0.226-1.424-0.226-2.01s0-0.998,0-1.233v-25.931
		c0-0.838,0.293-1.548,0.881-2.137c0.585-0.586,1.295-0.879,2.134-0.879c0.84,0,1.549,0.293,2.135,0.879
		c0.59,0.589,0.881,1.299,0.881,2.137v26.183v0.102c0,0.169,0,0.402,0,0.703c0,0.302,0.033,0.621,0.1,0.955
		c0.068,0.336,0.169,0.678,0.303,1.029c0.133,0.353,0.317,0.646,0.556,0.882c0.098,0.099,0.316,0.259,0.65,0.476
		c0.334,0.221,0.887,0.328,1.659,0.328c0.87,0,1.479-0.107,1.838-0.328c0.347-0.217,0.574-0.377,0.675-0.476
		c0.47-0.504,0.754-1.108,0.852-1.812c0.104-0.704,0.153-1.206,0.153-1.507v-0.151v-0.05v-26.283c0-0.838,0.293-1.549,0.878-2.137
		c0.588-0.585,1.298-0.879,2.137-0.879c0.837,0,1.546,0.294,2.134,0.879c0.588,0.588,0.885,1.299,0.885,2.137v26.232
		C83.993,291.576,83.984,291.951,83.963,292.506z"/>
	<path fill="#D9292C" d="M109.822,297.004c0.367,0.771,0.391,1.541,0.071,2.311c-0.316,0.771-0.859,1.324-1.632,1.659
		c-0.399,0.167-0.804,0.252-1.206,0.252c-0.567,0-1.102-0.16-1.606-0.478c-0.499-0.318-0.891-0.763-1.155-1.332l-5.577-12.767
		h-3.018v11.561c0,0.838-0.292,1.55-0.881,2.136c-0.585,0.586-1.295,0.88-2.134,0.88c-0.837,0-1.548-0.294-2.134-0.88
		s-0.881-1.298-0.881-2.136v-33.169c0-0.837,0.295-1.549,0.881-2.135c0.586-0.587,1.296-0.88,2.134-0.88h7.289
		c1.271,0,2.498,0.358,3.668,1.08c1.173,0.722,2.196,1.751,3.068,3.091c1.506,2.38,2.261,5.094,2.261,8.142
		c0,1.475-0.195,2.897-0.58,4.271c-0.387,1.373-0.948,2.646-1.681,3.818c-0.337,0.503-0.689,0.955-1.059,1.357
		c-0.365,0.4-0.735,0.771-1.107,1.104L109.822,297.004z M99.971,280.621c0.166,0,0.39-0.109,0.676-0.327
		c0.288-0.218,0.613-0.595,0.982-1.13c0.435-0.671,0.763-1.424,0.979-2.264c0.22-0.836,0.328-1.689,0.328-2.562
		c0-0.87-0.108-1.735-0.328-2.588c-0.216-0.854-0.544-1.616-0.979-2.288c-0.37-0.502-0.694-0.861-0.982-1.079
		c-0.286-0.218-0.51-0.326-0.676-0.326h-4.274v12.563H99.971z"/>
	<path fill="#D9292C" d="M131.986,298.109c0.162,0.839,0.024,1.601-0.432,2.286c-0.449,0.688-1.099,1.114-1.933,1.281
		c-0.137,0.033-0.319,0.052-0.554,0.052c-0.699,0-1.333-0.228-1.889-0.678c-0.546-0.454-0.91-1.031-1.075-1.736l-1.059-5.125h-5.376
		l-1.055,5.125c-0.138,0.705-0.479,1.282-1.032,1.736c-0.55,0.45-1.18,0.678-1.883,0.678c-0.267,0-0.468-0.019-0.605-0.052
		c-0.834-0.167-1.481-0.595-1.933-1.281c-0.452-0.686-0.592-1.447-0.43-2.286l6.689-33.219v-0.051v-0.1
		c0-0.033,0.006-0.052,0.022-0.052c0.016,0,0.026-0.016,0.026-0.051v-0.051v-0.048c0.029-0.034,0.05-0.068,0.05-0.104
		c0-0.03,0.006-0.05,0.024-0.05c0.015,0,0.025-0.017,0.025-0.05v-0.049c0.099-0.271,0.251-0.504,0.449-0.705v-0.051
		c0.035,0,0.05-0.009,0.05-0.024s0.019-0.024,0.051-0.024v-0.052l0.05-0.05l0.05-0.049l0.053-0.052l0.052-0.05l0.05-0.052
		l0.101-0.051c0.197-0.199,0.433-0.35,0.7-0.451h0.05c0.033-0.033,0.072-0.051,0.103-0.051c0.171-0.066,0.318-0.107,0.45-0.127
		c0.135-0.017,0.288-0.039,0.456-0.074h0.051h0.098h0.104c0.166,0.035,0.316,0.059,0.449,0.074c0.133,0.02,0.287,0.061,0.452,0.127
		c0.035,0,0.068,0.018,0.104,0.051h0.048c0.269,0.103,0.502,0.252,0.706,0.451c0.031,0,0.064,0.019,0.101,0.051l0.047,0.052
		l0.051,0.05l0.054,0.052l0.051,0.049l0.047,0.05l0.053,0.052l0.051,0.05v0.051c0.2,0.201,0.349,0.436,0.451,0.705v0.049
		c0,0.033,0.007,0.05,0.023,0.05c0.018,0,0.027,0.02,0.027,0.05c0.063,0.201,0.101,0.354,0.101,0.453L131.986,298.109z
		 M122.383,280.771l-1.508,7.391h2.968L122.383,280.771z"/>
	<path fill="#D9292C" d="M153.089,261.978c0.839,0,1.552,0.294,2.136,0.879c0.589,0.585,0.881,1.3,0.881,2.136v33.219v0.201v0.149
		v0.051v0.102l-0.051,0.049v0.051v0.103v0.05c-0.035,0.032-0.05,0.067-0.05,0.101v0.05c0,0.034-0.009,0.051-0.026,0.051
		c-0.017,0-0.023,0.018-0.023,0.051s-0.008,0.059-0.026,0.075c-0.018,0.019-0.022,0.042-0.022,0.075s-0.01,0.06-0.026,0.075
		c-0.019,0.017-0.026,0.041-0.026,0.075c0,0.032-0.006,0.05-0.023,0.05c-0.015,0-0.026,0.019-0.026,0.052v0.05
		c-0.032,0-0.05,0.019-0.05,0.052l-0.048,0.049c0,0.034-0.019,0.068-0.052,0.102l-0.053,0.05v0.051
		c-0.032,0-0.048,0.019-0.048,0.051c0,0.031-0.017,0.052-0.053,0.052c0,0.032-0.005,0.049-0.023,0.049
		c-0.018,0-0.023,0.018-0.023,0.051h-0.046c0,0.033-0.021,0.067-0.058,0.1l-0.098,0.103l-0.102,0.1l-0.101,0.102h-0.05l-0.102,0.103
		c-0.034,0.031-0.07,0.049-0.101,0.049c0,0.032-0.021,0.051-0.05,0.051l-0.05,0.05c-0.036,0-0.051,0.008-0.051,0.024
		c0,0.018-0.018,0.025-0.054,0.025h-0.047l-0.104,0.101c-0.132,0.067-0.248,0.116-0.348,0.151c-0.101,0.031-0.233,0.066-0.402,0.101
		c-0.137,0.032-0.337,0.051-0.605,0.051c-0.198,0-0.35-0.019-0.449-0.051h-0.101h-0.054c-0.029,0-0.05-0.017-0.05-0.051h-0.198
		v-0.05h-0.103c-0.133-0.067-0.216-0.102-0.249-0.102c-0.035,0-0.053-0.019-0.053-0.051h-0.048c-0.035,0-0.054-0.018-0.054-0.049
		c-0.032,0-0.064-0.018-0.101-0.052c-0.033,0-0.047-0.016-0.047-0.051h-0.053c-0.032,0-0.048-0.008-0.048-0.023
		c0-0.018-0.021-0.025-0.053-0.025c-0.37-0.269-0.669-0.587-0.901-0.954v-0.052c-0.037,0-0.053-0.016-0.053-0.049l-0.05-0.052v-0.05
		c-0.032-0.033-0.05-0.068-0.05-0.102s-0.019-0.065-0.047-0.101l-8.597-19.851v18.693c0,0.838-0.292,1.55-0.877,2.136
		c-0.588,0.586-1.3,0.88-2.137,0.88c-0.839,0-1.553-0.294-2.14-0.88c-0.583-0.586-0.875-1.298-0.875-2.136v-33.219v-0.201v-0.15
		v-0.051v-0.099l0.047-0.051v-0.053v-0.1v-0.049c0.036-0.035,0.051-0.068,0.051-0.104v-0.049c0-0.034,0.012-0.05,0.025-0.05
		c0.016,0,0.023-0.017,0.023-0.051c0-0.033,0.009-0.06,0.027-0.076c0.015-0.017,0.027-0.041,0.027-0.075
		c0-0.033,0.006-0.058,0.021-0.076c0.016-0.015,0.026-0.041,0.026-0.072c0-0.034,0.01-0.054,0.023-0.054
		c0.019,0,0.024-0.014,0.024-0.049v-0.051l0.101-0.101c0-0.032,0.009-0.052,0.027-0.052c0.018,0,0.024-0.017,0.024-0.05l0.049-0.049
		v-0.052c0.031-0.032,0.053-0.065,0.053-0.102h0.048c0-0.032,0.009-0.051,0.027-0.051c0.018,0,0.023-0.016,0.023-0.049h0.054
		c0-0.034,0.015-0.067,0.05-0.101l0.098-0.102v-0.051c0.036,0,0.068-0.018,0.104-0.05v-0.051c0.028,0,0.067-0.018,0.097-0.051h0.054
		l0.102-0.1l0.097-0.103h0.05c0-0.033,0.019-0.051,0.05-0.051c0.035,0,0.051-0.007,0.051-0.023c0-0.019,0.018-0.025,0.053-0.025
		h0.047l0.101-0.102c0.239-0.133,0.471-0.217,0.706-0.25h0.047c0.168-0.032,0.42-0.05,0.754-0.05h0.15h0.053l0.051,0.05h0.101h0.047
		h0.104c0,0.033,0.014,0.05,0.047,0.05h0.104h0.051c0,0.033,0.032,0.051,0.098,0.051c0.033,0.033,0.083,0.05,0.15,0.05
		c0.035,0.034,0.068,0.052,0.102,0.052h0.053c0,0.032,0.033,0.049,0.102,0.049v0.052c0.066,0,0.101,0.018,0.101,0.05h0.05
		c0.03,0,0.05,0.008,0.05,0.025s0.018,0.023,0.051,0.023l0.05,0.051l0.047,0.051l0.054,0.052h0.05
		c0.036,0.032,0.065,0.049,0.099,0.049v0.051c0.036,0,0.053,0.008,0.053,0.024c0,0.019,0.015,0.025,0.05,0.025v0.051
		c0.029,0,0.047,0.009,0.047,0.023c0,0.018,0.019,0.025,0.055,0.025v0.051l0.101,0.102l0.102,0.101l0.097,0.1
		c0,0.035,0.019,0.068,0.05,0.102c0.036,0,0.054,0.018,0.054,0.052c0,0.032,0.016,0.049,0.051,0.049c0,0.068,0.018,0.102,0.05,0.102
		v0.05c0.036,0.034,0.05,0.067,0.05,0.102h0.05c0,0.067,0.009,0.108,0.027,0.125c0.015,0.018,0.026,0.043,0.026,0.075l8.592,19.851
		v-18.693c0-0.836,0.291-1.551,0.876-2.136C151.542,262.271,152.252,261.978,153.089,261.978z"/>
	<path fill="#D9292C" d="M180.552,292.506c-0.015,0.553-0.106,1.188-0.271,1.91c-0.172,0.721-0.438,1.49-0.808,2.311
		c-0.37,0.822-0.887,1.584-1.558,2.287c-0.571,0.637-1.416,1.256-2.54,1.859c-1.119,0.604-2.571,0.903-4.344,0.903
		c-1.779,0-3.211-0.301-4.301-0.903c-1.088-0.604-1.918-1.224-2.485-1.859c-0.671-0.734-1.181-1.522-1.534-2.361
		c-0.351-0.837-0.604-1.635-0.751-2.387c-0.15-0.754-0.229-1.424-0.229-2.01s0-0.998,0-1.233v-25.931
		c0-0.838,0.29-1.548,0.881-2.137c0.582-0.586,1.295-0.879,2.135-0.879c0.839,0,1.548,0.293,2.137,0.879
		c0.588,0.589,0.878,1.299,0.878,2.137v26.183v0.102c0,0.169,0,0.402,0,0.703c0,0.302,0.032,0.621,0.101,0.955
		c0.067,0.336,0.169,0.678,0.301,1.029c0.134,0.354,0.319,0.646,0.556,0.882c0.101,0.099,0.317,0.259,0.651,0.476
		c0.334,0.221,0.886,0.328,1.661,0.328c0.868,0,1.478-0.107,1.833-0.328c0.352-0.217,0.579-0.377,0.68-0.476
		c0.467-0.504,0.753-1.108,0.85-1.812c0.104-0.704,0.151-1.206,0.151-1.507v-0.151v-0.05v-26.283c0-0.838,0.296-1.549,0.881-2.137
		c0.589-0.585,1.298-0.879,2.138-0.879c0.838,0,1.545,0.294,2.138,0.879c0.585,0.588,0.881,1.299,0.881,2.137v26.232
		C180.582,291.576,180.573,291.951,180.552,292.506z"/>
	<path fill="#D9292C" d="M202.838,282.832c1.979,2.479,2.97,5.376,2.97,8.692c0,1.04-0.112,1.97-0.331,2.79
		c-0.216,0.821-0.481,1.551-0.804,2.186c-0.317,0.638-0.677,1.19-1.079,1.66c-0.402,0.469-0.804,0.871-1.208,1.205
		c-1.871,1.508-4.153,2.262-6.834,2.262c-1.303,0-2.522-0.185-3.668-0.553c-1.138-0.369-2.146-0.938-3.012-1.709
		c-0.372-0.302-0.747-0.688-1.131-1.155c-0.388-0.468-0.739-1.022-1.059-1.658c-0.315-0.637-0.577-1.374-0.776-2.212
		c-0.198-0.837-0.3-1.791-0.3-2.864c0-0.837,0.289-1.549,0.878-2.136c0.586-0.586,1.298-0.88,2.141-0.88
		c0.863,0,1.583,0.294,2.158,0.88c0.566,0.587,0.854,1.299,0.854,2.136c0,0.47,0.039,0.947,0.124,1.434
		c0.08,0.485,0.26,0.928,0.526,1.332c0.271,0.399,0.662,0.728,1.185,0.979c0.518,0.252,1.209,0.377,2.081,0.377
		c0.605,0,1.164-0.074,1.686-0.225c0.52-0.152,0.962-0.377,1.329-0.679c0.808-0.704,1.213-1.76,1.213-3.168
		c0-1.036-0.141-1.94-0.405-2.715c-0.27-0.77-0.662-1.479-1.183-2.135c-0.518-0.652-1.155-1.272-1.906-1.859
		c-0.757-0.585-1.604-1.213-2.538-1.884c-0.872-0.603-1.735-1.23-2.592-1.884c-0.853-0.654-1.649-1.399-2.386-2.237
		c-0.872-1.07-1.53-2.187-1.982-3.342s-0.681-2.421-0.681-3.795c0-0.201,0.01-0.569,0.024-1.104
		c0.017-0.535,0.103-1.155,0.254-1.859c0.15-0.702,0.402-1.44,0.754-2.21c0.353-0.771,0.86-1.509,1.534-2.211
		c0.564-0.638,1.421-1.258,2.562-1.861c1.138-0.603,2.609-0.903,4.421-0.903c1.841,0,3.311,0.311,4.398,0.93
		c1.087,0.621,1.915,1.249,2.484,1.885c0.637,0.771,1.115,1.584,1.432,2.437c0.316,0.856,0.532,1.645,0.629,2.362
		c0.104,0.722,0.136,1.35,0.104,1.885c-0.036,0.538-0.071,0.854-0.104,0.955c-0.097,0.604-0.298,1.106-0.603,1.508
		c-0.271,0.369-0.627,0.68-1.079,0.931c-0.453,0.252-1.064,0.294-1.833,0.126c-0.736-0.134-1.283-0.377-1.638-0.729
		c-0.35-0.352-0.585-0.721-0.7-1.104c-0.121-0.384-0.168-0.729-0.154-1.031c0.019-0.301,0.027-0.485,0.027-0.552
		c0.032-0.136,0.05-0.318,0.05-0.554c0-0.234-0.023-0.485-0.077-0.755c-0.047-0.268-0.124-0.535-0.225-0.804
		c-0.101-0.268-0.233-0.504-0.405-0.703c-0.402-0.503-1.17-0.754-2.309-0.754c-0.908,0-1.533,0.118-1.886,0.353
		c-0.354,0.233-0.575,0.401-0.677,0.502c-0.239,0.234-0.411,0.504-0.529,0.805c-0.117,0.303-0.207,0.603-0.277,0.904
		c-0.068,0.302-0.104,0.562-0.124,0.778c-0.019,0.218-0.023,0.377-0.023,0.479v0.1v0.102c0,0.672,0.115,1.28,0.35,1.836
		c0.235,0.553,0.562,1.071,0.983,1.557c0.416,0.486,0.943,0.973,1.578,1.459c0.639,0.485,1.362,1.012,2.164,1.58
		c0.937,0.673,1.9,1.392,2.888,2.162C201.088,280.939,202.004,281.827,202.838,282.832z"/>
</g>
<g>
	<path fill="#D9292C" d="M232.65,143.659c4.93,31.324-8.826,61.856-32.25,79.688c-16.4,12.484-43.163,17.932-65.367,17.932
		c-16.7,0-34.263-3.554-48.007-10.945c-30.632-16.47-50.917-46.926-49.614-86.675c1.771-53.882,51.279-106.687,107.192-97.826
		c25.975,4.117,40.597,10.606,58.151,27.516C221.183,91.107,227.907,113.521,232.65,143.659z"/>
	<path fill="#F2D35E" d="M189.868,111.52c-5.491,1.662-10.094-0.25-12.484-4.076c-2.391-3.83-22.035-14.36-25.959-14.478
		c-3.924-0.121-21.537,5.488-29.45,3.91c-7.918-1.578-16.643-5.328-16.643-5.328c-0.073-6.496-18.307-6.32-18.307-6.32
		c6.634-6.533,26.377,0.71,30.951,0.5c3.12-0.148-16.474-9.985-16.474-9.985l22.508,6.744c-6.658-6.494-22.009-15.854-22.009-15.854
		s13.479,0.998,29.703,11.856l-13.229-11.482c5.492,0.874,16.85,7.364,16.85,7.364c-3.854-3.701-2.848-2.792-17.474-13.604
		c9.86,3.12,23.464,10.484,23.464,10.484c-0.874-5.242-13.854-13.978-13.854-13.978c15.227,2.995,21.592,11.849,21.592,11.849
		l-4.868-10.975c0,0,8.487,7.239,9.36,12.48c0,0,2.372-5.616-0.748-8.986c0,0,4.243,5.741,4.118,8.986c0,0,5.616-4.368,9.984-3.37
		c0,0-8.362,2.995-8.861,7.613c0,0,11.981-4.493,21.966-2.496c0,0-12.979,1.748-14.852,5.117c0,0,19.719,0.125,26.209,2.621
		c0,0-18.222,0.354-18.472,2.985c0,0,24.088,4.378,34.821,9.37c0,0-28.705-6.864-32.824-4.119c0,0,24.337,5.367,27.208,8.986
		c0,0-11.232-3.494-18.846-2.995c0,0,12.48,2.371,14.228,5.242c0,0-20.452-0.397-17.831,1.373c0,0,28.19,0.25,32.184,4.243
		c0,0-16.724-1.747-24.462,1.748l2.29,4.633"/>
	<path fill="#731315" d="M127.462,98.149l13.721-2.055h8.744l11.981,2.055l13.479,9.018l6.489,6.253l7.488,2.085l4.677,0.318
		l2.979-2.059l-14.018-4.536c-13.314-8.651-25.589-21.316-43.881-16.161c0,0-3.424,0.682-7.917,0.932
		c-4.177,0.229-10.234-0.266-10.234-0.266c-12.355-2.371-6.213-0.827-17.722-7.247c-11.856-6.615-20.757-0.092-19.883-0.591
		c0.873-0.499,10.257-0.228,15.64,1.083c0,0,2.121,0.221,6.364,4.963C109.615,96.683,126.975,98.223,127.462,98.149z"/>
	<path fill="#F2D35E" d="M176.885,121.673c0,0,4.859,12.48,1.681,29.455l-6.174,13.978l-2.496-13.978l-4.493,8.486l-1.489-11.981
		l-5,7.488l-0.999-9.984c0,0,2.996-18.971,1.498-23.463c-1.498-4.493,4.501,7.988,4.501,7.988l1.489-10.484l3.994,8.986l2.496-9.984
		L176.885,121.673z"/>
	<path fill="#F2D35E" d="M57.073,128.494c2.995-3.663,10.319-9.651,10.319-9.651c-2.328,0.999-2.664,10.983-2.664,10.983
		c0-3.995,8.319-6.656,8.319-6.656c-2.328,1.33-1.661,12.979-1.661,12.979c0-2.663,6.653-10.154,6.653-10.154
		c-1.33,1.827,0,13.149,0,13.149c0-3.993,5.328-6.657,5.328-6.657c-2.329,1.663,2.995,13.313,2.995,9.984s1.997-7.395,1.997-7.395
		c-0.332,2.259,4.992,13.054,3.993,8.727c-0.998-4.327,1.662-15.642,1.662-15.642c0.979-6.989,5.327-11.65,5.327-11.65
		c-3.327-0.333-8.986,6.989-8.986,6.989c-1.665-4.327,4.325-7.654,4.325-7.654c-4.329,0-10.315,5.326-10.315,5.326
		c-0.332-2.995,4.992-8.654,4.992-8.654c-2.328,0-7.987,6.658-7.987,6.658c-0.999-2.331,5.99-12.315,5.99-12.315
		c-1.665-0.333-6.657,3.994-6.657,3.994c-0.336-4.327,6.657-8.986,4.75-8.321c-1.907,0.667-11.072,4.661-11.072,4.661
		c0-2.331,8.986-11.316,8.986-11.316c-3.663,0-10.983,7.654-8.655,3.994c2.329-3.66,6.989-9.984,6.989-9.984l-4.325,2.996
		C70.723,97.542,62.4,113.517,62.4,113.517L57.073,128.494z"/>
	<path fill="#9B1C23" d="M139.943,192.063l3.331-36.611l-16.143,10.65l-16.791-15.976c0,0,1.95-11.979-8.518-9.319
		c-10.468,2.664-34.431-0.387-34.431-0.387l-3.994-2.275c0,0,9.349-21.301,15.991-27.957c6.638-6.655-35.96,27.955-29.306,57.245
		c6.657,29.286,21.303,43.932,21.303,43.932l36.489,7.987L139.943,192.063z"/>
	<path fill="#731315" d="M110.656,240.154c-7.905-1.166-28.288-8.487-28.288-8.487s-13.6-7.104-24.294-22.963
		c-7.238-10.734-24.298-46.263-14.977-44.598l17.449,21.908l24.419,16.002l6.361-10.636l26.158,19.768l9.646-19.054h12.812
		l10.983-18.989l12.316,7.647l15.141-3.664l14.228,10.98l8.92-28.045l9.637,4.744l20.031-29.688c0,0,6.357,22.972-1.419,46.312
		c-8.214,24.648-23.358,38.642-38.016,47.429C191.764,228.82,168.235,248.641,110.656,240.154z"/>
	<path fill="#26620A" d="M145.918,79.999c0,0,1.372-33.955-9.283-39.844c-10.655-5.885-11.774-11.798-36.962-13.923
		C74.487,24.1,78.874,31.122,70.84,22.967c-8.031-8.163,13.764,33.779,35.214,47.949C127.505,85.093,145.918,79.999,145.918,79.999z
		"/>
	<path fill="#491F02" d="M155.387,93.708l-1.489-19.037c0,0,5.18-55.521,15.354-68.655c4.739-6.111-1.135-5.031-3.439-8.689
		c-1.798-2.832,0.597-11.57-1.264-9.241c-4.267,5.337-19.403,62.705-18.912,69.358s-2.866,34.772-2.866,34.772
		S147.685,91.025,155.387,93.708z"/>
	<path fill="none" stroke="#379302" stroke-miterlimit="10" d="M141.038,75.432c0,0-53.752-30.721-58.279-41.074"/>
	<path fill="none" stroke="#379302" stroke-miterlimit="10" d="M128.722,68.162c0,0-0.854-19.397-5.487-23.53"/>
	<path fill="none" stroke="#379302" stroke-miterlimit="10" d="M109.884,55.038c0,0-0.928-18.467-7.527-21.518"/>
</g>
</svg>
