<?xml version="1.0" encoding="utf-8"?>
<!-- Generator: Adobe Illustrator 16.0.0, SVG Export Plug-In . SVG Version: 6.00 Build 0)  -->
<!DOCTYPE svg PUBLIC "-//W3C//DTD SVG 1.1//EN" "http://www.w3.org/Graphics/SVG/1.1/DTD/svg11.dtd">
<svg version="1.1" id="Layer_1" xmlns="http://www.w3.org/2000/svg" xmlns:xlink="http://www.w3.org/1999/xlink" x="0px" y="0px"
	 width="1440px" height="800px" viewBox="0 0 1440 800" style="enable-background:new 0 0 1440 800;" xml:space="preserve">
<style type="text/css">
<![CDATA[
	.st0{opacity:0.8;fill:#FFFFFF;enable-background:new    ;}
	.st1{display:none;fill:#FFF100;}
	.st2{fill:#B44E00;}
	.st3{display:none;fill:#042333;}
	.st4{fill:#256195;}
	.st5{fill:#5F9305;}
	.st6{opacity:0.2;fill:#FFFFFF;enable-background:new    ;}
	.st7{fill:#FFFFFF;}
	.st8{display:inline;}
	.st9{opacity:0.3;fill:#FFFFFF;enable-background:new    ;}
	.st10{fill:#042333;}
	.st11{display:none;}
	.st12{opacity:0.6;fill:#FFFFFF;enable-background:new    ;}
]]>
</style>
<rect x="-13.5" y="-11.5" class="st10" width="1466" height="826"/>
<g id="Layer_1_1_">
</g>
<g id="Layer_5" class="st11">
</g>
<g id="Layer_2">
	<rect x="-779" y="-1430" class="st3" width="5027" height="3657"/>
	<g>
		<circle class="st9" cx="162.5" cy="26.9" r="0.8"/>
		<circle class="st7" cx="101.9" cy="7.3" r="1.4"/>
		<circle class="st7" cx="185.7" cy="126.1" r="4.2"/>
		<circle class="st6" cx="54.7" cy="32.1" r="4.2"/>
		<circle class="st7" cx="407.7" cy="250.1" r="4.2"/>
		<circle class="st9" cx="83" cy="181.5" r="2"/>
		<circle class="st7" cx="96" cy="87.5" r="2"/>
		<circle class="st9" cx="122" cy="213.5" r="2"/>
		<circle class="st7" cx="120.8" cy="266.2" r="1.1"/>
		<circle class="st7" cx="189.6" cy="212" r="1"/>
		<circle class="st7" cx="248.9" cy="346.3" r="1.8"/>
		<circle class="st7" cx="272.9" cy="494.3" r="1.8"/>
		<circle class="st7" cx="169" cy="384.5" r="2"/>
		<circle class="st7" cx="165" cy="310.5" r="2"/>
		<circle class="st7" cx="34" cy="237.5" r="2"/>
		<circle class="st7" cx="32" cy="141.5" r="2"/>
		<circle class="st7" cx="362" cy="70.5" r="2"/>
		<circle class="st12" cx="114" cy="470.5" r="2"/>
		<circle class="st7" cx="239" cy="578.5" r="2"/>
		<circle class="st7" cx="275" cy="617.5" r="2"/>
		<circle class="st7" cx="151.8" cy="555.2" r="1.1"/>
		<circle class="st7" cx="65" cy="526.5" r="2"/>
		<circle class="st7" cx="208" cy="416.5" r="2"/>
		<circle class="st12" cx="63" cy="405.5" r="2"/>
		<circle class="st0" cx="96.5" cy="352" r="3.5"/>
		<circle class="st12" cx="181.5" cy="487" r="3.5"/>
		<circle class="st7" cx="8.5" cy="539.9" r="0.8"/>
		<circle class="st7" cx="15.9" cy="403.3" r="1.4"/>
		<circle class="st7" cx="159.7" cy="603.1" r="4.2"/>
		<circle class="st7" cx="456.7" cy="673.1" r="4.2"/>
		<circle class="st7" cx="232.7" cy="690.1" r="4.2"/>
		<circle class="st7" cx="1183.5" cy="533.9" r="0.8"/>
		<circle class="st7" cx="188" cy="63.5" r="2"/>
		<circle class="st7" cx="1180" cy="649.5" r="2"/>
		<circle class="st9" cx="1136.7" cy="580.1" r="4.2"/>
		<circle class="st9" cx="57" cy="658.5" r="2"/>
		<circle class="st9" cx="24" cy="690.5" r="2"/>
		<circle class="st7" cx="46" cy="727.5" r="2"/>
		<circle class="st7" cx="444" cy="143.5" r="2"/>
		<circle class="st7" cx="318" cy="139.5" r="2"/>
		<circle class="st7" cx="81" cy="598.5" r="2"/>
		<circle class="st7" cx="112" cy="709.5" r="2"/>
		<circle class="st7" cx="114" cy="656.5" r="2"/>
		<circle class="st7" cx="163.6" cy="689" r="1"/>
		<circle class="st7" cx="207.6" cy="730" r="1"/>
		<circle class="st7" cx="25.6" cy="596" r="1"/>
		<circle class="st7" cx="482.9" cy="613.3" r="1.8"/>
		<circle class="st9" cx="542.9" cy="686.3" r="1.8"/>
		<circle class="st9" cx="387" cy="675.5" r="2"/>
		<circle class="st12" cx="411" cy="615.5" r="2"/>
		<circle class="st7" cx="442" cy="549.5" r="2"/>
		<circle class="st9" cx="426" cy="707.5" r="2"/>
		<circle class="st7" cx="314.5" cy="643" r="3.5"/>
		<circle class="st7" cx="540.1" cy="179.6" r="2.3"/>
		<circle class="st7" cx="459.6" cy="223" r="2.5"/>
		<circle class="st7" cx="571.6" cy="72" r="2.5"/>
		<circle class="st12" cx="296" cy="386.5" r="2"/>
		<circle class="st7" cx="547" cy="286.5" r="2"/>
		<circle class="st7" cx="152.1" cy="174.6" r="2.3"/>
		<circle class="st7" cx="306.6" cy="268" r="2.5"/>
		<circle class="st12" cx="357.6" cy="416" r="2.5"/>
		<circle class="st7" cx="360" cy="348.5" r="2"/>
		<circle class="st12" cx="537" cy="594.5" r="2"/>
		<circle class="st12" cx="598.6" cy="624" r="2.5"/>
		<circle class="st7" cx="601" cy="556.5" r="2"/>
		<circle class="st7" cx="498.5" cy="336" r="0.9"/>
		<circle class="st7" cx="447.5" cy="288" r="0.9"/>
		<circle class="st7" cx="410.5" cy="312" r="2.5"/>
		<circle class="st7" cx="452.6" cy="24" r="2.5"/>
		<circle class="st7" cx="149.6" cy="85" r="2.5"/>
		<circle class="st7" cx="255" cy="109.5" r="2"/>
		<circle class="st7" cx="277" cy="64.5" r="2"/>
		<circle class="st7" cx="270" cy="201.5" r="2"/>
		<circle class="st12" cx="500.5" cy="83" r="2.5"/>
		<circle class="st9" cx="545" cy="425.4" r="2.2"/>
		<circle class="st7" cx="446" cy="484.5" r="2"/>
		<circle class="st7" cx="355" cy="536.5" r="2"/>
		<circle class="st7" cx="470" cy="424.5" r="2"/>
		<circle class="st12" cx="515" cy="512.5" r="2"/>
		<circle class="st9" cx="782.5" cy="26.9" r="0.8"/>
		<circle class="st7" cx="721.8" cy="7.3" r="1.4"/>
		<circle class="st7" cx="805.7" cy="126.1" r="4.2"/>
		<circle class="st7" cx="1000.7" cy="199.1" r="4.2"/>
		<circle class="st9" cx="703" cy="181.5" r="2"/>
		<circle class="st7" cx="716" cy="87.5" r="2"/>
		<circle class="st9" cx="742" cy="213.5" r="2"/>
		<circle class="st7" cx="740.8" cy="266.2" r="1.1"/>
		<circle class="st7" cx="809.6" cy="212" r="1"/>
		<circle class="st7" cx="868.9" cy="346.3" r="1.8"/>
		<circle class="st7" cx="892.9" cy="494.3" r="1.8"/>
		<circle class="st7" cx="789" cy="384.5" r="2"/>
		<circle class="st7" cx="785" cy="310.5" r="2"/>
		<circle class="st7" cx="654" cy="237.5" r="2"/>
		<circle class="st7" cx="613" cy="109.5" r="2"/>
		<circle class="st7" cx="652" cy="141.5" r="2"/>
		<circle class="st7" cx="615.8" cy="193.2" r="1.1"/>
		<circle class="st7" cx="982" cy="70.5" r="2"/>
		<circle class="st12" cx="734" cy="470.5" r="2"/>
		<circle class="st7" cx="859" cy="578.5" r="2"/>
		<circle class="st7" cx="895" cy="617.5" r="2"/>
		<circle class="st7" cx="771.8" cy="555.2" r="1.1"/>
		<circle class="st7" cx="685" cy="526.5" r="2"/>
		<circle class="st7" cx="828" cy="416.5" r="2"/>
		<circle class="st12" cx="683" cy="405.5" r="2"/>
		<circle class="st0" cx="716.5" cy="352" r="3.5"/>
		<circle class="st12" cx="801.5" cy="487" r="3.5"/>
		<circle class="st7" cx="628.5" cy="539.9" r="0.8"/>
		<circle class="st7" cx="635.8" cy="403.3" r="1.4"/>
		<circle class="st7" cx="779.7" cy="603.1" r="4.2"/>
		<circle class="st7" cx="1076.7" cy="673.1" r="4.2"/>
		<circle class="st7" cx="852.7" cy="690.1" r="4.2"/>
		<circle class="st9" cx="609.7" cy="64.1" r="4.2"/>
		<circle class="st9" cx="677" cy="658.5" r="2"/>
		<circle class="st9" cx="644" cy="690.5" r="2"/>
		<circle class="st7" cx="666" cy="727.5" r="2"/>
		<circle class="st7" cx="1064" cy="143.5" r="2"/>
		<circle class="st7" cx="938" cy="139.5" r="2"/>
		<circle class="st7" cx="701" cy="598.5" r="2"/>
		<circle class="st7" cx="732" cy="709.5" r="2"/>
		<circle class="st7" cx="734" cy="656.5" r="2"/>
		<circle class="st7" cx="608.8" cy="446.2" r="1.1"/>
		<circle class="st7" cx="783.6" cy="689" r="1"/>
		<circle class="st7" cx="827.6" cy="730" r="1"/>
		<circle class="st7" cx="645.6" cy="596" r="1"/>
		<circle class="st7" cx="1102.9" cy="613.3" r="1.8"/>
		<circle class="st9" cx="1162.9" cy="686.3" r="1.8"/>
		<circle class="st7" cx="1240" cy="707.5" r="2"/>
		<circle class="st7" cx="974.7" cy="729.1" r="4.2"/>
		<circle class="st9" cx="1222.9" cy="744.3" r="1.8"/>
		<circle class="st9" cx="1007" cy="675.5" r="2"/>
		<circle class="st12" cx="1031" cy="615.5" r="2"/>
		<circle class="st7" cx="1062" cy="549.5" r="2"/>
		<circle class="st9" cx="1046" cy="707.5" r="2"/>
		<circle class="st7" cx="934.5" cy="643" r="3.5"/>
		<circle class="st7" cx="1160.1" cy="179.6" r="2.3"/>
		<circle class="st7" cx="1079.6" cy="223" r="2.5"/>
		<circle class="st7" cx="1191.6" cy="72" r="2.5"/>
		<circle class="st12" cx="916" cy="386.5" r="2"/>
		<circle class="st7" cx="1167" cy="286.5" r="2"/>
		<circle class="st7" cx="772.1" cy="174.6" r="2.3"/>
		<circle class="st7" cx="926.6" cy="268" r="2.5"/>
		<circle class="st12" cx="977.6" cy="416" r="2.5"/>
		<circle class="st12" cx="1006.6" cy="470" r="2.5"/>
		<circle class="st0" cx="605" cy="348.5" r="2"/>
		<circle class="st7" cx="980" cy="348.5" r="2"/>
		<circle class="st7" cx="1118.5" cy="336" r="0.9"/>
		<circle class="st7" cx="1067.5" cy="288" r="0.9"/>
		<circle class="st7" cx="1016.5" cy="264" r="2.5"/>
		<circle class="st7" cx="1072.6" cy="24" r="2.5"/>
		<circle class="st7" cx="769.6" cy="85" r="2.5"/>
		<circle class="st7" cx="875" cy="109.5" r="2"/>
		<circle class="st7" cx="897" cy="64.5" r="2"/>
		<circle class="st7" cx="890" cy="201.5" r="2"/>
		<circle class="st12" cx="1120.5" cy="83" r="2.5"/>
		<circle class="st9" cx="1165" cy="425.4" r="2.2"/>
		<circle class="st7" cx="1066" cy="484.5" r="2"/>
		<circle class="st7" cx="975" cy="536.5" r="2"/>
		<circle class="st7" cx="1090" cy="424.5" r="2"/>
		<circle class="st12" cx="1045" cy="348.5" r="2"/>
		<circle class="st12" cx="1106.6" cy="378" r="2.5"/>
		<circle class="st7" cx="1219" cy="386.5" r="2"/>
		<circle class="st12" cx="1135" cy="512.5" r="2"/>
		<path class="st2" d="M940.3,594.1L940.3,594.1c0.7-0.2,1.3-0.3,1.9,0C941.6,594.1,940.9,594.1,940.3,594.1z"/>
		<path class="st2" d="M958.1,594l0.1,0l0,0.1c-0.6,0-1.3,0-1.9,0C956.9,593.7,957.5,593.9,958.1,594z"/>
	</g>
	<circle class="st7" cx="1356.9" cy="68.4" r="2"/>
	<circle class="st7" cx="1314.2" cy="760.8" r="4.2"/>
	<circle class="st7" cx="1066" cy="787.6" r="1.8"/>
	<circle class="st9" cx="1399" cy="576.6" r="1.8"/>
	<circle class="st9" cx="945.9" cy="593.4" r="2"/>
	<circle class="st12" cx="1137.9" cy="785.4" r="2"/>
	<circle class="st7" cx="88.9" cy="756.4" r="2"/>
	<circle class="st12" cx="1404.9" cy="668.4" r="2"/>
	<circle class="st12" cx="1343.4" cy="638.9" r="2.5"/>
	<circle class="st7" cx="1340.9" cy="706.4" r="2"/>
	<circle class="st7" cx="250.4" cy="752" r="0.9"/>
	<circle class="st9" cx="234.8" cy="778.4" r="2.2"/>
	<circle class="st7" cx="36.9" cy="777.4" r="2"/>
	<circle class="st7" cx="159.9" cy="777.4" r="2"/>
	<circle class="st7" cx="928.7" cy="776.3" r="1.8"/>
	<circle class="st7" cx="583.9" cy="760.4" r="2"/>
	<circle class="st0" cx="468.4" cy="767.9" r="3.5"/>
	<circle class="st12" cx="1120.4" cy="732.9" r="3.5"/>
	<circle class="st7" cx="303.7" cy="776.3" r="1.4"/>
	<circle class="st9" cx="1264.9" cy="604.4" r="2"/>
	<circle class="st9" cx="1297.9" cy="572.4" r="2"/>
	<circle class="st7" cx="1275.9" cy="535.4" r="2"/>
	<circle class="st7" cx="1240.9" cy="664.4" r="2"/>
	<circle class="st7" cx="1209.9" cy="553.4" r="2"/>
	<circle class="st7" cx="1207.9" cy="606.4" r="2"/>
	<circle class="st7" cx="320.6" cy="724.2" r="1.1"/>
	<circle class="st7" cx="1296.3" cy="666.9" r="1"/>
	<circle class="st0" cx="356.9" cy="764.4" r="2"/>
	<circle class="st7" cx="731.9" cy="764.4" r="2"/>
	<circle class="st7" cx="870.4" cy="752" r="0.9"/>
	<circle class="st9" cx="1416.5" cy="445" r="0.8"/>
	<circle class="st7" cx="1383.5" cy="787" r="0.8"/>
	<circle class="st7" cx="1399.2" cy="340.8" r="4.2"/>
	<circle class="st6" cx="1422.2" cy="74.8" r="4.2"/>
	<circle class="st9" cx="1209.9" cy="30.4" r="2"/>
	<circle class="st7" cx="1380.9" cy="19.4" r="2"/>
	<circle class="st7" cx="1389.3" cy="259.9" r="1"/>
	<circle class="st7" cx="1330" cy="125.6" r="1.8"/>
	<circle class="st7" cx="1413.9" cy="161.4" r="2"/>
	<circle class="st7" cx="1340.9" cy="199.4" r="2"/>
	<circle class="st7" cx="1260.9" cy="70.4" r="2"/>
	<circle class="st7" cx="1297.1" cy="18.7" r="1.1"/>
	<circle class="st7" cx="1232.9" cy="447.4" r="2"/>
	<circle class="st9" cx="1390.2" cy="716.8" r="4.2"/>
	<circle class="st9" cx="1432.2" cy="771.8" r="4.2"/>
	<circle class="st7" cx="1385.1" cy="488.6" r="1.4"/>
	<circle class="st7" cx="1390.9" cy="408.4" r="2"/>
	<circle class="st7" cx="1260.9" cy="332.4" r="2"/>
	<circle class="st7" cx="1426.8" cy="297.3" r="2.3"/>
	<circle class="st7" cx="1272.4" cy="203.9" r="2.5"/>
	<circle class="st7" cx="1218.9" cy="123.4" r="2"/>
	<circle class="st7" cx="1327.8" cy="475.3" r="2.3"/>
	<circle class="st7" cx="1429.4" cy="386.9" r="2.5"/>
	<circle class="st7" cx="1432.4" cy="528.9" r="2.5"/>
	<circle class="st7" cx="1323.9" cy="362.4" r="2"/>
	<circle class="st7" cx="1301.9" cy="407.4" r="2"/>
	<circle class="st7" cx="1308.9" cy="270.4" r="2"/>
</g>
<g id="neptune">
</g>
<g id="uranus">
</g>
<g id="saturn">
</g>
<g id="jupiter">
</g>
<g id="Layer_14" class="st11">
</g>
<g id="mars">
</g>
<g id="venus">
</g>
<g id="mercury">
</g>
<g id="earth">
</g>
<g id="Layer_6" class="st11">
</g>
<g id="Layer_4">
	<g class="st11">
		<g class="st8">
			<path class="st4" d="M590.8,393.2c0,17.7-14.3,32-32,32c-17.7,0-32-14.3-32-32c0-17.7,14.3-32,32-32
				C576.5,361.2,590.8,375.5,590.8,393.2z"/>
			<path class="st5" d="M578.8,368.2l-10.5-1.3c0,0-5.8,0.7-9.6-1.9c-3.8-2.6-10.2,2.6-10.2,2.6l10.2,6.8l7,7.4l-7,8.2l-4.5-5h-9
				c0,0-4.3-2.3-7.5-7.2c-3.2-4.8-6.4-0.8-6.4-0.8c-3,4.6-4,10.2-4,10.2l7.1,4.4l3.2,6.8l0.6,9.6l14.1,11l0.6-4.9l1.9-6l-10.2-4.1
				l1.9-3.9h7l12.2,7.5l3.2-5.9l10.2,6l4.5-8.5c0,0,5.8,3.1,7-5.8C590.8,393.3,591.6,378.6,578.8,368.2z"/>
		</g>
		<g class="st8">
			<path class="st5" d="M544.3,447.7c0.2,0.2,0.3,0.5,0.3,0.8c0,0.3-0.1,0.6-0.3,0.8c-0.2,0.2-0.5,0.3-0.8,0.3h-4.6
				c-0.3,0-0.6-0.1-0.8-0.3c-0.2-0.2-0.3-0.5-0.3-0.8V436c0-0.3,0.1-0.6,0.3-0.8c0.2-0.2,0.5-0.3,0.8-0.3h4.6c0.3,0,0.6,0.1,0.8,0.3
				c0.2,0.2,0.3,0.5,0.3,0.8c0,0.3-0.1,0.6-0.3,0.8c-0.2,0.2-0.5,0.3-0.8,0.3H540v4.8h2.4c0.3,0,0.6,0.1,0.8,0.3
				c0.2,0.2,0.3,0.5,0.3,0.8c0,0.3-0.1,0.6-0.3,0.8c-0.2,0.2-0.5,0.3-0.8,0.3H540v3.2h3.5C543.8,447.4,544,447.5,544.3,447.7z"/>
			<path class="st5" d="M553.1,448.5c0.1,0.3,0,0.6-0.2,0.9c-0.2,0.3-0.4,0.4-0.7,0.5c-0.1,0-0.1,0-0.2,0c-0.3,0-0.5-0.1-0.7-0.3
				c-0.2-0.2-0.3-0.4-0.4-0.7l-0.4-1.9h-2l-0.4,1.9c0,0.3-0.2,0.5-0.4,0.7c-0.2,0.2-0.5,0.3-0.7,0.3c-0.1,0-0.2,0-0.2,0
				c-0.3-0.1-0.6-0.2-0.7-0.5c-0.2-0.3-0.2-0.5-0.2-0.9l2.5-12.5v0v0c0,0,0,0,0,0s0,0,0,0v0v0c0,0,0,0,0,0c0,0,0,0,0,0s0,0,0,0v0
				c0-0.1,0.1-0.2,0.2-0.3v0c0,0,0,0,0,0s0,0,0,0l0,0l0,0l0,0l0,0l0,0l0,0l0,0c0.1-0.1,0.2-0.1,0.3-0.2h0c0,0,0,0,0,0
				c0.1,0,0.1,0,0.2,0c0.1,0,0.1,0,0.2,0h0h0h0c0.1,0,0.1,0,0.2,0c0.1,0,0.1,0,0.2,0c0,0,0,0,0,0h0c0.1,0,0.2,0.1,0.3,0.2
				c0,0,0,0,0,0l0,0l0,0l0,0l0,0l0,0l0,0l0,0v0c0.1,0.1,0.1,0.2,0.2,0.3v0c0,0,0,0,0,0s0,0,0,0c0,0.1,0,0.1,0,0.2L553.1,448.5z
				 M549.5,441.9l-0.6,2.8h1.1L549.5,441.9z"/>
			<path class="st5" d="M562.1,448c0.1,0.3,0.1,0.6,0,0.9c-0.1,0.3-0.3,0.5-0.6,0.6c-0.1,0.1-0.3,0.1-0.4,0.1
				c-0.2,0-0.4-0.1-0.6-0.2c-0.2-0.1-0.3-0.3-0.4-0.5l-2.1-4.8h-1.1v4.3c0,0.3-0.1,0.6-0.3,0.8c-0.2,0.2-0.5,0.3-0.8,0.3
				c-0.3,0-0.6-0.1-0.8-0.3c-0.2-0.2-0.3-0.5-0.3-0.8V436c0-0.3,0.1-0.6,0.3-0.8c0.2-0.2,0.5-0.3,0.8-0.3h2.7c0.5,0,0.9,0.1,1.4,0.4
				c0.4,0.3,0.8,0.7,1.2,1.2c0.6,0.9,0.8,1.9,0.8,3.1c0,0.6-0.1,1.1-0.2,1.6c-0.1,0.5-0.4,1-0.6,1.4c-0.1,0.2-0.3,0.4-0.4,0.5
				c-0.2,0.1-0.3,0.3-0.4,0.4L562.1,448z M558.4,441.9c0.1,0,0.1,0,0.3-0.1c0.1-0.1,0.2-0.2,0.4-0.4c0.2-0.3,0.3-0.5,0.4-0.9
				c0.1-0.3,0.1-0.6,0.1-1c0-0.3,0-0.7-0.1-1c-0.1-0.3-0.2-0.6-0.4-0.9c-0.1-0.2-0.3-0.3-0.4-0.4c-0.1-0.1-0.2-0.1-0.3-0.1h-1.6v4.7
				H558.4L558.4,441.9z"/>
			<path class="st5" d="M570.8,435.2c0.2,0.2,0.3,0.5,0.3,0.8c0,0.3-0.1,0.6-0.3,0.8c-0.2,0.2-0.5,0.3-0.8,0.3h-1.8v11.3
				c0,0.3-0.1,0.6-0.3,0.8c-0.2,0.2-0.5,0.3-0.8,0.3c-0.3,0-0.6-0.1-0.8-0.3c-0.2-0.2-0.3-0.5-0.3-0.8v-11.3h-1.8
				c-0.3,0-0.6-0.1-0.8-0.3c-0.2-0.2-0.3-0.5-0.3-0.8c0-0.3,0.1-0.6,0.3-0.8c0.2-0.2,0.5-0.3,0.8-0.3h5.8
				C570.3,434.9,570.5,435,570.8,435.2z"/>
			<path class="st5" d="M578.7,434.9c0.3,0,0.6,0.1,0.8,0.3c0.2,0.2,0.3,0.5,0.3,0.8v12.5c0,0.3-0.1,0.6-0.3,0.8
				c-0.2,0.2-0.5,0.3-0.8,0.3c-0.3,0-0.6-0.1-0.8-0.3c-0.2-0.2-0.3-0.5-0.3-0.8v-4.3h-2.9v4.3c0,0.3-0.1,0.6-0.3,0.8
				c-0.2,0.2-0.5,0.3-0.8,0.3c-0.3,0-0.6-0.1-0.8-0.3c-0.2-0.2-0.3-0.5-0.3-0.8V436c0-0.3,0.1-0.6,0.3-0.8c0.2-0.2,0.5-0.3,0.8-0.3
				c0.3,0,0.6,0.1,0.8,0.3c0.2,0.2,0.3,0.5,0.3,0.8v5.9h2.9V436c0-0.3,0.1-0.6,0.3-0.8C578.1,435,578.4,434.9,578.7,434.9z"/>
		</g>
	</g>
	<path class="st1" d="M7941.1-145.6c0,1910-1548.3,3458.3-3458.3,3458.3S1024.4,1764.4,1024.4-145.6
		c0-1910,1548.3-3458.3,3458.3-3458.3S7941.1-2055.6,7941.1-145.6z"/>
</g>
</svg>
