<?xml version="1.0" encoding="utf-8"?>
<!-- Generator: Adobe Illustrator 16.0.0, SVG Export Plug-In . SVG Version: 6.00 Build 0)  -->
<!DOCTYPE svg PUBLIC "-//W3C//DTD SVG 1.1//EN" "http://www.w3.org/Graphics/SVG/1.1/DTD/svg11.dtd">
<svg version="1.1" id="Layer_1" xmlns="http://www.w3.org/2000/svg" xmlns:xlink="http://www.w3.org/1999/xlink" x="0px" y="0px"
	 width="51.5px" height="78.5px" viewBox="63.096 28.29 51.5 78.5" enable-background="new 63.096 28.29 51.5 78.5"
	 xml:space="preserve">
<g id="Layer_1_1_">
</g>
<g id="Layer_5">
</g>
<g id="Layer_2">
</g>
<g id="neptune">
</g>
<g id="uranus">
</g>
<g id="saturn">
</g>
<g id="jupiter">
</g>
<g id="Layer_14">
</g>
<g id="mars">
</g>
<g id="venus">
</g>
<g id="mercury">
</g>
<g id="earth">
</g>
<g id="Layer_6">
</g>
<g>
	<path fill="#2D4877" d="M82.429,100.616c0,0.303-0.108,0.562-0.319,0.771c-0.211,0.214-0.473,0.322-0.773,0.322
		c-0.303,0-0.564-0.108-0.776-0.322c-0.211-0.209-0.319-0.469-0.319-0.771v-7.498l-1.146,2.258
		c-0.091,0.267-0.269,0.463-0.524,0.582c-0.146,0.072-0.296,0.107-0.459,0.107h-0.013h-0.021h-0.02h-0.019
		c-0.154,0-0.308-0.035-0.455-0.107c-0.257-0.119-0.428-0.315-0.527-0.582l-1.144-2.258v7.498c0,0.303-0.108,0.562-0.319,0.771
		c-0.213,0.214-0.471,0.322-0.773,0.322c-0.305,0-0.56-0.108-0.774-0.322c-0.215-0.209-0.316-0.469-0.316-0.771V88.569v-0.054
		v-0.056v-0.018v-0.02c0-0.012,0-0.018,0-0.018c0.016,0,0.019-0.007,0.019-0.021v-0.016v-0.037c0-0.014,0-0.021,0.007-0.027
		c0.008-0.006,0.014-0.016,0.014-0.025c0.011-0.074,0.031-0.14,0.07-0.201c0-0.013,0-0.02,0-0.02c0.013,0,0.018-0.004,0.018-0.018
		l0.019-0.02L73.897,88c0-0.01,0.001-0.023,0.016-0.035v-0.018l0.036-0.035c0.026-0.025,0.048-0.051,0.062-0.072
		c0.019-0.025,0.043-0.051,0.067-0.075l0.035-0.037h0.017c0-0.009,0.007-0.017,0.012-0.017c0,0,0.006-0.006,0.006-0.018h0.02
		c0.014-0.013,0.024-0.02,0.037-0.02c0-0.012,0.006-0.02,0.021-0.02l0.018-0.017l0.031-0.019c0.012-0.015,0.029-0.021,0.04-0.021
		l0.019-0.019c0.012,0,0.022-0.006,0.041-0.02c0.011,0,0.021-0.001,0.021-0.008c0.008-0.006,0.02-0.008,0.02-0.008
		c0.021,0,0.031-0.006,0.039-0.012c0.005-0.007,0.015-0.007,0.024-0.007c0.015,0,0.025-0.008,0.037-0.021h0.021h0.034l0.017-0.02
		H74.6h0.039h0.021c0.008-0.014,0.019-0.02,0.031-0.02h0.02h0.058h0.052h0.058h0.033h0.018c0.016,0,0.026,0.006,0.036,0.02h0.041
		h0.014h0.036c0.049,0.023,0.092,0.039,0.125,0.047c0.039,0.004,0.079,0.021,0.111,0.045h0.017c0,0.012,0.013,0.019,0.04,0.019
		c0,0.011,0.004,0.021,0.017,0.021l0.018,0.018c0.015,0,0.025,0.006,0.039,0.017l0.034,0.039h0.019
		c0.062,0.033,0.114,0.084,0.147,0.146l0.035,0.033l0.036,0.039c0,0.012,0.003,0.02,0.012,0.02c0,0,0.012,0.004,0.012,0.018
		l0.017,0.018l0.019,0.021c0,0.01,0.005,0.021,0.016,0.033c0,0.014,0.006,0.021,0.01,0.027c0.005,0.006,0.01,0.016,0.01,0.027
		l2.293,4.492l2.293-4.492c0-0.023,0.008-0.043,0.019-0.056C80.401,88.01,80.41,88,80.41,87.991c0,0,0.015-0.011,0.015-0.021
		l0.017-0.02c0-0.013,0.003-0.023,0.02-0.035l0.037-0.039l0.031-0.033c0.04-0.061,0.091-0.111,0.146-0.145l0.043-0.039h0.018
		c0.013-0.012,0.025-0.017,0.036-0.017l0.015-0.019c0.013,0,0.021-0.01,0.021-0.021c0.025,0,0.038-0.006,0.038-0.019h0.021
		c0.021-0.024,0.049-0.041,0.088-0.045c0.036-0.008,0.066-0.016,0.09-0.027c0.029,0,0.043-0.008,0.055-0.02h0.035h0.016h0.042
		c0-0.014,0.002-0.019,0.018-0.019h0.036h0.034h0.059h0.054h0.051c0.028,0,0.045,0.005,0.059,0.019h0.038h0.035l0.018,0.02h0.034
		h0.021l0.037,0.021c0.011,0,0.02,0,0.028,0.006c0.004,0.006,0.012,0.012,0.023,0.012c0.016,0,0.026,0.005,0.038,0.016h0.021
		c0.016,0.014,0.019,0.02,0.033,0.02v0.019c0.029,0,0.044,0.006,0.056,0.021c0.013,0.012,0.023,0.019,0.041,0.019l0.017,0.017
		l0.016,0.021c0.013,0,0.029,0.006,0.042,0.019l0.031,0.033c0.023,0,0.034,0.014,0.034,0.037c0.062,0.038,0.108,0.086,0.147,0.146
		l0.037,0.035v0.02c0.014,0.011,0.017,0.023,0.017,0.033c0.012,0,0.02,0.008,0.02,0.021l0.016,0.019
		c0,0.015,0.009,0.024,0.021,0.037c0.024,0.062,0.051,0.127,0.073,0.201c0,0.021,0.006,0.041,0.02,0.055v0.037v0.016
		c0,0.014,0.006,0.025,0.021,0.037v0.02v0.018v0.056v0.054v12.043H82.429z"/>
	<path fill="#2D4877" d="M90.539,100.56c0.061,0.304,0.007,0.582-0.157,0.827c-0.162,0.25-0.397,0.406-0.7,0.468
		c-0.045,0.009-0.112,0.017-0.2,0.017c-0.252,0-0.479-0.082-0.68-0.244c-0.196-0.164-0.329-0.373-0.388-0.631l-0.387-1.854h-1.946
		l-0.383,1.854c-0.051,0.258-0.172,0.467-0.372,0.631c-0.199,0.162-0.429,0.244-0.683,0.244c-0.098,0-0.172-0.008-0.217-0.017
		c-0.305-0.062-0.541-0.218-0.7-0.468c-0.165-0.245-0.218-0.523-0.157-0.827l2.425-12.024v-0.02v-0.038c0-0.011,0-0.017,0.007-0.017
		c0,0,0.007-0.004,0.007-0.019v-0.019v-0.02c0.012-0.014,0.017-0.023,0.017-0.035c0-0.014,0.007-0.021,0.007-0.021
		c0.014,0,0.014-0.005,0.014-0.017v-0.021c0.037-0.099,0.093-0.183,0.167-0.255V88.04c0.009,0,0.02-0.002,0.02-0.008
		c0-0.008,0-0.012,0.021-0.012V88l0.013-0.015l0.02-0.021l0.017-0.02l0.019-0.018l0.021-0.018l0.035-0.021
		c0.072-0.072,0.153-0.126,0.251-0.163h0.021c0.013-0.009,0.023-0.017,0.038-0.017c0.063-0.023,0.112-0.039,0.163-0.047
		c0.045-0.004,0.104-0.015,0.165-0.024h0.021h0.03h0.036c0.062,0.011,0.12,0.021,0.164,0.024c0.05,0.008,0.104,0.022,0.165,0.047
		c0.014,0,0.024,0.008,0.035,0.017h0.021c0.098,0.037,0.181,0.091,0.258,0.163c0.013,0,0.018,0.008,0.031,0.021l0.021,0.018
		l0.014,0.018l0.02,0.02l0.023,0.021L87.866,88l0.021,0.02l0.021,0.02v0.018c0.068,0.072,0.125,0.156,0.165,0.255v0.021
		c0,0.012,0,0.017,0,0.017s0.017,0.007,0.017,0.021c0.021,0.072,0.032,0.127,0.032,0.164L90.539,100.56z M87.062,94.286
		l-0.546,2.674h1.074L87.062,94.286z"/>
	<path fill="#2D4877" d="M99.147,100.161c0.138,0.278,0.143,0.559,0.028,0.836c-0.116,0.278-0.312,0.479-0.593,0.602
		c-0.149,0.061-0.292,0.09-0.438,0.09c-0.203,0-0.396-0.055-0.584-0.173c-0.182-0.114-0.322-0.272-0.414-0.481l-2.021-4.619h-1.089
		v4.185c0,0.304-0.107,0.562-0.316,0.772c-0.215,0.211-0.473,0.316-0.775,0.316c-0.3,0-0.562-0.105-0.772-0.316
		s-0.315-0.47-0.315-0.772V88.588c0-0.303,0.104-0.561,0.315-0.772c0.212-0.211,0.474-0.317,0.772-0.317h2.635
		c0.464,0,0.911,0.131,1.331,0.391c0.428,0.262,0.797,0.634,1.112,1.119c0.543,0.863,0.815,1.845,0.815,2.947
		c0,0.535-0.07,1.051-0.208,1.547c-0.14,0.496-0.343,0.959-0.607,1.385c-0.125,0.18-0.25,0.346-0.386,0.49
		c-0.137,0.146-0.268,0.277-0.399,0.399L99.147,100.161z M95.577,94.23c0.063,0,0.147-0.039,0.249-0.121
		c0.104-0.075,0.222-0.214,0.356-0.409c0.157-0.24,0.275-0.514,0.354-0.818c0.078-0.303,0.118-0.612,0.118-0.928
		c0-0.312-0.04-0.627-0.118-0.938c-0.077-0.309-0.195-0.584-0.354-0.825c-0.136-0.185-0.252-0.313-0.356-0.392
		c-0.102-0.082-0.186-0.121-0.249-0.121h-1.542v4.552H95.577z"/>
	<path fill="#2D4877" d="M106.784,95.03c0.72,0.898,1.077,1.944,1.077,3.146c0,0.377-0.037,0.711-0.118,1.011
		c-0.077,0.297-0.177,0.562-0.291,0.791c-0.111,0.229-0.244,0.431-0.392,0.603c-0.149,0.166-0.29,0.313-0.435,0.438
		c-0.685,0.546-1.504,0.818-2.479,0.818c-0.472,0-0.915-0.068-1.326-0.201c-0.413-0.133-0.775-0.34-1.092-0.617
		c-0.134-0.109-0.271-0.249-0.408-0.42c-0.141-0.17-0.269-0.369-0.384-0.602c-0.111-0.229-0.207-0.496-0.28-0.801
		c-0.068-0.302-0.105-0.648-0.105-1.035c0-0.305,0.101-0.562,0.314-0.773c0.215-0.211,0.471-0.32,0.774-0.32
		c0.313,0,0.579,0.109,0.781,0.32c0.209,0.212,0.312,0.47,0.312,0.773c0,0.168,0.017,0.342,0.045,0.518
		c0.029,0.176,0.092,0.336,0.192,0.482c0.097,0.145,0.238,0.262,0.426,0.354c0.187,0.089,0.437,0.135,0.751,0.135
		c0.226,0,0.426-0.026,0.613-0.079c0.186-0.056,0.349-0.138,0.482-0.246c0.287-0.254,0.435-0.638,0.435-1.146
		c0-0.375-0.048-0.702-0.146-0.983c-0.094-0.278-0.238-0.534-0.427-0.772c-0.188-0.235-0.415-0.459-0.69-0.672
		c-0.271-0.215-0.582-0.439-0.919-0.686c-0.315-0.217-0.628-0.443-0.939-0.682c-0.305-0.235-0.594-0.506-0.861-0.809
		c-0.314-0.389-0.553-0.793-0.717-1.213c-0.163-0.416-0.247-0.873-0.247-1.371c0-0.076,0-0.209,0.006-0.402
		c0.012-0.193,0.04-0.416,0.095-0.674c0.055-0.252,0.146-0.52,0.273-0.799s0.312-0.547,0.557-0.802
		c0.2-0.229,0.514-0.452,0.925-0.671c0.412-0.223,0.949-0.329,1.601-0.329c0.671,0,1.197,0.112,1.59,0.337
		c0.4,0.225,0.7,0.45,0.908,0.684c0.229,0.276,0.401,0.574,0.518,0.883c0.111,0.308,0.189,0.594,0.229,0.854
		c0.032,0.262,0.043,0.488,0.032,0.684c-0.013,0.193-0.024,0.309-0.032,0.345c-0.04,0.22-0.107,0.401-0.223,0.547
		c-0.1,0.134-0.228,0.245-0.396,0.337c-0.163,0.09-0.382,0.104-0.664,0.046c-0.266-0.051-0.462-0.138-0.589-0.267
		c-0.129-0.127-0.212-0.258-0.257-0.398c-0.04-0.141-0.061-0.265-0.053-0.373c0.01-0.109,0.01-0.177,0.01-0.201
		c0.014-0.047,0.021-0.113,0.021-0.199s-0.012-0.176-0.031-0.272c-0.018-0.097-0.044-0.194-0.078-0.289
		c-0.038-0.101-0.086-0.183-0.147-0.257c-0.146-0.182-0.424-0.271-0.84-0.271c-0.325,0-0.553,0.045-0.682,0.125
		c-0.127,0.086-0.207,0.146-0.244,0.185c-0.086,0.083-0.148,0.183-0.192,0.289c-0.046,0.108-0.074,0.22-0.097,0.332
		c-0.032,0.106-0.042,0.2-0.051,0.28c0,0.078-0.006,0.135-0.006,0.172v0.033v0.039c0,0.244,0.045,0.467,0.125,0.662
		c0.092,0.2,0.204,0.391,0.356,0.564c0.146,0.177,0.346,0.354,0.572,0.529c0.232,0.176,0.492,0.367,0.781,0.57
		c0.344,0.245,0.691,0.506,1.046,0.784C106.154,94.344,106.487,94.667,106.784,95.03z"/>
</g>
<g>
	<path fill="#2D4877" d="M113.283,55.744c0,6.016-1.555,11.592-5.203,15.817c-4.418,5.116-9.895,8.29-17.191,8.29
		c-1.893,0-5.447-0.216-7.217-0.63c-10.657-2.486-18.609-12.05-18.609-23.477c0-8.829,4.016-17.443,11.089-21.642
		c3.599-2.138,8.606-3.3,13.018-2.468C102.244,34.103,113.283,42.425,113.283,55.744z"/>
	<polygon fill="#202D59" points="92.883,48.915 90.889,51.643 89.817,52.927 85.916,54.873 87.096,56.208 87.096,58.658 
		89.99,54.981 91.903,52.984 94.076,50.376 94.324,48.073 	"/>
	<path fill="#375B8D" d="M65.063,55.744l1.568-3.681c0,0,2.454-3.99,4.605-7.063c2.152-3.069,5.066-2.608,5.066-2.608l-4.915,7.214
		l1.079,4.605l-1.23,4.146c0,0,0.922,1.691,2.914,3.839c2.001,2.148,1.54,6.602,1.54,6.602l4.146-3.533l0.461,4.455l1.072,2.147
		l4.072,2.458l5.75-1.537c0,0,7.375-4.45,13.514-7.062c6.138-2.609,4.145-1.382,4.145-1.382l3.729-1.986
		c0,0-1.677,7.124-5.002,9.772c-3.332,2.656-7.088,6.872-11.693,7.182c0,0-6.297,1.148-9.521,0.303
		c-3.224-0.842-5.339-0.922-7.454-2.051c-2.116-1.131-8.204-4.699-10.579-9.693C66.135,63.25,65.099,59.119,65.063,55.744z"/>
	<path fill="#202D59" d="M95.797,48.685l2.15-2.914l2.52-1.075l2.698,2.302l-0.46,2.458l1.842,3.375l1.842,5.682
		c0,0,1.08,3.68-2.604,7.983c-3.685,4.297-6.605,5.527-6.605,5.527l-6.821,3.223l2.373-4.453l2.916-4.758
		c0,0,2.453-1.841,2.453-3.838s1.842-6.588,1.842-6.588l-1.684-3.85l0.899-1.536L95.797,48.685z"/>
	<path fill="#1E1930" d="M100.561,54.405l1.382-0.942l1.381,1.144c0,0,1.763,4.793,1.302,6.48c-0.46,1.688-1.688,3.703-1.688,3.703
		l-0.841-1.674v-4.458l-0.923-0.302l0.31-1.382L100.561,54.405z"/>
	<polygon fill="#1E1930" points="97.179,67.106 98.719,65.265 99.33,66.956 98.869,69.564 97.726,71.741 95.012,73.043 
		96.107,69.87 96.257,67.877 	"/>
	<path fill="#375B8D" d="M82.908,36.898c0,0,1.267-4.145,2.072-4.145c0.807,0,4.951,2.533,5.643,2.648c0.69,0.115,0,0.806,0,0.806
		s1.727,0.784,2.417,0.568c0.691-0.223,1.972,0.123,1.972,0.123s-0.014,3.569,1.021,3.915c1.037,0.346,2.419,1.151,2.419,1.151
		s-4.721,0.691-4.605,2.418c0.114,1.727,0.114,2.418,0.114,2.418s-0.921-0.806-1.611-0.691c-0.691,0.115-6.908,0-7.829,1.037
		l-1.438-2.707c0,0-2.188-3.05-0.691-3.799c1.496-0.748-3.397-0.518-3.627-2.706c0,0,1.842-1.842,1.957-2.302
		C80.836,35.171,81.988,36.438,82.908,36.898z"/>
	<path fill="#202D59" d="M93.458,41.684c-0.31,2.331-2.706,3.936-5.354,3.583c-2.647-0.349-4.54-2.525-4.23-4.857
		c0.302-2.331,2.705-3.936,5.347-3.591C91.868,37.171,93.768,39.345,93.458,41.684z"/>
	<path fill="#1E1930" d="M93.163,39.64c0,0-2.656-2.626-4.785-2.166c-2.13,0.46-4.483,2.767-4.483,2.767s0.396-3.126,4.367-3.465
		C92.235,36.438,93.163,39.64,93.163,39.64z"/>
	<path fill="#1E1930" d="M78.764,37.934c0,0,0.914,0.845,1.756,0.845c0.85,0,1.691,0.306,1.691,0.306l0.31,0.155l0.028,1.313
		c0,0-3.634-1.216-3.785-1.986C78.613,37.797,78.764,37.934,78.764,37.934z"/>
	<path fill="#1E1930" d="M84.521,47.146c0,0,3.303-1.037,4.008-0.864C89.241,46.455,86.823,44.728,84.521,47.146z"/>
	<path fill="#1E1930" d="M95.012,36.898c0,0,0.504,2.59,1.08,2.936c0.576,0.345,1.885,1.712,2.238,2.151
		c0.353,0.439-2.642-1.288-2.642-1.288S94.674,37.819,95.012,36.898z"/>
</g>
</svg>
