<?xml version="1.0" encoding="utf-8"?>
<!-- Generator: Adobe Illustrator 16.0.0, SVG Export Plug-In . SVG Version: 6.00 Build 0)  -->
<!DOCTYPE svg PUBLIC "-//W3C//DTD SVG 1.1//EN" "http://www.w3.org/Graphics/SVG/1.1/DTD/svg11.dtd">
<svg version="1.1" id="Layer_1" xmlns="http://www.w3.org/2000/svg" xmlns:xlink="http://www.w3.org/1999/xlink" x="0px" y="0px"
	 width="51.5px" height="78.5px" viewBox="63.096 28.29 51.5 78.5" enable-background="new 63.096 28.29 51.5 78.5"
	 xml:space="preserve">
<g id="Layer_1_1_">
</g>
<g id="Layer_5">
</g>
<g id="Layer_2">
</g>
<g id="neptune">
</g>
<g id="uranus">
</g>
<g id="saturn">
</g>
<g id="jupiter">
</g>
<g id="Layer_14">
</g>
<g id="mars">
</g>
<g id="venus">
</g>
<g id="mercury">
</g>
<g id="earth">
</g>
<g id="Layer_6">
</g>
<g>
	<path fill="#2D4877" d="M82.429,100.616c0,0.303-0.108,0.562-0.319,0.771c-0.211,0.214-0.473,0.322-0.773,0.322
		c-0.303,0-0.564-0.108-0.776-0.322c-0.211-0.209-0.319-0.469-0.319-0.771v-7.498l-1.146,2.258
		c-0.091,0.267-0.269,0.463-0.524,0.582c-0.146,0.072-0.296,0.107-0.459,0.107h-0.013h-0.021h-0.02h-0.019
		c-0.154,0-0.308-0.035-0.455-0.107c-0.257-0.119-0.428-0.315-0.527-0.582l-1.144-2.258v7.498c0,0.303-0.108,0.562-0.319,0.771
		c-0.213,0.214-0.471,0.322-0.773,0.322c-0.305,0-0.56-0.108-0.774-0.322c-0.215-0.209-0.316-0.469-0.316-0.771V88.569v-0.054
		v-0.056v-0.018v-0.02c0-0.012,0-0.018,0-0.018c0.016,0,0.019-0.007,0.019-0.021v-0.016v-0.037c0-0.014,0-0.021,0.007-0.027
		c0.008-0.006,0.014-0.016,0.014-0.025c0.011-0.074,0.031-0.14,0.07-0.201c0-0.013,0-0.02,0-0.02c0.013,0,0.018-0.004,0.018-0.018
		l0.019-0.02L73.897,88c0-0.01,0.001-0.023,0.016-0.035v-0.018l0.036-0.035c0.026-0.025,0.048-0.051,0.062-0.072
		c0.019-0.025,0.043-0.051,0.067-0.075l0.035-0.037h0.017c0-0.009,0.007-0.017,0.012-0.017c0,0,0.006-0.006,0.006-0.018h0.02
		c0.014-0.013,0.024-0.02,0.037-0.02c0-0.012,0.006-0.02,0.021-0.02l0.018-0.017l0.031-0.019c0.012-0.015,0.029-0.021,0.04-0.021
		l0.019-0.019c0.012,0,0.022-0.006,0.041-0.02c0.011,0,0.021-0.001,0.021-0.008c0.008-0.006,0.02-0.008,0.02-0.008
		c0.021,0,0.031-0.006,0.039-0.012c0.005-0.007,0.015-0.007,0.024-0.007c0.015,0,0.025-0.008,0.037-0.021h0.021h0.034l0.017-0.02
		H74.6h0.039h0.021c0.008-0.014,0.019-0.02,0.031-0.02h0.02h0.058h0.052h0.058h0.033h0.018c0.016,0,0.026,0.006,0.036,0.02h0.041
		h0.014h0.036c0.049,0.023,0.092,0.039,0.125,0.047c0.039,0.004,0.079,0.021,0.111,0.045h0.017c0,0.012,0.013,0.019,0.04,0.019
		c0,0.011,0.004,0.021,0.017,0.021l0.018,0.018c0.015,0,0.025,0.006,0.039,0.017l0.034,0.039h0.019
		c0.062,0.033,0.114,0.084,0.147,0.146l0.035,0.033l0.036,0.039c0,0.012,0.003,0.02,0.012,0.02c0,0,0.012,0.004,0.012,0.018
		l0.017,0.018l0.019,0.021c0,0.01,0.005,0.021,0.016,0.033c0,0.014,0.006,0.021,0.01,0.027c0.005,0.006,0.01,0.016,0.01,0.027
		l2.293,4.492l2.293-4.492c0-0.023,0.008-0.043,0.019-0.056C80.401,88.01,80.41,88,80.41,87.991c0,0,0.015-0.011,0.015-0.021
		l0.017-0.02c0-0.013,0.003-0.023,0.02-0.035l0.037-0.039l0.031-0.033c0.04-0.061,0.091-0.111,0.146-0.145l0.043-0.039h0.018
		c0.013-0.012,0.025-0.017,0.036-0.017l0.015-0.019c0.013,0,0.021-0.01,0.021-0.021c0.025,0,0.038-0.006,0.038-0.019h0.021
		c0.021-0.024,0.049-0.041,0.088-0.045c0.036-0.008,0.066-0.016,0.09-0.027c0.029,0,0.043-0.008,0.055-0.02h0.035h0.016h0.042
		c0-0.014,0.002-0.019,0.018-0.019h0.036h0.034h0.059h0.054h0.051c0.028,0,0.045,0.005,0.059,0.019h0.038h0.035l0.018,0.02h0.034
		h0.021l0.037,0.021c0.011,0,0.02,0,0.028,0.006c0.004,0.006,0.012,0.012,0.023,0.012c0.016,0,0.026,0.005,0.038,0.016h0.021
		c0.016,0.014,0.019,0.02,0.033,0.02v0.019c0.029,0,0.044,0.006,0.056,0.021c0.013,0.012,0.023,0.019,0.041,0.019l0.017,0.017
		l0.016,0.021c0.013,0,0.029,0.006,0.042,0.019l0.031,0.033c0.023,0,0.034,0.014,0.034,0.037c0.062,0.038,0.108,0.086,0.147,0.146
		l0.037,0.035v0.02c0.014,0.011,0.017,0.023,0.017,0.033c0.012,0,0.02,0.008,0.02,0.021l0.016,0.019
		c0,0.015,0.009,0.024,0.021,0.037c0.024,0.062,0.051,0.127,0.073,0.201c0,0.021,0.006,0.041,0.02,0.055v0.037v0.016
		c0,0.014,0.006,0.025,0.021,0.037v0.02v0.018v0.056v0.054v12.043H82.429z"/>
	<path fill="#2D4877" d="M90.539,100.56c0.061,0.304,0.007,0.582-0.157,0.827c-0.162,0.25-0.397,0.406-0.7,0.468
		c-0.045,0.009-0.112,0.017-0.2,0.017c-0.252,0-0.479-0.082-0.68-0.244c-0.196-0.164-0.329-0.373-0.388-0.631l-0.387-1.854h-1.946
		l-0.383,1.854c-0.051,0.258-0.172,0.467-0.372,0.631c-0.199,0.162-0.429,0.244-0.683,0.244c-0.098,0-0.172-0.008-0.217-0.017
		c-0.305-0.062-0.541-0.218-0.7-0.468c-0.165-0.245-0.218-0.523-0.157-0.827l2.425-12.024v-0.02v-0.038c0-0.011,0-0.017,0.007-0.017
		c0,0,0.007-0.004,0.007-0.019v-0.019v-0.02c0.012-0.014,0.017-0.023,0.017-0.035c0-0.014,0.007-0.021,0.007-0.021
		c0.014,0,0.014-0.005,0.014-0.017v-0.021c0.037-0.099,0.093-0.183,0.167-0.255V88.04c0.009,0,0.02-0.002,0.02-0.008
		c0-0.008,0-0.012,0.021-0.012V88l0.013-0.015l0.02-0.021l0.017-0.02l0.019-0.018l0.021-0.018l0.035-0.021
		c0.072-0.072,0.153-0.126,0.251-0.163h0.021c0.013-0.009,0.023-0.017,0.038-0.017c0.063-0.023,0.112-0.039,0.163-0.047
		c0.045-0.004,0.104-0.015,0.165-0.024h0.021h0.03h0.036c0.062,0.011,0.12,0.021,0.164,0.024c0.05,0.008,0.104,0.022,0.165,0.047
		c0.014,0,0.024,0.008,0.035,0.017h0.021c0.098,0.037,0.181,0.091,0.258,0.163c0.013,0,0.018,0.008,0.031,0.021l0.021,0.018
		l0.014,0.018l0.02,0.02l0.023,0.021L87.866,88l0.021,0.02l0.021,0.02v0.018c0.068,0.072,0.125,0.156,0.165,0.255v0.021
		c0,0.012,0,0.017,0,0.017s0.017,0.007,0.017,0.021c0.021,0.072,0.032,0.127,0.032,0.164L90.539,100.56z M87.062,94.286
		l-0.546,2.674h1.074L87.062,94.286z"/>
	<path fill="#2D4877" d="M99.147,100.161c0.138,0.278,0.143,0.559,0.028,0.836c-0.116,0.278-0.312,0.479-0.593,0.602
		c-0.149,0.061-0.292,0.09-0.438,0.09c-0.203,0-0.396-0.055-0.584-0.173c-0.182-0.114-0.322-0.272-0.414-0.481l-2.021-4.619h-1.089
		v4.185c0,0.304-0.107,0.562-0.316,0.772c-0.215,0.211-0.473,0.316-0.775,0.316c-0.3,0-0.562-0.105-0.772-0.316
		s-0.315-0.47-0.315-0.772V88.588c0-0.303,0.104-0.561,0.315-0.772c0.212-0.211,0.474-0.317,0.772-0.317h2.635
		c0.464,0,0.911,0.131,1.331,0.391c0.428,0.262,0.797,0.634,1.112,1.119c0.543,0.863,0.815,1.845,0.815,2.947
		c0,0.535-0.07,1.051-0.208,1.547c-0.14,0.496-0.343,0.959-0.607,1.385c-0.125,0.18-0.25,0.346-0.386,0.49
		c-0.137,0.146-0.268,0.277-0.399,0.399L99.147,100.161z M95.577,94.23c0.063,0,0.147-0.039,0.249-0.121
		c0.104-0.075,0.222-0.214,0.356-0.409c0.157-0.24,0.275-0.514,0.354-0.818c0.078-0.303,0.118-0.612,0.118-0.928
		c0-0.312-0.04-0.627-0.118-0.938c-0.077-0.309-0.195-0.584-0.354-0.825c-0.136-0.185-0.252-0.313-0.356-0.392
		c-0.102-0.082-0.186-0.121-0.249-0.121h-1.542v4.552H95.577z"/>
	<path fill="#2D4877" d="M106.784,95.03c0.72,0.898,1.077,1.944,1.077,3.146c0,0.377-0.037,0.711-0.118,1.011
		c-0.077,0.297-0.177,0.562-0.291,0.791c-0.111,0.229-0.244,0.431-0.392,0.603c-0.149,0.166-0.29,0.313-0.435,0.438
		c-0.685,0.546-1.504,0.818-2.479,0.818c-0.472,0-0.915-0.068-1.326-0.201c-0.413-0.133-0.775-0.34-1.092-0.617
		c-0.134-0.109-0.271-0.249-0.408-0.42c-0.141-0.17-0.269-0.369-0.384-0.602c-0.111-0.229-0.207-0.496-0.28-0.801
		c-0.068-0.302-0.105-0.648-0.105-1.035c0-0.305,0.101-0.562,0.314-0.773c0.215-0.211,0.471-0.32,0.774-0.32
		c0.313,0,0.579,0.109,0.781,0.32c0.209,0.212,0.312,0.47,0.312,0.773c0,0.168,0.017,0.342,0.045,0.518
		c0.029,0.176,0.092,0.336,0.192,0.482c0.097,0.145,0.238,0.262,0.426,0.354c0.187,0.089,0.437,0.135,0.751,0.135
		c0.226,0,0.426-0.026,0.613-0.079c0.186-0.056,0.349-0.138,0.482-0.246c0.287-0.254,0.435-0.638,0.435-1.146
		c0-0.375-0.048-0.702-0.146-0.983c-0.094-0.278-0.238-0.534-0.427-0.772c-0.188-0.235-0.415-0.459-0.69-0.672
		c-0.271-0.215-0.582-0.439-0.919-0.686c-0.315-0.217-0.628-0.443-0.939-0.682c-0.305-0.235-0.594-0.506-0.861-0.809
		c-0.314-0.389-0.553-0.793-0.717-1.213c-0.163-0.416-0.247-0.873-0.247-1.371c0-0.076,0-0.209,0.006-0.402
		c0.012-0.193,0.04-0.416,0.095-0.674c0.055-0.252,0.146-0.52,0.273-0.799s0.312-0.547,0.557-0.802
		c0.2-0.229,0.514-0.452,0.925-0.671c0.412-0.223,0.949-0.329,1.601-0.329c0.671,0,1.197,0.112,1.59,0.337
		c0.4,0.225,0.7,0.45,0.908,0.684c0.229,0.276,0.401,0.574,0.518,0.883c0.111,0.308,0.189,0.594,0.229,0.854
		c0.032,0.262,0.043,0.488,0.032,0.684c-0.013,0.193-0.024,0.309-0.032,0.345c-0.04,0.22-0.107,0.401-0.223,0.547
		c-0.1,0.134-0.228,0.245-0.396,0.337c-0.163,0.09-0.382,0.104-0.664,0.046c-0.266-0.051-0.462-0.138-0.589-0.267
		c-0.129-0.127-0.212-0.258-0.257-0.398c-0.04-0.141-0.061-0.265-0.053-0.373c0.01-0.109,0.01-0.177,0.01-0.201
		c0.014-0.047,0.021-0.113,0.021-0.199s-0.012-0.176-0.031-0.272c-0.018-0.097-0.044-0.194-0.078-0.289
		c-0.038-0.101-0.086-0.183-0.147-0.257c-0.146-0.182-0.424-0.271-0.84-0.271c-0.325,0-0.553,0.045-0.682,0.125
		c-0.127,0.086-0.207,0.146-0.244,0.185c-0.086,0.083-0.148,0.183-0.192,0.289c-0.046,0.108-0.074,0.22-0.097,0.332
		c-0.032,0.106-0.042,0.2-0.051,0.28c0,0.078-0.006,0.135-0.006,0.172v0.033v0.039c0,0.244,0.045,0.467,0.125,0.662
		c0.092,0.2,0.204,0.391,0.356,0.564c0.146,0.177,0.346,0.354,0.572,0.529c0.232,0.176,0.492,0.367,0.781,0.57
		c0.344,0.245,0.691,0.506,1.046,0.784C106.154,94.344,106.487,94.667,106.784,95.03z"/>
</g>
<g>
	<path fill="#2D4877" d="M113.283,55.744c0,6.016-1.555,11.592-5.203,15.817c-4.418,5.116-9.895,8.29-17.191,8.29
		c-1.893,0-5.447-0.216-7.217-0.63c-10.657-2.486-18.609-12.05-18.609-23.477c0-8.829,4.016-17.443,11.089-21.642
		c3.599-2.138,8.606-3.3,13.018-2.468C102.244,34.103,113.283,42.425,113.283,55.744z"/>
	<polygon fill="#202D59" points="92.883,48.915 90.889,51.643 89.817,52.927 85.916,54.873 87.096,56.208 87.096,58.658 
		89.99,54.981 91.903,52.984 94.076,50.376 94.324,48.073 	"/>
	<path fill="#375B8D" d="M65.063,55.744l1.568-3.681c0,0,2.454-3.99,4.605-7.063c2.152-3.069,5.066-2.608,5.066-2.608l-4.915,7.214
		l1.079,4.605l-1.23,4.146c0,0,0.922,1.691,2.914,3.839c2.001,2.148,1.54,6.602,1.54,6.602l4.146-3.533l0.461,4.455l1.072,2.147
		l4.072,2.458l5.75-1.537c0,0,7.375-4.45,13.514-7.062c6.138-2.609,4.145-1.382,4.145-1.382l3.729-1.986
		c0,0-1.677,7.124-5.002,9.772c-3.332,2.656-7.088,6.872-11.693,7.182c0,0-6.297,1.148-9.521,0.303
		c-3.224-0.842-5.339-0.922-7.454-2.051c-2.116-1.131-8.204-4.699-10.579-9.693C66.135,63.25,65.099,59.119,65.063,55.744z"/>
	<path fill="#202D59" d="M95.797,48.685l2.15-2.914l2.52-1.075l2.698,2.302l-0.46,2.458l1.842,3.375l1.842,5.682
		c0,0,1.08,3.68-2.604,7.983c-3.685,4.297-6.605,5.527-6.605,5.527l-6.821,3.223l2.373-4.453l2.916-4.758
		c0,0,2.453-1.841,2.453-3.838s1.842-6.588,1.842-6.588l-1.684-3.85l0.899-1.536L95.797,48.685z"/>
	<path fill="#1E1930" d="M100.561,54.405l1.382-0.942l1.381,1.144c0,0,1.763,4.793,1.302,6.48c-0.46,1.688-1.688,3.703-1.688,3.703
		l-0.841-1.674v-4.458l-0.923-0.302l0.31-1.382L100.561,54.405z"/>
	<polygon fill="#1E1930" points="97.179,67.106 98.719,65.265 99.33,66.956 98.869,69.564 97.726,71.741 95.012,73.043 
		96.107,69.87 96.257,67.877 	"/>
	<path fill="#375B8D" d="M82.908,36.898c0,0,1.267-4.145,2.072-4.145c0.807,0,4.951,2.533,5.643,2.648c0.69,0.115,0,0.806,0,0.806
		s1.727,0.784,2.417,0.568c0.691-0.223,1.972,0.123,1.972,0.123s-0.014,3.569,1.021,3.915c1.037,0.346,2.419,1.151,2.419,1.151
		s-4.721,0.691-4.605,2.418c0.114,1.727,0.114,2.418,0.114,2.418s-0.921-0.806-1.611-0.691c-0.691,0.115-6.908,0-7.829,1.037
		l-1.438-2.707c0,0-2.188-3.05-0.691-3.799c1.496-0.748-3.397-0.518-3.627-2.706c0,0,1.842-1.842,1.957-2.302
		C80.836,35.171,81.988,36.438,82.908,36.898z"/>
	<path fill="#202D59" d="M93.458,41.684c-0.31,2.331-2.706,3.936-5.354,3.583c-2.647-0.349-4.54-2.525-4.23-4.857
		c0.302-2.331,2.705-3.936,5.347-3.591C91.868,37.171,93.768,39.345,93.458,41.684z"/>
	<path fill="#1E1930" d="M93.163,39.64c0,0-2.656-2.626-4.785-2.166c-2.13,0.46-4.483,2.767-4.483,2.767s0.396-3.126,4.367-3.465
		C92.235,36.438,93.163,39.64,93.163,39.64z"/>
	<path fill="#1E1930" d="M78.764,37.934c0,0,0.914,0.845,1.756,0.845c0.85,0,1.691,0.306,1.691,0.306l0.31,0.155l0.028,1.313
		c0,0-3.634-1.216-3.785-1.986C78.613,37.797,78.764,37.934,78.764,37.934z"/>
	<path fill="#1E1930" d="M84.521,47.146c0,0,3.303-1.037,4.008-0.864C89.241,46.455,86.823,44.728,84.521,47.146z"/>
	<path fill="#1E1930" d="M95.012,36.898c0,0,0.504,2.59,1.08,2.936c0.576,0.345,1.885,1.712,2.238,2.151
		c0.353,0.439-2.642-1.288-2.642-1.288S94.674,37.819,95.012,36.898z"/>
</g>
<g>
	<path fill="#375B8D" d="M113.283,55.745c0,6.016-1.555,11.592-5.203,15.816c-4.418,5.116-9.895,8.29-17.191,8.29
		c-1.893,0-5.447-0.216-7.217-0.63c-10.657-2.486-18.609-12.05-18.609-23.477c0-8.83,4.016-17.444,11.089-21.642
		c3.599-2.138,8.606-3.3,13.018-2.468C102.244,34.103,113.283,42.425,113.283,55.745z"/>
	<g>
		<path fill="#202D59" d="M71.215,54.874c0.064,0.064,0.097,0.144,0.097,0.236c0,0.092-0.032,0.172-0.097,0.236
			c-0.065,0.064-0.144,0.098-0.236,0.098h-1.445c-0.093,0-0.171-0.033-0.236-0.098c-0.064-0.064-0.097-0.145-0.097-0.236
			c0-0.093,0.032-0.172,0.097-0.236c0.065-0.064,0.144-0.097,0.236-0.097h0.4v-2.534l-0.139,0.139
			c-0.063,0.063-0.142,0.094-0.234,0.094c-0.092,0-0.172-0.031-0.238-0.094c-0.063-0.067-0.095-0.146-0.095-0.239
			c0-0.092,0.031-0.17,0.095-0.233l0.705-0.706c0.049-0.048,0.106-0.079,0.173-0.092s0.132-0.006,0.194,0.02
			c0.063,0.026,0.113,0.067,0.15,0.122c0.037,0.056,0.055,0.117,0.055,0.184v3.34h0.379C71.072,54.776,71.15,54.809,71.215,54.874z"
			/>
		<path fill="#202D59" d="M71.867,54.66c0.093,0,0.172,0.033,0.236,0.097c0.064,0.065,0.097,0.144,0.097,0.236
			c0,0.097-0.032,0.178-0.097,0.242s-0.144,0.098-0.236,0.098c-0.097,0-0.178-0.033-0.242-0.098
			c-0.063-0.064-0.097-0.146-0.097-0.242c0-0.092,0.033-0.171,0.097-0.236C71.69,54.692,71.771,54.66,71.867,54.66z"/>
		<path fill="#202D59" d="M74.385,54.276c0.093,0,0.171,0.033,0.236,0.097c0.064,0.065,0.098,0.144,0.098,0.236
			c0,0.104-0.009,0.208-0.025,0.311c-0.018,0.104-0.057,0.199-0.119,0.283c-0.075,0.104-0.173,0.179-0.295,0.223
			c-0.101,0.037-0.223,0.057-0.367,0.057h-1.095c-0.092,0-0.171-0.033-0.235-0.098c-0.065-0.064-0.098-0.145-0.098-0.236
			c0-0.193,0.026-0.374,0.08-0.542c0.055-0.168,0.123-0.328,0.209-0.48c0.085-0.151,0.18-0.296,0.283-0.433s0.208-0.269,0.311-0.395
			c0.082-0.1,0.159-0.198,0.234-0.295c0.074-0.096,0.141-0.192,0.199-0.286c0.06-0.095,0.107-0.188,0.142-0.281
			c0.036-0.092,0.054-0.185,0.054-0.278v-0.022c0.003-0.029-0.001-0.08-0.014-0.15c-0.014-0.071-0.042-0.131-0.087-0.184
			c-0.011-0.011-0.037-0.028-0.077-0.052c-0.041-0.024-0.109-0.036-0.206-0.036c-0.13,0-0.217,0.026-0.262,0.078
			c-0.04,0.048-0.063,0.108-0.069,0.181c-0.005,0.072-0.006,0.116-0.003,0.131c0.016,0.092-0.006,0.176-0.061,0.25
			c-0.056,0.074-0.13,0.116-0.222,0.128c-0.094,0.015-0.176-0.006-0.248-0.062c-0.072-0.055-0.116-0.13-0.13-0.222
			c0-0.011-0.003-0.046-0.006-0.105c-0.005-0.059,0-0.128,0.011-0.208c0.011-0.079,0.033-0.166,0.064-0.258
			c0.031-0.092,0.084-0.182,0.158-0.267c0.062-0.074,0.155-0.145,0.277-0.211s0.285-0.1,0.489-0.1c0.199,0,0.362,0.032,0.485,0.097
			c0.125,0.065,0.219,0.133,0.281,0.203c0.07,0.078,0.126,0.16,0.167,0.248c0.041,0.087,0.069,0.168,0.086,0.244
			c0.017,0.077,0.026,0.144,0.028,0.203c0.001,0.06,0.002,0.1,0.002,0.123c0,0.152-0.021,0.296-0.066,0.434
			c-0.044,0.137-0.104,0.269-0.177,0.397c-0.075,0.128-0.159,0.252-0.251,0.373c-0.093,0.12-0.188,0.238-0.283,0.353
			c-0.148,0.182-0.287,0.36-0.414,0.536c-0.128,0.176-0.218,0.362-0.27,0.558h0.711c0.034,0,0.061,0,0.081-0.002
			s0.036-0.006,0.047-0.009c0.004-0.015,0.007-0.036,0.008-0.064c0.003-0.028,0.004-0.071,0.004-0.131
			c0-0.093,0.032-0.171,0.097-0.236C74.213,54.309,74.293,54.276,74.385,54.276z"/>
		<path fill="#202D59" d="M77.166,54.874c0.064,0.064,0.098,0.144,0.098,0.236c0,0.092-0.033,0.172-0.098,0.236
			s-0.144,0.098-0.236,0.098h-1.444c-0.094,0-0.171-0.033-0.236-0.098s-0.098-0.145-0.098-0.236c0-0.093,0.032-0.172,0.098-0.236
			s0.143-0.097,0.236-0.097h0.4v-2.534l-0.14,0.139c-0.062,0.063-0.141,0.094-0.233,0.094s-0.172-0.031-0.239-0.094
			c-0.062-0.067-0.094-0.146-0.094-0.239c0-0.092,0.031-0.17,0.094-0.233l0.706-0.706c0.048-0.048,0.105-0.079,0.172-0.092
			c0.067-0.013,0.132-0.006,0.195,0.02c0.062,0.026,0.113,0.067,0.149,0.122c0.037,0.056,0.056,0.117,0.056,0.184v3.34h0.378
			C77.023,54.776,77.102,54.809,77.166,54.874z"/>
		<path fill="#202D59" d="M82.726,54.32c0,0.011-0.001,0.048-0.002,0.109c-0.002,0.061-0.012,0.133-0.028,0.216
			s-0.045,0.173-0.086,0.269c-0.041,0.098-0.1,0.186-0.178,0.268c-0.063,0.07-0.156,0.139-0.281,0.205
			c-0.123,0.066-0.284,0.1-0.48,0.1c-0.197,0-0.354-0.033-0.476-0.1c-0.12-0.066-0.212-0.135-0.274-0.205
			c-0.074-0.082-0.132-0.168-0.173-0.262c-0.041-0.092-0.069-0.18-0.086-0.263c-0.017-0.084-0.024-0.158-0.024-0.223
			c0-0.065,0-0.11,0-0.136v-2.134c0-0.226,0.037-0.407,0.11-0.542c0.074-0.135,0.15-0.24,0.228-0.314
			c0.094-0.085,0.199-0.151,0.317-0.197c0.119-0.046,0.243-0.069,0.372-0.069c0.127,0,0.253,0.022,0.381,0.066
			c0.129,0.045,0.242,0.113,0.342,0.206c0.101,0.093,0.182,0.209,0.245,0.35c0.062,0.141,0.094,0.307,0.094,0.5
			c0,0.096-0.032,0.176-0.097,0.239c-0.065,0.063-0.145,0.094-0.236,0.094c-0.093,0-0.171-0.031-0.236-0.094
			c-0.065-0.062-0.097-0.143-0.097-0.239c0-0.1-0.015-0.18-0.042-0.239c-0.028-0.059-0.061-0.104-0.101-0.136
			c-0.038-0.031-0.081-0.053-0.127-0.063c-0.047-0.011-0.089-0.017-0.126-0.017c-0.025,0-0.059,0.004-0.1,0.014
			c-0.041,0.009-0.08,0.029-0.119,0.061s-0.072,0.077-0.101,0.136c-0.027,0.06-0.042,0.141-0.042,0.245v2.145v0.027
			c0,0.019,0,0.044,0,0.075c0,0.032,0.004,0.066,0.012,0.105s0.019,0.078,0.033,0.117c0.016,0.039,0.035,0.071,0.062,0.097
			c0.011,0.011,0.035,0.029,0.071,0.053c0.038,0.024,0.101,0.036,0.189,0.036c0.096,0,0.163-0.012,0.201-0.036
			c0.036-0.024,0.061-0.043,0.07-0.058c0.053-0.052,0.086-0.117,0.098-0.195c0.014-0.078,0.021-0.135,0.021-0.172
			c0-0.003,0-0.024,0-0.061c0-0.037,0.009-0.077,0.027-0.12c0.019-0.042,0.05-0.082,0.092-0.119
			c0.043-0.037,0.104-0.058,0.187-0.061c0.085-0.003,0.15,0.011,0.197,0.044c0.046,0.033,0.082,0.07,0.107,0.111
			C82.7,54.202,82.719,54.258,82.726,54.32z"/>
		<path fill="#202D59" d="M85.257,54.862c0.065,0.065,0.098,0.145,0.098,0.236c0,0.094-0.032,0.172-0.098,0.236
			c-0.064,0.064-0.144,0.098-0.235,0.098H83.66c-0.094,0-0.172-0.033-0.237-0.098c-0.064-0.064-0.097-0.143-0.097-0.236V51.42
			c0-0.093,0.032-0.171,0.097-0.236c0.065-0.065,0.144-0.097,0.237-0.097h1.361c0.092,0,0.171,0.032,0.235,0.097
			c0.065,0.065,0.098,0.144,0.098,0.236c0,0.096-0.032,0.176-0.098,0.239c-0.064,0.063-0.144,0.094-0.235,0.094h-1.028v1.4h0.711
			c0.093,0,0.172,0.033,0.236,0.098c0.064,0.064,0.097,0.144,0.097,0.236c0,0.092-0.032,0.171-0.097,0.236
			c-0.064,0.064-0.144,0.097-0.236,0.097h-0.711v0.945h1.028C85.114,54.765,85.193,54.797,85.257,54.862z"/>
		<path fill="#202D59" d="M87.844,51.092c0.093,0,0.172,0.032,0.236,0.098c0.064,0.064,0.098,0.144,0.098,0.236v3.673v0.023v0.016
			v0.006v0.012l-0.006,0.005v0.006v0.011v0.006c-0.004,0.004-0.005,0.008-0.005,0.012v0.005c0,0.003-0.002,0.005-0.003,0.005
			c-0.003,0-0.003,0.003-0.003,0.006c0,0.004-0.001,0.007-0.004,0.009c-0.001,0.001-0.002,0.005-0.002,0.009
			s-0.001,0.006-0.003,0.008s-0.003,0.004-0.003,0.008s-0.001,0.006-0.003,0.006s-0.002,0.002-0.002,0.006v0.006
			c-0.004,0-0.006,0.002-0.006,0.005l-0.006,0.006c0,0.003-0.002,0.007-0.006,0.011l-0.006,0.006v0.006
			c-0.003,0-0.006,0.002-0.006,0.006s-0.001,0.005-0.004,0.005c0,0.004-0.001,0.005-0.004,0.005c-0.002,0-0.002,0.003-0.002,0.006
			H88.1c0,0.004-0.002,0.008-0.005,0.012l-0.012,0.012l-0.011,0.01l-0.012,0.012h-0.006l-0.011,0.011
			c-0.003,0.005-0.007,0.005-0.011,0.005c0,0.005-0.002,0.007-0.007,0.007l-0.005,0.005c-0.003,0-0.005,0.002-0.005,0.004
			c0,0.001-0.003,0.002-0.006,0.002h-0.005l-0.012,0.012c-0.015,0.007-0.027,0.012-0.039,0.016s-0.025,0.008-0.045,0.012
			c-0.015,0.004-0.036,0.006-0.066,0.006c-0.022,0-0.038-0.002-0.05-0.006h-0.011h-0.006c-0.004,0-0.006-0.002-0.006-0.006H87.75
			V55.42h-0.012c-0.015-0.008-0.024-0.01-0.027-0.01c-0.004,0-0.006-0.002-0.006-0.006H87.7c-0.005,0-0.006-0.002-0.006-0.006
			c-0.005,0-0.007-0.002-0.012-0.006c-0.004,0-0.005-0.002-0.005-0.006h-0.006c-0.004,0-0.006,0-0.006-0.002
			s-0.002-0.003-0.006-0.003c-0.04-0.03-0.073-0.065-0.1-0.106v-0.005c-0.004,0-0.006-0.002-0.006-0.006l-0.006-0.005v-0.006
			c-0.003-0.004-0.004-0.008-0.004-0.012s-0.004-0.008-0.006-0.011l-0.951-2.195v2.067c0,0.092-0.032,0.172-0.097,0.236
			c-0.065,0.064-0.144,0.098-0.237,0.098c-0.092,0-0.171-0.033-0.236-0.098c-0.064-0.064-0.097-0.145-0.097-0.236v-3.673v-0.022
			v-0.017v-0.005v-0.012l0.007-0.005v-0.006v-0.011v-0.006c0.003-0.004,0.005-0.008,0.005-0.012v-0.005
			c0-0.004,0.001-0.006,0.002-0.006c0.003,0,0.003-0.002,0.003-0.005s0.001-0.006,0.004-0.008c0.002-0.002,0.002-0.005,0.002-0.009
			c0-0.003,0.001-0.006,0.003-0.008c0.003-0.001,0.003-0.004,0.003-0.008c0-0.003,0.001-0.005,0.003-0.005
			c0.001,0,0.002-0.002,0.002-0.006V51.27l0.012-0.011c0-0.003,0.001-0.005,0.003-0.005c0.001,0,0.003-0.001,0.003-0.005
			l0.005-0.005v-0.006c0.004-0.003,0.006-0.007,0.006-0.011h0.006c0-0.003,0.001-0.005,0.002-0.005c0.002,0,0.004-0.001,0.004-0.006
			h0.005c0-0.003,0.002-0.007,0.006-0.011l0.011-0.011v-0.005c0.004,0,0.008-0.002,0.011-0.006v-0.005
			c0.005,0,0.008-0.001,0.012-0.005h0.005l0.012-0.011l0.012-0.011h0.006c0-0.004,0.001-0.005,0.005-0.005
			c0.003,0,0.006-0.001,0.006-0.003c0-0.001,0.001-0.002,0.005-0.002h0.006l0.011-0.012c0.026-0.015,0.052-0.023,0.077-0.027h0.006
			c0.019-0.004,0.047-0.006,0.084-0.006h0.017h0.006l0.006,0.006h0.011h0.005h0.012c0,0.004,0.001,0.005,0.005,0.005h0.012h0.006
			c0,0.004,0.004,0.006,0.011,0.006c0.004,0.004,0.009,0.006,0.017,0.006c0.004,0.003,0.008,0.006,0.011,0.006h0.006
			c0,0.003,0.004,0.005,0.011,0.005v0.006c0.008,0,0.012,0.002,0.012,0.006h0.005c0.005,0,0.006,0.001,0.006,0.002
			c0,0.002,0.002,0.003,0.006,0.003l0.006,0.005l0.005,0.006l0.006,0.005h0.006c0.004,0.003,0.007,0.005,0.012,0.005v0.006
			c0.002,0,0.005,0.001,0.005,0.002c0,0.002,0.002,0.003,0.005,0.003v0.005c0.004,0,0.006,0.001,0.006,0.003
			s0.002,0.003,0.005,0.003v0.005l0.012,0.011l0.011,0.011l0.012,0.011c0,0.004,0.002,0.008,0.006,0.011
			c0.004,0,0.006,0.002,0.006,0.006c0,0.003,0.001,0.005,0.006,0.005c0,0.007,0.001,0.011,0.005,0.011v0.006
			c0.003,0.004,0.005,0.008,0.005,0.011h0.006c0,0.007,0.001,0.012,0.002,0.014c0.003,0.002,0.004,0.005,0.004,0.008l0.95,2.195
			v-2.067c0-0.092,0.032-0.171,0.097-0.236C87.672,51.124,87.752,51.092,87.844,51.092z"/>
		<path fill="#202D59" d="M90.787,51.192c0.064,0.063,0.096,0.143,0.096,0.239c0,0.092-0.031,0.171-0.096,0.236
			c-0.065,0.065-0.145,0.098-0.236,0.098h-0.517v3.333c0,0.094-0.032,0.172-0.098,0.236s-0.144,0.098-0.236,0.098
			s-0.171-0.033-0.236-0.098s-0.098-0.143-0.098-0.236v-3.333h-0.527c-0.093,0-0.171-0.033-0.236-0.098s-0.097-0.144-0.097-0.236
			c0-0.097,0.031-0.176,0.097-0.239s0.144-0.094,0.236-0.094h1.712C90.643,51.098,90.722,51.129,90.787,51.192z"/>
		<path fill="#202D59" d="M91.617,51.092c0.097,0,0.177,0.032,0.238,0.098c0.064,0.064,0.096,0.144,0.096,0.236v3.679
			c0,0.092-0.031,0.172-0.096,0.236c-0.062,0.064-0.142,0.098-0.238,0.098c-0.092,0-0.172-0.033-0.236-0.098
			s-0.098-0.145-0.098-0.236v-3.679c0-0.092,0.033-0.171,0.098-0.236C91.446,51.124,91.526,51.092,91.617,51.092z"/>
		<path fill="#202D59" d="M95.219,55.104c0,0.092-0.033,0.172-0.098,0.236s-0.145,0.098-0.236,0.098s-0.172-0.033-0.236-0.098
			s-0.098-0.145-0.098-0.236v-2.29l-0.35,0.689c-0.029,0.082-0.083,0.141-0.161,0.178c-0.044,0.022-0.091,0.033-0.139,0.033h-0.006
			h-0.005h-0.006h-0.006c-0.049,0-0.094-0.011-0.139-0.033c-0.078-0.037-0.132-0.096-0.161-0.178l-0.35-0.689v2.29
			c0,0.092-0.032,0.172-0.098,0.236s-0.144,0.098-0.236,0.098s-0.171-0.033-0.236-0.098s-0.098-0.145-0.098-0.236v-3.679v-0.017
			v-0.017v-0.005v-0.006c0-0.004,0.002-0.006,0.003-0.006c0.002,0,0.003-0.002,0.003-0.005v-0.006v-0.011
			c0-0.004,0.001-0.007,0.003-0.009s0.003-0.005,0.003-0.009c0.003-0.021,0.011-0.042,0.022-0.061c0-0.003,0.001-0.006,0.002-0.006
			c0.002,0,0.004-0.001,0.004-0.005l0.005-0.006l0.007-0.005c0-0.004,0.001-0.007,0.004-0.011v-0.006l0.011-0.011
			c0.008-0.007,0.015-0.015,0.021-0.022c0.006-0.008,0.011-0.015,0.019-0.022l0.012-0.011h0.005c0-0.004,0.001-0.006,0.004-0.006
			c0.002,0,0.002-0.002,0.002-0.005h0.006c0.004-0.004,0.008-0.005,0.012-0.005c0-0.004,0.001-0.006,0.005-0.006l0.005-0.005
			l0.012-0.005c0.004-0.004,0.008-0.006,0.012-0.006l0.005-0.006c0.003,0,0.008-0.002,0.011-0.005c0.004,0,0.007-0.001,0.009-0.003
			c0.002-0.002,0.005-0.003,0.009-0.003s0.006-0.001,0.008-0.003s0.005-0.003,0.008-0.003c0.005,0,0.008-0.002,0.012-0.006h0.006
			h0.012l0.004-0.005h0.007h0.011h0.006c0.003-0.004,0.007-0.006,0.01-0.006h0.006h0.018h0.017h0.017h0.011h0.005
			c0.005,0,0.008,0.002,0.012,0.006h0.012h0.006h0.011c0.015,0.007,0.027,0.012,0.038,0.014c0.012,0.002,0.022,0.006,0.034,0.014
			h0.006c0,0.004,0.004,0.006,0.011,0.006c0,0.004,0.002,0.006,0.006,0.006l0.005,0.005c0.004,0,0.008,0.001,0.012,0.005
			l0.011,0.011h0.005c0.02,0.011,0.034,0.026,0.046,0.044l0.011,0.011l0.011,0.011c0,0.004,0.001,0.006,0.002,0.006
			c0.002,0,0.004,0.002,0.004,0.005l0.005,0.006l0.006,0.005c0,0.004,0.002,0.007,0.005,0.011c0,0.004,0.002,0.007,0.004,0.008
			c0.002,0.002,0.002,0.005,0.002,0.009l0.701,1.373l0.699-1.373c0-0.007,0.002-0.013,0.006-0.017
			c0.004-0.003,0.006-0.007,0.006-0.011c0.004,0,0.006-0.002,0.006-0.005l0.006-0.006c0-0.003,0.001-0.007,0.005-0.011l0.011-0.011
			l0.012-0.011c0.011-0.019,0.026-0.033,0.045-0.044l0.01-0.011h0.006c0.004-0.004,0.008-0.005,0.011-0.005l0.007-0.005
			c0.003,0,0.004-0.002,0.004-0.006c0.008,0,0.012-0.002,0.012-0.006h0.006c0.008-0.007,0.017-0.012,0.028-0.014
			c0.011-0.002,0.02-0.005,0.027-0.009c0.007,0,0.013-0.001,0.017-0.005h0.012h0.005h0.012c0-0.004,0.001-0.006,0.005-0.006h0.012
			h0.011h0.017h0.017h0.017c0.008,0,0.014,0.002,0.018,0.006h0.011h0.011l0.006,0.005h0.011h0.006l0.011,0.006
			c0.003,0,0.007,0.001,0.009,0.003c0.001,0.002,0.005,0.003,0.009,0.003c0.003,0,0.007,0.002,0.01,0.006h0.007
			c0.003,0.003,0.007,0.005,0.01,0.005v0.006c0.008,0,0.014,0.002,0.018,0.006c0.003,0.004,0.007,0.005,0.011,0.005l0.006,0.005
			l0.006,0.006c0.004,0,0.007,0.001,0.011,0.005l0.011,0.011c0.008,0,0.012,0.004,0.012,0.011c0.019,0.011,0.033,0.026,0.045,0.044
			l0.011,0.011v0.006c0.003,0.003,0.005,0.007,0.005,0.011c0.004,0,0.006,0.002,0.006,0.005l0.006,0.006
			c0,0.004,0.002,0.008,0.005,0.011c0.009,0.019,0.016,0.039,0.022,0.061c0,0.008,0.002,0.014,0.006,0.018v0.011v0.006
			c0,0.003,0.001,0.007,0.006,0.011v0.006v0.005v0.017v0.017V55.104z"/>
		<path fill="#202D59" d="M97.739,54.862c0.064,0.065,0.097,0.145,0.097,0.236c0,0.094-0.032,0.172-0.097,0.236
			s-0.144,0.098-0.236,0.098h-1.361c-0.093,0-0.171-0.033-0.236-0.098c-0.064-0.064-0.098-0.143-0.098-0.236V51.42
			c0-0.093,0.033-0.171,0.098-0.236c0.065-0.065,0.144-0.097,0.236-0.097h1.361c0.093,0,0.172,0.032,0.236,0.097
			s0.097,0.144,0.097,0.236c0,0.096-0.032,0.176-0.097,0.239s-0.144,0.094-0.236,0.094h-1.027v1.4h0.711
			c0.092,0,0.171,0.033,0.236,0.098c0.064,0.064,0.098,0.144,0.098,0.236c0,0.092-0.033,0.171-0.098,0.236
			c-0.065,0.064-0.145,0.097-0.236,0.097h-0.711v0.945h1.027C97.595,54.765,97.674,54.797,97.739,54.862z"/>
		<path fill="#202D59" d="M100.45,51.192c0.065,0.063,0.097,0.143,0.097,0.239c0,0.092-0.031,0.171-0.097,0.236
			s-0.144,0.098-0.235,0.098h-0.518v3.333c0,0.094-0.032,0.172-0.098,0.236c-0.064,0.064-0.144,0.098-0.236,0.098
			c-0.092,0-0.171-0.033-0.236-0.098c-0.063-0.064-0.097-0.143-0.097-0.236v-3.333h-0.527c-0.093,0-0.172-0.033-0.236-0.098
			c-0.065-0.065-0.098-0.144-0.098-0.236c0-0.097,0.032-0.176,0.098-0.239c0.064-0.063,0.144-0.094,0.236-0.094h1.712
			C100.307,51.098,100.385,51.129,100.45,51.192z"/>
		<path fill="#202D59" d="M102.858,54.862c0.064,0.065,0.097,0.145,0.097,0.236c0,0.094-0.032,0.172-0.097,0.236
			c-0.065,0.064-0.145,0.098-0.236,0.098h-1.362c-0.093,0-0.171-0.033-0.236-0.098c-0.064-0.064-0.097-0.143-0.097-0.236V51.42
			c0-0.093,0.032-0.171,0.097-0.236c0.065-0.065,0.144-0.097,0.236-0.097h1.362c0.092,0,0.171,0.032,0.236,0.097
			c0.064,0.065,0.097,0.144,0.097,0.236c0,0.096-0.032,0.176-0.097,0.239c-0.065,0.063-0.145,0.094-0.236,0.094h-1.029v1.4h0.711
			c0.093,0,0.172,0.033,0.236,0.098c0.065,0.064,0.098,0.144,0.098,0.236c0,0.092-0.032,0.171-0.098,0.236
			c-0.064,0.064-0.144,0.097-0.236,0.097h-0.711v0.945h1.029C102.713,54.765,102.792,54.797,102.858,54.862z"/>
		<path fill="#202D59" d="M105.739,54.965c0.041,0.086,0.043,0.17,0.008,0.256c-0.035,0.085-0.096,0.146-0.18,0.184
			c-0.045,0.018-0.09,0.027-0.135,0.027c-0.062,0-0.122-0.018-0.178-0.053c-0.055-0.035-0.098-0.084-0.127-0.147l-0.617-1.412
			h-0.334v1.278c0,0.094-0.032,0.172-0.097,0.236c-0.065,0.064-0.145,0.098-0.236,0.098c-0.093,0-0.171-0.033-0.236-0.098
			c-0.064-0.064-0.097-0.143-0.097-0.236v-3.667c0-0.093,0.032-0.171,0.097-0.236c0.065-0.065,0.144-0.097,0.236-0.097h0.806
			c0.141,0,0.276,0.04,0.405,0.119c0.13,0.08,0.243,0.194,0.34,0.342c0.167,0.263,0.25,0.563,0.25,0.9
			c0,0.163-0.021,0.32-0.064,0.473c-0.042,0.151-0.104,0.292-0.186,0.422c-0.037,0.056-0.076,0.106-0.117,0.15
			c-0.04,0.044-0.081,0.085-0.122,0.122L105.739,54.965z M104.649,53.153c0.02,0,0.043-0.012,0.076-0.036
			c0.031-0.024,0.066-0.066,0.107-0.125c0.048-0.074,0.084-0.157,0.108-0.25s0.036-0.187,0.036-0.283
			c0-0.097-0.012-0.192-0.036-0.286c-0.024-0.095-0.061-0.179-0.108-0.253c-0.041-0.056-0.076-0.095-0.107-0.12
			c-0.033-0.024-0.057-0.036-0.076-0.036h-0.473v1.389H104.649z"/>
		<path fill="#202D59" d="M108.073,53.398c0.218,0.274,0.327,0.595,0.327,0.961c0,0.115-0.012,0.218-0.036,0.309
			s-0.053,0.171-0.089,0.241c-0.035,0.072-0.075,0.133-0.119,0.184c-0.045,0.053-0.089,0.098-0.134,0.135
			c-0.207,0.166-0.459,0.25-0.756,0.25c-0.144,0-0.279-0.021-0.405-0.062c-0.126-0.039-0.237-0.103-0.334-0.188
			c-0.04-0.033-0.082-0.076-0.124-0.129c-0.043-0.051-0.082-0.112-0.117-0.184c-0.035-0.069-0.064-0.151-0.086-0.244
			c-0.022-0.093-0.033-0.198-0.033-0.316c0-0.093,0.032-0.172,0.098-0.237c0.064-0.065,0.143-0.097,0.236-0.097
			c0.096,0,0.175,0.032,0.238,0.097c0.062,0.065,0.094,0.144,0.094,0.237c0,0.051,0.005,0.104,0.014,0.158
			c0.01,0.054,0.029,0.103,0.06,0.147c0.029,0.044,0.073,0.081,0.13,0.108c0.058,0.027,0.135,0.041,0.23,0.041
			c0.067,0,0.129-0.008,0.187-0.024s0.106-0.042,0.147-0.075c0.089-0.078,0.133-0.195,0.133-0.351c0-0.115-0.015-0.215-0.044-0.3
			c-0.03-0.085-0.073-0.164-0.131-0.236c-0.057-0.072-0.128-0.141-0.211-0.206s-0.177-0.134-0.28-0.208
			c-0.098-0.066-0.192-0.136-0.287-0.208c-0.094-0.073-0.182-0.155-0.264-0.248c-0.096-0.118-0.169-0.241-0.219-0.369
			c-0.051-0.128-0.076-0.268-0.076-0.419c0-0.022,0.002-0.063,0.003-0.123c0.003-0.059,0.011-0.128,0.028-0.206
			c0.017-0.078,0.045-0.159,0.084-0.245c0.038-0.085,0.094-0.167,0.169-0.244c0.062-0.07,0.157-0.139,0.283-0.206
			c0.126-0.067,0.289-0.1,0.489-0.1c0.204,0,0.365,0.034,0.486,0.103s0.212,0.138,0.275,0.209c0.07,0.084,0.123,0.174,0.158,0.269
			c0.035,0.094,0.059,0.182,0.069,0.261c0.011,0.08,0.015,0.149,0.011,0.208s-0.008,0.094-0.011,0.105
			c-0.011,0.067-0.033,0.123-0.067,0.167c-0.029,0.041-0.068,0.075-0.119,0.103c-0.05,0.028-0.118,0.033-0.203,0.014
			c-0.081-0.015-0.141-0.042-0.18-0.081c-0.039-0.039-0.065-0.08-0.078-0.122c-0.014-0.042-0.02-0.081-0.017-0.114
			c0.002-0.033,0.003-0.054,0.003-0.061c0.003-0.015,0.005-0.035,0.005-0.062c0-0.025-0.003-0.053-0.008-0.083
			c-0.005-0.03-0.015-0.06-0.025-0.089c-0.011-0.03-0.026-0.056-0.044-0.078c-0.045-0.056-0.13-0.083-0.256-0.083
			c-0.101,0-0.17,0.013-0.209,0.039c-0.038,0.026-0.064,0.044-0.074,0.055c-0.026,0.026-0.045,0.056-0.059,0.089
			s-0.023,0.067-0.03,0.1c-0.009,0.034-0.013,0.062-0.014,0.086c-0.003,0.024-0.003,0.042-0.003,0.053v0.011v0.011
			c0,0.074,0.013,0.142,0.038,0.203c0.026,0.061,0.062,0.119,0.108,0.172c0.047,0.054,0.105,0.107,0.176,0.161
			s0.15,0.112,0.238,0.175c0.104,0.074,0.21,0.154,0.32,0.239C107.878,53.189,107.979,53.287,108.073,53.398z"/>
		<path fill="#202D59" d="M78.114,60.995c0,0.022,0,0.065-0.003,0.128c-0.001,0.063-0.012,0.134-0.03,0.214
			c-0.02,0.08-0.047,0.164-0.086,0.256c-0.039,0.091-0.096,0.175-0.17,0.252c-0.066,0.072-0.16,0.139-0.283,0.207
			c-0.122,0.066-0.281,0.1-0.478,0.1c-0.2,0-0.359-0.033-0.479-0.1c-0.118-0.068-0.209-0.135-0.272-0.207
			c-0.073-0.08-0.131-0.168-0.172-0.26c-0.041-0.094-0.07-0.182-0.086-0.265c-0.017-0.083-0.025-0.157-0.025-0.222
			c0-0.065,0-0.111,0-0.137v-2.129c0-0.225,0.037-0.406,0.111-0.541c0.074-0.136,0.15-0.24,0.229-0.314
			c0.188-0.178,0.418-0.266,0.688-0.266c0.126,0,0.253,0.021,0.378,0.066c0.126,0.044,0.239,0.112,0.339,0.205
			s0.182,0.209,0.244,0.35c0.063,0.141,0.095,0.309,0.095,0.5V60.995z M77.258,58.422c-0.033-0.02-0.067-0.031-0.104-0.037
			c-0.035-0.006-0.067-0.008-0.097-0.008c-0.026,0-0.059,0.005-0.1,0.014c-0.041,0.01-0.081,0.029-0.12,0.061
			c-0.039,0.032-0.072,0.078-0.1,0.137c-0.028,0.061-0.041,0.141-0.041,0.244v1.057L77.258,58.422z M77.336,61.389
			c0.048-0.051,0.079-0.117,0.094-0.197s0.021-0.137,0.018-0.17v-0.016v-1.213l-0.623,1.623c0.02,0.016,0.045,0.03,0.08,0.045
			c0.035,0.016,0.089,0.021,0.159,0.021c0.093,0,0.158-0.012,0.197-0.038S77.324,61.401,77.336,61.389z"/>
		<path fill="#202D59" d="M78.653,61.329c0.094,0,0.171,0.031,0.236,0.098c0.064,0.064,0.098,0.143,0.098,0.236
			c0,0.096-0.033,0.176-0.098,0.24C78.823,61.967,78.746,62,78.653,62c-0.096,0-0.177-0.033-0.242-0.098
			c-0.064-0.064-0.097-0.145-0.097-0.24c0-0.094,0.032-0.172,0.097-0.236C78.476,61.36,78.557,61.329,78.653,61.329z"/>
		<path fill="#202D59" d="M81.015,57.778c0.092,0,0.171,0.031,0.236,0.096c0.064,0.066,0.097,0.145,0.097,0.236v3.674
			c0,0.094-0.032,0.172-0.097,0.236c-0.065,0.064-0.145,0.098-0.236,0.098c-0.093,0-0.172-0.033-0.236-0.098
			c-0.065-0.064-0.098-0.143-0.098-0.236v-1.506h-1.272c-0.052,0-0.101-0.011-0.147-0.033c-0.046-0.021-0.084-0.055-0.114-0.095
			c-0.07-0.089-0.09-0.185-0.061-0.288l0.488-1.834c0.023-0.09,0.074-0.156,0.154-0.203c0.079-0.047,0.163-0.059,0.252-0.037
			c0.09,0.027,0.157,0.08,0.202,0.158c0.047,0.08,0.06,0.164,0.037,0.254l-0.378,1.412h0.839V58.11c0-0.092,0.032-0.17,0.098-0.236
			C80.843,57.809,80.922,57.778,81.015,57.778z"/>
		<path fill="#202D59" d="M83.86,61.045c0.004,0.018,0.004,0.035,0,0.049v0.028c-0.014,0.255-0.088,0.466-0.223,0.628
			c-0.162,0.207-0.395,0.336-0.694,0.384c-0.07,0.015-0.153,0.022-0.25,0.022h-0.027h-0.022c-0.078,0-0.155-0.006-0.233-0.018
			c-0.312-0.051-0.55-0.182-0.717-0.389c-0.147-0.193-0.222-0.444-0.222-0.756c0-0.548,0.129-0.953,0.389-1.217l0.012-0.012
			c-0.075-0.092-0.133-0.209-0.173-0.35c-0.019-0.078-0.034-0.164-0.045-0.262c-0.011-0.096-0.017-0.207-0.017-0.332v-0.045
			c0-0.037,0-0.086,0.002-0.145c0.003-0.06,0.012-0.125,0.029-0.195c0.016-0.07,0.04-0.143,0.072-0.217
			c0.03-0.074,0.076-0.145,0.136-0.211c0.062-0.07,0.155-0.139,0.277-0.208S82.44,57.7,82.643,57.7h0.022h0.027
			c0.204,0,0.366,0.033,0.486,0.103s0.212,0.138,0.275,0.208c0.059,0.066,0.105,0.137,0.14,0.211
			c0.032,0.074,0.058,0.146,0.074,0.217c0.016,0.07,0.025,0.136,0.027,0.195c0.002,0.059,0.004,0.107,0.004,0.145
			c0,0.021-0.002,0.037-0.007,0.045c0,0.125-0.004,0.236-0.014,0.332c-0.009,0.098-0.024,0.184-0.047,0.262
			c-0.041,0.141-0.097,0.258-0.167,0.35l0.012,0.012c0.256,0.26,0.383,0.665,0.383,1.217V61.045z M83.194,60.995
			c0-0.363-0.065-0.615-0.195-0.756c-0.074-0.074-0.185-0.122-0.333-0.145c-0.152,0.022-0.261,0.07-0.327,0.145
			c-0.135,0.141-0.201,0.393-0.201,0.756v0.022c0.004,0.015,0.011,0.048,0.022,0.101c0.011,0.051,0.035,0.105,0.072,0.16
			c0.069,0.115,0.173,0.184,0.306,0.205c0.018,0,0.039,0.002,0.062,0.004c0.021,0.002,0.044,0.002,0.066,0.002
			c0.026,0,0.051,0,0.075-0.002s0.045-0.004,0.064-0.008c0.136-0.023,0.24-0.092,0.311-0.206c0.025-0.044,0.044-0.089,0.055-0.131
			c0.012-0.042,0.02-0.073,0.023-0.092V60.995z M82.304,58.85c0,0.1,0.005,0.182,0.014,0.244s0.019,0.113,0.028,0.15
			c0.009,0.037,0.019,0.063,0.027,0.08c0.01,0.017,0.016,0.027,0.02,0.031c0.022,0.018,0.06,0.029,0.111,0.035
			c0.051,0.006,0.105,0.011,0.161,0.015c0.06-0.004,0.115-0.009,0.166-0.015c0.052-0.006,0.088-0.018,0.106-0.035
			c0.003-0.004,0.011-0.015,0.022-0.031c0.011-0.017,0.021-0.045,0.029-0.086c0.01-0.041,0.018-0.096,0.025-0.164
			c0.007-0.068,0.012-0.156,0.012-0.264c0-0.008,0.001-0.014,0.006-0.018v-0.027h-0.006l0.006-0.006
			c-0.005-0.037-0.013-0.086-0.026-0.146c-0.012-0.061-0.039-0.111-0.08-0.152c-0.011-0.012-0.035-0.029-0.072-0.053
			c-0.037-0.025-0.101-0.039-0.188-0.043c-0.086,0.004-0.146,0.018-0.184,0.043c-0.037,0.023-0.061,0.041-0.072,0.053
			c-0.041,0.041-0.068,0.092-0.083,0.152c-0.016,0.061-0.022,0.109-0.022,0.146v0.006C82.307,58.795,82.307,58.825,82.304,58.85z"/>
		<path fill="#202D59" d="M87.422,57.76c0.096,0,0.176,0.033,0.238,0.098c0.063,0.064,0.095,0.144,0.095,0.236v3.679
			c0,0.093-0.031,0.171-0.095,0.236c-0.062,0.063-0.143,0.097-0.238,0.097c-0.093,0-0.172-0.033-0.236-0.097
			c-0.064-0.065-0.098-0.144-0.098-0.236v-3.679c0-0.093,0.033-0.172,0.098-0.236S87.329,57.76,87.422,57.76z"/>
		<path fill="#202D59" d="M90.317,57.76c0.093,0,0.172,0.033,0.236,0.098c0.065,0.064,0.098,0.144,0.098,0.236v3.673v0.022v0.017
			v0.005v0.012l-0.006,0.006v0.006v0.01v0.006c-0.004,0.004-0.005,0.008-0.005,0.012v0.006c0,0.004-0.002,0.006-0.003,0.006
			c-0.002,0-0.003,0.002-0.003,0.005c0,0.004-0.001,0.007-0.003,0.009s-0.003,0.004-0.003,0.008s-0.001,0.006-0.003,0.008
			c-0.001,0.002-0.003,0.006-0.003,0.01s0,0.004-0.003,0.004c-0.001,0-0.002,0.003-0.002,0.006v0.006
			c-0.004,0-0.006,0.002-0.006,0.006l-0.006,0.006c0,0.004-0.002,0.007-0.005,0.01l-0.006,0.006v0.006
			c-0.003,0-0.006,0.002-0.006,0.006s-0.002,0.006-0.005,0.006c0,0.004-0.001,0.006-0.004,0.006c-0.002,0-0.002,0.001-0.002,0.004
			h-0.005c0,0.004-0.003,0.008-0.006,0.012l-0.012,0.012l-0.011,0.012l-0.012,0.01h-0.006l-0.01,0.012
			c-0.004,0.004-0.008,0.006-0.012,0.006c0,0.004-0.002,0.006-0.006,0.006l-0.005,0.006c-0.004,0-0.006,0-0.006,0.002
			s-0.002,0.002-0.005,0.002h-0.006l-0.012,0.012c-0.014,0.008-0.027,0.014-0.038,0.018c-0.012,0.003-0.026,0.006-0.045,0.01
			c-0.015,0.004-0.037,0.006-0.067,0.006c-0.021,0-0.038-0.002-0.05-0.006h-0.011H90.25c-0.004,0-0.006-0.002-0.006-0.004h-0.021
			V62.09h-0.012c-0.015-0.008-0.023-0.012-0.027-0.012s-0.006-0.002-0.006-0.006h-0.005c-0.005,0-0.006-0.002-0.006-0.006
			c-0.004,0-0.007-0.002-0.012-0.006c-0.003,0-0.005-0.001-0.005-0.004h-0.006c-0.004,0-0.005-0.002-0.005-0.004
			s-0.003-0.002-0.006-0.002c-0.041-0.029-0.074-0.065-0.1-0.106V61.94c-0.005,0-0.006-0.002-0.006-0.006l-0.006-0.006v-0.006
			c-0.004-0.003-0.005-0.006-0.005-0.01s-0.003-0.008-0.006-0.012l-0.951-2.195v2.067c0,0.093-0.032,0.171-0.097,0.236
			c-0.064,0.063-0.144,0.097-0.236,0.097s-0.171-0.033-0.236-0.097c-0.065-0.065-0.097-0.144-0.097-0.236V58.1v-0.023v-0.016v-0.006
			v-0.012l0.006-0.005v-0.006v-0.011v-0.006c0.003-0.004,0.006-0.008,0.006-0.012V58c0-0.003,0-0.005,0.002-0.005
			s0.002-0.002,0.002-0.006s0.001-0.007,0.004-0.009c0.002-0.001,0.003-0.005,0.003-0.009s0-0.006,0.002-0.008
			c0.003-0.002,0.003-0.005,0.003-0.008c0-0.004,0.001-0.006,0.003-0.006c0.001,0,0.003-0.002,0.003-0.006v-0.006l0.011-0.01
			c0-0.004,0.001-0.006,0.003-0.006s0.003-0.002,0.003-0.006l0.005-0.006v-0.006c0.005-0.004,0.006-0.008,0.006-0.011h0.006
			c0-0.004,0.002-0.005,0.003-0.005c0.002,0,0.003-0.003,0.003-0.006h0.005c0-0.004,0.002-0.008,0.006-0.012l0.012-0.012v-0.004
			c0.003,0,0.007-0.003,0.011-0.006v-0.006c0.004,0,0.008-0.002,0.012-0.006h0.004l0.012-0.012l0.012-0.011h0.006
			c0-0.003,0.001-0.005,0.005-0.005c0.003,0,0.006-0.002,0.006-0.004c0-0.001,0.001-0.002,0.005-0.002h0.006l0.012-0.012
			c0.025-0.015,0.051-0.023,0.076-0.027h0.006c0.02-0.004,0.047-0.006,0.084-0.006h0.017h0.006l0.006,0.006h0.011h0.006h0.012
			c0,0.004,0.001,0.006,0.005,0.006h0.011h0.006c0,0.004,0.004,0.006,0.011,0.006c0.004,0.004,0.01,0.005,0.017,0.005
			c0.005,0.003,0.008,0.005,0.012,0.005h0.006c0,0.004,0.003,0.006,0.011,0.006v0.006c0.007,0,0.011,0.002,0.011,0.006h0.006
			c0.004,0,0.005,0.001,0.005,0.002c0,0.002,0.002,0.004,0.006,0.004l0.006,0.005l0.005,0.006l0.006,0.005h0.006
			c0.004,0.004,0.007,0.006,0.012,0.006v0.006c0.003,0,0.006,0.001,0.006,0.002c0,0.003,0.001,0.004,0.004,0.004v0.006
			c0.004,0,0.007,0,0.007,0.002s0.001,0.004,0.005,0.004v0.004l0.012,0.012l0.011,0.012l0.011,0.011
			c0,0.003,0.002,0.007,0.006,0.011c0.004,0,0.006,0.002,0.006,0.006s0.001,0.006,0.006,0.006c0,0.008,0.001,0.012,0.005,0.012
			v0.005c0.003,0.003,0.006,0.007,0.006,0.011h0.006c0,0.008,0,0.012,0.002,0.014s0.004,0.005,0.004,0.009l0.949,2.194v-2.066
			c0-0.093,0.032-0.172,0.097-0.236C90.146,57.793,90.225,57.76,90.317,57.76z"/>
		<path fill="#202D59" d="M93.352,60.989c0,0.012-0.001,0.048-0.003,0.109c-0.003,0.061-0.012,0.133-0.028,0.217
			c-0.017,0.082-0.046,0.172-0.086,0.27c-0.041,0.096-0.1,0.185-0.178,0.266c-0.063,0.07-0.156,0.139-0.28,0.207
			c-0.124,0.066-0.285,0.1-0.481,0.1c-0.195,0-0.354-0.033-0.475-0.1c-0.121-0.068-0.212-0.137-0.275-0.207
			c-0.074-0.081-0.132-0.168-0.172-0.261c-0.041-0.093-0.069-0.181-0.086-0.264s-0.025-0.157-0.025-0.223s0-0.11,0-0.136v-2.135
			c0-0.225,0.037-0.406,0.111-0.541c0.074-0.136,0.149-0.24,0.228-0.314c0.093-0.085,0.198-0.15,0.317-0.197
			c0.117-0.047,0.242-0.068,0.372-0.068c0.126,0,0.253,0.021,0.381,0.066c0.127,0.044,0.241,0.112,0.341,0.205
			c0.101,0.093,0.182,0.209,0.245,0.35s0.095,0.309,0.095,0.5c0,0.098-0.033,0.177-0.098,0.239
			c-0.064,0.063-0.144,0.095-0.236,0.095c-0.092,0-0.172-0.031-0.236-0.095c-0.064-0.062-0.098-0.142-0.098-0.239
			c0-0.1-0.013-0.18-0.041-0.238c-0.027-0.059-0.061-0.104-0.1-0.137c-0.039-0.031-0.082-0.053-0.129-0.062
			c-0.046-0.012-0.087-0.018-0.124-0.018c-0.026,0-0.06,0.005-0.101,0.014c-0.041,0.01-0.08,0.029-0.119,0.061
			c-0.039,0.032-0.073,0.078-0.1,0.137c-0.028,0.061-0.043,0.141-0.043,0.244v2.146v0.027c0,0.018,0,0.043,0,0.074
			s0.005,0.066,0.012,0.105c0.008,0.039,0.019,0.078,0.034,0.117c0.015,0.039,0.035,0.072,0.061,0.098
			c0.011,0.011,0.035,0.028,0.072,0.053c0.036,0.023,0.1,0.035,0.188,0.035c0.098,0,0.164-0.012,0.2-0.035
			c0.037-0.024,0.062-0.044,0.072-0.059c0.053-0.053,0.085-0.117,0.098-0.195c0.013-0.077,0.019-0.135,0.019-0.172
			c0-0.004,0-0.023,0-0.061s0.01-0.077,0.028-0.119c0.019-0.043,0.05-0.083,0.092-0.119c0.042-0.037,0.104-0.059,0.187-0.062
			c0.085-0.004,0.15,0.012,0.197,0.045c0.046,0.033,0.082,0.07,0.107,0.111C93.326,60.872,93.344,60.926,93.352,60.989z"/>
		<path fill="#202D59" d="M95.819,57.76c0.093,0,0.171,0.033,0.236,0.098c0.064,0.064,0.098,0.144,0.098,0.236v3.679
			c0,0.093-0.033,0.171-0.098,0.236c-0.065,0.063-0.144,0.097-0.236,0.097c-0.092,0-0.172-0.033-0.236-0.097
			c-0.064-0.065-0.097-0.144-0.097-0.236v-1.278h-0.867v1.278c0,0.093-0.033,0.171-0.097,0.236
			c-0.065,0.063-0.145,0.097-0.236,0.097c-0.093,0-0.172-0.033-0.236-0.097c-0.065-0.065-0.098-0.144-0.098-0.236v-3.679
			c0-0.093,0.032-0.172,0.098-0.236c0.064-0.064,0.144-0.098,0.236-0.098c0.092,0,0.171,0.033,0.236,0.098
			c0.063,0.064,0.097,0.144,0.097,0.236v1.734h0.867v-1.734c0-0.093,0.032-0.172,0.097-0.236S95.727,57.76,95.819,57.76z"/>
		<path fill="#202D59" d="M98.745,61.532c0.064,0.064,0.096,0.143,0.096,0.235s-0.031,0.171-0.096,0.236
			c-0.065,0.065-0.145,0.097-0.236,0.097h-1.362c-0.093,0-0.171-0.031-0.236-0.097c-0.064-0.065-0.097-0.144-0.097-0.236v-3.679
			c0-0.092,0.032-0.172,0.097-0.236c0.065-0.064,0.144-0.098,0.236-0.098h1.362c0.092,0,0.171,0.033,0.236,0.098
			c0.064,0.064,0.096,0.145,0.096,0.236c0,0.096-0.031,0.176-0.096,0.238c-0.065,0.064-0.145,0.096-0.236,0.096h-1.028v1.4h0.711
			c0.092,0,0.172,0.031,0.236,0.097s0.098,0.144,0.098,0.235c0,0.094-0.033,0.172-0.098,0.236c-0.064,0.065-0.145,0.098-0.236,0.098
			h-0.711v0.945h1.028C98.601,61.434,98.68,61.467,98.745,61.532z"/>
		<path fill="#202D59" d="M101.232,60.067c0.218,0.273,0.327,0.594,0.327,0.961c0,0.115-0.012,0.219-0.035,0.309
			c-0.024,0.091-0.055,0.172-0.09,0.242s-0.074,0.131-0.119,0.184c-0.045,0.051-0.088,0.096-0.134,0.133
			c-0.207,0.166-0.459,0.25-0.755,0.25c-0.145,0-0.279-0.02-0.406-0.061c-0.126-0.041-0.236-0.104-0.333-0.189
			c-0.041-0.033-0.083-0.076-0.126-0.128c-0.042-0.052-0.081-0.112-0.115-0.183c-0.036-0.07-0.065-0.152-0.086-0.245
			c-0.023-0.093-0.034-0.198-0.034-0.317c0-0.092,0.032-0.17,0.097-0.236c0.065-0.064,0.144-0.096,0.236-0.096
			c0.097,0,0.176,0.031,0.239,0.096c0.063,0.066,0.095,0.145,0.095,0.236c0,0.053,0.005,0.105,0.014,0.158
			c0.01,0.055,0.029,0.104,0.059,0.148c0.029,0.044,0.072,0.08,0.131,0.107c0.058,0.029,0.134,0.043,0.23,0.043
			c0.066,0,0.128-0.009,0.187-0.025c0.057-0.018,0.106-0.042,0.147-0.076c0.089-0.077,0.133-0.193,0.133-0.35
			c0-0.114-0.016-0.215-0.044-0.299c-0.03-0.086-0.074-0.164-0.131-0.236c-0.058-0.073-0.128-0.141-0.212-0.207
			c-0.083-0.064-0.177-0.134-0.281-0.207c-0.096-0.068-0.191-0.137-0.286-0.209c-0.094-0.072-0.182-0.154-0.263-0.248
			c-0.097-0.117-0.17-0.241-0.22-0.369c-0.051-0.127-0.076-0.268-0.076-0.42c0-0.021,0.001-0.062,0.004-0.121
			c0.001-0.061,0.011-0.129,0.027-0.206s0.045-0.159,0.083-0.245c0.039-0.084,0.096-0.166,0.17-0.244
			c0.062-0.07,0.157-0.139,0.283-0.205s0.289-0.1,0.489-0.1c0.204,0,0.366,0.033,0.486,0.102s0.212,0.139,0.274,0.209
			c0.071,0.085,0.123,0.175,0.159,0.27c0.035,0.094,0.059,0.182,0.069,0.262c0.011,0.079,0.015,0.148,0.011,0.207
			c-0.004,0.061-0.008,0.096-0.011,0.106c-0.011,0.066-0.033,0.122-0.066,0.167c-0.03,0.041-0.07,0.074-0.119,0.103
			c-0.051,0.028-0.118,0.032-0.204,0.013c-0.081-0.014-0.142-0.041-0.18-0.08c-0.039-0.039-0.064-0.079-0.078-0.121
			c-0.014-0.043-0.019-0.081-0.017-0.115c0.002-0.033,0.003-0.053,0.003-0.061c0.003-0.016,0.006-0.035,0.006-0.061
			c0-0.027-0.004-0.055-0.009-0.084c-0.006-0.029-0.014-0.059-0.025-0.089c-0.011-0.03-0.025-0.056-0.044-0.077
			c-0.045-0.057-0.13-0.084-0.256-0.084c-0.101,0-0.17,0.014-0.208,0.039c-0.039,0.025-0.064,0.045-0.075,0.055
			c-0.026,0.027-0.046,0.057-0.06,0.09c-0.012,0.033-0.021,0.066-0.029,0.1s-0.013,0.062-0.014,0.086
			c-0.002,0.025-0.003,0.042-0.003,0.053v0.012v0.012c0,0.073,0.013,0.141,0.038,0.202c0.027,0.062,0.062,0.118,0.109,0.173
			c0.046,0.053,0.104,0.107,0.175,0.16c0.07,0.055,0.149,0.112,0.238,0.176c0.104,0.074,0.211,0.153,0.319,0.238
			C101.038,59.858,101.139,59.956,101.232,60.067z"/>
		<path fill="#202D59" d="M79.441,65.6c0.048,0.049,0.073,0.107,0.073,0.178c0,0.068-0.025,0.127-0.073,0.176
			s-0.106,0.072-0.177,0.072h-0.091l0.046,0.079c0.035,0.058,0.045,0.12,0.026,0.187c-0.018,0.066-0.058,0.119-0.117,0.154
			c-0.04,0.021-0.081,0.033-0.126,0.033c-0.041,0-0.082-0.012-0.123-0.033c-0.039-0.021-0.07-0.053-0.092-0.092l-0.042-0.078
			l-0.046,0.078c-0.021,0.039-0.053,0.07-0.092,0.092s-0.08,0.033-0.124,0.033c-0.045,0-0.087-0.012-0.124-0.033
			c-0.062-0.035-0.102-0.087-0.119-0.152c-0.018-0.064-0.01-0.127,0.027-0.188l0.045-0.079h-0.092c-0.068,0-0.127-0.023-0.176-0.072
			c-0.048-0.049-0.073-0.107-0.073-0.176c0-0.07,0.025-0.129,0.073-0.178c0.049-0.048,0.107-0.072,0.176-0.072h0.088l-0.041-0.074
			c-0.037-0.061-0.045-0.125-0.027-0.191s0.057-0.116,0.113-0.149c0.062-0.036,0.125-0.045,0.192-0.026
			c0.066,0.018,0.116,0.057,0.149,0.117l0.045,0.075l0.047-0.075c0.032-0.061,0.082-0.1,0.148-0.117
			c0.066-0.019,0.131-0.012,0.192,0.021c0.058,0.037,0.095,0.088,0.112,0.154c0.02,0.066,0.012,0.129-0.021,0.188l-0.046,0.078
			h0.091C79.334,65.528,79.393,65.552,79.441,65.6z"/>
		<path fill="#202D59" d="M79.942,64.984c0.071,0,0.131,0.024,0.178,0.073c0.047,0.048,0.07,0.107,0.07,0.176v2.75
			c0,0.068-0.023,0.127-0.07,0.176s-0.106,0.072-0.178,0.072c-0.069,0-0.129-0.023-0.178-0.072
			c-0.048-0.049-0.071-0.107-0.071-0.176v-2.75c0-0.068,0.023-0.128,0.071-0.176C79.813,65.008,79.872,64.984,79.942,64.984z"/>
		<path fill="#202D59" d="M82.105,64.984c0.069,0,0.128,0.024,0.177,0.073c0.048,0.048,0.072,0.107,0.072,0.176v2.745v0.017v0.012
			v0.005v0.009l-0.005,0.004v0.004v0.008v0.004c-0.002,0.004-0.003,0.006-0.003,0.01v0.004c0,0.002-0.001,0.004-0.003,0.004
			c-0.001,0-0.002,0.002-0.002,0.004c0,0.003-0.001,0.005-0.002,0.006c-0.001,0.002-0.001,0.004-0.001,0.006
			c0,0.004-0.002,0.006-0.004,0.007c-0.001,0.001-0.002,0.003-0.002,0.007c0,0.002,0,0.004-0.002,0.004
			c-0.001,0-0.001,0.002-0.001,0.004v0.004c-0.003,0-0.005,0.002-0.005,0.004l-0.004,0.004c0,0.004-0.002,0.006-0.004,0.01
			l-0.005,0.004v0.004c-0.003,0-0.004,0.002-0.004,0.004c0,0.003-0.001,0.004-0.004,0.004c0,0.003,0,0.004-0.003,0.004
			c-0.001,0-0.002,0.002-0.002,0.004h-0.003c0,0.004-0.003,0.006-0.005,0.01l-0.009,0.008l-0.008,0.008l-0.009,0.008h-0.003
			l-0.009,0.01c-0.003,0.002-0.006,0.004-0.009,0.004c0,0.002-0.001,0.004-0.004,0.004l-0.005,0.004c-0.002,0-0.004,0-0.004,0.002
			s-0.001,0.002-0.004,0.002h-0.004l-0.008,0.008c-0.012,0.006-0.021,0.011-0.029,0.014c-0.009,0.002-0.02,0.006-0.033,0.008
			c-0.012,0.002-0.027,0.004-0.05,0.004c-0.017,0-0.029-0.002-0.037-0.004h-0.009h-0.004c-0.003,0-0.005-0.002-0.005-0.004h-0.017
			v-0.004h-0.009c-0.011-0.006-0.018-0.009-0.02-0.009c-0.003,0-0.004-0.001-0.004-0.005h-0.005c-0.002,0-0.004,0-0.004-0.004
			c-0.003,0-0.006-0.001-0.009-0.004c-0.003,0-0.004-0.002-0.004-0.004h-0.005c-0.002,0-0.003,0-0.003-0.002
			s-0.001-0.002-0.005-0.002c-0.029-0.022-0.055-0.049-0.074-0.079v-0.005c-0.003,0-0.004,0-0.004-0.004l-0.005-0.004v-0.004
			c-0.002-0.002-0.003-0.006-0.003-0.008c0-0.004-0.002-0.006-0.005-0.009l-0.71-1.64v1.545c0,0.068-0.024,0.127-0.073,0.176
			c-0.048,0.049-0.107,0.072-0.176,0.072c-0.069,0-0.129-0.023-0.177-0.072s-0.073-0.107-0.073-0.176v-2.746v-0.016v-0.014v-0.004
			v-0.008l0.005-0.004v-0.004v-0.009v-0.005c0.003-0.002,0.004-0.006,0.004-0.008v-0.004c0-0.003,0.001-0.004,0.002-0.004
			c0.002,0,0.002-0.002,0.002-0.004c0-0.004,0.001-0.006,0.003-0.007c0.001-0.001,0.001-0.003,0.001-0.007
			c0-0.002,0.001-0.004,0.002-0.006c0.002-0.001,0.002-0.004,0.002-0.006s0.002-0.004,0.002-0.004c0.003,0,0.003-0.002,0.003-0.004
			v-0.004l0.009-0.01c0-0.002,0-0.004,0.002-0.004c0.001,0,0.002-0.002,0.002-0.004l0.004-0.004v-0.004
			c0.003-0.003,0.004-0.006,0.004-0.008h0.005c0-0.004,0-0.005,0.001-0.005c0.002,0,0.003-0.001,0.003-0.005h0.004
			c0-0.002,0.001-0.005,0.004-0.008l0.009-0.008v-0.004c0.003,0,0.005-0.002,0.008-0.005v-0.005c0.003,0,0.006,0,0.008-0.004h0.005
			l0.009-0.008l0.008-0.008h0.004c0-0.003,0.002-0.004,0.005-0.004c0.002,0,0.004-0.002,0.004-0.002
			c0-0.002,0.002-0.003,0.004-0.003h0.004l0.009-0.009c0.02-0.01,0.038-0.018,0.058-0.02h0.005c0.014-0.004,0.034-0.005,0.062-0.005
			h0.012h0.004l0.004,0.005h0.009h0.005h0.008c0,0.002,0.002,0.004,0.004,0.004h0.008h0.005c0,0.002,0.003,0.004,0.009,0.004
			C80.998,64.999,81.002,65,81.008,65c0.003,0.003,0.006,0.004,0.008,0.004h0.005c0,0.003,0.003,0.004,0.009,0.004v0.004
			c0.005,0,0.008,0.002,0.008,0.005h0.004c0.003,0,0.005,0.001,0.005,0.003c0,0,0.001,0.002,0.003,0.002l0.005,0.004l0.004,0.004
			l0.005,0.004h0.004c0.002,0.003,0.006,0.004,0.008,0.004v0.004c0.003,0,0.004,0.002,0.004,0.002c0,0.002,0.002,0.002,0.004,0.002
			v0.005c0.004,0,0.005,0.001,0.005,0.003c0,0,0.001,0.002,0.004,0.002v0.004l0.009,0.008l0.009,0.008l0.007,0.01
			c0,0.002,0.002,0.005,0.005,0.008c0.003,0,0.004,0.002,0.004,0.004s0.001,0.004,0.005,0.004c0,0.006,0.001,0.008,0.003,0.008
			v0.005c0.003,0.003,0.005,0.005,0.005,0.009h0.004c0,0.006,0.001,0.008,0.002,0.01c0.002,0.002,0.002,0.004,0.002,0.006
			l0.711,1.641v-1.545c0-0.068,0.024-0.128,0.072-0.176C81.976,65.008,82.035,64.984,82.105,64.984z"/>
		<path fill="#202D59" d="M86.157,65.184c0.058,0.055,0.114,0.133,0.17,0.234c0.056,0.101,0.083,0.236,0.083,0.404v1.57
			c0,0.168-0.027,0.303-0.083,0.404s-0.112,0.18-0.17,0.234c-0.147,0.133-0.32,0.199-0.519,0.199h-0.312h-0.228
			c-0.069,0-0.129-0.023-0.177-0.072c-0.049-0.049-0.072-0.107-0.072-0.176v-2.75c0-0.068,0.023-0.128,0.072-0.176
			c0.048-0.049,0.107-0.073,0.177-0.073h0.228h0.312C85.837,64.984,86.01,65.05,86.157,65.184z M85.912,65.823
			c0-0.078-0.01-0.139-0.031-0.182c-0.021-0.045-0.046-0.08-0.074-0.103c-0.029-0.024-0.061-0.039-0.092-0.046
			c-0.032-0.007-0.058-0.01-0.076-0.01h-0.291v2.25h0.291c0.019,0,0.044-0.004,0.076-0.01c0.031-0.008,0.062-0.022,0.092-0.047
			c0.028-0.023,0.054-0.057,0.074-0.102c0.021-0.044,0.031-0.105,0.031-0.182V65.823z"/>
		<path fill="#202D59" d="M87.133,64.984c0.072,0,0.131,0.024,0.179,0.073c0.047,0.048,0.07,0.107,0.07,0.176v2.75
			c0,0.068-0.023,0.127-0.07,0.176c-0.048,0.049-0.106,0.072-0.179,0.072c-0.069,0-0.127-0.023-0.176-0.072
			s-0.073-0.107-0.073-0.176v-2.75c0-0.068,0.024-0.128,0.073-0.176C87.006,65.008,87.064,64.984,87.133,64.984z"/>
		<path fill="#202D59" d="M89.309,67.969c0.014,0.069,0.002,0.133-0.035,0.189s-0.091,0.092-0.16,0.105
			c-0.011,0.003-0.025,0.004-0.045,0.004c-0.059,0-0.111-0.018-0.156-0.055c-0.045-0.038-0.075-0.086-0.089-0.145l-0.087-0.424
			h-0.445l-0.087,0.424c-0.011,0.059-0.039,0.106-0.085,0.145c-0.046,0.037-0.098,0.055-0.156,0.055
			c-0.021,0-0.038-0.001-0.049-0.004c-0.07-0.014-0.123-0.049-0.16-0.105s-0.05-0.12-0.035-0.189l0.552-2.744v-0.004v-0.009
			c0-0.003,0.001-0.005,0.002-0.005c0.002,0,0.003,0,0.003-0.004V65.2v-0.004c0.002-0.003,0.003-0.006,0.003-0.008
			c0-0.004,0.001-0.004,0.002-0.004c0.003,0,0.003-0.002,0.003-0.005v-0.005c0.008-0.021,0.021-0.041,0.037-0.057v-0.005
			c0.003,0,0.004-0.001,0.004-0.003c0,0,0.002-0.002,0.004-0.002v-0.004l0.005-0.004l0.004-0.004l0.004-0.004l0.004-0.004
			l0.005-0.004l0.008-0.005c0.018-0.017,0.037-0.029,0.059-0.038h0.004c0.003-0.002,0.006-0.004,0.009-0.004
			c0.014-0.006,0.026-0.008,0.037-0.01c0.012-0.002,0.023-0.004,0.038-0.006h0.004h0.008h0.008c0.014,0.002,0.026,0.004,0.038,0.006
			c0.011,0.002,0.024,0.004,0.036,0.01c0.004,0,0.006,0.002,0.009,0.004h0.005c0.022,0.009,0.042,0.021,0.059,0.038
			c0.002,0,0.005,0.001,0.008,0.005l0.004,0.004l0.004,0.004l0.005,0.004l0.004,0.004l0.005,0.004l0.004,0.004l0.003,0.005v0.005
			c0.018,0.016,0.03,0.035,0.038,0.057v0.005c0,0.003,0,0.005,0.002,0.005c0.001,0,0.002,0,0.002,0.004
			c0.006,0.016,0.009,0.029,0.009,0.037L89.309,67.969z M88.516,66.538l-0.125,0.609h0.246L88.516,66.538z"/>
		<path fill="#202D59" d="M91.58,67.983c0,0.068-0.024,0.127-0.072,0.176c-0.049,0.049-0.107,0.072-0.177,0.072
			s-0.128-0.023-0.177-0.072c-0.048-0.049-0.072-0.107-0.072-0.176v-1.711l-0.262,0.514c-0.022,0.061-0.062,0.105-0.12,0.133
			c-0.034,0.018-0.067,0.025-0.104,0.025h-0.004h-0.004h-0.004h-0.005c-0.036,0-0.069-0.008-0.104-0.025
			c-0.059-0.027-0.098-0.072-0.12-0.133l-0.262-0.514v1.711c0,0.068-0.024,0.127-0.072,0.176c-0.049,0.049-0.107,0.072-0.177,0.072
			s-0.128-0.023-0.177-0.072s-0.072-0.107-0.072-0.176v-2.75v-0.012v-0.014v-0.004V65.2c0-0.002,0-0.004,0.001-0.004
			c0.002,0,0.003-0.002,0.003-0.004v-0.004v-0.009c0-0.003,0.001-0.005,0.002-0.007c0.001-0.001,0.002-0.004,0.002-0.006
			c0.003-0.016,0.009-0.031,0.017-0.045c0-0.004,0.001-0.004,0.002-0.004c0.002,0,0.003-0.002,0.003-0.005l0.004-0.005l0.004-0.004
			c0-0.002,0.002-0.006,0.004-0.008v-0.004l0.008-0.008c0.006-0.006,0.011-0.012,0.015-0.018s0.01-0.011,0.016-0.017l0.008-0.009
			h0.004c0-0.002,0.001-0.004,0.002-0.004c0.002,0,0.003-0.001,0.003-0.004h0.004c0.002-0.002,0.006-0.004,0.008-0.004
			c0-0.002,0.001-0.004,0.004-0.004l0.004-0.004l0.009-0.005c0.003-0.003,0.006-0.005,0.009-0.005l0.004-0.004
			c0.003,0,0.005-0.001,0.009-0.004c0.002,0,0.004,0,0.006-0.002C89.748,65,89.75,65,89.753,65s0.005,0,0.007-0.002
			c0.001-0.002,0.003-0.002,0.006-0.002c0.002,0,0.005-0.002,0.008-0.004h0.004h0.009l0.005-0.004h0.004h0.008h0.005
			c0.002-0.004,0.005-0.005,0.008-0.005h0.003h0.014h0.013h0.013h0.008h0.005c0.002,0,0.005,0.001,0.008,0.005h0.008h0.005h0.008
			c0.011,0.006,0.021,0.008,0.029,0.01s0.017,0.005,0.025,0.01h0.003c0,0.004,0.003,0.004,0.009,0.004
			c0,0.004,0.001,0.005,0.004,0.005l0.004,0.005c0.004,0,0.006,0.001,0.009,0.004l0.009,0.008h0.004
			c0.014,0.008,0.025,0.02,0.033,0.033l0.008,0.008l0.009,0.01c0,0.002,0,0.004,0.001,0.004c0.002,0,0.003,0.001,0.003,0.004
			l0.005,0.004l0.004,0.004c0,0.002,0.002,0.006,0.004,0.008c0,0.004,0,0.006,0.002,0.007c0.001,0.001,0.002,0.003,0.002,0.007
			l0.523,1.025l0.522-1.025c0-0.006,0.001-0.01,0.005-0.014c0.002-0.002,0.004-0.006,0.004-0.008c0.003,0,0.004-0.002,0.004-0.004
			l0.004-0.004c0-0.003,0.002-0.006,0.005-0.008l0.009-0.01l0.008-0.008c0.009-0.014,0.02-0.025,0.033-0.033l0.008-0.008h0.004
			c0.004-0.003,0.006-0.004,0.009-0.004l0.005-0.005c0.002,0,0.004-0.001,0.004-0.005c0.006,0,0.008,0,0.008-0.004h0.005
			c0.005-0.005,0.011-0.008,0.02-0.01s0.016-0.004,0.021-0.006c0.006,0,0.01-0.002,0.013-0.004h0.008h0.005h0.008
			c0-0.004,0.001-0.005,0.004-0.005h0.008h0.009h0.013h0.013h0.013c0.005,0,0.009,0.001,0.012,0.005h0.009h0.008l0.004,0.004h0.009
			h0.005l0.008,0.004c0.003,0,0.004,0,0.007,0.002C91.418,65,91.42,65,91.423,65s0.005,0.002,0.008,0.004h0.004
			c0.003,0.003,0.005,0.004,0.009,0.004v0.004c0.005,0,0.01,0.002,0.012,0.005c0.004,0.003,0.006,0.005,0.009,0.005l0.005,0.004
			l0.004,0.004c0.003,0,0.005,0.002,0.008,0.004l0.008,0.008c0.006,0,0.009,0.004,0.009,0.009c0.014,0.009,0.024,0.02,0.033,0.034
			l0.009,0.008v0.004c0.003,0.002,0.004,0.006,0.004,0.008c0.002,0,0.005,0.002,0.005,0.004l0.003,0.005
			c0,0.003,0.002,0.005,0.005,0.009c0.005,0.014,0.011,0.029,0.016,0.045c0,0.006,0.002,0.01,0.005,0.013v0.009v0.004
			c0,0.002,0.001,0.006,0.004,0.008v0.004v0.004v0.014v0.012V67.983z"/>
		<path fill="#202D59" d="M93.464,67.801c0.049,0.049,0.072,0.107,0.072,0.177s-0.023,0.128-0.072,0.177s-0.108,0.072-0.177,0.072
			H92.27c-0.07,0-0.128-0.023-0.177-0.072c-0.048-0.049-0.073-0.107-0.073-0.177v-2.749c0-0.069,0.025-0.128,0.073-0.176
			c0.049-0.049,0.106-0.074,0.177-0.074h1.018c0.068,0,0.128,0.025,0.177,0.074c0.049,0.048,0.072,0.106,0.072,0.176
			c0,0.072-0.023,0.131-0.072,0.179c-0.049,0.047-0.108,0.071-0.177,0.071h-0.769v1.045h0.531c0.069,0,0.129,0.025,0.177,0.073
			s0.072,0.106,0.072,0.177c0,0.068-0.024,0.129-0.072,0.176c-0.048,0.049-0.107,0.073-0.177,0.073h-0.531v0.706h0.769
			C93.356,67.729,93.415,67.752,93.464,67.801z"/>
		<path fill="#202D59" d="M95.49,65.059c0.048,0.047,0.072,0.106,0.072,0.178c0,0.07-0.024,0.129-0.072,0.177
			c-0.049,0.049-0.107,0.073-0.177,0.073h-0.386v2.491c0,0.069-0.025,0.128-0.073,0.177c-0.049,0.049-0.107,0.072-0.177,0.072
			s-0.128-0.023-0.176-0.072c-0.049-0.049-0.073-0.107-0.073-0.177v-2.491h-0.395c-0.069,0-0.128-0.024-0.177-0.073
			c-0.048-0.048-0.072-0.106-0.072-0.177c0-0.071,0.024-0.131,0.072-0.178c0.049-0.047,0.107-0.07,0.177-0.07h1.279
			C95.383,64.989,95.442,65.012,95.49,65.059z"/>
		<path fill="#202D59" d="M97.288,67.801c0.048,0.049,0.072,0.107,0.072,0.177s-0.024,0.128-0.072,0.177s-0.107,0.072-0.177,0.072
			h-1.018c-0.069,0-0.127-0.023-0.177-0.072c-0.048-0.049-0.072-0.107-0.072-0.177v-2.749c0-0.069,0.024-0.128,0.072-0.176
			c0.05-0.049,0.107-0.074,0.177-0.074h1.018c0.069,0,0.129,0.025,0.177,0.074c0.048,0.048,0.072,0.106,0.072,0.176
			c0,0.072-0.024,0.131-0.072,0.179c-0.048,0.047-0.107,0.071-0.177,0.071h-0.769v1.045h0.532c0.069,0,0.128,0.025,0.177,0.073
			c0.048,0.048,0.072,0.106,0.072,0.177c0,0.068-0.024,0.129-0.072,0.176c-0.049,0.049-0.107,0.073-0.177,0.073h-0.532v0.706h0.769
			C97.181,67.729,97.24,67.752,97.288,67.801z"/>
		<path fill="#202D59" d="M99.442,67.877c0.029,0.064,0.032,0.128,0.006,0.191c-0.026,0.064-0.071,0.109-0.135,0.137
			c-0.033,0.016-0.066,0.021-0.1,0.021c-0.048,0-0.092-0.014-0.133-0.039c-0.043-0.027-0.073-0.062-0.096-0.11l-0.461-1.055h-0.25
			v0.955c0,0.069-0.023,0.128-0.072,0.177s-0.107,0.072-0.176,0.072c-0.07,0-0.128-0.023-0.178-0.072
			c-0.048-0.049-0.072-0.107-0.072-0.177v-2.741c0-0.068,0.024-0.127,0.072-0.176c0.05-0.049,0.107-0.072,0.178-0.072h0.602
			c0.105,0,0.206,0.029,0.303,0.088c0.098,0.061,0.182,0.146,0.254,0.256c0.124,0.197,0.188,0.421,0.188,0.673
			c0,0.122-0.017,0.239-0.049,0.353c-0.031,0.114-0.078,0.219-0.139,0.316c-0.027,0.041-0.057,0.078-0.087,0.111
			s-0.062,0.064-0.092,0.092L99.442,67.877z M98.627,66.524c0.014,0,0.033-0.008,0.056-0.026c0.024-0.019,0.051-0.049,0.081-0.093
			c0.036-0.057,0.063-0.119,0.082-0.188c0.018-0.068,0.026-0.141,0.026-0.212s-0.009-0.144-0.026-0.214
			c-0.019-0.07-0.046-0.133-0.082-0.189c-0.03-0.041-0.057-0.07-0.081-0.088c-0.022-0.02-0.042-0.027-0.056-0.027h-0.354v1.037
			H98.627z"/>
	</g>
</g>
</svg>
