<?xml version="1.0" encoding="utf-8"?>
<!-- Generator: Adobe Illustrator 16.0.0, SVG Export Plug-In . SVG Version: 6.00 Build 0)  -->
<!DOCTYPE svg PUBLIC "-//W3C//DTD SVG 1.1//EN" "http://www.w3.org/Graphics/SVG/1.1/DTD/svg11.dtd">
<svg version="1.1" id="Layer_1" xmlns="http://www.w3.org/2000/svg" xmlns:xlink="http://www.w3.org/1999/xlink" x="0px" y="0px"
	 width="72px" height="138.334px" viewBox="6.667 -48.573 72 138.334" enable-background="new 6.667 -48.573 72 138.334"
	 xml:space="preserve">
<g id="Layer_1_1_">
</g>
<g id="Layer_5">
</g>
<g id="Layer_2">
</g>
<g id="neptune">
</g>
<g id="uranus">
</g>
<g id="saturn">
</g>
<g id="jupiter">
</g>
<g id="Layer_14">
</g>
<g id="mars">
</g>
<g id="venus">
</g>
<g id="mercury">
</g>
<g id="earth">
</g>
<g id="Layer_6">
</g>
<g>
	<path fill="#F21C14" d="M31.964,78.734c0.226,0.041,0.396,0.154,0.514,0.338c0.12,0.182,0.156,0.381,0.113,0.604l-1.756,8.676
		c-0.044,0.195-0.137,0.348-0.284,0.463c-0.146,0.115-0.312,0.174-0.497,0.174h-0.027h-0.038c-0.188,0-0.354-0.059-0.5-0.174
		s-0.238-0.268-0.271-0.463l-1.767-8.676c-0.047-0.223-0.01-0.422,0.111-0.604c0.116-0.184,0.289-0.297,0.513-0.338
		c0.21-0.045,0.409-0.008,0.591,0.111c0.181,0.119,0.295,0.291,0.339,0.51l1.021,4.982l1.009-4.982
		c0.044-0.219,0.159-0.391,0.341-0.51C31.556,78.726,31.753,78.689,31.964,78.734z"/>
	<path fill="#F21C14" d="M38.557,87.638c0.159,0.154,0.236,0.344,0.236,0.564s-0.077,0.41-0.236,0.562
		c-0.149,0.156-0.339,0.232-0.562,0.232h-3.254c-0.223,0-0.408-0.076-0.563-0.232c-0.157-0.152-0.231-0.342-0.231-0.562v-8.795
		c0-0.221,0.074-0.41,0.231-0.562c0.155-0.154,0.342-0.232,0.563-0.232h3.254c0.225,0,0.413,0.078,0.562,0.232
		c0.159,0.152,0.236,0.344,0.236,0.562c0,0.232-0.077,0.422-0.236,0.57c-0.149,0.152-0.339,0.227-0.562,0.227h-2.454v3.35h1.697
		c0.224,0,0.411,0.078,0.568,0.23c0.15,0.156,0.229,0.346,0.229,0.564c0,0.221-0.079,0.412-0.229,0.564
		c-0.157,0.154-0.346,0.232-0.568,0.232h-1.697v2.26h2.454C38.219,87.407,38.408,87.482,38.557,87.638z"/>
	<path fill="#F21C14" d="M44.746,78.624c0.22,0,0.406,0.078,0.563,0.232c0.151,0.156,0.229,0.344,0.229,0.564V88.2v0.055v0.039
		v0.014v0.025l-0.014,0.016v0.014v0.023v0.016c-0.008,0.008-0.011,0.016-0.011,0.025v0.014c0,0.01-0.001,0.016-0.007,0.016
		c0,0-0.01,0.002-0.01,0.014c0,0.01,0,0.014-0.006,0.02c-0.006,0.004-0.008,0.01-0.008,0.018c0,0.01-0.002,0.018-0.004,0.021
		c-0.008,0.002-0.008,0.01-0.008,0.02s-0.006,0.014-0.006,0.014s-0.008,0.006-0.008,0.016v0.012c-0.008,0-0.014,0.004-0.014,0.014
		l-0.013,0.014c0,0.01-0.006,0.018-0.015,0.027l-0.012,0.014v0.014c-0.015,0-0.015,0.004-0.015,0.014
		c0,0.006-0.005,0.012-0.013,0.012c0,0.01,0,0.016-0.008,0.016c-0.006,0-0.006,0.004-0.006,0.012h-0.017
		c0,0.01-0.004,0.02-0.013,0.029l-0.024,0.023l-0.026,0.025l-0.029,0.027h-0.014l-0.022,0.025c-0.009,0.01-0.021,0.016-0.028,0.016
		c0,0.01-0.003,0.014-0.012,0.014l-0.018,0.012c-0.006,0-0.015,0.004-0.015,0.008s0,0.006-0.01,0.006h-0.013l-0.028,0.025
		c-0.035,0.02-0.063,0.033-0.093,0.041c-0.025,0.01-0.061,0.016-0.106,0.025c-0.036,0.01-0.088,0.016-0.157,0.016
		c-0.056,0-0.094-0.006-0.119-0.016h-0.026H44.58c-0.012,0-0.015-0.002-0.015-0.014h-0.051v-0.012h-0.028
		c-0.033-0.02-0.058-0.027-0.064-0.027c-0.012,0-0.014-0.004-0.014-0.014h-0.013c-0.012,0-0.017-0.004-0.017-0.012
		c-0.006,0-0.014-0.008-0.025-0.016c0,0-0.016-0.006-0.016-0.014h-0.01c-0.012,0-0.014-0.002-0.014-0.006s-0.005-0.006-0.013-0.006
		c-0.101-0.07-0.181-0.156-0.239-0.252v-0.016c-0.012,0-0.018-0.004-0.018-0.014l-0.012-0.014v-0.012
		c-0.006-0.01-0.015-0.02-0.015-0.027c0-0.01-0.006-0.018-0.015-0.025l-2.27-5.248v4.941c0,0.221-0.074,0.408-0.231,0.562
		c-0.156,0.156-0.343,0.234-0.564,0.234s-0.41-0.078-0.564-0.234c-0.153-0.154-0.231-0.342-0.231-0.562v-8.779v-0.055v-0.039v-0.014
		v-0.027l0.015-0.014v-0.014v-0.027v-0.012c0.009-0.01,0.009-0.02,0.009-0.027v-0.012c0-0.01,0.002-0.016,0.009-0.016
		c0,0,0.008-0.004,0.008-0.014c0-0.008,0-0.014,0.007-0.02c0.005-0.004,0.009-0.012,0.009-0.02c0-0.012,0-0.018,0.005-0.02
		c0.006-0.006,0.008-0.014,0.008-0.021s0.004-0.014,0.004-0.014s0.008-0.004,0.008-0.014v-0.014l0.026-0.025
		c0-0.008,0.002-0.014,0.006-0.014c0,0,0.009-0.004,0.009-0.014l0.014-0.014v-0.012c0.011-0.012,0.011-0.02,0.011-0.027h0.019
		c0-0.01,0-0.016,0-0.016c0.011,0,0.011-0.002,0.011-0.014h0.014c0-0.008,0.004-0.016,0.014-0.023l0.026-0.027v-0.014
		c0.013,0,0.019-0.004,0.025-0.014V78.82c0.011,0,0.018-0.004,0.024-0.014h0.018l0.024-0.025l0.024-0.029h0.015
		c0-0.008,0.006-0.012,0.015-0.012c0,0,0.016-0.004,0.016-0.006c0-0.004,0-0.006,0.014-0.006h0.013l0.024-0.029
		c0.064-0.033,0.124-0.057,0.188-0.064h0.014c0.044-0.01,0.109-0.014,0.196-0.014h0.041h0.013l0.011,0.014h0.03h0.016h0.025
		c0,0.01,0.006,0.016,0.014,0.016h0.023h0.016c0,0.008,0.01,0.012,0.026,0.012c0.01,0.01,0.022,0.014,0.037,0.014
		c0.01,0.01,0.019,0.014,0.026,0.014h0.015c0,0.01,0.011,0.012,0.028,0.012v0.016c0.018,0,0.024,0.004,0.024,0.016h0.016
		c0.007,0,0.011,0.002,0.011,0.006c0,0.002,0.006,0.004,0.016,0.004l0.013,0.014l0.011,0.016l0.019,0.014h0.01
		c0.012,0.012,0.02,0.014,0.029,0.014v0.014c0,0,0.013,0.002,0.013,0.006c0,0.006,0.004,0.008,0.014,0.008v0.014
		c0.008,0,0.01,0.002,0.01,0.008c0,0.002,0.009,0.004,0.016,0.004v0.014l0.028,0.029l0.027,0.023l0.022,0.027
		c0,0.01,0.007,0.018,0.016,0.027c0.01,0,0.015,0.004,0.015,0.012c0,0.01,0.002,0.014,0.011,0.014c0,0.02,0.005,0.025,0.019,0.025
		v0.014c0.007,0.012,0.011,0.02,0.011,0.027h0.014c0,0.018,0.005,0.027,0.006,0.033c0.007,0.006,0.007,0.012,0.007,0.02l2.271,5.246
		v-4.941c0-0.221,0.08-0.408,0.23-0.562C44.335,78.702,44.521,78.624,44.746,78.624z"/>
	<path fill="#F21C14" d="M52.006,86.695C52,86.841,51.978,87.011,51.932,87.2c-0.045,0.191-0.116,0.395-0.213,0.611
		c-0.099,0.217-0.238,0.418-0.414,0.604c-0.149,0.168-0.372,0.332-0.668,0.49c-0.3,0.16-0.679,0.24-1.149,0.24
		c-0.468,0-0.849-0.08-1.136-0.24c-0.287-0.158-0.509-0.322-0.659-0.49c-0.177-0.193-0.311-0.402-0.404-0.625
		c-0.094-0.221-0.156-0.43-0.199-0.633c-0.039-0.197-0.061-0.375-0.061-0.529s0-0.264,0-0.324v-6.855
		c0-0.221,0.08-0.408,0.234-0.562c0.154-0.156,0.341-0.232,0.566-0.232c0.217,0,0.402,0.076,0.562,0.232
		c0.153,0.154,0.229,0.342,0.229,0.562v6.922v0.025c0,0.047,0,0.105,0,0.188c0,0.078,0.012,0.164,0.029,0.252
		c0.016,0.09,0.041,0.18,0.078,0.271c0.035,0.094,0.086,0.172,0.146,0.232c0.024,0.025,0.086,0.068,0.173,0.127
		c0.089,0.057,0.235,0.086,0.438,0.086c0.229,0,0.393-0.029,0.485-0.086c0.091-0.059,0.151-0.102,0.179-0.127
		c0.122-0.135,0.196-0.291,0.225-0.479c0.027-0.188,0.041-0.318,0.041-0.396v-0.041v-0.014v-6.947c0-0.223,0.078-0.41,0.232-0.564
		c0.153-0.156,0.346-0.232,0.562-0.232c0.223,0,0.408,0.076,0.566,0.232c0.155,0.154,0.229,0.344,0.229,0.564v6.934
		C52.009,86.448,52.009,86.55,52.006,86.695z"/>
	<path fill="#F21C14" d="M57.894,84.138c0.523,0.654,0.785,1.422,0.785,2.299c0,0.273-0.029,0.52-0.086,0.736
		c-0.059,0.219-0.131,0.41-0.217,0.576c-0.079,0.172-0.178,0.314-0.283,0.439c-0.105,0.123-0.215,0.229-0.318,0.316
		c-0.496,0.4-1.099,0.6-1.809,0.6c-0.342,0-0.668-0.049-0.967-0.146c-0.303-0.098-0.568-0.246-0.799-0.453
		c-0.097-0.078-0.195-0.18-0.297-0.305c-0.103-0.125-0.195-0.268-0.283-0.438c-0.08-0.168-0.148-0.363-0.201-0.584
		s-0.082-0.475-0.082-0.756c0-0.223,0.078-0.41,0.232-0.564c0.155-0.158,0.344-0.234,0.565-0.234c0.228,0,0.421,0.076,0.571,0.234
		c0.149,0.154,0.228,0.342,0.228,0.564c0,0.121,0.009,0.25,0.031,0.377c0.021,0.129,0.069,0.246,0.137,0.352
		c0.074,0.105,0.177,0.193,0.315,0.26c0.136,0.066,0.316,0.1,0.548,0.1c0.163,0,0.312-0.021,0.446-0.061
		c0.138-0.039,0.256-0.098,0.353-0.18c0.213-0.186,0.317-0.463,0.317-0.836c0-0.273-0.033-0.514-0.104-0.717
		c-0.071-0.205-0.172-0.393-0.313-0.564c-0.135-0.172-0.303-0.336-0.502-0.492c-0.199-0.154-0.428-0.318-0.67-0.498
		c-0.23-0.158-0.461-0.324-0.687-0.498c-0.224-0.172-0.437-0.369-0.628-0.592c-0.232-0.283-0.407-0.576-0.525-0.883
		c-0.121-0.305-0.181-0.639-0.181-1.004c0-0.053,0-0.15,0.005-0.291c0.008-0.141,0.025-0.307,0.068-0.492
		c0.039-0.186,0.105-0.379,0.197-0.584c0.092-0.203,0.227-0.398,0.405-0.584c0.149-0.168,0.376-0.334,0.679-0.492
		c0.301-0.16,0.689-0.236,1.168-0.236c0.487,0,0.875,0.08,1.162,0.242c0.287,0.166,0.508,0.332,0.657,0.498
		c0.173,0.203,0.294,0.422,0.38,0.646c0.082,0.227,0.139,0.434,0.168,0.625c0.022,0.189,0.03,0.355,0.022,0.498
		c-0.009,0.141-0.019,0.225-0.022,0.252c-0.029,0.16-0.08,0.293-0.164,0.398c-0.068,0.1-0.166,0.18-0.283,0.244
		c-0.121,0.068-0.282,0.078-0.484,0.033c-0.193-0.035-0.337-0.1-0.432-0.191c-0.094-0.094-0.155-0.189-0.189-0.291
		c-0.027-0.104-0.042-0.193-0.036-0.273c0.005-0.08,0.005-0.129,0.005-0.146c0.01-0.035,0.018-0.084,0.018-0.146
		s-0.008-0.127-0.021-0.197c-0.015-0.07-0.035-0.143-0.061-0.213c-0.023-0.072-0.062-0.133-0.104-0.186
		c-0.107-0.135-0.314-0.199-0.613-0.199c-0.238,0-0.403,0.029-0.496,0.092c-0.096,0.062-0.153,0.107-0.184,0.135
		c-0.062,0.061-0.107,0.133-0.139,0.211c-0.032,0.078-0.057,0.16-0.074,0.238c-0.018,0.08-0.027,0.148-0.033,0.209
		c-0.002,0.057-0.004,0.098-0.004,0.123v0.027v0.027c0,0.176,0.03,0.336,0.094,0.482c0.062,0.148,0.149,0.285,0.26,0.412
		c0.109,0.129,0.248,0.258,0.418,0.387c0.169,0.127,0.357,0.268,0.57,0.416c0.248,0.178,0.504,0.369,0.765,0.572
		C57.432,83.638,57.675,83.872,57.894,84.138z"/>
</g>
<path fill="#FD554A" d="M63.813,20.827c0,0,1.537,1.356,1.898,4.609c0.361,3.252,1.309,5.377,1.309,5.377l6.01-1.13
	c0,0-2.135-7.159-2.857-9.688c-0.723-2.531-4.01-3.568-4.01-3.568h-1.084l-2.17,1.207L63.813,20.827z"/>
<g>
	<path fill="#F21C14" d="M78.112,37.997c0,11.699-6.867,20.963-14.818,28.915c-4.773,4.769-13.725,7.274-20.982,7.274
		c-9.678,0-20.493-5.166-26.728-11.612C9.609,56.4,8,49.14,8,39.863c0-11.421,3.388-22.344,12.643-27.528
		c9.037-5.061,9.817,0.362,17.352,0.362c7.397,0,19.331-5.784,24.938-1.808C71.692,17.107,78.112,26.439,78.112,37.997z"/>
	<path fill="#8C0000" d="M16.667,44.142l0.724-6.145l4.338-3.615l2.168,4.338l-1.809,10.12l1.448,5.422c0,0,3.614,7.591,4.698,7.228
		c1.084-0.361,7.229,4.699,8.674,4.338c1.445-0.36,8.673,2.168,8.673,2.168l3.256-2.528c0,0,11.926-3.253,14.096-4.7
		c2.168-1.445,7.949-2.647,7.949-2.647s-4.816,6.269-6.385,7.591c-1.564,1.326-5.203,6.006-17.469,8.076
		c-10.001,1.682-20.602-3.379-20.602-3.379s-8.917-7.105-8.917-8.188c0-1.084-0.96-6.991-0.96-6.991S15.763,45.407,16.667,44.142z"
		/>
	<path fill="#8C0000" d="M35.172,22.816c0,0,7.795,6.93,17.436,2.111c9.641-4.821,4.964-1.116,4.964-1.116l-2.49,2.394l-3.746,1.177
		l-4.669,0.046h-4.699l-5.258-0.859l-2.543-2.666v-3.615L35.172,22.816z"/>
	<path fill="#FD554A" d="M21.234,25.888l4.933-3.434v1.973h-0.103l-0.722,3h1.084c0,0-2.53,2.213-2.53,3.297
		s-2.168-2.869-2.168-2.869l-2.232,1.998L21.234,25.888z"/>
	<path fill="#FD554A" d="M31.125,25.347c0,0,5.061,6.145,14.097,4.337l-4.461,1.808l-2.407-0.119l-3.252-0.967l-2.529-1.445
		l-1.69-2.41l-1.083-2.288L31.125,25.347z"/>
	<path fill="#6E9100" d="M66.366-47.304l-2.107,4.88C53.776-33.444,45.581-5.376,45.221-1.4c-0.361,3.975-4.698,27.47-4.698,27.47
		c1.084,0.723,5.058,0.36,5.058,0.36c-0.359-47.349,21.084-68.549,21.084-68.549s1.57-2.056,1.809-1.994
		C68.715-44.051,67.143-44.711,66.366-47.304z"/>
	<path fill="#3A0A00" d="M49.196-6.336c0,0-4.094,21.929-3.551,32.891l-1.148-0.063c0,0-0.965-5.838,3.859-32.947
		C48.959-9.858,49.196-6.336,49.196-6.336z"/>
</g>
</svg>
