<?xml version="1.0" encoding="utf-8"?>
<!-- Generator: Adobe Illustrator 16.0.0, SVG Export Plug-In . SVG Version: 6.00 Build 0)  -->
<!DOCTYPE svg PUBLIC "-//W3C//DTD SVG 1.1//EN" "http://www.w3.org/Graphics/SVG/1.1/DTD/svg11.dtd">
<svg version="1.1" id="Layer_1" xmlns="http://www.w3.org/2000/svg" xmlns:xlink="http://www.w3.org/1999/xlink" x="0px" y="0px"
	 width="72px" height="138.334px" viewBox="6.667 -48.573 72 138.334" enable-background="new 6.667 -48.573 72 138.334"
	 xml:space="preserve">
<g id="Layer_1_1_">
</g>
<g id="Layer_5">
</g>
<g id="Layer_2">
</g>
<g id="neptune">
</g>
<g id="uranus">
</g>
<g id="saturn">
</g>
<g id="jupiter">
</g>
<g id="Layer_14">
</g>
<g id="mars">
</g>
<g id="venus">
</g>
<g id="mercury">
</g>
<g id="earth">
</g>
<g id="Layer_6">
</g>
<g>
	<path fill="#F21C14" d="M31.964,78.734c0.226,0.041,0.396,0.154,0.514,0.338c0.12,0.182,0.156,0.381,0.113,0.604l-1.756,8.676
		c-0.044,0.195-0.137,0.348-0.284,0.463c-0.146,0.115-0.312,0.174-0.497,0.174h-0.027h-0.038c-0.188,0-0.354-0.059-0.5-0.174
		s-0.238-0.268-0.271-0.463l-1.767-8.676c-0.047-0.223-0.01-0.422,0.111-0.604c0.116-0.184,0.289-0.297,0.513-0.338
		c0.21-0.045,0.409-0.008,0.591,0.111c0.181,0.119,0.295,0.291,0.339,0.51l1.021,4.982l1.009-4.982
		c0.044-0.219,0.159-0.391,0.341-0.51C31.556,78.726,31.753,78.689,31.964,78.734z"/>
	<path fill="#F21C14" d="M38.557,87.638c0.159,0.154,0.236,0.344,0.236,0.564s-0.077,0.41-0.236,0.562
		c-0.149,0.156-0.339,0.232-0.562,0.232h-3.254c-0.223,0-0.408-0.076-0.563-0.232c-0.157-0.152-0.231-0.342-0.231-0.562v-8.795
		c0-0.221,0.074-0.41,0.231-0.562c0.155-0.154,0.342-0.232,0.563-0.232h3.254c0.225,0,0.413,0.078,0.562,0.232
		c0.159,0.152,0.236,0.344,0.236,0.562c0,0.232-0.077,0.422-0.236,0.57c-0.149,0.152-0.339,0.227-0.562,0.227h-2.454v3.35h1.697
		c0.224,0,0.411,0.078,0.568,0.23c0.15,0.156,0.229,0.346,0.229,0.564c0,0.221-0.079,0.412-0.229,0.564
		c-0.157,0.154-0.346,0.232-0.568,0.232h-1.697v2.26h2.454C38.219,87.407,38.408,87.482,38.557,87.638z"/>
	<path fill="#F21C14" d="M44.746,78.624c0.22,0,0.406,0.078,0.563,0.232c0.151,0.156,0.229,0.344,0.229,0.564V88.2v0.055v0.039
		v0.014v0.025l-0.014,0.016v0.014v0.023v0.016c-0.008,0.008-0.011,0.016-0.011,0.025v0.014c0,0.01-0.001,0.016-0.007,0.016
		c0,0-0.01,0.002-0.01,0.014c0,0.01,0,0.014-0.006,0.02c-0.006,0.004-0.008,0.01-0.008,0.018c0,0.01-0.002,0.018-0.004,0.021
		c-0.008,0.002-0.008,0.01-0.008,0.02s-0.006,0.014-0.006,0.014s-0.008,0.006-0.008,0.016v0.012c-0.008,0-0.014,0.004-0.014,0.014
		l-0.013,0.014c0,0.01-0.006,0.018-0.015,0.027l-0.012,0.014v0.014c-0.015,0-0.015,0.004-0.015,0.014
		c0,0.006-0.005,0.012-0.013,0.012c0,0.01,0,0.016-0.008,0.016c-0.006,0-0.006,0.004-0.006,0.012h-0.017
		c0,0.01-0.004,0.02-0.013,0.029l-0.024,0.023l-0.026,0.025l-0.029,0.027h-0.014l-0.022,0.025c-0.009,0.01-0.021,0.016-0.028,0.016
		c0,0.01-0.003,0.014-0.012,0.014l-0.018,0.012c-0.006,0-0.015,0.004-0.015,0.008s0,0.006-0.01,0.006h-0.013l-0.028,0.025
		c-0.035,0.02-0.063,0.033-0.093,0.041c-0.025,0.01-0.061,0.016-0.106,0.025c-0.036,0.01-0.088,0.016-0.157,0.016
		c-0.056,0-0.094-0.006-0.119-0.016h-0.026H44.58c-0.012,0-0.015-0.002-0.015-0.014h-0.051v-0.012h-0.028
		c-0.033-0.02-0.058-0.027-0.064-0.027c-0.012,0-0.014-0.004-0.014-0.014h-0.013c-0.012,0-0.017-0.004-0.017-0.012
		c-0.006,0-0.014-0.008-0.025-0.016c0,0-0.016-0.006-0.016-0.014h-0.01c-0.012,0-0.014-0.002-0.014-0.006s-0.005-0.006-0.013-0.006
		c-0.101-0.07-0.181-0.156-0.239-0.252v-0.016c-0.012,0-0.018-0.004-0.018-0.014l-0.012-0.014v-0.012
		c-0.006-0.01-0.015-0.02-0.015-0.027c0-0.01-0.006-0.018-0.015-0.025l-2.27-5.248v4.941c0,0.221-0.074,0.408-0.231,0.562
		c-0.156,0.156-0.343,0.234-0.564,0.234s-0.41-0.078-0.564-0.234c-0.153-0.154-0.231-0.342-0.231-0.562v-8.779v-0.055v-0.039v-0.014
		v-0.027l0.015-0.014v-0.014v-0.027v-0.012c0.009-0.01,0.009-0.02,0.009-0.027v-0.012c0-0.01,0.002-0.016,0.009-0.016
		c0,0,0.008-0.004,0.008-0.014c0-0.008,0-0.014,0.007-0.02c0.005-0.004,0.009-0.012,0.009-0.02c0-0.012,0-0.018,0.005-0.02
		c0.006-0.006,0.008-0.014,0.008-0.021s0.004-0.014,0.004-0.014s0.008-0.004,0.008-0.014v-0.014l0.026-0.025
		c0-0.008,0.002-0.014,0.006-0.014c0,0,0.009-0.004,0.009-0.014l0.014-0.014v-0.012c0.011-0.012,0.011-0.02,0.011-0.027h0.019
		c0-0.01,0-0.016,0-0.016c0.011,0,0.011-0.002,0.011-0.014h0.014c0-0.008,0.004-0.016,0.014-0.023l0.026-0.027v-0.014
		c0.013,0,0.019-0.004,0.025-0.014V78.82c0.011,0,0.018-0.004,0.024-0.014h0.018l0.024-0.025l0.024-0.029h0.015
		c0-0.008,0.006-0.012,0.015-0.012c0,0,0.016-0.004,0.016-0.006c0-0.004,0-0.006,0.014-0.006h0.013l0.024-0.029
		c0.064-0.033,0.124-0.057,0.188-0.064h0.014c0.044-0.01,0.109-0.014,0.196-0.014h0.041h0.013l0.011,0.014h0.03h0.016h0.025
		c0,0.01,0.006,0.016,0.014,0.016h0.023h0.016c0,0.008,0.01,0.012,0.026,0.012c0.01,0.01,0.022,0.014,0.037,0.014
		c0.01,0.01,0.019,0.014,0.026,0.014h0.015c0,0.01,0.011,0.012,0.028,0.012v0.016c0.018,0,0.024,0.004,0.024,0.016h0.016
		c0.007,0,0.011,0.002,0.011,0.006c0,0.002,0.006,0.004,0.016,0.004l0.013,0.014l0.011,0.016l0.019,0.014h0.01
		c0.012,0.012,0.02,0.014,0.029,0.014v0.014c0,0,0.013,0.002,0.013,0.006c0,0.006,0.004,0.008,0.014,0.008v0.014
		c0.008,0,0.01,0.002,0.01,0.008c0,0.002,0.009,0.004,0.016,0.004v0.014l0.028,0.029l0.027,0.023l0.022,0.027
		c0,0.01,0.007,0.018,0.016,0.027c0.01,0,0.015,0.004,0.015,0.012c0,0.01,0.002,0.014,0.011,0.014c0,0.02,0.005,0.025,0.019,0.025
		v0.014c0.007,0.012,0.011,0.02,0.011,0.027h0.014c0,0.018,0.005,0.027,0.006,0.033c0.007,0.006,0.007,0.012,0.007,0.02l2.271,5.246
		v-4.941c0-0.221,0.08-0.408,0.23-0.562C44.335,78.702,44.521,78.624,44.746,78.624z"/>
	<path fill="#F21C14" d="M52.006,86.695C52,86.841,51.978,87.011,51.932,87.2c-0.045,0.191-0.116,0.395-0.213,0.611
		c-0.099,0.217-0.238,0.418-0.414,0.604c-0.149,0.168-0.372,0.332-0.668,0.49c-0.3,0.16-0.679,0.24-1.149,0.24
		c-0.468,0-0.849-0.08-1.136-0.24c-0.287-0.158-0.509-0.322-0.659-0.49c-0.177-0.193-0.311-0.402-0.404-0.625
		c-0.094-0.221-0.156-0.43-0.199-0.633c-0.039-0.197-0.061-0.375-0.061-0.529s0-0.264,0-0.324v-6.855
		c0-0.221,0.08-0.408,0.234-0.562c0.154-0.156,0.341-0.232,0.566-0.232c0.217,0,0.402,0.076,0.562,0.232
		c0.153,0.154,0.229,0.342,0.229,0.562v6.922v0.025c0,0.047,0,0.105,0,0.188c0,0.078,0.012,0.164,0.029,0.252
		c0.016,0.09,0.041,0.18,0.078,0.271c0.035,0.094,0.086,0.172,0.146,0.232c0.024,0.025,0.086,0.068,0.173,0.127
		c0.089,0.057,0.235,0.086,0.438,0.086c0.229,0,0.393-0.029,0.485-0.086c0.091-0.059,0.151-0.102,0.179-0.127
		c0.122-0.135,0.196-0.291,0.225-0.479c0.027-0.188,0.041-0.318,0.041-0.396v-0.041v-0.014v-6.947c0-0.223,0.078-0.41,0.232-0.564
		c0.153-0.156,0.346-0.232,0.562-0.232c0.223,0,0.408,0.076,0.566,0.232c0.155,0.154,0.229,0.344,0.229,0.564v6.934
		C52.009,86.448,52.009,86.55,52.006,86.695z"/>
	<path fill="#F21C14" d="M57.894,84.138c0.523,0.654,0.785,1.422,0.785,2.299c0,0.273-0.029,0.52-0.086,0.736
		c-0.059,0.219-0.131,0.41-0.217,0.576c-0.079,0.172-0.178,0.314-0.283,0.439c-0.105,0.123-0.215,0.229-0.318,0.316
		c-0.496,0.4-1.099,0.6-1.809,0.6c-0.342,0-0.668-0.049-0.967-0.146c-0.303-0.098-0.568-0.246-0.799-0.453
		c-0.097-0.078-0.195-0.18-0.297-0.305c-0.103-0.125-0.195-0.268-0.283-0.438c-0.08-0.168-0.148-0.363-0.201-0.584
		s-0.082-0.475-0.082-0.756c0-0.223,0.078-0.41,0.232-0.564c0.155-0.158,0.344-0.234,0.565-0.234c0.228,0,0.421,0.076,0.571,0.234
		c0.149,0.154,0.228,0.342,0.228,0.564c0,0.121,0.009,0.25,0.031,0.377c0.021,0.129,0.069,0.246,0.137,0.352
		c0.074,0.105,0.177,0.193,0.315,0.26c0.136,0.066,0.316,0.1,0.548,0.1c0.163,0,0.312-0.021,0.446-0.061
		c0.138-0.039,0.256-0.098,0.353-0.18c0.213-0.186,0.317-0.463,0.317-0.836c0-0.273-0.033-0.514-0.104-0.717
		c-0.071-0.205-0.172-0.393-0.313-0.564c-0.135-0.172-0.303-0.336-0.502-0.492c-0.199-0.154-0.428-0.318-0.67-0.498
		c-0.23-0.158-0.461-0.324-0.687-0.498c-0.224-0.172-0.437-0.369-0.628-0.592c-0.232-0.283-0.407-0.576-0.525-0.883
		c-0.121-0.305-0.181-0.639-0.181-1.004c0-0.053,0-0.15,0.005-0.291c0.008-0.141,0.025-0.307,0.068-0.492
		c0.039-0.186,0.105-0.379,0.197-0.584c0.092-0.203,0.227-0.398,0.405-0.584c0.149-0.168,0.376-0.334,0.679-0.492
		c0.301-0.16,0.689-0.236,1.168-0.236c0.487,0,0.875,0.08,1.162,0.242c0.287,0.166,0.508,0.332,0.657,0.498
		c0.173,0.203,0.294,0.422,0.38,0.646c0.082,0.227,0.139,0.434,0.168,0.625c0.022,0.189,0.03,0.355,0.022,0.498
		c-0.009,0.141-0.019,0.225-0.022,0.252c-0.029,0.16-0.08,0.293-0.164,0.398c-0.068,0.1-0.166,0.18-0.283,0.244
		c-0.121,0.068-0.282,0.078-0.484,0.033c-0.193-0.035-0.337-0.1-0.432-0.191c-0.094-0.094-0.155-0.189-0.189-0.291
		c-0.027-0.104-0.042-0.193-0.036-0.273c0.005-0.08,0.005-0.129,0.005-0.146c0.01-0.035,0.018-0.084,0.018-0.146
		s-0.008-0.127-0.021-0.197c-0.015-0.07-0.035-0.143-0.061-0.213c-0.023-0.072-0.062-0.133-0.104-0.186
		c-0.107-0.135-0.314-0.199-0.613-0.199c-0.238,0-0.403,0.029-0.496,0.092c-0.096,0.062-0.153,0.107-0.184,0.135
		c-0.062,0.061-0.107,0.133-0.139,0.211c-0.032,0.078-0.057,0.16-0.074,0.238c-0.018,0.08-0.027,0.148-0.033,0.209
		c-0.002,0.057-0.004,0.098-0.004,0.123v0.027v0.027c0,0.176,0.03,0.336,0.094,0.482c0.062,0.148,0.149,0.285,0.26,0.412
		c0.109,0.129,0.248,0.258,0.418,0.387c0.169,0.127,0.357,0.268,0.57,0.416c0.248,0.178,0.504,0.369,0.765,0.572
		C57.432,83.638,57.675,83.872,57.894,84.138z"/>
</g>
<path fill="#FD554A" d="M63.813,20.827c0,0,1.537,1.356,1.898,4.609c0.361,3.252,1.309,5.377,1.309,5.377l6.01-1.13
	c0,0-2.135-7.159-2.857-9.688c-0.723-2.531-4.01-3.568-4.01-3.568h-1.084l-2.17,1.207L63.813,20.827z"/>
<path fill="#F21C14" d="M78.174,37.997c0,11.699-6.867,20.963-14.818,28.915c-4.773,4.769-13.725,7.274-20.982,7.274
	c-9.678,0-20.494-5.166-26.729-11.612C9.67,56.4,8.061,49.14,8.061,39.863c0-11.421,3.389-22.344,12.643-27.528
	c9.037-5.061,9.818,0.362,17.352,0.362c7.398,0,19.332-5.784,24.939-1.808C71.754,17.107,78.174,26.439,78.174,37.997z"/>
<g>
	<path fill="#8C0000" d="M15.452,35.593c0.146,0,0.27,0.052,0.373,0.154c0.104,0.104,0.154,0.229,0.154,0.375
		c0,0.164-0.012,0.329-0.039,0.492c-0.027,0.166-0.09,0.315-0.189,0.451c-0.119,0.164-0.273,0.281-0.467,0.352
		c-0.158,0.059-0.352,0.088-0.582,0.088h-1.734c-0.148,0-0.273-0.051-0.375-0.154c-0.104-0.103-0.154-0.227-0.154-0.374
		c0-0.306,0.043-0.593,0.127-0.858c0.086-0.268,0.195-0.521,0.332-0.763c0.133-0.241,0.283-0.47,0.449-0.688
		c0.162-0.218,0.328-0.427,0.492-0.626c0.129-0.158,0.252-0.314,0.371-0.467c0.115-0.152,0.223-0.304,0.316-0.454
		c0.094-0.149,0.168-0.298,0.225-0.444s0.084-0.293,0.084-0.441V32.2c0.006-0.047-0.002-0.126-0.021-0.238
		c-0.021-0.111-0.066-0.207-0.139-0.29c-0.016-0.018-0.059-0.046-0.121-0.084c-0.066-0.038-0.174-0.058-0.328-0.058
		c-0.205,0-0.342,0.041-0.414,0.124c-0.064,0.076-0.1,0.172-0.109,0.286c-0.008,0.114-0.01,0.184-0.006,0.207
		c0.025,0.147-0.008,0.279-0.096,0.396s-0.205,0.186-0.352,0.203c-0.148,0.023-0.277-0.01-0.393-0.098s-0.184-0.205-0.207-0.352
		c0-0.018-0.004-0.074-0.01-0.168c-0.004-0.094,0-0.204,0.02-0.33c0.018-0.127,0.051-0.263,0.102-0.41
		c0.049-0.146,0.133-0.287,0.25-0.422c0.1-0.118,0.246-0.23,0.439-0.336c0.195-0.105,0.453-0.158,0.775-0.158
		c0.318,0,0.576,0.051,0.771,0.154c0.197,0.103,0.346,0.209,0.445,0.321c0.111,0.124,0.199,0.255,0.266,0.392
		c0.062,0.139,0.109,0.268,0.135,0.389c0.027,0.119,0.041,0.228,0.045,0.321c0.002,0.094,0.004,0.158,0.004,0.193
		c0,0.241-0.035,0.471-0.105,0.688c-0.07,0.218-0.164,0.427-0.283,0.63c-0.117,0.203-0.248,0.4-0.395,0.59
		c-0.148,0.191-0.297,0.379-0.449,0.561c-0.236,0.287-0.455,0.57-0.656,0.85c-0.203,0.279-0.346,0.574-0.428,0.887h1.127
		c0.053,0,0.096-0.002,0.127-0.005c0.033-0.003,0.059-0.007,0.076-0.013c0.006-0.023,0.01-0.058,0.012-0.102
		c0.004-0.045,0.006-0.113,0.006-0.207c0-0.146,0.051-0.271,0.154-0.375C15.18,35.645,15.303,35.593,15.452,35.593z"/>
	<path fill="#8C0000" d="M17.002,36.2c0.146,0,0.271,0.053,0.373,0.154c0.104,0.104,0.154,0.229,0.154,0.375
		c0,0.153-0.051,0.281-0.154,0.383c-0.102,0.104-0.227,0.154-0.373,0.154c-0.154,0-0.281-0.051-0.385-0.154
		c-0.102-0.102-0.152-0.229-0.152-0.383c0-0.146,0.051-0.271,0.152-0.375C16.721,36.253,16.848,36.2,17.002,36.2z"/>
	<path fill="#8C0000" d="M21.051,36.54c0.102,0.104,0.154,0.229,0.154,0.375s-0.053,0.271-0.154,0.375
		c-0.104,0.102-0.229,0.153-0.375,0.153h-2.291c-0.146,0-0.271-0.052-0.375-0.153c-0.102-0.104-0.154-0.229-0.154-0.375
		s0.053-0.271,0.154-0.375c0.104-0.103,0.229-0.154,0.375-0.154h0.635v-4.018l-0.221,0.221c-0.1,0.1-0.223,0.148-0.371,0.148
		c-0.146,0-0.271-0.049-0.377-0.148c-0.102-0.105-0.15-0.232-0.15-0.38c0-0.146,0.049-0.271,0.15-0.37l1.119-1.119
		c0.076-0.076,0.166-0.125,0.271-0.145c0.107-0.021,0.209-0.011,0.309,0.031c0.1,0.041,0.18,0.105,0.238,0.193
		s0.088,0.186,0.088,0.291v5.295h0.6C20.823,36.386,20.948,36.438,21.051,36.54z"/>
	<path fill="#8C0000" d="M24.809,30.782c0.053,0.064,0.086,0.138,0.102,0.221c0.014,0.082,0.01,0.164-0.014,0.246l-1.666,5.763
		c-0.029,0.118-0.092,0.21-0.189,0.278c-0.096,0.066-0.203,0.101-0.322,0.101c-0.021,0-0.047,0-0.07,0
		c-0.021,0-0.047-0.006-0.068-0.018c-0.143-0.042-0.248-0.125-0.318-0.251c-0.07-0.127-0.086-0.26-0.045-0.401l1.473-5.093h-1.922
		c-0.146,0-0.271-0.052-0.375-0.154c-0.102-0.104-0.152-0.227-0.152-0.375c0-0.146,0.051-0.271,0.152-0.375
		c0.104-0.102,0.229-0.153,0.375-0.153h2.617C24.563,30.571,24.702,30.641,24.809,30.782z"/>
	<path fill="#8C0000" d="M32.977,35.663c0,0.019,0,0.075-0.004,0.172c-0.004,0.098-0.018,0.212-0.043,0.344
		c-0.027,0.133-0.072,0.275-0.139,0.428c-0.064,0.152-0.156,0.294-0.281,0.423c-0.1,0.112-0.248,0.221-0.445,0.327
		c-0.195,0.105-0.451,0.158-0.762,0.158s-0.562-0.053-0.754-0.158c-0.191-0.106-0.336-0.215-0.436-0.327
		c-0.117-0.129-0.209-0.267-0.273-0.415c-0.064-0.146-0.111-0.285-0.137-0.418c-0.027-0.132-0.039-0.25-0.039-0.352
		c0-0.104,0-0.176,0-0.217v-3.384c0-0.358,0.059-0.644,0.176-0.858s0.238-0.381,0.361-0.498c0.146-0.135,0.314-0.24,0.502-0.312
		c0.189-0.074,0.385-0.111,0.59-0.111c0.201,0,0.402,0.036,0.605,0.106c0.201,0.07,0.381,0.179,0.541,0.326
		c0.158,0.146,0.287,0.332,0.387,0.556c0.1,0.223,0.15,0.486,0.15,0.792c0,0.153-0.051,0.279-0.154,0.38
		c-0.104,0.1-0.227,0.149-0.375,0.149c-0.146,0-0.27-0.05-0.373-0.149c-0.104-0.101-0.154-0.227-0.154-0.38
		c0-0.158-0.021-0.284-0.066-0.378c-0.043-0.094-0.098-0.166-0.158-0.217c-0.062-0.049-0.131-0.084-0.203-0.101
		c-0.074-0.019-0.141-0.026-0.199-0.026c-0.041,0-0.094,0.007-0.158,0.021s-0.127,0.047-0.189,0.098
		c-0.062,0.049-0.113,0.121-0.158,0.215c-0.043,0.094-0.066,0.225-0.066,0.388v3.401v0.045c0,0.029,0,0.068,0,0.118
		s0.006,0.106,0.018,0.167c0.012,0.062,0.029,0.125,0.053,0.186c0.023,0.062,0.057,0.113,0.098,0.154
		c0.018,0.018,0.055,0.045,0.113,0.084c0.061,0.038,0.16,0.057,0.301,0.057c0.152,0,0.258-0.019,0.318-0.057
		c0.059-0.039,0.096-0.068,0.113-0.093c0.082-0.082,0.135-0.185,0.154-0.308c0.021-0.124,0.031-0.215,0.031-0.273
		c0-0.006,0-0.039,0-0.098s0.014-0.121,0.043-0.189c0.029-0.066,0.078-0.131,0.146-0.189s0.166-0.09,0.295-0.097
		c0.135-0.005,0.238,0.019,0.312,0.071c0.072,0.052,0.131,0.111,0.172,0.176C32.936,35.476,32.965,35.564,32.977,35.663z"/>
	<path fill="#8C0000" d="M36.991,36.523c0.104,0.104,0.154,0.228,0.154,0.375c0,0.146-0.051,0.271-0.154,0.374
		s-0.227,0.155-0.375,0.155h-2.158c-0.146,0-0.271-0.053-0.375-0.155c-0.102-0.103-0.154-0.228-0.154-0.374v-5.834
		c0-0.146,0.053-0.271,0.154-0.374c0.104-0.103,0.229-0.155,0.375-0.155h2.158c0.148,0,0.271,0.053,0.375,0.155
		s0.154,0.228,0.154,0.374c0,0.153-0.051,0.279-0.154,0.379s-0.227,0.15-0.375,0.15h-1.629v2.221h1.127
		c0.148,0,0.273,0.051,0.375,0.154c0.104,0.103,0.154,0.227,0.154,0.375c0,0.146-0.051,0.271-0.154,0.373
		c-0.102,0.104-0.227,0.154-0.375,0.154h-1.127v1.498h1.629C36.764,36.368,36.887,36.421,36.991,36.523z"/>
	<path fill="#8C0000" d="M41.092,30.544c0.146,0,0.271,0.051,0.375,0.154s0.154,0.229,0.154,0.375v5.824v0.035v0.026v0.009v0.018
		l-0.01,0.009v0.009v0.018v0.009c-0.004,0.007-0.008,0.012-0.008,0.018v0.009c0,0.006-0.002,0.01-0.004,0.01
		c-0.004,0-0.006,0.002-0.006,0.008s0,0.01-0.004,0.014c-0.002,0.003-0.004,0.008-0.004,0.014s-0.002,0.01-0.006,0.012
		c-0.002,0.004-0.002,0.008-0.002,0.014s-0.002,0.01-0.006,0.01c-0.002,0-0.004,0.002-0.004,0.008v0.01
		c-0.006,0-0.008,0.002-0.008,0.008l-0.01,0.01c0,0.006-0.002,0.012-0.008,0.018l-0.01,0.008v0.01c-0.006,0-0.008,0.002-0.008,0.008
		c0,0.007-0.004,0.01-0.01,0.01c0,0.006-0.002,0.008-0.006,0.008c0,0-0.002,0.004-0.002,0.01h-0.01c0,0.006-0.004,0.012-0.008,0.018
		l-0.02,0.018l-0.018,0.018l-0.018,0.018h-0.008l-0.018,0.018c-0.008,0.006-0.012,0.009-0.018,0.009c0,0.005-0.002,0.009-0.01,0.009
		l-0.008,0.01c-0.006,0-0.01,0-0.01,0.003s-0.002,0.005-0.008,0.005h-0.01l-0.018,0.018c-0.023,0.012-0.043,0.02-0.061,0.026
		c-0.02,0.006-0.041,0.012-0.07,0.019c-0.025,0.004-0.061,0.008-0.107,0.008c-0.035,0-0.061-0.004-0.08-0.008h-0.016h-0.01
		c-0.006,0-0.008-0.004-0.008-0.01h-0.037v-0.009h-0.018c-0.021-0.012-0.037-0.018-0.043-0.018s-0.01-0.003-0.01-0.009h-0.008
		c-0.006,0-0.01-0.003-0.01-0.009c-0.004,0-0.012-0.003-0.016-0.009c-0.006,0-0.01-0.003-0.01-0.008h-0.008
		c-0.008,0-0.01-0.002-0.01-0.006c0-0.003-0.002-0.004-0.008-0.004c-0.064-0.047-0.119-0.104-0.16-0.168v-0.008
		c-0.006,0-0.008-0.004-0.008-0.01l-0.01-0.008v-0.01c-0.006-0.006-0.008-0.012-0.008-0.018s-0.004-0.012-0.01-0.018l-1.506-3.48
		v3.277c0,0.148-0.053,0.273-0.154,0.375c-0.104,0.104-0.229,0.154-0.375,0.154s-0.271-0.051-0.373-0.154
		c-0.104-0.102-0.156-0.227-0.156-0.375v-5.824v-0.035V31.02v-0.009v-0.018l0.01-0.008v-0.01v-0.018v-0.009
		c0.006-0.006,0.008-0.011,0.008-0.018v-0.009c0-0.006,0.002-0.009,0.006-0.009c0.002,0,0.004-0.003,0.004-0.009s0-0.01,0.004-0.014
		c0.004-0.002,0.006-0.007,0.006-0.013c0-0.007,0-0.011,0.004-0.013c0.002-0.004,0.004-0.008,0.004-0.014s0.002-0.01,0.004-0.01
		c0.004,0,0.006-0.002,0.006-0.008v-0.01l0.018-0.018c0-0.006,0-0.008,0.004-0.008c0.002,0,0.004-0.004,0.004-0.01l0.008-0.008
		v-0.01c0.006-0.006,0.01-0.011,0.01-0.018h0.01c0-0.006,0-0.008,0.004-0.008c0.002,0,0.004-0.004,0.004-0.01h0.008
		c0-0.006,0.004-0.012,0.01-0.018l0.018-0.018v-0.008c0.006,0,0.012-0.004,0.018-0.01v-0.008c0.006,0,0.012-0.004,0.018-0.01h0.01
		l0.018-0.018l0.018-0.018h0.008c0-0.006,0.002-0.008,0.008-0.008c0.008,0,0.01-0.002,0.01-0.006c0-0.002,0.002-0.004,0.01-0.004
		h0.008l0.018-0.018c0.043-0.023,0.082-0.037,0.125-0.044h0.008c0.029-0.005,0.072-0.009,0.133-0.009h0.025h0.01l0.008,0.009h0.018
		h0.008h0.02c0,0.007,0.002,0.009,0.008,0.009h0.018h0.01c0,0.006,0.006,0.009,0.018,0.009c0.006,0.006,0.014,0.009,0.025,0.009
		c0.006,0.006,0.012,0.01,0.018,0.01h0.01c0,0.005,0.006,0.008,0.018,0.008v0.01c0.012,0,0.018,0.002,0.018,0.008h0.01
		c0.004,0,0.008,0.002,0.008,0.004c0,0.004,0.002,0.006,0.01,0.006l0.008,0.008l0.008,0.009l0.01,0.009h0.008
		c0.008,0.006,0.012,0.01,0.018,0.01v0.008c0.008,0,0.01,0.002,0.01,0.005s0.002,0.005,0.008,0.005v0.008
		c0.006,0,0.01,0.002,0.01,0.005s0.004,0.005,0.008,0.005v0.008l0.018,0.018l0.02,0.018l0.018,0.018
		c0,0.007,0.002,0.012,0.008,0.018c0.006,0,0.01,0.004,0.01,0.01s0.002,0.008,0.008,0.008c0,0.012,0.004,0.018,0.008,0.018v0.01
		c0.008,0.006,0.01,0.012,0.01,0.018h0.01c0,0.012,0,0.02,0.004,0.021c0.002,0.004,0.004,0.008,0.004,0.014l1.506,3.48v-3.277
		c0-0.146,0.053-0.271,0.156-0.375C40.821,30.595,40.946,30.544,41.092,30.544z"/>
	<path fill="#8C0000" d="M45.758,30.702c0.104,0.1,0.154,0.227,0.154,0.379c0,0.147-0.051,0.271-0.154,0.375
		c-0.102,0.103-0.227,0.154-0.375,0.154h-0.818v5.287c0,0.146-0.051,0.271-0.154,0.374s-0.229,0.155-0.375,0.155
		s-0.271-0.053-0.373-0.155c-0.104-0.103-0.156-0.228-0.156-0.374v-5.287H42.67c-0.146,0-0.271-0.052-0.375-0.154
		c-0.104-0.104-0.154-0.228-0.154-0.375c0-0.152,0.051-0.279,0.154-0.379s0.229-0.149,0.375-0.149h2.713
		C45.532,30.553,45.657,30.603,45.758,30.702z"/>
	<path fill="#8C0000" d="M47.075,30.544c0.154,0,0.279,0.051,0.379,0.154s0.15,0.229,0.15,0.375v5.832
		c0,0.148-0.051,0.273-0.15,0.375c-0.1,0.104-0.225,0.154-0.379,0.154c-0.146,0-0.271-0.051-0.373-0.154
		c-0.104-0.102-0.154-0.227-0.154-0.375v-5.832c0-0.146,0.051-0.271,0.154-0.375C46.803,30.595,46.928,30.544,47.075,30.544z"/>
	<path fill="#8C0000" d="M52.786,36.906c0,0.148-0.051,0.273-0.154,0.375c-0.102,0.104-0.227,0.154-0.375,0.154
		c-0.146,0-0.271-0.051-0.373-0.154c-0.104-0.102-0.154-0.227-0.154-0.375v-3.631l-0.555,1.094
		c-0.049,0.129-0.133,0.223-0.256,0.281c-0.07,0.035-0.145,0.054-0.221,0.054h-0.01H50.68h-0.01h-0.008
		c-0.076,0-0.15-0.019-0.221-0.054c-0.123-0.059-0.209-0.152-0.256-0.281l-0.555-1.094v3.631c0,0.148-0.051,0.273-0.154,0.375
		c-0.104,0.104-0.229,0.154-0.375,0.154s-0.271-0.051-0.373-0.154c-0.104-0.102-0.156-0.227-0.156-0.375v-5.832v-0.027V31.02v-0.009
		v-0.008c0-0.006,0.002-0.01,0.006-0.01c0.002,0,0.004-0.002,0.004-0.008v-0.01v-0.018c0-0.006,0.002-0.01,0.004-0.014
		c0.004-0.002,0.006-0.006,0.006-0.013c0.006-0.035,0.016-0.067,0.035-0.097c0-0.006,0-0.01,0.004-0.01
		c0.002,0,0.004-0.002,0.004-0.008l0.01-0.01l0.008-0.008c0-0.006,0.004-0.012,0.01-0.018v-0.01l0.018-0.018
		c0.012-0.012,0.021-0.023,0.031-0.035c0.008-0.012,0.018-0.023,0.029-0.035l0.018-0.018h0.01c0-0.005,0-0.008,0.004-0.008
		s0.006-0.004,0.006-0.01h0.008c0.006-0.006,0.012-0.009,0.018-0.009c0-0.005,0.004-0.009,0.008-0.009l0.01-0.008l0.018-0.01
		c0.006-0.006,0.012-0.008,0.018-0.008l0.01-0.01c0.004,0,0.012-0.003,0.016-0.008c0.006,0,0.012-0.002,0.014-0.006
		c0.004-0.002,0.008-0.004,0.014-0.004s0.01-0.002,0.014-0.004c0.004-0.003,0.006-0.005,0.014-0.005
		c0.004,0,0.012-0.003,0.018-0.009h0.008h0.018l0.008-0.009h0.01h0.018h0.01c0.004-0.005,0.012-0.009,0.018-0.009h0.008h0.027h0.025
		h0.025h0.02h0.01c0.004,0,0.01,0.004,0.016,0.009h0.018h0.01h0.018c0.023,0.012,0.045,0.02,0.061,0.022
		c0.018,0.002,0.037,0.01,0.055,0.021h0.008c0,0.006,0.006,0.01,0.018,0.01c0,0.005,0.004,0.008,0.01,0.008l0.008,0.01
		c0.006,0,0.012,0.002,0.018,0.008l0.018,0.018h0.01c0.029,0.018,0.053,0.041,0.07,0.07l0.018,0.018l0.018,0.018
		c0,0.007,0,0.01,0.004,0.01s0.006,0.002,0.006,0.008l0.008,0.01l0.008,0.008c0,0.006,0.004,0.012,0.01,0.018
		c0,0.006,0.002,0.011,0.004,0.014c0.004,0.004,0.004,0.008,0.004,0.014l1.111,2.176l1.109-2.176c0-0.012,0.004-0.021,0.01-0.027
		s0.01-0.012,0.01-0.018c0.006,0,0.008-0.002,0.008-0.008l0.008-0.01c0-0.006,0.004-0.011,0.01-0.018l0.018-0.018l0.018-0.018
		c0.018-0.029,0.041-0.053,0.07-0.07l0.018-0.018h0.01c0.006-0.006,0.01-0.008,0.016-0.008l0.01-0.01c0.006,0,0.01-0.003,0.01-0.008
		c0.012,0,0.016-0.004,0.016-0.01h0.01c0.012-0.012,0.027-0.02,0.045-0.021c0.018-0.003,0.031-0.008,0.045-0.014
		c0.01,0,0.02-0.002,0.025-0.009h0.018h0.008h0.018c0-0.005,0.004-0.009,0.01-0.009h0.018h0.018h0.025h0.027h0.025
		c0.014,0,0.021,0.004,0.027,0.009h0.018h0.018l0.01,0.009h0.016h0.01l0.018,0.009c0.006,0,0.012,0.002,0.014,0.005
		c0.002,0.002,0.008,0.004,0.014,0.004c0.004,0,0.012,0.003,0.018,0.01h0.008c0.008,0.005,0.012,0.008,0.02,0.008v0.01
		c0.01,0,0.02,0.002,0.025,0.008s0.012,0.01,0.018,0.01l0.01,0.008l0.008,0.009c0.006,0,0.012,0.003,0.018,0.009l0.018,0.018
		c0.012,0,0.018,0.006,0.018,0.018c0.029,0.018,0.053,0.041,0.07,0.07l0.018,0.018v0.01c0.006,0.006,0.008,0.012,0.008,0.018
		c0.008,0,0.01,0.002,0.01,0.008l0.01,0.01c0,0.006,0.002,0.012,0.008,0.018c0.012,0.029,0.023,0.062,0.035,0.097
		c0,0.012,0.004,0.021,0.01,0.026v0.018v0.01c0,0.006,0.002,0.012,0.008,0.018v0.008v0.009v0.026v0.027V36.906z"/>
	<path fill="#8C0000" d="M56.784,36.523c0.102,0.104,0.152,0.228,0.152,0.375c0,0.146-0.051,0.271-0.152,0.374
		c-0.104,0.103-0.229,0.155-0.377,0.155h-2.158c-0.146,0-0.271-0.053-0.375-0.155c-0.102-0.103-0.154-0.228-0.154-0.374v-5.834
		c0-0.146,0.053-0.271,0.154-0.374c0.104-0.103,0.229-0.155,0.375-0.155h2.158c0.148,0,0.273,0.053,0.377,0.155
		c0.102,0.103,0.152,0.228,0.152,0.374c0,0.153-0.051,0.279-0.152,0.379c-0.104,0.1-0.229,0.15-0.377,0.15h-1.629v2.221h1.127
		c0.146,0,0.271,0.051,0.375,0.154c0.104,0.103,0.154,0.227,0.154,0.375c0,0.146-0.051,0.271-0.154,0.373
		c-0.104,0.104-0.229,0.154-0.375,0.154h-1.127v1.498h1.629C56.555,36.368,56.68,36.421,56.784,36.523z"/>
	<path fill="#8C0000" d="M61.083,30.702c0.102,0.1,0.154,0.227,0.154,0.379c0,0.147-0.053,0.271-0.154,0.375
		c-0.102,0.103-0.229,0.154-0.375,0.154h-0.82v5.287c0,0.146-0.051,0.271-0.152,0.374c-0.104,0.103-0.229,0.155-0.375,0.155
		s-0.273-0.053-0.375-0.155s-0.154-0.228-0.154-0.374v-5.287h-0.836c-0.148,0-0.273-0.052-0.375-0.154
		c-0.104-0.104-0.154-0.228-0.154-0.375c0-0.152,0.051-0.279,0.154-0.379c0.102-0.1,0.227-0.149,0.375-0.149h2.713
		C60.854,30.553,60.981,30.603,61.083,30.702z"/>
	<path fill="#8C0000" d="M64.897,36.523c0.104,0.104,0.154,0.228,0.154,0.375c0,0.146-0.051,0.271-0.154,0.374
		c-0.102,0.103-0.227,0.155-0.375,0.155h-2.158c-0.146,0-0.271-0.053-0.375-0.155c-0.102-0.103-0.152-0.228-0.152-0.374v-5.834
		c0-0.146,0.051-0.271,0.152-0.374c0.104-0.103,0.229-0.155,0.375-0.155h2.158c0.148,0,0.273,0.053,0.375,0.155
		c0.104,0.103,0.154,0.228,0.154,0.374c0,0.153-0.051,0.279-0.154,0.379c-0.102,0.1-0.227,0.15-0.375,0.15h-1.629v2.221h1.127
		c0.148,0,0.271,0.051,0.375,0.154c0.104,0.103,0.154,0.227,0.154,0.375c0,0.146-0.051,0.271-0.154,0.373
		c-0.104,0.104-0.227,0.154-0.375,0.154h-1.127v1.498h1.629C64.67,36.368,64.795,36.421,64.897,36.523z"/>
	<path fill="#8C0000" d="M69.465,36.686c0.066,0.136,0.07,0.271,0.016,0.405c-0.057,0.135-0.152,0.232-0.287,0.291
		c-0.07,0.029-0.141,0.045-0.211,0.045c-0.102,0-0.195-0.029-0.283-0.084c-0.088-0.057-0.154-0.135-0.203-0.234l-0.979-2.238h-0.527
		v2.027c0,0.146-0.051,0.271-0.154,0.374s-0.227,0.155-0.375,0.155c-0.146,0-0.271-0.053-0.375-0.155
		c-0.102-0.103-0.152-0.228-0.152-0.374v-5.816c0-0.146,0.051-0.271,0.152-0.374c0.104-0.103,0.229-0.154,0.375-0.154h1.277
		c0.225,0,0.439,0.063,0.645,0.189s0.383,0.308,0.537,0.542c0.264,0.417,0.396,0.893,0.396,1.428c0,0.258-0.033,0.508-0.102,0.749
		s-0.166,0.464-0.295,0.669c-0.059,0.088-0.121,0.168-0.186,0.238s-0.129,0.135-0.193,0.193L69.465,36.686z M67.739,33.814
		c0.029,0,0.07-0.02,0.119-0.058c0.051-0.038,0.107-0.104,0.172-0.198c0.076-0.117,0.135-0.25,0.172-0.396s0.057-0.297,0.057-0.449
		s-0.02-0.305-0.057-0.455c-0.037-0.148-0.096-0.282-0.172-0.4c-0.064-0.088-0.121-0.15-0.172-0.189
		c-0.049-0.037-0.09-0.057-0.119-0.057h-0.748v2.203H67.739z"/>
	<path fill="#8C0000" d="M73.168,34.201c0.346,0.435,0.52,0.942,0.52,1.524c0,0.182-0.02,0.345-0.057,0.489
		c-0.041,0.144-0.086,0.271-0.143,0.383s-0.119,0.208-0.189,0.29c-0.07,0.083-0.141,0.153-0.211,0.213
		c-0.328,0.264-0.729,0.396-1.199,0.396c-0.229,0-0.443-0.033-0.643-0.098s-0.375-0.164-0.529-0.299
		c-0.064-0.054-0.131-0.121-0.197-0.203c-0.068-0.082-0.131-0.18-0.186-0.291s-0.102-0.24-0.137-0.388s-0.053-0.314-0.053-0.502
		c0-0.147,0.051-0.272,0.154-0.375c0.102-0.103,0.229-0.154,0.375-0.154c0.152,0,0.277,0.052,0.379,0.154
		c0.1,0.103,0.148,0.228,0.148,0.375c0,0.081,0.008,0.165,0.021,0.251c0.016,0.085,0.047,0.162,0.094,0.232
		c0.047,0.071,0.117,0.129,0.207,0.173c0.092,0.044,0.213,0.065,0.365,0.065c0.107,0,0.205-0.013,0.297-0.039
		c0.09-0.026,0.168-0.066,0.232-0.119c0.141-0.123,0.211-0.309,0.211-0.555c0-0.182-0.023-0.341-0.07-0.477
		c-0.047-0.135-0.115-0.26-0.207-0.373c-0.092-0.115-0.203-0.225-0.336-0.326c-0.131-0.104-0.279-0.213-0.443-0.332
		c-0.154-0.105-0.305-0.215-0.455-0.33c-0.148-0.115-0.289-0.245-0.418-0.393c-0.152-0.188-0.268-0.383-0.348-0.585
		c-0.08-0.203-0.119-0.425-0.119-0.666c0-0.035,0.002-0.1,0.004-0.193c0.004-0.094,0.018-0.203,0.045-0.325
		c0.027-0.125,0.07-0.254,0.133-0.389c0.061-0.135,0.15-0.264,0.268-0.388c0.1-0.112,0.25-0.22,0.449-0.325
		c0.201-0.106,0.459-0.16,0.775-0.16c0.324,0,0.58,0.055,0.771,0.164s0.336,0.219,0.436,0.33c0.111,0.135,0.197,0.277,0.252,0.428
		c0.057,0.15,0.092,0.287,0.109,0.414c0.018,0.126,0.025,0.236,0.018,0.33c-0.006,0.094-0.012,0.15-0.018,0.168
		c-0.018,0.105-0.053,0.193-0.105,0.264c-0.047,0.064-0.109,0.119-0.189,0.163c-0.078,0.044-0.188,0.052-0.32,0.022
		c-0.131-0.023-0.227-0.066-0.287-0.129c-0.061-0.061-0.104-0.125-0.123-0.193c-0.021-0.066-0.029-0.127-0.027-0.181
		c0.004-0.052,0.004-0.085,0.004-0.097c0.008-0.023,0.01-0.055,0.01-0.097s-0.004-0.085-0.014-0.132
		c-0.008-0.047-0.021-0.094-0.039-0.142c-0.018-0.047-0.041-0.089-0.07-0.123c-0.07-0.089-0.207-0.132-0.406-0.132
		c-0.158,0-0.27,0.02-0.33,0.061s-0.102,0.071-0.119,0.089c-0.041,0.042-0.072,0.089-0.092,0.142
		c-0.021,0.053-0.037,0.105-0.049,0.158s-0.02,0.098-0.021,0.137c-0.004,0.038-0.006,0.065-0.006,0.084v0.017v0.019
		c0,0.117,0.021,0.225,0.062,0.32c0.041,0.098,0.098,0.189,0.172,0.273c0.072,0.086,0.166,0.171,0.277,0.256
		s0.238,0.178,0.379,0.277c0.164,0.118,0.334,0.244,0.508,0.379C72.86,33.869,73.022,34.025,73.168,34.201z"/>
	<path fill="#8C0000" d="M25.665,46.247c0,0.035-0.002,0.104-0.006,0.203c-0.002,0.1-0.02,0.213-0.049,0.338
		c-0.029,0.127-0.074,0.262-0.137,0.406c-0.061,0.143-0.15,0.277-0.268,0.4c-0.105,0.111-0.256,0.221-0.449,0.326
		s-0.447,0.158-0.758,0.158c-0.316,0-0.57-0.053-0.758-0.158c-0.189-0.105-0.332-0.215-0.432-0.326
		c-0.119-0.129-0.209-0.268-0.273-0.414s-0.109-0.287-0.137-0.418c-0.027-0.133-0.039-0.25-0.039-0.354c0-0.102,0-0.174,0-0.215
		V42.82c0-0.359,0.059-0.646,0.176-0.859c0.117-0.215,0.238-0.381,0.361-0.498c0.301-0.282,0.664-0.423,1.092-0.423
		c0.201,0,0.4,0.035,0.6,0.106c0.199,0.07,0.379,0.178,0.537,0.324c0.16,0.147,0.289,0.332,0.389,0.557
		c0.1,0.223,0.15,0.487,0.15,0.793V46.247z M24.307,42.167c-0.053-0.029-0.107-0.049-0.162-0.058
		c-0.057-0.009-0.109-0.013-0.156-0.013c-0.041,0-0.094,0.007-0.158,0.021s-0.127,0.047-0.189,0.098
		c-0.061,0.05-0.115,0.121-0.158,0.215c-0.045,0.094-0.066,0.224-0.066,0.389v1.674L24.307,42.167z M24.43,46.872
		c0.076-0.082,0.127-0.186,0.15-0.312c0.021-0.127,0.031-0.216,0.025-0.27v-0.025v-1.922l-0.986,2.574
		c0.029,0.023,0.072,0.047,0.127,0.07c0.057,0.023,0.141,0.035,0.252,0.035c0.146,0,0.25-0.021,0.312-0.062
		S24.413,46.89,24.43,46.872z"/>
	<path fill="#8C0000" d="M26.696,46.775c0.146,0,0.27,0.053,0.373,0.155s0.154,0.228,0.154,0.374c0,0.153-0.051,0.281-0.154,0.384
		s-0.227,0.153-0.373,0.153c-0.154,0-0.281-0.051-0.385-0.153s-0.152-0.23-0.152-0.384c0-0.146,0.049-0.271,0.152-0.374
		S26.542,46.775,26.696,46.775z"/>
	<path fill="#8C0000" d="M31.278,46.325c0.004,0.029,0.004,0.057,0,0.08v0.045c-0.025,0.404-0.143,0.736-0.354,0.994
		c-0.26,0.33-0.627,0.532-1.102,0.609c-0.111,0.022-0.244,0.035-0.396,0.035h-0.043h-0.035c-0.125,0-0.248-0.01-0.371-0.027
		c-0.494-0.082-0.873-0.287-1.137-0.617c-0.236-0.305-0.354-0.705-0.354-1.197c0-0.869,0.207-1.514,0.617-1.93l0.018-0.018
		c-0.117-0.147-0.209-0.332-0.271-0.557c-0.031-0.122-0.055-0.261-0.07-0.413c-0.018-0.153-0.027-0.329-0.027-0.529v-0.069
		c0-0.06,0-0.137,0.004-0.23s0.018-0.196,0.045-0.308c0.025-0.111,0.064-0.226,0.113-0.345c0.051-0.117,0.123-0.229,0.217-0.334
		c0.1-0.111,0.246-0.222,0.439-0.33c0.195-0.109,0.453-0.164,0.777-0.164h0.035h0.043c0.322,0,0.58,0.055,0.771,0.164
		c0.191,0.108,0.336,0.219,0.436,0.33c0.094,0.105,0.168,0.217,0.221,0.334c0.053,0.119,0.092,0.233,0.119,0.345
		c0.025,0.111,0.041,0.214,0.043,0.308c0.004,0.094,0.006,0.171,0.006,0.23c0,0.035-0.004,0.059-0.01,0.069
		c0,0.2-0.008,0.376-0.021,0.529c-0.016,0.152-0.039,0.291-0.076,0.413c-0.064,0.225-0.152,0.409-0.264,0.557l0.018,0.018
		c0.406,0.41,0.609,1.055,0.609,1.93V46.325z M30.219,46.247c0-0.576-0.104-0.976-0.309-1.199c-0.117-0.117-0.293-0.193-0.527-0.229
		c-0.242,0.035-0.416,0.111-0.521,0.229c-0.211,0.224-0.316,0.623-0.316,1.199v0.035c0.006,0.023,0.018,0.076,0.035,0.158
		s0.055,0.168,0.113,0.256c0.113,0.182,0.273,0.291,0.484,0.326c0.031,0,0.062,0.001,0.098,0.004
		c0.035,0.004,0.072,0.005,0.107,0.005c0.041,0,0.08-0.001,0.119-0.005c0.037-0.003,0.07-0.008,0.1-0.014
		c0.217-0.035,0.383-0.144,0.494-0.325c0.041-0.071,0.07-0.14,0.088-0.208c0.018-0.066,0.029-0.115,0.035-0.145V46.247z
		 M28.809,42.845c0,0.159,0.008,0.289,0.021,0.389c0.016,0.1,0.031,0.179,0.045,0.237c0.014,0.06,0.029,0.102,0.045,0.128
		c0.014,0.026,0.025,0.043,0.029,0.049c0.037,0.029,0.096,0.049,0.178,0.057c0.082,0.009,0.166,0.017,0.256,0.022
		c0.094-0.006,0.182-0.014,0.264-0.022c0.082-0.008,0.139-0.027,0.168-0.057c0.004-0.006,0.018-0.022,0.033-0.049
		c0.018-0.026,0.035-0.072,0.049-0.137c0.016-0.064,0.029-0.151,0.041-0.26s0.018-0.248,0.018-0.418
		c0-0.013,0.002-0.021,0.008-0.027v-0.044h-0.008l0.008-0.009c-0.006-0.059-0.02-0.137-0.039-0.233
		c-0.021-0.097-0.062-0.178-0.127-0.243c-0.02-0.017-0.057-0.045-0.115-0.083s-0.158-0.06-0.299-0.065
		c-0.137,0.006-0.232,0.027-0.291,0.065c-0.061,0.038-0.098,0.066-0.115,0.083c-0.064,0.065-0.109,0.146-0.131,0.243
		c-0.025,0.097-0.037,0.175-0.037,0.233v0.009C28.815,42.761,28.815,42.805,28.809,42.845z"/>
	<path fill="#8C0000" d="M35.145,44.537c0.07,0.124,0.125,0.248,0.168,0.374c0.041,0.127,0.072,0.248,0.092,0.361
		c0.021,0.115,0.035,0.221,0.045,0.318c0.008,0.096,0.012,0.18,0.012,0.25c0,0.117-0.01,0.293-0.031,0.524
		c-0.02,0.232-0.09,0.472-0.215,0.718c-0.152,0.295-0.363,0.523-0.633,0.688c-0.295,0.183-0.662,0.273-1.104,0.273
		c-0.439,0-0.799-0.094-1.074-0.281c-0.252-0.177-0.42-0.418-0.504-0.723c-0.033-0.142-0.014-0.275,0.062-0.4
		c0.076-0.127,0.186-0.208,0.326-0.243c0.143-0.035,0.275-0.017,0.4,0.058c0.127,0.073,0.207,0.184,0.244,0.33
		c0.006,0.041,0.029,0.076,0.07,0.105c0.029,0.018,0.078,0.039,0.15,0.062c0.07,0.023,0.178,0.035,0.324,0.035
		c0.336,0,0.574-0.087,0.715-0.26c0.141-0.174,0.211-0.469,0.211-0.887c0-0.07-0.01-0.182-0.031-0.334
		c-0.021-0.153-0.07-0.306-0.154-0.459c-0.023-0.047-0.055-0.095-0.096-0.145c-0.041-0.051-0.094-0.098-0.16-0.142
		c-0.064-0.044-0.143-0.079-0.236-0.106c-0.094-0.025-0.209-0.039-0.344-0.039h-0.891c-0.146,0-0.27-0.05-0.371-0.15
		c-0.104-0.105-0.158-0.23-0.158-0.378v-2.493c0-0.147,0.053-0.271,0.154-0.375c0.104-0.104,0.229-0.154,0.375-0.154h1.992
		c0.146,0,0.271,0.051,0.375,0.154c0.102,0.104,0.152,0.228,0.152,0.375c0,0.146-0.051,0.271-0.152,0.373
		c-0.104,0.104-0.229,0.154-0.375,0.154h-1.463v1.437h0.361c0.428,0,0.799,0.097,1.109,0.291
		C34.77,44.021,34.987,44.249,35.145,44.537z"/>
	<path fill="#8C0000" d="M41.208,41.118c0.154,0,0.279,0.051,0.379,0.154s0.15,0.228,0.15,0.374v5.833
		c0,0.147-0.051,0.273-0.15,0.375c-0.1,0.104-0.225,0.154-0.379,0.154c-0.146,0-0.271-0.051-0.375-0.154
		c-0.102-0.102-0.154-0.228-0.154-0.375v-5.833c0-0.146,0.053-0.271,0.154-0.374C40.936,41.169,41.061,41.118,41.208,41.118z"/>
	<path fill="#8C0000" d="M45.797,41.118c0.148,0,0.273,0.051,0.375,0.154c0.104,0.104,0.154,0.228,0.154,0.374v5.825v0.035v0.026
		v0.009v0.018l-0.008,0.009v0.009v0.018v0.009c-0.006,0.006-0.01,0.013-0.01,0.019v0.008c0,0.006-0.002,0.01-0.004,0.01
		c-0.004,0-0.004,0.002-0.004,0.008s-0.002,0.01-0.006,0.014c-0.002,0.003-0.004,0.007-0.004,0.014c0,0.006-0.002,0.01-0.004,0.013
		s-0.004,0.007-0.004,0.013s-0.002,0.01-0.006,0.01c-0.002,0-0.004,0.002-0.004,0.008v0.009c-0.006,0-0.008,0.003-0.008,0.009
		l-0.01,0.01c0,0.006-0.002,0.011-0.008,0.018l-0.01,0.008v0.01c-0.006,0-0.008,0.002-0.008,0.008s-0.004,0.01-0.01,0.01
		c0,0.006-0.002,0.009-0.004,0.009c-0.004,0-0.004,0.003-0.004,0.009h-0.01c0,0.006-0.004,0.012-0.008,0.018l-0.02,0.018
		l-0.018,0.018l-0.018,0.018h-0.008l-0.018,0.018c-0.006,0.006-0.012,0.008-0.018,0.008c0,0.007-0.004,0.01-0.01,0.01l-0.008,0.008
		c-0.006,0-0.008,0.002-0.008,0.006c0,0.002-0.004,0.004-0.01,0.004h-0.008l-0.02,0.018c-0.023,0.012-0.043,0.021-0.061,0.027
		c-0.018,0.005-0.041,0.012-0.07,0.017c-0.025,0.006-0.059,0.009-0.107,0.009c-0.035,0-0.061-0.003-0.078-0.009h-0.018h-0.008
		c-0.006,0-0.01-0.003-0.01-0.009h-0.035v-0.008h-0.018c-0.023-0.014-0.039-0.019-0.043-0.019c-0.008,0-0.01-0.003-0.01-0.009h-0.01
		c-0.006,0-0.008-0.003-0.008-0.009c-0.006,0-0.012-0.003-0.018-0.009c-0.006,0-0.01-0.003-0.01-0.01h-0.008
		c-0.008,0-0.01,0-0.01-0.004c0-0.003-0.002-0.004-0.008-0.004c-0.066-0.047-0.119-0.103-0.16-0.168v-0.008
		c-0.006,0-0.01-0.004-0.01-0.01l-0.006-0.009v-0.009c-0.006-0.006-0.01-0.012-0.01-0.018s-0.004-0.012-0.008-0.018l-1.508-3.48
		v3.277c0,0.147-0.053,0.273-0.154,0.375c-0.104,0.104-0.229,0.154-0.375,0.154s-0.271-0.051-0.373-0.154
		c-0.104-0.102-0.156-0.228-0.156-0.375v-5.824V41.62v-0.025v-0.01v-0.018l0.01-0.008v-0.01v-0.018v-0.009
		c0.006-0.006,0.008-0.013,0.008-0.018v-0.009c0-0.006,0.002-0.009,0.006-0.009c0.002,0,0.004-0.003,0.004-0.009
		s0.002-0.01,0.006-0.014c0.002-0.002,0.004-0.007,0.004-0.013s0-0.011,0.004-0.013c0.002-0.004,0.004-0.008,0.004-0.014
		s0.002-0.01,0.004-0.01c0.004,0,0.006-0.002,0.006-0.008V41.4l0.018-0.018c0-0.005,0.002-0.008,0.004-0.008s0.004-0.004,0.004-0.01
		l0.008-0.009v-0.009c0.008-0.006,0.01-0.012,0.01-0.018h0.01c0-0.006,0-0.008,0.004-0.008c0.002,0,0.004-0.004,0.004-0.01h0.01
		c0-0.006,0.002-0.012,0.008-0.018l0.018-0.018v-0.008c0.008,0,0.012-0.004,0.018-0.01v-0.008c0.006,0,0.012-0.004,0.02-0.01h0.008
		l0.018-0.018l0.018-0.018h0.008c0-0.006,0.004-0.009,0.01-0.009s0.01-0.001,0.01-0.005c0-0.002,0.002-0.004,0.008-0.004h0.01
		l0.016-0.018c0.041-0.023,0.084-0.038,0.125-0.044h0.008c0.029-0.007,0.072-0.009,0.133-0.009h0.025h0.01l0.008,0.009h0.018h0.01
		h0.018c0,0.006,0.002,0.009,0.008,0.009h0.018h0.01c0,0.006,0.006,0.01,0.018,0.01c0.006,0.006,0.014,0.008,0.027,0.008
		c0.006,0.006,0.012,0.009,0.016,0.009h0.01c0,0.006,0.006,0.009,0.018,0.009v0.009c0.012,0,0.018,0.003,0.018,0.009h0.01
		c0.004,0,0.008,0.002,0.008,0.004c0,0.004,0.002,0.005,0.01,0.005l0.008,0.009l0.01,0.01l0.008,0.008h0.01
		c0.006,0.006,0.012,0.009,0.018,0.009v0.009c0.006,0,0.008,0.002,0.008,0.004c0,0.004,0.004,0.006,0.01,0.006v0.008
		c0.006,0,0.01,0.002,0.01,0.005s0.002,0.005,0.006,0.005v0.008l0.018,0.018l0.02,0.018l0.018,0.018
		c0,0.006,0.002,0.012,0.008,0.018c0.006,0,0.01,0.004,0.01,0.009c0,0.007,0.002,0.009,0.008,0.009c0,0.013,0.004,0.018,0.01,0.018
		v0.01c0.006,0.006,0.008,0.012,0.008,0.018h0.01c0,0.012,0,0.02,0.004,0.021c0.004,0.004,0.006,0.008,0.006,0.014l1.506,3.48
		v-3.278c0-0.146,0.051-0.271,0.154-0.374C45.526,41.169,45.651,41.118,45.797,41.118z"/>
	<path fill="#8C0000" d="M50.61,46.238c0,0.018-0.002,0.075-0.004,0.172c-0.004,0.098-0.02,0.212-0.045,0.344
		c-0.027,0.133-0.072,0.275-0.137,0.428s-0.158,0.294-0.281,0.423c-0.1,0.112-0.248,0.221-0.445,0.325
		c-0.197,0.106-0.451,0.16-0.762,0.16c-0.312,0-0.564-0.054-0.754-0.16c-0.191-0.104-0.336-0.213-0.436-0.325
		c-0.117-0.129-0.209-0.267-0.275-0.414c-0.064-0.147-0.109-0.286-0.135-0.419c-0.025-0.131-0.041-0.25-0.041-0.352
		c0-0.104,0-0.175,0-0.217V42.82c0-0.359,0.059-0.646,0.176-0.859c0.119-0.215,0.24-0.381,0.361-0.498
		c0.148-0.136,0.316-0.24,0.504-0.312c0.188-0.074,0.385-0.11,0.59-0.11c0.201,0,0.4,0.035,0.604,0.106
		c0.203,0.07,0.383,0.178,0.543,0.324c0.158,0.147,0.287,0.332,0.387,0.557c0.1,0.223,0.15,0.487,0.15,0.793
		c0,0.152-0.051,0.279-0.154,0.379s-0.229,0.149-0.375,0.149s-0.271-0.05-0.375-0.149c-0.102-0.1-0.154-0.227-0.154-0.379
		c0-0.158-0.021-0.285-0.066-0.379c-0.043-0.094-0.096-0.166-0.158-0.217c-0.061-0.05-0.129-0.084-0.201-0.102
		c-0.074-0.018-0.141-0.025-0.199-0.025c-0.041,0-0.094,0.007-0.158,0.021s-0.129,0.047-0.189,0.098
		c-0.062,0.05-0.113,0.121-0.158,0.215s-0.066,0.224-0.066,0.389v3.4v0.045c0,0.029,0,0.068,0,0.118s0.006,0.106,0.018,0.167
		c0.012,0.062,0.029,0.123,0.053,0.186s0.057,0.113,0.096,0.154c0.02,0.018,0.059,0.045,0.115,0.084
		c0.059,0.038,0.16,0.058,0.301,0.058c0.152,0,0.258-0.02,0.316-0.058c0.059-0.039,0.098-0.068,0.115-0.093
		c0.082-0.082,0.133-0.185,0.154-0.308c0.02-0.123,0.029-0.215,0.029-0.273c0-0.006,0-0.039,0-0.098s0.016-0.121,0.045-0.189
		c0.029-0.066,0.078-0.13,0.146-0.189c0.066-0.059,0.164-0.091,0.293-0.096c0.137-0.006,0.24,0.017,0.314,0.069
		c0.072,0.054,0.131,0.112,0.172,0.177C50.569,46.05,50.598,46.138,50.61,46.238z"/>
	<path fill="#8C0000" d="M54.522,41.118c0.146,0,0.271,0.051,0.375,0.154c0.102,0.104,0.154,0.228,0.154,0.374v5.833
		c0,0.147-0.053,0.273-0.154,0.375c-0.104,0.104-0.229,0.154-0.375,0.154s-0.271-0.051-0.375-0.154
		c-0.102-0.102-0.154-0.228-0.154-0.375v-2.025h-1.375v2.025c0,0.147-0.051,0.273-0.152,0.375c-0.104,0.104-0.229,0.154-0.375,0.154
		s-0.271-0.051-0.375-0.154c-0.104-0.102-0.154-0.228-0.154-0.375v-5.833c0-0.146,0.051-0.271,0.154-0.374s0.229-0.154,0.375-0.154
		s0.271,0.051,0.375,0.154c0.102,0.104,0.152,0.228,0.152,0.374v2.749h1.375v-2.749c0-0.146,0.053-0.271,0.154-0.374
		C54.25,41.169,54.375,41.118,54.522,41.118z"/>
	<path fill="#8C0000" d="M59.161,47.097c0.104,0.104,0.154,0.229,0.154,0.375s-0.051,0.271-0.154,0.374
		C59.059,47.948,58.934,48,58.788,48h-2.16c-0.146,0-0.271-0.052-0.373-0.154c-0.104-0.103-0.156-0.228-0.156-0.374v-5.834
		c0-0.146,0.053-0.271,0.156-0.374c0.102-0.103,0.227-0.154,0.373-0.154h2.16c0.146,0,0.271,0.052,0.373,0.154
		c0.104,0.103,0.154,0.228,0.154,0.374c0,0.153-0.051,0.279-0.154,0.379c-0.102,0.1-0.227,0.15-0.373,0.15h-1.631v2.22h1.127
		c0.148,0,0.273,0.052,0.375,0.155c0.104,0.104,0.154,0.227,0.154,0.374s-0.051,0.272-0.154,0.374
		c-0.102,0.104-0.227,0.154-0.375,0.154h-1.127v1.498h1.631C58.934,46.943,59.059,46.994,59.161,47.097z"/>
	<path fill="#8C0000" d="M63.104,44.775c0.348,0.436,0.52,0.943,0.52,1.525c0,0.182-0.018,0.344-0.057,0.488
		s-0.084,0.272-0.141,0.383c-0.057,0.112-0.119,0.209-0.189,0.291c-0.07,0.083-0.141,0.154-0.213,0.213
		c-0.328,0.264-0.727,0.396-1.197,0.396c-0.229,0-0.443-0.033-0.643-0.098c-0.201-0.064-0.377-0.164-0.529-0.299
		c-0.064-0.053-0.131-0.121-0.197-0.203c-0.068-0.082-0.131-0.18-0.186-0.291c-0.057-0.111-0.102-0.24-0.139-0.387
		c-0.033-0.148-0.051-0.314-0.051-0.504c0-0.146,0.051-0.271,0.154-0.373c0.104-0.104,0.227-0.155,0.375-0.155
		c0.152,0,0.277,0.052,0.379,0.155c0.1,0.102,0.148,0.227,0.148,0.373c0,0.083,0.008,0.166,0.023,0.252
		c0.014,0.085,0.045,0.162,0.092,0.232c0.047,0.071,0.115,0.129,0.207,0.172c0.092,0.045,0.213,0.066,0.365,0.066
		c0.105,0,0.205-0.013,0.295-0.039c0.092-0.027,0.17-0.066,0.234-0.119c0.141-0.123,0.211-0.309,0.211-0.555
		c0-0.182-0.023-0.342-0.07-0.477s-0.115-0.26-0.207-0.374s-0.203-0.224-0.336-0.325c-0.131-0.104-0.279-0.215-0.445-0.331
		c-0.15-0.106-0.303-0.216-0.453-0.331c-0.148-0.114-0.289-0.245-0.418-0.392c-0.152-0.188-0.268-0.384-0.348-0.587
		c-0.078-0.202-0.119-0.424-0.119-0.664c0-0.035,0.002-0.1,0.004-0.194c0.004-0.095,0.018-0.202,0.045-0.325
		c0.025-0.124,0.07-0.254,0.133-0.389c0.061-0.135,0.15-0.265,0.268-0.388c0.1-0.112,0.25-0.22,0.449-0.326
		c0.201-0.106,0.459-0.158,0.775-0.158c0.322,0,0.582,0.054,0.771,0.163c0.189,0.107,0.336,0.219,0.436,0.33
		c0.111,0.136,0.195,0.277,0.252,0.428c0.057,0.149,0.092,0.287,0.109,0.414s0.023,0.236,0.018,0.33s-0.012,0.15-0.018,0.168
		c-0.018,0.105-0.053,0.193-0.105,0.264c-0.047,0.064-0.109,0.119-0.189,0.164c-0.078,0.043-0.186,0.051-0.322,0.021
		c-0.129-0.023-0.225-0.066-0.285-0.128c-0.062-0.062-0.104-0.126-0.125-0.194c-0.02-0.067-0.027-0.127-0.025-0.18
		c0.004-0.053,0.004-0.086,0.004-0.098c0.006-0.023,0.01-0.057,0.01-0.097c0-0.041-0.006-0.085-0.014-0.133
		c-0.008-0.046-0.021-0.093-0.039-0.14c-0.018-0.048-0.041-0.09-0.072-0.125c-0.068-0.088-0.203-0.131-0.404-0.131
		c-0.158,0-0.268,0.02-0.33,0.061c-0.061,0.041-0.102,0.07-0.119,0.089c-0.041,0.042-0.072,0.088-0.092,0.142
		c-0.021,0.053-0.037,0.104-0.049,0.158c-0.012,0.053-0.02,0.099-0.021,0.137c-0.004,0.037-0.004,0.066-0.004,0.084v0.018v0.017
		c0,0.118,0.02,0.226,0.061,0.322s0.1,0.188,0.172,0.272c0.074,0.086,0.166,0.172,0.277,0.256c0.111,0.086,0.238,0.178,0.379,0.277
		c0.164,0.117,0.334,0.244,0.508,0.379C62.797,44.443,62.958,44.599,63.104,44.775z"/>
	<path fill="#8C0000" d="M29.153,53.659c0.072,0.072,0.109,0.159,0.109,0.262c0,0.102-0.037,0.189-0.109,0.26
		c-0.07,0.072-0.158,0.108-0.26,0.108h-0.135l0.068,0.116c0.053,0.086,0.064,0.178,0.039,0.277
		c-0.027,0.098-0.086,0.173-0.176,0.227c-0.057,0.033-0.119,0.049-0.184,0.049c-0.062,0-0.123-0.016-0.182-0.049
		s-0.105-0.078-0.137-0.135l-0.062-0.117l-0.068,0.117c-0.031,0.057-0.076,0.102-0.135,0.135c-0.057,0.033-0.117,0.049-0.184,0.049
		c-0.064,0-0.127-0.016-0.184-0.049c-0.09-0.054-0.148-0.129-0.176-0.225c-0.025-0.096-0.014-0.189,0.041-0.279l0.066-0.116h-0.135
		c-0.102,0-0.189-0.036-0.26-0.108c-0.072-0.07-0.109-0.158-0.109-0.26c0-0.103,0.037-0.189,0.109-0.262
		c0.07-0.071,0.158-0.107,0.26-0.107h0.129l-0.061-0.109c-0.055-0.091-0.066-0.186-0.041-0.283c0.027-0.098,0.082-0.172,0.17-0.221
		c0.09-0.053,0.184-0.066,0.283-0.04c0.098,0.026,0.17,0.085,0.219,0.175l0.068,0.109l0.068-0.109
		c0.047-0.09,0.123-0.148,0.221-0.175s0.191-0.016,0.281,0.033c0.086,0.054,0.143,0.13,0.17,0.228
		c0.025,0.098,0.016,0.19-0.033,0.276l-0.068,0.116h0.135C28.995,53.552,29.083,53.588,29.153,53.659z"/>
	<path fill="#8C0000" d="M29.893,52.747c0.107,0,0.195,0.037,0.266,0.107c0.068,0.072,0.104,0.16,0.104,0.262v4.064
		c0,0.102-0.035,0.189-0.104,0.262c-0.07,0.07-0.158,0.106-0.266,0.106c-0.102,0-0.188-0.036-0.262-0.106
		c-0.07-0.072-0.105-0.16-0.105-0.262v-4.064c0-0.102,0.035-0.189,0.105-0.262C29.706,52.784,29.792,52.747,29.893,52.747z"/>
	<path fill="#8C0000" d="M33.092,52.747c0.104,0,0.189,0.037,0.262,0.107c0.07,0.072,0.107,0.16,0.107,0.262v4.059v0.024v0.019
		v0.006v0.012l-0.006,0.006v0.007v0.013v0.006c-0.006,0.004-0.008,0.008-0.008,0.012v0.006c0,0.005,0,0.007-0.002,0.007
		s-0.004,0.003-0.004,0.006c0,0.005,0,0.007-0.004,0.009c0,0.003-0.002,0.006-0.002,0.01s0,0.008-0.002,0.01
		c-0.004,0.002-0.004,0.006-0.004,0.009c0,0.005,0,0.007-0.004,0.007c-0.002,0-0.002,0.002-0.002,0.006v0.006
		c-0.004,0-0.006,0.002-0.006,0.006l-0.006,0.006c0,0.005-0.004,0.009-0.008,0.013l-0.006,0.007v0.006
		c-0.004,0-0.006,0.002-0.006,0.006s-0.002,0.006-0.006,0.006c0,0.004-0.002,0.006-0.002,0.006c-0.004,0-0.004,0.002-0.004,0.008
		h-0.006c0,0.003-0.002,0.008-0.006,0.012l-0.014,0.012l-0.012,0.012l-0.012,0.013h-0.006l-0.014,0.013
		c-0.004,0.004-0.008,0.006-0.012,0.006c0,0.004-0.002,0.006-0.006,0.006l-0.006,0.006c-0.004,0-0.008,0.002-0.008,0.004
		s-0.002,0.002-0.006,0.002H33.27l-0.012,0.014c-0.016,0.008-0.031,0.014-0.043,0.018s-0.029,0.009-0.049,0.013
		c-0.018,0.004-0.041,0.006-0.074,0.006c-0.023,0-0.043-0.002-0.055-0.006h-0.012h-0.008c-0.004,0-0.006-0.003-0.006-0.007h-0.025
		v-0.006h-0.01c-0.018-0.008-0.027-0.012-0.031-0.012c-0.006,0-0.008-0.002-0.008-0.006h-0.006c-0.004,0-0.006-0.004-0.006-0.007
		c-0.004,0-0.008-0.002-0.012-0.007c-0.004,0-0.006-0.001-0.006-0.006h-0.006c-0.006,0-0.006,0-0.006-0.002
		s-0.004-0.004-0.008-0.004c-0.045-0.033-0.082-0.071-0.111-0.117v-0.006c-0.002,0-0.004-0.002-0.004-0.006l-0.006-0.006v-0.006
		c-0.006-0.004-0.008-0.008-0.008-0.013c0-0.003-0.002-0.009-0.006-0.013l-1.051-2.424v2.283c0,0.102-0.035,0.189-0.105,0.262
		c-0.072,0.07-0.16,0.106-0.262,0.106s-0.189-0.036-0.262-0.106c-0.072-0.072-0.107-0.16-0.107-0.262v-4.059v-0.023v-0.02v-0.006
		v-0.012l0.006-0.008v-0.006v-0.012v-0.006c0.006-0.004,0.008-0.008,0.008-0.012v-0.007c0-0.004,0.002-0.007,0.002-0.007
		c0.002,0,0.004-0.002,0.004-0.006s0-0.007,0.002-0.009c0.004-0.003,0.004-0.005,0.004-0.009s0-0.008,0.004-0.01
		c0.002-0.002,0.002-0.005,0.002-0.009c0-0.005,0.002-0.007,0.004-0.007c0,0,0.002-0.002,0.002-0.006v-0.006l0.014-0.013
		c0-0.003,0-0.006,0.004-0.006c0,0,0.002-0.003,0.002-0.006l0.006-0.007v-0.006c0.004-0.004,0.006-0.008,0.006-0.012h0.008
		c0-0.004,0-0.006,0.002-0.006s0.002-0.002,0.002-0.007h0.006c0-0.003,0.002-0.009,0.008-0.013l0.012-0.012v-0.006
		c0.004,0,0.008-0.003,0.012-0.006V52.84c0.004,0,0.008-0.002,0.014-0.007h0.004l0.014-0.012l0.012-0.012h0.006
		c0-0.004,0.002-0.006,0.008-0.006c0.002,0,0.004-0.002,0.004-0.004s0.004-0.003,0.008-0.003h0.006l0.012-0.013
		c0.029-0.016,0.059-0.025,0.086-0.03h0.006c0.021-0.004,0.051-0.007,0.092-0.007h0.02h0.006l0.006,0.007h0.014h0.004h0.014
		c0,0.005,0.002,0.007,0.006,0.007h0.012h0.008c0,0.004,0.004,0.006,0.012,0.006c0.004,0.004,0.01,0.006,0.018,0.006
		c0.004,0.004,0.01,0.006,0.012,0.006h0.008c0,0.004,0.004,0.006,0.012,0.006v0.006c0.008,0,0.012,0.003,0.012,0.007h0.008
		c0.002,0,0.004,0.001,0.004,0.003s0.004,0.004,0.006,0.004l0.008,0.006l0.006,0.006l0.006,0.006h0.008
		c0.002,0.004,0.006,0.006,0.012,0.006v0.006c0.004,0,0.006,0.002,0.006,0.004s0.002,0.003,0.006,0.003v0.007
		c0.004,0,0.006,0,0.006,0.002c0,0.003,0.002,0.004,0.006,0.004v0.006l0.012,0.012l0.014,0.013l0.012,0.013
		c0,0.004,0.002,0.008,0.006,0.012c0.004,0,0.006,0.002,0.006,0.006c0,0.005,0.002,0.007,0.008,0.007c0,0.009,0,0.012,0.004,0.012
		v0.007c0.006,0.004,0.008,0.008,0.008,0.012h0.006c0,0.008,0,0.014,0.002,0.016s0.004,0.005,0.004,0.01l1.051,2.424v-2.283
		c0-0.102,0.033-0.189,0.107-0.262C32.903,52.784,32.991,52.747,33.092,52.747z"/>
	<path fill="#8C0000" d="M39.084,53.042c0.086,0.082,0.17,0.197,0.252,0.348c0.082,0.149,0.123,0.349,0.123,0.599v2.321
		c0,0.249-0.041,0.448-0.123,0.598s-0.166,0.266-0.252,0.348c-0.217,0.195-0.473,0.294-0.768,0.294h-0.461H37.52
		c-0.104,0-0.189-0.036-0.262-0.106c-0.072-0.072-0.107-0.16-0.107-0.262v-4.064c0-0.102,0.035-0.189,0.107-0.262
		c0.072-0.07,0.158-0.107,0.262-0.107h0.336h0.461C38.612,52.747,38.868,52.847,39.084,53.042z M38.723,53.989
		c0-0.114-0.016-0.204-0.047-0.271c-0.031-0.065-0.066-0.115-0.111-0.15c-0.041-0.035-0.088-0.057-0.135-0.067
		s-0.084-0.015-0.113-0.015h-0.43v3.326h0.43c0.029,0,0.066-0.004,0.113-0.016c0.047-0.01,0.094-0.031,0.135-0.066
		c0.045-0.035,0.08-0.085,0.111-0.15s0.047-0.156,0.047-0.27V53.989z"/>
	<path fill="#8C0000" d="M40.528,52.747c0.105,0,0.193,0.037,0.264,0.107c0.068,0.072,0.104,0.16,0.104,0.262v4.064
		c0,0.102-0.035,0.189-0.104,0.262c-0.07,0.07-0.158,0.106-0.264,0.106c-0.104,0-0.189-0.036-0.262-0.106
		c-0.072-0.072-0.107-0.16-0.107-0.262v-4.064c0-0.102,0.035-0.189,0.107-0.262C40.338,52.784,40.424,52.747,40.528,52.747z"/>
	<path fill="#8C0000" d="M43.745,57.161c0.02,0.104,0.004,0.196-0.053,0.281c-0.055,0.083-0.133,0.135-0.236,0.156
		c-0.016,0.004-0.039,0.006-0.066,0.006c-0.086,0-0.164-0.028-0.23-0.084c-0.068-0.055-0.111-0.125-0.133-0.211l-0.129-0.627h-0.656
		l-0.129,0.627c-0.016,0.086-0.059,0.156-0.127,0.211c-0.066,0.056-0.145,0.084-0.229,0.084c-0.033,0-0.059-0.002-0.074-0.006
		c-0.104-0.021-0.182-0.073-0.236-0.156c-0.055-0.085-0.074-0.178-0.053-0.281l0.816-4.057v-0.006v-0.014
		c0-0.004,0-0.006,0.002-0.006c0.004,0,0.004-0.002,0.004-0.006v-0.006v-0.006c0.004-0.004,0.006-0.009,0.006-0.014
		c0-0.004,0.002-0.006,0.004-0.006s0.004-0.002,0.004-0.006v-0.006c0.012-0.033,0.029-0.062,0.055-0.086v-0.006
		c0.004,0,0.006-0.002,0.006-0.004s0.002-0.003,0.006-0.003v-0.006l0.006-0.006l0.006-0.007l0.006-0.006l0.008-0.006l0.006-0.006
		l0.012-0.006c0.025-0.025,0.053-0.043,0.086-0.057h0.006c0.006-0.004,0.008-0.006,0.014-0.006c0.02-0.008,0.039-0.014,0.055-0.015
		c0.016-0.003,0.035-0.005,0.055-0.009h0.006h0.012h0.014c0.021,0.004,0.039,0.006,0.055,0.009c0.018,0.001,0.035,0.007,0.057,0.015
		c0.004,0,0.008,0.002,0.012,0.006h0.006c0.033,0.014,0.061,0.031,0.086,0.057c0.004,0,0.008,0.002,0.012,0.006l0.006,0.006
		l0.006,0.006l0.008,0.006l0.006,0.007l0.006,0.006l0.006,0.006l0.006,0.007v0.006c0.023,0.023,0.043,0.053,0.055,0.086v0.006
		c0,0.004,0.002,0.006,0.004,0.006s0.004,0.002,0.004,0.006c0.008,0.025,0.012,0.044,0.012,0.057L43.745,57.161z M42.571,55.044
		l-0.184,0.902h0.363L42.571,55.044z"/>
	<path fill="#8C0000" d="M47.104,57.181c0,0.102-0.037,0.189-0.109,0.262c-0.07,0.07-0.158,0.106-0.26,0.106
		s-0.189-0.036-0.262-0.106c-0.07-0.072-0.107-0.16-0.107-0.262v-2.529l-0.387,0.761c-0.033,0.091-0.092,0.155-0.178,0.196
		c-0.049,0.025-0.1,0.037-0.154,0.037h-0.006h-0.006h-0.006h-0.006c-0.053,0-0.105-0.012-0.154-0.037
		c-0.086-0.041-0.145-0.105-0.178-0.196l-0.387-0.761v2.529c0,0.102-0.035,0.189-0.107,0.262c-0.072,0.07-0.158,0.106-0.262,0.106
		c-0.102,0-0.189-0.036-0.26-0.106c-0.072-0.072-0.107-0.16-0.107-0.262v-4.064v-0.018v-0.02v-0.006v-0.006
		c0-0.004,0-0.006,0.002-0.006s0.004-0.002,0.004-0.008v-0.006v-0.012c0-0.004,0-0.007,0.004-0.009
		c0.002-0.003,0.002-0.005,0.002-0.009c0.004-0.025,0.012-0.048,0.023-0.068c0-0.004,0.002-0.006,0.004-0.006
		s0.004-0.002,0.004-0.006l0.006-0.007l0.006-0.006c0-0.004,0.002-0.008,0.006-0.013v-0.006l0.014-0.012
		c0.008-0.008,0.016-0.016,0.02-0.025c0.008-0.008,0.014-0.016,0.021-0.023l0.014-0.014h0.006c0-0.004,0.002-0.006,0.002-0.006
		c0.004,0,0.004-0.002,0.004-0.006h0.006c0.004-0.004,0.008-0.006,0.012-0.006c0-0.004,0.004-0.006,0.008-0.006l0.006-0.006
		l0.012-0.007c0.004-0.004,0.01-0.007,0.012-0.007l0.008-0.006c0.004,0,0.008-0.002,0.01-0.006c0.006,0,0.01,0,0.01-0.004
		c0.004-0.001,0.006-0.002,0.01-0.002s0.008-0.002,0.01-0.004s0.006-0.002,0.01-0.002s0.008-0.002,0.012-0.006h0.006h0.014
		l0.006-0.007h0.006h0.012h0.006c0.004-0.004,0.008-0.007,0.012-0.007H44.5h0.018h0.018h0.02h0.012h0.006
		c0.004,0,0.008,0.003,0.012,0.007h0.014h0.006h0.012c0.018,0.009,0.031,0.013,0.043,0.015s0.025,0.008,0.037,0.016h0.006
		c0,0.004,0.004,0.006,0.012,0.006c0,0.004,0.004,0.007,0.008,0.007l0.006,0.007c0.004,0,0.008,0.002,0.014,0.006l0.01,0.012h0.008
		c0.02,0.012,0.037,0.028,0.049,0.049l0.012,0.013l0.012,0.013c0,0.004,0.002,0.006,0.004,0.006s0.002,0.002,0.002,0.006
		l0.008,0.006l0.006,0.007c0,0.003,0.002,0.009,0.006,0.012c0,0.005,0,0.007,0.004,0.009c0,0.003,0.002,0.006,0.002,0.01
		l0.773,1.517l0.773-1.517c0-0.008,0.002-0.014,0.006-0.019c0.004-0.003,0.008-0.009,0.008-0.012c0.002,0,0.006-0.002,0.006-0.007
		l0.006-0.006c0-0.004,0.002-0.008,0.006-0.012l0.012-0.013l0.014-0.013c0.012-0.021,0.027-0.037,0.049-0.049l0.012-0.012h0.006
		c0.004-0.004,0.008-0.006,0.014-0.006l0.006-0.007c0.004,0,0.004-0.003,0.004-0.007c0.01,0,0.014-0.002,0.014-0.006h0.006
		c0.008-0.008,0.02-0.014,0.031-0.016s0.021-0.004,0.029-0.008c0.01,0,0.016-0.002,0.02-0.007h0.012h0.006h0.012
		c0-0.004,0.004-0.007,0.008-0.007h0.012h0.012h0.02h0.02h0.018c0.008,0,0.014,0.003,0.018,0.007h0.014h0.012l0.006,0.007h0.012
		h0.006l0.014,0.006c0.002,0,0.006,0,0.008,0.002s0.006,0.004,0.01,0.004s0.008,0.002,0.012,0.006h0.008
		c0.004,0.004,0.008,0.006,0.012,0.006v0.006c0.008,0,0.014,0.003,0.018,0.007s0.008,0.007,0.014,0.007l0.004,0.006l0.008,0.006
		c0.004,0,0.008,0.002,0.012,0.006l0.012,0.012c0.008,0,0.014,0.005,0.014,0.014c0.02,0.012,0.035,0.027,0.049,0.049l0.012,0.012
		v0.006c0.004,0.005,0.006,0.009,0.006,0.013c0.004,0,0.006,0.003,0.006,0.006l0.006,0.007c0,0.004,0.002,0.008,0.006,0.012
		c0.01,0.021,0.018,0.043,0.025,0.068c0,0.008,0.002,0.014,0.006,0.018v0.012v0.006c0,0.006,0.002,0.01,0.008,0.014v0.006v0.006
		v0.02v0.018V57.181z"/>
	<path fill="#8C0000" d="M49.887,56.913c0.072,0.072,0.107,0.158,0.107,0.262c0,0.102-0.035,0.189-0.107,0.26
		c-0.072,0.072-0.158,0.108-0.262,0.108h-1.504c-0.102,0-0.189-0.036-0.262-0.108c-0.07-0.07-0.105-0.158-0.105-0.26v-4.064
		c0-0.103,0.035-0.189,0.105-0.262c0.072-0.07,0.16-0.107,0.262-0.107h1.504c0.104,0,0.189,0.037,0.262,0.107
		c0.072,0.072,0.107,0.159,0.107,0.262c0,0.106-0.035,0.193-0.107,0.264s-0.158,0.104-0.262,0.104h-1.135v1.547h0.785
		c0.102,0,0.189,0.036,0.262,0.107c0.07,0.072,0.107,0.159,0.107,0.261c0,0.104-0.037,0.189-0.107,0.262
		c-0.072,0.07-0.16,0.107-0.262,0.107h-0.785v1.043h1.135C49.729,56.806,49.815,56.843,49.887,56.913z"/>
	<path fill="#8C0000" d="M52.883,52.859c0.072,0.07,0.107,0.158,0.107,0.264c0,0.103-0.035,0.189-0.107,0.262
		c-0.072,0.07-0.158,0.107-0.26,0.107h-0.572v3.684c0,0.102-0.035,0.189-0.107,0.26c-0.072,0.072-0.158,0.108-0.262,0.108
		c-0.102,0-0.188-0.036-0.262-0.108c-0.07-0.07-0.105-0.158-0.105-0.26v-3.684h-0.584c-0.102,0-0.189-0.037-0.26-0.107
		c-0.072-0.072-0.107-0.159-0.107-0.262c0-0.105,0.035-0.193,0.107-0.264c0.07-0.07,0.158-0.104,0.26-0.104h1.893
		C52.725,52.754,52.811,52.788,52.883,52.859z"/>
	<path fill="#8C0000" d="M55.542,56.913c0.072,0.072,0.107,0.158,0.107,0.262c0,0.102-0.035,0.189-0.107,0.26
		c-0.072,0.072-0.158,0.108-0.262,0.108h-1.504c-0.102,0-0.189-0.036-0.26-0.108c-0.072-0.07-0.107-0.158-0.107-0.26v-4.064
		c0-0.103,0.035-0.189,0.107-0.262c0.07-0.07,0.158-0.107,0.26-0.107h1.504c0.104,0,0.189,0.037,0.262,0.107
		c0.072,0.072,0.107,0.159,0.107,0.262c0,0.106-0.035,0.193-0.107,0.264s-0.158,0.104-0.262,0.104h-1.135v1.547h0.785
		c0.102,0,0.189,0.036,0.262,0.107c0.072,0.072,0.107,0.159,0.107,0.261c0,0.104-0.035,0.189-0.107,0.262
		c-0.072,0.07-0.16,0.107-0.262,0.107h-0.785v1.043h1.135C55.383,56.806,55.469,56.843,55.542,56.913z"/>
	<path fill="#8C0000" d="M58.725,57.028c0.045,0.095,0.049,0.188,0.01,0.282s-0.105,0.162-0.199,0.203
		c-0.051,0.02-0.1,0.03-0.148,0.03c-0.068,0-0.135-0.02-0.197-0.058c-0.061-0.04-0.107-0.094-0.141-0.164l-0.682-1.559H57v1.412
		c0,0.102-0.037,0.189-0.107,0.26c-0.072,0.072-0.16,0.108-0.262,0.108s-0.189-0.036-0.262-0.108c-0.07-0.07-0.105-0.158-0.105-0.26
		v-4.053c0-0.103,0.035-0.189,0.105-0.261c0.072-0.071,0.16-0.107,0.262-0.107h0.891c0.156,0,0.305,0.044,0.447,0.132
		s0.27,0.214,0.375,0.377c0.184,0.291,0.277,0.623,0.277,0.995c0,0.181-0.023,0.354-0.072,0.522
		c-0.047,0.168-0.115,0.323-0.205,0.467c-0.041,0.061-0.084,0.116-0.129,0.165c-0.045,0.05-0.09,0.095-0.135,0.136L58.725,57.028z
		 M57.522,55.026c0.02,0,0.047-0.013,0.082-0.04c0.037-0.026,0.076-0.072,0.121-0.139c0.053-0.081,0.094-0.174,0.119-0.275
		s0.039-0.207,0.039-0.313s-0.014-0.212-0.039-0.315c-0.025-0.105-0.066-0.197-0.119-0.279c-0.045-0.062-0.084-0.105-0.121-0.133
		c-0.035-0.027-0.062-0.039-0.082-0.039H57v1.534H57.522z"/>
</g>
</svg>
