<?xml version="1.0" encoding="utf-8"?>
<!-- Generator: Adobe Illustrator 16.0.0, SVG Export Plug-In . SVG Version: 6.00 Build 0)  -->
<!DOCTYPE svg PUBLIC "-//W3C//DTD SVG 1.1//EN" "http://www.w3.org/Graphics/SVG/1.1/DTD/svg11.dtd">
<svg version="1.1" id="Layer_1" xmlns="http://www.w3.org/2000/svg" xmlns:xlink="http://www.w3.org/1999/xlink" x="0px" y="0px"
	 width="66.75px" height="94.417px" viewBox="30.596 28.623 66.75 94.417" enable-background="new 30.596 28.623 66.75 94.417"
	 xml:space="preserve">
<g id="Layer_1_1_">
</g>
<g id="Layer_5">
</g>
<g id="Layer_2">
</g>
<g id="neptune">
</g>
<g id="uranus">
</g>
<g id="saturn">
</g>
<g id="jupiter">
</g>
<g id="Layer_14">
</g>
<g id="mars">
</g>
<g id="venus">
</g>
<g id="mercury">
</g>
<g id="earth">
</g>
<g id="Layer_6">
</g>
<g>
	<path fill="#5F9305" d="M49.257,119.879c0.223,0.225,0.326,0.49,0.326,0.802c0,0.315-0.104,0.583-0.326,0.81
		c-0.234,0.217-0.5,0.327-0.806,0.327h-4.634c-0.305,0-0.583-0.11-0.805-0.327c-0.213-0.227-0.326-0.494-0.326-0.81v-12.509
		c0-0.309,0.113-0.575,0.326-0.803c0.222-0.218,0.5-0.326,0.805-0.326h4.634c0.306,0,0.57,0.108,0.806,0.326
		c0.223,0.228,0.326,0.494,0.326,0.803c0,0.33-0.104,0.6-0.326,0.818c-0.234,0.213-0.5,0.317-0.806,0.317h-3.499v4.765h2.419
		c0.315,0,0.575,0.105,0.803,0.328c0.219,0.219,0.328,0.489,0.328,0.805c0,0.312-0.108,0.582-0.328,0.805
		c-0.229,0.219-0.487,0.328-0.803,0.328h-2.419v3.211h3.499C48.757,119.549,49.023,119.659,49.257,119.879z"/>
	<path fill="#5F9305" d="M58.104,120.646c0.066,0.313,0.016,0.599-0.154,0.858c-0.167,0.261-0.42,0.42-0.732,0.482
		c-0.052,0.014-0.124,0.021-0.204,0.021c-0.268,0-0.503-0.09-0.714-0.258c-0.202-0.172-0.345-0.387-0.4-0.654l-0.403-1.928h-2.014
		l-0.405,1.928c-0.045,0.27-0.181,0.482-0.379,0.654c-0.211,0.168-0.453,0.258-0.716,0.258c-0.095,0-0.169-0.008-0.229-0.021
		c-0.311-0.062-0.553-0.223-0.727-0.482c-0.171-0.26-0.216-0.545-0.16-0.858l2.518-12.489v-0.021V108.1c0-0.014,0-0.02,0-0.02
		s0.017-0.004,0.017-0.019v-0.021v-0.018c0.009-0.011,0.02-0.025,0.02-0.043c0-0.01,0.003-0.016,0.003-0.016
		s0.014-0.006,0.014-0.014v-0.021c0.046-0.1,0.103-0.191,0.181-0.271v-0.014c0,0,0.009,0,0.009-0.008s0.013-0.008,0.013-0.008
		l0.006-0.021l0.017-0.021l0.034-0.021l0.009-0.019l0.019-0.018l0.018-0.02l0.046-0.018c0.069-0.076,0.155-0.131,0.253-0.172h0.027
		c0.011-0.01,0.016-0.016,0.016-0.016c0.083-0.028,0.134-0.043,0.188-0.051c0.051,0,0.104-0.019,0.169-0.027h0.017h0.046h0.036
		c0.053,0.01,0.115,0.027,0.159,0.027c0.061,0.008,0.118,0.021,0.173,0.051c0,0,0.031,0.006,0.043,0.016h0.024
		c0.093,0.041,0.182,0.096,0.26,0.172c0,0,0.026,0.004,0.031,0.018l0.026,0.02l0.01,0.018l0.021,0.019l0.018,0.021l0.028,0.021
		l0.021,0.021l0.008,0.016v0.014c0.076,0.08,0.135,0.172,0.185,0.271v0.021c0,0.008,0,0.014,0,0.014s0.011,0.006,0.011,0.016
		c0.021,0.08,0.032,0.139,0.032,0.174L58.104,120.646z M54.502,114.127l-0.567,2.774h1.107L54.502,114.127z"/>
	<path fill="#5F9305" d="M67.048,120.229c0.138,0.291,0.138,0.582,0.026,0.868c-0.126,0.292-0.328,0.499-0.618,0.627
		c-0.15,0.062-0.291,0.094-0.451,0.094c-0.22,0-0.417-0.063-0.608-0.179c-0.187-0.121-0.332-0.289-0.429-0.502l-2.102-4.799h-1.129
		v4.343c0,0.315-0.117,0.583-0.34,0.81c-0.22,0.217-0.493,0.327-0.794,0.327c-0.328,0-0.582-0.11-0.806-0.327
		c-0.228-0.227-0.332-0.494-0.332-0.81v-12.468c0-0.318,0.104-0.582,0.332-0.801c0.225-0.224,0.478-0.332,0.806-0.332h2.735
		c0.476,0,0.944,0.135,1.374,0.404c0.44,0.271,0.825,0.659,1.16,1.162c0.565,0.896,0.843,1.915,0.843,3.062
		c0,0.555-0.066,1.086-0.223,1.605c-0.141,0.516-0.354,0.993-0.62,1.434c-0.133,0.188-0.261,0.358-0.391,0.51
		c-0.152,0.15-0.283,0.295-0.422,0.42L67.048,120.229z M63.34,114.073c0.066,0,0.148-0.041,0.26-0.125
		c0.107-0.076,0.231-0.221,0.362-0.423c0.164-0.255,0.285-0.536,0.369-0.854c0.086-0.312,0.122-0.635,0.122-0.961
		c0-0.33-0.036-0.652-0.122-0.974c-0.084-0.319-0.205-0.604-0.369-0.862c-0.131-0.188-0.255-0.32-0.362-0.404
		c-0.111-0.08-0.193-0.121-0.26-0.121h-1.602v4.727h1.602V114.073z"/>
	<path fill="#5F9305" d="M75.739,107.399c0.223,0.217,0.334,0.484,0.334,0.814c0,0.313-0.111,0.578-0.334,0.795
		c-0.219,0.225-0.488,0.339-0.791,0.339h-1.766v11.333c0,0.314-0.115,0.582-0.326,0.811c-0.229,0.215-0.486,0.326-0.807,0.326
		c-0.314,0-0.588-0.111-0.805-0.326c-0.215-0.229-0.336-0.494-0.336-0.811v-11.332h-1.783c-0.316,0-0.588-0.114-0.801-0.338
		c-0.229-0.219-0.344-0.48-0.344-0.797c0-0.33,0.115-0.598,0.344-0.813c0.213-0.21,0.482-0.319,0.801-0.319h5.822
		C75.25,107.081,75.52,107.189,75.739,107.399z"/>
	<path fill="#5F9305" d="M83.705,107.062c0.32,0,0.574,0.106,0.803,0.327c0.217,0.221,0.332,0.49,0.332,0.807v12.506
		c0,0.316-0.113,0.58-0.332,0.805c-0.229,0.219-0.482,0.33-0.803,0.33c-0.309,0-0.578-0.111-0.807-0.33
		c-0.211-0.225-0.326-0.487-0.326-0.805v-4.344h-2.947v4.344c0,0.316-0.107,0.58-0.334,0.805c-0.209,0.219-0.482,0.33-0.791,0.33
		c-0.322,0-0.592-0.111-0.803-0.33c-0.23-0.225-0.346-0.487-0.346-0.805v-12.507c0-0.315,0.113-0.586,0.346-0.808
		c0.211-0.221,0.48-0.326,0.803-0.326c0.309,0,0.582,0.105,0.791,0.326c0.227,0.222,0.334,0.49,0.334,0.808v5.892h2.947v-5.892
		c0-0.315,0.115-0.586,0.326-0.808C83.127,107.168,83.397,107.062,83.705,107.062z"/>
</g>
<path fill="#EC4036" d="M96.456,65.849c0,17.994-14.587,32.591-32.592,32.591c-17.994,0-32.591-14.597-32.591-32.591
	c0-18,14.597-32.591,32.591-32.591C81.869,33.258,96.456,47.85,96.456,65.849z"/>
<path fill="#C30000" d="M59.215,48.79h-2.704l-2.098,2.361c0,0-0.291,2.417,0,4.67c0.296,2.254,2.335,8.421,2.335,8.421l2.742,3.422
	l4.374,2.277l7.523,1.587l7.665,0.457l8.337,2.707c0,0,3.159,1.577-0.897,7.214c-4.058,5.637-9.473,9.695-10.371,10.371
	c-0.903,0.676-9.468,3.381-9.468,3.381s-5.858,1.353-6.535,0.9c-0.676-0.451-6.312,0.093-6.312,0.093s4.701,2.319,13.509,1.788
	c8.807-0.531,14.443-5.603,14.443-5.603s4.607-2.554,8.78-8.265c4.18-5.711,4.888-10.887,4.888-10.887l-4.316-7.837l-5.41,0.772
	l-8.675,1.168h-1.58l-5.975-2.521l-3.941-7.292l-1.807-5.336l-2.14-2.658L59.215,48.79z"/>
<path fill="#C30000" d="M78.884,64.79c0,0,0.872-3.34,0.872-5.253c0-1.917-1.76-7.919-1.876-8.596
	c-0.11-0.676-4.036-4.013-4.374-4.24c-0.338-0.228-4.385-3.141-5.737-3.59c-1.353-0.449-7.883-1.675-9.8-0.888
	c-1.913,0.793-9.235,2.707-10.477,3.611c-1.241,0.903-6.425,1.691-7.101,2.706c-0.676,1.015-4.845,4.175-5.521,5.976
	c-0.677,1.802-2.816,5.188-2.816,6.43c0,1.236-1.938-2.385,5.283-13.987l7-5.767l7.888-3.402h6.989l10.482-0.93l6.873,4.375
	l6.424,8.106l1.131,7.942l-0.454,4.789l-1.574,2.718H78.884z"/>
<path fill="#A60000" d="M68.159,33.538c11.645,0.774,20.583,9.821,25.248,18.539c4.665,8.717,2.42,20.155,2.42,20.155l-1.3,4.684
	c0,0,0.105-2.084-0.597-3.238c-0.798-1.303-2.705-2.367-2.705-2.367l-2.705-1.195L83.56,67.79h-4.284l-7,0.633l-4.116-0.19
	l-2.409-0.827l-2.704-2.198l-1.126-4.283l-2.028-8.331c0,0-2.029-5.857,4.955-3.38c6.99,2.483,5.859,14.877,5.859,14.877
	s6.086,1.354,7.893,1.127c1.802-0.227,3.376-2.031,3.376-2.031s0.438-6.773,0.438-8.575c0-1.801-5.875-9.483-7.228-11.062
	s-8.601-3.891-8.601-3.891l-8.188-0.272c0,0-10.847,1.437-12.875,3.635l-8.517,4.361c0,0,4.597-5.951,8.442-8.424
	c0,0,3.941-3.085,10.672-4.773S68.159,33.538,68.159,33.538z"/>
<path fill="#3F510F" d="M57.525,55.362l-2.536-1.184l-10.819-7.607c0,0-9.975,2.536-9.806,1.521
	c0.169-1.015,10.989-3.55,10.989-3.55s10.703,6.316,11.496,6.762c0.951,0.534,4.058-1.184,4.058-1.184
	c-4.227-19.61,3.719-20.456,3.719-20.456c-4.058,1.691-0.845,22.485,0.222,19.553c1.073-2.932,17.698-7.888,14.824-6.873
	c-2.874,1.014-12.679,10.481-12.679,10.481l15.722,9.298c0,0-20.117-6.593-17.243-4.903s6.086,13.863,6.086,13.863
	c-1.717-4.356-10.82-13.187-12.342-10.312c0,0-6.535,8.686-9.578,10.545C49.637,71.317,57.356,56.931,57.525,55.362"/>
<path fill="#5F9305" d="M44.169,46.571"/>
<path fill="#5F9305" d="M57.525,55.362l-0.349,1.035c0,0-5.911-3.648-7.005-4.459c-0.84-0.623-4.269-3.296-4.269-3.296l-1.479-1.31
	l-0.381-0.38l-5.705,0.932l5.832-1.312L57.525,55.362z"/>
<path fill="#5F9305" d="M60.906,50.121l0.903-0.282c0,0-3.249-14.138-0.074-18.171C61.736,31.667,57.577,35.358,60.906,50.121z"/>
<path fill="#5F9305" d="M66.749,49.622c0,0,11.992-7.7,12.922-7.277c0,0-5.082,2.779-12.679,10.481l-0.846,1.3l16.161,7.866
	c0,0-15.839-5.204-16.764-5.029c-0.919,0.174-1.77-3.125-1.77-3.125L66.749,49.622z"/>
<path fill="#5F9305" d="M60.906,52.319c0,0-0.228,2.198,2.478,1.746c1.759-0.293,9.863-16.454,9.863-16.454l5.579-4.733
	l-1.506-1.691l-5.595,4.058L60.906,52.319z"/>
<path fill="#3F510F" d="M73.247,37.611c0,0-4.691,10.556-9.552,16.515c0,0-0.507,0.005-0.634,0s9.979-17.022,9.979-17.022
	l5.785-4.227L73.247,37.611z"/>
<path fill="#5F9305" d="M49.696,71.201c0,0,9.409-12.061,9.409-13.02s0.513,2.084,0.513,2.084S51.956,70.189,49.696,71.201z"/>
</svg>
