<?xml version="1.0" encoding="utf-8"?>
<!-- Generator: Adobe Illustrator 16.0.0, SVG Export Plug-In . SVG Version: 6.00 Build 0)  -->
<!DOCTYPE svg PUBLIC "-//W3C//DTD SVG 1.1//EN" "http://www.w3.org/Graphics/SVG/1.1/DTD/svg11.dtd">
<svg version="1.1" id="Layer_1" xmlns="http://www.w3.org/2000/svg" xmlns:xlink="http://www.w3.org/1999/xlink" x="0px" y="0px"
	 width="66.75px" height="94.417px" viewBox="30.596 28.623 66.75 94.417" enable-background="new 30.596 28.623 66.75 94.417"
	 xml:space="preserve">
<g id="Layer_1_1_">
</g>
<g id="Layer_5">
</g>
<g id="Layer_2">
</g>
<g id="neptune">
</g>
<g id="uranus">
</g>
<g id="saturn">
</g>
<g id="jupiter">
</g>
<g id="Layer_14">
</g>
<g id="mars">
</g>
<g id="venus">
</g>
<g id="mercury">
</g>
<g id="earth">
</g>
<g id="Layer_6">
</g>
<g>
	<path fill="#5F9305" d="M49.257,119.879c0.223,0.225,0.326,0.49,0.326,0.802c0,0.315-0.104,0.583-0.326,0.81
		c-0.234,0.217-0.5,0.327-0.806,0.327h-4.634c-0.305,0-0.583-0.11-0.805-0.327c-0.213-0.227-0.326-0.494-0.326-0.81v-12.509
		c0-0.309,0.113-0.575,0.326-0.803c0.222-0.218,0.5-0.326,0.805-0.326h4.634c0.306,0,0.57,0.108,0.806,0.326
		c0.223,0.228,0.326,0.494,0.326,0.803c0,0.33-0.104,0.6-0.326,0.818c-0.234,0.213-0.5,0.317-0.806,0.317h-3.499v4.765h2.419
		c0.315,0,0.575,0.105,0.803,0.328c0.219,0.219,0.328,0.489,0.328,0.805c0,0.312-0.108,0.582-0.328,0.805
		c-0.229,0.219-0.487,0.328-0.803,0.328h-2.419v3.211h3.499C48.757,119.549,49.023,119.659,49.257,119.879z"/>
	<path fill="#5F9305" d="M58.104,120.646c0.066,0.313,0.016,0.599-0.154,0.858c-0.167,0.261-0.42,0.42-0.732,0.482
		c-0.052,0.014-0.124,0.021-0.204,0.021c-0.268,0-0.503-0.09-0.714-0.258c-0.202-0.172-0.345-0.387-0.4-0.654l-0.403-1.928h-2.014
		l-0.405,1.928c-0.045,0.27-0.181,0.482-0.379,0.654c-0.211,0.168-0.453,0.258-0.716,0.258c-0.095,0-0.169-0.008-0.229-0.021
		c-0.311-0.062-0.553-0.223-0.727-0.482c-0.171-0.26-0.216-0.545-0.16-0.858l2.518-12.489v-0.021V108.1c0-0.014,0-0.02,0-0.02
		s0.017-0.004,0.017-0.019v-0.021v-0.018c0.009-0.011,0.02-0.025,0.02-0.043c0-0.01,0.003-0.016,0.003-0.016
		s0.014-0.006,0.014-0.014v-0.021c0.046-0.1,0.103-0.191,0.181-0.271v-0.014c0,0,0.009,0,0.009-0.008s0.013-0.008,0.013-0.008
		l0.006-0.021l0.017-0.021l0.034-0.021l0.009-0.019l0.019-0.018l0.018-0.02l0.046-0.018c0.069-0.076,0.155-0.131,0.253-0.172h0.027
		c0.011-0.01,0.016-0.016,0.016-0.016c0.083-0.028,0.134-0.043,0.188-0.051c0.051,0,0.104-0.019,0.169-0.027h0.017h0.046h0.036
		c0.053,0.01,0.115,0.027,0.159,0.027c0.061,0.008,0.118,0.021,0.173,0.051c0,0,0.031,0.006,0.043,0.016h0.024
		c0.093,0.041,0.182,0.096,0.26,0.172c0,0,0.026,0.004,0.031,0.018l0.026,0.02l0.01,0.018l0.021,0.019l0.018,0.021l0.028,0.021
		l0.021,0.021l0.008,0.016v0.014c0.076,0.08,0.135,0.172,0.185,0.271v0.021c0,0.008,0,0.014,0,0.014s0.011,0.006,0.011,0.016
		c0.021,0.08,0.032,0.139,0.032,0.174L58.104,120.646z M54.502,114.127l-0.567,2.774h1.107L54.502,114.127z"/>
	<path fill="#5F9305" d="M67.048,120.229c0.138,0.291,0.138,0.582,0.026,0.868c-0.126,0.292-0.328,0.499-0.618,0.627
		c-0.15,0.062-0.291,0.094-0.451,0.094c-0.22,0-0.417-0.063-0.608-0.179c-0.187-0.121-0.332-0.289-0.429-0.502l-2.102-4.799h-1.129
		v4.343c0,0.315-0.117,0.583-0.34,0.81c-0.22,0.217-0.493,0.327-0.794,0.327c-0.328,0-0.582-0.11-0.806-0.327
		c-0.228-0.227-0.332-0.494-0.332-0.81v-12.468c0-0.318,0.104-0.582,0.332-0.801c0.225-0.224,0.478-0.332,0.806-0.332h2.735
		c0.476,0,0.944,0.135,1.374,0.404c0.44,0.271,0.825,0.659,1.16,1.162c0.565,0.896,0.843,1.915,0.843,3.062
		c0,0.555-0.066,1.086-0.223,1.605c-0.141,0.516-0.354,0.993-0.62,1.434c-0.133,0.188-0.261,0.358-0.391,0.51
		c-0.152,0.15-0.283,0.295-0.422,0.42L67.048,120.229z M63.34,114.073c0.066,0,0.148-0.041,0.26-0.125
		c0.107-0.076,0.231-0.221,0.362-0.423c0.164-0.255,0.285-0.536,0.369-0.854c0.086-0.312,0.122-0.635,0.122-0.961
		c0-0.33-0.036-0.652-0.122-0.974c-0.084-0.319-0.205-0.604-0.369-0.862c-0.131-0.188-0.255-0.32-0.362-0.404
		c-0.111-0.08-0.193-0.121-0.26-0.121h-1.602v4.727h1.602V114.073z"/>
	<path fill="#5F9305" d="M75.739,107.399c0.223,0.217,0.334,0.484,0.334,0.814c0,0.313-0.111,0.578-0.334,0.795
		c-0.219,0.225-0.488,0.339-0.791,0.339h-1.766v11.333c0,0.314-0.115,0.582-0.326,0.811c-0.229,0.215-0.486,0.326-0.807,0.326
		c-0.314,0-0.588-0.111-0.805-0.326c-0.215-0.229-0.336-0.494-0.336-0.811v-11.332h-1.783c-0.316,0-0.588-0.114-0.801-0.338
		c-0.229-0.219-0.344-0.48-0.344-0.797c0-0.33,0.115-0.598,0.344-0.813c0.213-0.21,0.482-0.319,0.801-0.319h5.822
		C75.25,107.081,75.52,107.189,75.739,107.399z"/>
	<path fill="#5F9305" d="M83.705,107.062c0.32,0,0.574,0.106,0.803,0.327c0.217,0.221,0.332,0.49,0.332,0.807v12.506
		c0,0.316-0.113,0.58-0.332,0.805c-0.229,0.219-0.482,0.33-0.803,0.33c-0.309,0-0.578-0.111-0.807-0.33
		c-0.211-0.225-0.326-0.487-0.326-0.805v-4.344h-2.947v4.344c0,0.316-0.107,0.58-0.334,0.805c-0.209,0.219-0.482,0.33-0.791,0.33
		c-0.322,0-0.592-0.111-0.803-0.33c-0.23-0.225-0.346-0.487-0.346-0.805v-12.507c0-0.315,0.113-0.586,0.346-0.808
		c0.211-0.221,0.48-0.326,0.803-0.326c0.309,0,0.582,0.105,0.791,0.326c0.227,0.222,0.334,0.49,0.334,0.808v5.892h2.947v-5.892
		c0-0.315,0.115-0.586,0.326-0.808C83.127,107.168,83.397,107.062,83.705,107.062z"/>
</g>
<path fill="#A60000" d="M96.456,65.849c0,17.994-14.587,32.591-32.592,32.591c-17.994,0-32.591-14.597-32.591-32.591
	c0-18,14.597-32.591,32.591-32.591C81.869,33.258,96.456,47.85,96.456,65.849z"/>
<g>
	<path fill="#5F9305" d="M39.66,62.231c0.129,0,0.238,0.045,0.328,0.136c0.092,0.09,0.137,0.2,0.137,0.329
		c0,0.145-0.012,0.289-0.034,0.433c-0.024,0.145-0.08,0.276-0.167,0.395c-0.104,0.145-0.24,0.248-0.409,0.31
		c-0.141,0.051-0.311,0.077-0.513,0.077h-1.524c-0.129,0-0.238-0.045-0.33-0.136c-0.09-0.09-0.135-0.2-0.135-0.329
		c0-0.268,0.038-0.52,0.113-0.755c0.074-0.235,0.171-0.458,0.29-0.669c0.118-0.211,0.251-0.413,0.394-0.604
		c0.146-0.191,0.289-0.375,0.434-0.55c0.114-0.139,0.223-0.275,0.326-0.41c0.103-0.134,0.196-0.267,0.278-0.399
		c0.082-0.131,0.147-0.262,0.197-0.39c0.049-0.129,0.073-0.259,0.073-0.388v-0.031c0.006-0.042-0.001-0.111-0.02-0.209
		c-0.018-0.098-0.059-0.183-0.12-0.256c-0.015-0.015-0.052-0.04-0.107-0.074c-0.058-0.033-0.152-0.05-0.286-0.05
		c-0.181,0-0.303,0.037-0.364,0.109c-0.058,0.067-0.089,0.151-0.097,0.251c-0.008,0.101-0.01,0.162-0.004,0.182
		c0.021,0.129-0.008,0.245-0.086,0.349c-0.078,0.103-0.181,0.162-0.31,0.178c-0.128,0.021-0.243-0.007-0.345-0.085
		c-0.1-0.078-0.16-0.181-0.182-0.31c0-0.015-0.002-0.064-0.007-0.147c-0.006-0.082,0-0.179,0.015-0.291
		c0.016-0.111,0.045-0.231,0.09-0.36c0.044-0.129,0.116-0.253,0.22-0.372c0.089-0.103,0.218-0.201,0.387-0.294
		c0.171-0.092,0.398-0.139,0.683-0.139c0.277,0,0.504,0.045,0.677,0.136c0.173,0.09,0.303,0.184,0.391,0.282
		c0.098,0.108,0.175,0.223,0.232,0.344c0.056,0.122,0.097,0.235,0.12,0.341c0.023,0.105,0.037,0.2,0.039,0.282
		c0.002,0.082,0.004,0.14,0.004,0.169c0,0.212-0.031,0.414-0.093,0.604c-0.062,0.191-0.146,0.375-0.248,0.554
		c-0.103,0.178-0.22,0.351-0.349,0.519c-0.129,0.168-0.261,0.332-0.395,0.492c-0.207,0.253-0.398,0.502-0.576,0.747
		c-0.178,0.245-0.304,0.505-0.376,0.778h0.99c0.047,0,0.085-0.001,0.112-0.004c0.029-0.002,0.051-0.007,0.065-0.012
		c0.006-0.021,0.01-0.05,0.013-0.089c0.002-0.039,0.004-0.1,0.004-0.182c0-0.129,0.045-0.239,0.135-0.329
		C39.421,62.277,39.531,62.231,39.66,62.231z"/>
	<path fill="#5F9305" d="M41.023,62.766c0.129,0,0.239,0.045,0.33,0.136c0.09,0.09,0.135,0.2,0.135,0.329
		c0,0.134-0.045,0.246-0.135,0.336c-0.091,0.09-0.201,0.135-0.33,0.135c-0.135,0-0.246-0.045-0.337-0.135s-0.136-0.202-0.136-0.336
		c0-0.128,0.045-0.239,0.136-0.329C40.777,62.811,40.888,62.766,41.023,62.766z"/>
	<path fill="#5F9305" d="M44.529,62.231c0.129,0,0.239,0.045,0.329,0.136c0.091,0.09,0.136,0.2,0.136,0.329
		c0,0.145-0.012,0.289-0.033,0.433c-0.023,0.145-0.08,0.276-0.168,0.395c-0.104,0.145-0.24,0.248-0.41,0.31
		c-0.14,0.051-0.31,0.077-0.511,0.077h-1.524c-0.13,0-0.24-0.045-0.33-0.136c-0.09-0.09-0.135-0.2-0.135-0.329
		c0-0.268,0.037-0.52,0.112-0.755c0.074-0.235,0.171-0.458,0.29-0.669c0.118-0.211,0.25-0.413,0.396-0.604
		c0.144-0.191,0.288-0.375,0.433-0.55c0.113-0.139,0.223-0.275,0.325-0.41c0.103-0.134,0.196-0.267,0.279-0.399
		c0.082-0.131,0.148-0.262,0.197-0.39c0.049-0.129,0.073-0.259,0.073-0.388v-0.031c0.006-0.042-0.001-0.111-0.02-0.209
		c-0.018-0.098-0.059-0.183-0.12-0.256c-0.015-0.015-0.052-0.04-0.108-0.074c-0.057-0.033-0.152-0.05-0.286-0.05
		c-0.181,0-0.302,0.037-0.364,0.109c-0.057,0.067-0.09,0.151-0.097,0.251c-0.008,0.101-0.01,0.162-0.003,0.182
		c0.02,0.129-0.009,0.245-0.086,0.349c-0.078,0.103-0.181,0.162-0.311,0.178c-0.129,0.021-0.242-0.007-0.344-0.085
		c-0.101-0.078-0.16-0.181-0.182-0.31c0-0.015-0.002-0.064-0.008-0.147c-0.006-0.082,0-0.179,0.016-0.291
		c0.016-0.111,0.045-0.231,0.09-0.36c0.043-0.129,0.117-0.253,0.22-0.372c0.088-0.103,0.217-0.201,0.388-0.294
		c0.17-0.092,0.397-0.139,0.681-0.139c0.278,0,0.505,0.045,0.678,0.136c0.172,0.09,0.303,0.184,0.391,0.282
		c0.097,0.108,0.175,0.223,0.231,0.344c0.058,0.122,0.098,0.235,0.12,0.341c0.024,0.105,0.036,0.2,0.04,0.282
		c0.002,0.082,0.002,0.14,0.002,0.169c0,0.212-0.03,0.414-0.092,0.604c-0.062,0.191-0.145,0.375-0.248,0.554
		c-0.103,0.178-0.22,0.351-0.348,0.519c-0.129,0.168-0.262,0.332-0.395,0.492c-0.207,0.253-0.399,0.502-0.578,0.747
		c-0.178,0.245-0.303,0.505-0.374,0.778h0.99c0.047,0,0.083-0.001,0.112-0.004s0.051-0.007,0.066-0.012
		c0.004-0.021,0.008-0.05,0.011-0.089c0.002-0.039,0.004-0.1,0.004-0.182c0-0.129,0.045-0.239,0.135-0.329
		C44.29,62.277,44.401,62.231,44.529,62.231z"/>
	<path fill="#5F9305" d="M48.716,62.371c0.006,0.026,0.006,0.049,0,0.069v0.039c-0.02,0.356-0.123,0.647-0.309,0.874
		c-0.228,0.29-0.55,0.467-0.968,0.535c-0.099,0.021-0.214,0.031-0.348,0.031h-0.04h-0.03c-0.108,0-0.216-0.008-0.325-0.023
		c-0.434-0.072-0.767-0.252-0.998-0.542c-0.207-0.268-0.311-0.619-0.311-1.052c0-0.763,0.181-1.329,0.542-1.695l0.017-0.015
		c-0.104-0.129-0.184-0.291-0.242-0.488c-0.023-0.108-0.045-0.23-0.061-0.364c-0.016-0.134-0.023-0.289-0.023-0.464v-0.062
		c0-0.051,0.001-0.119,0.004-0.201s0.016-0.173,0.039-0.271c0.022-0.098,0.057-0.199,0.101-0.302
		c0.044-0.103,0.106-0.201,0.189-0.294c0.087-0.098,0.217-0.195,0.387-0.29c0.171-0.096,0.397-0.144,0.682-0.144h0.03h0.04
		c0.282,0,0.509,0.048,0.677,0.144c0.167,0.095,0.295,0.192,0.383,0.29c0.083,0.093,0.146,0.191,0.193,0.294
		c0.046,0.104,0.082,0.205,0.104,0.302c0.024,0.098,0.037,0.188,0.041,0.271c0.002,0.083,0.004,0.15,0.004,0.201
		c0,0.031-0.004,0.052-0.009,0.062c0,0.175-0.007,0.33-0.019,0.464c-0.014,0.134-0.036,0.255-0.066,0.364
		c-0.058,0.197-0.135,0.358-0.232,0.488l0.015,0.015c0.356,0.361,0.534,0.927,0.534,1.695V62.371z M47.788,62.301
		c0-0.505-0.091-0.856-0.271-1.053c-0.104-0.103-0.259-0.17-0.465-0.202c-0.211,0.031-0.363,0.099-0.455,0.202
		c-0.187,0.196-0.279,0.547-0.279,1.053v0.031c0.005,0.02,0.016,0.066,0.031,0.139c0.015,0.072,0.049,0.147,0.1,0.225
		c0.099,0.159,0.24,0.255,0.426,0.286c0.026,0,0.055,0.001,0.086,0.004c0.03,0.002,0.062,0.004,0.092,0.004
		c0.036,0,0.071-0.002,0.105-0.004c0.033-0.002,0.062-0.007,0.089-0.012c0.19-0.031,0.336-0.126,0.433-0.286
		c0.036-0.062,0.062-0.123,0.078-0.182c0.016-0.06,0.025-0.103,0.031-0.128V62.301z M46.55,59.313c0,0.14,0.006,0.253,0.019,0.341
		c0.013,0.088,0.026,0.158,0.038,0.209c0.014,0.052,0.026,0.089,0.039,0.112c0.014,0.023,0.021,0.038,0.027,0.043
		c0.031,0.026,0.082,0.042,0.155,0.05c0.072,0.008,0.147,0.015,0.224,0.019c0.083-0.004,0.16-0.011,0.232-0.019
		c0.072-0.008,0.121-0.024,0.148-0.05c0.004-0.005,0.015-0.02,0.029-0.043c0.016-0.022,0.03-0.062,0.043-0.12
		c0.013-0.057,0.024-0.133,0.035-0.229c0.011-0.095,0.016-0.218,0.016-0.367c0-0.011,0.002-0.019,0.008-0.024v-0.039h-0.008
		l0.008-0.008c-0.006-0.051-0.018-0.12-0.035-0.205s-0.056-0.156-0.112-0.213c-0.016-0.015-0.05-0.04-0.1-0.074
		c-0.053-0.033-0.14-0.053-0.265-0.058c-0.118,0.005-0.203,0.025-0.255,0.058c-0.052,0.034-0.085,0.059-0.101,0.074
		c-0.057,0.057-0.096,0.127-0.115,0.213c-0.022,0.085-0.031,0.154-0.031,0.205v0.008C46.554,59.239,46.554,59.277,46.55,59.313z"/>
	<path fill="#5F9305" d="M56.094,62.293c0,0.016-0.001,0.066-0.004,0.151c-0.004,0.085-0.017,0.187-0.04,0.302
		c-0.021,0.117-0.062,0.242-0.119,0.375c-0.057,0.135-0.14,0.258-0.247,0.372c-0.089,0.098-0.22,0.193-0.392,0.286
		c-0.173,0.093-0.396,0.14-0.67,0.14c-0.273,0-0.493-0.046-0.66-0.14c-0.169-0.093-0.297-0.188-0.385-0.286
		c-0.103-0.113-0.184-0.234-0.239-0.364c-0.057-0.129-0.097-0.251-0.12-0.367c-0.023-0.116-0.035-0.22-0.035-0.31s0-0.153,0-0.19
		V59.29c0-0.314,0.052-0.566,0.155-0.754c0.103-0.188,0.209-0.334,0.317-0.437c0.128-0.119,0.275-0.21,0.441-0.275
		c0.165-0.064,0.338-0.097,0.518-0.097c0.176,0,0.354,0.031,0.53,0.093c0.179,0.062,0.338,0.157,0.478,0.286
		c0.139,0.129,0.252,0.292,0.34,0.488c0.087,0.197,0.132,0.429,0.132,0.696c0,0.135-0.045,0.246-0.136,0.333
		c-0.091,0.087-0.199,0.132-0.33,0.132c-0.128,0-0.238-0.044-0.328-0.132c-0.09-0.088-0.136-0.199-0.136-0.333
		c0-0.139-0.02-0.25-0.058-0.332c-0.039-0.083-0.085-0.146-0.139-0.19c-0.055-0.044-0.113-0.074-0.179-0.089
		c-0.063-0.016-0.122-0.023-0.175-0.023c-0.035,0-0.082,0.006-0.139,0.02s-0.113,0.041-0.166,0.085
		c-0.055,0.044-0.102,0.107-0.14,0.189c-0.039,0.083-0.058,0.196-0.058,0.34v2.989v0.038c0,0.026,0,0.061,0,0.105
		c0,0.043,0.004,0.093,0.015,0.147s0.026,0.108,0.047,0.163c0.021,0.054,0.049,0.099,0.085,0.135
		c0.016,0.016,0.049,0.04,0.101,0.074c0.052,0.033,0.14,0.05,0.263,0.05c0.135,0,0.228-0.017,0.279-0.05
		c0.051-0.034,0.085-0.061,0.1-0.082c0.073-0.072,0.118-0.162,0.137-0.271c0.018-0.108,0.026-0.188,0.026-0.24
		c0-0.005,0-0.034,0-0.085s0.014-0.107,0.038-0.167c0.026-0.059,0.069-0.114,0.129-0.166c0.059-0.051,0.146-0.08,0.259-0.085
		c0.119-0.005,0.21,0.016,0.275,0.062c0.063,0.047,0.114,0.098,0.15,0.155C56.057,62.128,56.083,62.206,56.094,62.293z"/>
	<path fill="#5F9305" d="M59.619,63.048c0.091,0.09,0.136,0.2,0.136,0.329s-0.045,0.239-0.136,0.329
		c-0.09,0.09-0.199,0.136-0.329,0.136h-1.896c-0.129,0-0.238-0.045-0.328-0.136c-0.092-0.09-0.137-0.2-0.137-0.329v-5.124
		c0-0.129,0.045-0.239,0.137-0.329c0.09-0.091,0.199-0.136,0.328-0.136h1.896c0.13,0,0.239,0.045,0.329,0.136
		c0.091,0.09,0.136,0.2,0.136,0.329c0,0.134-0.045,0.245-0.136,0.333c-0.09,0.087-0.199,0.131-0.329,0.131h-1.433v1.951h0.991
		c0.129,0,0.24,0.045,0.33,0.135c0.09,0.091,0.135,0.2,0.135,0.33c0,0.128-0.045,0.238-0.135,0.328
		c-0.09,0.091-0.201,0.136-0.33,0.136h-0.991v1.316h1.433C59.42,62.913,59.53,62.958,59.619,63.048z"/>
	<path fill="#5F9305" d="M63.222,57.796c0.129,0,0.239,0.045,0.329,0.136s0.136,0.2,0.136,0.329v5.116v0.031v0.023v0.007v0.016
		l-0.008,0.007v0.008v0.016v0.008c-0.005,0.005-0.007,0.01-0.007,0.015v0.008c0,0.005-0.002,0.007-0.005,0.007
		s-0.004,0.003-0.004,0.008c0,0.005-0.001,0.009-0.004,0.012c-0.002,0.003-0.004,0.007-0.004,0.011c0,0.006-0.001,0.01-0.004,0.012
		c-0.002,0.003-0.003,0.007-0.003,0.012c0,0.006-0.002,0.008-0.004,0.008c-0.004,0-0.004,0.002-0.004,0.008v0.008
		c-0.005,0-0.008,0.003-0.008,0.008l-0.008,0.007c0,0.005-0.003,0.011-0.008,0.016L63.61,63.64v0.008
		c-0.005,0-0.008,0.002-0.008,0.008s-0.003,0.007-0.008,0.007c0,0.006-0.001,0.008-0.003,0.008s-0.004,0.003-0.004,0.008h-0.009
		c0,0.005-0.003,0.011-0.007,0.016l-0.016,0.015l-0.016,0.015l-0.016,0.016h-0.008l-0.016,0.015
		c-0.005,0.006-0.011,0.009-0.016,0.009c0,0.004-0.003,0.007-0.008,0.007l-0.007,0.008c-0.006,0-0.008,0.001-0.008,0.004
		c0,0.003-0.004,0.004-0.009,0.004h-0.007l-0.017,0.016c-0.02,0.01-0.038,0.018-0.054,0.023c-0.016,0.005-0.036,0.01-0.062,0.016
		c-0.021,0.005-0.053,0.007-0.094,0.007c-0.03,0-0.055-0.002-0.068-0.007h-0.016H63.13c-0.006,0-0.009-0.003-0.009-0.008h-0.029
		v-0.008h-0.017c-0.021-0.01-0.033-0.016-0.039-0.016s-0.008-0.002-0.008-0.008h-0.007c-0.006,0-0.009-0.003-0.009-0.008
		c-0.004,0-0.01-0.002-0.014-0.008c-0.007,0-0.01-0.002-0.01-0.008h-0.008c-0.004,0-0.007-0.001-0.007-0.004
		c0-0.002-0.002-0.004-0.008-0.004c-0.057-0.041-0.103-0.089-0.14-0.146v-0.008c-0.005,0-0.008-0.002-0.008-0.007l-0.008-0.008
		v-0.008c-0.006-0.005-0.008-0.01-0.008-0.016c0-0.005-0.002-0.01-0.007-0.016l-1.324-3.058v2.88c0,0.129-0.044,0.239-0.134,0.329
		c-0.092,0.091-0.201,0.135-0.331,0.135c-0.129,0-0.237-0.044-0.328-0.135c-0.091-0.09-0.135-0.199-0.135-0.329v-5.116v-0.031
		v-0.023v-0.008v-0.015l0.007-0.007v-0.008V58.16v-0.008c0.004-0.005,0.008-0.011,0.008-0.016v-0.008
		c0-0.005,0.001-0.007,0.003-0.007c0.003,0,0.005-0.003,0.005-0.008c0-0.005,0.002-0.009,0.004-0.012
		c0.002-0.003,0.004-0.006,0.004-0.012s0-0.009,0.003-0.012s0.005-0.006,0.005-0.011c0-0.006,0.001-0.008,0.003-0.008
		c0.003,0,0.005-0.002,0.005-0.008v-0.007l0.016-0.016c0-0.005,0-0.008,0.003-0.008s0.005-0.003,0.005-0.007l0.008-0.007v-0.008
		c0.004-0.005,0.007-0.011,0.007-0.015h0.008c0-0.006,0.002-0.008,0.005-0.008c0.002,0,0.004-0.002,0.004-0.007h0.007
		c0-0.005,0.003-0.011,0.009-0.016l0.015-0.016v-0.008c0.005,0,0.011-0.003,0.015-0.007v-0.008c0.006,0,0.011-0.003,0.017-0.008
		h0.007l0.016-0.015l0.016-0.016h0.008c0-0.005,0.002-0.007,0.008-0.007c0.005,0,0.008-0.002,0.008-0.004
		c0-0.003,0.003-0.004,0.008-0.004h0.008l0.016-0.016c0.036-0.021,0.071-0.034,0.108-0.039h0.007
		c0.026-0.005,0.064-0.008,0.116-0.008h0.023h0.008l0.009,0.008h0.015h0.007h0.017c0,0.005,0.002,0.008,0.007,0.008h0.017h0.007
		c0,0.005,0.005,0.007,0.016,0.007c0.006,0.006,0.013,0.008,0.023,0.008c0.006,0.005,0.011,0.008,0.016,0.008h0.008
		c0,0.005,0.006,0.008,0.015,0.008v0.007c0.011,0,0.016,0.003,0.016,0.008h0.008c0.006,0,0.009,0.001,0.009,0.004
		c0,0.002,0.002,0.004,0.007,0.004l0.008,0.007l0.007,0.008l0.009,0.008h0.008c0.005,0.004,0.011,0.007,0.016,0.007v0.007
		c0.004,0,0.008,0.001,0.008,0.004c0,0.002,0.003,0.004,0.007,0.004v0.008c0.006,0,0.008,0.001,0.008,0.004
		c0,0.002,0.003,0.003,0.008,0.003v0.008l0.016,0.016l0.016,0.016l0.016,0.016c0,0.004,0.004,0.01,0.008,0.015
		c0.005,0,0.008,0.002,0.008,0.008c0,0.005,0.003,0.007,0.008,0.007c0,0.01,0.002,0.015,0.008,0.015v0.008
		c0.005,0.004,0.008,0.01,0.008,0.015h0.008c0,0.01,0.002,0.017,0.004,0.02c0.002,0.002,0.003,0.006,0.003,0.012l1.323,3.057v-2.879
		c0-0.129,0.047-0.239,0.137-0.329S63.093,57.796,63.222,57.796z"/>
	<path fill="#5F9305" d="M67.322,57.936c0.091,0.088,0.135,0.199,0.135,0.333c0,0.129-0.044,0.239-0.135,0.329
		c-0.091,0.091-0.2,0.136-0.33,0.136h-0.72v4.644c0,0.129-0.045,0.239-0.136,0.329c-0.09,0.09-0.199,0.136-0.329,0.136
		c-0.128,0-0.237-0.045-0.327-0.136c-0.092-0.09-0.137-0.2-0.137-0.329v-4.644h-0.735c-0.128,0-0.238-0.045-0.328-0.136
		c-0.091-0.09-0.136-0.2-0.136-0.329c0-0.134,0.045-0.245,0.136-0.333c0.09-0.088,0.2-0.131,0.328-0.131h2.384
		C67.121,57.804,67.231,57.848,67.322,57.936z"/>
	<path fill="#5F9305" d="M68.478,57.796c0.135,0,0.246,0.045,0.334,0.136s0.131,0.2,0.131,0.329v5.124
		c0,0.129-0.043,0.239-0.131,0.329c-0.088,0.091-0.199,0.135-0.334,0.135c-0.129,0-0.238-0.044-0.329-0.135
		c-0.09-0.09-0.135-0.199-0.135-0.329v-5.124c0-0.129,0.045-0.239,0.135-0.329C68.24,57.841,68.349,57.796,68.478,57.796z"/>
	<path fill="#5F9305" d="M73.493,63.385c0,0.129-0.045,0.239-0.135,0.329c-0.09,0.091-0.2,0.135-0.329,0.135
		s-0.238-0.044-0.328-0.135c-0.091-0.09-0.136-0.199-0.136-0.329v-3.189l-0.488,0.96c-0.041,0.113-0.117,0.195-0.225,0.247
		c-0.062,0.031-0.126,0.046-0.193,0.046h-0.008h-0.008h-0.008h-0.008c-0.067,0-0.132-0.015-0.193-0.046
		c-0.107-0.052-0.183-0.134-0.224-0.247l-0.487-0.96v3.189c0,0.129-0.047,0.239-0.137,0.329c-0.09,0.091-0.199,0.135-0.329,0.135
		c-0.129,0-0.239-0.044-0.329-0.135c-0.089-0.09-0.135-0.199-0.135-0.329v-5.124v-0.023v-0.023v-0.008v-0.007
		c0-0.005,0.001-0.008,0.004-0.008c0.002,0,0.004-0.002,0.004-0.007v-0.008V58.16c0-0.005,0-0.009,0.003-0.012
		c0.004-0.002,0.004-0.007,0.004-0.012c0.006-0.031,0.017-0.059,0.032-0.085c0-0.005,0-0.007,0.004-0.007
		c0.002,0,0.004-0.003,0.004-0.007l0.007-0.008l0.008-0.008c0-0.005,0.003-0.01,0.007-0.015v-0.008l0.017-0.015
		c0.01-0.011,0.02-0.021,0.026-0.031c0.008-0.01,0.018-0.021,0.027-0.031l0.016-0.016h0.008c0-0.005,0-0.007,0.004-0.007
		c0.002,0,0.004-0.003,0.004-0.007h0.008c0.005-0.006,0.01-0.008,0.016-0.008c0-0.006,0.002-0.008,0.008-0.008l0.007-0.007
		l0.017-0.008c0.005-0.005,0.009-0.008,0.015-0.008l0.009-0.007c0.004,0,0.01-0.003,0.015-0.008c0.005,0,0.009-0.001,0.012-0.003
		c0.003-0.003,0.006-0.004,0.012-0.004c0.005,0,0.009-0.001,0.011-0.004c0.004-0.002,0.007-0.004,0.013-0.004
		c0.005,0,0.01-0.002,0.015-0.007h0.009h0.015l0.009-0.008h0.007h0.017h0.007c0.005-0.005,0.01-0.008,0.016-0.008h0.007h0.024h0.022
		h0.023h0.017h0.007c0.005,0,0.011,0.003,0.017,0.008h0.014h0.01h0.014c0.021,0.01,0.04,0.017,0.054,0.019
		c0.017,0.003,0.032,0.009,0.048,0.02h0.008c0,0.005,0.005,0.007,0.015,0.007c0,0.006,0.003,0.008,0.009,0.008l0.008,0.008
		c0.004,0,0.01,0.002,0.016,0.007l0.015,0.016h0.008c0.025,0.015,0.047,0.035,0.062,0.062l0.016,0.016l0.016,0.016
		c0,0.004,0.001,0.007,0.004,0.007c0.002,0,0.004,0.002,0.004,0.008l0.008,0.008l0.008,0.007c0,0.004,0.002,0.01,0.007,0.015
		c0,0.005,0.002,0.009,0.004,0.012c0.003,0.003,0.005,0.006,0.005,0.011l0.975,1.913l0.975-1.913c0-0.01,0.003-0.018,0.009-0.023
		c0.005-0.005,0.007-0.011,0.007-0.015c0.006,0,0.008-0.002,0.008-0.007l0.009-0.008c0-0.005,0.002-0.011,0.007-0.015l0.017-0.016
		l0.015-0.016c0.016-0.026,0.037-0.047,0.061-0.062l0.018-0.016h0.008c0.005-0.005,0.01-0.007,0.016-0.007l0.008-0.008
		c0.005,0,0.006-0.002,0.006-0.008c0.012,0,0.017-0.002,0.017-0.007h0.008c0.011-0.01,0.023-0.017,0.038-0.02
		c0.016-0.002,0.029-0.006,0.039-0.011c0.011,0,0.019-0.003,0.023-0.008h0.016h0.008h0.016c0-0.005,0.002-0.008,0.008-0.008h0.016
		h0.015h0.023h0.023h0.022c0.01,0,0.019,0.003,0.023,0.008h0.016h0.016l0.007,0.008h0.017h0.008l0.016,0.007
		c0.005,0,0.008,0.001,0.011,0.004c0.004,0.003,0.007,0.004,0.013,0.004c0.004,0,0.01,0.002,0.015,0.008h0.009
		c0.004,0.005,0.009,0.008,0.015,0.008v0.007c0.01,0,0.018,0.003,0.023,0.008c0.005,0.005,0.01,0.008,0.016,0.008l0.008,0.007
		l0.007,0.008c0.006,0,0.011,0.002,0.016,0.008l0.016,0.015c0.01,0,0.016,0.005,0.016,0.016c0.025,0.015,0.046,0.036,0.062,0.062
		l0.016,0.015v0.008c0.005,0.005,0.006,0.01,0.006,0.015c0.006,0,0.009,0.003,0.009,0.008l0.009,0.008
		c0,0.004,0.002,0.01,0.008,0.015c0.01,0.026,0.02,0.054,0.03,0.085c0,0.011,0.002,0.018,0.007,0.023v0.015v0.008
		c0,0.005,0.003,0.01,0.008,0.015v0.007v0.008v0.023v0.023V63.385z"/>
	<path fill="#5F9305" d="M77.003,63.048c0.092,0.09,0.137,0.2,0.137,0.329s-0.045,0.239-0.137,0.329
		c-0.088,0.09-0.199,0.136-0.328,0.136h-1.896c-0.129,0-0.239-0.045-0.329-0.136c-0.09-0.09-0.135-0.2-0.135-0.329v-5.124
		c0-0.129,0.045-0.239,0.135-0.329c0.09-0.091,0.2-0.136,0.329-0.136h1.896c0.129,0,0.24,0.045,0.328,0.136
		c0.092,0.09,0.137,0.2,0.137,0.329c0,0.134-0.045,0.245-0.137,0.333c-0.088,0.087-0.199,0.131-0.328,0.131h-1.432v1.951h0.99
		c0.13,0,0.239,0.045,0.329,0.135c0.091,0.091,0.136,0.2,0.136,0.33c0,0.128-0.045,0.238-0.136,0.328
		c-0.09,0.091-0.199,0.136-0.329,0.136h-0.99v1.316h1.432C76.804,62.913,76.915,62.958,77.003,63.048z"/>
	<path fill="#5F9305" d="M80.781,57.936c0.092,0.088,0.137,0.199,0.137,0.333c0,0.129-0.045,0.239-0.137,0.329
		c-0.09,0.091-0.199,0.136-0.328,0.136h-0.72v4.644c0,0.129-0.046,0.239-0.136,0.329c-0.09,0.09-0.2,0.136-0.328,0.136
		c-0.129,0-0.238-0.045-0.328-0.136c-0.092-0.09-0.137-0.2-0.137-0.329v-4.644h-0.735c-0.129,0-0.238-0.045-0.328-0.136
		c-0.091-0.09-0.136-0.2-0.136-0.329c0-0.134,0.045-0.245,0.136-0.333c0.09-0.088,0.199-0.131,0.328-0.131h2.384
		C80.581,57.804,80.691,57.848,80.781,57.936z"/>
	<path fill="#5F9305" d="M84.133,63.048c0.091,0.09,0.136,0.2,0.136,0.329s-0.045,0.239-0.136,0.329
		c-0.09,0.09-0.2,0.136-0.329,0.136h-1.896c-0.128,0-0.238-0.045-0.329-0.136c-0.091-0.09-0.136-0.2-0.136-0.329v-5.124
		c0-0.129,0.045-0.239,0.136-0.329c0.091-0.091,0.201-0.136,0.329-0.136h1.896c0.129,0,0.239,0.045,0.329,0.136
		c0.091,0.09,0.136,0.2,0.136,0.329c0,0.134-0.045,0.245-0.136,0.333c-0.09,0.087-0.2,0.131-0.329,0.131h-1.433v1.951h0.992
		c0.129,0,0.237,0.045,0.328,0.135c0.091,0.091,0.136,0.2,0.136,0.33c0,0.128-0.045,0.238-0.136,0.328
		c-0.091,0.091-0.199,0.136-0.328,0.136h-0.992v1.316h1.433C83.933,62.913,84.043,62.958,84.133,63.048z"/>
	<path fill="#5F9305" d="M88.147,63.191c0.057,0.119,0.06,0.237,0.012,0.356c-0.049,0.119-0.133,0.204-0.252,0.255
		c-0.062,0.026-0.124,0.039-0.186,0.039c-0.088,0-0.17-0.025-0.248-0.074c-0.076-0.048-0.138-0.117-0.179-0.205l-0.858-1.966h-0.465
		v1.78c0,0.129-0.045,0.239-0.135,0.329c-0.091,0.09-0.2,0.136-0.329,0.136s-0.238-0.045-0.329-0.136
		c-0.091-0.09-0.136-0.2-0.136-0.329v-5.108c0-0.129,0.045-0.239,0.136-0.329s0.2-0.135,0.329-0.135h1.123
		c0.195,0,0.384,0.055,0.564,0.167c0.18,0.111,0.338,0.27,0.472,0.476c0.232,0.367,0.349,0.784,0.349,1.254
		c0,0.227-0.029,0.446-0.089,0.657c-0.059,0.212-0.146,0.408-0.26,0.589c-0.051,0.077-0.105,0.147-0.162,0.209
		c-0.058,0.062-0.113,0.118-0.169,0.169L88.147,63.191z M86.63,60.668c0.025,0,0.06-0.017,0.104-0.05s0.095-0.091,0.15-0.174
		c0.068-0.104,0.117-0.22,0.152-0.349c0.033-0.129,0.051-0.261,0.051-0.395c0-0.134-0.018-0.267-0.051-0.399
		c-0.035-0.132-0.084-0.249-0.152-0.353c-0.056-0.077-0.106-0.132-0.15-0.166s-0.078-0.05-0.104-0.05h-0.659v1.935H86.63z"/>
	<path fill="#5F9305" d="M91.398,61.008c0.304,0.383,0.457,0.829,0.457,1.34c0,0.16-0.018,0.303-0.051,0.429
		s-0.075,0.239-0.124,0.337c-0.05,0.098-0.104,0.183-0.166,0.255c-0.062,0.072-0.124,0.134-0.186,0.185
		c-0.289,0.232-0.642,0.348-1.053,0.348c-0.201,0-0.39-0.027-0.566-0.084c-0.175-0.057-0.329-0.145-0.464-0.264
		c-0.057-0.046-0.115-0.105-0.174-0.178c-0.06-0.072-0.114-0.157-0.162-0.255c-0.049-0.097-0.09-0.211-0.12-0.34
		c-0.031-0.129-0.047-0.276-0.047-0.441c0-0.129,0.045-0.238,0.137-0.329c0.089-0.09,0.199-0.136,0.327-0.136
		c0.135,0,0.245,0.046,0.332,0.136c0.09,0.091,0.133,0.2,0.133,0.329c0,0.072,0.006,0.146,0.02,0.221
		c0.013,0.075,0.04,0.144,0.082,0.205c0.04,0.062,0.102,0.112,0.182,0.151s0.188,0.058,0.321,0.058c0.093,0,0.179-0.011,0.259-0.035
		s0.148-0.058,0.205-0.104c0.125-0.108,0.187-0.271,0.187-0.488c0-0.16-0.021-0.3-0.062-0.418c-0.043-0.119-0.103-0.229-0.183-0.329
		s-0.179-0.196-0.295-0.286c-0.116-0.091-0.245-0.188-0.391-0.291c-0.135-0.093-0.267-0.19-0.397-0.29
		c-0.132-0.101-0.255-0.216-0.369-0.344c-0.134-0.166-0.234-0.337-0.305-0.515c-0.069-0.178-0.105-0.373-0.105-0.585
		c0-0.03,0.002-0.087,0.004-0.169c0.002-0.083,0.016-0.178,0.039-0.287c0.023-0.108,0.062-0.221,0.115-0.34
		c0.055-0.118,0.135-0.232,0.237-0.34c0.088-0.098,0.219-0.193,0.395-0.286c0.175-0.093,0.403-0.14,0.681-0.14
		c0.285,0,0.51,0.047,0.677,0.144c0.169,0.095,0.296,0.191,0.384,0.29c0.098,0.119,0.171,0.244,0.221,0.375
		c0.049,0.132,0.082,0.253,0.098,0.364c0.015,0.111,0.02,0.208,0.015,0.291c-0.006,0.083-0.011,0.132-0.015,0.147
		c-0.016,0.093-0.047,0.17-0.094,0.232c-0.041,0.058-0.097,0.105-0.167,0.144c-0.069,0.039-0.163,0.045-0.281,0.02
		c-0.114-0.021-0.198-0.058-0.252-0.112s-0.09-0.111-0.108-0.17c-0.018-0.059-0.026-0.112-0.023-0.159
		c0.003-0.045,0.004-0.074,0.004-0.084c0.006-0.021,0.008-0.049,0.008-0.085c0-0.036-0.004-0.075-0.012-0.116
		c-0.009-0.042-0.019-0.083-0.035-0.124c-0.015-0.041-0.036-0.078-0.062-0.108c-0.062-0.078-0.181-0.116-0.356-0.116
		c-0.14,0-0.236,0.018-0.29,0.054c-0.054,0.037-0.089,0.062-0.104,0.077c-0.036,0.037-0.062,0.078-0.081,0.124
		c-0.019,0.047-0.032,0.093-0.042,0.139c-0.012,0.047-0.018,0.086-0.02,0.12c-0.003,0.034-0.005,0.058-0.005,0.074v0.016v0.015
		c0,0.103,0.019,0.197,0.055,0.283c0.035,0.085,0.086,0.165,0.151,0.239c0.063,0.075,0.145,0.15,0.243,0.225
		c0.099,0.075,0.209,0.156,0.333,0.244c0.145,0.104,0.293,0.214,0.445,0.333S91.267,60.854,91.398,61.008z"/>
	<path fill="#5F9305" d="M49.398,71.59c0,0.03-0.001,0.09-0.004,0.178c-0.002,0.088-0.017,0.188-0.043,0.297
		c-0.025,0.111-0.065,0.23-0.119,0.357c-0.055,0.126-0.133,0.242-0.236,0.352c-0.093,0.098-0.225,0.193-0.395,0.287
		c-0.17,0.092-0.392,0.139-0.666,0.139c-0.279,0-0.5-0.047-0.665-0.139c-0.166-0.094-0.292-0.189-0.379-0.287
		c-0.104-0.113-0.184-0.234-0.241-0.363c-0.056-0.129-0.097-0.252-0.119-0.368c-0.023-0.116-0.036-0.22-0.036-0.31s0-0.153,0-0.189
		v-2.965c0-0.314,0.053-0.566,0.155-0.754c0.104-0.188,0.21-0.334,0.318-0.438c0.262-0.248,0.583-0.371,0.959-0.371
		c0.176,0,0.352,0.03,0.526,0.093c0.175,0.061,0.333,0.157,0.473,0.286c0.139,0.129,0.253,0.292,0.341,0.488
		c0.087,0.196,0.131,0.428,0.131,0.696V71.59z M48.205,68.006c-0.047-0.026-0.095-0.042-0.142-0.05
		c-0.05-0.007-0.095-0.011-0.137-0.011c-0.036,0-0.082,0.006-0.139,0.02c-0.059,0.012-0.112,0.041-0.167,0.084
		c-0.054,0.044-0.101,0.107-0.14,0.19c-0.038,0.083-0.058,0.196-0.058,0.34v1.471L48.205,68.006z M48.314,72.139
		c0.067-0.072,0.111-0.164,0.131-0.275c0.021-0.109,0.029-0.189,0.023-0.235v-0.022v-1.688l-0.866,2.26
		c0.027,0.021,0.063,0.041,0.112,0.062c0.049,0.02,0.123,0.031,0.221,0.031c0.129,0,0.221-0.02,0.275-0.055
		C48.265,72.18,48.298,72.155,48.314,72.139z"/>
	<path fill="#5F9305" d="M50.149,72.054c0.129,0,0.238,0.046,0.329,0.136s0.135,0.199,0.135,0.328c0,0.135-0.044,0.247-0.135,0.338
		c-0.091,0.09-0.2,0.135-0.329,0.135c-0.134,0-0.246-0.045-0.337-0.135c-0.09-0.091-0.135-0.203-0.135-0.338
		c0-0.129,0.045-0.238,0.135-0.328C49.903,72.1,50.015,72.054,50.149,72.054z"/>
	<path fill="#5F9305" d="M54.02,71.659c0.004,0.027,0.004,0.051,0,0.07v0.039c-0.021,0.355-0.125,0.647-0.31,0.875
		c-0.228,0.288-0.551,0.467-0.969,0.533c-0.098,0.021-0.214,0.031-0.349,0.031h-0.037h-0.032c-0.108,0-0.217-0.008-0.324-0.023
		c-0.434-0.072-0.767-0.253-0.999-0.541c-0.207-0.27-0.31-0.619-0.31-1.053c0-0.764,0.182-1.33,0.542-1.695l0.015-0.016
		c-0.104-0.129-0.183-0.292-0.239-0.488c-0.025-0.107-0.047-0.229-0.062-0.363c-0.016-0.135-0.023-0.289-0.023-0.465v-0.062
		c0-0.051,0.001-0.118,0.002-0.201c0.004-0.082,0.018-0.173,0.041-0.271c0.023-0.098,0.056-0.199,0.1-0.302
		c0.044-0.104,0.107-0.202,0.19-0.294c0.088-0.099,0.216-0.195,0.386-0.291C51.814,67.047,52.04,67,52.323,67h0.032h0.037
		c0.284,0,0.511,0.047,0.678,0.143c0.169,0.096,0.296,0.192,0.384,0.291c0.082,0.092,0.146,0.19,0.193,0.294
		c0.046,0.103,0.081,0.204,0.104,0.302c0.023,0.098,0.036,0.188,0.038,0.271c0.003,0.083,0.005,0.15,0.005,0.201
		c0,0.031-0.004,0.052-0.008,0.062c0,0.176-0.007,0.33-0.02,0.465s-0.034,0.256-0.066,0.363c-0.056,0.196-0.134,0.359-0.232,0.488
		l0.015,0.016c0.357,0.361,0.536,0.926,0.536,1.695V71.659z M53.091,71.59c0-0.506-0.092-0.857-0.271-1.053
		c-0.103-0.104-0.258-0.171-0.464-0.201c-0.213,0.03-0.365,0.098-0.458,0.201c-0.186,0.195-0.277,0.547-0.277,1.053v0.03
		c0.004,0.021,0.015,0.067,0.029,0.14c0.016,0.072,0.05,0.146,0.102,0.225c0.098,0.16,0.239,0.256,0.425,0.287
		c0.026,0,0.055,0,0.085,0.003c0.031,0.003,0.062,0.004,0.095,0.004c0.035,0,0.071-0.001,0.104-0.004
		c0.034-0.003,0.063-0.007,0.089-0.012c0.191-0.03,0.335-0.126,0.435-0.286c0.035-0.062,0.061-0.123,0.077-0.182
		c0.015-0.06,0.025-0.103,0.031-0.129V71.59z M51.851,68.602c0,0.139,0.007,0.253,0.021,0.34c0.013,0.088,0.025,0.158,0.038,0.21
		s0.025,0.089,0.04,0.112c0.011,0.023,0.021,0.037,0.026,0.042c0.029,0.026,0.082,0.043,0.154,0.05
		c0.072,0.009,0.147,0.015,0.226,0.02c0.082-0.005,0.159-0.011,0.231-0.02c0.071-0.007,0.121-0.023,0.147-0.05
		c0.005-0.005,0.015-0.019,0.03-0.042s0.03-0.064,0.043-0.121c0.012-0.057,0.025-0.132,0.034-0.228
		c0.011-0.096,0.017-0.218,0.017-0.368c0-0.01,0.001-0.018,0.007-0.023v-0.039h-0.007l0.007-0.008
		c-0.006-0.052-0.016-0.12-0.034-0.205c-0.018-0.085-0.057-0.156-0.112-0.212c-0.017-0.016-0.049-0.04-0.102-0.074
		c-0.052-0.034-0.139-0.053-0.262-0.058c-0.12,0.005-0.205,0.024-0.257,0.058c-0.051,0.034-0.085,0.058-0.1,0.074
		c-0.057,0.057-0.097,0.127-0.116,0.212c-0.021,0.085-0.032,0.153-0.032,0.205v0.008C51.857,68.527,51.857,68.566,51.851,68.602z"/>
	<path fill="#5F9305" d="M57.533,68.733c0.108,0.712-0.116,1.633-0.673,2.763c-0.1,0.201-0.197,0.389-0.294,0.562
		c-0.099,0.172-0.187,0.323-0.264,0.451c-0.078,0.13-0.142,0.232-0.19,0.307s-0.077,0.114-0.08,0.119
		c-0.047,0.068-0.105,0.117-0.175,0.151c-0.07,0.034-0.142,0.05-0.213,0.05c-0.099,0-0.186-0.027-0.265-0.084
		c-0.103-0.072-0.164-0.172-0.188-0.299c-0.023-0.126,0.001-0.24,0.072-0.344c0.093-0.139,0.177-0.27,0.248-0.391
		c0.071-0.122,0.154-0.263,0.244-0.422c0.09-0.16,0.182-0.333,0.275-0.52c0.107-0.216,0.199-0.426,0.277-0.627
		c-0.087,0.026-0.179,0.047-0.274,0.062c-0.095,0.016-0.197,0.023-0.306,0.023h-0.008c-0.181,0-0.342-0.019-0.48-0.055
		c-0.138-0.035-0.264-0.084-0.371-0.144c-0.108-0.06-0.201-0.124-0.279-0.192c-0.077-0.07-0.142-0.139-0.193-0.206
		c-0.107-0.134-0.182-0.261-0.22-0.383c-0.04-0.122-0.062-0.2-0.065-0.235c-0.031-0.145-0.045-0.291-0.043-0.439
		c0.002-0.146,0.02-0.292,0.051-0.436c0.072-0.325,0.205-0.604,0.402-0.836c0.149-0.17,0.332-0.305,0.549-0.403
		c0.232-0.097,0.479-0.134,0.743-0.108c0.481,0.031,0.859,0.178,1.138,0.441c0.284,0.258,0.476,0.65,0.573,1.176L57.533,68.733z
		 M56.473,69.292c0.04-0.047,0.075-0.092,0.101-0.137c0.025-0.043,0.043-0.078,0.055-0.104c0-0.026-0.002-0.055-0.004-0.086
		c-0.003-0.031-0.008-0.059-0.012-0.084c-0.031-0.171-0.072-0.311-0.124-0.419s-0.112-0.193-0.183-0.255
		c-0.069-0.062-0.148-0.106-0.239-0.132c-0.09-0.025-0.196-0.044-0.313-0.054c-0.222-0.016-0.4,0.052-0.535,0.201
		c-0.092,0.104-0.156,0.241-0.193,0.414c-0.035,0.173-0.038,0.342-0.008,0.506l0.008,0.009c0,0.011,0.01,0.04,0.028,0.089
		c0.017,0.049,0.051,0.1,0.096,0.15c0.124,0.145,0.312,0.217,0.565,0.217C56.045,69.598,56.297,69.493,56.473,69.292z"/>
	<path fill="#5F9305" d="M62.558,67.084c0.133,0,0.244,0.046,0.332,0.137c0.088,0.09,0.132,0.2,0.132,0.329v5.125
		c0,0.128-0.044,0.238-0.132,0.328s-0.199,0.135-0.332,0.135c-0.13,0-0.24-0.045-0.33-0.135s-0.136-0.2-0.136-0.328v-5.125
		c0-0.129,0.046-0.239,0.136-0.329C62.318,67.13,62.428,67.084,62.558,67.084z"/>
	<path fill="#5F9305" d="M66.59,67.084c0.128,0,0.238,0.046,0.328,0.137c0.091,0.09,0.136,0.2,0.136,0.329v5.115v0.033v0.021v0.009
		v0.015l-0.008,0.008v0.008v0.016v0.008c-0.005,0.006-0.008,0.01-0.008,0.016v0.008c0,0.006-0.002,0.008-0.004,0.008
		s-0.003,0.002-0.003,0.008c0,0.005-0.002,0.009-0.005,0.012c-0.003,0.002-0.003,0.006-0.003,0.012c0,0.004-0.002,0.009-0.004,0.012
		c-0.003,0.002-0.004,0.006-0.004,0.012c0,0.004-0.002,0.008-0.005,0.008c-0.002,0-0.004,0.002-0.004,0.007v0.009
		c-0.005,0-0.007,0.002-0.007,0.008l-0.009,0.007c0,0.005-0.002,0.011-0.007,0.016l-0.008,0.008v0.007
		c-0.006,0-0.008,0.004-0.008,0.008c0,0.006-0.003,0.008-0.007,0.008c0,0.006-0.002,0.008-0.006,0.008
		c-0.002,0-0.003,0.004-0.003,0.008h-0.007c0,0.006-0.004,0.011-0.008,0.016l-0.016,0.016l-0.016,0.016l-0.016,0.016h-0.008
		l-0.016,0.016c-0.006,0.004-0.011,0.008-0.016,0.008c0,0.005-0.003,0.008-0.008,0.008l-0.008,0.008c-0.006,0-0.008,0-0.008,0.004
		c0,0.002-0.002,0.004-0.007,0.004h-0.009l-0.015,0.016c-0.021,0.01-0.039,0.018-0.055,0.021c-0.015,0.006-0.036,0.012-0.062,0.017
		c-0.021,0.005-0.052,0.007-0.092,0.007c-0.03,0-0.054-0.002-0.07-0.007h-0.016h-0.008c-0.005,0-0.008-0.003-0.008-0.008h-0.03
		v-0.009h-0.016c-0.021-0.01-0.034-0.015-0.039-0.015s-0.008-0.003-0.008-0.007h-0.008c-0.006,0-0.008-0.004-0.008-0.009
		c-0.005,0-0.01-0.003-0.015-0.007c-0.007,0-0.009-0.004-0.009-0.008H66.35c-0.006,0-0.008-0.002-0.008-0.004
		c0-0.004-0.003-0.004-0.009-0.004c-0.056-0.042-0.103-0.092-0.139-0.148v-0.007c-0.006,0-0.008-0.003-0.008-0.007l-0.008-0.008
		v-0.009c-0.005-0.005-0.007-0.011-0.007-0.015c0-0.006-0.003-0.012-0.009-0.016l-1.323-3.059v2.881
		c0,0.128-0.045,0.238-0.136,0.328c-0.09,0.09-0.2,0.135-0.328,0.135c-0.13,0-0.239-0.045-0.33-0.135
		c-0.09-0.09-0.135-0.2-0.135-0.328v-5.117v-0.032v-0.023v-0.008v-0.016l0.008-0.008v-0.007v-0.016v-0.007
		c0.005-0.005,0.008-0.01,0.008-0.016v-0.008c0-0.005,0-0.007,0.004-0.007c0.002,0,0.004-0.003,0.004-0.008
		c0-0.005,0.002-0.009,0.004-0.012c0.002-0.002,0.004-0.006,0.004-0.011s0.001-0.009,0.004-0.012
		c0.002-0.002,0.004-0.006,0.004-0.012c0-0.004,0-0.007,0.004-0.007c0.002,0,0.003-0.003,0.003-0.008v-0.008l0.017-0.015
		c0-0.005,0.002-0.008,0.003-0.008c0.003,0,0.004-0.003,0.004-0.008l0.009-0.007v-0.008c0.004-0.005,0.008-0.011,0.008-0.016h0.007
		c0-0.005,0.001-0.007,0.004-0.007s0.004-0.003,0.004-0.008h0.009c0-0.005,0.001-0.01,0.007-0.015l0.017-0.016v-0.007
		c0.003,0,0.009-0.002,0.015-0.008v-0.007c0.005,0,0.01-0.003,0.015-0.008h0.009l0.015-0.016l0.016-0.016h0.008
		c0-0.005,0.002-0.008,0.008-0.008c0.004,0,0.008-0.001,0.008-0.003c0-0.003,0.002-0.004,0.008-0.004h0.008l0.016-0.016
		c0.035-0.02,0.071-0.033,0.108-0.039h0.008c0.024-0.005,0.063-0.008,0.116-0.008h0.021h0.009l0.008,0.008h0.016h0.008h0.015
		c0,0.005,0.004,0.008,0.009,0.008h0.015h0.009c0,0.005,0.003,0.008,0.015,0.008c0.005,0.005,0.012,0.007,0.023,0.007
		c0.005,0.005,0.01,0.008,0.016,0.008h0.008c0,0.005,0.004,0.007,0.015,0.007v0.008c0.011,0,0.017,0.002,0.017,0.008h0.007
		c0.006,0,0.008,0.001,0.008,0.004c0,0.002,0.003,0.003,0.009,0.003l0.007,0.008l0.008,0.007l0.007,0.008h0.008
		c0.006,0.005,0.012,0.008,0.016,0.008v0.008c0.006,0,0.008,0.001,0.008,0.004s0.003,0.004,0.009,0.004v0.007
		c0.004,0,0.007,0.002,0.007,0.004c0,0.003,0.004,0.004,0.008,0.004v0.007l0.016,0.016l0.016,0.015l0.016,0.016
		c0,0.005,0.003,0.01,0.008,0.016c0.006,0,0.008,0.003,0.008,0.008s0.003,0.007,0.007,0.007c0,0.011,0.004,0.016,0.009,0.016v0.007
		c0.004,0.005,0.008,0.01,0.008,0.016h0.007c0,0.011,0.002,0.016,0.005,0.019c0.002,0.003,0.004,0.007,0.004,0.012l1.323,3.057
		v-2.879c0-0.129,0.045-0.239,0.135-0.329C66.35,67.13,66.46,67.084,66.59,67.084z"/>
	<path fill="#5F9305" d="M70.816,71.583c0,0.016-0.002,0.065-0.004,0.15c-0.003,0.086-0.016,0.186-0.039,0.303
		c-0.022,0.115-0.063,0.24-0.119,0.375c-0.058,0.134-0.139,0.258-0.247,0.371c-0.089,0.098-0.219,0.193-0.392,0.287
		c-0.174,0.092-0.396,0.139-0.67,0.139s-0.494-0.047-0.661-0.139c-0.168-0.094-0.296-0.189-0.384-0.287
		c-0.104-0.113-0.184-0.234-0.24-0.363s-0.097-0.252-0.12-0.368s-0.034-0.219-0.034-0.31c0-0.09,0-0.153,0-0.189v-2.973
		c0-0.314,0.051-0.566,0.154-0.754c0.103-0.188,0.209-0.334,0.317-0.438c0.129-0.119,0.276-0.21,0.441-0.275
		c0.165-0.064,0.339-0.096,0.519-0.096c0.176,0,0.352,0.03,0.529,0.093c0.179,0.061,0.338,0.157,0.479,0.286
		c0.138,0.129,0.251,0.292,0.339,0.488c0.089,0.196,0.132,0.428,0.132,0.696c0,0.134-0.045,0.245-0.137,0.333
		c-0.09,0.087-0.199,0.132-0.327,0.132c-0.129,0-0.239-0.045-0.329-0.132c-0.091-0.088-0.136-0.199-0.136-0.333
		c0-0.139-0.021-0.25-0.059-0.333c-0.038-0.082-0.085-0.146-0.14-0.189c-0.054-0.043-0.113-0.073-0.178-0.089
		c-0.064-0.015-0.121-0.023-0.174-0.023c-0.036,0-0.082,0.006-0.14,0.02c-0.056,0.012-0.111,0.041-0.165,0.084
		c-0.055,0.044-0.102,0.107-0.14,0.19c-0.038,0.083-0.06,0.196-0.06,0.34v2.988v0.039c0,0.025,0,0.061,0,0.104
		c0,0.045,0.006,0.093,0.016,0.146c0.011,0.055,0.027,0.109,0.048,0.164c0.021,0.054,0.048,0.099,0.085,0.135
		c0.015,0.016,0.049,0.039,0.1,0.074c0.052,0.033,0.14,0.05,0.264,0.05c0.135,0,0.228-0.017,0.279-0.05
		c0.052-0.035,0.085-0.061,0.101-0.082c0.071-0.072,0.116-0.162,0.135-0.271c0.018-0.108,0.027-0.188,0.027-0.24
		c0-0.005,0-0.033,0-0.085s0.013-0.107,0.038-0.166c0.026-0.061,0.069-0.115,0.128-0.167c0.06-0.052,0.146-0.08,0.26-0.085
		c0.118-0.006,0.21,0.016,0.274,0.062c0.064,0.047,0.115,0.099,0.151,0.155C70.78,71.417,70.805,71.495,70.816,71.583z"/>
	<path fill="#5F9305" d="M74.253,67.084c0.128,0,0.237,0.046,0.328,0.137c0.091,0.09,0.136,0.2,0.136,0.329v5.125
		c0,0.128-0.045,0.238-0.136,0.328s-0.2,0.135-0.328,0.135c-0.131,0-0.239-0.045-0.33-0.135c-0.09-0.09-0.135-0.2-0.135-0.328
		v-1.781h-1.207v1.781c0,0.128-0.046,0.238-0.136,0.328c-0.092,0.09-0.2,0.135-0.329,0.135s-0.239-0.045-0.329-0.135
		c-0.092-0.09-0.136-0.2-0.136-0.328v-5.125c0-0.129,0.044-0.239,0.136-0.329c0.09-0.091,0.2-0.137,0.329-0.137
		s0.237,0.046,0.329,0.137c0.09,0.09,0.136,0.2,0.136,0.329v2.414h1.207v-2.414c0-0.129,0.045-0.239,0.135-0.329
		C74.014,67.13,74.122,67.084,74.253,67.084z"/>
	<path fill="#5F9305" d="M78.327,72.336c0.091,0.09,0.136,0.201,0.136,0.328c0,0.131-0.045,0.239-0.136,0.33
		c-0.09,0.09-0.199,0.136-0.329,0.136h-1.896c-0.13,0-0.239-0.046-0.329-0.136c-0.091-0.091-0.136-0.199-0.136-0.33v-5.123
		c0-0.129,0.045-0.239,0.136-0.329c0.09-0.09,0.199-0.135,0.329-0.135h1.896c0.13,0,0.239,0.045,0.329,0.135
		c0.091,0.09,0.136,0.2,0.136,0.329c0,0.134-0.045,0.245-0.136,0.333c-0.09,0.088-0.199,0.132-0.329,0.132h-1.431v1.951h0.99
		c0.128,0,0.238,0.045,0.328,0.136c0.091,0.09,0.136,0.199,0.136,0.328s-0.045,0.239-0.136,0.33c-0.09,0.09-0.2,0.135-0.328,0.135
		h-0.99v1.316h1.431C78.128,72.202,78.238,72.247,78.327,72.336z"/>
	<path fill="#5F9305" d="M81.791,70.297c0.305,0.382,0.456,0.828,0.456,1.339c0,0.16-0.017,0.304-0.049,0.429
		c-0.034,0.127-0.076,0.24-0.124,0.338c-0.05,0.098-0.104,0.184-0.167,0.256c-0.062,0.071-0.124,0.133-0.186,0.186
		c-0.289,0.232-0.641,0.348-1.053,0.348c-0.201,0-0.39-0.029-0.564-0.085c-0.176-0.058-0.331-0.144-0.465-0.263
		c-0.057-0.047-0.115-0.106-0.174-0.18c-0.06-0.07-0.114-0.156-0.163-0.254c-0.05-0.098-0.089-0.212-0.12-0.34
		c-0.031-0.13-0.046-0.277-0.046-0.442c0-0.129,0.045-0.239,0.136-0.329c0.09-0.09,0.199-0.135,0.328-0.135
		c0.135,0,0.245,0.045,0.333,0.135c0.087,0.09,0.132,0.2,0.132,0.329c0,0.072,0.007,0.146,0.02,0.221s0.04,0.144,0.082,0.205
		c0.04,0.062,0.102,0.112,0.181,0.151c0.08,0.039,0.187,0.058,0.321,0.058c0.094,0,0.18-0.012,0.26-0.034
		c0.08-0.023,0.148-0.059,0.205-0.105c0.123-0.107,0.186-0.271,0.186-0.487c0-0.16-0.021-0.3-0.062-0.418s-0.102-0.228-0.182-0.329
		c-0.079-0.101-0.178-0.195-0.293-0.286c-0.117-0.091-0.248-0.187-0.392-0.29c-0.135-0.094-0.268-0.189-0.398-0.291
		c-0.132-0.1-0.254-0.215-0.368-0.344c-0.134-0.165-0.236-0.337-0.305-0.516c-0.07-0.178-0.105-0.372-0.105-0.584
		c0-0.031,0.001-0.087,0.004-0.17s0.016-0.178,0.038-0.287c0.023-0.108,0.063-0.222,0.116-0.341c0.055-0.119,0.134-0.232,0.237-0.34
		c0.087-0.098,0.218-0.194,0.394-0.287s0.403-0.139,0.682-0.139c0.283,0,0.509,0.047,0.678,0.143
		c0.167,0.096,0.296,0.193,0.383,0.29c0.098,0.119,0.171,0.244,0.222,0.376c0.048,0.131,0.08,0.253,0.096,0.363
		c0.015,0.111,0.021,0.208,0.015,0.291c-0.004,0.083-0.01,0.131-0.015,0.147c-0.016,0.093-0.047,0.17-0.093,0.233
		c-0.041,0.057-0.097,0.104-0.166,0.143c-0.071,0.039-0.164,0.045-0.283,0.02c-0.113-0.021-0.197-0.059-0.252-0.113
		c-0.054-0.053-0.09-0.109-0.107-0.169c-0.018-0.059-0.025-0.112-0.023-0.159s0.004-0.075,0.004-0.085
		c0.004-0.02,0.007-0.048,0.007-0.084c0-0.037-0.003-0.075-0.011-0.116c-0.008-0.041-0.02-0.083-0.035-0.124
		s-0.035-0.077-0.062-0.108c-0.062-0.078-0.182-0.116-0.356-0.116c-0.139,0-0.236,0.018-0.29,0.054
		c-0.055,0.036-0.088,0.062-0.104,0.077c-0.036,0.037-0.063,0.078-0.082,0.124c-0.018,0.046-0.031,0.093-0.041,0.139
		c-0.012,0.047-0.018,0.087-0.021,0.121c-0.002,0.033-0.003,0.058-0.003,0.073v0.016v0.015c0,0.104,0.017,0.198,0.055,0.283
		c0.035,0.084,0.086,0.165,0.149,0.24c0.065,0.074,0.146,0.148,0.244,0.224s0.209,0.156,0.333,0.244
		c0.144,0.103,0.292,0.214,0.445,0.333C81.523,70.005,81.663,70.142,81.791,70.297z"/>
	<path fill="#5F9305" d="M52.268,78.108c0.062,0.062,0.095,0.139,0.095,0.229c0,0.089-0.032,0.164-0.095,0.227
		c-0.062,0.063-0.139,0.094-0.228,0.094h-0.119l0.059,0.104c0.048,0.074,0.059,0.155,0.035,0.242
		c-0.022,0.085-0.074,0.15-0.152,0.197c-0.05,0.029-0.104,0.043-0.161,0.043c-0.054,0-0.106-0.014-0.158-0.043
		c-0.053-0.029-0.093-0.067-0.121-0.118l-0.054-0.103l-0.06,0.103c-0.028,0.051-0.067,0.089-0.118,0.118
		c-0.05,0.029-0.104,0.043-0.16,0.043c-0.059,0-0.111-0.014-0.161-0.043c-0.08-0.047-0.131-0.111-0.153-0.195
		c-0.023-0.084-0.012-0.166,0.035-0.244l0.059-0.104h-0.117c-0.09,0-0.167-0.03-0.229-0.094c-0.062-0.062-0.094-0.138-0.094-0.227
		c0-0.09,0.031-0.166,0.094-0.229s0.14-0.095,0.229-0.095h0.112l-0.054-0.097c-0.047-0.078-0.059-0.161-0.035-0.247
		c0.022-0.085,0.072-0.15,0.147-0.193c0.079-0.046,0.161-0.058,0.246-0.034c0.087,0.022,0.151,0.074,0.194,0.152l0.059,0.098
		l0.06-0.098c0.042-0.078,0.106-0.13,0.193-0.152c0.086-0.023,0.167-0.014,0.247,0.029c0.075,0.046,0.124,0.113,0.147,0.198
		c0.023,0.086,0.013,0.167-0.03,0.241l-0.059,0.103h0.119C52.129,78.013,52.206,78.045,52.268,78.108z"/>
	<path fill="#5F9305" d="M52.914,77.309c0.094,0,0.171,0.032,0.231,0.096c0.062,0.062,0.092,0.138,0.092,0.227v3.556
		c0,0.089-0.03,0.165-0.092,0.229c-0.061,0.062-0.138,0.093-0.231,0.093c-0.089,0-0.166-0.031-0.228-0.093
		c-0.062-0.063-0.095-0.14-0.095-0.229v-3.556c0-0.089,0.032-0.165,0.095-0.227C52.748,77.341,52.825,77.309,52.914,77.309z"/>
	<path fill="#5F9305" d="M55.712,77.309c0.09,0,0.166,0.032,0.229,0.096c0.063,0.062,0.095,0.138,0.095,0.227v3.551v0.021v0.016
		v0.006v0.01l-0.007,0.006v0.006v0.01v0.006c-0.002,0.004-0.004,0.008-0.004,0.012v0.004c0,0.004-0.002,0.006-0.003,0.006
		c-0.002,0-0.003,0.002-0.003,0.006s-0.001,0.006-0.003,0.008c-0.003,0.002-0.003,0.004-0.003,0.008s-0.001,0.006-0.003,0.008
		c-0.001,0.002-0.001,0.004-0.001,0.008s-0.002,0.006-0.004,0.006c-0.001,0-0.002,0.002-0.002,0.006v0.006
		c-0.004,0-0.007,0.001-0.007,0.004l-0.004,0.006c0,0.004-0.003,0.008-0.005,0.011l-0.006,0.005v0.006
		c-0.004,0-0.006,0.002-0.006,0.006c0,0.003-0.002,0.005-0.006,0.005c0,0.003,0,0.005-0.003,0.005c-0.002,0-0.002,0.002-0.002,0.006
		H55.96c0,0.004-0.002,0.008-0.006,0.01l-0.011,0.012l-0.011,0.011l-0.011,0.011h-0.007l-0.009,0.01
		c-0.004,0.004-0.008,0.006-0.011,0.006c0,0.004-0.002,0.006-0.006,0.006l-0.006,0.006c-0.004,0-0.005,0-0.005,0.002
		s-0.002,0.003-0.005,0.003h-0.006l-0.011,0.011c-0.014,0.008-0.026,0.012-0.037,0.016c-0.012,0.004-0.024,0.008-0.043,0.012
		c-0.015,0.003-0.036,0.004-0.065,0.004c-0.021,0-0.038-0.001-0.048-0.004h-0.012h-0.005c-0.003,0-0.005-0.002-0.005-0.006h-0.021
		v-0.006h-0.012c-0.015-0.006-0.024-0.011-0.027-0.011c-0.002,0-0.004-0.001-0.004-0.005h-0.006c-0.004,0-0.006-0.002-0.006-0.006
		c-0.004,0-0.008-0.002-0.01-0.005c-0.004,0-0.007-0.003-0.007-0.005h-0.005c-0.004,0-0.005-0.001-0.005-0.003
		c0-0.003-0.003-0.003-0.005-0.003c-0.04-0.029-0.072-0.062-0.098-0.102v-0.006c-0.004,0-0.006-0.002-0.006-0.006l-0.005-0.004
		v-0.006c-0.003-0.004-0.005-0.008-0.005-0.012s-0.002-0.006-0.006-0.01l-0.918-2.121v1.997c0,0.089-0.031,0.165-0.095,0.229
		c-0.062,0.062-0.138,0.093-0.228,0.093s-0.166-0.031-0.229-0.093c-0.062-0.063-0.094-0.14-0.094-0.229v-3.55v-0.021V77.6v-0.006
		v-0.01l0.005-0.006v-0.006v-0.011v-0.005c0.004-0.004,0.006-0.008,0.006-0.011v-0.006c0-0.003,0.001-0.005,0.003-0.005
		s0.002-0.002,0.002-0.006s0.002-0.006,0.003-0.008c0.002-0.002,0.002-0.005,0.002-0.008c0-0.004,0.002-0.006,0.004-0.008
		s0.002-0.005,0.002-0.009c0-0.003,0.001-0.005,0.004-0.005c0.001,0,0.002-0.002,0.002-0.006v-0.006l0.011-0.01
		c0-0.004,0-0.006,0.002-0.006c0.003,0,0.004-0.002,0.004-0.006l0.004-0.005V77.45c0.004-0.004,0.006-0.008,0.006-0.012h0.006
		c0-0.003,0.001-0.004,0.002-0.004c0.002,0,0.004-0.002,0.004-0.006h0.005c0-0.004,0.001-0.008,0.005-0.012l0.012-0.01v-0.006
		c0.003,0,0.006-0.002,0.01-0.006V77.39c0.004,0,0.007-0.001,0.011-0.005h0.006l0.011-0.012l0.011-0.01h0.005
		c0-0.004,0.002-0.006,0.006-0.006c0.003,0,0.005,0,0.005-0.002s0.002-0.004,0.006-0.004h0.005l0.011-0.01
		c0.025-0.016,0.05-0.023,0.076-0.027h0.005c0.018-0.004,0.045-0.006,0.08-0.006h0.016h0.006l0.006,0.006h0.01h0.006h0.011
		c0,0.004,0.002,0.006,0.005,0.006h0.012h0.006c0,0.004,0.003,0.005,0.01,0.005c0.003,0.003,0.009,0.006,0.016,0.006
		c0.004,0.003,0.008,0.005,0.011,0.005h0.006c0,0.004,0.004,0.006,0.011,0.006v0.006c0.007,0,0.011,0.001,0.011,0.004h0.006
		c0.003,0,0.005,0.002,0.005,0.004s0.002,0.002,0.006,0.002l0.006,0.006l0.005,0.006l0.005,0.004h0.006
		c0.003,0.004,0.007,0.006,0.011,0.006v0.006c0.003,0,0.005,0,0.005,0.003c0,0.001,0.002,0.002,0.006,0.002v0.005
		c0.003,0,0.005,0.002,0.005,0.004s0.001,0.002,0.006,0.002v0.006l0.011,0.01l0.011,0.012l0.011,0.01
		c0,0.004,0.001,0.008,0.005,0.012c0.003,0,0.005,0.002,0.005,0.005s0.002,0.005,0.007,0.005c0,0.008,0.001,0.012,0.005,0.012v0.005
		c0.003,0.004,0.005,0.007,0.005,0.011h0.005c0,0.008,0.002,0.012,0.003,0.014c0.002,0.002,0.004,0.004,0.004,0.008l0.917,2.121
		v-1.998c0-0.089,0.031-0.165,0.095-0.227C55.547,77.341,55.622,77.309,55.712,77.309z"/>
	<path fill="#5F9305" d="M60.954,77.568c0.074,0.071,0.148,0.173,0.22,0.304c0.071,0.129,0.107,0.305,0.107,0.523v2.029
		c0,0.219-0.036,0.393-0.107,0.523s-0.146,0.232-0.22,0.305c-0.19,0.171-0.414,0.256-0.672,0.256H59.88h-0.295
		c-0.09,0-0.167-0.031-0.229-0.093c-0.062-0.063-0.094-0.14-0.094-0.229v-3.556c0-0.089,0.031-0.165,0.094-0.227
		c0.062-0.063,0.139-0.096,0.229-0.096h0.295h0.402C60.54,77.309,60.764,77.395,60.954,77.568z M60.637,78.395
		c0-0.101-0.014-0.18-0.04-0.236s-0.059-0.102-0.097-0.132s-0.077-0.05-0.118-0.06c-0.041-0.008-0.074-0.014-0.1-0.014h-0.376v2.911
		h0.376c0.025,0,0.059-0.005,0.1-0.014s0.08-0.028,0.118-0.059s0.07-0.074,0.097-0.132s0.04-0.137,0.04-0.236V78.395z"/>
	<path fill="#5F9305" d="M62.216,77.309c0.092,0,0.17,0.032,0.23,0.096c0.062,0.062,0.092,0.138,0.092,0.227v3.556
		c0,0.089-0.029,0.165-0.092,0.229c-0.061,0.062-0.139,0.093-0.23,0.093c-0.09,0-0.166-0.031-0.228-0.093
		c-0.063-0.063-0.095-0.14-0.095-0.229v-3.556c0-0.089,0.031-0.165,0.095-0.227C62.05,77.341,62.126,77.309,62.216,77.309z"/>
	<path fill="#5F9305" d="M65.031,81.17c0.017,0.09,0.002,0.172-0.047,0.245c-0.047,0.073-0.117,0.118-0.206,0.137
		c-0.015,0.003-0.034,0.005-0.06,0.005c-0.074,0-0.142-0.023-0.201-0.072s-0.098-0.109-0.115-0.186l-0.113-0.547h-0.575
		l-0.111,0.547c-0.015,0.076-0.052,0.137-0.11,0.186c-0.061,0.049-0.127,0.072-0.202,0.072c-0.028,0-0.049-0.002-0.063-0.005
		c-0.09-0.019-0.159-0.063-0.207-0.137c-0.049-0.073-0.063-0.155-0.046-0.245l0.714-3.549v-0.006v-0.01
		c0-0.004,0.001-0.006,0.003-0.006s0.003-0.002,0.003-0.006v-0.006v-0.004c0.004-0.004,0.006-0.008,0.006-0.012
		c0-0.003,0.001-0.005,0.002-0.005c0.002,0,0.002-0.002,0.002-0.006v-0.005c0.011-0.029,0.028-0.055,0.05-0.076v-0.005
		c0.003,0,0.005-0.001,0.005-0.003s0.001-0.002,0.006-0.002v-0.006l0.005-0.006l0.005-0.005l0.006-0.005l0.005-0.006l0.006-0.006
		l0.011-0.004c0.021-0.022,0.047-0.039,0.076-0.049h0.004c0.004-0.004,0.007-0.006,0.012-0.006c0.017-0.008,0.034-0.012,0.048-0.014
		c0.015-0.002,0.031-0.004,0.048-0.008h0.006h0.011h0.011c0.018,0.004,0.034,0.006,0.049,0.008c0.014,0.002,0.029,0.006,0.047,0.014
		c0.004,0,0.008,0.002,0.012,0.006h0.006c0.027,0.01,0.052,0.026,0.074,0.049c0.004,0,0.008,0.001,0.011,0.004l0.007,0.006
		l0.004,0.006l0.006,0.005l0.005,0.005l0.006,0.006l0.005,0.006l0.006,0.005v0.005c0.021,0.021,0.037,0.047,0.049,0.076v0.005
		c0,0.004,0,0.006,0.002,0.006s0.003,0.002,0.003,0.005c0.007,0.021,0.01,0.038,0.01,0.049L65.031,81.17z M64.004,79.318
		l-0.162,0.79h0.317L64.004,79.318z"/>
	<path fill="#5F9305" d="M67.967,81.187c0,0.089-0.03,0.165-0.094,0.229c-0.062,0.062-0.14,0.093-0.229,0.093
		c-0.09,0-0.166-0.031-0.228-0.093c-0.062-0.063-0.094-0.14-0.094-0.229v-2.212l-0.339,0.666c-0.028,0.078-0.081,0.135-0.156,0.171
		c-0.042,0.022-0.087,0.032-0.134,0.032h-0.006h-0.005h-0.006h-0.005c-0.047,0-0.092-0.01-0.135-0.032
		c-0.075-0.036-0.127-0.093-0.156-0.171l-0.336-0.666v2.212c0,0.089-0.033,0.165-0.096,0.229c-0.062,0.062-0.139,0.093-0.228,0.093
		c-0.09,0-0.166-0.031-0.229-0.093c-0.063-0.063-0.094-0.14-0.094-0.229v-3.556v-0.016V77.6v-0.006v-0.006
		c0-0.003,0.001-0.004,0.003-0.004c0.001,0,0.002-0.002,0.002-0.006v-0.006v-0.011c0-0.003,0.001-0.007,0.003-0.008
		c0.002-0.002,0.003-0.005,0.003-0.008c0.002-0.021,0.01-0.042,0.021-0.06c0-0.004,0-0.006,0.002-0.006s0.002-0.001,0.002-0.005
		l0.007-0.005l0.006-0.006c0-0.004,0.001-0.008,0.005-0.011V77.45l0.011-0.012c0.007-0.006,0.013-0.014,0.019-0.021
		c0.005-0.006,0.012-0.014,0.018-0.021l0.012-0.01h0.006c0-0.004,0.001-0.006,0.002-0.006c0.002,0,0.004-0.002,0.004-0.006h0.005
		c0.003-0.003,0.007-0.004,0.01-0.004c0-0.004,0.003-0.006,0.007-0.006l0.004-0.006l0.011-0.006
		c0.005-0.003,0.009-0.004,0.011-0.004l0.007-0.006c0.003,0,0.006-0.002,0.01-0.006c0.003,0,0.007,0,0.009-0.002
		c0.001-0.002,0.004-0.003,0.008-0.003c0.003,0,0.006-0.001,0.008-0.003s0.004-0.003,0.008-0.003s0.007-0.001,0.011-0.005h0.005
		h0.012l0.005-0.006h0.007h0.009h0.006c0.004-0.004,0.007-0.006,0.011-0.006h0.005h0.017h0.017h0.017h0.01h0.005
		c0.004,0,0.008,0.002,0.012,0.006h0.011h0.005h0.011c0.015,0.008,0.027,0.012,0.038,0.014s0.021,0.006,0.032,0.014h0.005
		c0,0.004,0.004,0.006,0.011,0.006c0,0.002,0.002,0.004,0.005,0.004l0.006,0.006c0.003,0,0.007,0.002,0.012,0.006l0.011,0.01h0.005
		c0.018,0.012,0.032,0.025,0.042,0.043l0.012,0.012l0.01,0.01c0,0.004,0.001,0.006,0.004,0.006c0.001,0,0.002,0.002,0.002,0.006
		l0.006,0.005l0.005,0.005c0,0.004,0.001,0.008,0.005,0.012c0,0.003,0,0.006,0.003,0.008s0.003,0.004,0.003,0.008l0.677,1.326
		l0.677-1.326c0-0.007,0.002-0.013,0.005-0.016c0.003-0.004,0.005-0.008,0.005-0.012c0.004,0,0.005-0.002,0.005-0.005l0.007-0.005
		c0-0.004,0.002-0.008,0.005-0.012l0.011-0.01l0.011-0.012c0.011-0.018,0.025-0.031,0.044-0.043l0.01-0.01h0.005
		c0.004-0.004,0.008-0.006,0.012-0.006l0.005-0.006c0.004,0,0.005-0.002,0.005-0.004c0.009,0,0.012-0.002,0.012-0.006h0.005
		c0.007-0.008,0.017-0.012,0.027-0.014s0.02-0.004,0.026-0.008c0.008,0,0.013-0.002,0.017-0.006h0.011h0.005h0.011
		c0-0.004,0.002-0.006,0.006-0.006h0.011h0.01h0.017h0.017h0.016c0.008,0,0.013,0.002,0.017,0.006h0.011h0.011l0.005,0.006h0.01
		h0.007l0.012,0.005c0.003,0,0.005,0.001,0.007,0.003s0.005,0.003,0.008,0.003c0.004,0,0.008,0.001,0.012,0.005h0.004
		c0.005,0.004,0.008,0.006,0.012,0.006v0.006c0.006,0,0.012,0.001,0.016,0.004c0.004,0.004,0.008,0.006,0.012,0.006l0.004,0.006
		l0.007,0.006c0.003,0,0.007,0.001,0.01,0.004l0.011,0.012c0.007,0,0.011,0.004,0.011,0.01c0.018,0.012,0.032,0.025,0.043,0.043
		l0.011,0.012v0.005c0.003,0.003,0.006,0.007,0.006,0.011c0.003,0,0.005,0.002,0.005,0.006l0.006,0.005
		c0,0.004,0.001,0.007,0.005,0.011c0.007,0.018,0.014,0.038,0.021,0.06c0,0.007,0.002,0.013,0.005,0.016v0.011v0.006
		c0,0.004,0.003,0.007,0.006,0.01v0.006V77.6v0.016v0.016V81.187z"/>
	<path fill="#5F9305" d="M70.403,80.954c0.062,0.062,0.094,0.139,0.094,0.229c0,0.089-0.032,0.166-0.094,0.228
		c-0.062,0.063-0.139,0.095-0.229,0.095h-1.315c-0.09,0-0.165-0.031-0.229-0.095c-0.062-0.062-0.094-0.139-0.094-0.228v-3.555
		c0-0.09,0.031-0.166,0.094-0.229c0.063-0.062,0.139-0.095,0.229-0.095h1.315c0.09,0,0.167,0.032,0.229,0.095
		s0.094,0.139,0.094,0.229c0,0.092-0.032,0.17-0.094,0.23s-0.139,0.091-0.229,0.091H69.18v1.354h0.688
		c0.09,0,0.165,0.032,0.229,0.093c0.062,0.063,0.094,0.14,0.094,0.229c0,0.09-0.031,0.166-0.094,0.229
		c-0.063,0.062-0.139,0.094-0.229,0.094H69.18v0.914h0.994C70.264,80.86,70.341,80.891,70.403,80.954z"/>
	<path fill="#5F9305" d="M73.023,77.407c0.062,0.061,0.094,0.138,0.094,0.23c0,0.09-0.031,0.166-0.094,0.229
		s-0.139,0.094-0.229,0.094h-0.499v3.223c0,0.089-0.031,0.166-0.094,0.228c-0.062,0.063-0.139,0.095-0.229,0.095
		c-0.089,0-0.165-0.031-0.228-0.095c-0.062-0.062-0.095-0.139-0.095-0.228v-3.223h-0.51c-0.09,0-0.166-0.031-0.229-0.094
		s-0.095-0.139-0.095-0.229c0-0.093,0.032-0.17,0.095-0.23s0.139-0.092,0.229-0.092h1.653C72.884,77.315,72.96,77.346,73.023,77.407
		z"/>
	<path fill="#5F9305" d="M75.348,80.954c0.062,0.062,0.095,0.139,0.095,0.229c0,0.089-0.032,0.166-0.095,0.228
		c-0.062,0.063-0.139,0.095-0.229,0.095h-1.314c-0.091,0-0.166-0.031-0.229-0.095c-0.063-0.062-0.095-0.139-0.095-0.228v-3.555
		c0-0.09,0.031-0.166,0.095-0.229c0.062-0.062,0.138-0.095,0.229-0.095h1.314c0.09,0,0.167,0.032,0.229,0.095
		c0.062,0.062,0.095,0.139,0.095,0.229c0,0.092-0.032,0.17-0.095,0.23c-0.062,0.061-0.139,0.091-0.229,0.091h-0.993v1.354h0.688
		c0.09,0,0.166,0.032,0.229,0.093c0.063,0.063,0.094,0.14,0.094,0.229c0,0.09-0.03,0.166-0.094,0.229
		c-0.062,0.062-0.139,0.094-0.229,0.094h-0.688v0.914h0.993C75.209,80.86,75.286,80.891,75.348,80.954z"/>
	<path fill="#5F9305" d="M78.133,81.053c0.04,0.082,0.042,0.164,0.008,0.246c-0.034,0.084-0.093,0.143-0.174,0.178
		c-0.044,0.018-0.087,0.027-0.13,0.027c-0.062,0-0.117-0.018-0.172-0.051c-0.053-0.035-0.095-0.082-0.123-0.143l-0.597-1.365h-0.322
		v1.236c0,0.089-0.03,0.166-0.093,0.228c-0.063,0.063-0.139,0.095-0.229,0.095s-0.166-0.031-0.229-0.095
		c-0.062-0.062-0.094-0.139-0.094-0.228v-3.545c0-0.09,0.031-0.166,0.094-0.229s0.139-0.094,0.229-0.094h0.778
		c0.136,0,0.267,0.039,0.393,0.115c0.125,0.078,0.233,0.188,0.326,0.33c0.162,0.255,0.242,0.545,0.242,0.871
		c0,0.156-0.021,0.31-0.062,0.456s-0.102,0.282-0.181,0.407c-0.034,0.055-0.072,0.104-0.112,0.146
		c-0.039,0.043-0.078,0.082-0.118,0.117L78.133,81.053z M77.08,79.302c0.018,0,0.042-0.012,0.072-0.035
		c0.03-0.022,0.065-0.063,0.104-0.12c0.047-0.072,0.082-0.152,0.105-0.242s0.034-0.182,0.034-0.273c0-0.094-0.011-0.186-0.034-0.277
		s-0.059-0.172-0.105-0.244c-0.039-0.053-0.074-0.092-0.104-0.115s-0.055-0.035-0.072-0.035h-0.457v1.343H77.08z"/>
</g>
</svg>
