<?xml version="1.0" encoding="utf-8"?>
<!-- Generator: Adobe Illustrator 16.0.0, SVG Export Plug-In . SVG Version: 6.00 Build 0)  -->
<!DOCTYPE svg PUBLIC "-//W3C//DTD SVG 1.1//EN" "http://www.w3.org/Graphics/SVG/1.1/DTD/svg11.dtd">
<svg version="1.1" id="Layer_1" xmlns="http://www.w3.org/2000/svg" xmlns:xlink="http://www.w3.org/1999/xlink" x="0px" y="0px"
	 width="66.75px" height="90.95px" viewBox="0 0 66.75 90.95" enable-background="new 0 0 66.75 90.95" xml:space="preserve">
<g>
	<path fill="#5F9305" d="M19.414,87.879c0.224,0.225,0.326,0.49,0.326,0.801c0,0.316-0.104,0.584-0.326,0.811
		c-0.233,0.217-0.5,0.328-0.806,0.328h-4.635c-0.305,0-0.582-0.111-0.805-0.328c-0.213-0.227-0.326-0.494-0.326-0.811V76.172
		c0-0.309,0.113-0.576,0.326-0.803c0.223-0.219,0.5-0.326,0.805-0.326h4.635c0.306,0,0.57,0.107,0.806,0.326
		c0.224,0.227,0.326,0.494,0.326,0.803c0,0.33-0.104,0.6-0.326,0.818c-0.233,0.213-0.5,0.316-0.806,0.316h-3.499v4.766h2.419
		c0.314,0,0.575,0.104,0.803,0.327c0.219,0.22,0.328,0.489,0.328,0.806c0,0.312-0.107,0.582-0.328,0.805
		c-0.229,0.219-0.486,0.328-0.803,0.328h-2.419v3.211h3.499C18.914,87.549,19.181,87.659,19.414,87.879z"/>
	<path fill="#5F9305" d="M28.261,88.646c0.066,0.313,0.017,0.599-0.153,0.858c-0.167,0.26-0.42,0.42-0.732,0.482
		c-0.052,0.014-0.124,0.02-0.204,0.02c-0.268,0-0.503-0.09-0.714-0.258c-0.202-0.172-0.345-0.387-0.399-0.654l-0.403-1.928H23.64
		l-0.404,1.928c-0.045,0.271-0.182,0.482-0.379,0.654c-0.211,0.168-0.453,0.258-0.717,0.258c-0.095,0-0.168-0.008-0.229-0.02
		c-0.311-0.062-0.553-0.225-0.727-0.482c-0.172-0.26-0.217-0.545-0.16-0.858l2.518-12.489v-0.021V76.1c0-0.014,0-0.02,0-0.02
		s0.018-0.004,0.018-0.02V76.04v-0.018c0.009-0.012,0.02-0.025,0.02-0.043c0-0.01,0.003-0.016,0.003-0.016s0.015-0.006,0.015-0.014
		v-0.021c0.045-0.1,0.103-0.191,0.181-0.271v-0.014c0,0,0.009,0,0.009-0.008s0.014-0.008,0.014-0.008l0.006-0.021l0.017-0.021
		l0.034-0.021l0.009-0.019l0.019-0.018l0.019-0.021l0.046-0.018c0.068-0.076,0.155-0.131,0.253-0.172h0.027
		c0.011-0.01,0.016-0.016,0.016-0.016c0.083-0.028,0.134-0.043,0.188-0.051c0.051,0,0.104-0.02,0.168-0.027h0.018h0.046H24.7
		c0.053,0.01,0.115,0.027,0.159,0.027c0.061,0.008,0.118,0.021,0.173,0.051c0,0,0.031,0.006,0.043,0.016h0.023
		c0.094,0.041,0.183,0.096,0.261,0.172c0,0,0.026,0.004,0.03,0.018l0.026,0.021l0.011,0.018l0.021,0.019l0.019,0.021l0.027,0.021
		l0.021,0.021l0.008,0.016v0.014c0.076,0.08,0.135,0.172,0.185,0.271v0.021c0,0.008,0,0.014,0,0.014s0.011,0.006,0.011,0.016
		c0.021,0.08,0.032,0.139,0.032,0.174L28.261,88.646z M24.659,82.127l-0.566,2.773h1.106L24.659,82.127z"/>
	<path fill="#5F9305" d="M37.205,88.229c0.138,0.291,0.138,0.582,0.026,0.867c-0.126,0.293-0.328,0.5-0.618,0.627
		c-0.149,0.062-0.291,0.095-0.451,0.095c-0.22,0-0.417-0.063-0.608-0.179c-0.187-0.121-0.332-0.289-0.429-0.502l-2.102-4.799h-1.129
		v4.342c0,0.316-0.117,0.584-0.341,0.811c-0.22,0.217-0.492,0.328-0.793,0.328c-0.328,0-0.582-0.111-0.807-0.328
		c-0.229-0.227-0.332-0.494-0.332-0.811V76.213c0-0.318,0.104-0.582,0.332-0.801c0.225-0.225,0.479-0.332,0.807-0.332h2.734
		c0.477,0,0.944,0.135,1.374,0.403c0.44,0.271,0.825,0.659,1.16,1.162c0.565,0.896,0.843,1.915,0.843,3.062
		c0,0.555-0.066,1.086-0.223,1.605c-0.141,0.516-0.354,0.992-0.62,1.434c-0.133,0.188-0.261,0.358-0.392,0.51
		c-0.151,0.15-0.282,0.295-0.422,0.42L37.205,88.229z M33.497,82.073c0.066,0,0.148-0.041,0.26-0.125
		c0.107-0.076,0.231-0.221,0.362-0.423c0.164-0.255,0.285-0.536,0.369-0.854c0.086-0.312,0.122-0.635,0.122-0.961
		c0-0.33-0.036-0.651-0.122-0.973c-0.084-0.32-0.205-0.605-0.369-0.863c-0.131-0.188-0.255-0.32-0.362-0.404
		c-0.11-0.08-0.192-0.12-0.26-0.12h-1.602v4.728h1.602V82.073z"/>
	<path fill="#5F9305" d="M45.896,75.399c0.223,0.217,0.334,0.484,0.334,0.814c0,0.312-0.111,0.578-0.334,0.795
		c-0.22,0.225-0.488,0.338-0.791,0.338h-1.767V88.68c0,0.314-0.115,0.582-0.326,0.811c-0.229,0.215-0.485,0.326-0.807,0.326
		c-0.314,0-0.588-0.111-0.805-0.326c-0.215-0.229-0.336-0.494-0.336-0.811V77.348h-1.783c-0.316,0-0.588-0.114-0.801-0.338
		c-0.229-0.219-0.344-0.48-0.344-0.797c0-0.33,0.114-0.598,0.344-0.813c0.213-0.21,0.482-0.319,0.801-0.319h5.822
		C45.407,75.081,45.677,75.189,45.896,75.399z"/>
	<path fill="#5F9305" d="M53.862,75.062c0.32,0,0.574,0.106,0.803,0.327c0.217,0.221,0.332,0.49,0.332,0.807v12.506
		c0,0.316-0.113,0.58-0.332,0.805c-0.229,0.22-0.482,0.33-0.803,0.33c-0.309,0-0.578-0.11-0.807-0.33
		c-0.211-0.225-0.326-0.486-0.326-0.805v-4.344h-2.947v4.344c0,0.316-0.107,0.58-0.334,0.805c-0.209,0.22-0.482,0.33-0.791,0.33
		c-0.322,0-0.592-0.11-0.803-0.33c-0.23-0.225-0.346-0.486-0.346-0.805V76.196c0-0.316,0.112-0.587,0.346-0.809
		c0.211-0.221,0.479-0.326,0.803-0.326c0.309,0,0.582,0.105,0.791,0.326c0.227,0.222,0.334,0.49,0.334,0.809v5.891h2.947v-5.891
		c0-0.316,0.115-0.587,0.326-0.809C53.284,75.168,53.554,75.062,53.862,75.062z"/>
</g>
<g>
	<g>
		<path fill="#256195" d="M66.343,33.159c0,17.787-14.418,32.217-32.215,32.217c-17.785,0-32.216-14.43-32.216-32.217
			c0-17.791,14.431-32.215,32.216-32.215C51.925,0.942,66.343,15.368,66.343,33.159z"/>
	</g>
	<g>
		<path fill="#5F9305" d="M7.522,32.106c0.104,0.096,0.143,0.204,0.143,0.331c0,0.132-0.039,0.241-0.143,0.337
			c-0.085,0.086-0.207,0.139-0.333,0.139H5.148c-0.12,0-0.232-0.053-0.324-0.139c-0.094-0.096-0.129-0.205-0.129-0.337
			c0-0.127,0.035-0.235,0.129-0.331c0.092-0.096,0.204-0.135,0.324-0.135h0.567v-3.588l-0.192,0.199
			c-0.089,0.086-0.193,0.133-0.337,0.133c-0.122,0-0.231-0.047-0.333-0.133c-0.081-0.094-0.134-0.203-0.134-0.336
			c0-0.14,0.053-0.238,0.134-0.332l1.001-0.996C5.921,26.857,6,26.811,6.093,26.792c0.1-0.021,0.187-0.012,0.283,0.031
			c0.08,0.033,0.155,0.092,0.207,0.168c0.053,0.08,0.077,0.168,0.077,0.26v4.721h0.528C7.315,31.974,7.438,32.012,7.522,32.106z"/>
		<path fill="#5F9305" d="M10.716,31.262c0.127,0,0.24,0.041,0.321,0.137c0.101,0.096,0.144,0.2,0.144,0.336
			c0,0.145-0.019,0.291-0.03,0.438c-0.021,0.145-0.078,0.285-0.169,0.398c-0.102,0.15-0.247,0.256-0.417,0.32
			c-0.142,0.045-0.308,0.074-0.52,0.074H8.499c-0.129,0-0.247-0.047-0.332-0.141c-0.097-0.091-0.142-0.203-0.142-0.336
			c0-0.27,0.045-0.52,0.108-0.763c0.086-0.233,0.176-0.46,0.295-0.679c0.134-0.215,0.254-0.42,0.41-0.612
			c0.146-0.19,0.285-0.375,0.434-0.55c0.113-0.146,0.229-0.285,0.328-0.422c0.108-0.137,0.203-0.27,0.285-0.412
			c0.082-0.129,0.159-0.26,0.198-0.395c0.058-0.127,0.081-0.254,0.081-0.384v-0.034c0-0.041,0-0.111-0.014-0.217
			c-0.018-0.1-0.066-0.18-0.127-0.256C10,27.75,9.968,27.727,9.905,27.685c-0.049-0.022-0.146-0.048-0.282-0.048
			c-0.184,0-0.308,0.037-0.368,0.113c-0.058,0.068-0.1,0.15-0.1,0.256c-0.009,0.1-0.009,0.166-0.009,0.186
			c0.022,0.129-0.009,0.25-0.087,0.355c-0.074,0.104-0.182,0.162-0.321,0.174c-0.123,0.029-0.233-0.008-0.339-0.088
			c-0.104-0.082-0.159-0.182-0.18-0.309c0-0.02,0-0.072-0.013-0.146c0-0.086,0-0.186,0.013-0.301c0.021-0.111,0.049-0.23,0.09-0.359
			c0.052-0.133,0.119-0.264,0.228-0.379c0.085-0.104,0.22-0.203,0.396-0.297c0.166-0.092,0.396-0.139,0.69-0.139
			c0.282,0,0.519,0.047,0.681,0.139c0.175,0.088,0.311,0.181,0.403,0.277c0.103,0.105,0.179,0.229,0.229,0.348
			c0.056,0.131,0.102,0.242,0.129,0.352c0.021,0.104,0.039,0.197,0.039,0.287c0,0.081,0,0.139,0,0.174
			c0,0.209-0.032,0.418-0.092,0.609c-0.069,0.193-0.15,0.379-0.258,0.559c-0.103,0.182-0.211,0.361-0.359,0.527
			c-0.12,0.17-0.254,0.337-0.396,0.502c-0.208,0.25-0.398,0.512-0.574,0.754c-0.176,0.251-0.305,0.512-0.385,0.786h1.004
			c0,0,0.09,0,0.105-0.009c0,0,0.055,0,0.072-0.01c0-0.02,0-0.047,0.021-0.086c0-0.043,0-0.1,0-0.182
			c0-0.137,0.031-0.24,0.137-0.336C10.474,31.303,10.581,31.262,10.716,31.262z"/>
		<path fill="#5F9305" d="M12.313,31.87c0.127-0.029,0.256-0.02,0.369,0.051c0.11,0.062,0.184,0.152,0.221,0.285
			c0.025,0.123,0.021,0.238-0.053,0.348l-0.543,0.973c-0.071,0.123-0.178,0.191-0.297,0.23c-0.131,0.037-0.246,0.016-0.362-0.043
			c-0.11-0.07-0.188-0.172-0.228-0.287c-0.025-0.133-0.021-0.242,0.063-0.359l0.558-0.973C12.101,31.979,12.192,31.901,12.313,31.87
			z"/>
		<path fill="#5F9305" d="M16.044,26.981c0.055,0.057,0.092,0.119,0.096,0.189c0.017,0.076,0.009,0.146-0.004,0.223l-1.479,5.131
			c-0.041,0.104-0.097,0.182-0.188,0.25c-0.082,0.059-0.17,0.086-0.276,0.086h-0.063c0,0-0.039,0-0.059-0.018
			c-0.128-0.033-0.219-0.107-0.278-0.221c-0.063-0.109-0.092-0.238-0.045-0.354l1.3-4.538h-1.709c-0.129,0-0.24-0.047-0.33-0.133
			c-0.099-0.1-0.133-0.204-0.133-0.34c0-0.127,0.034-0.248,0.133-0.328c0.09-0.09,0.201-0.143,0.33-0.143h2.34
			C15.825,26.788,15.946,26.844,16.044,26.981z"/>
		<path fill="#5F9305" d="M19.395,29.812c0.062,0.108,0.11,0.22,0.136,0.33c0.044,0.11,0.077,0.22,0.104,0.323
			c0.008,0.096,0.019,0.193,0.033,0.285c0.006,0.084,0.006,0.156,0.006,0.217c0,0.109-0.006,0.262-0.031,0.475
			c-0.008,0.205-0.076,0.414-0.183,0.631c-0.142,0.268-0.315,0.475-0.562,0.615c-0.271,0.162-0.598,0.244-0.983,0.244
			c-0.403,0-0.712-0.082-0.962-0.254c-0.227-0.154-0.378-0.368-0.454-0.639c-0.026-0.125,0-0.254,0.062-0.361
			c0.07-0.109,0.166-0.176,0.294-0.213c0.137-0.035,0.241-0.016,0.356,0.053c0.115,0.064,0.188,0.16,0.213,0.298
			c0,0.033,0.025,0.062,0.06,0.093c0.028,0.012,0.083,0.026,0.141,0.059c0.06,0.016,0.159,0.021,0.292,0.021
			c0.292,0,0.494-0.072,0.633-0.23c0.121-0.16,0.181-0.414,0.181-0.791c0-0.061-0.005-0.156-0.013-0.293
			c-0.026-0.137-0.07-0.275-0.144-0.412c-0.024-0.039-0.045-0.084-0.092-0.127c-0.03-0.045-0.093-0.086-0.142-0.121
			c-0.057-0.041-0.121-0.074-0.205-0.098c-0.093-0.021-0.201-0.029-0.309-0.029h-0.799c-0.135,0-0.236-0.049-0.321-0.143
			c-0.099-0.09-0.147-0.207-0.147-0.336v-2.226c0-0.13,0.05-0.239,0.131-0.326c0.103-0.095,0.203-0.142,0.339-0.142h1.776
			c0.136,0,0.248,0.047,0.338,0.142c0.092,0.087,0.134,0.196,0.134,0.326c0,0.133-0.042,0.241-0.134,0.342
			c-0.09,0.087-0.202,0.134-0.338,0.134h-1.301v1.28h0.323c0.38,0,0.714,0.086,0.979,0.261
			C19.052,29.353,19.252,29.555,19.395,29.812z"/>
		<path fill="#5F9305" d="M23.493,30.706c0.062,0.303,0.057,0.6,0,0.891c-0.031,0.162-0.092,0.32-0.163,0.464
			c-0.069,0.146-0.146,0.272-0.25,0.386c-0.09,0.098-0.176,0.174-0.271,0.234c-0.078,0.066-0.182,0.123-0.287,0.164
			c-0.211,0.082-0.418,0.123-0.625,0.123h-0.137c-0.355-0.018-0.656-0.127-0.936-0.324c-0.255-0.182-0.468-0.432-0.628-0.75
			c-0.241-0.529-0.349-1.193-0.317-2c0-0.309,0.047-0.588,0.101-0.84c0.067-0.256,0.157-0.479,0.262-0.668
			c0.117-0.194,0.239-0.369,0.362-0.52c0.136-0.148,0.265-0.267,0.383-0.379c0.126-0.105,0.262-0.203,0.384-0.285
			c0.118-0.076,0.243-0.133,0.337-0.189c0.116-0.049,0.189-0.082,0.247-0.104c0.071-0.029,0.118-0.041,0.118-0.041
			c0.104-0.035,0.177-0.041,0.266-0.025c0.059,0.007,0.131,0.029,0.199,0.078c0.059,0.041,0.124,0.117,0.153,0.222
			c0.056,0.108,0.056,0.194,0.019,0.278c-0.025,0.076-0.066,0.144-0.119,0.195c-0.054,0.059-0.129,0.107-0.231,0.151
			c-0.063,0.024-0.162,0.058-0.253,0.101c-0.068,0.041-0.149,0.086-0.242,0.145c-0.102,0.059-0.189,0.129-0.301,0.215
			c-0.457,0.406-0.703,0.926-0.73,1.546c0.131-0.081,0.274-0.151,0.45-0.214c0.17-0.053,0.358-0.081,0.582-0.081
			c0.185,0,0.346,0.011,0.481,0.054c0.148,0.039,0.267,0.086,0.389,0.146c0.101,0.062,0.188,0.123,0.271,0.193
			c0.077,0.072,0.146,0.146,0.213,0.209c0.104,0.143,0.16,0.274,0.213,0.397C23.468,30.588,23.474,30.665,23.493,30.706z
			 M22.371,31.821c0.088-0.109,0.154-0.246,0.191-0.423c0.046-0.177,0.046-0.345,0.01-0.513v-0.008
			c-0.01-0.016-0.019-0.039-0.038-0.086c-0.014-0.047-0.044-0.104-0.081-0.162c-0.144-0.146-0.329-0.221-0.593-0.221
			c-0.258,0-0.492,0.092-0.662,0.271c-0.071,0.068-0.104,0.134-0.143,0.188c-0.021,0.061-0.037,0.1-0.045,0.108
			c-0.017,0.015-0.017,0.032-0.024,0.075c-0.011,0.043-0.011,0.082,0,0.134c0,0.047,0.01,0.099,0.033,0.17
			c0.019,0.058,0.03,0.11,0.05,0.146c0,0.006,0,0.01,0,0.021c0.156,0.311,0.414,0.479,0.754,0.496
			C22.06,32.042,22.231,31.974,22.371,31.821z"/>
		<path fill="#5F9305" d="M31.025,32.577c-0.039,0.123-0.109,0.213-0.232,0.268c-0.057,0.035-0.135,0.055-0.206,0.055
			c-0.092,0-0.176-0.023-0.246-0.07c-0.086-0.047-0.129-0.104-0.168-0.197l-1.164-2.285l-0.369,0.582v1.531
			c0,0.133-0.039,0.236-0.137,0.332c-0.094,0.09-0.199,0.137-0.334,0.137c-0.115,0-0.229-0.047-0.33-0.137
			c-0.084-0.096-0.139-0.199-0.139-0.332v-1.664V30.79v-3.518c0-0.133,0.055-0.244,0.139-0.337c0.102-0.089,0.215-0.132,0.33-0.132
			c0.135,0,0.24,0.043,0.334,0.132c0.098,0.093,0.137,0.204,0.137,0.337v1.859l1.302-2.092c0.057-0.109,0.153-0.193,0.276-0.215
			c0.127-0.031,0.252-0.012,0.369,0.059c0.104,0.068,0.174,0.166,0.206,0.289c0.026,0.125,0.013,0.246-0.057,0.355l-1.151,1.877
			l1.424,2.809C31.069,32.333,31.069,32.458,31.025,32.577z"/>
		<path fill="#5F9305" d="M32.255,26.764c0.137,0,0.254,0.048,0.332,0.143c0.094,0.086,0.144,0.194,0.144,0.323v5.204
			c0,0.128-0.048,0.242-0.144,0.337c-0.078,0.086-0.195,0.134-0.332,0.134c-0.13,0-0.248-0.048-0.334-0.134
			c-0.087-0.097-0.138-0.209-0.138-0.337V27.23c0-0.129,0.051-0.237,0.138-0.323C32.007,26.812,32.125,26.764,32.255,26.764z"/>
		<path fill="#5F9305" d="M36.69,32.094c0.085,0.093,0.139,0.203,0.139,0.339c0,0.128-0.054,0.241-0.139,0.337
			c-0.092,0.086-0.201,0.133-0.335,0.133h-2.058c-0.123,0-0.238-0.047-0.334-0.133c-0.084-0.096-0.132-0.209-0.132-0.337v-5.204
			c0-0.129,0.048-0.236,0.132-0.324c0.096-0.093,0.211-0.143,0.334-0.143c0.143,0,0.243,0.049,0.336,0.143
			c0.09,0.088,0.144,0.195,0.144,0.324v4.738h1.578C36.489,31.967,36.599,32.002,36.69,32.094z"/>
		<path fill="#5F9305" d="M40.546,31.344c0,0.023,0,0.082-0.01,0.175c0,0.08-0.025,0.181-0.037,0.298
			c-0.023,0.107-0.078,0.23-0.125,0.354c-0.062,0.135-0.143,0.256-0.25,0.361c-0.084,0.098-0.221,0.195-0.398,0.295
			c-0.163,0.086-0.396,0.139-0.668,0.139c-0.276,0-0.514-0.053-0.68-0.139c-0.168-0.1-0.297-0.197-0.389-0.295
			c-0.104-0.113-0.174-0.24-0.227-0.375c-0.062-0.121-0.111-0.24-0.129-0.369c-0.021-0.113-0.037-0.219-0.037-0.309
			c0-0.1,0-0.165,0-0.193v-3.004c0-0.314,0.057-0.57,0.168-0.762c0.102-0.191,0.192-0.346,0.315-0.441
			c0.267-0.25,0.599-0.371,0.978-0.371c0.18,0,0.356,0.021,0.528,0.094c0.177,0.057,0.33,0.156,0.472,0.289
			c0.151,0.129,0.256,0.289,0.352,0.492c0.09,0.199,0.137,0.432,0.137,0.703V31.344z M39.442,31.893
			c0.049-0.042,0.068-0.088,0.088-0.141c0.018-0.053,0.031-0.104,0.045-0.156c0.012-0.049,0.02-0.092,0.02-0.129
			c0.006-0.047,0.006-0.067,0.006-0.094v-0.012v-3.076c0-0.138-0.024-0.254-0.053-0.336c-0.037-0.086-0.096-0.148-0.146-0.195
			c-0.062-0.053-0.109-0.076-0.177-0.09c-0.062-0.015-0.116-0.022-0.166-0.022c-0.045,0-0.098,0.009-0.157,0.022
			c-0.054,0.014-0.104,0.037-0.162,0.076c-0.056,0.049-0.097,0.112-0.142,0.193c-0.032,0.091-0.057,0.203-0.057,0.348v3.039v0.023
			c0,0.018,0,0.061,0,0.107c0,0.051,0.004,0.096,0.016,0.143c0.009,0.053,0.035,0.105,0.041,0.164
			c0.023,0.059,0.06,0.104,0.086,0.145c0.027,0.014,0.058,0.033,0.111,0.07c0.053,0.029,0.146,0.047,0.264,0.047
			c0.132,0,0.228-0.018,0.271-0.047C39.395,31.924,39.425,31.909,39.442,31.893z"/>
		<path fill="#5F9305" d="M44.946,32.434c0,0.128-0.051,0.242-0.141,0.337c-0.097,0.086-0.207,0.134-0.33,0.134
			c-0.135,0-0.246-0.048-0.342-0.134c-0.08-0.097-0.129-0.209-0.129-0.337v-3.232l-0.486,0.967c-0.051,0.119-0.129,0.201-0.246,0.26
			c-0.057,0.025-0.111,0.049-0.187,0.049H43.08l0,0H43.06h-0.006c-0.066,0-0.131-0.023-0.189-0.049
			c-0.115-0.059-0.193-0.141-0.236-0.26l-0.479-0.967v3.232c0,0.128-0.059,0.242-0.156,0.337c-0.084,0.086-0.195,0.134-0.338,0.134
			c-0.121,0-0.236-0.048-0.33-0.134c-0.074-0.097-0.133-0.209-0.133-0.337V27.23v-0.017v-0.028v-0.009v-0.004v-0.006
			c0,0,0,0,0-0.006v-0.013v-0.011c0-0.006,0.006-0.014,0.006-0.014s0.014-0.01,0.014-0.016c0.006-0.029,0.019-0.062,0.039-0.083
			c0-0.013,0-0.017,0-0.017s0,0,0-0.008l0.014-0.006l0.005-0.004c0-0.007,0-0.007,0-0.012v-0.02l0.021-0.012
			c0.012-0.007,0.012-0.018,0.035-0.029c0-0.012,0.008-0.016,0.021-0.029l0.012-0.016h0.008c0-0.008,0-0.008,0-0.008l0.012-0.011
			l0,0c0.006,0,0.025-0.013,0.025-0.013l0,0l0.014-0.006l0.016-0.012c0.009-0.004,0.009-0.004,0.009-0.004l0.016-0.013l0.021-0.007
			c0,0,0,0,0.008-0.004h0.012l0.016-0.01c0-0.004,0-0.004,0-0.004l0.023-0.006h0.006h0.021v-0.011h0.012h0.017h0.004
			c0.01-0.009,0.01-0.009,0.01-0.009h0.016h0.021h0.018H41.7h0.008h0.008c0,0,0.006,0,0.025,0.009h0.004h0.012h0.019
			c0.012,0.011,0.041,0.017,0.051,0.021c0,0,0.033,0.014,0.045,0.021h0.004c0,0.005,0.009,0.013,0.009,0.013l0.021,0.004
			l0.004,0.012c0,0,0.017,0,0.017,0.006l0.018,0.013h0.012c0.016,0.019,0.041,0.04,0.062,0.062l0.01,0.02l0.027,0.012
			c0,0.008,0,0.008,0,0.008v0.004l0.008,0.02l0.004,0.005c0,0,0,0.007,0.014,0.011c0,0.006,0,0.006,0,0.006
			c0.008,0.008,0.008,0.012,0.008,0.023l0.996,1.941l0.975-1.941c0-0.016,0-0.023,0-0.029c0.027-0.004,0.027-0.011,0.027-0.011
			s0,0,0-0.005l0.008-0.02c0,0,0-0.004,0.011-0.012l0.016-0.012l0.019-0.02c0.014-0.021,0.041-0.043,0.062-0.062l0.012-0.013l0,0
			c0.009-0.006,0.021-0.006,0.021-0.006l0.02-0.012l0.006-0.004c0,0,0.012-0.008,0.012-0.013h0.015
			c0.006-0.007,0.022-0.021,0.031-0.021c0.016-0.004,0.032-0.004,0.032-0.004c0.021-0.006,0.021-0.013,0.033-0.017h0.012h0.015
			h0.021c0-0.009,0-0.009,0-0.009h0.008h0.024h0.025h0.012h0.029c0,0,0.024,0,0.024,0.009h0.008h0.025l0.004,0.011h0.014l0,0
			l0.021,0.006c0,0,0.021,0,0.021,0.004l0.018,0.01c0,0,0.006,0,0.006,0.004h0.01l0.011,0.007v0.013c0,0,0.024,0,0.024,0.004
			l0.012,0.012l0.017,0.006l0,0c0.017,0,0.017,0.013,0.024,0.013l0.011,0.019c0,0,0.021,0.006,0.021,0.016
			c0.021,0.014,0.047,0.037,0.06,0.061l0.022,0.012v0.02c0,0.006,0,0.006,0,0.012c0,0,0.014,0,0.014,0.004l0.003,0.006
			c0,0.008,0,0.012,0.006,0.023c0.018,0.021,0.028,0.053,0.028,0.083c0,0.015,0,0.022,0.009,0.028v0.011v0.013
			c0,0.006,0,0.006,0.012,0.012v0.004v0.009v0.028v0.017v5.205L44.946,32.434L44.946,32.434z"/>
		<path fill="#5F9305" d="M48.501,32.088c0.103,0.099,0.146,0.203,0.146,0.338c0,0.127-0.045,0.238-0.146,0.33
			c-0.092,0.095-0.203,0.142-0.334,0.142h-1.918c-0.131,0-0.24-0.047-0.344-0.142c-0.084-0.092-0.129-0.203-0.129-0.33v-5.197
			c0-0.135,0.045-0.242,0.129-0.331c0.105-0.093,0.213-0.14,0.344-0.14h1.918c0.131,0,0.242,0.047,0.334,0.14
			c0.103,0.089,0.146,0.196,0.146,0.331c0,0.141-0.045,0.24-0.146,0.338c-0.092,0.092-0.203,0.127-0.334,0.127h-1.438v1.98h0.995
			c0.13,0,0.238,0.043,0.328,0.142c0.099,0.095,0.148,0.198,0.148,0.332c0,0.128-0.053,0.237-0.148,0.332
			c-0.09,0.099-0.198,0.14-0.328,0.14h-0.995v1.336h1.438C48.298,31.956,48.407,31.997,48.501,32.088z"/>
		<path fill="#5F9305" d="M52.325,26.905c0.105,0.086,0.145,0.194,0.145,0.342c0,0.129-0.039,0.237-0.145,0.326
			c-0.086,0.098-0.186,0.139-0.316,0.139h-0.737v4.715c0,0.127-0.043,0.238-0.142,0.33c-0.084,0.095-0.197,0.142-0.338,0.142
			c-0.117,0-0.232-0.047-0.313-0.142c-0.103-0.092-0.146-0.203-0.146-0.33v-4.715h-0.746c-0.137,0-0.233-0.041-0.323-0.139
			c-0.104-0.089-0.15-0.197-0.15-0.326c0-0.146,0.047-0.256,0.15-0.342c0.09-0.089,0.188-0.134,0.323-0.134h2.425
			C52.14,26.772,52.239,26.816,52.325,26.905z"/>
		<path fill="#5F9305" d="M55.733,32.088c0.104,0.099,0.129,0.203,0.129,0.338c0,0.127-0.025,0.238-0.129,0.33
			c-0.09,0.095-0.209,0.142-0.332,0.142h-1.93c-0.125,0-0.23-0.047-0.33-0.142c-0.078-0.092-0.125-0.203-0.125-0.33v-5.197
			c0-0.135,0.047-0.242,0.125-0.331c0.1-0.093,0.207-0.14,0.33-0.14h1.93c0.123,0,0.242,0.047,0.332,0.14
			c0.104,0.089,0.129,0.196,0.129,0.331c0,0.141-0.025,0.24-0.129,0.338c-0.09,0.092-0.209,0.127-0.332,0.127h-1.453v1.98h1.002
			c0.137,0,0.248,0.043,0.338,0.142c0.092,0.095,0.121,0.198,0.121,0.332c0,0.128-0.029,0.237-0.121,0.332
			c-0.092,0.099-0.201,0.14-0.338,0.14h-1.002v1.336h1.453C55.524,31.956,55.645,31.997,55.733,32.088z"/>
		<path fill="#5F9305" d="M59.81,32.234c0.056,0.114,0.056,0.235,0,0.358c-0.047,0.129-0.125,0.209-0.239,0.263
			c-0.072,0.022-0.14,0.041-0.203,0.041c-0.08,0-0.168-0.022-0.242-0.073c-0.084-0.048-0.147-0.123-0.18-0.209L58.07,30.62h-0.476
			v1.809c0,0.125-0.032,0.238-0.133,0.33c-0.09,0.094-0.207,0.141-0.336,0.141c-0.127,0-0.24-0.047-0.338-0.141
			c-0.096-0.092-0.121-0.205-0.121-0.33v-5.18c0-0.133,0.025-0.252,0.121-0.338c0.098-0.094,0.211-0.139,0.338-0.139h1.139
			c0.199,0,0.396,0.057,0.582,0.172c0.179,0.109,0.341,0.275,0.466,0.475c0.241,0.375,0.362,0.795,0.362,1.275
			c0,0.23-0.035,0.454-0.102,0.668c-0.055,0.217-0.146,0.412-0.262,0.6c-0.049,0.074-0.104,0.154-0.156,0.205
			c-0.066,0.062-0.115,0.127-0.178,0.178L59.81,32.234z M58.265,29.674c0,0,0.062-0.016,0.103-0.051
			c0.056-0.033,0.103-0.092,0.154-0.174c0.062-0.105,0.118-0.227,0.166-0.355c0.022-0.127,0.034-0.266,0.034-0.4
			c0-0.139-0.012-0.266-0.034-0.398c-0.048-0.143-0.104-0.264-0.166-0.369c-0.054-0.068-0.103-0.125-0.154-0.162
			c-0.039-0.033-0.078-0.051-0.078-0.051h-0.692v1.963L58.265,29.674L58.265,29.674z"/>
		<path fill="#5F9305" d="M63.099,30.021c0.314,0.39,0.468,0.835,0.468,1.353c0,0.164-0.011,0.314-0.052,0.443
			c-0.034,0.129-0.08,0.242-0.131,0.342c-0.045,0.094-0.106,0.182-0.162,0.256c-0.063,0.076-0.129,0.139-0.186,0.189
			c-0.295,0.234-0.662,0.35-1.08,0.35c-0.201,0-0.395-0.027-0.562-0.08c-0.189-0.063-0.337-0.149-0.479-0.27
			c-0.053-0.053-0.111-0.107-0.17-0.178c-0.07-0.078-0.117-0.164-0.174-0.27c-0.045-0.092-0.07-0.203-0.109-0.338
			c-0.041-0.127-0.059-0.283-0.059-0.453c0-0.127,0.053-0.244,0.148-0.324c0.078-0.098,0.192-0.141,0.328-0.141
			c0.133,0,0.241,0.043,0.323,0.141c0.103,0.08,0.144,0.197,0.144,0.324c0,0.084,0.016,0.151,0.02,0.229
			c0.014,0.08,0.047,0.146,0.092,0.209c0.039,0.059,0.096,0.111,0.182,0.15c0.084,0.041,0.183,0.057,0.316,0.057
			c0.104,0,0.193-0.01,0.271-0.032c0.082-0.024,0.147-0.06,0.199-0.106c0.137-0.107,0.194-0.277,0.194-0.498
			c0-0.158-0.026-0.297-0.059-0.42c-0.048-0.119-0.115-0.23-0.188-0.33c-0.078-0.105-0.184-0.197-0.305-0.291
			c-0.115-0.099-0.25-0.19-0.395-0.297c-0.129-0.097-0.267-0.191-0.408-0.291c-0.121-0.109-0.246-0.219-0.383-0.353
			c-0.121-0.169-0.238-0.341-0.289-0.524c-0.078-0.181-0.099-0.377-0.099-0.586c0-0.035,0-0.093,0-0.174
			c0-0.09,0.006-0.184,0.039-0.292c0.015-0.114,0.06-0.22,0.104-0.347c0.062-0.118,0.137-0.241,0.244-0.348
			c0.082-0.098,0.223-0.189,0.396-0.283c0.18-0.092,0.414-0.146,0.692-0.146c0.289,0,0.521,0.055,0.691,0.15
			c0.16,0.088,0.307,0.193,0.381,0.293c0.107,0.119,0.18,0.242,0.228,0.377c0.062,0.136,0.084,0.255,0.104,0.367
			c0.007,0.115,0.015,0.213,0.007,0.299c0,0.076,0,0.13-0.007,0.146c-0.02,0.09-0.041,0.176-0.104,0.229
			c-0.041,0.062-0.093,0.115-0.171,0.15c-0.057,0.049-0.159,0.049-0.284,0.02c-0.115-0.02-0.197-0.055-0.252-0.111
			c-0.052-0.059-0.084-0.111-0.103-0.168c-0.026-0.064-0.041-0.117-0.026-0.164c0-0.048,0-0.082,0-0.086
			c0.008-0.02,0.008-0.053,0.008-0.087c0-0.043-0.008-0.084-0.008-0.118c-0.015-0.045-0.037-0.086-0.037-0.127
			c-0.015-0.041-0.033-0.074-0.066-0.109c-0.057-0.076-0.178-0.123-0.358-0.123c-0.146,0-0.234,0.027-0.299,0.058
			c-0.045,0.042-0.078,0.065-0.101,0.081c-0.031,0.037-0.062,0.076-0.08,0.128c-0.016,0.048-0.039,0.095-0.039,0.134
			c-0.014,0.055-0.021,0.094-0.021,0.123c-0.012,0.041-0.012,0.061-0.012,0.08v0.014v0.01c0,0.111,0.02,0.213,0.057,0.293
			c0.035,0.086,0.09,0.162,0.158,0.244c0.063,0.074,0.133,0.146,0.252,0.221c0.092,0.086,0.199,0.162,0.336,0.257
			c0.143,0.104,0.289,0.214,0.438,0.336C62.827,29.729,62.974,29.864,63.099,30.021z"/>
		<path fill="#5F9305" d="M19.222,36.392c0.056,0.062,0.074,0.127,0.102,0.194c0.007,0.076,0,0.15-0.014,0.222l-1.479,5.136
			c-0.027,0.104-0.092,0.186-0.181,0.243c-0.081,0.067-0.177,0.095-0.288,0.095H17.3c-0.02,0-0.033,0-0.059-0.015
			c-0.124-0.033-0.215-0.108-0.284-0.22c-0.053-0.119-0.071-0.239-0.041-0.36l1.31-4.534h-1.703c-0.129,0-0.247-0.046-0.335-0.141
			c-0.091-0.094-0.145-0.204-0.145-0.332c0-0.127,0.054-0.241,0.145-0.336c0.088-0.094,0.207-0.143,0.335-0.143h2.328
			C19.005,36.204,19.13,36.273,19.222,36.392z"/>
		<path fill="#5F9305" d="M20.109,41.29c0.11-0.033,0.237-0.021,0.366,0.047c0.108,0.07,0.173,0.158,0.219,0.285
			c0.029,0.123,0.011,0.246-0.051,0.358l-0.559,0.97c-0.058,0.121-0.16,0.188-0.287,0.229c-0.134,0.029-0.238,0.013-0.348-0.051
			c-0.129-0.072-0.205-0.166-0.229-0.287c-0.043-0.127-0.016-0.248,0.055-0.354l0.549-0.979
			C19.898,41.403,19.987,41.327,20.109,41.29z"/>
		<path fill="#5F9305" d="M24.116,37.855c0.109,0.722-0.113,1.655-0.678,2.804c-0.109,0.209-0.208,0.395-0.303,0.561
			c-0.097,0.188-0.194,0.339-0.266,0.466c-0.08,0.136-0.148,0.231-0.2,0.31c-0.045,0.082-0.079,0.114-0.079,0.121
			c-0.039,0.069-0.104,0.127-0.183,0.155c-0.063,0.034-0.134,0.054-0.215,0.054c-0.086,0-0.185-0.033-0.265-0.093
			c-0.102-0.069-0.166-0.177-0.191-0.304c-0.023-0.123,0-0.235,0.076-0.348c0.101-0.143,0.175-0.272,0.249-0.396
			c0.083-0.121,0.163-0.263,0.25-0.431c0.09-0.158,0.185-0.332,0.276-0.52c0.11-0.219,0.211-0.438,0.287-0.645
			c-0.088,0.027-0.183,0.051-0.287,0.064c-0.09,0.016-0.203,0.021-0.311,0.021h-0.007c-0.179,0-0.345-0.014-0.485-0.053
			c-0.137-0.035-0.268-0.084-0.368-0.146c-0.116-0.062-0.207-0.129-0.288-0.199c-0.092-0.066-0.15-0.139-0.189-0.201
			c-0.117-0.135-0.19-0.27-0.24-0.396c-0.029-0.117-0.056-0.203-0.061-0.238c-0.029-0.146-0.056-0.293-0.056-0.436
			c0.025-0.152,0.044-0.299,0.061-0.449c0.089-0.332,0.219-0.615,0.417-0.85c0.15-0.18,0.326-0.31,0.56-0.406
			c0.228-0.098,0.485-0.139,0.75-0.109c0.49,0.035,0.874,0.176,1.154,0.449c0.287,0.26,0.476,0.654,0.586,1.189L24.116,37.855z
			 M23.041,38.42c0.039-0.049,0.065-0.094,0.097-0.137c0.032-0.039,0.059-0.08,0.059-0.109c0-0.021,0-0.053,0-0.08
			c0-0.043,0-0.062-0.021-0.094c-0.023-0.168-0.076-0.313-0.127-0.418c-0.045-0.104-0.104-0.199-0.166-0.264
			c-0.076-0.064-0.156-0.104-0.254-0.133c-0.078-0.029-0.195-0.041-0.312-0.062c-0.224-0.01-0.408,0.062-0.545,0.211
			c-0.093,0.1-0.169,0.246-0.197,0.42c-0.035,0.176-0.05,0.348-0.015,0.514l0.015,0.004c0,0.02,0.012,0.047,0.024,0.1
			c0.014,0.049,0.057,0.1,0.104,0.152c0.129,0.143,0.311,0.213,0.574,0.213C22.613,38.734,22.864,38.622,23.041,38.42z"/>
		<path fill="#5F9305" d="M27.044,41.521c0.092,0.097,0.129,0.205,0.129,0.334c0,0.142-0.037,0.25-0.129,0.332
			c-0.091,0.099-0.208,0.146-0.343,0.146h-2.043c-0.129,0-0.239-0.047-0.329-0.146c-0.089-0.082-0.145-0.19-0.145-0.332
			c0-0.129,0.056-0.237,0.145-0.334c0.089-0.091,0.2-0.132,0.329-0.132h0.569V37.81L25.039,38c-0.097,0.094-0.203,0.135-0.335,0.135
			c-0.131,0-0.246-0.041-0.327-0.135c-0.093-0.094-0.136-0.197-0.136-0.334c0-0.133,0.042-0.242,0.136-0.33l0.987-0.998
			c0.064-0.063,0.154-0.104,0.25-0.129c0.1-0.022,0.189-0.012,0.268,0.023c0.09,0.039,0.168,0.098,0.221,0.174
			c0.037,0.084,0.078,0.17,0.078,0.256v4.727h0.522C26.836,41.389,26.951,41.43,27.044,41.521z"/>
		<path fill="#5F9305" d="M30.599,40.819c0,0.027,0,0.053,0,0.077v0.037c-0.023,0.36-0.127,0.653-0.312,0.888
			c-0.237,0.288-0.562,0.471-0.999,0.538c-0.1,0.022-0.222,0.028-0.346,0.028h-0.025h-0.039c-0.115,0-0.225-0.006-0.335-0.028
			c-0.446-0.067-0.771-0.25-1.005-0.538c-0.209-0.275-0.312-0.63-0.312-1.07c0-0.773,0.168-1.342,0.547-1.717l0.021-0.017
			c-0.116-0.134-0.2-0.304-0.256-0.492c-0.022-0.112-0.049-0.233-0.062-0.375c-0.015-0.138-0.019-0.291-0.019-0.47v-0.064
			c0-0.054,0-0.115,0-0.195c0-0.088,0.011-0.174,0.038-0.273c0.02-0.107,0.059-0.209,0.098-0.312c0.055-0.1,0.106-0.199,0.2-0.297
			c0.089-0.098,0.222-0.195,0.388-0.291c0.176-0.1,0.4-0.146,0.696-0.146h0.039h0.025c0.29,0,0.514,0.049,0.688,0.146
			c0.172,0.096,0.297,0.193,0.393,0.291c0.078,0.098,0.15,0.197,0.188,0.297c0.043,0.104,0.09,0.205,0.104,0.312
			c0.024,0.102,0.039,0.188,0.039,0.273c0,0.08,0,0.145,0,0.195c0,0.037,0,0.061,0,0.064c0,0.179-0.011,0.332-0.015,0.47
			c-0.024,0.142-0.039,0.263-0.086,0.375c-0.043,0.188-0.121,0.358-0.219,0.492l0.014,0.017c0.36,0.369,0.549,0.938,0.549,1.717
			v0.068H30.599z M29.645,40.75c0-0.512-0.085-0.873-0.271-1.068c-0.107-0.1-0.262-0.17-0.457-0.197
			c-0.232,0.027-0.385,0.1-0.464,0.197c-0.202,0.195-0.299,0.557-0.299,1.068v0.035c0.015,0.016,0.015,0.062,0.026,0.139
			c0.033,0.07,0.062,0.152,0.111,0.232c0.096,0.155,0.239,0.256,0.432,0.284c0,0,0.058,0,0.096,0
			c0.021,0.005,0.061,0.005,0.099,0.005c0,0,0.062,0,0.093-0.005c0.037,0,0.058-0.006,0.086-0.011
			c0.191-0.023,0.347-0.122,0.439-0.293c0.049-0.059,0.067-0.114,0.096-0.18c0.004-0.062,0.013-0.1,0.013-0.127V40.75z
			 M28.395,37.721c0,0.141,0.011,0.255,0.011,0.35c0.029,0.086,0.05,0.155,0.056,0.204c0.005,0.054,0.02,0.099,0.024,0.123
			c0.02,0.017,0.025,0.032,0.025,0.032c0.045,0.029,0.09,0.054,0.16,0.054c0.073,0.013,0.149,0.019,0.246,0.022
			c0.064-0.006,0.149-0.012,0.219-0.022c0.078,0,0.131-0.022,0.152-0.054c0,0,0.012-0.018,0.032-0.032
			c0.017-0.024,0.03-0.069,0.047-0.129c0.006-0.062,0.022-0.134,0.037-0.231c0-0.094,0.015-0.222,0.015-0.369
			c0-0.01,0-0.016,0-0.021v-0.043l0,0v-0.01c0-0.053-0.015-0.115-0.027-0.199c-0.022-0.096-0.061-0.166-0.116-0.225
			c-0.019-0.012-0.047-0.043-0.104-0.068c-0.059-0.039-0.137-0.059-0.253-0.062c-0.137,0.006-0.224,0.023-0.276,0.062
			c-0.039,0.025-0.084,0.059-0.099,0.068c-0.063,0.059-0.089,0.129-0.116,0.225c-0.021,0.084-0.033,0.146-0.033,0.199v0.01
			C28.404,37.653,28.404,37.68,28.395,37.721z"/>
		<path fill="#5F9305" d="M38.526,41.855c0,0.127-0.051,0.239-0.129,0.325c-0.096,0.091-0.213,0.145-0.334,0.145
			c-0.131,0-0.248-0.054-0.344-0.145c-0.084-0.086-0.14-0.198-0.14-0.325v-3.239l-0.496,0.979c-0.03,0.109-0.11,0.197-0.223,0.244
			c-0.062,0.033-0.12,0.053-0.196,0.053h-0.007H36.65h-0.006H36.64c-0.068,0-0.144-0.02-0.209-0.053
			c-0.096-0.047-0.181-0.135-0.22-0.244l-0.493-0.979v3.237c0,0.127-0.058,0.239-0.136,0.325c-0.089,0.093-0.211,0.146-0.343,0.146
			c-0.12,0-0.23-0.054-0.326-0.146c-0.099-0.086-0.138-0.198-0.138-0.325v-5.194v-0.025v-0.025v-0.012v-0.01v-0.004c0,0,0,0,0-0.006
			v-0.013v-0.011v-0.02c0.014,0,0.014,0,0.014-0.006c0-0.027,0.013-0.062,0.025-0.09v-0.01c0,0,0.024,0,0.024-0.006v-0.004
			l0.002-0.014c0-0.007,0-0.007,0.012-0.018v-0.006l0.021-0.014c0.009-0.014,0.017-0.023,0.024-0.033
			c0-0.012,0.016-0.022,0.027-0.031l0.004-0.016h0.013l0.011-0.006c0,0,0.005,0,0.005-0.008h0.005
			c0.006-0.006,0.006-0.006,0.006-0.006c0.008-0.008,0.021-0.02,0.021-0.02v-0.004l0.019-0.006l0.008-0.013h0.015
			c0,0,0.012-0.007,0.024-0.013h0.006l0,0c0,0,0.021,0,0.024-0.012c0-0.008,0-0.008,0-0.008s0.023,0,0.031-0.004h0.003h0.016
			l0.017-0.012l0,0h0.011h0.012c0-0.006,0.012-0.006,0.012-0.006h0.007h0.039h0.011h0.027h0.021l0,0c0,0,0.013,0,0.019,0.006h0.021
			h0.007h0.012c0.021,0.012,0.047,0.016,0.059,0.021c0.021,0.012,0.023,0.012,0.045,0.021h0.007h0.015
			c0.006,0.014,0.006,0.014,0.006,0.014l0.021,0.006c0,0,0,0.004,0.015,0.004l0.011,0.024h0.009c0.02,0.013,0.044,0.034,0.062,0.06
			l0.012,0.01l0.021,0.023l0,0c0,0,0,0.006,0,0.014l0.021,0.006v0.01c0,0.006,0.005,0.016,0.005,0.016c0,0.01,0.006,0.01,0.006,0.01
			c0,0.006,0,0.015,0,0.015l0.995,1.944l0.996-1.944c0-0.009,0-0.015,0-0.019c0,0,0.006-0.016,0.006-0.021c0,0,0,0,0-0.01
			l0.017-0.006c0-0.008,0-0.014,0.006-0.014l0.018-0.023l0.018-0.01c0.01-0.023,0.037-0.047,0.066-0.06l0.016-0.024H37.8v-0.004
			l0.021-0.006c0,0,0.016,0,0.016-0.014h0.013h0.014c0.01-0.012,0.02-0.012,0.031-0.021c0.026-0.009,0.026-0.009,0.045-0.013
			c0,0,0.02-0.006,0.027-0.013l0,0h0.012h0.02c0-0.004,0-0.004,0-0.004h0.023h0.012h0.037h0.018h0.025c0,0,0.014,0,0.021,0.004
			h0.006h0.018l0.014,0.013h0.014h0.013l0.021,0.004c0,0,0,0,0,0.009c0.014,0.012,0.014,0.012,0.014,0.012s0.006,0,0.021,0h0.005
			l0.014,0.014l0,0l0.024,0.012c0.017,0.006,0.017,0.006,0.017,0.006l0.018,0.004v0.021c0.006,0,0.006,0,0.025,0.006l0.018,0.013
			c0,0,0,0.004,0,0.016c0.041,0.021,0.062,0.041,0.074,0.064l0.004,0.014v0.006c0.014,0.01,0.014,0.01,0.014,0.016v0.016
			l0.015,0.004c0,0.006,0,0.015,0.008,0.015c0.01,0.028,0.024,0.062,0.037,0.09c0,0.007,0,0.024,0.012,0.024v0.011v0.015
			c0,0.004,0,0.01,0,0.01v0.01v0.01v0.027v0.025v5.198H38.526z"/>
		<path fill="#5F9305" d="M39.864,36.183c0.133,0,0.246,0.051,0.332,0.133c0.098,0.101,0.135,0.209,0.135,0.345v5.194
			c0,0.127-0.037,0.239-0.135,0.325c-0.086,0.091-0.199,0.145-0.332,0.145c-0.139,0-0.244-0.054-0.334-0.145
			c-0.104-0.086-0.137-0.198-0.137-0.325v-5.194c0-0.136,0.033-0.244,0.137-0.345C39.62,36.234,39.726,36.183,39.864,36.183z"/>
		<path fill="#5F9305" d="M44.3,41.517c0.086,0.097,0.125,0.196,0.125,0.338c0,0.127-0.039,0.239-0.125,0.325
			c-0.092,0.091-0.209,0.145-0.334,0.145h-2.057c-0.133,0-0.254-0.054-0.33-0.145c-0.096-0.086-0.139-0.198-0.139-0.325v-5.194
			c0-0.136,0.043-0.244,0.139-0.345c0.076-0.082,0.197-0.133,0.33-0.133c0.127,0,0.242,0.051,0.336,0.133
			c0.09,0.101,0.143,0.209,0.143,0.345v4.725h1.578C44.089,41.383,44.208,41.424,44.3,41.517z"/>
		<path fill="#5F9305" d="M48.081,41.506c0.086,0.093,0.146,0.207,0.146,0.336s-0.062,0.242-0.146,0.332
			c-0.094,0.093-0.209,0.14-0.332,0.14h-1.93c-0.127,0-0.23-0.047-0.328-0.14c-0.092-0.09-0.143-0.203-0.143-0.332v-5.194
			c0-0.129,0.051-0.245,0.143-0.332c0.096-0.095,0.199-0.142,0.328-0.142h1.93c0.123,0,0.238,0.047,0.332,0.142
			c0.086,0.087,0.146,0.203,0.146,0.332c0,0.14-0.062,0.248-0.146,0.336c-0.094,0.087-0.209,0.134-0.332,0.134h-1.455v1.981h1.01
			c0.127,0,0.238,0.04,0.326,0.133c0.094,0.095,0.14,0.209,0.14,0.339c0,0.12-0.046,0.239-0.14,0.332
			c-0.088,0.088-0.199,0.135-0.326,0.135h-1.01v1.338h1.455C47.872,41.374,47.987,41.417,48.081,41.506z"/>
		<path fill="#5F9305" d="M51.604,39.441c0.303,0.384,0.459,0.839,0.459,1.354c0,0.162-0.027,0.311-0.054,0.438
			c-0.037,0.127-0.071,0.246-0.137,0.344c-0.055,0.098-0.104,0.191-0.152,0.256c-0.071,0.072-0.135,0.141-0.209,0.191
			c-0.282,0.236-0.633,0.359-1.053,0.359c-0.211,0-0.398-0.041-0.568-0.094c-0.188-0.058-0.336-0.152-0.479-0.269
			c-0.053-0.041-0.117-0.104-0.184-0.181c-0.051-0.076-0.109-0.155-0.16-0.26c-0.045-0.1-0.084-0.209-0.115-0.348
			c-0.033-0.131-0.049-0.277-0.049-0.445c0-0.133,0.049-0.236,0.139-0.33c0.092-0.096,0.193-0.143,0.322-0.143
			c0.139,0,0.268,0.047,0.336,0.143c0.096,0.094,0.156,0.197,0.156,0.33c0,0.082,0,0.152,0.008,0.229
			c0.012,0.073,0.043,0.144,0.082,0.194c0.039,0.07,0.104,0.123,0.195,0.17c0.065,0.027,0.176,0.047,0.315,0.047
			c0.093,0,0.175-0.006,0.267-0.028c0.067-0.019,0.143-0.063,0.201-0.104c0.125-0.109,0.186-0.277,0.186-0.5
			c0-0.156-0.014-0.303-0.061-0.424c-0.037-0.117-0.103-0.23-0.185-0.332c-0.078-0.104-0.178-0.201-0.301-0.297
			c-0.109-0.086-0.25-0.181-0.396-0.289c-0.129-0.095-0.266-0.187-0.4-0.289c-0.129-0.104-0.262-0.217-0.372-0.353
			c-0.138-0.168-0.242-0.343-0.318-0.521c-0.06-0.18-0.098-0.385-0.098-0.596c0-0.029,0-0.087,0.006-0.173
			c0-0.088,0.008-0.181,0.032-0.293c0.021-0.108,0.06-0.22,0.117-0.349c0.06-0.117,0.129-0.225,0.248-0.35
			c0.088-0.086,0.22-0.188,0.396-0.283c0.178-0.092,0.403-0.133,0.696-0.133c0.289,0,0.511,0.041,0.671,0.137
			c0.184,0.094,0.303,0.199,0.409,0.299c0.091,0.115,0.168,0.25,0.211,0.384c0.05,0.127,0.086,0.256,0.099,0.36
			c0.026,0.121,0.031,0.215,0.026,0.295c-0.021,0.088-0.021,0.138-0.026,0.15c-0.013,0.096-0.049,0.17-0.099,0.23
			c-0.039,0.062-0.096,0.113-0.159,0.152c-0.068,0.035-0.168,0.047-0.293,0.014c-0.111-0.014-0.191-0.053-0.252-0.104
			c-0.052-0.062-0.082-0.123-0.109-0.178c-0.021-0.057-0.028-0.115-0.021-0.162c0-0.045,0-0.072,0-0.086
			c0.006-0.023,0.006-0.049,0.006-0.088c0-0.035,0-0.074-0.006-0.115c-0.015-0.041-0.023-0.082-0.041-0.129
			c-0.017-0.033-0.033-0.074-0.064-0.109c-0.061-0.076-0.182-0.115-0.35-0.115c-0.146,0-0.244,0.018-0.299,0.054
			c-0.06,0.039-0.105,0.062-0.107,0.082c-0.029,0.039-0.072,0.08-0.088,0.118c-0.01,0.061-0.025,0.102-0.037,0.143
			c-0.02,0.053-0.021,0.086-0.021,0.129c0,0.032,0,0.057,0,0.073v0.017v0.014c0,0.111,0.021,0.205,0.062,0.291
			c0.032,0.08,0.088,0.164,0.155,0.236c0.062,0.084,0.127,0.156,0.234,0.229c0.102,0.074,0.219,0.164,0.34,0.25
			c0.15,0.104,0.297,0.215,0.453,0.344C51.325,39.146,51.458,39.28,51.604,39.441z"/>
		<g>
			<path fill="#5F9305" d="M24.929,47.801c0.043,0.039,0.067,0.097,0.067,0.162c0,0.07-0.026,0.123-0.067,0.174
				c-0.039,0.046-0.104,0.062-0.16,0.062h-0.09l0.033,0.07c0.043,0.053,0.057,0.113,0.043,0.188
				c-0.025,0.057-0.07,0.107-0.123,0.146c-0.039,0.011-0.08,0.022-0.115,0.022c0,0-0.084-0.014-0.112-0.022
				c-0.05-0.028-0.067-0.062-0.089-0.095l-0.04-0.069l-0.044,0.069c-0.025,0.033-0.059,0.064-0.09,0.095
				c-0.03,0.011-0.077,0.022-0.123,0.022c0,0-0.071-0.014-0.123-0.022c-0.043-0.037-0.09-0.091-0.11-0.146
				c-0.012-0.072-0.007-0.123,0.032-0.188l0.046-0.07h-0.09c-0.056,0-0.117-0.018-0.167-0.062c-0.045-0.051-0.055-0.104-0.055-0.174
				c0-0.065,0.01-0.123,0.055-0.162c0.05-0.053,0.111-0.069,0.167-0.069h0.09l-0.046-0.075c-0.039-0.048-0.044-0.109-0.032-0.181
				c0.021-0.058,0.065-0.104,0.11-0.136c0.066-0.035,0.123-0.045,0.19-0.021c0.064,0.012,0.102,0.053,0.14,0.104l0.033,0.076
				l0.058-0.076c0.026-0.053,0.077-0.094,0.138-0.104c0.062-0.021,0.12-0.014,0.182,0.012c0.052,0.041,0.096,0.09,0.103,0.146
				c0.026,0.07,0.021,0.129-0.022,0.182l-0.033,0.076h0.09C24.824,47.732,24.89,47.749,24.929,47.801z"/>
			<path fill="#5F9305" d="M25.804,47.219c0.062,0,0.119,0.02,0.166,0.07c0.045,0.039,0.064,0.1,0.064,0.162v2.598
				c0,0.07-0.021,0.123-0.064,0.17c-0.047,0.045-0.104,0.066-0.166,0.066c-0.065,0-0.125-0.021-0.17-0.066
				c-0.045-0.047-0.07-0.1-0.07-0.17v-2.598c0-0.062,0.025-0.123,0.07-0.162C25.679,47.237,25.737,47.219,25.804,47.219z"/>
			<path fill="#5F9305" d="M27.839,47.219c0.064,0,0.137,0.02,0.176,0.07c0.043,0.039,0.064,0.1,0.064,0.162v2.592v0.023v0.006
				v0.006v0.006v0.006l0,0v0.006v0.007c0,0.004-0.009,0.004-0.009,0.019l0,0v0.006h-0.005c0,0,0,0,0,0.006c0,0,0,0,0,0.004
				l-0.008,0.01v0.004l0,0v0.004v0.008h-0.004v0.008c0,0.006,0,0.006,0,0.006l-0.014,0.006v0.005l0,0L28.026,50.2l0,0
				c0,0,0,0,0,0.004l0,0l-0.012,0.006v0.006l-0.008,0.014l-0.017,0.006l0,0v0.004c-0.011,0-0.011,0-0.011,0l-0.006,0.016l0,0v0.004
				H27.96l0,0l-0.021,0.013l-0.025,0.009c0,0.004-0.013,0.004-0.013,0.004s-0.03,0.01-0.064,0.01l-0.031-0.01h-0.013l0,0l0,0l0,0
				V50.28h-0.021l-0.016-0.011l0,0h-0.008c0,0-0.013-0.007-0.013-0.013l0,0c0,0-0.015,0-0.015-0.004l0,0h-0.004l0,0
				c-0.021-0.024-0.058-0.049-0.068-0.076V50.17v-0.008l0,0v-0.008c-0.008-0.004-0.008-0.004-0.008-0.004l-0.015-0.004l-0.661-1.555
				v1.459c0,0.07-0.031,0.123-0.078,0.17c-0.041,0.045-0.094,0.066-0.172,0.066c-0.048,0-0.115-0.021-0.162-0.066
				c-0.047-0.047-0.078-0.1-0.078-0.17v-2.594v-0.014V47.43v-0.008v-0.004l0.014-0.008v-0.008v-0.006v-0.004l0.011-0.006l0,0
				c0-0.008,0-0.008,0-0.008h0.005c0-0.006,0-0.012,0-0.012s0.004,0,0.004-0.004l0,0c0-0.009,0-0.015,0-0.015l0,0v-0.007v-0.006
				l0.015-0.012l0,0l0,0v-0.004v-0.008c0,0,0.008,0,0.008-0.008l0,0c0-0.006,0-0.006,0-0.006l0,0h0.019c0-0.006,0-0.006,0-0.006
				l0.006-0.01v-0.009l0.02-0.006l0,0l0,0l0,0l0.006-0.011l0.021-0.014l0,0v-0.004l0,0l0,0h0.012l0.013-0.014
				c0.015-0.006,0.025-0.018,0.025-0.018h0.028h0.022h0.046h0.008h0.004l0,0h0.009l0,0l0.013,0.004l0,0h0.014l0,0
				c0,0.008,0.014,0.008,0.014,0.008c0.008,0.006,0.008,0.006,0.008,0.006l0,0h0.006v0.006c0,0,0.018,0,0.018,0.008l0,0h0.012l0,0
				v0.004l0.007,0.006v0.008h0.016h0.005v0.011h0.008l0,0l0,0l0.004,0.006l0,0v0.009v0.006l0.014,0.01v0.006
				c0,0.008,0.014,0.008,0.014,0.008s0.006,0,0.006,0.008v0.004l0,0v0.012c0,0,0.015,0,0.015,0.006l0,0c0,0.007,0,0.007,0,0.007
				s0,0.006,0,0.015l0.667,1.551V47.45c0-0.062,0.025-0.123,0.076-0.162C27.722,47.237,27.794,47.219,27.839,47.219z"/>
			<path fill="#5F9305" d="M31.677,47.398c0.062,0.06,0.106,0.13,0.164,0.229c0.045,0.099,0.07,0.228,0.07,0.383v1.48
				c0,0.164-0.025,0.283-0.07,0.383c-0.058,0.103-0.104,0.17-0.164,0.223c-0.139,0.128-0.302,0.189-0.488,0.189h-0.297h-0.213
				c-0.065,0-0.123-0.021-0.183-0.066c-0.041-0.047-0.058-0.1-0.058-0.17v-2.598c0-0.062,0.018-0.123,0.058-0.162
				c0.06-0.055,0.116-0.07,0.183-0.07h0.213h0.297C31.375,47.219,31.538,47.278,31.677,47.398z M31.44,48.01
				c0-0.075-0.014-0.137-0.036-0.17c-0.011-0.047-0.028-0.076-0.062-0.098c-0.024-0.025-0.054-0.041-0.084-0.047
				c-0.033-0.008-0.059-0.008-0.059-0.008h-0.285v2.117h0.271c0,0,0.039,0,0.07,0c0.031-0.014,0.061-0.031,0.086-0.047
				c0.03-0.02,0.049-0.053,0.061-0.096c0.023-0.041,0.036-0.099,0.036-0.174L31.44,48.01L31.44,48.01z"/>
			<path fill="#5F9305" d="M32.599,47.219c0.065,0,0.131,0.02,0.16,0.07c0.054,0.039,0.075,0.1,0.075,0.162v2.598
				c0,0.07-0.021,0.123-0.075,0.17c-0.028,0.045-0.094,0.066-0.16,0.066c-0.064,0-0.123-0.021-0.162-0.066
				c-0.051-0.047-0.064-0.1-0.064-0.17v-2.598c0-0.062,0.016-0.123,0.064-0.162C32.476,47.237,32.533,47.219,32.599,47.219z"/>
			<path fill="#5F9305" d="M34.647,50.04c0.021,0.062,0.008,0.121-0.031,0.182c-0.029,0.053-0.074,0.086-0.148,0.098
				c-0.008,0-0.021,0-0.021,0c-0.089,0-0.114-0.012-0.17-0.055c-0.037-0.033-0.067-0.08-0.074-0.133l-0.091-0.395h-0.419
				l-0.077,0.395c-0.017,0.053-0.039,0.1-0.084,0.133c-0.04,0.043-0.093,0.055-0.155,0.055c0,0-0.025,0-0.04,0
				c-0.063-0.012-0.116-0.045-0.142-0.098c-0.042-0.061-0.055-0.117-0.042-0.182l0.515-2.599l0,0v-0.015h0.008l0.006-0.004v-0.006
				l0,0v-0.014v-0.006l0,0v-0.004c0.013-0.016,0.021-0.037,0.033-0.055l0,0l0.008-0.008c0-0.004,0-0.004,0-0.004l0,0h0.01v-0.006
				v-0.007h0.019v-0.009l0.009-0.004c0.019-0.018,0.031-0.028,0.058-0.028l0,0c0.007-0.013,0.007-0.013,0.007-0.013
				c0.013,0,0.025-0.006,0.025-0.006c0.031-0.006,0.035-0.01,0.035-0.01h0.011l0,0h0.026c0,0,0.019,0.004,0.019,0.01
				c0.021,0,0.028,0.006,0.047,0.006c0,0,0.017,0,0.017,0.013l0,0c0.008,0,0.036,0.013,0.055,0.028c0,0,0,0,0,0.004l0.007,0.009
				h0.007v0.007v0.006h0.013l0,0l0.007,0.012l0,0c0.021,0.018,0.024,0.039,0.039,0.055v0.004l0,0v0.006
				c0,0.02,0.006,0.037,0.006,0.037L34.647,50.04z M33.892,48.685l-0.104,0.573h0.22L33.892,48.685z"/>
			<path fill="#5F9305" d="M36.802,50.049c0,0.07-0.025,0.123-0.064,0.17c-0.046,0.045-0.096,0.066-0.165,0.066
				c-0.073,0-0.14-0.021-0.179-0.066c-0.037-0.047-0.057-0.1-0.057-0.17v-1.621l-0.262,0.494c-0.011,0.058-0.05,0.095-0.104,0.115
				c-0.03,0.025-0.069,0.029-0.103,0.029H35.86l0,0l0,0h-0.018c-0.026,0-0.058-0.004-0.082-0.029
				c-0.059-0.021-0.105-0.059-0.117-0.115l-0.248-0.494v1.621c0,0.07-0.024,0.123-0.071,0.17c-0.046,0.045-0.097,0.066-0.165,0.066
				c-0.066,0-0.119-0.021-0.17-0.066c-0.048-0.047-0.064-0.1-0.064-0.17v-2.598V47.44v-0.014v-0.004v-0.006l0,0v-0.008v-0.006
				v-0.007v-0.004v-0.007c0.006-0.012,0.006-0.03,0.018-0.041c0-0.006,0-0.006,0-0.006h0.011l0.005-0.012l0,0v-0.006l0.006-0.008
				l0.004-0.008c0-0.004,0.021-0.01,0.021-0.01c0-0.012,0-0.012,0.011-0.023h0.009l0,0c0-0.012,0-0.012,0-0.012l0,0h0.006
				c0-0.006,0-0.006,0-0.006l0.016-0.006v-0.004h0.012c0-0.008,0.008-0.008,0.008-0.008l0.006-0.007h0.007l0,0
				c0-0.006,0-0.006,0-0.006h0.021l0.006-0.007l0,0h0.008l0,0l0.016-0.004h0.008h0.003h0.007l0,0h0.008h0.018h0.011h0.013l0,0h0.012
				h0.006l0,0h0.02l0,0c0.021,0.004,0.021,0.011,0.021,0.011s0.022,0.006,0.03,0.006h0.008v0.007c0,0,0,0.008,0.013,0.008l0,0
				l0.009,0.004l0.012,0.012l0,0c0.011,0.012,0.026,0.02,0.033,0.029l0.013,0.012v0.004c0,0.008,0,0.008,0,0.008h0.007v0.008
				l0.014,0.006l0,0c0,0.004,0,0.012,0,0.012s0,0,0,0.006l0.495,0.964l0.498-0.964c0-0.006,0-0.014,0-0.018h0.01v-0.006l0.005-0.008
				c0,0,0,0,0-0.008l0.006-0.004l0.014-0.012c0-0.012,0.015-0.019,0.031-0.029l0.008-0.012l0,0v-0.004h0.019v-0.008l0.009-0.007l0,0
				c0.014,0,0.018-0.006,0.018-0.006l0.021-0.007l0.018-0.004h0.008h0.005l0,0l0,0h0.019l0,0h0.024h0.005h0.008h0.016h0.002h0.018
				v0.004h0.021l0,0h0.005v0.007h0.006l0.008,0.006l0,0h0.007l0.006,0.007c0,0,0,0,0,0.008h0.02l0.006,0.004v0.006
				c0,0,0.01,0,0.018,0.006v0.012h0.013c0.017,0.014,0.024,0.023,0.024,0.033l0.013,0.008v0.008v0.006l0,0v0.012
				c0,0,0.013,0,0.013,0.006c0.006,0.011,0.006,0.029,0.016,0.041v0.011v0.007v0.006l0.013,0.008v0.006v0.004v0.016v0.01v2.598
				H36.802z"/>
			<path fill="#5F9305" d="M38.579,49.879c0.041,0.047,0.062,0.101,0.062,0.164c0,0.062-0.021,0.123-0.062,0.168
				c-0.047,0.047-0.104,0.064-0.162,0.064H37.46c-0.076,0-0.123-0.02-0.182-0.064c-0.039-0.045-0.062-0.104-0.062-0.168v-2.6
				c0-0.062,0.023-0.115,0.062-0.162c0.059-0.047,0.104-0.068,0.182-0.068h0.957c0.059,0,0.115,0.021,0.162,0.068
				c0.041,0.047,0.062,0.1,0.062,0.162c0,0.068-0.021,0.129-0.062,0.174c-0.047,0.037-0.104,0.064-0.162,0.064h-0.736v0.988h0.511
				c0.059,0,0.112,0.021,0.174,0.074c0.041,0.041,0.062,0.094,0.062,0.155c0,0.069-0.021,0.123-0.062,0.171
				c-0.062,0.047-0.115,0.075-0.174,0.075h-0.511v0.657h0.736C38.476,49.808,38.532,49.829,38.579,49.879z"/>
			<path fill="#5F9305" d="M40.499,47.29c0.037,0.041,0.068,0.1,0.068,0.168c0,0.065-0.031,0.117-0.068,0.162
				c-0.051,0.051-0.096,0.069-0.168,0.069h-0.375v2.354c0,0.062-0.02,0.123-0.061,0.168c-0.057,0.047-0.107,0.062-0.168,0.062
				c-0.068,0-0.121-0.018-0.166-0.062c-0.039-0.045-0.07-0.104-0.07-0.168v-2.354h-0.375c-0.059,0-0.115-0.021-0.16-0.069
				c-0.045-0.045-0.08-0.097-0.08-0.162c0-0.068,0.035-0.127,0.08-0.168c0.045-0.047,0.102-0.068,0.16-0.068h1.215
				C40.403,47.219,40.446,47.243,40.499,47.29z"/>
			<path fill="#5F9305" d="M42.188,49.879c0.059,0.047,0.077,0.101,0.077,0.164c0,0.062-0.02,0.123-0.077,0.168
				c-0.035,0.047-0.097,0.064-0.162,0.064h-0.968c-0.047,0-0.112-0.02-0.155-0.064c-0.054-0.045-0.072-0.104-0.072-0.168v-2.6
				c0-0.062,0.021-0.115,0.072-0.162c0.043-0.047,0.108-0.068,0.155-0.068h0.968c0.065,0,0.127,0.021,0.162,0.068
				c0.059,0.047,0.077,0.1,0.077,0.162c0,0.068-0.02,0.129-0.077,0.174c-0.035,0.037-0.097,0.064-0.162,0.064h-0.724v0.988h0.513
				c0.057,0,0.11,0.021,0.147,0.074c0.06,0.041,0.074,0.094,0.074,0.155c0,0.069-0.016,0.123-0.074,0.171
				c-0.037,0.047-0.092,0.075-0.147,0.075h-0.513v0.657h0.724C42.091,49.808,42.151,49.829,42.188,49.879z"/>
			<path fill="#5F9305" d="M44.226,49.952c0.023,0.059,0.023,0.121,0.005,0.18c-0.023,0.066-0.058,0.1-0.132,0.133
				c-0.018,0.014-0.055,0.014-0.096,0.014c-0.037,0-0.072-0.014-0.115-0.027c-0.045-0.027-0.071-0.065-0.084-0.104l-0.446-0.996
				h-0.236v0.896c0,0.062-0.021,0.123-0.065,0.168c-0.043,0.047-0.095,0.064-0.158,0.064c-0.068,0-0.135-0.02-0.178-0.064
				c-0.047-0.045-0.064-0.105-0.064-0.168v-2.588c0-0.066,0.018-0.127,0.064-0.168c0.043-0.047,0.108-0.068,0.178-0.068h0.559
				c0.098,0,0.201,0.029,0.297,0.086c0.086,0.061,0.162,0.137,0.232,0.244c0.117,0.182,0.172,0.396,0.172,0.633
				c0,0.111,0,0.225-0.035,0.332c-0.037,0.104-0.074,0.203-0.137,0.303c-0.018,0.033-0.051,0.072-0.09,0.104
				c-0.027,0.029-0.051,0.059-0.078,0.086L44.226,49.952z M43.454,48.672c0,0,0.043-0.006,0.064-0.024
				c0.014-0.021,0.033-0.043,0.072-0.093c0.039-0.045,0.063-0.107,0.077-0.174c0.011-0.061,0.023-0.133,0.023-0.198
				c0-0.071-0.015-0.134-0.023-0.207c-0.014-0.06-0.038-0.121-0.077-0.175c-0.041-0.037-0.06-0.069-0.072-0.084
				c-0.021-0.021-0.045-0.026-0.045-0.026h-0.354v0.981H43.454z"/>
		</g>
	</g>
</g>
</svg>
