<?xml version="1.0" encoding="utf-8"?>
<!-- Generator: Adobe Illustrator 16.0.0, SVG Export Plug-In . SVG Version: 6.00 Build 0)  -->
<!DOCTYPE svg PUBLIC "-//W3C//DTD SVG 1.1//EN" "http://www.w3.org/Graphics/SVG/1.1/DTD/svg11.dtd">
<svg version="1.1"
	 id="Layer_1" onmouseover="$(this).attr(&quot;data&quot;, &quot;earth_hover.svg&quot;);" onmouseout="$(this).attr(&quot;data&quot;, &quot;earth.svg&quot;);"
	 xmlns="http://www.w3.org/2000/svg" xmlns:xlink="http://www.w3.org/1999/xlink" x="0px" y="0px" width="75.333px" height="100px"
	 viewBox="0 0 75.333 100" enable-background="new 0 0 75.333 100" xml:space="preserve">
<g id="Layer_4">
	<g>
		<g>
			<path fill="#256195" d="M69.671,38.852c0,17.674-14.328,32.011-32.012,32.011c-17.676,0-32.011-14.337-32.011-32.011
				c0-17.68,14.335-32.012,32.011-32.012C55.343,6.84,69.671,21.172,69.671,38.852z"/>
			<path fill="#5F9305" d="M57.718,13.922l-10.453-1.295c0,0-5.76,0.666-9.604-1.896c-3.84-2.561-10.237,2.605-10.237,2.605
				l10.237,6.756l7.041,7.439l-7.041,8.195l-4.481-5.041h-8.968c0,0-4.311-2.318-7.516-7.162c-3.201-4.84-6.44-0.825-6.44-0.825
				C7.27,27.271,6.243,32.889,6.243,32.889l7.097,4.418l3.196,6.756l0.642,9.632L31.26,64.672l0.644-4.92l1.922-5.98l-10.242-4.137
				l1.914-3.945h7.041l12.168,7.465l3.201-5.907l10.235,6.041l4.494-8.496c0,0,5.78,3.06,7.037-5.848
				C69.671,38.943,70.482,24.275,57.718,13.922z"/>
		</g>
		<g>
			<path fill="#5F9305" d="M23.15,93.379c0.223,0.225,0.325,0.49,0.325,0.802c0,0.315-0.104,0.583-0.325,0.811
				c-0.234,0.217-0.5,0.327-0.806,0.327h-4.636c-0.305,0-0.582-0.11-0.805-0.327c-0.213-0.228-0.326-0.494-0.326-0.811V81.672
				c0-0.31,0.113-0.575,0.326-0.803c0.223-0.219,0.5-0.326,0.805-0.326h4.636c0.306,0,0.569,0.107,0.806,0.326
				c0.223,0.228,0.325,0.493,0.325,0.803c0,0.33-0.104,0.6-0.325,0.818c-0.234,0.213-0.5,0.315-0.806,0.315h-3.5v4.767h2.42
				c0.313,0,0.574,0.104,0.804,0.326c0.219,0.221,0.327,0.489,0.327,0.807c0,0.312-0.108,0.582-0.327,0.805
				c-0.229,0.219-0.488,0.328-0.804,0.328h-2.42v3.211h3.5C22.65,93.049,22.916,93.159,23.15,93.379z"/>
			<path fill="#5F9305" d="M31.998,94.146c0.066,0.312,0.016,0.599-0.154,0.857c-0.166,0.261-0.42,0.42-0.73,0.481
				c-0.053,0.015-0.125,0.021-0.205,0.021c-0.268,0-0.502-0.09-0.713-0.258c-0.203-0.172-0.346-0.387-0.4-0.653l-0.403-1.929h-2.017
				l-0.404,1.929c-0.045,0.271-0.182,0.481-0.379,0.653c-0.211,0.168-0.453,0.258-0.717,0.258c-0.094,0-0.168-0.008-0.229-0.021
				c-0.311-0.062-0.553-0.224-0.727-0.481c-0.172-0.26-0.217-0.545-0.16-0.857l2.52-12.489v-0.021V81.6c0-0.014,0-0.02,0-0.02
				s0.016-0.004,0.016-0.02v-0.021v-0.018c0.011-0.013,0.021-0.025,0.021-0.043c0-0.011,0.004-0.017,0.004-0.017
				s0.014-0.006,0.014-0.014v-0.021c0.045-0.1,0.104-0.19,0.182-0.271v-0.014c0,0,0.008,0,0.008-0.009
				c0-0.008,0.014-0.008,0.014-0.008l0.006-0.021l0.019-0.021l0.033-0.021l0.011-0.019l0.018-0.019l0.02-0.021l0.045-0.018
				c0.069-0.076,0.156-0.131,0.254-0.172h0.027c0.01-0.011,0.016-0.017,0.016-0.017c0.082-0.028,0.135-0.043,0.188-0.051
				c0.051,0,0.104-0.021,0.17-0.027h0.017h0.047h0.035c0.053,0.011,0.114,0.027,0.159,0.027c0.062,0.008,0.117,0.021,0.173,0.051
				c0,0,0.03,0.006,0.043,0.017h0.023c0.093,0.041,0.184,0.096,0.261,0.172c0,0,0.024,0.004,0.03,0.018l0.025,0.021l0.01,0.019
				l0.021,0.019l0.018,0.021l0.027,0.021l0.021,0.021l0.008,0.017v0.014c0.076,0.08,0.135,0.172,0.186,0.271v0.021
				c0,0.008,0,0.014,0,0.014s0.012,0.006,0.012,0.017c0.021,0.08,0.031,0.139,0.031,0.174L31.998,94.146z M28.395,87.627L27.83,90.4
				h1.106L28.395,87.627z"/>
			<path fill="#5F9305" d="M40.941,93.729c0.139,0.291,0.139,0.582,0.026,0.868c-0.127,0.292-0.328,0.499-0.619,0.627
				c-0.149,0.062-0.291,0.095-0.45,0.095c-0.22,0-0.416-0.063-0.607-0.18c-0.188-0.121-0.332-0.289-0.43-0.502l-2.103-4.799h-1.13
				v4.343c0,0.315-0.116,0.583-0.34,0.811c-0.219,0.217-0.491,0.327-0.793,0.327c-0.328,0-0.582-0.11-0.807-0.327
				c-0.229-0.228-0.332-0.494-0.332-0.811V81.713c0-0.318,0.104-0.582,0.332-0.801c0.225-0.225,0.479-0.332,0.807-0.332h2.734
				c0.477,0,0.943,0.135,1.373,0.402c0.441,0.271,0.826,0.66,1.16,1.162c0.564,0.896,0.844,1.916,0.844,3.062
				c0,0.556-0.066,1.086-0.223,1.605c-0.143,0.516-0.354,0.992-0.621,1.434c-0.133,0.188-0.26,0.357-0.391,0.51
				c-0.152,0.15-0.283,0.295-0.422,0.42L40.941,93.729z M37.234,87.573c0.065,0,0.147-0.041,0.26-0.125
				c0.106-0.076,0.229-0.222,0.361-0.423c0.163-0.256,0.284-0.536,0.368-0.854c0.086-0.312,0.123-0.635,0.123-0.961
				c0-0.33-0.037-0.651-0.123-0.974c-0.084-0.319-0.205-0.604-0.368-0.862c-0.132-0.188-0.255-0.319-0.361-0.403
				c-0.111-0.08-0.193-0.121-0.26-0.121h-1.603v4.729h1.603V87.573z"/>
			<path fill="#5F9305" d="M49.634,80.898c0.225,0.218,0.334,0.484,0.334,0.814c0,0.312-0.111,0.578-0.334,0.795
				c-0.219,0.225-0.488,0.339-0.791,0.339h-1.768V94.18c0,0.314-0.113,0.582-0.324,0.812c-0.229,0.215-0.486,0.325-0.809,0.325
				c-0.312,0-0.588-0.11-0.804-0.325c-0.215-0.229-0.336-0.494-0.336-0.812V82.848h-1.785c-0.315,0-0.588-0.113-0.799-0.338
				c-0.229-0.219-0.347-0.479-0.347-0.797c0-0.33,0.115-0.598,0.347-0.812c0.211-0.211,0.481-0.319,0.799-0.319h5.822
				C49.145,80.581,49.416,80.689,49.634,80.898z"/>
			<path fill="#5F9305" d="M57.6,80.562c0.319,0,0.574,0.105,0.804,0.326c0.217,0.222,0.332,0.49,0.332,0.808v12.506
				c0,0.315-0.113,0.58-0.332,0.805c-0.229,0.22-0.48,0.33-0.804,0.33c-0.31,0-0.577-0.11-0.808-0.33
				c-0.211-0.225-0.325-0.485-0.325-0.805v-4.345h-2.946v4.345c0,0.315-0.107,0.58-0.335,0.805c-0.209,0.22-0.481,0.33-0.79,0.33
				c-0.322,0-0.593-0.11-0.804-0.33c-0.229-0.225-0.347-0.485-0.347-0.805V81.695c0-0.315,0.113-0.586,0.347-0.809
				c0.211-0.221,0.479-0.326,0.804-0.326c0.309,0,0.581,0.105,0.79,0.326c0.228,0.223,0.335,0.49,0.335,0.809v5.892h2.946v-5.892
				c0-0.315,0.114-0.586,0.325-0.809C57.023,80.668,57.291,80.562,57.6,80.562z"/>
		</g>
	</g>
</g>
</svg>
