<?xml version="1.0" encoding="utf-8"?>
<!-- Generator: Adobe Illustrator 16.0.0, SVG Export Plug-In . SVG Version: 6.00 Build 0)  -->
<!DOCTYPE svg PUBLIC "-//W3C//DTD SVG 1.1//EN" "http://www.w3.org/Graphics/SVG/1.1/DTD/svg11.dtd">
<svg version="1.1" id="Layer_1" xmlns="http://www.w3.org/2000/svg" xmlns:xlink="http://www.w3.org/1999/xlink" x="0px" y="0px"
	 width="356px" height="443px" viewBox="161.5 36.094 356 443" enable-background="new 161.5 36.094 356 443" xml:space="preserve">
<g id="Layer_1_1_">
</g>
<g id="Layer_5">
</g>
<g id="Layer_2">
</g>
<g id="neptune">
</g>
<g id="uranus">
</g>
<g id="saturn">
</g>
<g id="jupiter">
</g>
<g id="Layer_14">
</g>
<g id="mars">
</g>
<g id="venus">
</g>
<g id="mercury">
</g>
<g id="earth">
</g>
<g id="Layer_6">
</g>
<g>
	<path fill="#CC6A11" d="M275.473,453.597c2.427,3.042,3.638,6.6,3.638,10.667c0,1.275-0.131,2.416-0.4,3.422
		c-0.269,1.009-0.596,1.902-0.984,2.683c-0.393,0.782-0.834,1.461-1.327,2.036c-0.492,0.574-0.985,1.068-1.479,1.479
		c-2.304,1.85-5.099,2.774-8.386,2.774c-1.603,0-3.104-0.228-4.502-0.678c-1.397-0.454-2.631-1.15-3.7-2.098
		c-0.453-0.37-0.915-0.844-1.389-1.419c-0.472-0.574-0.904-1.254-1.294-2.034c-0.391-0.779-0.708-1.685-0.955-2.713
		c-0.247-1.027-0.369-2.2-0.369-3.518c0-1.025,0.358-1.898,1.079-2.618c0.718-0.719,1.592-1.08,2.621-1.08
		c1.069,0,1.952,0.361,2.651,1.08c0.698,0.72,1.048,1.593,1.048,2.618c0,0.577,0.051,1.164,0.154,1.759
		c0.104,0.598,0.318,1.142,0.647,1.635c0.328,0.493,0.811,0.896,1.449,1.201c0.637,0.309,1.489,0.464,2.56,0.464
		c0.739,0,1.426-0.093,2.066-0.275c0.637-0.188,1.179-0.464,1.634-0.836c0.986-0.861,1.479-2.156,1.479-3.884
		c0-1.272-0.165-2.383-0.493-3.328c-0.329-0.945-0.813-1.819-1.449-2.62c-0.639-0.803-1.418-1.562-2.343-2.282
		c-0.926-0.718-1.965-1.489-3.116-2.312c-1.068-0.739-2.125-1.511-3.173-2.312c-1.049-0.804-2.026-1.717-2.93-2.744
		c-1.068-1.316-1.88-2.684-2.435-4.1c-0.556-1.42-0.833-2.972-0.833-4.656c0-0.247,0.011-0.698,0.032-1.355
		c0.019-0.658,0.123-1.42,0.308-2.283c0.184-0.861,0.493-1.766,0.926-2.713c0.431-0.944,1.057-1.85,1.879-2.713
		c0.699-0.779,1.747-1.541,3.144-2.281c1.398-0.738,3.208-1.109,5.429-1.109c2.259,0,4.059,0.381,5.395,1.142
		c1.335,0.763,2.352,1.531,3.05,2.312c0.781,0.945,1.368,1.941,1.758,2.991c0.391,1.049,0.648,2.014,0.771,2.897
		c0.123,0.883,0.164,1.654,0.123,2.312s-0.084,1.049-0.123,1.173c-0.122,0.738-0.368,1.355-0.739,1.85
		c-0.33,0.454-0.771,0.833-1.325,1.142c-0.556,0.308-1.306,0.359-2.251,0.153c-0.906-0.164-1.572-0.462-2.004-0.894
		c-0.432-0.434-0.718-0.885-0.861-1.357c-0.146-0.473-0.207-0.894-0.187-1.264c0.019-0.37,0.031-0.596,0.031-0.68
		c0.041-0.163,0.062-0.39,0.062-0.677c0-0.289-0.03-0.598-0.092-0.926c-0.061-0.33-0.153-0.658-0.277-0.987
		c-0.124-0.326-0.289-0.617-0.494-0.862c-0.493-0.616-1.439-0.926-2.835-0.926c-1.111,0-1.881,0.146-2.313,0.433
		c-0.432,0.288-0.708,0.493-0.833,0.616c-0.288,0.29-0.504,0.616-0.646,0.985c-0.144,0.37-0.258,0.741-0.34,1.11
		c-0.083,0.37-0.135,0.688-0.153,0.955c-0.021,0.27-0.031,0.463-0.031,0.587v0.123v0.123c0,0.822,0.144,1.572,0.43,2.251
		c0.289,0.68,0.69,1.315,1.204,1.911c0.514,0.597,1.162,1.191,1.942,1.788c0.779,0.598,1.665,1.244,2.651,1.941
		c1.151,0.823,2.333,1.706,3.548,2.651C273.326,451.274,274.446,452.363,275.473,453.597z"/>
	<path fill="#CC6A11" d="M305.625,472.342c0.205,1.028,0.03,1.963-0.524,2.807c-0.555,0.841-1.347,1.365-2.374,1.571
		c-0.165,0.04-0.394,0.062-0.679,0.062c-0.862,0-1.633-0.277-2.312-0.832c-0.677-0.556-1.122-1.265-1.325-2.128l-1.295-6.29h-6.6
		l-1.294,6.29c-0.164,0.863-0.584,1.572-1.265,2.128c-0.678,0.555-1.449,0.832-2.312,0.832c-0.33,0-0.578-0.021-0.74-0.062
		c-1.027-0.206-1.818-0.73-2.375-1.571c-0.554-0.844-0.729-1.777-0.523-2.807l8.202-40.758v-0.062v-0.122
		c0-0.039,0.008-0.062,0.029-0.062c0.021,0,0.031-0.02,0.031-0.061v-0.063v-0.06c0.042-0.041,0.062-0.083,0.062-0.124
		c0-0.04,0.009-0.062,0.03-0.062c0.021,0,0.031-0.021,0.031-0.062v-0.062c0.122-0.328,0.309-0.617,0.556-0.863v-0.062
		c0.039,0,0.06-0.01,0.06-0.03c0-0.02,0.021-0.03,0.062-0.03v-0.062l0.062-0.061l0.062-0.062l0.062-0.062l0.062-0.062l0.061-0.062
		l0.123-0.062c0.247-0.246,0.535-0.432,0.865-0.555h0.062c0.038-0.041,0.081-0.062,0.121-0.062c0.206-0.082,0.393-0.132,0.557-0.152
		c0.164-0.021,0.349-0.053,0.555-0.094h0.061h0.125h0.125c0.203,0.041,0.389,0.072,0.553,0.094c0.163,0.021,0.349,0.07,0.554,0.152
		c0.042,0,0.083,0.021,0.125,0.062h0.062c0.327,0.123,0.614,0.309,0.861,0.555c0.04,0,0.082,0.021,0.124,0.062l0.062,0.062
		l0.062,0.062l0.062,0.062l0.061,0.062l0.062,0.061l0.062,0.062l0.06,0.062v0.062c0.248,0.246,0.435,0.534,0.557,0.862v0.062
		c0,0.042,0.01,0.062,0.031,0.062c0.019,0,0.029,0.021,0.029,0.062c0.083,0.247,0.124,0.432,0.124,0.556L305.625,472.342z
		 M293.849,451.068l-1.853,9.065h3.639L293.849,451.068z"/>
	<path fill="#CC6A11" d="M332.909,429.117c0.72,0.699,1.081,1.584,1.081,2.65c0,1.028-0.361,1.902-1.081,2.62
		c-0.719,0.721-1.594,1.08-2.619,1.08h-5.734v36.996c0,1.028-0.361,1.902-1.078,2.621c-0.722,0.719-1.597,1.079-2.622,1.079
		c-1.029,0-1.901-0.36-2.621-1.079c-0.72-0.719-1.08-1.593-1.08-2.621v-36.996h-5.856c-1.028,0-1.9-0.359-2.622-1.08
		c-0.718-0.718-1.077-1.592-1.077-2.62c0-1.066,0.358-1.951,1.077-2.65c0.722-0.698,1.594-1.048,2.622-1.048h18.992
		C331.315,428.069,332.19,428.419,332.909,429.117z"/>
	<path fill="#CC6A11" d="M361.397,465.467c-0.021,0.678-0.134,1.459-0.338,2.342c-0.207,0.886-0.536,1.83-0.989,2.839
		c-0.452,1.008-1.09,1.941-1.91,2.804c-0.701,0.782-1.737,1.542-3.115,2.282c-1.378,0.739-3.153,1.11-5.334,1.11
		c-2.18,0-3.936-0.371-5.271-1.11c-1.336-0.74-2.354-1.5-3.054-2.282c-0.821-0.901-1.447-1.869-1.88-2.897
		c-0.432-1.024-0.739-2.004-0.925-2.929c-0.185-0.925-0.277-1.747-0.277-2.467c0-0.718,0-1.223,0-1.511V431.83
		c0-1.026,0.358-1.9,1.078-2.619c0.719-0.72,1.594-1.08,2.622-1.08c1.027,0,1.901,0.36,2.621,1.08
		c0.72,0.719,1.078,1.593,1.078,2.619v32.127v0.123c0,0.204,0,0.492,0,0.861c0,0.37,0.043,0.762,0.125,1.172
		c0.082,0.412,0.204,0.834,0.369,1.265c0.163,0.431,0.391,0.791,0.678,1.079c0.125,0.123,0.391,0.318,0.802,0.585
		c0.411,0.269,1.09,0.402,2.035,0.402c1.069,0,1.819-0.135,2.25-0.402c0.434-0.267,0.709-0.462,0.833-0.585
		c0.575-0.616,0.925-1.356,1.048-2.221c0.123-0.861,0.186-1.479,0.186-1.85V464.2v-0.061v-32.249c0-1.025,0.359-1.9,1.079-2.619
		c0.72-0.72,1.593-1.078,2.623-1.078c1.023,0,1.899,0.358,2.621,1.078c0.717,0.719,1.077,1.594,1.077,2.619v32.188
		C361.428,464.326,361.417,464.789,361.397,465.467z"/>
	<path fill="#CC6A11" d="M393.122,470.985c0.45,0.945,0.483,1.892,0.092,2.836c-0.392,0.945-1.059,1.623-2.004,2.034
		c-0.494,0.207-0.986,0.31-1.48,0.31c-0.699,0-1.357-0.196-1.975-0.587c-0.616-0.391-1.088-0.935-1.418-1.633l-6.842-15.662h-3.701
		v14.182c0,1.028-0.358,1.902-1.079,2.621c-0.719,0.719-1.592,1.079-2.619,1.079c-1.028,0-1.903-0.36-2.62-1.079
		c-0.723-0.719-1.08-1.593-1.08-2.621v-40.696c0-1.026,0.357-1.899,1.08-2.619c0.716-0.721,1.591-1.079,2.62-1.079h8.94
		c1.562,0,3.062,0.44,4.5,1.326c1.439,0.885,2.694,2.147,3.762,3.79c1.852,2.921,2.775,6.249,2.775,9.989
		c0,1.811-0.237,3.558-0.708,5.242c-0.473,1.686-1.164,3.247-2.066,4.686c-0.41,0.616-0.844,1.173-1.295,1.665
		c-0.449,0.492-0.903,0.945-1.356,1.356L393.122,470.985z M381.036,450.884c0.204,0,0.483-0.134,0.833-0.4
		c0.348-0.267,0.75-0.73,1.203-1.388c0.533-0.82,0.935-1.748,1.202-2.773c0.266-1.028,0.399-2.077,0.399-3.146
		c0-1.068-0.134-2.127-0.399-3.176c-0.269-1.049-0.669-1.982-1.202-2.806c-0.453-0.616-0.855-1.059-1.203-1.325
		c-0.35-0.266-0.628-0.4-0.833-0.4h-5.242v15.415H381.036z"/>
	<path fill="#CC6A11" d="M420.129,428.008c1.026,0,1.9,0.359,2.62,1.078c0.719,0.721,1.079,1.594,1.079,2.621v40.758v0.246v0.186
		v0.062v0.123l-0.061,0.062v0.062v0.123v0.06c-0.043,0.043-0.062,0.084-0.062,0.125v0.062c0,0.041-0.009,0.062-0.03,0.062
		c-0.021,0-0.031,0.021-0.031,0.062s-0.011,0.072-0.031,0.093c-0.021,0.021-0.029,0.051-0.029,0.093s-0.011,0.071-0.032,0.093
		c-0.021,0.021-0.03,0.054-0.03,0.093c0,0.041-0.01,0.062-0.031,0.062s-0.03,0.021-0.03,0.062v0.062
		c-0.042,0-0.062,0.022-0.062,0.062l-0.062,0.062c0,0.042-0.021,0.083-0.062,0.124l-0.062,0.062v0.062
		c-0.041,0-0.062,0.021-0.062,0.062s-0.021,0.062-0.061,0.062c0,0.041-0.011,0.062-0.032,0.062c-0.021,0-0.03,0.021-0.03,0.062
		h-0.062c0,0.042-0.021,0.083-0.062,0.122l-0.124,0.125l-0.124,0.123l-0.121,0.123h-0.062l-0.122,0.123
		c-0.043,0.04-0.084,0.062-0.125,0.062c0,0.04-0.021,0.062-0.062,0.062l-0.061,0.062c-0.044,0-0.062,0.01-0.062,0.03
		s-0.021,0.03-0.062,0.03h-0.062l-0.124,0.123c-0.163,0.082-0.308,0.146-0.431,0.188c-0.123,0.04-0.287,0.081-0.492,0.122
		c-0.165,0.04-0.412,0.062-0.74,0.062c-0.248,0-0.432-0.021-0.557-0.062h-0.122h-0.062c-0.042,0-0.061-0.021-0.061-0.062h-0.247
		v-0.062h-0.124c-0.164-0.084-0.268-0.124-0.308-0.124c-0.041,0-0.062-0.021-0.062-0.062h-0.062c-0.041,0-0.062-0.021-0.062-0.062
		c-0.04,0-0.083-0.021-0.124-0.062c-0.04,0-0.06-0.021-0.06-0.062h-0.063c-0.04,0-0.062-0.012-0.062-0.031
		c0-0.021-0.021-0.03-0.062-0.03c-0.452-0.328-0.821-0.72-1.109-1.172v-0.062c-0.039,0-0.061-0.021-0.061-0.062l-0.062-0.062v-0.062
		c-0.042-0.041-0.062-0.082-0.062-0.123c0-0.039-0.021-0.082-0.062-0.123l-10.543-24.357v22.939c0,1.026-0.361,1.9-1.081,2.62
		c-0.721,0.718-1.593,1.078-2.618,1.078c-1.028,0-1.903-0.36-2.622-1.078c-0.718-0.72-1.079-1.594-1.079-2.62v-40.759v-0.247v-0.187
		v-0.061v-0.123l0.062-0.062v-0.062v-0.123v-0.062c0.04-0.04,0.062-0.082,0.062-0.124v-0.061c0-0.04,0.008-0.062,0.029-0.062
		c0.021,0,0.03-0.021,0.03-0.062c0-0.04,0.011-0.072,0.031-0.092c0.022-0.021,0.032-0.052,0.032-0.095
		c0-0.039,0.009-0.068,0.029-0.092c0.021-0.02,0.031-0.051,0.031-0.093c0-0.04,0.01-0.062,0.031-0.062
		c0.022,0,0.031-0.02,0.031-0.062v-0.062l0.124-0.123c0-0.041,0.009-0.062,0.031-0.062c0.019,0,0.028-0.021,0.028-0.062l0.062-0.062
		v-0.062c0.04-0.04,0.061-0.082,0.061-0.124h0.062c0-0.04,0.012-0.062,0.032-0.062c0.019,0,0.028-0.021,0.028-0.062h0.062
		c0-0.04,0.021-0.081,0.062-0.123l0.124-0.124v-0.062c0.041,0,0.084-0.019,0.123-0.061v-0.062c0.042,0,0.082-0.021,0.123-0.062
		h0.062l0.124-0.124l0.123-0.123h0.061c0-0.04,0.019-0.062,0.062-0.062c0.041,0,0.062-0.01,0.062-0.029
		c0-0.021,0.021-0.032,0.062-0.032h0.062l0.123-0.123c0.286-0.164,0.576-0.268,0.863-0.309h0.062
		c0.204-0.039,0.512-0.062,0.923-0.062h0.187h0.062l0.062,0.062h0.122h0.061h0.123c0,0.041,0.021,0.062,0.064,0.062h0.124h0.06
		c0,0.041,0.042,0.062,0.123,0.062c0.042,0.039,0.103,0.061,0.187,0.061c0.041,0.042,0.081,0.062,0.123,0.062h0.062
		c0,0.04,0.039,0.061,0.123,0.061v0.062c0.083,0,0.123,0.021,0.123,0.062h0.062c0.04,0,0.062,0.011,0.062,0.032
		c0,0.021,0.021,0.029,0.062,0.029l0.062,0.062l0.062,0.062l0.062,0.062h0.062c0.04,0.04,0.082,0.062,0.122,0.062v0.062
		c0.04,0,0.061,0.01,0.061,0.03c0,0.02,0.021,0.031,0.062,0.031v0.062c0.04,0,0.062,0.01,0.062,0.031
		c0,0.02,0.019,0.028,0.062,0.028v0.062l0.123,0.124l0.124,0.123l0.123,0.122c0,0.042,0.019,0.084,0.062,0.124
		c0.038,0,0.062,0.021,0.062,0.062s0.02,0.062,0.062,0.062c0,0.082,0.02,0.123,0.06,0.123v0.062
		c0.041,0.042,0.062,0.082,0.062,0.123h0.062c0,0.083,0.01,0.136,0.03,0.154c0.019,0.021,0.03,0.053,0.03,0.092l10.545,24.356
		v-22.938c0-1.027,0.359-1.9,1.079-2.621C418.227,428.367,419.1,428.008,420.129,428.008z"/>
</g>
<g>
	<path fill="#F5DA71" d="M432.064,360.471c-80.229,50.885-186.507,27.1-237.394-53.121c-50.878-80.222-7.667-196.799,72.552-247.686
		c0,0,48.819-32.693,138.965-7.19c0,0,40.958,10.819,61.051,30.912c14.346,14.342,67.309,113.139,33.656,192.58"/>
	<path fill="#EA980E" d="M505.229,262.782l-24.077-19.685l-10.303,26.792c0,0-21.638,20.607-31.944,22.667
		c-10.303,2.062-74.188,34.003-91.703,34.003c-17.518,0-63.885-26.788-71.098-32.971c-7.214-6.182-31.943-42.247-31.943-59.763
		c0-17.516-22.574-57.701-18.454-57.701c4.121,0,23.794-26.792,23.794-26.792v-18.034v-24.729l10.209-26.272l11.286-22.68
		c0,0-39.407,19.627-79.475,70.611c-40.07,50.986-20.505,130.327-20.505,130.327s20.929,62.875,69.191,96.867
		c48.268,33.993,103.389,39.467,151.562,23.85C439.938,363.654,486.027,328.832,505.229,262.782z"/>
	<path fill="#CC6A11" d="M468.5,330.68V319.86l-12.221-13.582l-6.039,16.815h-15.459l-18.545,16.834l-26.791,11.166h-27.307
		L349.26,371.03l-34.002-6.267l-30.883-17.555l-13.424,15.436l-12.365-5.363l-23.699-14.23l-7.906,1.802
		c0,0,41.766,37.14,105.651,42.396C396.517,392.506,446.5,349.224,468.5,330.68z"/>
	
		<ellipse transform="matrix(0.9333 0.359 -0.359 0.9333 50.4849 -137.5904)" fill="#BC9E3C" cx="395.756" cy="67.155" rx="10.432" ry="3.865"/>
	<path fill="none" stroke="#BC9E3C" stroke-miterlimit="10" d="M393.629,68.509c0,0,9.66,7.535,8.182,16.938"/>
	<path fill="none" stroke="#BC9E3C" stroke-miterlimit="10" d="M403.289,70.762c0,0,16.035-3.606,20.16,7.343"/>
	<path fill="none" stroke="#BC9E3C" stroke-miterlimit="10" d="M387.834,63.099c0,0-11.785-6.504-16.936-3.928"/>
	<path fill="none" stroke="#BC9E3C" stroke-miterlimit="10" d="M391.248,67.669c0,0-11.849-5.15-18.031-1.802"/>
</g>
<g>
	<path fill="#F5DA71" d="M889.848-122.529c-80.229,50.885-186.507,27.1-237.394-53.121c-50.878-80.222-7.667-196.799,72.552-247.686
		c0,0,48.819-32.693,138.965-7.19c0,0,40.958,10.819,61.051,30.912c14.346,14.342,67.309,113.139,33.656,192.58"/>
	<path fill="#F5DA71" d="M963.012-220.218l-24.077-19.685l-10.303,26.792c0,0-21.638,20.607-31.944,22.667
		c-10.303,2.062-74.188,34.003-91.703,34.003c-17.518,0-63.885-26.788-71.098-32.971c-7.214-6.182-31.943-42.247-31.943-59.763
		c0-17.516-22.466-57.701-18.346-57.701c4.121,0,23.902-26.792,23.902-26.792v-18.034v-24.729l10.101-26.272l11.231-22.68
		c0,0-39.434,19.627-79.502,70.611c-40.07,50.986-20.519,130.327-20.519,130.327s20.923,62.875,69.185,96.867
		c48.268,33.993,103.385,39.467,151.558,23.85C897.724-119.346,943.811-154.168,963.012-220.218z"/>
	<path fill="#F5DA71" d="M926.5-152.32v-10.819l-12.329-13.582l-6.147,16.815h-15.459l-18.545,16.834l-26.791,11.166h-27.307
		l-12.879,19.937l-34.002-6.267l-30.883-17.555l-13.424,15.436l-12.365-5.363l-23.699-14.23l-7.906,1.802
		c0,0,41.874,37.14,105.759,42.396C854.408-90.494,904.5-133.776,926.5-152.32z"/>
</g>
<g>
	<path fill="#CC6A11" d="M219.29-25.848c2.428,3.041,3.639,6.598,3.639,10.666c0,1.275-0.132,2.416-0.4,3.422
		c-0.269,1.008-0.596,1.902-0.985,2.682c-0.392,0.783-0.834,1.461-1.327,2.037c-0.491,0.574-0.985,1.068-1.479,1.48
		c-2.304,1.848-5.1,2.773-8.387,2.773c-1.603,0-3.104-0.227-4.502-0.678c-1.396-0.453-2.631-1.15-3.699-2.096
		c-0.453-0.371-0.915-0.844-1.389-1.42c-0.472-0.574-0.904-1.254-1.295-2.033c-0.391-0.781-0.708-1.686-0.955-2.713
		c-0.247-1.029-0.369-2.201-0.369-3.518c0-1.025,0.358-1.898,1.079-2.619c0.719-0.719,1.592-1.08,2.621-1.08
		c1.068,0,1.951,0.361,2.65,1.08c0.698,0.721,1.049,1.594,1.049,2.619c0,0.576,0.051,1.164,0.153,1.758
		c0.104,0.598,0.318,1.143,0.647,1.635c0.328,0.494,0.811,0.895,1.449,1.201c0.637,0.309,1.489,0.465,2.56,0.465
		c0.739,0,1.427-0.094,2.066-0.277c0.637-0.188,1.179-0.463,1.634-0.834c0.986-0.863,1.479-2.158,1.479-3.885
		c0-1.273-0.164-2.383-0.492-3.328c-0.329-0.945-0.813-1.82-1.449-2.621c-0.639-0.801-1.419-1.562-2.343-2.281
		c-0.926-0.719-1.965-1.49-3.116-2.312c-1.067-0.74-2.125-1.512-3.173-2.312c-1.049-0.803-2.026-1.717-2.931-2.744
		c-1.068-1.316-1.88-2.682-2.435-4.1c-0.557-1.418-0.833-2.971-0.833-4.656c0-0.246,0.012-0.697,0.032-1.355
		c0.019-0.658,0.123-1.42,0.308-2.283c0.184-0.861,0.493-1.766,0.926-2.713c0.431-0.945,1.057-1.85,1.879-2.713
		c0.699-0.779,1.747-1.541,3.144-2.281c1.398-0.738,3.208-1.109,5.429-1.109c2.259,0,4.059,0.381,5.395,1.141
		c1.336,0.762,2.352,1.531,3.051,2.312c0.781,0.945,1.367,1.941,1.758,2.99c0.392,1.049,0.648,2.014,0.771,2.898
		c0.123,0.883,0.163,1.654,0.123,2.311c-0.041,0.658-0.084,1.049-0.123,1.174c-0.123,0.738-0.369,1.355-0.74,1.85
		c-0.33,0.453-0.771,0.832-1.325,1.141c-0.556,0.307-1.306,0.359-2.251,0.154c-0.905-0.164-1.572-0.463-2.004-0.895
		s-0.718-0.883-0.861-1.357c-0.146-0.473-0.207-0.893-0.187-1.264c0.019-0.369,0.03-0.596,0.03-0.678
		c0.041-0.164,0.062-0.391,0.062-0.678c0-0.289-0.03-0.598-0.092-0.926c-0.062-0.33-0.153-0.658-0.277-0.986
		s-0.289-0.617-0.494-0.863c-0.493-0.617-1.438-0.926-2.835-0.926c-1.111,0-1.882,0.145-2.313,0.432
		c-0.432,0.289-0.708,0.494-0.832,0.617c-0.288,0.289-0.505,0.617-0.646,0.986c-0.145,0.369-0.259,0.74-0.341,1.109
		c-0.083,0.371-0.135,0.689-0.153,0.955c-0.021,0.27-0.031,0.463-0.031,0.588v0.123v0.123c0,0.822,0.144,1.572,0.43,2.25
		c0.289,0.68,0.69,1.316,1.204,1.912s1.162,1.191,1.942,1.787c0.779,0.598,1.665,1.246,2.651,1.943
		c1.15,0.822,2.333,1.705,3.548,2.65C217.144-28.17,218.263-27.082,219.29-25.848z"/>
	<path fill="#CC6A11" d="M249.443-7.104c0.204,1.029,0.03,1.963-0.525,2.807c-0.554,0.84-1.346,1.365-2.373,1.572
		c-0.165,0.039-0.393,0.061-0.679,0.061c-0.862,0-1.633-0.277-2.312-0.832c-0.678-0.555-1.122-1.264-1.325-2.127l-1.295-6.291h-6.6
		l-1.293,6.291c-0.165,0.863-0.585,1.572-1.266,2.127c-0.678,0.555-1.448,0.832-2.312,0.832c-0.33,0-0.577-0.021-0.74-0.061
		c-1.026-0.207-1.818-0.732-2.375-1.572c-0.554-0.844-0.729-1.777-0.523-2.807l8.202-40.758v-0.062v-0.123
		c0-0.039,0.009-0.062,0.029-0.062s0.031-0.02,0.031-0.061v-0.062v-0.061c0.042-0.041,0.062-0.082,0.062-0.123
		s0.009-0.061,0.03-0.061c0.021,0,0.031-0.021,0.031-0.062v-0.062c0.122-0.328,0.309-0.617,0.556-0.863v-0.061
		c0.039,0,0.06-0.01,0.06-0.031c0-0.02,0.021-0.031,0.062-0.031v-0.062l0.062-0.061l0.062-0.062l0.062-0.061l0.062-0.062
		l0.061-0.062l0.123-0.061c0.247-0.246,0.535-0.432,0.865-0.555h0.062c0.038-0.041,0.081-0.062,0.121-0.062
		c0.206-0.082,0.393-0.131,0.557-0.152c0.163-0.021,0.349-0.053,0.555-0.094h0.061h0.125h0.124c0.204,0.041,0.389,0.072,0.553,0.094
		c0.163,0.021,0.35,0.07,0.555,0.152c0.042,0,0.083,0.021,0.125,0.062h0.062c0.328,0.123,0.615,0.309,0.862,0.555
		c0.039,0,0.082,0.021,0.124,0.061l0.061,0.062l0.062,0.062l0.062,0.061l0.062,0.062l0.061,0.061l0.063,0.062l0.059,0.062v0.061
		c0.249,0.246,0.435,0.535,0.557,0.863v0.062c0,0.041,0.011,0.062,0.031,0.062c0.019,0,0.03,0.02,0.03,0.061
		c0.083,0.246,0.123,0.432,0.123,0.555L249.443-7.104z M237.667-28.377l-1.853,9.066h3.639L237.667-28.377z"/>
	<path fill="#CC6A11" d="M276.728-50.328c0.72,0.699,1.08,1.584,1.08,2.652c0,1.027-0.36,1.902-1.08,2.619
		c-0.719,0.721-1.595,1.08-2.619,1.08h-5.735V-6.98c0,1.029-0.361,1.902-1.078,2.621c-0.721,0.719-1.596,1.08-2.621,1.08
		c-1.029,0-1.901-0.361-2.621-1.08s-1.08-1.592-1.08-2.621v-36.996h-5.856c-1.029,0-1.901-0.359-2.622-1.08
		c-0.719-0.717-1.078-1.592-1.078-2.619c0-1.068,0.359-1.953,1.078-2.652c0.721-0.697,1.593-1.047,2.622-1.047h18.992
		C275.133-51.375,276.009-51.025,276.728-50.328z"/>
	<path fill="#CC6A11" d="M305.216-13.979c-0.021,0.678-0.135,1.459-0.339,2.342c-0.207,0.885-0.535,1.83-0.988,2.838
		c-0.452,1.008-1.09,1.943-1.91,2.805c-0.701,0.781-1.737,1.541-3.115,2.281s-3.154,1.111-5.334,1.111s-3.936-0.371-5.271-1.111
		s-2.353-1.5-3.053-2.281c-0.822-0.902-1.447-1.869-1.88-2.898c-0.432-1.025-0.739-2.004-0.925-2.928
		c-0.186-0.926-0.278-1.748-0.278-2.467s0-1.223,0-1.512v-31.816c0-1.025,0.359-1.9,1.079-2.619c0.718-0.719,1.593-1.08,2.622-1.08
		c1.026,0,1.901,0.361,2.62,1.08s1.078,1.594,1.078,2.619v32.127v0.123c0,0.205,0,0.492,0,0.861c0,0.371,0.043,0.762,0.125,1.172
		c0.081,0.412,0.203,0.834,0.369,1.266c0.162,0.43,0.391,0.791,0.678,1.078c0.124,0.123,0.39,0.318,0.802,0.586
		c0.41,0.268,1.089,0.402,2.034,0.402c1.069,0,1.819-0.135,2.251-0.402c0.433-0.268,0.709-0.463,0.833-0.586
		c0.574-0.615,0.925-1.355,1.048-2.221c0.123-0.861,0.185-1.477,0.185-1.848v-0.188v-0.061v-32.248c0-1.027,0.36-1.902,1.079-2.621
		c0.72-0.719,1.593-1.078,2.622-1.078c1.024,0,1.9,0.359,2.621,1.078c0.717,0.719,1.077,1.594,1.077,2.621v32.188
		C305.245-15.119,305.235-14.656,305.216-13.979z"/>
	<path fill="#CC6A11" d="M336.94-8.459c0.45,0.945,0.483,1.891,0.092,2.836S335.974-4,335.028-3.59
		c-0.494,0.207-0.986,0.311-1.48,0.311c-0.699,0-1.357-0.197-1.974-0.588c-0.617-0.389-1.088-0.934-1.418-1.633l-6.843-15.662
		h-3.701V-6.98c0,1.029-0.359,1.902-1.079,2.621c-0.719,0.719-1.592,1.08-2.619,1.08c-1.029,0-1.904-0.361-2.62-1.08
		c-0.722-0.719-1.08-1.592-1.08-2.621v-40.695c0-1.027,0.358-1.9,1.08-2.621c0.716-0.719,1.591-1.078,2.62-1.078h8.94
		c1.561,0,3.062,0.441,4.5,1.326s2.693,2.148,3.762,3.791c1.851,2.92,2.774,6.248,2.774,9.988c0,1.811-0.237,3.557-0.708,5.242
		c-0.474,1.686-1.164,3.248-2.066,4.686c-0.41,0.617-0.844,1.172-1.295,1.666c-0.45,0.492-0.904,0.945-1.357,1.355L336.94-8.459z
		 M324.854-28.561c0.204,0,0.482-0.135,0.832-0.402c0.348-0.266,0.75-0.73,1.203-1.387c0.533-0.82,0.935-1.748,1.202-2.773
		c0.266-1.029,0.399-2.078,0.399-3.146s-0.134-2.127-0.399-3.176c-0.268-1.049-0.669-1.982-1.202-2.805
		c-0.453-0.617-0.855-1.059-1.203-1.326c-0.35-0.266-0.628-0.4-0.832-0.4h-5.242v15.416H324.854z"/>
	<path fill="#CC6A11" d="M363.947-51.438c1.026,0,1.9,0.359,2.619,1.078c0.72,0.721,1.079,1.594,1.079,2.621V-6.98v0.246v0.186
		v0.062v0.123l-0.061,0.062v0.062v0.123v0.059c-0.043,0.043-0.062,0.084-0.062,0.125v0.062c0,0.041-0.009,0.061-0.03,0.061
		c-0.021,0-0.031,0.021-0.031,0.062s-0.011,0.072-0.031,0.092c-0.021,0.021-0.029,0.051-0.029,0.094c0,0.041-0.011,0.07-0.032,0.092
		c-0.021,0.02-0.03,0.053-0.03,0.092c0,0.041-0.01,0.062-0.031,0.062c-0.021,0-0.03,0.02-0.03,0.061v0.062
		c-0.042,0-0.062,0.021-0.062,0.061l-0.062,0.062c0,0.041-0.021,0.082-0.062,0.123l-0.061,0.061v0.064
		c-0.041,0-0.063,0.02-0.063,0.061s-0.021,0.062-0.06,0.062c0,0.041-0.011,0.061-0.032,0.061c-0.021,0-0.031,0.021-0.031,0.062
		h-0.061c0,0.041-0.021,0.082-0.062,0.121l-0.124,0.125l-0.124,0.123l-0.121,0.123h-0.062l-0.122,0.123
		c-0.044,0.041-0.083,0.062-0.124,0.062c0,0.041-0.021,0.061-0.062,0.061l-0.061,0.062c-0.044,0-0.062,0.01-0.062,0.031
		c0,0.02-0.021,0.029-0.062,0.029h-0.062L365.61-3.59c-0.162,0.082-0.308,0.146-0.431,0.188s-0.287,0.082-0.492,0.123
		c-0.165,0.039-0.412,0.061-0.74,0.061c-0.248,0-0.433-0.021-0.557-0.061h-0.122h-0.062c-0.041,0-0.061-0.021-0.061-0.062h-0.247
		v-0.061h-0.124c-0.164-0.084-0.269-0.123-0.309-0.123c-0.041,0-0.062-0.023-0.062-0.064h-0.062c-0.041,0-0.062-0.02-0.062-0.061
		c-0.04,0-0.083-0.021-0.124-0.062c-0.039,0-0.06-0.02-0.06-0.061h-0.063c-0.039,0-0.062-0.012-0.062-0.031
		c0-0.021-0.021-0.031-0.062-0.031c-0.451-0.328-0.821-0.719-1.11-1.172v-0.061c-0.039,0-0.06-0.021-0.06-0.062l-0.062-0.061v-0.062
		c-0.042-0.041-0.062-0.082-0.062-0.123c0-0.039-0.022-0.082-0.062-0.123l-10.543-24.357v22.939c0,1.027-0.361,1.902-1.081,2.621
		c-0.72,0.717-1.592,1.078-2.618,1.078c-1.028,0-1.902-0.361-2.621-1.078c-0.718-0.719-1.079-1.594-1.079-2.621v-40.758v-0.248
		v-0.186v-0.061v-0.123l0.062-0.062v-0.061v-0.123v-0.062c0.04-0.039,0.062-0.082,0.062-0.123v-0.061
		c0-0.041,0.008-0.062,0.029-0.062c0.021,0,0.031-0.02,0.031-0.062c0-0.039,0.01-0.072,0.03-0.092
		c0.022-0.021,0.032-0.051,0.032-0.094c0-0.039,0.009-0.068,0.028-0.092c0.022-0.02,0.032-0.051,0.032-0.092
		s0.009-0.062,0.031-0.062s0.031-0.02,0.031-0.061v-0.062l0.124-0.123c0-0.041,0.009-0.062,0.031-0.062
		c0.019,0,0.029-0.02,0.029-0.061l0.062-0.062v-0.061c0.04-0.041,0.062-0.082,0.062-0.125h0.061c0-0.039,0.012-0.061,0.032-0.061
		c0.019,0,0.029-0.02,0.029-0.061h0.062c0-0.041,0.021-0.082,0.062-0.123l0.124-0.125v-0.062c0.04,0,0.084-0.018,0.123-0.061v-0.061
		c0.042,0,0.082-0.021,0.123-0.062h0.062l0.124-0.123l0.123-0.123h0.061c0-0.041,0.019-0.062,0.062-0.062
		c0.04,0,0.061-0.01,0.061-0.029c0-0.021,0.021-0.033,0.062-0.033h0.062l0.123-0.123c0.286-0.164,0.576-0.268,0.863-0.307h0.062
		c0.204-0.041,0.513-0.062,0.924-0.062h0.186h0.062l0.062,0.062h0.122h0.061h0.123c0,0.039,0.021,0.061,0.064,0.061h0.124h0.06
		c0,0.041,0.042,0.062,0.123,0.062c0.042,0.041,0.103,0.061,0.187,0.061c0.041,0.043,0.081,0.062,0.123,0.062h0.062
		c0,0.041,0.039,0.061,0.123,0.061v0.062c0.083,0,0.122,0.021,0.122,0.061h0.062c0.04,0,0.061,0.012,0.061,0.033
		c0,0.02,0.022,0.029,0.062,0.029l0.062,0.062l0.062,0.061l0.062,0.062h0.062c0.04,0.039,0.082,0.061,0.122,0.061v0.062
		c0.04,0,0.062,0.01,0.062,0.031c0,0.02,0.021,0.031,0.062,0.031v0.061c0.039,0,0.062,0.01,0.062,0.031
		c0,0.02,0.019,0.029,0.062,0.029v0.062l0.122,0.125l0.124,0.123l0.123,0.121c0,0.043,0.019,0.084,0.062,0.125
		c0.038,0,0.062,0.021,0.062,0.061c0,0.041,0.02,0.062,0.062,0.062c0,0.082,0.019,0.123,0.06,0.123v0.062
		c0.04,0.041,0.062,0.082,0.062,0.123h0.062c0,0.082,0.01,0.135,0.031,0.154c0.018,0.02,0.03,0.053,0.03,0.092l10.545,24.357
		v-22.939c0-1.027,0.359-1.9,1.079-2.621C362.045-51.078,362.917-51.438,363.947-51.438z"/>
</g>
</svg>
