<?xml version="1.0" encoding="utf-8"?>
<!-- Generator: Adobe Illustrator 16.0.0, SVG Export Plug-In . SVG Version: 6.00 Build 0)  -->
<!DOCTYPE svg PUBLIC "-//W3C//DTD SVG 1.1//EN" "http://www.w3.org/Graphics/SVG/1.1/DTD/svg11.dtd">
<svg version="1.1" id="Layer_1" xmlns="http://www.w3.org/2000/svg" xmlns:xlink="http://www.w3.org/1999/xlink" x="0px" y="0px"
	 width="356px" height="443px" viewBox="161.5 36.094 356 443" enable-background="new 161.5 36.094 356 443" xml:space="preserve">
<g id="Layer_1_1_">
</g>
<g id="Layer_5">
</g>
<g id="Layer_2">
</g>
<g id="neptune">
</g>
<g id="uranus">
</g>
<g id="saturn">
</g>
<g id="jupiter">
</g>
<g id="Layer_14">
</g>
<g id="mars">
</g>
<g id="venus">
</g>
<g id="mercury">
</g>
<g id="earth">
</g>
<g id="Layer_6">
</g>
<g>
	<path fill="#CC6A11" d="M275.473,453.597c2.427,3.042,3.638,6.6,3.638,10.667c0,1.275-0.131,2.416-0.4,3.422
		c-0.269,1.009-0.596,1.902-0.984,2.683c-0.393,0.782-0.834,1.461-1.327,2.036c-0.492,0.574-0.985,1.068-1.479,1.479
		c-2.304,1.85-5.099,2.774-8.386,2.774c-1.603,0-3.104-0.228-4.502-0.678c-1.397-0.454-2.631-1.15-3.7-2.098
		c-0.453-0.37-0.915-0.844-1.389-1.419c-0.472-0.574-0.904-1.254-1.294-2.034c-0.391-0.779-0.708-1.685-0.955-2.713
		c-0.247-1.027-0.369-2.2-0.369-3.518c0-1.025,0.358-1.898,1.079-2.618c0.718-0.719,1.592-1.08,2.621-1.08
		c1.069,0,1.952,0.361,2.651,1.08c0.698,0.72,1.048,1.593,1.048,2.618c0,0.577,0.051,1.164,0.154,1.759
		c0.104,0.598,0.318,1.142,0.647,1.635c0.328,0.493,0.811,0.896,1.449,1.201c0.637,0.309,1.489,0.464,2.56,0.464
		c0.739,0,1.426-0.093,2.066-0.275c0.637-0.188,1.179-0.464,1.634-0.836c0.986-0.861,1.479-2.156,1.479-3.884
		c0-1.272-0.165-2.383-0.493-3.328c-0.329-0.945-0.813-1.819-1.449-2.62c-0.639-0.803-1.418-1.562-2.343-2.282
		c-0.926-0.718-1.965-1.489-3.116-2.312c-1.068-0.739-2.125-1.511-3.173-2.312c-1.049-0.804-2.026-1.717-2.93-2.744
		c-1.068-1.316-1.88-2.684-2.435-4.1c-0.556-1.42-0.833-2.972-0.833-4.656c0-0.247,0.011-0.698,0.032-1.355
		c0.019-0.658,0.123-1.42,0.308-2.283c0.184-0.861,0.493-1.766,0.926-2.713c0.431-0.944,1.057-1.85,1.879-2.713
		c0.699-0.779,1.747-1.541,3.144-2.281c1.398-0.738,3.208-1.109,5.429-1.109c2.259,0,4.059,0.381,5.395,1.142
		c1.335,0.763,2.352,1.531,3.05,2.312c0.781,0.945,1.368,1.941,1.758,2.991c0.391,1.049,0.648,2.014,0.771,2.897
		c0.123,0.883,0.164,1.654,0.123,2.312s-0.084,1.049-0.123,1.173c-0.122,0.738-0.368,1.355-0.739,1.85
		c-0.33,0.454-0.771,0.833-1.325,1.142c-0.556,0.308-1.306,0.359-2.251,0.153c-0.906-0.164-1.572-0.462-2.004-0.894
		c-0.432-0.434-0.718-0.885-0.861-1.357c-0.146-0.473-0.207-0.894-0.187-1.264c0.019-0.37,0.031-0.596,0.031-0.68
		c0.041-0.163,0.062-0.39,0.062-0.677c0-0.289-0.03-0.598-0.092-0.926c-0.061-0.33-0.153-0.658-0.277-0.987
		c-0.124-0.326-0.289-0.617-0.494-0.862c-0.493-0.616-1.439-0.926-2.835-0.926c-1.111,0-1.881,0.146-2.313,0.433
		c-0.432,0.288-0.708,0.493-0.833,0.616c-0.288,0.29-0.504,0.616-0.646,0.985c-0.144,0.37-0.258,0.741-0.34,1.11
		c-0.083,0.37-0.135,0.688-0.153,0.955c-0.021,0.27-0.031,0.463-0.031,0.587v0.123v0.123c0,0.822,0.144,1.572,0.43,2.251
		c0.289,0.68,0.69,1.315,1.204,1.911c0.514,0.597,1.162,1.191,1.942,1.788c0.779,0.598,1.665,1.244,2.651,1.941
		c1.151,0.823,2.333,1.706,3.548,2.651C273.326,451.274,274.446,452.363,275.473,453.597z"/>
	<path fill="#CC6A11" d="M305.625,472.342c0.205,1.028,0.03,1.963-0.524,2.807c-0.555,0.841-1.347,1.365-2.374,1.571
		c-0.165,0.04-0.394,0.062-0.679,0.062c-0.862,0-1.633-0.277-2.312-0.832c-0.677-0.556-1.122-1.265-1.325-2.128l-1.295-6.29h-6.6
		l-1.294,6.29c-0.164,0.863-0.584,1.572-1.265,2.128c-0.678,0.555-1.449,0.832-2.312,0.832c-0.33,0-0.578-0.021-0.74-0.062
		c-1.027-0.206-1.818-0.73-2.375-1.571c-0.554-0.844-0.729-1.777-0.523-2.807l8.202-40.758v-0.062v-0.122
		c0-0.039,0.008-0.062,0.029-0.062c0.021,0,0.031-0.02,0.031-0.061v-0.063v-0.06c0.042-0.041,0.062-0.083,0.062-0.124
		c0-0.04,0.009-0.062,0.03-0.062c0.021,0,0.031-0.021,0.031-0.062v-0.062c0.122-0.328,0.309-0.617,0.556-0.863v-0.062
		c0.039,0,0.06-0.01,0.06-0.03c0-0.02,0.021-0.03,0.062-0.03v-0.062l0.062-0.061l0.062-0.062l0.062-0.062l0.062-0.062l0.061-0.062
		l0.123-0.062c0.247-0.246,0.535-0.432,0.865-0.555h0.062c0.038-0.041,0.081-0.062,0.121-0.062c0.206-0.082,0.393-0.132,0.557-0.152
		c0.164-0.021,0.349-0.053,0.555-0.094h0.061h0.125h0.125c0.203,0.041,0.389,0.072,0.553,0.094c0.163,0.021,0.349,0.07,0.554,0.152
		c0.042,0,0.083,0.021,0.125,0.062h0.062c0.327,0.123,0.614,0.309,0.861,0.555c0.04,0,0.082,0.021,0.124,0.062l0.062,0.062
		l0.062,0.062l0.062,0.062l0.061,0.062l0.062,0.061l0.062,0.062l0.06,0.062v0.062c0.248,0.246,0.435,0.534,0.557,0.862v0.062
		c0,0.042,0.01,0.062,0.031,0.062c0.019,0,0.029,0.021,0.029,0.062c0.083,0.247,0.124,0.432,0.124,0.556L305.625,472.342z
		 M293.849,451.068l-1.853,9.065h3.639L293.849,451.068z"/>
	<path fill="#CC6A11" d="M332.909,429.117c0.72,0.699,1.081,1.584,1.081,2.65c0,1.028-0.361,1.902-1.081,2.62
		c-0.719,0.721-1.594,1.08-2.619,1.08h-5.734v36.996c0,1.028-0.361,1.902-1.078,2.621c-0.722,0.719-1.597,1.079-2.622,1.079
		c-1.029,0-1.901-0.36-2.621-1.079c-0.72-0.719-1.08-1.593-1.08-2.621v-36.996h-5.856c-1.028,0-1.9-0.359-2.622-1.08
		c-0.718-0.718-1.077-1.592-1.077-2.62c0-1.066,0.358-1.951,1.077-2.65c0.722-0.698,1.594-1.048,2.622-1.048h18.992
		C331.315,428.069,332.19,428.419,332.909,429.117z"/>
	<path fill="#CC6A11" d="M361.397,465.467c-0.021,0.678-0.134,1.459-0.338,2.342c-0.207,0.886-0.536,1.83-0.989,2.839
		c-0.452,1.008-1.09,1.941-1.91,2.804c-0.701,0.782-1.737,1.542-3.115,2.282c-1.378,0.739-3.153,1.11-5.334,1.11
		c-2.18,0-3.936-0.371-5.271-1.11c-1.336-0.74-2.354-1.5-3.054-2.282c-0.821-0.901-1.447-1.869-1.88-2.897
		c-0.432-1.024-0.739-2.004-0.925-2.929c-0.185-0.925-0.277-1.747-0.277-2.467c0-0.718,0-1.223,0-1.511V431.83
		c0-1.026,0.358-1.9,1.078-2.619c0.719-0.72,1.594-1.08,2.622-1.08c1.027,0,1.901,0.36,2.621,1.08
		c0.72,0.719,1.078,1.593,1.078,2.619v32.127v0.123c0,0.204,0,0.492,0,0.861c0,0.37,0.043,0.762,0.125,1.172
		c0.082,0.412,0.204,0.834,0.369,1.265c0.163,0.431,0.391,0.791,0.678,1.079c0.125,0.123,0.391,0.318,0.802,0.585
		c0.411,0.269,1.09,0.402,2.035,0.402c1.069,0,1.819-0.135,2.25-0.402c0.434-0.267,0.709-0.462,0.833-0.585
		c0.575-0.616,0.925-1.356,1.048-2.221c0.123-0.861,0.186-1.479,0.186-1.85V464.2v-0.061v-32.249c0-1.025,0.359-1.9,1.079-2.619
		c0.72-0.72,1.593-1.078,2.623-1.078c1.023,0,1.899,0.358,2.621,1.078c0.717,0.719,1.077,1.594,1.077,2.619v32.188
		C361.428,464.326,361.417,464.789,361.397,465.467z"/>
	<path fill="#CC6A11" d="M393.122,470.985c0.45,0.945,0.483,1.892,0.092,2.836c-0.392,0.945-1.059,1.623-2.004,2.034
		c-0.494,0.207-0.986,0.31-1.48,0.31c-0.699,0-1.357-0.196-1.975-0.587c-0.616-0.391-1.088-0.935-1.418-1.633l-6.842-15.662h-3.701
		v14.182c0,1.028-0.358,1.902-1.079,2.621c-0.719,0.719-1.592,1.079-2.619,1.079c-1.028,0-1.903-0.36-2.62-1.079
		c-0.723-0.719-1.08-1.593-1.08-2.621v-40.696c0-1.026,0.357-1.899,1.08-2.619c0.716-0.721,1.591-1.079,2.62-1.079h8.94
		c1.562,0,3.062,0.44,4.5,1.326c1.439,0.885,2.694,2.147,3.762,3.79c1.852,2.921,2.775,6.249,2.775,9.989
		c0,1.811-0.237,3.558-0.708,5.242c-0.473,1.686-1.164,3.247-2.066,4.686c-0.41,0.616-0.844,1.173-1.295,1.665
		c-0.449,0.492-0.903,0.945-1.356,1.356L393.122,470.985z M381.036,450.884c0.204,0,0.483-0.134,0.833-0.4
		c0.348-0.267,0.75-0.73,1.203-1.388c0.533-0.82,0.935-1.748,1.202-2.773c0.266-1.028,0.399-2.077,0.399-3.146
		c0-1.068-0.134-2.127-0.399-3.176c-0.269-1.049-0.669-1.982-1.202-2.806c-0.453-0.616-0.855-1.059-1.203-1.325
		c-0.35-0.266-0.628-0.4-0.833-0.4h-5.242v15.415H381.036z"/>
	<path fill="#CC6A11" d="M420.129,428.008c1.026,0,1.9,0.359,2.62,1.078c0.719,0.721,1.079,1.594,1.079,2.621v40.758v0.246v0.186
		v0.062v0.123l-0.061,0.062v0.062v0.123v0.06c-0.043,0.043-0.062,0.084-0.062,0.125v0.062c0,0.041-0.009,0.062-0.03,0.062
		c-0.021,0-0.031,0.021-0.031,0.062s-0.011,0.072-0.031,0.093c-0.021,0.021-0.029,0.051-0.029,0.093s-0.011,0.071-0.032,0.093
		c-0.021,0.021-0.03,0.054-0.03,0.093c0,0.041-0.01,0.062-0.031,0.062s-0.03,0.021-0.03,0.062v0.062
		c-0.042,0-0.062,0.022-0.062,0.062l-0.062,0.062c0,0.042-0.021,0.083-0.062,0.124l-0.062,0.062v0.062
		c-0.041,0-0.062,0.021-0.062,0.062s-0.021,0.062-0.061,0.062c0,0.041-0.011,0.062-0.032,0.062c-0.021,0-0.03,0.021-0.03,0.062
		h-0.062c0,0.042-0.021,0.083-0.062,0.122l-0.124,0.125l-0.124,0.123l-0.121,0.123h-0.062l-0.122,0.123
		c-0.043,0.04-0.084,0.062-0.125,0.062c0,0.04-0.021,0.062-0.062,0.062l-0.061,0.062c-0.044,0-0.062,0.01-0.062,0.03
		s-0.021,0.03-0.062,0.03h-0.062l-0.124,0.123c-0.163,0.082-0.308,0.146-0.431,0.188c-0.123,0.04-0.287,0.081-0.492,0.122
		c-0.165,0.04-0.412,0.062-0.74,0.062c-0.248,0-0.432-0.021-0.557-0.062h-0.122h-0.062c-0.042,0-0.061-0.021-0.061-0.062h-0.247
		v-0.062h-0.124c-0.164-0.084-0.268-0.124-0.308-0.124c-0.041,0-0.062-0.021-0.062-0.062h-0.062c-0.041,0-0.062-0.021-0.062-0.062
		c-0.04,0-0.083-0.021-0.124-0.062c-0.04,0-0.06-0.021-0.06-0.062h-0.063c-0.04,0-0.062-0.012-0.062-0.031
		c0-0.021-0.021-0.03-0.062-0.03c-0.452-0.328-0.821-0.72-1.109-1.172v-0.062c-0.039,0-0.061-0.021-0.061-0.062l-0.062-0.062v-0.062
		c-0.042-0.041-0.062-0.082-0.062-0.123c0-0.039-0.021-0.082-0.062-0.123l-10.543-24.357v22.939c0,1.026-0.361,1.9-1.081,2.62
		c-0.721,0.718-1.593,1.078-2.618,1.078c-1.028,0-1.903-0.36-2.622-1.078c-0.718-0.72-1.079-1.594-1.079-2.62v-40.759v-0.247v-0.187
		v-0.061v-0.123l0.062-0.062v-0.062v-0.123v-0.062c0.04-0.04,0.062-0.082,0.062-0.124v-0.061c0-0.04,0.008-0.062,0.029-0.062
		c0.021,0,0.03-0.021,0.03-0.062c0-0.04,0.011-0.072,0.031-0.092c0.022-0.021,0.032-0.052,0.032-0.095
		c0-0.039,0.009-0.068,0.029-0.092c0.021-0.02,0.031-0.051,0.031-0.093c0-0.04,0.01-0.062,0.031-0.062
		c0.022,0,0.031-0.02,0.031-0.062v-0.062l0.124-0.123c0-0.041,0.009-0.062,0.031-0.062c0.019,0,0.028-0.021,0.028-0.062l0.062-0.062
		v-0.062c0.04-0.04,0.061-0.082,0.061-0.124h0.062c0-0.04,0.012-0.062,0.032-0.062c0.019,0,0.028-0.021,0.028-0.062h0.062
		c0-0.04,0.021-0.081,0.062-0.123l0.124-0.124v-0.062c0.041,0,0.084-0.019,0.123-0.061v-0.062c0.042,0,0.082-0.021,0.123-0.062
		h0.062l0.124-0.124l0.123-0.123h0.061c0-0.04,0.019-0.062,0.062-0.062c0.041,0,0.062-0.01,0.062-0.029
		c0-0.021,0.021-0.032,0.062-0.032h0.062l0.123-0.123c0.286-0.164,0.576-0.268,0.863-0.309h0.062
		c0.204-0.039,0.512-0.062,0.923-0.062h0.187h0.062l0.062,0.062h0.122h0.061h0.123c0,0.041,0.021,0.062,0.064,0.062h0.124h0.06
		c0,0.041,0.042,0.062,0.123,0.062c0.042,0.039,0.103,0.061,0.187,0.061c0.041,0.042,0.081,0.062,0.123,0.062h0.062
		c0,0.04,0.039,0.061,0.123,0.061v0.062c0.083,0,0.123,0.021,0.123,0.062h0.062c0.04,0,0.062,0.011,0.062,0.032
		c0,0.021,0.021,0.029,0.062,0.029l0.062,0.062l0.062,0.062l0.062,0.062h0.062c0.04,0.04,0.082,0.062,0.122,0.062v0.062
		c0.04,0,0.061,0.01,0.061,0.03c0,0.02,0.021,0.031,0.062,0.031v0.062c0.04,0,0.062,0.01,0.062,0.031
		c0,0.02,0.019,0.028,0.062,0.028v0.062l0.123,0.124l0.124,0.123l0.123,0.122c0,0.042,0.019,0.084,0.062,0.124
		c0.038,0,0.062,0.021,0.062,0.062s0.02,0.062,0.062,0.062c0,0.082,0.02,0.123,0.06,0.123v0.062
		c0.041,0.042,0.062,0.082,0.062,0.123h0.062c0,0.083,0.01,0.136,0.03,0.154c0.019,0.021,0.03,0.053,0.03,0.092l10.545,24.356
		v-22.938c0-1.027,0.359-1.9,1.079-2.621C418.227,428.367,419.1,428.008,420.129,428.008z"/>
</g>
<g>
	<path fill="#F5DA71" d="M432.064,360.471c-80.229,50.885-186.507,27.1-237.394-53.121c-50.878-80.222-7.667-196.799,72.552-247.686
		c0,0,48.819-32.693,138.965-7.19c0,0,40.958,10.819,61.051,30.912c14.346,14.342,67.309,113.139,33.656,192.58"/>
	<path fill="#EA980E" d="M505.229,262.782l-24.077-19.685l-10.303,26.792c0,0-21.638,20.607-31.944,22.667
		c-10.303,2.062-74.188,34.003-91.703,34.003c-17.518,0-63.885-26.788-71.098-32.971c-7.214-6.182-31.943-42.247-31.943-59.763
		c0-17.516-22.574-57.701-18.454-57.701c4.121,0,23.794-26.792,23.794-26.792v-18.034v-24.729l10.209-26.272l11.286-22.68
		c0,0-39.407,19.627-79.475,70.611c-40.07,50.986-20.505,130.327-20.505,130.327s20.929,62.875,69.191,96.867
		c48.268,33.993,103.389,39.467,151.562,23.85C439.938,363.654,486.027,328.832,505.229,262.782z"/>
	<path fill="#CC6A11" d="M468.5,330.68V319.86l-12.221-13.582l-6.039,16.815h-15.459l-18.545,16.834l-26.791,11.166h-27.307
		L349.26,371.03l-34.002-6.267l-30.883-17.555l-13.424,15.436l-12.365-5.363l-23.699-14.23l-7.906,1.802
		c0,0,41.766,37.14,105.651,42.396C396.517,392.506,446.5,349.224,468.5,330.68z"/>
	
		<ellipse transform="matrix(0.9333 0.359 -0.359 0.9333 50.4849 -137.5904)" fill="#BC9E3C" cx="395.756" cy="67.155" rx="10.432" ry="3.865"/>
	<path fill="none" stroke="#BC9E3C" stroke-miterlimit="10" d="M393.629,68.509c0,0,9.66,7.535,8.182,16.938"/>
	<path fill="none" stroke="#BC9E3C" stroke-miterlimit="10" d="M403.289,70.762c0,0,16.035-3.606,20.16,7.343"/>
	<path fill="none" stroke="#BC9E3C" stroke-miterlimit="10" d="M387.834,63.099c0,0-11.785-6.504-16.936-3.928"/>
	<path fill="none" stroke="#BC9E3C" stroke-miterlimit="10" d="M391.248,67.669c0,0-11.849-5.15-18.031-1.802"/>
</g>
<g>
	<g>
		<path fill="#F5DA71" d="M431.848,361.471c-80.229,50.885-186.507,27.1-237.394-53.121
			c-50.878-80.222-7.667-196.799,72.552-247.686c0,0,48.819-32.693,138.965-7.19c0,0,40.958,10.819,61.051,30.912
			c14.346,14.342,67.309,113.139,33.656,192.58"/>
		<path fill="#F5DA71" d="M505.012,263.782l-24.077-19.685l-10.303,26.792c0,0-21.638,20.607-31.944,22.667
			c-10.303,2.062-74.188,34.003-91.703,34.003c-17.518,0-63.885-26.788-71.098-32.971c-7.214-6.182-31.943-42.246-31.943-59.763
			c0-17.516-22.466-57.701-18.346-57.701c4.121,0,23.902-26.792,23.902-26.792v-18.034v-24.729l10.101-26.272l11.231-22.68
			c0,0-39.434,19.627-79.502,70.611c-40.07,50.986-20.519,130.327-20.519,130.327s20.923,62.875,69.185,96.867
			c48.268,33.993,103.385,39.467,151.558,23.85C439.724,364.654,485.811,329.832,505.012,263.782z"/>
		<path fill="#F5DA71" d="M468.5,331.68V320.86l-12.329-13.581l-6.147,16.814h-15.459l-18.545,16.834l-26.791,11.166h-27.307
			l-12.879,19.937l-34.002-6.266l-30.883-17.555l-13.424,15.435l-12.365-5.363l-23.699-14.23l-7.906,1.802
			c0,0,41.874,37.14,105.759,42.396C396.408,393.506,446.5,350.224,468.5,331.68z"/>
	</g>
	<g>
		<path fill="#CC6A11" d="M198.122,204.753c0.691,0,1.278,0.242,1.762,0.726c0.484,0.483,0.727,1.071,0.727,1.762
			c0,0.774-0.062,1.548-0.187,2.321c-0.125,0.774-0.422,1.479-0.892,2.114c-0.553,0.774-1.285,1.327-2.197,1.658
			c-0.746,0.276-1.658,0.415-2.736,0.415h-8.166c-0.691,0-1.279-0.242-1.762-0.726c-0.484-0.483-0.726-1.07-0.726-1.762
			c0-1.437,0.2-2.784,0.601-4.042c0.4-1.257,0.918-2.452,1.555-3.586c0.636-1.133,1.34-2.21,2.113-3.233
			c0.773-1.022,1.548-2.003,2.322-2.943c0.607-0.746,1.188-1.478,1.741-2.197c0.552-0.718,1.05-1.43,1.492-2.135
			c0.442-0.705,0.794-1.402,1.058-2.093c0.262-0.69,0.394-1.382,0.394-2.073v-0.166c0.027-0.221-0.007-0.594-0.104-1.119
			c-0.098-0.525-0.312-0.981-0.644-1.368c-0.082-0.083-0.275-0.213-0.579-0.394c-0.305-0.18-0.816-0.27-1.534-0.27
			c-0.968,0-1.617,0.194-1.948,0.58c-0.305,0.36-0.478,0.809-0.519,1.348s-0.049,0.864-0.021,0.974
			c0.11,0.691-0.042,1.313-0.456,1.865c-0.414,0.553-0.968,0.871-1.658,0.954c-0.691,0.111-1.307-0.042-1.845-0.456
			c-0.539-0.415-0.864-0.967-0.975-1.658c0-0.083-0.014-0.345-0.042-0.788c-0.027-0.442,0-0.96,0.084-1.555
			c0.082-0.594,0.241-1.236,0.477-1.928c0.234-0.69,0.628-1.354,1.182-1.99c0.47-0.552,1.16-1.078,2.072-1.575
			s2.129-0.746,3.648-0.746c1.492,0,2.701,0.242,3.627,0.726s1.623,0.988,2.094,1.513c0.525,0.581,0.939,1.196,1.244,1.845
			c0.303,0.649,0.518,1.258,0.642,1.824c0.125,0.567,0.193,1.071,0.208,1.513c0.014,0.442,0.021,0.746,0.021,0.912
			c0,1.133-0.166,2.211-0.497,3.233c-0.332,1.023-0.774,2.011-1.327,2.964c-0.554,0.954-1.175,1.88-1.865,2.778
			s-1.396,1.776-2.114,2.632c-1.105,1.354-2.135,2.688-3.088,4c-0.954,1.312-1.625,2.702-2.012,4.166h5.307
			c0.249,0,0.449-0.006,0.602-0.021c0.151-0.014,0.27-0.035,0.353-0.062c0.026-0.11,0.048-0.269,0.062-0.477
			c0.014-0.207,0.021-0.532,0.021-0.974c0-0.69,0.24-1.278,0.725-1.762C196.844,204.996,197.431,204.753,198.122,204.753z"/>
		<path fill="#CC6A11" d="M219.306,205.126c0,0.166-0.007,0.484-0.021,0.953c-0.015,0.471-0.09,1.002-0.229,1.596
			c-0.139,0.595-0.353,1.23-0.642,1.907c-0.291,0.677-0.713,1.306-1.266,1.886c-0.497,0.526-1.202,1.037-2.113,1.534
			c-0.913,0.498-2.102,0.746-3.565,0.746c-1.493,0-2.682-0.249-3.565-0.746c-0.885-0.498-1.562-1.008-2.031-1.534
			c-0.554-0.607-0.98-1.257-1.285-1.948c-0.305-0.69-0.519-1.347-0.643-1.969c-0.125-0.622-0.188-1.175-0.188-1.658s0-0.822,0-1.016
			V189c0-1.686,0.277-3.033,0.83-4.042c0.553-1.009,1.119-1.789,1.7-2.342c1.409-1.327,3.122-1.99,5.14-1.99
			c0.939,0,1.879,0.166,2.819,0.498c0.938,0.332,1.782,0.843,2.528,1.534c0.746,0.691,1.354,1.562,1.824,2.612
			c0.47,1.05,0.705,2.294,0.705,3.731V205.126z M212.922,185.933c-0.249-0.138-0.505-0.228-0.768-0.27
			c-0.263-0.041-0.505-0.062-0.726-0.062c-0.193,0-0.442,0.035-0.746,0.104c-0.305,0.069-0.602,0.222-0.891,0.456
			c-0.291,0.235-0.54,0.574-0.747,1.016c-0.207,0.442-0.312,1.051-0.312,1.824v7.876L212.922,185.933z M213.501,208.07
			c0.359-0.387,0.595-0.877,0.705-1.472c0.111-0.594,0.152-1.016,0.125-1.265v-0.124v-9.038l-4.643,12.105
			c0.137,0.111,0.338,0.222,0.6,0.332c0.263,0.111,0.657,0.166,1.183,0.166c0.69,0,1.182-0.096,1.472-0.29
			C213.232,208.291,213.419,208.152,213.501,208.07z"/>
		<path fill="#CC6A11" d="M223.326,207.614c0.69,0,1.278,0.242,1.762,0.726s0.726,1.071,0.726,1.762c0,0.719-0.242,1.32-0.726,1.803
			c-0.483,0.484-1.071,0.726-1.762,0.726c-0.72,0-1.319-0.242-1.804-0.726c-0.482-0.483-0.725-1.084-0.725-1.803
			c0-0.69,0.242-1.278,0.725-1.762C222.007,207.856,222.606,207.614,223.326,207.614z"/>
		<path fill="#CC6A11" d="M244.841,189.83c0.581,3.813-0.621,8.747-3.605,14.799c-0.525,1.078-1.051,2.08-1.576,3.005
			c-0.525,0.926-0.994,1.735-1.409,2.425c-0.415,0.691-0.753,1.237-1.016,1.638c-0.263,0.401-0.408,0.615-0.436,0.642
			c-0.249,0.36-0.56,0.628-0.933,0.809c-0.373,0.179-0.753,0.27-1.141,0.27c-0.524,0-0.994-0.152-1.408-0.456
			c-0.554-0.387-0.892-0.918-1.016-1.596c-0.125-0.677,0.006-1.292,0.394-1.845c0.497-0.746,0.939-1.444,1.326-2.093
			c0.388-0.649,0.822-1.402,1.306-2.259c0.484-0.856,0.975-1.783,1.472-2.778c0.581-1.161,1.079-2.28,1.493-3.358
			c-0.471,0.139-0.961,0.249-1.473,0.332c-0.512,0.083-1.057,0.124-1.637,0.124h-0.042c-0.968,0-1.823-0.096-2.569-0.29
			c-0.747-0.193-1.41-0.449-1.99-0.767c-0.58-0.317-1.078-0.664-1.492-1.037c-0.415-0.373-0.761-0.739-1.037-1.099
			c-0.58-0.718-0.974-1.402-1.182-2.052c-0.207-0.649-0.324-1.071-0.352-1.265c-0.166-0.773-0.242-1.554-0.229-2.342
			c0.015-0.788,0.104-1.568,0.27-2.342c0.387-1.741,1.105-3.233,2.155-4.477c0.802-0.912,1.783-1.63,2.944-2.156
			c1.244-0.524,2.57-0.718,3.979-0.58c2.569,0.166,4.602,0.953,6.094,2.363c1.52,1.382,2.542,3.482,3.067,6.301L244.841,189.83z
			 M239.162,192.814c0.222-0.249,0.4-0.49,0.538-0.725c0.139-0.234,0.235-0.421,0.291-0.56c0-0.138-0.007-0.291-0.021-0.456
			c-0.014-0.166-0.034-0.317-0.062-0.456c-0.165-0.912-0.388-1.658-0.663-2.239c-0.276-0.58-0.602-1.036-0.975-1.368
			c-0.373-0.332-0.801-0.566-1.285-0.705c-0.483-0.138-1.043-0.234-1.679-0.29c-1.188-0.083-2.142,0.277-2.86,1.078
			c-0.497,0.553-0.843,1.292-1.037,2.218c-0.193,0.926-0.207,1.831-0.041,2.715l0.041,0.042c0,0.056,0.049,0.214,0.146,0.477
			c0.096,0.263,0.269,0.532,0.518,0.808c0.664,0.774,1.672,1.161,3.026,1.161C236.868,194.459,238.222,193.892,239.162,192.814z"/>
		<path fill="#CC6A11" d="M261.527,209.21c0.483,0.483,0.726,1.071,0.726,1.762c0,0.691-0.242,1.279-0.726,1.762
			c-0.484,0.483-1.071,0.726-1.763,0.726h-10.777c-0.691,0-1.279-0.242-1.762-0.726c-0.484-0.483-0.727-1.071-0.727-1.762
			c0-0.69,0.242-1.278,0.727-1.762c0.482-0.483,1.07-0.726,1.762-0.726h2.984v-18.904l-1.037,1.037
			c-0.471,0.47-1.05,0.705-1.74,0.705c-0.691,0-1.285-0.234-1.783-0.705c-0.471-0.498-0.704-1.091-0.704-1.783
			c0-0.69,0.233-1.271,0.704-1.741l5.266-5.265c0.358-0.359,0.787-0.587,1.285-0.684c0.496-0.097,0.98-0.048,1.451,0.145
			c0.469,0.194,0.842,0.498,1.118,0.912s0.415,0.871,0.415,1.368v24.915h2.818C260.456,208.484,261.043,208.727,261.527,209.21z"/>
		<path fill="#CC6A11" d="M303.003,205.085c0,0.083-0.008,0.353-0.021,0.809s-0.082,0.995-0.207,1.617
			c-0.124,0.622-0.339,1.292-0.643,2.01c-0.305,0.719-0.746,1.382-1.326,1.99c-0.471,0.525-1.168,1.037-2.094,1.534
			s-2.121,0.746-3.586,0.746s-2.646-0.249-3.545-0.746c-0.897-0.498-1.582-1.009-2.052-1.534c-0.553-0.607-0.981-1.257-1.284-1.948
			c-0.305-0.69-0.519-1.347-0.644-1.969c-0.124-0.622-0.187-1.175-0.187-1.658s0-0.822,0-1.016V189c0-1.686,0.276-3.033,0.83-4.042
			c0.552-1.009,1.119-1.789,1.699-2.342c0.69-0.635,1.479-1.125,2.362-1.472c0.884-0.345,1.811-0.518,2.778-0.518
			c0.939,0,1.886,0.166,2.84,0.498c0.953,0.332,1.803,0.843,2.549,1.534c0.746,0.691,1.354,1.562,1.824,2.612
			c0.47,1.05,0.705,2.294,0.705,3.731c0,0.719-0.242,1.313-0.726,1.782c-0.484,0.47-1.071,0.705-1.763,0.705
			s-1.277-0.235-1.762-0.705c-0.484-0.469-0.725-1.063-0.725-1.782c0-0.747-0.104-1.34-0.312-1.783
			c-0.207-0.442-0.456-0.781-0.746-1.016c-0.29-0.234-0.608-0.394-0.953-0.477c-0.346-0.083-0.657-0.125-0.933-0.125
			c-0.193,0-0.443,0.035-0.746,0.104c-0.305,0.069-0.602,0.222-0.893,0.456c-0.289,0.235-0.538,0.574-0.745,1.016
			c-0.208,0.442-0.312,1.051-0.312,1.824v16.001v0.208c0,0.138,0,0.325,0,0.56c0,0.235,0.027,0.498,0.083,0.788
			s0.139,0.581,0.249,0.871c0.109,0.29,0.262,0.532,0.456,0.725c0.083,0.083,0.263,0.215,0.538,0.394
			c0.276,0.18,0.747,0.27,1.41,0.27c0.719,0,1.217-0.089,1.492-0.27c0.276-0.179,0.456-0.324,0.539-0.435
			c0.387-0.387,0.629-0.871,0.726-1.451s0.146-1.008,0.146-1.285c0-0.027,0-0.179,0-0.456c0-0.276,0.068-0.573,0.207-0.891
			c0.138-0.317,0.365-0.615,0.684-0.891s0.781-0.428,1.389-0.456c0.636-0.027,1.126,0.083,1.473,0.332
			c0.345,0.249,0.614,0.525,0.808,0.829C302.81,204.201,302.946,204.615,303.003,205.085z"/>
		<path fill="#CC6A11" d="M321.885,209.127c0.483,0.484,0.726,1.071,0.726,1.762c0,0.691-0.242,1.279-0.726,1.762
			c-0.483,0.483-1.071,0.726-1.762,0.726h-10.156c-0.69,0-1.278-0.242-1.763-0.726c-0.482-0.483-0.725-1.07-0.725-1.762v-27.443
			c0-0.69,0.242-1.278,0.725-1.762c0.484-0.483,1.072-0.726,1.763-0.726h10.156c0.69,0,1.278,0.242,1.762,0.726
			c0.483,0.484,0.726,1.071,0.726,1.762c0,0.719-0.242,1.313-0.726,1.783c-0.483,0.47-1.071,0.705-1.762,0.705h-7.669v10.447h5.307
			c0.69,0,1.277,0.242,1.762,0.726c0.483,0.484,0.725,1.071,0.725,1.762c0,0.691-0.241,1.279-0.725,1.762
			c-0.484,0.484-1.071,0.726-1.762,0.726h-5.307v7.047h7.669C320.813,208.401,321.401,208.644,321.885,209.127z"/>
		<path fill="#CC6A11" d="M341.183,181c0.689,0,1.277,0.242,1.762,0.726c0.482,0.484,0.726,1.071,0.726,1.762v27.402v0.166v0.125
			v0.042v0.083l-0.042,0.042v0.042v0.083v0.042c-0.027,0.028-0.041,0.056-0.041,0.083v0.042c0,0.028-0.008,0.042-0.021,0.042
			c-0.015,0-0.021,0.014-0.021,0.042c0,0.028-0.007,0.048-0.021,0.062c-0.014,0.015-0.021,0.035-0.021,0.062
			c0,0.028-0.007,0.048-0.021,0.062c-0.014,0.014-0.021,0.035-0.021,0.062c0,0.028-0.008,0.042-0.021,0.042
			c-0.015,0-0.021,0.014-0.021,0.042v0.042c-0.027,0-0.041,0.014-0.041,0.042l-0.042,0.042c0,0.028-0.015,0.056-0.041,0.083
			l-0.042,0.041v0.042c-0.027,0-0.041,0.015-0.041,0.042c0,0.028-0.015,0.042-0.042,0.042c0,0.028-0.007,0.042-0.021,0.042
			s-0.021,0.014-0.021,0.042h-0.042c0,0.028-0.014,0.056-0.041,0.083l-0.083,0.083l-0.083,0.083l-0.083,0.083h-0.042l-0.082,0.083
			c-0.028,0.027-0.056,0.042-0.084,0.042c0,0.027-0.014,0.042-0.041,0.042l-0.041,0.042c-0.027,0-0.041,0.006-0.041,0.021
			c0,0.014-0.015,0.021-0.041,0.021h-0.043l-0.082,0.083c-0.111,0.055-0.207,0.097-0.29,0.125c-0.083,0.027-0.194,0.055-0.332,0.083
			c-0.11,0.027-0.276,0.042-0.497,0.042c-0.166,0-0.291-0.014-0.373-0.042h-0.084h-0.041c-0.027,0-0.041-0.014-0.041-0.042h-0.166
			v-0.042h-0.083c-0.11-0.056-0.181-0.083-0.207-0.083c-0.028,0-0.041-0.014-0.041-0.042h-0.042c-0.027,0-0.041-0.014-0.041-0.042
			c-0.028,0-0.057-0.014-0.083-0.041c-0.028,0-0.042-0.015-0.042-0.042h-0.041c-0.028,0-0.042-0.007-0.042-0.021
			c0-0.014-0.014-0.021-0.041-0.021c-0.305-0.221-0.554-0.483-0.747-0.788v-0.042c-0.027,0-0.041-0.014-0.041-0.042l-0.041-0.042
			v-0.042c-0.027-0.027-0.041-0.055-0.041-0.083c0-0.027-0.016-0.055-0.042-0.083l-7.089-16.375v15.421
			c0,0.691-0.242,1.279-0.726,1.762c-0.483,0.483-1.071,0.726-1.763,0.726c-0.689,0-1.277-0.242-1.762-0.726
			c-0.482-0.483-0.725-1.071-0.725-1.762v-27.402v-0.166v-0.124v-0.042v-0.083l0.041-0.042v-0.042v-0.083v-0.042
			c0.027-0.027,0.042-0.055,0.042-0.083v-0.042c0-0.027,0.007-0.042,0.021-0.042s0.021-0.014,0.021-0.042
			c0-0.027,0.007-0.048,0.021-0.062c0.013-0.014,0.021-0.035,0.021-0.062c0-0.027,0.006-0.048,0.021-0.062
			c0.014-0.014,0.021-0.034,0.021-0.062c0-0.027,0.006-0.041,0.021-0.041c0.014,0,0.021-0.014,0.021-0.042v-0.042l0.083-0.083
			c0-0.027,0.006-0.042,0.021-0.042c0.013,0,0.021-0.014,0.021-0.042l0.041-0.042v-0.042c0.027-0.027,0.042-0.055,0.042-0.083h0.042
			c0-0.027,0.006-0.042,0.02-0.042s0.021-0.014,0.021-0.042h0.041c0-0.027,0.014-0.055,0.041-0.083l0.084-0.083v-0.042
			c0.026,0,0.055-0.014,0.082-0.042v-0.042c0.027,0,0.055-0.013,0.084-0.041h0.041l0.082-0.083l0.084-0.083h0.041
			c0-0.027,0.014-0.042,0.041-0.042c0.028,0,0.042-0.006,0.042-0.021c0-0.014,0.014-0.021,0.041-0.021h0.042l0.083-0.083
			c0.192-0.11,0.387-0.179,0.58-0.207h0.042c0.137-0.027,0.345-0.042,0.621-0.042h0.125h0.041l0.041,0.042h0.083h0.042h0.083
			c0,0.028,0.014,0.042,0.041,0.042h0.083h0.042c0,0.028,0.026,0.042,0.082,0.042c0.028,0.028,0.069,0.042,0.125,0.042
			c0.026,0.028,0.056,0.041,0.083,0.041h0.041c0,0.028,0.027,0.042,0.083,0.042v0.042c0.056,0,0.083,0.014,0.083,0.042h0.041
			c0.027,0,0.042,0.007,0.042,0.021c0,0.014,0.013,0.021,0.042,0.021l0.041,0.042l0.041,0.042l0.041,0.042h0.043
			c0.026,0.028,0.055,0.042,0.082,0.042v0.042c0.027,0,0.041,0.007,0.041,0.021c0,0.014,0.014,0.021,0.041,0.021v0.042
			c0.028,0,0.043,0.007,0.043,0.021c0,0.014,0.013,0.021,0.041,0.021v0.042l0.082,0.083l0.084,0.083l0.082,0.083
			c0,0.028,0.014,0.056,0.042,0.083c0.027,0,0.041,0.015,0.041,0.042c0,0.028,0.014,0.042,0.042,0.042
			c0,0.056,0.014,0.083,0.041,0.083v0.042c0.027,0.028,0.042,0.056,0.042,0.083h0.041c0,0.056,0.007,0.09,0.021,0.104
			c0.015,0.014,0.021,0.035,0.021,0.062l7.089,16.375v-15.421c0-0.69,0.241-1.278,0.726-1.762
			C339.903,181.242,340.491,181,341.183,181z"/>
		<path fill="#CC6A11" d="M363.133,181.746c0.482,0.47,0.726,1.064,0.726,1.783c0,0.691-0.243,1.279-0.726,1.762
			c-0.484,0.484-1.072,0.726-1.762,0.726h-3.856v24.873c0,0.691-0.241,1.279-0.725,1.762c-0.484,0.483-1.071,0.726-1.762,0.726
			c-0.691,0-1.279-0.242-1.762-0.726c-0.484-0.483-0.727-1.07-0.727-1.762v-24.873h-3.938c-0.691,0-1.278-0.242-1.762-0.726
			c-0.484-0.483-0.726-1.07-0.726-1.762c0-0.718,0.241-1.312,0.726-1.783c0.483-0.469,1.07-0.705,1.762-0.705h12.769
			C362.061,181.041,362.648,181.276,363.133,181.746z"/>
		<path fill="#CC6A11" d="M369.33,181c0.718,0,1.312,0.242,1.782,0.726c0.469,0.484,0.705,1.071,0.705,1.762v27.443
			c0,0.691-0.236,1.279-0.705,1.762c-0.471,0.483-1.064,0.726-1.782,0.726c-0.691,0-1.279-0.242-1.762-0.726
			c-0.484-0.483-0.726-1.071-0.726-1.762v-27.443c0-0.69,0.241-1.278,0.726-1.762C368.051,181.242,368.639,181,369.33,181z"/>
		<path fill="#CC6A11" d="M396.192,210.93c0,0.691-0.242,1.279-0.726,1.762c-0.483,0.483-1.071,0.726-1.762,0.726
			c-0.691,0-1.279-0.242-1.762-0.726c-0.484-0.483-0.726-1.071-0.726-1.762v-17.08l-2.611,5.141
			c-0.223,0.608-0.623,1.05-1.203,1.326c-0.331,0.166-0.678,0.249-1.036,0.249h-0.042h-0.041h-0.041h-0.042
			c-0.359,0-0.704-0.083-1.036-0.249c-0.58-0.276-0.981-0.718-1.201-1.326l-2.613-5.141v17.08c0,0.691-0.241,1.279-0.725,1.762
			c-0.484,0.483-1.071,0.726-1.762,0.726c-0.691,0-1.279-0.242-1.762-0.726c-0.484-0.483-0.727-1.071-0.727-1.762v-27.443v-0.125
			v-0.124v-0.042v-0.042c0-0.027,0.007-0.042,0.021-0.042c0.014,0,0.021-0.014,0.021-0.042v-0.042v-0.083
			c0-0.027,0.007-0.048,0.021-0.062c0.014-0.014,0.021-0.034,0.021-0.062c0.028-0.166,0.083-0.317,0.166-0.456
			c0-0.027,0.007-0.042,0.021-0.042c0.014,0,0.021-0.014,0.021-0.042l0.041-0.042l0.042-0.042c0-0.027,0.014-0.055,0.041-0.083
			v-0.042l0.083-0.083c0.055-0.055,0.104-0.11,0.146-0.166c0.041-0.055,0.089-0.11,0.146-0.166l0.082-0.083h0.041
			c0-0.027,0.007-0.042,0.021-0.042c0.014,0,0.021-0.014,0.021-0.042h0.041c0.026-0.027,0.055-0.042,0.082-0.042
			c0-0.027,0.014-0.042,0.041-0.042l0.043-0.042l0.082-0.042c0.027-0.027,0.055-0.042,0.083-0.042l0.042-0.042
			c0.026,0,0.055-0.013,0.082-0.042c0.027,0,0.048-0.006,0.062-0.021c0.014-0.014,0.034-0.021,0.062-0.021
			c0.027,0,0.048-0.007,0.062-0.021c0.014-0.014,0.035-0.021,0.062-0.021s0.055-0.014,0.083-0.042h0.041h0.083l0.042-0.042h0.041
			h0.083h0.042c0.027-0.027,0.055-0.042,0.083-0.042h0.041h0.124h0.125h0.125h0.082h0.041c0.027,0,0.055,0.014,0.084,0.042h0.082
			h0.041h0.084c0.109,0.056,0.207,0.09,0.289,0.104c0.083,0.014,0.166,0.049,0.249,0.104h0.042c0,0.028,0.027,0.042,0.083,0.042
			c0,0.028,0.014,0.042,0.041,0.042l0.042,0.042c0.027,0,0.055,0.014,0.083,0.042l0.083,0.083h0.041
			c0.139,0.083,0.248,0.193,0.332,0.332l0.082,0.083l0.084,0.083c0,0.028,0.006,0.041,0.02,0.041s0.021,0.015,0.021,0.042
			l0.041,0.042l0.041,0.042c0,0.028,0.014,0.056,0.042,0.083c0,0.028,0.007,0.048,0.021,0.062c0.014,0.015,0.021,0.035,0.021,0.062
			l5.223,10.239l5.224-10.239c0-0.055,0.014-0.097,0.041-0.125c0.028-0.027,0.042-0.055,0.042-0.083
			c0.027,0,0.041-0.014,0.041-0.042l0.042-0.042c0-0.027,0.014-0.055,0.041-0.083l0.083-0.083l0.083-0.083
			c0.083-0.138,0.192-0.249,0.331-0.332l0.084-0.083h0.041c0.027-0.027,0.055-0.042,0.082-0.042l0.043-0.042
			c0.026,0,0.041-0.014,0.041-0.042c0.055,0,0.082-0.013,0.082-0.042h0.042c0.055-0.055,0.124-0.089,0.207-0.104
			c0.083-0.014,0.152-0.034,0.207-0.062c0.056,0,0.098-0.014,0.125-0.042h0.083h0.041h0.083c0-0.027,0.014-0.042,0.042-0.042h0.083
			h0.083h0.124h0.124h0.125c0.055,0,0.096,0.014,0.123,0.042h0.084h0.082l0.042,0.042h0.083h0.041l0.083,0.042
			c0.027,0,0.049,0.007,0.062,0.021c0.014,0.014,0.034,0.021,0.062,0.021c0.027,0,0.055,0.014,0.082,0.041h0.042
			c0.027,0.028,0.056,0.042,0.083,0.042v0.042c0.056,0,0.097,0.014,0.124,0.042c0.027,0.028,0.056,0.042,0.083,0.042l0.042,0.042
			l0.041,0.042c0.027,0,0.055,0.014,0.083,0.042l0.083,0.083c0.055,0,0.083,0.028,0.083,0.083c0.138,0.083,0.249,0.194,0.331,0.332
			l0.084,0.083v0.042c0.026,0.028,0.041,0.056,0.041,0.083c0.026,0,0.041,0.014,0.041,0.042l0.041,0.042
			c0,0.028,0.014,0.056,0.042,0.083c0.055,0.139,0.11,0.29,0.166,0.456c0,0.056,0.014,0.097,0.041,0.124v0.083v0.042
			c0,0.028,0.014,0.056,0.042,0.083v0.042v0.042v0.124v0.125V210.93z"/>
		<path fill="#CC6A11" d="M414.991,209.127c0.483,0.484,0.726,1.071,0.726,1.762c0,0.691-0.242,1.279-0.726,1.762
			c-0.483,0.483-1.07,0.726-1.762,0.726h-10.156c-0.691,0-1.278-0.242-1.762-0.726c-0.483-0.483-0.726-1.07-0.726-1.762v-27.443
			c0-0.69,0.242-1.278,0.726-1.762c0.483-0.483,1.07-0.726,1.762-0.726h10.156c0.691,0,1.278,0.242,1.762,0.726
			c0.483,0.484,0.726,1.071,0.726,1.762c0,0.719-0.242,1.313-0.726,1.783c-0.483,0.47-1.07,0.705-1.762,0.705h-7.669v10.447h5.307
			c0.69,0,1.277,0.242,1.762,0.726c0.483,0.484,0.726,1.071,0.726,1.762c0,0.691-0.242,1.279-0.726,1.762
			c-0.484,0.484-1.071,0.726-1.762,0.726h-5.307v7.047h7.669C413.921,208.401,414.508,208.644,414.991,209.127z"/>
		<path fill="#CC6A11" d="M435.222,181.746c0.482,0.47,0.726,1.064,0.726,1.783c0,0.691-0.243,1.279-0.726,1.762
			c-0.484,0.484-1.072,0.726-1.762,0.726h-3.855v24.873c0,0.691-0.242,1.279-0.726,1.762c-0.484,0.483-1.071,0.726-1.762,0.726
			c-0.691,0-1.278-0.242-1.762-0.726c-0.484-0.483-0.726-1.07-0.726-1.762v-24.873h-3.938c-0.691,0-1.278-0.242-1.762-0.726
			c-0.484-0.483-0.726-1.07-0.726-1.762c0-0.718,0.241-1.312,0.726-1.783c0.483-0.469,1.07-0.705,1.762-0.705h12.769
			C434.149,181.041,434.737,181.276,435.222,181.746z"/>
		<path fill="#CC6A11" d="M453.171,209.127c0.484,0.484,0.727,1.071,0.727,1.762c0,0.691-0.242,1.279-0.727,1.762
			c-0.483,0.483-1.07,0.726-1.762,0.726h-10.156c-0.691,0-1.278-0.242-1.762-0.726c-0.484-0.483-0.726-1.07-0.726-1.762v-27.443
			c0-0.69,0.241-1.278,0.726-1.762c0.483-0.483,1.07-0.726,1.762-0.726h10.156c0.691,0,1.278,0.242,1.762,0.726
			c0.484,0.484,0.727,1.071,0.727,1.762c0,0.719-0.242,1.313-0.727,1.783c-0.483,0.47-1.07,0.705-1.762,0.705h-7.669v10.447h5.306
			c0.691,0,1.279,0.242,1.762,0.726c0.484,0.484,0.727,1.071,0.727,1.762c0,0.691-0.242,1.279-0.727,1.762
			c-0.482,0.484-1.07,0.726-1.762,0.726h-5.306v7.047h7.669C452.101,208.401,452.688,208.644,453.171,209.127z"/>
		<path fill="#CC6A11" d="M474.666,209.894c0.304,0.636,0.325,1.272,0.062,1.907c-0.264,0.636-0.713,1.091-1.348,1.368
			c-0.332,0.138-0.664,0.208-0.995,0.208c-0.471,0-0.912-0.131-1.327-0.394c-0.414-0.263-0.731-0.628-0.952-1.099l-4.602-10.529
			h-2.488v9.535c0,0.691-0.242,1.279-0.725,1.762c-0.484,0.483-1.072,0.726-1.762,0.726c-0.691,0-1.279-0.242-1.762-0.726
			c-0.484-0.483-0.727-1.07-0.727-1.762v-27.36c0-0.69,0.242-1.278,0.727-1.762c0.482-0.483,1.07-0.726,1.762-0.726h6.011
			c1.05,0,2.058,0.297,3.025,0.891c0.968,0.595,1.81,1.444,2.528,2.55c1.244,1.962,1.866,4.201,1.866,6.715
			c0,1.217-0.159,2.391-0.477,3.524c-0.317,1.133-0.781,2.184-1.39,3.15c-0.275,0.415-0.566,0.788-0.87,1.12
			c-0.304,0.332-0.608,0.636-0.911,0.912L474.666,209.894z M466.541,196.379c0.138,0,0.323-0.089,0.56-0.27
			c0.234-0.179,0.504-0.49,0.808-0.933c0.358-0.553,0.628-1.174,0.81-1.866c0.178-0.69,0.269-1.395,0.269-2.114
			c0-0.718-0.091-1.43-0.269-2.135c-0.182-0.705-0.451-1.333-0.81-1.886c-0.304-0.415-0.573-0.711-0.808-0.891
			c-0.236-0.18-0.422-0.27-0.56-0.27h-3.524v10.364H466.541z"/>
		<path fill="#CC6A11" d="M492.077,198.203c1.63,2.046,2.445,4.436,2.445,7.172c0,0.857-0.09,1.624-0.27,2.301
			c-0.18,0.678-0.4,1.279-0.663,1.803c-0.263,0.525-0.56,0.981-0.892,1.368c-0.331,0.387-0.663,0.719-0.994,0.995
			c-1.549,1.244-3.428,1.865-5.639,1.865c-1.078,0-2.087-0.152-3.025-0.456c-0.94-0.304-1.77-0.773-2.488-1.409
			c-0.304-0.249-0.615-0.566-0.932-0.954c-0.318-0.387-0.609-0.843-0.871-1.368c-0.264-0.524-0.477-1.133-0.643-1.824
			s-0.249-1.479-0.249-2.363c0-0.69,0.241-1.278,0.726-1.762c0.483-0.483,1.07-0.726,1.762-0.726c0.719,0,1.312,0.243,1.783,0.726
			c0.47,0.484,0.704,1.071,0.704,1.762c0,0.388,0.034,0.781,0.104,1.182c0.068,0.401,0.213,0.767,0.436,1.099
			c0.22,0.332,0.545,0.601,0.974,0.809c0.429,0.207,1.001,0.311,1.72,0.311c0.498,0,0.96-0.062,1.389-0.187
			c0.429-0.124,0.795-0.311,1.1-0.56c0.663-0.581,0.994-1.451,0.994-2.612c0-0.856-0.11-1.603-0.331-2.238
			c-0.222-0.636-0.547-1.223-0.975-1.762c-0.429-0.539-0.954-1.05-1.575-1.534c-0.622-0.483-1.32-1.001-2.094-1.555
			c-0.719-0.498-1.43-1.016-2.135-1.554c-0.705-0.539-1.361-1.154-1.969-1.845c-0.719-0.884-1.265-1.803-1.639-2.756
			c-0.373-0.954-0.559-1.997-0.559-3.13c0-0.166,0.006-0.47,0.021-0.912c0.013-0.442,0.083-0.954,0.208-1.534
			c0.123-0.581,0.33-1.188,0.621-1.824c0.29-0.635,0.711-1.244,1.264-1.824c0.471-0.524,1.176-1.036,2.114-1.534
			c0.939-0.498,2.156-0.746,3.648-0.746c1.521,0,2.729,0.256,3.628,0.767c0.897,0.512,1.582,1.03,2.051,1.554
			c0.525,0.636,0.92,1.306,1.183,2.011s0.435,1.354,0.519,1.948c0.082,0.595,0.109,1.113,0.082,1.555
			c-0.027,0.442-0.056,0.705-0.082,0.788c-0.084,0.498-0.25,0.912-0.498,1.244c-0.221,0.305-0.519,0.56-0.892,0.767
			c-0.372,0.207-0.878,0.242-1.513,0.104c-0.608-0.11-1.057-0.311-1.348-0.601c-0.29-0.29-0.483-0.594-0.58-0.912
			c-0.098-0.317-0.139-0.601-0.125-0.85c0.014-0.249,0.021-0.4,0.021-0.456c0.027-0.11,0.041-0.262,0.041-0.456
			c0-0.193-0.021-0.4-0.062-0.622c-0.041-0.221-0.104-0.441-0.186-0.663c-0.084-0.221-0.193-0.415-0.332-0.581
			c-0.332-0.415-0.968-0.622-1.907-0.622c-0.746,0-1.265,0.097-1.554,0.29c-0.291,0.194-0.478,0.332-0.561,0.415
			c-0.193,0.194-0.339,0.415-0.436,0.664c-0.097,0.249-0.172,0.497-0.227,0.746c-0.057,0.249-0.092,0.463-0.104,0.643
			c-0.015,0.18-0.021,0.311-0.021,0.394v0.083v0.083c0,0.553,0.096,1.057,0.289,1.513c0.194,0.456,0.464,0.885,0.81,1.285
			c0.345,0.401,0.78,0.802,1.306,1.202c0.525,0.401,1.119,0.836,1.782,1.306c0.773,0.553,1.568,1.147,2.384,1.783
			C490.633,196.642,491.386,197.374,492.077,198.203z"/>
		<path fill="#CC6A11" d="M258.625,255.246c0.028,0.139,0.028,0.263,0,0.373v0.207c-0.11,1.906-0.663,3.469-1.658,4.685
			c-1.216,1.548-2.942,2.501-5.182,2.86c-0.524,0.109-1.146,0.166-1.865,0.166h-0.208h-0.165c-0.58,0-1.161-0.042-1.741-0.125
			c-2.321-0.387-4.104-1.354-5.348-2.901c-1.105-1.437-1.658-3.316-1.658-5.638c0-4.09,0.967-7.116,2.901-9.079l0.083-0.083
			c-0.553-0.69-0.98-1.561-1.284-2.611c-0.14-0.581-0.249-1.229-0.332-1.949c-0.083-0.718-0.125-1.547-0.125-2.487v-0.332
			c0-0.276,0.007-0.635,0.021-1.078c0.014-0.442,0.082-0.926,0.207-1.451c0.124-0.524,0.304-1.063,0.539-1.617
			c0.234-0.553,0.573-1.078,1.016-1.575c0.47-0.525,1.161-1.043,2.073-1.555c0.911-0.511,2.127-0.767,3.647-0.767h0.165h0.208
			c1.52,0,2.729,0.256,3.627,0.767c0.897,0.512,1.582,1.03,2.053,1.555c0.441,0.498,0.788,1.022,1.036,1.575
			c0.248,0.553,0.436,1.092,0.56,1.617c0.125,0.525,0.192,1.009,0.207,1.451c0.015,0.442,0.021,0.802,0.021,1.078
			c0,0.166-0.015,0.276-0.042,0.332c0,0.94-0.035,1.769-0.104,2.487c-0.069,0.719-0.187,1.368-0.353,1.949
			c-0.305,1.05-0.719,1.921-1.243,2.611l0.083,0.083c1.907,1.935,2.859,4.961,2.859,9.079V255.246z M253.65,254.873
			c0-2.709-0.483-4.588-1.45-5.639c-0.554-0.553-1.383-0.912-2.488-1.078c-1.133,0.166-1.947,0.525-2.445,1.078
			c-0.994,1.051-1.492,2.93-1.492,5.639v0.166c0.027,0.109,0.083,0.359,0.166,0.746s0.262,0.787,0.539,1.201
			c0.524,0.857,1.285,1.369,2.279,1.534c0.139,0,0.291,0.007,0.457,0.021c0.166,0.015,0.331,0.021,0.496,0.021
			c0.193,0,0.38-0.007,0.561-0.021c0.18-0.014,0.338-0.034,0.477-0.062c1.022-0.166,1.797-0.677,2.322-1.534
			c0.192-0.332,0.33-0.656,0.414-0.975c0.082-0.316,0.138-0.545,0.165-0.684V254.873z M247.018,238.871
			c0,0.746,0.035,1.354,0.104,1.824c0.068,0.471,0.138,0.844,0.207,1.12c0.068,0.276,0.139,0.477,0.207,0.601
			c0.068,0.124,0.117,0.201,0.146,0.228c0.165,0.139,0.441,0.228,0.829,0.269c0.387,0.042,0.787,0.077,1.201,0.104
			c0.442-0.027,0.857-0.062,1.244-0.104s0.649-0.13,0.787-0.269c0.028-0.027,0.084-0.104,0.166-0.228
			c0.083-0.125,0.159-0.338,0.229-0.643c0.068-0.304,0.131-0.711,0.187-1.223c0.056-0.511,0.083-1.167,0.083-1.969
			c0-0.055,0.014-0.097,0.042-0.125v-0.208h-0.042l0.042-0.042c-0.028-0.276-0.091-0.643-0.188-1.099s-0.297-0.835-0.601-1.14
			c-0.083-0.083-0.264-0.214-0.539-0.394c-0.276-0.179-0.746-0.283-1.41-0.311c-0.635,0.027-1.091,0.131-1.367,0.311
			c-0.277,0.18-0.456,0.311-0.539,0.394c-0.305,0.304-0.512,0.684-0.622,1.14s-0.166,0.823-0.166,1.099v0.042
			C247.046,238.471,247.046,238.678,247.018,238.871z"/>
		<path fill="#CC6A11" d="M261.527,257.359c0.69,0,1.278,0.242,1.762,0.727c0.483,0.483,0.726,1.07,0.726,1.762
			c0,0.719-0.242,1.32-0.726,1.803c-0.483,0.484-1.071,0.726-1.762,0.726c-0.72,0-1.32-0.241-1.804-0.726
			c-0.482-0.482-0.725-1.084-0.725-1.803c0-0.691,0.242-1.278,0.725-1.762C260.207,257.602,260.808,257.359,261.527,257.359z"/>
		<path fill="#CC6A11" d="M280.307,254.5c0.69,0,1.277,0.242,1.762,0.725c0.483,0.484,0.726,1.072,0.726,1.762
			c0,0.774-0.062,1.549-0.187,2.322s-0.421,1.479-0.892,2.113c-0.553,0.775-1.285,1.327-2.197,1.658
			c-0.746,0.277-1.658,0.415-2.735,0.415h-8.167c-0.691,0-1.279-0.242-1.762-0.726c-0.484-0.482-0.725-1.07-0.725-1.762
			c0-1.437,0.199-2.783,0.6-4.042c0.4-1.257,0.919-2.452,1.555-3.585c0.636-1.134,1.34-2.211,2.114-3.234
			c0.773-1.021,1.548-2.004,2.321-2.943c0.608-0.746,1.189-1.478,1.742-2.197c0.552-0.718,1.05-1.43,1.492-2.135
			c0.441-0.705,0.794-1.402,1.057-2.093c0.263-0.69,0.395-1.382,0.395-2.073v-0.166c0.027-0.221-0.008-0.594-0.104-1.12
			c-0.098-0.524-0.312-0.98-0.644-1.368c-0.083-0.083-0.276-0.214-0.579-0.394c-0.305-0.179-0.816-0.27-1.535-0.27
			c-0.967,0-1.617,0.194-1.947,0.581c-0.305,0.359-0.478,0.808-0.519,1.347c-0.042,0.539-0.049,0.864-0.021,0.974
			c0.11,0.691-0.041,1.313-0.456,1.866c-0.414,0.553-0.967,0.871-1.658,0.953c-0.691,0.111-1.306-0.041-1.844-0.456
			c-0.539-0.415-0.865-0.967-0.975-1.658c0-0.083-0.014-0.346-0.042-0.788c-0.027-0.441,0-0.96,0.083-1.555
			c0.083-0.594,0.242-1.236,0.477-1.927c0.234-0.69,0.629-1.354,1.182-1.99c0.471-0.553,1.161-1.078,2.073-1.576
			c0.912-0.497,2.128-0.746,3.647-0.746c1.492,0,2.701,0.242,3.627,0.726c0.926,0.484,1.624,0.988,2.094,1.513
			c0.525,0.58,0.939,1.195,1.244,1.845c0.304,0.649,0.519,1.258,0.643,1.824c0.125,0.567,0.193,1.072,0.207,1.513
			c0.014,0.442,0.021,0.747,0.021,0.912c0,1.134-0.166,2.211-0.498,3.233c-0.332,1.023-0.773,2.011-1.326,2.964
			c-0.554,0.954-1.176,1.88-1.866,2.778c-0.69,0.898-1.396,1.776-2.114,2.632c-1.105,1.355-2.135,2.688-3.088,4.001
			c-0.953,1.313-1.624,2.702-2.011,4.166h5.307c0.248,0,0.448-0.007,0.601-0.021s0.27-0.034,0.354-0.062
			c0.026-0.109,0.047-0.27,0.061-0.477s0.021-0.531,0.021-0.975c0-0.689,0.241-1.277,0.726-1.762
			C279.028,254.742,279.615,254.5,280.307,254.5z"/>
		<path fill="#CC6A11" d="M302.899,254.873c0,2.321-0.554,4.201-1.658,5.638c-1.575,2.018-4.062,3.026-7.463,3.026
			c-1.52,0-2.729-0.256-3.627-0.768c-0.898-0.511-1.582-1.029-2.052-1.555c-0.553-0.607-0.954-1.264-1.202-1.969
			s-0.414-1.361-0.497-1.969s-0.111-1.126-0.083-1.555c0.027-0.428,0.055-0.697,0.083-0.809c0.11-0.387,0.29-0.732,0.538-1.036
			c0.221-0.249,0.512-0.47,0.871-0.663s0.814-0.249,1.367-0.166c0.553,0.082,0.975,0.263,1.266,0.539
			c0.289,0.276,0.504,0.566,0.642,0.87c0.139,0.359,0.222,0.746,0.249,1.161c-0.027,0.193-0.021,0.546,0.021,1.057
			c0.042,0.512,0.214,0.934,0.519,1.265c0.332,0.415,0.967,0.622,1.906,0.622c0.857,0,1.562-0.076,2.114-0.229
			c0.554-0.151,0.976-0.387,1.265-0.705c0.29-0.316,0.491-0.704,0.602-1.16c0.109-0.456,0.166-0.988,0.166-1.596
			c0-2.709-0.498-4.588-1.492-5.639c-0.774-0.773-2.06-1.16-3.856-1.16c-0.69,0-1.278-0.242-1.762-0.726s-0.726-1.071-0.726-1.762
			v-0.042c0-0.718,0.242-1.312,0.726-1.782c0.483-0.47,1.071-0.705,1.762-0.705c0.249,0,0.546,0,0.892,0s0.684-0.014,1.016-0.042
			c0.332-0.027,0.635-0.069,0.912-0.125c0.276-0.055,0.47-0.138,0.58-0.249c0.027-0.027,0.083-0.104,0.166-0.228
			c0.083-0.125,0.166-0.338,0.249-0.643s0.151-0.711,0.208-1.223c0.055-0.511,0.082-1.167,0.082-1.969v-0.125
			c0.027-0.221-0.008-0.601-0.104-1.14c-0.098-0.539-0.324-0.988-0.685-1.347c-0.083-0.083-0.276-0.221-0.579-0.415
			c-0.305-0.193-0.816-0.29-1.535-0.29c-0.939,0-1.574,0.207-1.906,0.622c-0.305,0.332-0.477,0.753-0.519,1.264
			c-0.041,0.512-0.048,0.878-0.021,1.099v-0.042c0.027,0.442-0.027,0.844-0.166,1.203c-0.139,0.304-0.353,0.608-0.643,0.912
			c-0.289,0.305-0.753,0.498-1.389,0.581c-0.637,0.083-1.133,0.028-1.492-0.166c-0.359-0.193-0.637-0.428-0.829-0.705
			c-0.222-0.304-0.359-0.677-0.414-1.119c-0.028-0.083-0.056-0.346-0.083-0.788c-0.028-0.442,0-0.96,0.083-1.555
			s0.249-1.237,0.497-1.928c0.248-0.69,0.649-1.354,1.202-1.99c0.47-0.553,1.153-1.084,2.052-1.596
			c0.898-0.511,2.107-0.767,3.627-0.767s2.742,0.249,3.669,0.746s1.624,1.009,2.094,1.534c0.524,0.581,0.939,1.188,1.243,1.824
			c0.305,0.636,0.519,1.244,0.644,1.824c0.124,0.581,0.192,1.092,0.207,1.534c0.013,0.442,0.021,0.746,0.021,0.912
			c0,0.94-0.041,1.769-0.124,2.487c-0.083,0.719-0.194,1.368-0.332,1.949c-0.304,1.05-0.732,1.921-1.284,2.611l0.082,0.083
			C301.931,247.757,302.899,250.783,302.899,254.873z"/>
		<path fill="#CC6A11" d="M330.508,230.746c0.718,0,1.312,0.242,1.783,0.726c0.47,0.484,0.704,1.071,0.704,1.762v27.443
			c0,0.691-0.234,1.279-0.704,1.763c-0.471,0.483-1.065,0.726-1.783,0.726c-0.691,0-1.278-0.242-1.762-0.726
			c-0.484-0.483-0.726-1.071-0.726-1.763v-27.443c0-0.69,0.241-1.278,0.726-1.762C329.229,230.988,329.816,230.746,330.508,230.746z
			"/>
		<path fill="#CC6A11" d="M352.106,230.746c0.689,0,1.277,0.242,1.762,0.726c0.482,0.484,0.725,1.071,0.725,1.762v27.402v0.166
			v0.125v0.041v0.082l-0.042,0.042v0.042v0.082v0.042c-0.027,0.028-0.041,0.056-0.041,0.083v0.041c0,0.028-0.007,0.041-0.021,0.041
			s-0.021,0.016-0.021,0.042c0,0.028-0.008,0.049-0.021,0.062c-0.014,0.015-0.021,0.034-0.021,0.062
			c0,0.028-0.007,0.049-0.021,0.062c-0.014,0.015-0.021,0.035-0.021,0.062s-0.007,0.041-0.021,0.041
			c-0.014,0-0.021,0.015-0.021,0.042v0.041c-0.027,0-0.041,0.015-0.041,0.042l-0.042,0.041c0,0.027-0.014,0.056-0.041,0.083
			l-0.041,0.042v0.041c-0.028,0-0.042,0.014-0.042,0.041c0,0.028-0.014,0.042-0.042,0.042c0,0.028-0.007,0.042-0.02,0.042
			c-0.015,0-0.021,0.014-0.021,0.041h-0.041c0,0.027-0.015,0.056-0.041,0.082l-0.084,0.084l-0.082,0.082l-0.084,0.084h-0.041
			l-0.082,0.082c-0.029,0.027-0.057,0.041-0.084,0.041c0,0.027-0.014,0.042-0.041,0.042l-0.041,0.042
			c-0.028,0-0.042,0.006-0.042,0.021c0,0.013-0.015,0.021-0.041,0.021h-0.042l-0.083,0.083c-0.11,0.056-0.207,0.097-0.29,0.124
			s-0.193,0.055-0.332,0.083c-0.11,0.027-0.276,0.042-0.496,0.042c-0.166,0-0.291-0.015-0.374-0.042h-0.083h-0.041
			c-0.027,0-0.042-0.015-0.042-0.042H351.4v-0.041h-0.082c-0.111-0.056-0.181-0.082-0.208-0.082s-0.041-0.015-0.041-0.042h-0.042
			c-0.027,0-0.041-0.015-0.041-0.042c-0.028,0-0.056-0.014-0.083-0.041c-0.028,0-0.041-0.014-0.041-0.041h-0.042
			c-0.028,0-0.042-0.008-0.042-0.021s-0.014-0.021-0.041-0.021c-0.305-0.221-0.553-0.483-0.746-0.788v-0.041
			c-0.027,0-0.041-0.014-0.041-0.041l-0.042-0.042v-0.041c-0.027-0.027-0.041-0.056-0.041-0.083s-0.015-0.055-0.042-0.083
			l-7.089-16.375v15.421c0,0.691-0.242,1.279-0.726,1.763s-1.071,0.726-1.762,0.726s-1.278-0.242-1.762-0.726
			s-0.726-1.071-0.726-1.763v-27.401v-0.166v-0.125v-0.042v-0.083l0.042-0.042v-0.041v-0.083v-0.042
			c0.027-0.027,0.041-0.055,0.041-0.083v-0.042c0-0.027,0.007-0.042,0.021-0.042s0.021-0.014,0.021-0.042
			c0-0.027,0.007-0.048,0.021-0.062c0.014-0.014,0.021-0.035,0.021-0.062s0.007-0.048,0.021-0.062
			c0.014-0.014,0.021-0.034,0.021-0.062c0-0.027,0.007-0.042,0.021-0.042c0.014,0,0.021-0.014,0.021-0.042v-0.042l0.083-0.083
			c0-0.027,0.007-0.041,0.021-0.041s0.021-0.014,0.021-0.042l0.042-0.042v-0.042c0.027-0.027,0.041-0.055,0.041-0.083h0.042
			c0-0.027,0.007-0.042,0.021-0.042s0.021-0.014,0.021-0.042h0.042c0-0.027,0.014-0.055,0.041-0.083l0.083-0.083v-0.042
			c0.026,0,0.056-0.014,0.083-0.042v-0.042c0.027,0,0.055-0.014,0.083-0.042h0.042l0.082-0.083l0.084-0.083h0.041
			c0-0.027,0.014-0.041,0.041-0.041s0.041-0.007,0.041-0.021c0-0.014,0.014-0.021,0.041-0.021h0.043l0.082-0.083
			c0.193-0.11,0.387-0.18,0.58-0.208h0.042c0.138-0.027,0.345-0.042,0.622-0.042h0.125h0.041l0.041,0.042h0.082h0.043h0.082
			c0,0.028,0.014,0.042,0.041,0.042h0.084h0.041c0,0.028,0.027,0.042,0.083,0.042c0.027,0.028,0.068,0.042,0.124,0.042
			c0.027,0.028,0.056,0.042,0.083,0.042h0.041c0,0.028,0.028,0.042,0.083,0.042v0.042c0.056,0,0.083,0.014,0.083,0.042h0.042
			c0.027,0,0.041,0.007,0.041,0.021c0,0.014,0.014,0.021,0.042,0.021l0.041,0.041l0.042,0.042l0.041,0.042h0.042
			c0.026,0.028,0.055,0.042,0.083,0.042v0.042c0.027,0,0.041,0.007,0.041,0.021c0,0.014,0.014,0.021,0.041,0.021v0.042
			c0.027,0,0.042,0.007,0.042,0.021c0,0.014,0.013,0.021,0.042,0.021v0.042l0.082,0.083l0.084,0.083l0.082,0.083
			c0,0.028,0.014,0.056,0.041,0.083c0.027,0,0.041,0.014,0.041,0.042c0,0.028,0.014,0.042,0.043,0.042
			c0,0.056,0.013,0.083,0.041,0.083v0.042c0.026,0.028,0.041,0.056,0.041,0.083h0.041c0,0.056,0.007,0.09,0.021,0.104
			c0.014,0.014,0.021,0.035,0.021,0.062l7.089,16.375v-15.421c0-0.69,0.242-1.278,0.726-1.762
			C350.827,230.988,351.415,230.746,352.106,230.746z"/>
		<path fill="#CC6A11" d="M374.739,254.831c0,0.083-0.006,0.353-0.02,0.809c-0.016,0.456-0.084,0.995-0.208,1.616
			c-0.124,0.622-0.339,1.293-0.643,2.012c-0.305,0.719-0.746,1.382-1.326,1.989c-0.471,0.525-1.169,1.036-2.094,1.534
			c-0.927,0.497-2.122,0.746-3.587,0.746c-1.464,0-2.646-0.249-3.543-0.746c-0.898-0.498-1.583-1.009-2.053-1.534
			c-0.553-0.607-0.981-1.257-1.285-1.948c-0.305-0.691-0.518-1.348-0.643-1.969c-0.124-0.623-0.187-1.175-0.187-1.658
			c0-0.484,0-0.822,0-1.016v-15.919c0-1.686,0.276-3.033,0.829-4.042c0.553-1.008,1.12-1.789,1.699-2.342
			c0.691-0.636,1.479-1.126,2.363-1.472c0.885-0.345,1.811-0.518,2.777-0.518c0.939,0,1.887,0.166,2.84,0.498
			c0.954,0.332,1.804,0.843,2.55,1.534c0.747,0.691,1.354,1.562,1.824,2.612c0.47,1.051,0.704,2.294,0.704,3.731
			c0,0.719-0.242,1.313-0.726,1.783c-0.483,0.47-1.071,0.705-1.762,0.705s-1.278-0.234-1.762-0.705
			c-0.483-0.47-0.726-1.063-0.726-1.783c0-0.746-0.104-1.34-0.311-1.783c-0.207-0.441-0.456-0.78-0.746-1.016
			c-0.291-0.234-0.607-0.394-0.953-0.477s-0.657-0.125-0.934-0.125c-0.193,0-0.441,0.035-0.745,0.104
			c-0.305,0.07-0.602,0.222-0.892,0.456c-0.291,0.235-0.539,0.574-0.746,1.016c-0.208,0.442-0.312,1.05-0.312,1.824v16.001v0.207
			c0,0.139,0,0.326,0,0.561s0.028,0.497,0.083,0.787c0.056,0.29,0.139,0.58,0.249,0.871c0.11,0.289,0.263,0.532,0.456,0.725
			c0.082,0.084,0.262,0.215,0.539,0.395c0.275,0.18,0.746,0.27,1.408,0.27c0.72,0,1.217-0.09,1.494-0.27
			c0.275-0.18,0.455-0.324,0.538-0.436c0.387-0.387,0.628-0.871,0.726-1.451c0.096-0.58,0.145-1.008,0.145-1.285
			c0-0.027,0-0.18,0-0.455c0-0.276,0.068-0.574,0.207-0.893c0.139-0.316,0.366-0.614,0.685-0.891
			c0.317-0.275,0.78-0.428,1.389-0.456c0.636-0.027,1.126,0.083,1.472,0.331c0.346,0.25,0.615,0.525,0.809,0.83
			C374.546,253.947,374.685,254.361,374.739,254.831z"/>
		<path fill="#CC6A11" d="M393.146,230.746c0.691,0,1.277,0.242,1.762,0.726c0.484,0.484,0.726,1.071,0.726,1.762v27.443
			c0,0.691-0.241,1.279-0.726,1.763s-1.07,0.726-1.762,0.726s-1.278-0.242-1.762-0.726c-0.484-0.483-0.726-1.071-0.726-1.763v-9.534
			h-6.467v9.534c0,0.691-0.242,1.279-0.726,1.763c-0.484,0.483-1.07,0.726-1.762,0.726s-1.278-0.242-1.762-0.726
			c-0.484-0.483-0.726-1.071-0.726-1.763v-27.443c0-0.69,0.241-1.278,0.726-1.762c0.483-0.483,1.07-0.726,1.762-0.726
			s1.277,0.242,1.762,0.726c0.483,0.484,0.726,1.071,0.726,1.762v12.934h6.467v-12.934c0-0.69,0.241-1.278,0.726-1.762
			C391.867,230.988,392.454,230.746,393.146,230.746z"/>
		<path fill="#CC6A11" d="M414.972,258.873c0.484,0.484,0.726,1.071,0.726,1.762c0,0.691-0.241,1.279-0.726,1.762
			c-0.484,0.483-1.07,0.726-1.762,0.726h-10.156c-0.691,0-1.278-0.242-1.762-0.726c-0.484-0.482-0.726-1.07-0.726-1.762v-27.443
			c0-0.691,0.241-1.278,0.726-1.762c0.483-0.483,1.07-0.725,1.762-0.725h10.156c0.691,0,1.277,0.242,1.762,0.725
			c0.484,0.484,0.726,1.071,0.726,1.762c0,0.719-0.241,1.312-0.726,1.782c-0.484,0.47-1.07,0.705-1.762,0.705h-7.669v10.446h5.306
			c0.69,0,1.278,0.242,1.762,0.727c0.483,0.483,0.726,1.07,0.726,1.762s-0.242,1.278-0.726,1.762
			c-0.483,0.484-1.071,0.725-1.762,0.725h-5.306v7.048h7.669C413.901,258.147,414.487,258.39,414.972,258.873z"/>
		<path fill="#CC6A11" d="M433.523,247.949c1.63,2.046,2.445,4.436,2.445,7.172c0,0.857-0.091,1.624-0.269,2.301
			c-0.182,0.678-0.402,1.279-0.664,1.804c-0.263,0.525-0.561,0.981-0.891,1.368c-0.332,0.387-0.664,0.719-0.996,0.994
			c-1.547,1.244-3.427,1.866-5.637,1.866c-1.079,0-2.088-0.152-3.027-0.456c-0.939-0.305-1.769-0.773-2.486-1.41
			c-0.305-0.248-0.616-0.565-0.934-0.953c-0.318-0.387-0.607-0.843-0.87-1.367c-0.263-0.525-0.478-1.134-0.644-1.824
			c-0.166-0.691-0.248-1.479-0.248-2.363c0-0.69,0.241-1.278,0.726-1.762c0.483-0.483,1.07-0.726,1.762-0.726
			c0.718,0,1.312,0.242,1.783,0.726c0.47,0.483,0.704,1.071,0.704,1.762c0,0.387,0.034,0.781,0.104,1.182
			c0.068,0.4,0.214,0.767,0.436,1.098c0.221,0.332,0.545,0.602,0.975,0.809c0.428,0.207,1.001,0.312,1.721,0.312
			c0.496,0,0.959-0.062,1.389-0.187c0.428-0.125,0.794-0.311,1.098-0.561c0.664-0.58,0.994-1.45,0.994-2.611
			c0-0.855-0.109-1.602-0.33-2.238c-0.223-0.636-0.547-1.223-0.975-1.762c-0.429-0.539-0.953-1.051-1.575-1.534
			s-1.32-1.001-2.095-1.554c-0.719-0.498-1.43-1.017-2.134-1.555c-0.705-0.539-1.362-1.154-1.969-1.845
			c-0.72-0.884-1.265-1.803-1.638-2.757c-0.374-0.954-0.561-1.996-0.561-3.13c0-0.166,0.007-0.47,0.021-0.912
			c0.014-0.441,0.083-0.953,0.207-1.534s0.332-1.188,0.622-1.824c0.29-0.635,0.711-1.244,1.265-1.824
			c0.469-0.525,1.174-1.037,2.113-1.534c0.939-0.498,2.156-0.747,3.648-0.747c1.52,0,2.729,0.256,3.627,0.767
			c0.898,0.512,1.582,1.03,2.053,1.555c0.524,0.636,0.918,1.306,1.182,2.01c0.262,0.705,0.435,1.354,0.518,1.948
			c0.083,0.595,0.11,1.113,0.083,1.555c-0.027,0.442-0.056,0.705-0.083,0.788c-0.083,0.497-0.249,0.912-0.498,1.244
			c-0.221,0.304-0.518,0.559-0.891,0.767c-0.373,0.207-0.878,0.242-1.513,0.104c-0.608-0.11-1.058-0.311-1.347-0.601
			c-0.291-0.29-0.484-0.594-0.581-0.912c-0.097-0.317-0.139-0.601-0.125-0.85c0.015-0.249,0.021-0.4,0.021-0.456
			c0.026-0.11,0.041-0.262,0.041-0.456c0-0.193-0.021-0.4-0.062-0.622c-0.041-0.221-0.104-0.442-0.187-0.664
			c-0.083-0.221-0.193-0.415-0.332-0.58c-0.33-0.415-0.967-0.622-1.906-0.622c-0.746,0-1.265,0.097-1.555,0.291
			c-0.289,0.193-0.477,0.332-0.56,0.415c-0.193,0.193-0.339,0.415-0.436,0.663s-0.173,0.498-0.228,0.746
			c-0.056,0.249-0.09,0.463-0.104,0.643c-0.015,0.18-0.021,0.311-0.021,0.394v0.083v0.083c0,0.553,0.097,1.057,0.291,1.513
			c0.193,0.456,0.463,0.885,0.809,1.285c0.345,0.401,0.78,0.802,1.306,1.202c0.524,0.401,1.119,0.836,1.782,1.306
			c0.773,0.553,1.568,1.147,2.384,1.782C432.079,246.389,432.832,247.121,433.523,247.949z"/>
		<path fill="#CC6A11" d="M274.75,289.852c0.332,0.332,0.498,0.735,0.498,1.209c0,0.475-0.166,0.879-0.498,1.21
			c-0.332,0.332-0.735,0.498-1.21,0.498h-0.626l0.313,0.54c0.246,0.399,0.308,0.826,0.185,1.281
			c-0.124,0.455-0.394,0.807-0.811,1.053c-0.267,0.152-0.552,0.229-0.854,0.229c-0.284,0-0.564-0.076-0.839-0.229
			c-0.275-0.15-0.489-0.359-0.641-0.626l-0.285-0.54l-0.312,0.54c-0.152,0.267-0.361,0.476-0.626,0.626
			c-0.266,0.152-0.551,0.229-0.854,0.229c-0.305,0-0.59-0.076-0.854-0.229c-0.418-0.246-0.688-0.592-0.812-1.038
			c-0.124-0.446-0.062-0.878,0.185-1.296l0.312-0.54h-0.625c-0.475,0-0.879-0.166-1.21-0.498c-0.332-0.331-0.498-0.735-0.498-1.21
			c0-0.474,0.166-0.877,0.498-1.209c0.331-0.332,0.735-0.498,1.21-0.498h0.597l-0.284-0.512c-0.247-0.418-0.309-0.854-0.185-1.31
			c0.123-0.456,0.384-0.798,0.782-1.024c0.418-0.246,0.854-0.309,1.31-0.186c0.455,0.124,0.796,0.395,1.024,0.811l0.312,0.513
			l0.313-0.513c0.228-0.416,0.569-0.687,1.024-0.811c0.455-0.123,0.891-0.07,1.31,0.156c0.397,0.247,0.658,0.598,0.782,1.054
			c0.123,0.455,0.071,0.882-0.156,1.28l-0.313,0.541h0.626C274.015,289.354,274.418,289.52,274.75,289.852z"/>
		<path fill="#CC6A11" d="M278.179,285.625c0.493,0,0.901,0.166,1.225,0.498c0.322,0.332,0.482,0.736,0.482,1.21v18.841
			c0,0.474-0.16,0.877-0.482,1.209c-0.323,0.332-0.731,0.498-1.225,0.498c-0.475,0-0.877-0.166-1.209-0.498
			s-0.498-0.735-0.498-1.209v-18.841c0-0.474,0.166-0.878,0.498-1.21S277.704,285.625,278.179,285.625z"/>
		<path fill="#CC6A11" d="M293.007,285.625c0.473,0,0.877,0.166,1.209,0.498c0.331,0.332,0.498,0.736,0.498,1.21v18.812v0.113v0.086
			v0.029v0.057l-0.029,0.028v0.028v0.057v0.029c-0.019,0.019-0.028,0.037-0.028,0.057v0.028c0,0.019-0.005,0.028-0.014,0.028
			c-0.01,0-0.015,0.01-0.015,0.028s-0.005,0.033-0.014,0.042c-0.01,0.011-0.015,0.024-0.015,0.043c0,0.02-0.005,0.033-0.015,0.043
			s-0.014,0.024-0.014,0.043c0,0.02-0.005,0.028-0.015,0.028s-0.014,0.01-0.014,0.028v0.028c-0.02,0-0.028,0.01-0.028,0.028
			l-0.029,0.029c0,0.019-0.01,0.037-0.028,0.057l-0.028,0.028v0.028c-0.02,0-0.028,0.01-0.028,0.029c0,0.019-0.01,0.027-0.028,0.027
			c0,0.02-0.005,0.029-0.014,0.029c-0.011,0-0.015,0.01-0.015,0.027h-0.028c0,0.02-0.01,0.039-0.028,0.058l-0.058,0.058
			l-0.057,0.057l-0.057,0.057h-0.029l-0.057,0.057c-0.02,0.019-0.038,0.028-0.057,0.028c0,0.019-0.01,0.028-0.028,0.028
			l-0.028,0.029c-0.02,0-0.029,0.004-0.029,0.014s-0.01,0.015-0.027,0.015h-0.029l-0.057,0.057
			c-0.076,0.038-0.143,0.066-0.199,0.085c-0.057,0.02-0.133,0.039-0.228,0.057c-0.076,0.02-0.19,0.029-0.341,0.029
			c-0.115,0-0.2-0.01-0.258-0.029h-0.057h-0.027c-0.02,0-0.029-0.01-0.029-0.027h-0.113v-0.029h-0.057
			c-0.076-0.037-0.124-0.057-0.143-0.057c-0.02,0-0.029-0.01-0.029-0.028h-0.027c-0.02,0-0.029-0.01-0.029-0.028
			c-0.019,0-0.038-0.01-0.057-0.028c-0.019,0-0.028-0.011-0.028-0.028h-0.028c-0.02,0-0.028-0.006-0.028-0.015
			c0-0.01-0.01-0.015-0.028-0.015c-0.209-0.151-0.38-0.332-0.513-0.541v-0.027c-0.02,0-0.028-0.01-0.028-0.029l-0.028-0.028v-0.028
			c-0.019-0.019-0.028-0.037-0.028-0.057c0-0.019-0.011-0.038-0.029-0.057l-4.867-11.242v10.588c0,0.474-0.166,0.877-0.497,1.209
			c-0.332,0.332-0.735,0.498-1.21,0.498s-0.877-0.166-1.209-0.498s-0.498-0.735-0.498-1.209v-18.812v-0.113v-0.086v-0.029v-0.057
			l0.028-0.027v-0.029v-0.057v-0.029c0.019-0.018,0.028-0.037,0.028-0.057v-0.028c0-0.019,0.004-0.028,0.015-0.028
			c0.009,0,0.014-0.009,0.014-0.028c0-0.019,0.005-0.033,0.015-0.043c0.009-0.009,0.014-0.023,0.014-0.042
			c0-0.02,0.005-0.033,0.015-0.043s0.015-0.023,0.015-0.043c0-0.019,0.004-0.028,0.014-0.028s0.015-0.009,0.015-0.028v-0.028
			l0.057-0.058c0-0.018,0.005-0.027,0.015-0.027c0.009,0,0.014-0.01,0.014-0.029l0.028-0.028v-0.028
			c0.019-0.02,0.029-0.038,0.029-0.057h0.028c0-0.02,0.004-0.029,0.014-0.029s0.015-0.009,0.015-0.027h0.028
			c0-0.02,0.009-0.039,0.028-0.058l0.057-0.057v-0.028c0.019,0,0.038-0.01,0.058-0.029v-0.027c0.019,0,0.037-0.01,0.057-0.029h0.028
			l0.057-0.057l0.058-0.057h0.028c0-0.02,0.009-0.029,0.028-0.029c0.019,0,0.028-0.004,0.028-0.014s0.01-0.014,0.028-0.014h0.029
			l0.057-0.058c0.132-0.075,0.266-0.123,0.398-0.143h0.027c0.096-0.019,0.237-0.028,0.428-0.028h0.086h0.027l0.029,0.028h0.057
			h0.029h0.057c0,0.02,0.009,0.028,0.027,0.028h0.058h0.028c0,0.02,0.018,0.029,0.057,0.029c0.02,0.019,0.047,0.028,0.086,0.028
			c0.018,0.019,0.037,0.028,0.057,0.028h0.028c0,0.02,0.019,0.028,0.057,0.028v0.028c0.038,0,0.058,0.01,0.058,0.029h0.027
			c0.02,0,0.029,0.004,0.029,0.014s0.01,0.014,0.028,0.014l0.028,0.029l0.028,0.027l0.028,0.029h0.029
			c0.018,0.02,0.037,0.028,0.057,0.028v0.028c0.019,0,0.028,0.006,0.028,0.014c0,0.01,0.009,0.016,0.028,0.016v0.027
			c0.019,0,0.028,0.006,0.028,0.016c0,0.009,0.009,0.014,0.028,0.014v0.028l0.057,0.057l0.058,0.058l0.057,0.057
			c0,0.019,0.01,0.037,0.028,0.057c0.019,0,0.028,0.01,0.028,0.028s0.01,0.028,0.028,0.028c0,0.039,0.01,0.057,0.029,0.057v0.029
			c0.018,0.02,0.028,0.037,0.028,0.057h0.028c0,0.038,0.004,0.062,0.015,0.07c0.009,0.01,0.014,0.025,0.014,0.043l4.867,11.242
			v-10.587c0-0.474,0.165-0.878,0.498-1.21C292.128,285.791,292.531,285.625,293.007,285.625z"/>
		<path fill="#CC6A11" d="M320.782,286.991c0.398,0.38,0.787,0.916,1.168,1.608c0.379,0.692,0.568,1.617,0.568,2.774v10.758
			c0,1.157-0.189,2.083-0.568,2.774c-0.381,0.693-0.77,1.229-1.168,1.608c-1.006,0.911-2.191,1.366-3.558,1.366h-2.135h-1.565
			c-0.474,0-0.877-0.166-1.209-0.498s-0.498-0.735-0.498-1.209v-18.841c0-0.474,0.166-0.878,0.498-1.21s0.735-0.498,1.209-0.498
			h1.565h2.135C318.591,285.625,319.776,286.08,320.782,286.991z M319.104,291.374c0-0.531-0.071-0.948-0.214-1.252
			c-0.142-0.304-0.312-0.536-0.512-0.697s-0.408-0.266-0.626-0.313c-0.218-0.047-0.394-0.07-0.527-0.07h-1.992v15.425h1.992
			c0.134,0,0.31-0.024,0.527-0.071s0.427-0.152,0.626-0.313s0.37-0.394,0.512-0.696c0.143-0.305,0.214-0.722,0.214-1.253V291.374z"
			/>
		<path fill="#CC6A11" d="M327.47,285.625c0.494,0,0.901,0.166,1.225,0.498c0.322,0.332,0.483,0.736,0.483,1.21v18.841
			c0,0.474-0.161,0.877-0.483,1.209c-0.323,0.332-0.73,0.498-1.225,0.498c-0.475,0-0.877-0.166-1.209-0.498
			s-0.498-0.735-0.498-1.209v-18.841c0-0.474,0.166-0.878,0.498-1.21S326.995,285.625,327.47,285.625z"/>
		<path fill="#CC6A11" d="M342.383,306.088c0.095,0.475,0.015,0.906-0.241,1.295c-0.257,0.389-0.622,0.631-1.096,0.726
			c-0.076,0.019-0.182,0.028-0.313,0.028c-0.398,0-0.755-0.128-1.067-0.385c-0.313-0.256-0.518-0.582-0.611-0.98l-0.598-2.903
			h-3.046l-0.597,2.903c-0.077,0.398-0.271,0.725-0.585,0.98c-0.312,0.257-0.668,0.385-1.066,0.385c-0.152,0-0.267-0.01-0.342-0.028
			c-0.475-0.095-0.84-0.337-1.096-0.726s-0.337-0.82-0.241-1.295l3.785-18.812v-0.027v-0.058c0-0.019,0.004-0.028,0.014-0.028
			s0.014-0.01,0.014-0.029v-0.027v-0.029c0.02-0.018,0.029-0.037,0.029-0.057c0-0.019,0.004-0.028,0.014-0.028
			s0.014-0.009,0.014-0.028v-0.029c0.058-0.15,0.143-0.284,0.257-0.397v-0.028c0.019,0,0.028-0.005,0.028-0.015
			c0-0.009,0.01-0.015,0.028-0.015v-0.027l0.028-0.029l0.029-0.028l0.028-0.028l0.028-0.028l0.028-0.028l0.057-0.029
			c0.114-0.113,0.247-0.199,0.398-0.256h0.028c0.02-0.019,0.038-0.028,0.058-0.028c0.095-0.038,0.18-0.062,0.257-0.071
			c0.075-0.01,0.16-0.023,0.255-0.043h0.029h0.057h0.057c0.095,0.02,0.18,0.033,0.257,0.043c0.075,0.01,0.16,0.033,0.256,0.071
			c0.019,0,0.037,0.01,0.057,0.028h0.028c0.151,0.057,0.285,0.143,0.398,0.256c0.019,0,0.038,0.01,0.058,0.029l0.027,0.028
			l0.029,0.028l0.028,0.028l0.028,0.028l0.028,0.029l0.028,0.027l0.028,0.029v0.028c0.114,0.113,0.2,0.247,0.257,0.397v0.029
			c0,0.02,0.004,0.028,0.014,0.028s0.014,0.01,0.014,0.028c0.039,0.113,0.059,0.199,0.059,0.256L342.383,306.088z M336.947,296.27
			l-0.854,4.184h1.68L336.947,296.27z"/>
		<path fill="#CC6A11" d="M357.95,306.174c0,0.474-0.166,0.877-0.498,1.209s-0.736,0.498-1.21,0.498s-0.878-0.166-1.21-0.498
			s-0.497-0.735-0.497-1.209v-11.727l-1.794,3.529c-0.151,0.418-0.426,0.721-0.824,0.91c-0.229,0.114-0.465,0.172-0.711,0.172
			h-0.029h-0.029h-0.027h-0.029c-0.246,0-0.483-0.058-0.711-0.172c-0.398-0.189-0.674-0.492-0.825-0.91l-1.794-3.529v11.727
			c0,0.474-0.166,0.877-0.498,1.209s-0.735,0.498-1.209,0.498c-0.475,0-0.878-0.166-1.21-0.498s-0.498-0.735-0.498-1.209v-18.841
			v-0.085v-0.086v-0.029v-0.027c0-0.02,0.005-0.029,0.015-0.029s0.015-0.009,0.015-0.027v-0.029v-0.057
			c0-0.019,0.005-0.033,0.014-0.043c0.01-0.009,0.015-0.023,0.015-0.043c0.019-0.113,0.057-0.217,0.114-0.312
			c0-0.02,0.004-0.028,0.014-0.028c0.009,0,0.015-0.009,0.015-0.028l0.027-0.029l0.029-0.027c0-0.02,0.009-0.039,0.028-0.058v-0.028
			l0.057-0.057c0.038-0.038,0.071-0.076,0.1-0.114s0.062-0.075,0.1-0.114l0.058-0.057h0.028c0-0.019,0.004-0.028,0.014-0.028
			c0.009,0,0.015-0.009,0.015-0.028h0.028c0.019-0.019,0.038-0.029,0.058-0.029c0-0.018,0.008-0.027,0.027-0.027l0.029-0.029
			l0.057-0.027c0.019-0.02,0.037-0.029,0.057-0.029l0.029-0.028c0.019,0,0.037-0.009,0.057-0.028c0.019,0,0.033-0.005,0.042-0.015
			c0.01-0.009,0.024-0.014,0.043-0.014s0.032-0.005,0.043-0.015c0.009-0.01,0.023-0.014,0.043-0.014c0.019,0,0.038-0.01,0.057-0.029
			h0.028h0.058l0.028-0.028h0.027h0.057h0.029c0.019-0.019,0.038-0.028,0.057-0.028h0.028h0.086h0.085h0.086h0.057h0.029
			c0.018,0,0.037,0.01,0.056,0.028h0.057h0.029h0.057c0.076,0.038,0.143,0.062,0.199,0.071s0.114,0.033,0.171,0.071h0.028
			c0,0.019,0.019,0.028,0.058,0.028c0,0.02,0.008,0.029,0.027,0.029l0.029,0.027c0.018,0,0.037,0.01,0.057,0.029l0.057,0.057h0.029
			c0.094,0.057,0.17,0.133,0.227,0.228l0.059,0.058l0.056,0.057c0,0.019,0.005,0.028,0.015,0.028c0.008,0,0.014,0.009,0.014,0.028
			l0.028,0.028l0.028,0.028c0,0.02,0.01,0.039,0.029,0.057c0,0.02,0.004,0.033,0.014,0.043s0.014,0.023,0.014,0.043l3.586,7.029
			l3.587-7.029c0-0.037,0.009-0.066,0.028-0.086c0.019-0.018,0.028-0.037,0.028-0.057c0.019,0,0.028-0.01,0.028-0.028l0.028-0.028
			c0-0.02,0.01-0.038,0.028-0.057l0.058-0.057l0.056-0.058c0.059-0.095,0.134-0.171,0.229-0.228l0.057-0.057h0.029
			c0.018-0.02,0.037-0.029,0.057-0.029l0.027-0.027c0.02,0,0.029-0.01,0.029-0.029c0.037,0,0.057-0.01,0.057-0.028h0.029
			c0.037-0.038,0.084-0.062,0.143-0.071c0.057-0.01,0.104-0.023,0.142-0.043c0.038,0,0.065-0.009,0.085-0.028h0.058h0.028h0.057
			c0-0.019,0.01-0.028,0.029-0.028h0.057h0.057h0.085h0.086h0.085c0.038,0,0.066,0.01,0.086,0.028h0.057h0.057l0.028,0.028h0.057
			h0.028l0.058,0.029c0.019,0,0.032,0.004,0.043,0.014c0.009,0.01,0.023,0.015,0.042,0.015s0.038,0.01,0.057,0.028h0.029
			c0.019,0.02,0.037,0.028,0.057,0.028v0.028c0.037,0,0.066,0.01,0.085,0.029c0.02,0.019,0.038,0.027,0.058,0.027l0.028,0.029
			l0.028,0.027c0.019,0,0.038,0.011,0.057,0.029l0.058,0.057c0.038,0,0.057,0.02,0.057,0.057c0.095,0.058,0.171,0.133,0.228,0.229
			l0.057,0.057v0.028c0.02,0.019,0.029,0.038,0.029,0.058c0.019,0,0.027,0.01,0.027,0.027l0.029,0.029
			c0,0.02,0.009,0.037,0.028,0.057c0.038,0.096,0.075,0.199,0.114,0.312c0,0.039,0.009,0.067,0.028,0.086v0.057v0.029
			c0,0.019,0.009,0.037,0.028,0.057v0.027v0.029v0.086v0.085V306.174z"/>
		<path fill="#CC6A11" d="M370.856,304.936c0.332,0.332,0.498,0.734,0.498,1.209s-0.166,0.878-0.498,1.209
			c-0.332,0.332-0.735,0.498-1.21,0.498h-6.973c-0.474,0-0.877-0.166-1.209-0.498c-0.333-0.331-0.498-0.734-0.498-1.209v-18.84
			c0-0.475,0.165-0.878,0.498-1.209c0.332-0.333,0.735-0.499,1.209-0.499h6.973c0.475,0,0.878,0.166,1.21,0.499
			c0.332,0.331,0.498,0.734,0.498,1.209c0,0.493-0.166,0.9-0.498,1.224c-0.332,0.322-0.735,0.483-1.21,0.483h-5.265v7.172h3.643
			c0.475,0,0.878,0.166,1.209,0.498c0.332,0.332,0.498,0.736,0.498,1.209c0,0.475-0.166,0.879-0.498,1.21
			c-0.331,0.333-0.734,0.499-1.209,0.499h-3.643v4.838h5.265C370.121,304.438,370.524,304.604,370.856,304.936z"/>
		<path fill="#CC6A11" d="M384.745,286.138c0.332,0.323,0.498,0.73,0.498,1.224c0,0.475-0.166,0.878-0.498,1.209
			c-0.332,0.333-0.736,0.498-1.21,0.498h-2.646v17.076c0,0.475-0.167,0.878-0.499,1.209c-0.332,0.332-0.735,0.498-1.209,0.498
			c-0.475,0-0.879-0.166-1.209-0.498c-0.333-0.331-0.498-0.734-0.498-1.209v-17.076h-2.704c-0.475,0-0.878-0.165-1.21-0.498
			c-0.332-0.331-0.498-0.734-0.498-1.209c0-0.493,0.166-0.9,0.498-1.224s0.735-0.484,1.21-0.484h8.766
			C384.009,285.653,384.413,285.814,384.745,286.138z"/>
		<path fill="#CC6A11" d="M397.067,304.936c0.332,0.332,0.498,0.734,0.498,1.209s-0.166,0.878-0.498,1.209
			c-0.332,0.332-0.735,0.498-1.21,0.498h-6.972c-0.475,0-0.878-0.166-1.21-0.498c-0.332-0.331-0.498-0.734-0.498-1.209v-18.84
			c0-0.475,0.166-0.878,0.498-1.209c0.332-0.333,0.735-0.499,1.21-0.499h6.972c0.475,0,0.878,0.166,1.21,0.499
			c0.332,0.331,0.498,0.734,0.498,1.209c0,0.493-0.166,0.9-0.498,1.224c-0.332,0.322-0.735,0.483-1.21,0.483h-5.265v7.172h3.643
			c0.475,0,0.877,0.166,1.21,0.498c0.332,0.332,0.498,0.736,0.498,1.209c0,0.475-0.166,0.879-0.498,1.21
			c-0.333,0.333-0.735,0.499-1.21,0.499h-3.643v4.838h5.265C396.332,304.438,396.735,304.604,397.067,304.936z"/>
		<path fill="#CC6A11" d="M411.823,305.461c0.209,0.438,0.224,0.873,0.043,1.311c-0.181,0.436-0.488,0.748-0.926,0.938
			c-0.228,0.095-0.455,0.142-0.682,0.142c-0.324,0-0.627-0.09-0.912-0.27c-0.283-0.18-0.502-0.432-0.654-0.754l-3.158-7.229h-1.708
			v6.545c0,0.475-0.166,0.878-0.497,1.209c-0.334,0.332-0.736,0.498-1.211,0.498s-0.877-0.166-1.209-0.498
			c-0.332-0.331-0.498-0.734-0.498-1.209v-18.783c0-0.475,0.166-0.877,0.498-1.209s0.734-0.499,1.209-0.499h4.127
			c0.721,0,1.413,0.204,2.078,0.612c0.664,0.408,1.242,0.992,1.736,1.75c0.854,1.348,1.28,2.885,1.28,4.611
			c0,0.834-0.109,1.641-0.327,2.418c-0.219,0.779-0.537,1.5-0.953,2.163c-0.191,0.284-0.389,0.541-0.598,0.769
			s-0.418,0.438-0.627,0.627L411.823,305.461z M406.245,296.184c0.095,0,0.224-0.061,0.384-0.186
			c0.161-0.123,0.347-0.336,0.556-0.64c0.246-0.38,0.432-0.806,0.555-1.28c0.124-0.475,0.186-0.958,0.186-1.451
			c0-0.494-0.062-0.982-0.186-1.467c-0.123-0.483-0.309-0.914-0.555-1.295c-0.209-0.284-0.395-0.488-0.556-0.611
			c-0.16-0.123-0.289-0.186-0.384-0.186h-2.419v7.115H406.245z"/>
	</g>
</g>
</svg>
