<?xml version="1.0" encoding="utf-8"?>
<!-- Generator: Adobe Illustrator 16.0.0, SVG Export Plug-In . SVG Version: 6.00 Build 0)  -->
<!DOCTYPE svg PUBLIC "-//W3C//DTD SVG 1.1//EN" "http://www.w3.org/Graphics/SVG/1.1/DTD/svg11.dtd">
<svg version="1.1" id="Layer_1" xmlns="http://www.w3.org/2000/svg" xmlns:xlink="http://www.w3.org/1999/xlink" x="0px" y="0px"
	 width="574px" height="686px" viewBox="0 0 574 686" enable-background="new 0 0 574 686" xml:space="preserve">
<g enable-background="new    ">
	<path fill="#CC6717" d="M181.669,647.463c-0.028,0.912-0.175,1.943-0.442,3.096c-0.269,1.153-0.697,2.386-1.287,3.699
		c-0.59,1.313-1.421,2.532-2.493,3.658c-0.912,1.019-2.265,2.01-4.061,2.975c-1.796,0.965-4.114,1.447-6.955,1.447
		c-2.842,0-5.134-0.482-6.875-1.447c-1.743-0.965-3.069-1.956-3.98-2.975c-1.126-1.287-1.984-2.64-2.573-4.061
		c-0.59-1.42-0.992-2.761-1.206-4.021c-0.215-1.259-0.322-2.345-0.322-3.257c0-0.91,0-1.474,0-1.688
		c0.161-0.804,0.482-1.527,0.965-2.171c0.374-0.589,0.911-1.111,1.608-1.567c0.696-0.455,1.635-0.684,2.814-0.684
		c1.178,0,2.05,0.281,2.613,0.844c0.562,0.563,0.977,1.166,1.246,1.81c0.268,0.751,0.402,1.608,0.402,2.573c0,0.269,0,0.63,0,1.085
		c0,0.456,0.067,0.965,0.201,1.528c0.133,0.562,0.308,1.125,0.522,1.688c0.214,0.562,0.509,1.032,0.885,1.407
		c0.107,0.16,0.428,0.415,0.965,0.764c0.535,0.349,1.447,0.522,2.734,0.522c1.393,0,2.372-0.188,2.935-0.562
		c0.562-0.375,0.924-0.644,1.085-0.805c0.374-0.374,0.669-0.83,0.884-1.367c0.213-0.535,0.375-1.071,0.482-1.607
		c0.107-0.535,0.173-1.005,0.201-1.407c0.026-0.402,0.04-0.684,0.04-0.845v-0.321v-42.214c0-1.34,0.469-2.479,1.407-3.417
		c0.937-0.938,2.077-1.407,3.417-1.407c1.339,0,2.479,0.47,3.417,1.407c0.938,0.938,1.407,2.077,1.407,3.417v42.053
		C181.709,645.936,181.696,646.552,181.669,647.463z"/>
	<path fill="#CC6717" d="M221.873,647.985c-0.027,0.885-0.174,1.903-0.442,3.056c-0.269,1.153-0.697,2.386-1.287,3.699
		c-0.59,1.313-1.421,2.532-2.493,3.658c-0.912,1.019-2.265,2.01-4.061,2.975c-1.796,0.965-4.115,1.447-6.955,1.447
		c-2.842,0-5.134-0.482-6.875-1.447c-1.743-0.965-3.069-1.956-3.98-2.975c-1.073-1.179-1.89-2.438-2.453-3.779
		c-0.563-1.339-0.965-2.613-1.206-3.819s-0.362-2.277-0.362-3.216c0-0.938,0-1.595,0-1.971v-41.49c0-1.339,0.469-2.479,1.407-3.417
		c0.937-0.938,2.077-1.407,3.417-1.407c1.339,0,2.479,0.47,3.417,1.407c0.937,0.938,1.407,2.078,1.407,3.417v41.893v0.161
		c0,0.269,0,0.643,0,1.125s0.053,0.993,0.161,1.528c0.107,0.536,0.268,1.085,0.482,1.648c0.214,0.562,0.509,1.032,0.885,1.407
		c0.161,0.16,0.509,0.415,1.045,0.764c0.535,0.349,1.42,0.522,2.654,0.522c1.393,0,2.372-0.174,2.935-0.522
		c0.563-0.349,0.925-0.604,1.085-0.764c0.75-0.805,1.206-1.77,1.367-2.896c0.161-1.125,0.241-1.93,0.241-2.412v-0.241v-0.08v-42.053
		c0-1.34,0.469-2.479,1.407-3.418c0.937-0.938,2.077-1.407,3.417-1.407c1.339,0,2.479,0.47,3.417,1.407
		c0.937,0.938,1.407,2.078,1.407,3.418v41.973C221.913,646.498,221.899,647.101,221.873,647.985z"/>
	<path fill="#CC6717" d="M258.096,605.893c1.179,1.822,2.077,3.847,2.694,6.07c0.616,2.226,0.925,4.517,0.925,6.875
		c0,2.359-0.309,4.637-0.925,6.835c-0.617,2.198-1.515,4.234-2.694,6.11c-1.395,2.145-3.029,3.807-4.905,4.985
		c-1.877,1.18-3.833,1.77-5.87,1.77h-6.754v18.573c0,1.341-0.47,2.48-1.407,3.418c-0.939,0.938-2.078,1.407-3.417,1.407
		c-1.341,0-2.48-0.47-3.417-1.407c-0.938-0.938-1.407-2.077-1.407-3.418v-53.068c0-0.911,0.214-1.729,0.644-2.452
		c0.428-0.724,0.991-1.3,1.688-1.729c0.804-0.482,1.661-0.724,2.573-0.724h11.498c2.037,0,3.993,0.577,5.87,1.729
		C255.067,602.021,256.701,603.695,258.096,605.893z M249.975,626.557c0.644-1.071,1.152-2.277,1.528-3.618
		c0.375-1.339,0.563-2.706,0.563-4.101c0-1.394-0.188-2.774-0.563-4.141c-0.375-1.367-0.884-2.586-1.528-3.659
		c-0.59-0.804-1.113-1.379-1.568-1.729c-0.456-0.348-0.818-0.522-1.085-0.522h-6.754v20.102h6.754c0.268,0,0.629-0.173,1.085-0.522
		C248.862,628.019,249.384,627.415,249.975,626.557z"/>
	<path fill="#CC6717" d="M275.142,599.138c1.393,0,2.545,0.47,3.458,1.407c0.911,0.938,1.367,2.078,1.367,3.418v53.229
		c0,1.341-0.456,2.479-1.367,3.417c-0.912,0.938-2.064,1.407-3.458,1.407c-1.341,0-2.48-0.47-3.417-1.407
		c-0.938-0.938-1.407-2.076-1.407-3.417v-53.229c0-1.34,0.469-2.479,1.407-3.418C272.662,599.607,273.801,599.138,275.142,599.138z"
		/>
	<path fill="#CC6717" d="M318.842,600.585c0.938,0.912,1.408,2.064,1.408,3.458c0,1.341-0.471,2.479-1.408,3.417
		c-0.938,0.938-2.078,1.407-3.417,1.407h-7.478v48.244c0,1.341-0.471,2.48-1.407,3.418c-0.938,0.938-2.078,1.407-3.417,1.407
		c-1.341,0-2.48-0.47-3.418-1.407c-0.938-0.938-1.406-2.077-1.406-3.418v-48.244h-7.639c-1.342,0-2.48-0.469-3.418-1.407
		c-0.938-0.938-1.407-2.076-1.407-3.417c0-1.394,0.469-2.546,1.407-3.458c0.938-0.91,2.076-1.366,3.418-1.366h24.765
		C316.764,599.219,317.904,599.675,318.842,600.585z"/>
	<path fill="#CC6717" d="M353.658,653.694c0.938,0.938,1.407,2.078,1.407,3.417c0,1.341-0.47,2.48-1.407,3.418
		c-0.938,0.938-2.078,1.407-3.418,1.407h-19.699c-1.34,0-2.48-0.47-3.418-1.407s-1.406-2.077-1.406-3.418v-53.229
		c0-1.339,0.469-2.479,1.406-3.417c0.938-0.938,2.078-1.407,3.418-1.407h19.699c1.34,0,2.479,0.47,3.418,1.407
		c0.938,0.938,1.407,2.078,1.407,3.417c0,1.395-0.47,2.547-1.407,3.458c-0.938,0.912-2.078,1.366-3.418,1.366h-14.875v20.263h10.293
		c1.339,0,2.479,0.471,3.416,1.407c0.938,0.938,1.408,2.078,1.408,3.418s-0.471,2.479-1.408,3.417
		c-0.938,0.938-2.077,1.407-3.416,1.407h-10.293v13.669h14.875C351.58,652.287,352.72,652.757,353.658,653.694z"/>
	<path fill="#CC6717" d="M395.35,655.182c0.589,1.234,0.629,2.467,0.121,3.699c-0.511,1.233-1.381,2.117-2.613,2.653
		c-0.645,0.268-1.287,0.402-1.931,0.402c-0.912,0-1.769-0.255-2.573-0.764c-0.804-0.51-1.42-1.219-1.85-2.131l-8.925-20.424h-4.824
		v18.493c0,1.341-0.47,2.48-1.407,3.418c-0.938,0.938-2.078,1.407-3.417,1.407c-1.341,0-2.48-0.47-3.417-1.407
		c-0.939-0.938-1.408-2.077-1.408-3.418v-53.068c0-1.34,0.469-2.479,1.408-3.417c0.937-0.938,2.076-1.407,3.417-1.407h11.659
		c2.036,0,3.992,0.576,5.869,1.729c1.876,1.153,3.511,2.802,4.905,4.945c2.412,3.807,3.618,8.148,3.618,13.025
		c0,2.359-0.309,4.638-0.925,6.835c-0.616,2.198-1.515,4.235-2.693,6.111c-0.536,0.804-1.1,1.527-1.688,2.171
		c-0.591,0.643-1.18,1.233-1.77,1.769L395.35,655.182z M379.59,628.969c0.268,0,0.629-0.173,1.085-0.522
		c0.455-0.348,0.978-0.951,1.568-1.809c0.696-1.072,1.218-2.278,1.567-3.619c0.348-1.339,0.523-2.706,0.523-4.101
		c0-1.393-0.176-2.773-0.523-4.141c-0.35-1.367-0.871-2.586-1.567-3.658c-0.591-0.805-1.113-1.38-1.568-1.729
		c-0.456-0.348-0.817-0.522-1.085-0.522h-6.835v20.102H379.59z"/>
</g>
<g>
	<path fill="#CC6717" d="M567.706,282.384c0,151.542-122.853,274.392-274.396,274.392c-151.542,0-274.387-122.85-274.387-274.392
		c0-151.539,122.844-274.39,274.387-274.39C444.854,7.994,567.706,130.845,567.706,282.384z"/>
	<path fill="#FBE671" d="M18.693,263.83"/>
	<path fill="#F7B24D" d="M567.504,264.584l-547.966,0.355c0,0-4.286,54.249,10.731,99.249h525.894
		C572.329,304.188,567.504,264.584,567.504,264.584"/>
	<path fill="#EA7C2D" d="M476.292,313.534c0,9.903-10.318,17.935-23.062,17.935c-12.733,0-23.062-8.029-23.062-17.935
		s10.328-17.932,23.062-17.932C465.973,295.603,476.292,303.63,476.292,313.534z"/>
	<path fill="#FBF6BE" d="M115.775,313.534c0,9.903-13.587,17.935-30.348,17.935c-16.761,0-30.354-8.029-30.354-17.935
		s13.593-17.932,30.354-17.932C102.188,295.602,115.775,303.63,115.775,313.534z"/>
	<path fill="#F6B454" d="M468.555,315.074c0,6.58-6.858,11.916-15.326,11.916c-8.459,0-15.321-5.336-15.321-11.916
		c0-6.584,6.862-11.922,15.321-11.922C461.696,303.152,468.555,308.49,468.555,315.074z"/>
	<polygon fill="#FFC869" points="176.229,303.188 378.415,303.188 369.45,315.188 176.229,315.188 	"/>
	<polygon fill="#CC6717" points="176.229,315.188 378.415,315.188 369.45,325.188 176.229,325.188 	"/>
	<path fill="#FBF6BE" d="M415.819,315.074c0,15.562-16.513,28.185-36.886,28.185c-20.379,0-36.896-12.622-36.896-28.185
		c0-15.567,16.518-28.186,36.896-28.186C399.307,286.89,415.819,299.507,415.819,315.074z"/>
	<path fill="#FBE671" d="M567.504,263.593c-2.293-31.048-11.342-60.07-11.342-60.07l-525.757-0.158
		c-9.789,32.11-10.868,60.087-10.868,60.087L567.504,263.593z"/>
	<path fill="#511C0A" d="M99.431,88.312l388.89,0.755c0,0-74.625-80.472-187.451-81.161C177.746,7.152,120.708,66.704,99.431,88.312
		z"/>
	<path fill="#853514" d="M30.178,364.188c0,0,19.371,67.522,69.593,113.756l387.122,0.328c0,0,45.232-40.084,69.461-114.084H30.178z
		"/>
	<polygon fill="#E97832" points="393.229,435.188 190.866,435.188 199.839,446.188 393.229,446.188 	"/>
	<polygon fill="#B34A13" points="404.229,433.188 197.016,433.188 205.986,435.188 404.229,435.188 	"/>
	<path fill="#801C02" d="M209.832,436.391c0,11.394-14.453,20.623-32.29,20.623c-17.825,0-32.278-9.229-32.278-20.623
		c0-11.395,14.453-20.627,32.278-20.627C195.379,415.764,209.832,424.997,209.832,436.391z"/>
	<path fill="#65280B" d="M177.542,532.188c0,0,45.342,25.806,110.339,25.631c62.65-0.166,95.152-10.631,121.199-25.631H177.542z"/>
</g>
</svg>
