<?xml version="1.0" encoding="utf-8"?>
<!-- Generator: Adobe Illustrator 16.0.0, SVG Export Plug-In . SVG Version: 6.00 Build 0)  -->
<!DOCTYPE svg PUBLIC "-//W3C//DTD SVG 1.1//EN" "http://www.w3.org/Graphics/SVG/1.1/DTD/svg11.dtd">
<svg version="1.1" id="Layer_1" xmlns="http://www.w3.org/2000/svg" xmlns:xlink="http://www.w3.org/1999/xlink" x="0px" y="0px"
	 width="574px" height="686px" viewBox="44.127 37.237 574 686" enable-background="new 44.127 37.237 574 686"
	 xml:space="preserve">
<g id="Layer_1_1_">
</g>
<g id="Layer_5">
</g>
<g id="Layer_2">
</g>
<g id="neptune">
</g>
<g id="uranus">
</g>
<g id="saturn">
</g>
<g id="jupiter">
</g>
<g id="Layer_14">
</g>
<g id="mars">
</g>
<g id="venus">
</g>
<g id="mercury">
</g>
<g id="earth">
</g>
<g id="Layer_6">
</g>
<g id="Layer_4">
	<rect x="183.642" y="643.135" fill="none" width="260.495" height="103.289"/>
	<text transform="matrix(1 0 0 1 188.1343 704.8101)" fill="#CC6717" font-family="'MenschBold'" font-size="80.4075">JUPITER</text>
	<g>
		<path fill="#CC6717" d="M608.706,326.384c0,151.542-122.852,274.392-274.396,274.392c-151.542,0-274.386-122.85-274.386-274.392
			c0-151.539,122.844-274.39,274.386-274.39C485.854,51.994,608.706,174.845,608.706,326.384z"/>
		<path fill="#FBE671" d="M59.693,307.83"/>
		<path fill="#F7B24D" d="M608.504,308.584l-547.966,0.355c0,0-4.286,54.248,10.731,99.249h525.894
			C613.329,348.188,608.504,308.584,608.504,308.584"/>
		<path fill="#EA7C2D" d="M517.292,357.534c0,9.904-10.318,17.935-23.061,17.935c-12.734,0-23.062-8.03-23.062-17.935
			c0-9.905,10.328-17.932,23.062-17.932C506.973,339.603,517.292,347.63,517.292,357.534z"/>
		<path fill="#FBF6BE" d="M156.775,357.534c0,9.904-13.587,17.935-30.348,17.935c-16.761,0-30.354-8.03-30.354-17.935
			c0-9.905,13.593-17.932,30.354-17.932C143.188,339.602,156.775,347.63,156.775,357.534z"/>
		<path fill="#F6B454" d="M509.555,359.074c0,6.58-6.859,11.916-15.326,11.916c-8.459,0-15.322-5.336-15.322-11.916
			c0-6.584,6.863-11.922,15.322-11.922C502.696,347.152,509.555,352.49,509.555,359.074z"/>
		<polygon fill="#FFC869" points="217.229,347.188 419.415,347.188 410.45,359.188 217.229,359.188 		"/>
		<polygon fill="#CC6717" points="217.229,359.188 419.415,359.188 410.45,369.188 217.229,369.188 		"/>
		<path fill="#FBF6BE" d="M456.819,359.074c0,15.562-16.512,28.185-36.885,28.185c-20.379,0-36.896-12.622-36.896-28.185
			c0-15.567,16.518-28.185,36.896-28.185C440.307,330.89,456.819,343.507,456.819,359.074z"/>
		<path fill="#FBE671" d="M608.504,307.593c-2.293-31.048-11.342-60.07-11.342-60.07l-525.757-0.158
			c-9.789,32.11-10.868,60.087-10.868,60.087L608.504,307.593z"/>
		<path fill="#511C0A" d="M140.431,132.312l388.89,0.755c0,0-74.625-80.472-187.451-81.161
			C218.746,51.152,161.708,110.704,140.431,132.312z"/>
		<path fill="#853514" d="M71.178,408.188c0,0,19.371,67.522,69.593,113.756l387.122,0.328c0,0,45.232-40.084,69.461-114.084H71.178
			z"/>
		<polygon fill="#E97832" points="434.229,479.188 231.866,479.188 240.839,490.188 434.229,490.188 		"/>
		<polygon fill="#B34A13" points="445.229,477.188 238.016,477.188 246.986,479.188 445.229,479.188 		"/>
		<path fill="#801C02" d="M250.832,480.391c0,11.393-14.453,20.623-32.29,20.623c-17.825,0-32.278-9.23-32.278-20.623
			c0-11.395,14.453-20.627,32.278-20.627C236.379,459.764,250.832,468.997,250.832,480.391z"/>
		<path fill="#65280B" d="M218.542,576.188c0,0,45.342,25.805,110.339,25.631c62.65-0.166,95.152-10.631,121.199-25.631H218.542z"/>
	</g>
</g>
<g>
	<g>
		<path fill="#CC6717" d="M613.242,327.799c0,153.01-124.043,277.049-277.051,277.049c-153.011,0-277.046-124.039-277.046-277.049
			c0-153.005,124.035-277.046,277.046-277.046C489.199,50.753,613.242,174.794,613.242,327.799z"/>
		<path fill="#FBE671" d="M58.911,309.07"/>
		<polygon fill="#CC6717" points="216.692,359.196 422.119,359.196 413.064,369.196 216.692,369.196 		"/>
	</g>
	<path fill="#65280B" d="M108.395,322.623c0.761,0.761,1.141,1.683,1.141,2.771c0,1.086-0.379,2.011-1.141,2.771
		c-0.761,0.759-1.684,1.142-2.769,1.142H88.674c-1.088,0-2.01-0.383-2.771-1.142c-0.761-0.761-1.143-1.687-1.143-2.771
		c0-1.088,0.381-2.01,1.143-2.771c0.761-0.762,1.683-1.142,2.771-1.142h4.693v-29.727l-1.63,1.629
		c-0.739,0.737-1.653,1.107-2.738,1.107c-1.087,0-2.021-0.37-2.804-1.107c-0.739-0.785-1.109-1.719-1.109-2.805
		c0-1.087,0.37-2.001,1.109-2.74l8.279-8.278c0.565-0.562,1.241-0.924,2.022-1.078c0.783-0.15,1.542-0.075,2.282,0.229
		c0.74,0.306,1.325,0.783,1.76,1.434c0.433,0.653,0.652,1.369,0.652,2.152v39.184h4.435
		C106.711,321.481,107.634,321.861,108.395,322.623z"/>
	<path fill="#65280B" d="M133.006,278.451c1.088,0,2.01,0.379,2.771,1.14c0.761,0.762,1.14,1.686,1.14,2.771v43.096
		c0,1.086-0.379,2.01-1.14,2.77c-0.761,0.761-1.683,1.146-2.771,1.146c-1.087,0-2.01-0.385-2.771-1.146
		c-0.761-0.76-1.141-1.684-1.141-2.77v-17.668h-14.93c-0.609,0-1.184-0.131-1.729-0.391c-0.542-0.262-0.988-0.63-1.336-1.109
		c-0.826-1.043-1.064-2.174-0.717-3.39l5.738-21.515c0.258-1.045,0.858-1.837,1.792-2.382c0.934-0.545,1.923-0.683,2.967-0.422
		c1.042,0.304,1.835,0.924,2.38,1.857c0.543,0.935,0.683,1.923,0.423,2.965l-4.433,16.562h9.844v-17.604
		c0-1.086,0.38-2.01,1.141-2.771C130.996,278.831,131.92,278.451,133.006,278.451z"/>
	<path fill="#65280B" d="M161.368,315.613c1.086,0,2.01,0.381,2.771,1.14c0.76,0.764,1.141,1.687,1.141,2.772
		c0,1.218-0.099,2.433-0.294,3.65c-0.197,1.216-0.663,2.324-1.401,3.325c-0.872,1.217-2.022,2.087-3.457,2.607
		c-1.174,0.433-2.607,0.652-4.301,0.652h-12.846c-1.085,0-2.01-0.38-2.77-1.143c-0.761-0.758-1.141-1.686-1.141-2.771
		c0-2.26,0.315-4.378,0.946-6.356c0.629-1.976,1.443-3.855,2.445-5.64c0.999-1.781,2.106-3.478,3.324-5.085
		c1.216-1.608,2.434-3.152,3.65-4.63c0.958-1.174,1.869-2.324,2.74-3.455c0.87-1.13,1.65-2.249,2.347-3.356
		c0.695-1.109,1.25-2.205,1.662-3.294c0.413-1.086,0.62-2.172,0.62-3.258v-0.262c0.043-0.347-0.013-0.934-0.163-1.761
		c-0.153-0.826-0.491-1.544-1.01-2.149c-0.131-0.134-0.438-0.34-0.914-0.623c-0.479-0.281-1.283-0.422-2.412-0.422
		c-1.521,0-2.544,0.305-3.064,0.911c-0.479,0.566-0.75,1.272-0.814,2.118c-0.065,0.852-0.076,1.361-0.034,1.535
		c0.175,1.086-0.065,2.062-0.716,2.932c-0.653,0.872-1.524,1.369-2.609,1.5c-1.087,0.177-2.054-0.063-2.901-0.715
		c-0.847-0.654-1.357-1.522-1.531-2.608c0-0.132-0.022-0.545-0.065-1.239c-0.045-0.696,0-1.511,0.13-2.444
		c0.131-0.937,0.38-1.944,0.749-3.032c0.37-1.088,0.989-2.131,1.857-3.129c0.74-0.871,1.828-1.697,3.262-2.479
		c1.433-0.783,3.347-1.174,5.738-1.174c2.346,0,4.249,0.379,5.704,1.143c1.456,0.759,2.554,1.552,3.292,2.378
		c0.824,0.911,1.478,1.879,1.957,2.901c0.477,1.021,0.814,1.977,1.01,2.868c0.195,0.893,0.304,1.686,0.327,2.38
		c0.021,0.694,0.033,1.175,0.033,1.434c0,1.782-0.263,3.479-0.783,5.087c-0.521,1.609-1.218,3.163-2.086,4.663
		c-0.872,1.497-1.848,2.953-2.935,4.367c-1.087,1.412-2.194,2.791-3.324,4.139c-1.739,2.13-3.358,4.228-4.857,6.293
		c-1.502,2.062-2.555,4.25-3.162,6.55h8.346c0.39,0,0.705-0.008,0.942-0.031c0.238-0.022,0.426-0.054,0.557-0.097
		c0.042-0.174,0.074-0.423,0.096-0.75c0.022-0.326,0.035-0.836,0.035-1.532c0-1.086,0.379-2.009,1.138-2.772
		C159.357,315.994,160.281,315.613,161.368,315.613z"/>
	<path fill="#65280B" d="M174.701,320.667c1.02-0.284,2.031-0.142,3.031,0.426c0.912,0.519,1.509,1.3,1.794,2.345
		c0.281,1.044,0.161,2.021-0.358,2.934l-4.629,8.085c-0.566,0.954-1.37,1.575-2.413,1.858c-1.043,0.282-2.021,0.162-2.934-0.361
		c-1.001-0.562-1.63-1.366-1.891-2.41c-0.262-1.041-0.109-2.021,0.457-2.934l4.628-8.085
		C172.909,321.568,173.679,320.949,174.701,320.667z"/>
	<path fill="#65280B" d="M205.702,280.015c0.393,0.48,0.64,1.021,0.75,1.63c0.107,0.61,0.075,1.217-0.097,1.828l-12.324,42.638
		c-0.217,0.87-0.685,1.555-1.403,2.054c-0.716,0.497-1.509,0.747-2.379,0.747c-0.174,0-0.346,0-0.52,0
		c-0.176,0-0.349-0.041-0.522-0.129c-1.042-0.303-1.826-0.921-2.348-1.855c-0.521-0.938-0.63-1.925-0.324-2.969l10.886-37.684
		h-14.212c-1.087,0-2.012-0.38-2.771-1.142c-0.761-0.761-1.14-1.685-1.14-2.771s0.379-2.01,1.14-2.771
		c0.759-0.761,1.684-1.14,2.771-1.14h19.364C203.877,278.451,204.919,278.971,205.702,280.015z"/>
	<path fill="#65280B" d="M228.13,278.451c1.088,0,2.011,0.379,2.772,1.14c0.761,0.762,1.141,1.686,1.141,2.771v43.096
		c0,1.086-0.379,2.01-1.141,2.77c-0.761,0.761-1.684,1.146-2.772,1.146c-1.086,0-2.01-0.385-2.77-1.146
		c-0.761-0.76-1.141-1.684-1.141-2.77v-17.668h-14.93c-0.609,0-1.185-0.131-1.729-0.391c-0.542-0.262-0.988-0.63-1.334-1.109
		c-0.827-1.043-1.065-2.174-0.718-3.39l5.738-21.515c0.26-1.045,0.859-1.837,1.792-2.382c0.935-0.545,1.924-0.683,2.967-0.422
		c1.042,0.304,1.835,0.924,2.379,1.857c0.543,0.935,0.685,1.923,0.424,2.965l-4.433,16.562h9.844v-17.604
		c0-1.086,0.379-2.01,1.141-2.771C226.119,278.831,227.044,278.451,228.13,278.451z"/>
	<path fill="#65280B" d="M259.631,316.202c0,0.26-0.011,0.759-0.032,1.496c-0.021,0.741-0.143,1.578-0.358,2.51
		c-0.217,0.938-0.554,1.937-1.01,3.001c-0.458,1.064-1.122,2.054-1.988,2.965c-0.783,0.828-1.892,1.631-3.325,2.414
		c-1.436,0.784-3.304,1.174-5.607,1.174c-2.349,0-4.216-0.39-5.607-1.174c-1.393-0.783-2.457-1.586-3.196-2.414
		c-0.868-0.956-1.542-1.977-2.019-3.064c-0.479-1.084-0.814-2.118-1.012-3.096c-0.195-0.978-0.293-1.848-0.293-2.608
		c0-0.76,0-1.293,0-1.598v-24.971c0-2.651,0.435-4.768,1.305-6.355c0.87-1.587,1.759-2.815,2.674-3.684
		c2.216-2.087,4.909-3.129,8.082-3.129c1.478,0,2.957,0.259,4.434,0.782c1.478,0.52,2.806,1.326,3.979,2.411
		c1.173,1.088,2.129,2.455,2.869,4.109c0.738,1.652,1.107,3.605,1.107,5.865v25.366H259.631z M249.592,286.014
		c-0.391-0.22-0.794-0.357-1.208-0.425c-0.414-0.064-0.794-0.1-1.142-0.1c-0.302,0-0.694,0.057-1.172,0.167
		c-0.478,0.106-0.945,0.347-1.402,0.716c-0.458,0.368-0.846,0.901-1.174,1.598c-0.326,0.695-0.487,1.653-0.487,2.867v12.387
		L249.592,286.014z M250.505,320.831c0.564-0.608,0.934-1.382,1.108-2.315c0.173-0.935,0.238-1.598,0.195-1.989v-0.194v-14.214
		l-7.302,19.037c0.217,0.172,0.532,0.347,0.947,0.521c0.412,0.174,1.031,0.259,1.857,0.259c1.085,0,1.857-0.15,2.314-0.455
		C250.08,321.178,250.372,320.959,250.505,320.831z"/>
	<path fill="#65280B" d="M322.178,326.532c-0.325,1.024-0.988,1.771-1.988,2.25c-0.521,0.263-1.107,0.392-1.761,0.392
		c-0.737,0-1.412-0.185-2.021-0.554c-0.608-0.37-1.085-0.901-1.436-1.598l-9.648-19.038l-3,4.825v12.713
		c0,1.091-0.38,2.012-1.141,2.772c-0.76,0.76-1.684,1.141-2.769,1.141c-1.087,0-2.012-0.381-2.771-1.141
		c-0.761-0.761-1.142-1.682-1.142-2.772v-13.82v-0.065v-29.208c0-1.085,0.381-2.008,1.142-2.771c0.758-0.76,1.684-1.145,2.771-1.145
		c1.085,0,2.009,0.385,2.769,1.145c0.761,0.763,1.141,1.686,1.141,2.771v15.452l10.695-17.344c0.562-0.955,1.367-1.554,2.411-1.794
		c1.042-0.237,2.042-0.074,2.998,0.49c0.914,0.564,1.5,1.369,1.761,2.412c0.262,1.042,0.088,2.021-0.521,2.934l-9.584,15.583
		l11.866,23.341C322.426,324.503,322.505,325.512,322.178,326.532z"/>
	<path fill="#65280B" d="M332.316,278.255c1.129,0,2.064,0.381,2.803,1.143c0.738,0.761,1.109,1.684,1.109,2.768v43.165
		c0,1.084-0.371,2.008-1.109,2.768c-0.738,0.761-1.672,1.144-2.803,1.144c-1.088,0-2.01-0.383-2.771-1.144
		c-0.761-0.76-1.142-1.684-1.142-2.768v-43.165c0-1.084,0.381-2.007,1.142-2.768C330.307,278.636,331.228,278.255,332.316,278.255z"
		/>
	<path fill="#65280B" d="M369.152,322.555c0.738,0.763,1.109,1.689,1.109,2.775c0,1.084-0.371,2.008-1.109,2.768
		c-0.738,0.762-1.672,1.143-2.805,1.143h-17.014c-1.088,0-2.012-0.381-2.771-1.143c-0.762-0.76-1.141-1.684-1.141-2.768v-43.165
		c0-1.084,0.379-2.007,1.141-2.768c0.76-0.762,1.684-1.143,2.771-1.143c1.084,0,2.008,0.381,2.768,1.143
		c0.762,0.761,1.145,1.684,1.145,2.768v39.249h13.102C367.48,321.415,368.414,321.798,369.152,322.555z"/>
	<path fill="#65280B" d="M401.164,316.263c0,0.263-0.012,0.752-0.033,1.469c-0.021,0.716-0.141,1.545-0.355,2.477
		c-0.221,0.938-0.568,1.937-1.047,3.001s-1.152,2.054-2.02,2.965c-0.74,0.828-1.836,1.631-3.293,2.414
		c-1.457,0.784-3.336,1.174-5.639,1.174c-2.307,0-4.164-0.39-5.574-1.174c-1.414-0.783-2.49-1.586-3.229-2.414
		c-0.869-0.956-1.531-1.977-1.988-3.064c-0.457-1.084-0.781-2.118-0.977-3.096c-0.197-0.978-0.295-1.848-0.295-2.608
		c0-0.76,0-1.293,0-1.598v-24.971c0-2.605,0.434-4.715,1.305-6.322c0.867-1.607,1.76-2.826,2.67-3.652
		c2.221-2.088,4.914-3.129,8.088-3.129c1.477,0,2.955,0.262,4.434,0.779c1.477,0.523,2.803,1.331,3.977,2.415
		c1.176,1.088,2.127,2.455,2.869,4.106c0.738,1.652,1.107,3.609,1.107,5.868V316.263L401.164,316.263z M392.037,320.831
		c0.305-0.306,0.543-0.674,0.719-1.11c0.172-0.434,0.301-0.867,0.389-1.304c0.088-0.435,0.145-0.814,0.164-1.143
		c0.021-0.324,0.033-0.555,0.033-0.683v-0.129v-25.56c0-1.173-0.164-2.106-0.49-2.802c-0.324-0.696-0.719-1.239-1.172-1.632
		c-0.459-0.39-0.945-0.64-1.467-0.749c-0.523-0.107-1.002-0.162-1.436-0.162c-0.35,0-0.762,0.055-1.238,0.162
		c-0.479,0.109-0.936,0.338-1.369,0.684c-0.436,0.349-0.812,0.882-1.139,1.598c-0.326,0.72-0.49,1.664-0.49,2.836v25.298v0.128
		c0,0.222,0,0.524,0,0.916s0.041,0.803,0.127,1.237c0.09,0.437,0.219,0.88,0.393,1.336c0.176,0.456,0.414,0.839,0.721,1.142
		c0.127,0.131,0.41,0.337,0.844,0.62c0.436,0.284,1.152,0.422,2.152,0.422c1.131,0,1.924-0.15,2.381-0.455
		C391.613,321.178,391.908,320.959,392.037,320.831z"/>
	<path fill="#65280B" d="M437.74,325.331c0,1.084-0.381,2.008-1.143,2.768c-0.76,0.762-1.684,1.143-2.77,1.143
		s-2.012-0.381-2.771-1.143c-0.76-0.76-1.143-1.684-1.143-2.768v-26.863l-4.107,8.085c-0.346,0.955-0.977,1.651-1.889,2.085
		c-0.521,0.262-1.068,0.392-1.631,0.392h-0.064h-0.064h-0.066h-0.064c-0.568,0-1.109-0.13-1.629-0.392
		c-0.914-0.434-1.545-1.13-1.891-2.085l-4.109-8.085v26.863c0,1.084-0.381,2.008-1.141,2.768c-0.762,0.762-1.684,1.143-2.77,1.143
		c-1.088,0-2.012-0.381-2.771-1.143c-0.76-0.76-1.143-1.684-1.143-2.768v-43.165v-0.191v-0.2v-0.062v-0.067
		c0-0.044,0.014-0.065,0.035-0.065s0.033-0.021,0.033-0.065v-0.063v-0.131c0-0.043,0.012-0.077,0.031-0.099
		c0.023-0.02,0.033-0.055,0.033-0.098c0.043-0.261,0.131-0.498,0.262-0.717c0-0.042,0.01-0.065,0.031-0.065s0.033-0.022,0.033-0.066
		l0.064-0.062l0.066-0.067c0-0.04,0.021-0.086,0.064-0.13v-0.064l0.131-0.129c0.088-0.088,0.162-0.175,0.227-0.262
		c0.066-0.086,0.143-0.174,0.229-0.261l0.131-0.132h0.064c0-0.043,0.01-0.066,0.033-0.066c0.021,0,0.031-0.02,0.031-0.063h0.064
		c0.045-0.04,0.09-0.065,0.131-0.065c0-0.042,0.021-0.063,0.064-0.063l0.066-0.064l0.131-0.068c0.043-0.04,0.086-0.063,0.129-0.063
		l0.066-0.065c0.041,0,0.084-0.021,0.129-0.063c0.043,0,0.074-0.013,0.098-0.036c0.021-0.02,0.055-0.033,0.1-0.033
		c0.041,0,0.074-0.008,0.096-0.031c0.023-0.022,0.055-0.03,0.1-0.03c0.043,0,0.086-0.023,0.129-0.067h0.066h0.129l0.064-0.062h0.066
		h0.129h0.066c0.043-0.042,0.088-0.066,0.131-0.066h0.064h0.193h0.199h0.193h0.131h0.064c0.043,0,0.086,0.024,0.129,0.066h0.131
		h0.064h0.131c0.172,0.085,0.326,0.138,0.457,0.16c0.129,0.023,0.26,0.078,0.391,0.164h0.066c0,0.044,0.043,0.065,0.129,0.065
		c0,0.044,0.021,0.063,0.066,0.063l0.064,0.068c0.041,0,0.084,0.023,0.129,0.064l0.129,0.129h0.066
		c0.217,0.131,0.391,0.306,0.521,0.523l0.131,0.129l0.131,0.133c0,0.042,0.008,0.063,0.031,0.063c0.021,0,0.033,0.023,0.033,0.065
		l0.066,0.063l0.062,0.067c0,0.042,0.021,0.086,0.068,0.13c0,0.043,0.008,0.074,0.031,0.097c0.02,0.022,0.033,0.056,0.033,0.098
		l8.215,16.104l8.215-16.104c0-0.088,0.02-0.151,0.064-0.194c0.041-0.044,0.062-0.088,0.062-0.13c0.043,0,0.066-0.023,0.066-0.067
		l0.064-0.063c0-0.042,0.023-0.087,0.066-0.129l0.129-0.133l0.131-0.129c0.129-0.218,0.303-0.393,0.521-0.523l0.131-0.129h0.064
		c0.043-0.041,0.086-0.064,0.131-0.064l0.064-0.068c0.043,0,0.066-0.02,0.066-0.063c0.084,0,0.129-0.021,0.129-0.065h0.062
		c0.09-0.086,0.197-0.141,0.328-0.164c0.129-0.022,0.24-0.054,0.326-0.098c0.086,0,0.15-0.02,0.195-0.062h0.131h0.064h0.131
		c0-0.042,0.021-0.066,0.064-0.066h0.131h0.129h0.195h0.193h0.197c0.088,0,0.154,0.024,0.195,0.066h0.131h0.129l0.066,0.062h0.131
		h0.062l0.131,0.067c0.043,0,0.076,0.008,0.098,0.03c0.021,0.023,0.053,0.031,0.1,0.031c0.041,0,0.086,0.023,0.127,0.069h0.066
		c0.043,0.042,0.088,0.063,0.131,0.063v0.065c0.086,0,0.152,0.023,0.195,0.063c0.043,0.046,0.088,0.068,0.131,0.068l0.062,0.064
		l0.066,0.063c0.043,0,0.086,0.025,0.129,0.065l0.131,0.131c0.086,0,0.131,0.046,0.131,0.132c0.217,0.13,0.393,0.304,0.521,0.522
		l0.131,0.129v0.064c0.041,0.044,0.062,0.09,0.062,0.13c0.043,0,0.066,0.023,0.066,0.067l0.064,0.062
		c0,0.044,0.021,0.09,0.064,0.132c0.088,0.219,0.174,0.456,0.262,0.717c0,0.088,0.023,0.153,0.066,0.196v0.131v0.063
		c0,0.044,0.021,0.087,0.064,0.131v0.067v0.062v0.2v0.191v43.164H437.74z"/>
	<path fill="#65280B" d="M467.304,322.491c0.762,0.762,1.143,1.685,1.143,2.771c0,1.088-0.381,2.011-1.143,2.771
		c-0.76,0.759-1.684,1.14-2.77,1.14H448.56c-1.086,0-2.01-0.381-2.771-1.14c-0.76-0.76-1.137-1.684-1.137-2.771v-43.16
		c0-1.086,0.377-2.013,1.137-2.771c0.762-0.761,1.686-1.141,2.771-1.141h15.975c1.086,0,2.01,0.38,2.77,1.141
		c0.762,0.76,1.143,1.687,1.143,2.771c0,1.129-0.381,2.062-1.143,2.801c-0.76,0.741-1.684,1.11-2.77,1.11h-12.062v16.431h8.348
		c1.084,0,2.008,0.378,2.768,1.141c0.762,0.76,1.143,1.684,1.143,2.77c0,1.088-0.381,2.013-1.143,2.771
		c-0.76,0.762-1.684,1.14-2.768,1.14h-8.348v11.086h12.062C465.621,321.352,466.544,321.731,467.304,322.491z"/>
	<path fill="#65280B" d="M499.123,279.429c0.758,0.739,1.141,1.675,1.141,2.803c0,1.086-0.381,2.009-1.141,2.771
		c-0.76,0.76-1.688,1.141-2.771,1.141h-6.062v39.119c0,1.088-0.383,2.011-1.141,2.771c-0.762,0.76-1.688,1.141-2.771,1.141
		c-1.088,0-2.01-0.381-2.77-1.141c-0.762-0.759-1.145-1.683-1.145-2.771v-39.119h-6.191c-1.088,0-2.01-0.381-2.771-1.141
		c-0.76-0.763-1.139-1.686-1.139-2.771c0-1.128,0.379-2.063,1.139-2.803c0.762-0.739,1.686-1.107,2.771-1.107h20.08
		C497.435,278.321,498.361,278.69,499.123,279.429z"/>
	<path fill="#65280B" d="M527.351,322.491c0.762,0.762,1.143,1.685,1.143,2.771c0,1.088-0.381,2.011-1.143,2.771
		c-0.76,0.759-1.684,1.14-2.77,1.14h-15.975c-1.088,0-2.01-0.381-2.771-1.14c-0.76-0.76-1.137-1.684-1.137-2.771v-43.16
		c0-1.086,0.377-2.013,1.137-2.771c0.762-0.761,1.684-1.141,2.771-1.141h15.975c1.086,0,2.01,0.38,2.77,1.141
		c0.762,0.76,1.143,1.687,1.143,2.771c0,1.129-0.381,2.062-1.143,2.801c-0.76,0.741-1.684,1.11-2.77,1.11h-12.062v16.431h8.344
		c1.088,0,2.01,0.378,2.771,1.141c0.76,0.76,1.141,1.684,1.141,2.77c0,1.088-0.381,2.013-1.141,2.771
		c-0.762,0.762-1.686,1.14-2.771,1.14h-8.344v11.086h12.062C525.667,321.352,526.591,321.731,527.351,322.491z"/>
	<path fill="#65280B" d="M561.156,323.699c0.479,0.998,0.512,1.999,0.1,2.998c-0.414,0.999-1.121,1.717-2.119,2.153
		c-0.521,0.215-1.043,0.322-1.566,0.322c-0.736,0-1.434-0.208-2.086-0.617c-0.65-0.413-1.15-0.99-1.498-1.729l-7.236-16.561h-3.914
		v14.997c0,1.088-0.379,2.011-1.141,2.771c-0.76,0.759-1.684,1.14-2.771,1.14c-1.086,0-2.012-0.381-2.77-1.14
		c-0.762-0.76-1.141-1.684-1.141-2.771v-43.031c0-1.087,0.379-2.01,1.141-2.771c0.758-0.759,1.684-1.139,2.77-1.139h9.455
		c1.65,0,3.236,0.468,4.758,1.398c1.521,0.938,2.846,2.275,3.979,4.012c1.955,3.086,2.934,6.606,2.934,10.563
		c0,1.912-0.252,3.757-0.75,5.539c-0.502,1.784-1.229,3.435-2.186,4.957c-0.436,0.652-0.893,1.237-1.369,1.761
		c-0.479,0.521-0.957,0.999-1.436,1.432L561.156,323.699z M548.378,302.445c0.217,0,0.51-0.143,0.879-0.426
		c0.371-0.282,0.793-0.771,1.273-1.465c0.562-0.871,0.986-1.852,1.271-2.936c0.281-1.086,0.422-2.194,0.422-3.323
		c0-1.133-0.141-2.25-0.422-3.358c-0.283-1.108-0.709-2.1-1.271-2.967c-0.48-0.653-0.902-1.118-1.273-1.401
		c-0.369-0.282-0.662-0.425-0.879-0.425h-5.541v16.301H548.378z"/>
	<path fill="#65280B" d="M588.541,305.311c2.562,3.218,3.844,6.978,3.844,11.28c0,1.348-0.139,2.555-0.422,3.617
		c-0.283,1.066-0.631,2.012-1.043,2.836c-0.414,0.826-0.881,1.545-1.404,2.152c-0.52,0.609-1.041,1.133-1.562,1.564
		c-2.436,1.956-5.391,2.936-8.865,2.936c-1.697,0-3.283-0.239-4.762-0.717c-1.479-0.479-2.781-1.216-3.912-2.219
		c-0.479-0.391-0.967-0.888-1.467-1.498c-0.5-0.609-0.957-1.327-1.369-2.153c-0.416-0.824-0.75-1.782-1.012-2.868
		c-0.262-1.088-0.389-2.324-0.389-3.716c0-1.086,0.377-2.008,1.141-2.77c0.76-0.761,1.684-1.144,2.77-1.144
		c1.131,0,2.064,0.383,2.805,1.144c0.738,0.762,1.109,1.684,1.109,2.77c0,0.61,0.053,1.229,0.162,1.859
		c0.107,0.63,0.336,1.207,0.686,1.729c0.348,0.52,0.857,0.944,1.531,1.271c0.674,0.323,1.576,0.485,2.707,0.485
		c0.781,0,1.508-0.095,2.184-0.293c0.674-0.192,1.248-0.485,1.729-0.878c1.043-0.916,1.564-2.283,1.564-4.108
		c0-1.346-0.174-2.52-0.521-3.521c-0.346-0.999-0.859-1.925-1.531-2.771c-0.676-0.847-1.5-1.651-2.477-2.415
		c-0.98-0.757-2.078-1.571-3.293-2.441c-1.131-0.782-2.25-1.598-3.357-2.448c-1.109-0.846-2.143-1.812-3.098-2.899
		c-1.131-1.394-1.988-2.836-2.576-4.337c-0.588-1.499-0.879-3.14-0.879-4.922c0-0.259,0.01-0.739,0.033-1.434
		c0.02-0.694,0.131-1.499,0.326-2.411c0.193-0.913,0.521-1.869,0.979-2.87s1.119-1.957,1.988-2.868
		c0.738-0.826,1.846-1.629,3.326-2.411c1.475-0.784,3.389-1.174,5.736-1.174c2.391,0,4.291,0.401,5.705,1.207
		c1.414,0.805,2.488,1.619,3.227,2.443c0.826,0.999,1.445,2.054,1.857,3.162c0.414,1.107,0.688,2.129,0.814,3.065
		c0.131,0.934,0.174,1.748,0.131,2.444c-0.043,0.694-0.088,1.107-0.131,1.239c-0.127,0.78-0.391,1.436-0.781,1.954
		c-0.348,0.481-0.814,0.881-1.402,1.205c-0.584,0.326-1.381,0.384-2.379,0.164c-0.957-0.172-1.664-0.488-2.121-0.943
		c-0.455-0.458-0.76-0.936-0.91-1.436c-0.154-0.501-0.219-0.944-0.195-1.338c0.02-0.391,0.031-0.629,0.031-0.715
		c0.043-0.174,0.064-0.414,0.064-0.719s-0.033-0.627-0.096-0.978c-0.066-0.347-0.166-0.696-0.295-1.045
		c-0.131-0.346-0.305-0.65-0.52-0.912c-0.523-0.651-1.521-0.979-3-0.979c-1.174,0-1.988,0.155-2.443,0.46
		c-0.457,0.306-0.75,0.52-0.881,0.653c-0.307,0.303-0.533,0.649-0.684,1.04c-0.152,0.392-0.271,0.783-0.359,1.173
		c-0.088,0.393-0.141,0.731-0.162,1.013c-0.021,0.281-0.033,0.488-0.033,0.618v0.132v0.129c0,0.87,0.152,1.662,0.455,2.38
		c0.305,0.718,0.727,1.394,1.271,2.022c0.543,0.63,1.229,1.261,2.055,1.889c0.824,0.632,1.76,1.314,2.803,2.056
		c1.215,0.869,2.467,1.803,3.75,2.803C586.267,302.856,587.453,304.008,588.541,305.311z"/>
	<path fill="#65280B" d="M199.464,395.024c0.042,0.219,0.042,0.415,0,0.585v0.328c-0.174,2.999-1.042,5.453-2.606,7.366
		c-1.914,2.436-4.63,3.934-8.151,4.499c-0.827,0.174-1.806,0.262-2.933,0.262h-0.326h-0.262c-0.912,0-1.825-0.064-2.738-0.195
		c-3.65-0.608-6.454-2.13-8.411-4.564c-1.739-2.26-2.608-5.215-2.608-8.866c0-6.435,1.521-11.191,4.565-14.279l0.129-0.129
		c-0.87-1.084-1.543-2.455-2.02-4.105c-0.218-0.914-0.393-1.938-0.522-3.064c-0.13-1.131-0.196-2.437-0.196-3.914v-0.521
		c0-0.433,0.011-0.999,0.033-1.692c0.021-0.695,0.13-1.457,0.327-2.283c0.193-0.822,0.477-1.672,0.846-2.543
		c0.371-0.871,0.901-1.692,1.6-2.479c0.737-0.824,1.823-1.639,3.259-2.443c1.435-0.805,3.346-1.207,5.737-1.207h0.262h0.326
		c2.389,0,4.291,0.402,5.706,1.207c1.411,0.806,2.488,1.619,3.225,2.443c0.695,0.785,1.239,1.607,1.629,2.479
		c0.393,0.871,0.686,1.721,0.882,2.543c0.195,0.826,0.303,1.588,0.326,2.283c0.02,0.693,0.034,1.26,0.034,1.692
		c0,0.262-0.024,0.438-0.067,0.521c0,1.479-0.053,2.783-0.161,3.914c-0.11,1.129-0.295,2.15-0.556,3.064
		c-0.478,1.65-1.129,3.021-1.955,4.105l0.129,0.129c2.999,3.045,4.499,7.805,4.499,14.279v0.586H199.464z M191.641,394.437
		c0-4.258-0.761-7.214-2.283-8.866c-0.869-0.867-2.172-1.435-3.91-1.693c-1.783,0.26-3.064,0.826-3.847,1.693
		c-1.565,1.652-2.347,4.608-2.347,8.866v0.259c0.042,0.176,0.13,0.566,0.261,1.175c0.128,0.61,0.413,1.241,0.847,1.891
		c0.826,1.351,2.022,2.153,3.585,2.415c0.218,0,0.458,0.01,0.716,0.029c0.263,0.023,0.524,0.033,0.786,0.033
		c0.303,0,0.596-0.01,0.88-0.033c0.281-0.021,0.532-0.054,0.75-0.096c1.605-0.263,2.825-1.066,3.651-2.411
		c0.302-0.521,0.521-1.033,0.652-1.532c0.13-0.5,0.217-0.858,0.26-1.076L191.641,394.437L191.641,394.437z M181.209,369.272
		c0,1.172,0.053,2.129,0.164,2.868c0.107,0.74,0.216,1.326,0.327,1.759c0.106,0.438,0.215,0.752,0.324,0.945
		c0.109,0.196,0.184,0.316,0.229,0.359c0.262,0.218,0.694,0.358,1.304,0.424c0.608,0.066,1.238,0.12,1.892,0.164
		c0.692-0.044,1.346-0.098,1.956-0.164c0.607-0.064,1.02-0.206,1.237-0.424c0.042-0.043,0.131-0.163,0.263-0.359
		c0.13-0.193,0.25-0.527,0.357-1.009c0.108-0.479,0.206-1.118,0.292-1.923c0.089-0.805,0.131-1.838,0.131-3.098
		c0-0.088,0.022-0.152,0.065-0.197v-0.326h-0.065l0.065-0.062c-0.042-0.437-0.14-1.013-0.293-1.729
		c-0.152-0.716-0.468-1.314-0.946-1.792c-0.13-0.131-0.413-0.34-0.846-0.622c-0.436-0.281-1.174-0.442-2.216-0.485
		c-1.001,0.043-1.719,0.204-2.153,0.485c-0.433,0.282-0.717,0.491-0.847,0.622c-0.478,0.478-0.805,1.076-0.979,1.792
		c-0.174,0.718-0.261,1.294-0.261,1.729v0.062C181.251,368.643,181.251,368.967,181.209,369.272z"/>
	<path fill="#65280B" d="M230.575,389.22c0.477,2.521,0.455,5.001-0.065,7.435c-0.306,1.349-0.741,2.618-1.305,3.812
		c-0.566,1.198-1.283,2.273-2.15,3.231c-0.652,0.735-1.369,1.39-2.152,1.951c-0.782,0.566-1.608,1.022-2.476,1.369
		c-1.655,0.654-3.392,0.979-5.217,0.979h-1.044c-2.912-0.174-5.498-1.066-7.759-2.672c-2.174-1.522-3.911-3.607-5.216-6.262
		c-2.042-4.346-2.911-9.888-2.607-16.623c0-2.521,0.281-4.828,0.848-6.912c0.564-2.088,1.292-3.944,2.186-5.575
		c0.889-1.63,1.867-3.064,2.933-4.302c1.065-1.238,2.12-2.291,3.162-3.164c1.087-0.912,2.151-1.691,3.194-2.348
		c1.044-0.65,1.989-1.183,2.836-1.597c0.847-0.412,1.542-0.718,2.087-0.911c0.542-0.197,0.879-0.314,1.011-0.357
		c0.694-0.22,1.368-0.285,2.02-0.196c0.564,0.086,1.129,0.303,1.696,0.651c0.562,0.348,1.021,0.954,1.369,1.824
		c0.348,0.914,0.39,1.697,0.13,2.348c-0.261,0.651-0.61,1.196-1.043,1.629c-0.48,0.479-1.109,0.893-1.892,1.238
		c-0.651,0.221-1.347,0.502-2.085,0.85c-0.609,0.304-1.303,0.707-2.086,1.205c-0.784,0.5-1.588,1.101-2.414,1.793
		c-3.868,3.39-5.89,7.673-6.063,12.845c1-0.694,2.206-1.281,3.619-1.761c1.413-0.479,3.054-0.717,4.922-0.717
		c1.478,0,2.804,0.151,3.978,0.455c1.174,0.305,2.216,0.709,3.129,1.207c0.912,0.5,1.696,1.045,2.346,1.629
		c0.653,0.59,1.216,1.164,1.696,1.729c0.869,1.174,1.468,2.262,1.794,3.261C230.281,388.265,230.487,388.917,230.575,389.22z
		 M221.186,398.48c0.783-0.868,1.336-2.03,1.662-3.486c0.327-1.458,0.337-2.88,0.034-4.274v-0.062
		c-0.044-0.086-0.142-0.324-0.294-0.717s-0.422-0.826-0.815-1.306c-1.042-1.215-2.629-1.823-4.758-1.823
		c-2.261,0-4.108,0.739-5.543,2.215c-0.52,0.568-0.901,1.101-1.138,1.6c-0.241,0.502-0.384,0.795-0.427,0.88
		c-0.042,0.087-0.096,0.293-0.16,0.62c-0.067,0.324-0.078,0.706-0.034,1.14c0,0.35,0.076,0.793,0.228,1.336
		c0.151,0.547,0.293,0.948,0.423,1.208c0,0.085,0.021,0.152,0.065,0.196c1.304,2.606,3.39,3.999,6.259,4.172
		C218.599,400.306,220.098,399.741,221.186,398.48z"/>
	<path fill="#65280B" d="M238.3,398.903c1.019-0.28,2.031-0.142,3.032,0.425c0.912,0.521,1.508,1.305,1.792,2.348
		c0.283,1.044,0.163,2.023-0.357,2.935l-4.629,8.083c-0.567,0.955-1.371,1.575-2.413,1.858c-1.042,0.281-2.021,0.162-2.933-0.36
		c-1.002-0.563-1.63-1.366-1.892-2.408c-0.26-1.043-0.108-2.022,0.457-2.938l4.629-8.084
		C236.507,399.804,237.277,399.186,238.3,398.903z"/>
	<path fill="#65280B" d="M270.344,395.024c0.043,0.219,0.043,0.415,0,0.585v0.328c-0.173,2.999-1.042,5.453-2.607,7.366
		c-1.912,2.436-4.628,3.934-8.15,4.499c-0.825,0.174-1.805,0.262-2.934,0.262h-0.326h-0.261c-0.912,0-1.825-0.064-2.736-0.195
		c-3.653-0.608-6.456-2.13-8.412-4.564c-1.739-2.26-2.609-5.215-2.609-8.866c0-6.435,1.522-11.191,4.565-14.279l0.13-0.129
		c-0.87-1.084-1.544-2.455-2.021-4.105c-0.217-0.914-0.39-1.938-0.521-3.064c-0.13-1.131-0.195-2.437-0.195-3.914v-0.521
		c0-0.433,0.011-0.999,0.033-1.692c0.021-0.695,0.129-1.457,0.325-2.283c0.195-0.822,0.479-1.672,0.846-2.543
		c0.372-0.871,0.902-1.692,1.6-2.479c0.739-0.824,1.824-1.639,3.26-2.443c1.434-0.805,3.346-1.207,5.737-1.207h0.261h0.326
		c2.39,0,4.292,0.402,5.707,1.207c1.412,0.806,2.487,1.619,3.226,2.443c0.695,0.785,1.237,1.607,1.63,2.479
		c0.391,0.871,0.685,1.721,0.88,2.543c0.196,0.826,0.304,1.588,0.326,2.283c0.022,0.693,0.033,1.26,0.033,1.692
		c0,0.262-0.022,0.438-0.066,0.521c0,1.479-0.053,2.783-0.162,3.914c-0.108,1.129-0.293,2.15-0.554,3.064
		c-0.479,1.65-1.129,3.021-1.955,4.105l0.129,0.129c2.999,3.045,4.498,7.805,4.498,14.279v0.586H270.344z M262.521,394.437
		c0-4.258-0.761-7.214-2.282-8.866c-0.87-0.867-2.174-1.435-3.912-1.693c-1.782,0.26-3.064,0.826-3.847,1.693
		c-1.565,1.652-2.346,4.608-2.346,8.866v0.259c0.042,0.176,0.131,0.566,0.261,1.175c0.13,0.61,0.413,1.241,0.847,1.891
		c0.826,1.351,2.021,2.153,3.586,2.415c0.217,0,0.457,0.01,0.717,0.029c0.261,0.023,0.522,0.033,0.783,0.033
		c0.304,0,0.596-0.01,0.881-0.033c0.282-0.021,0.532-0.054,0.749-0.096c1.609-0.263,2.826-1.066,3.653-2.411
		c0.302-0.521,0.519-1.033,0.649-1.532c0.131-0.5,0.218-0.858,0.262-1.076L262.521,394.437L262.521,394.437z M252.089,369.272
		c0,1.172,0.054,2.129,0.164,2.868c0.106,0.74,0.216,1.326,0.327,1.759c0.108,0.438,0.215,0.752,0.324,0.945
		c0.109,0.196,0.186,0.316,0.229,0.359c0.262,0.218,0.694,0.358,1.304,0.424c0.608,0.066,1.239,0.12,1.891,0.164
		c0.695-0.044,1.347-0.098,1.957-0.164c0.608-0.064,1.021-0.206,1.239-0.424c0.043-0.043,0.13-0.163,0.261-0.359
		c0.13-0.193,0.25-0.527,0.357-1.009c0.108-0.479,0.206-1.118,0.293-1.923c0.088-0.805,0.131-1.838,0.131-3.098
		c0-0.088,0.021-0.152,0.065-0.197v-0.326h-0.065l0.065-0.062c-0.043-0.437-0.142-1.013-0.292-1.729
		c-0.155-0.716-0.469-1.314-0.947-1.792c-0.129-0.131-0.414-0.34-0.846-0.622c-0.438-0.281-1.176-0.442-2.218-0.485
		c-1.001,0.043-1.717,0.204-2.151,0.485c-0.435,0.282-0.717,0.491-0.846,0.622c-0.48,0.478-0.807,1.076-0.98,1.792
		c-0.174,0.718-0.261,1.294-0.261,1.729v0.062C252.131,368.643,252.131,368.967,252.089,369.272z"/>
	<path fill="#65280B" d="M300.179,395.024c0.042,0.219,0.042,0.415,0,0.585v0.328c-0.175,2.999-1.042,5.453-2.606,7.366
		c-1.914,2.436-4.63,3.934-8.15,4.499c-0.828,0.174-1.806,0.262-2.933,0.262h-0.327h-0.262c-0.912,0-1.825-0.064-2.737-0.195
		c-3.651-0.608-6.454-2.13-8.412-4.564c-1.738-2.26-2.609-5.215-2.609-8.866c0-6.435,1.522-11.191,4.567-14.279l0.129-0.129
		c-0.871-1.084-1.544-2.455-2.02-4.105c-0.22-0.914-0.393-1.938-0.523-3.064c-0.131-1.131-0.196-2.437-0.196-3.914v-0.521
		c0-0.433,0.012-0.999,0.034-1.692c0.021-0.695,0.131-1.457,0.327-2.283c0.194-0.822,0.478-1.672,0.847-2.543
		c0.368-0.871,0.901-1.692,1.597-2.479c0.739-0.824,1.823-1.639,3.261-2.443c1.435-0.805,3.346-1.207,5.736-1.207h0.262h0.327
		c2.388,0,4.292,0.402,5.704,1.207c1.412,0.806,2.488,1.619,3.227,2.443c0.695,0.785,1.238,1.607,1.629,2.479
		c0.392,0.871,0.683,1.721,0.879,2.543c0.196,0.826,0.304,1.588,0.328,2.283c0.02,0.693,0.032,1.26,0.032,1.692
		c0,0.262-0.023,0.438-0.065,0.521c0,1.479-0.055,2.783-0.163,3.914c-0.109,1.129-0.293,2.15-0.555,3.064
		c-0.478,1.65-1.131,3.021-1.957,4.105l0.131,0.129c2.999,3.045,4.499,7.805,4.499,14.279L300.179,395.024L300.179,395.024z
		 M292.354,394.437c0-4.258-0.759-7.214-2.281-8.866c-0.868-0.867-2.172-1.435-3.911-1.693c-1.784,0.26-3.064,0.826-3.847,1.693
		c-1.564,1.652-2.347,4.608-2.347,8.866v0.259c0.043,0.176,0.13,0.566,0.261,1.175c0.129,0.61,0.413,1.241,0.847,1.891
		c0.824,1.351,2.021,2.153,3.585,2.415c0.217,0,0.458,0.01,0.718,0.029c0.261,0.023,0.521,0.033,0.783,0.033
		c0.303,0,0.596-0.01,0.88-0.033c0.281-0.021,0.531-0.054,0.751-0.096c1.605-0.263,2.825-1.066,3.649-2.411
		c0.303-0.521,0.521-1.033,0.653-1.532c0.13-0.5,0.218-0.858,0.259-1.076V394.437z M281.921,369.272
		c0,1.172,0.057,2.129,0.164,2.868c0.109,0.74,0.217,1.326,0.328,1.759c0.108,0.438,0.216,0.752,0.326,0.945
		c0.106,0.196,0.184,0.316,0.227,0.359c0.262,0.218,0.694,0.358,1.304,0.424c0.608,0.066,1.239,0.12,1.892,0.164
		c0.693-0.044,1.346-0.098,1.956-0.164c0.609-0.064,1.021-0.206,1.239-0.424c0.042-0.043,0.131-0.163,0.259-0.359
		c0.132-0.193,0.25-0.527,0.36-1.009c0.108-0.479,0.205-1.118,0.293-1.923c0.087-0.805,0.13-1.838,0.13-3.098
		c0-0.088,0.022-0.152,0.065-0.197v-0.326h-0.065l0.065-0.062c-0.043-0.437-0.143-1.013-0.293-1.729
		c-0.152-0.716-0.467-1.314-0.945-1.792c-0.131-0.131-0.415-0.34-0.849-0.622c-0.433-0.281-1.173-0.442-2.215-0.485
		c-1.001,0.043-1.717,0.204-2.153,0.485c-0.434,0.282-0.715,0.491-0.846,0.622c-0.48,0.478-0.805,1.076-0.979,1.792
		c-0.172,0.718-0.262,1.294-0.262,1.729v0.062C281.966,368.643,281.966,368.967,281.921,369.272z"/>
	<path fill="#65280B" d="M324.577,400.862c0.761,0.759,1.141,1.683,1.141,2.769c0,1.089-0.38,2.011-1.141,2.772
		c-0.759,0.758-1.685,1.139-2.771,1.139h-16.951c-1.088,0-2.012-0.381-2.773-1.139c-0.758-0.763-1.14-1.685-1.14-2.772
		c0-1.086,0.382-2.01,1.14-2.769c0.761-0.764,1.685-1.145,2.773-1.145h4.693v-29.727l-1.631,1.629
		c-0.739,0.736-1.65,1.105-2.737,1.105c-1.086,0-2.021-0.369-2.802-1.105c-0.74-0.785-1.111-1.719-1.111-2.805
		c0-1.088,0.371-2.002,1.111-2.738l8.279-8.28c0.564-0.563,1.237-0.922,2.021-1.076c0.782-0.151,1.541-0.075,2.281,0.229
		c0.739,0.304,1.325,0.781,1.762,1.434c0.433,0.65,0.65,1.367,0.65,2.152v39.182h4.434
		C322.893,399.717,323.816,400.098,324.577,400.862z"/>
	<path fill="#65280B" d="M389.525,403.565c0,1.086-0.381,2.013-1.143,2.771c-0.76,0.761-1.684,1.142-2.77,1.142
		s-2.012-0.381-2.77-1.142c-0.762-0.759-1.141-1.686-1.141-2.771v-26.86l-4.109,8.085c-0.35,0.955-0.979,1.652-1.889,2.087
		c-0.521,0.26-1.066,0.391-1.631,0.391h-0.064h-0.066h-0.064h-0.066c-0.566,0-1.109-0.131-1.629-0.391
		c-0.914-0.435-1.545-1.132-1.893-2.087l-4.107-8.085v26.86c0,1.086-0.381,2.013-1.139,2.771c-0.762,0.761-1.688,1.142-2.771,1.142
		c-1.088,0-2.012-0.381-2.771-1.142c-0.76-0.759-1.141-1.686-1.141-2.771v-43.162v-0.191v-0.198v-0.063v-0.065
		c0-0.042,0.012-0.063,0.033-0.063s0.031-0.023,0.031-0.067v-0.063v-0.131c0-0.043,0.012-0.074,0.035-0.099
		c0.02-0.021,0.031-0.054,0.031-0.095c0.041-0.264,0.129-0.5,0.262-0.721c0-0.041,0.008-0.063,0.031-0.063
		c0.021,0,0.035-0.021,0.035-0.067l0.064-0.061l0.064-0.067c0-0.044,0.021-0.087,0.064-0.132v-0.062l0.131-0.134
		c0.086-0.085,0.162-0.172,0.227-0.259c0.066-0.088,0.139-0.174,0.229-0.262l0.131-0.131h0.064c0-0.043,0.012-0.065,0.033-0.065
		s0.033-0.021,0.033-0.062h0.064c0.043-0.043,0.088-0.066,0.131-0.066c0-0.044,0.023-0.064,0.064-0.064l0.064-0.064l0.131-0.066
		c0.043-0.042,0.086-0.062,0.131-0.062l0.064-0.067c0.043,0,0.086-0.02,0.129-0.063c0.045,0,0.076-0.01,0.1-0.032
		c0.021-0.021,0.055-0.033,0.1-0.033c0.041,0,0.072-0.01,0.096-0.032c0.023-0.021,0.055-0.031,0.1-0.031
		c0.043,0,0.086-0.021,0.129-0.067h0.064h0.131l0.064-0.062h0.066h0.129h0.064c0.043-0.047,0.09-0.067,0.131-0.067h0.066h0.195
		h0.195h0.195h0.129h0.066c0.041,0,0.086,0.021,0.129,0.067h0.131h0.064h0.131c0.174,0.086,0.326,0.139,0.457,0.16
		c0.129,0.022,0.26,0.075,0.391,0.162h0.066c0,0.046,0.041,0.067,0.129,0.067c0,0.042,0.021,0.062,0.064,0.062l0.066,0.066
		c0.041,0,0.086,0.022,0.127,0.063l0.131,0.133h0.066c0.217,0.127,0.391,0.305,0.521,0.521l0.131,0.131l0.129,0.128
		c0,0.047,0.01,0.066,0.031,0.066c0.023,0,0.033,0.023,0.033,0.066l0.064,0.062l0.066,0.066c0,0.043,0.021,0.086,0.064,0.133
		c0,0.041,0.012,0.074,0.033,0.095s0.033,0.056,0.033,0.099l8.215,16.104l8.217-16.104c0-0.086,0.02-0.151,0.064-0.192
		c0.041-0.046,0.062-0.089,0.062-0.134c0.043,0,0.066-0.021,0.066-0.065l0.064-0.062c0-0.045,0.021-0.088,0.064-0.135l0.131-0.128
		l0.131-0.131c0.131-0.216,0.303-0.394,0.52-0.521l0.131-0.133h0.066c0.043-0.041,0.086-0.063,0.129-0.063l0.066-0.066
		c0.043,0,0.064-0.021,0.064-0.062c0.084,0,0.129-0.021,0.129-0.067h0.066c0.086-0.087,0.193-0.14,0.324-0.162
		c0.131-0.021,0.24-0.054,0.328-0.1c0.086,0,0.15-0.02,0.195-0.061h0.129h0.066h0.129c0-0.047,0.021-0.068,0.066-0.068h0.131h0.129
		h0.195h0.195h0.195c0.088,0,0.152,0.021,0.195,0.068h0.131h0.129l0.066,0.061h0.131h0.064l0.129,0.066
		c0.043,0,0.076,0.011,0.1,0.032c0.021,0.022,0.053,0.032,0.098,0.032c0.043,0,0.086,0.021,0.129,0.064h0.064
		c0.043,0.046,0.088,0.064,0.131,0.064v0.067c0.086,0,0.152,0.021,0.197,0.062c0.041,0.044,0.086,0.066,0.129,0.066l0.064,0.063
		l0.066,0.065c0.043,0,0.086,0.022,0.129,0.065l0.131,0.129c0.086,0,0.129,0.043,0.129,0.131c0.217,0.131,0.393,0.308,0.523,0.521
		l0.129,0.134v0.062c0.043,0.045,0.064,0.088,0.064,0.132c0.041,0,0.064,0.021,0.064,0.067l0.066,0.061
		c0,0.046,0.023,0.09,0.064,0.133c0.086,0.219,0.172,0.457,0.262,0.719c0,0.088,0.021,0.15,0.064,0.193v0.131v0.063
		c0,0.044,0.021,0.09,0.064,0.132v0.066v0.062v0.198v0.192v43.16H389.525z"/>
	<path fill="#65280B" d="M400.609,356.491c1.131,0,2.062,0.384,2.803,1.144c0.738,0.761,1.109,1.685,1.109,2.769v43.162
		c0,1.086-0.371,2.013-1.109,2.771c-0.738,0.761-1.672,1.142-2.803,1.142c-1.088,0-2.012-0.381-2.771-1.142
		c-0.76-0.759-1.143-1.686-1.143-2.771v-43.162c0-1.084,0.383-2.008,1.143-2.769C398.597,356.875,399.521,356.491,400.609,356.491z"
		/>
	<path fill="#65280B" d="M437.445,400.793c0.738,0.761,1.107,1.688,1.107,2.771c0,1.086-0.369,2.013-1.107,2.771
		c-0.74,0.761-1.674,1.142-2.805,1.142h-17.016c-1.086,0-2.012-0.381-2.771-1.142c-0.762-0.759-1.141-1.686-1.141-2.771v-43.161
		c0-1.084,0.379-2.009,1.141-2.77c0.76-0.76,1.686-1.143,2.771-1.143s2.008,0.383,2.77,1.143c0.762,0.761,1.141,1.686,1.141,2.77
		v39.248h13.105C435.771,399.653,436.705,400.035,437.445,400.793z"/>
	<path fill="#65280B" d="M468.902,400.728c0.762,0.765,1.141,1.686,1.141,2.771c0,1.088-0.379,2.011-1.141,2.771
		c-0.762,0.762-1.684,1.143-2.771,1.143h-15.973c-1.088,0-2.012-0.381-2.773-1.143c-0.758-0.76-1.139-1.683-1.139-2.771V360.34
		c0-1.089,0.379-2.014,1.139-2.773c0.762-0.759,1.686-1.141,2.773-1.141h15.973c1.088,0,2.01,0.382,2.771,1.141
		c0.762,0.762,1.141,1.686,1.141,2.773c0,1.131-0.379,2.062-1.141,2.8c-0.762,0.741-1.684,1.111-2.771,1.111H454.07v16.43h8.346
		c1.084,0,2.01,0.381,2.768,1.142c0.762,0.763,1.143,1.684,1.143,2.768c0,1.092-0.381,2.016-1.143,2.773
		c-0.758,0.764-1.684,1.142-2.768,1.142h-8.346v11.083h12.061C467.218,399.587,468.14,399.969,468.902,400.728z"/>
	<path fill="#65280B" d="M498.078,383.549c2.564,3.218,3.846,6.977,3.846,11.28c0,1.346-0.141,2.553-0.424,3.616
		c-0.283,1.066-0.629,2.013-1.043,2.837c-0.414,0.825-0.879,1.545-1.402,2.151c-0.52,0.607-1.041,1.131-1.562,1.564
		c-2.436,1.956-5.393,2.934-8.867,2.934c-1.695,0-3.283-0.238-4.762-0.718c-1.479-0.478-2.781-1.215-3.91-2.216
		c-0.48-0.392-0.967-0.891-1.469-1.5c-0.5-0.607-0.957-1.324-1.369-2.151c-0.414-0.826-0.748-1.781-1.01-2.868
		c-0.262-1.088-0.391-2.326-0.391-3.716c0-1.087,0.379-2.01,1.143-2.771c0.76-0.762,1.682-1.142,2.77-1.142
		c1.129,0,2.062,0.38,2.801,1.142c0.74,0.762,1.111,1.685,1.111,2.771c0,0.608,0.055,1.229,0.162,1.859
		c0.109,0.63,0.336,1.205,0.686,1.727c0.348,0.521,0.859,0.942,1.533,1.271c0.672,0.323,1.574,0.488,2.707,0.488
		c0.781,0,1.508-0.098,2.184-0.296c0.672-0.192,1.248-0.486,1.725-0.878c1.045-0.913,1.568-2.28,1.568-4.105
		c0-1.349-0.176-2.521-0.521-3.521c-0.348-0.999-0.861-1.926-1.533-2.775c-0.674-0.846-1.5-1.648-2.477-2.41
		c-0.979-0.76-2.076-1.573-3.293-2.445c-1.129-0.777-2.248-1.595-3.357-2.443c-1.109-0.847-2.143-1.815-3.098-2.901
		c-1.129-1.392-1.988-2.836-2.576-4.335c-0.586-1.501-0.877-3.141-0.877-4.924c0-0.26,0.01-0.737,0.033-1.433
		c0.02-0.696,0.129-1.501,0.324-2.413s0.521-1.867,0.979-2.867c0.457-1.002,1.119-1.959,1.988-2.871
		c0.738-0.825,1.846-1.629,3.326-2.41c1.477-0.781,3.391-1.174,5.736-1.174c2.389,0,4.293,0.401,5.705,1.205
		c1.412,0.807,2.488,1.623,3.227,2.444c0.826,1.001,1.443,2.054,1.857,3.161s0.684,2.132,0.814,3.066
		c0.131,0.934,0.174,1.748,0.131,2.445c-0.043,0.692-0.088,1.105-0.131,1.237c-0.131,0.78-0.391,1.435-0.781,1.954
		c-0.35,0.48-0.814,0.882-1.402,1.207c-0.586,0.324-1.381,0.38-2.379,0.163c-0.959-0.173-1.662-0.488-2.119-0.944
		c-0.459-0.458-0.762-0.934-0.914-1.436c-0.15-0.5-0.219-0.944-0.193-1.338c0.02-0.391,0.031-0.629,0.031-0.715
		c0.043-0.175,0.064-0.414,0.064-0.718c0-0.305-0.031-0.629-0.096-0.979c-0.066-0.348-0.166-0.693-0.295-1.043
		c-0.131-0.348-0.305-0.649-0.521-0.911c-0.521-0.651-1.521-0.979-3-0.979c-1.174,0-1.988,0.153-2.445,0.456
		c-0.457,0.308-0.75,0.523-0.879,0.655c-0.305,0.303-0.533,0.648-0.684,1.042c-0.152,0.39-0.273,0.78-0.359,1.174
		c-0.088,0.39-0.143,0.728-0.164,1.008c-0.02,0.283-0.031,0.49-0.031,0.621v0.132v0.129c0,0.869,0.152,1.662,0.457,2.379
		c0.303,0.719,0.727,1.395,1.271,2.022c0.543,0.63,1.227,1.263,2.051,1.892c0.826,0.633,1.762,1.312,2.805,2.054
		c1.215,0.868,2.467,1.803,3.75,2.805C495.806,381.094,496.992,382.247,498.078,383.549z"/>
	<g>
		<path fill="#65280B" d="M240.165,449.731c0.51,0.51,0.765,1.127,0.765,1.854c0,0.729-0.255,1.348-0.765,1.854
			c-0.506,0.51-1.128,0.764-1.853,0.764h-0.96l0.48,0.83c0.378,0.609,0.472,1.264,0.285,1.963c-0.189,0.695-0.606,1.234-1.245,1.611
			c-0.407,0.232-0.843,0.352-1.309,0.352c-0.436,0-0.865-0.119-1.286-0.352c-0.422-0.23-0.749-0.551-0.98-0.959l-0.438-0.828
			l-0.481,0.828c-0.234,0.408-0.553,0.729-0.958,0.959c-0.407,0.232-0.844,0.352-1.309,0.352c-0.464,0-0.901-0.119-1.308-0.352
			c-0.64-0.377-1.054-0.906-1.243-1.592c-0.189-0.684-0.097-1.344,0.285-1.982l0.479-0.83h-0.959c-0.728,0-1.346-0.254-1.855-0.764
			c-0.507-0.506-0.763-1.125-0.763-1.854c0-0.727,0.256-1.344,0.763-1.854c0.509-0.508,1.127-0.764,1.855-0.764h0.914l-0.433-0.787
			c-0.381-0.639-0.474-1.307-0.285-2.006c0.189-0.695,0.588-1.219,1.2-1.57c0.638-0.377,1.306-0.469,2.006-0.279
			c0.699,0.186,1.223,0.602,1.569,1.242l0.481,0.785l0.482-0.785c0.347-0.641,0.872-1.057,1.568-1.242
			c0.697-0.189,1.366-0.111,2.006,0.238c0.611,0.377,1.011,0.916,1.199,1.611c0.189,0.699,0.11,1.355-0.24,1.965l-0.48,0.828h0.96
			C239.037,448.967,239.659,449.223,240.165,449.731z"/>
		<path fill="#65280B" d="M245.421,443.252c0.756,0,1.381,0.256,1.876,0.766c0.493,0.512,0.741,1.125,0.741,1.854v28.875
			c0,0.727-0.249,1.342-0.741,1.852c-0.495,0.51-1.12,0.766-1.876,0.766c-0.727,0-1.345-0.256-1.854-0.766
			c-0.509-0.51-0.763-1.125-0.763-1.852v-28.875c0-0.729,0.254-1.342,0.763-1.854C244.076,443.508,244.694,443.252,245.421,443.252z
			"/>
		<path fill="#65280B" d="M268.146,443.252c0.726,0,1.342,0.256,1.852,0.766c0.508,0.512,0.764,1.125,0.764,1.854v28.83v0.174v0.131
			v0.045v0.088l-0.044,0.043v0.045v0.084v0.045c-0.029,0.029-0.042,0.061-0.042,0.088v0.045c0,0.027-0.009,0.045-0.022,0.045
			c-0.015,0-0.022,0.014-0.022,0.041c0,0.029-0.007,0.049-0.021,0.064c-0.017,0.016-0.024,0.037-0.024,0.064
			c0,0.029-0.007,0.053-0.021,0.066s-0.021,0.037-0.021,0.066c0,0.027-0.007,0.043-0.021,0.043c-0.015,0-0.023,0.014-0.023,0.041
			v0.045c-0.028,0-0.042,0.016-0.042,0.043l-0.044,0.043c0,0.031-0.014,0.062-0.042,0.09l-0.044,0.043v0.043
			c-0.027,0-0.044,0.016-0.044,0.045s-0.014,0.041-0.042,0.041c0,0.029-0.008,0.047-0.021,0.047c-0.013,0-0.023,0.016-0.023,0.041
			h-0.042c0,0.029-0.015,0.061-0.044,0.09l-0.085,0.086l-0.088,0.088l-0.085,0.086h-0.046l-0.087,0.09
			c-0.029,0.027-0.061,0.043-0.087,0.043c0,0.029-0.016,0.043-0.043,0.043l-0.043,0.045c-0.031,0-0.044,0.006-0.044,0.021
			c0,0.014-0.015,0.021-0.043,0.021h-0.044l-0.087,0.086c-0.117,0.059-0.219,0.102-0.306,0.131
			c-0.086,0.029-0.201,0.061-0.346,0.088c-0.118,0.029-0.292,0.045-0.523,0.045c-0.176,0-0.306-0.016-0.396-0.045h-0.086h-0.042
			c-0.03,0-0.043-0.016-0.043-0.043h-0.175v-0.045h-0.086c-0.119-0.059-0.191-0.088-0.219-0.088s-0.044-0.014-0.044-0.043h-0.042
			c-0.03,0-0.043-0.014-0.043-0.045c-0.029,0-0.059-0.012-0.088-0.041c-0.029,0-0.044-0.014-0.044-0.043h-0.042
			c-0.029,0-0.044-0.008-0.044-0.023s-0.016-0.021-0.044-0.021c-0.319-0.229-0.581-0.508-0.784-0.826v-0.047
			c-0.029,0-0.043-0.012-0.043-0.043l-0.044-0.043v-0.045c-0.029-0.027-0.042-0.057-0.042-0.084c0-0.029-0.015-0.059-0.043-0.09
			l-7.459-17.229v16.227c0,0.727-0.253,1.344-0.764,1.854c-0.51,0.51-1.127,0.766-1.853,0.766c-0.728,0-1.347-0.256-1.855-0.766
			c-0.509-0.51-0.762-1.127-0.762-1.854v-28.832v-0.174v-0.129v-0.043v-0.09l0.043-0.045v-0.041v-0.088v-0.043
			c0.028-0.031,0.042-0.061,0.042-0.09v-0.043c0-0.027,0.007-0.043,0.022-0.043c0.015,0,0.022-0.014,0.022-0.043
			s0.006-0.051,0.02-0.066c0.017-0.012,0.023-0.037,0.023-0.066s0.006-0.049,0.022-0.062c0.014-0.016,0.022-0.037,0.022-0.068
			c0-0.025,0.006-0.041,0.019-0.041c0.016,0,0.024-0.016,0.024-0.045v-0.041l0.088-0.088c0-0.029,0.006-0.047,0.02-0.047
			c0.016,0,0.022-0.012,0.022-0.041l0.044-0.045v-0.043c0.027-0.027,0.042-0.059,0.042-0.086h0.043c0-0.031,0.008-0.047,0.023-0.047
			c0.014,0,0.021-0.012,0.021-0.043h0.042c0-0.027,0.015-0.055,0.043-0.088l0.087-0.084v-0.045c0.028,0,0.06-0.016,0.089-0.043
			v-0.043c0.028,0,0.058-0.018,0.087-0.047h0.042l0.089-0.086l0.087-0.09h0.044c0-0.025,0.013-0.041,0.043-0.041
			c0.028,0,0.042-0.008,0.042-0.021s0.015-0.023,0.045-0.023h0.042l0.087-0.086c0.203-0.115,0.409-0.188,0.61-0.217h0.045
			c0.144-0.029,0.362-0.045,0.653-0.045h0.131h0.042l0.044,0.045h0.087h0.043h0.087c0,0.027,0.014,0.043,0.043,0.043h0.087h0.045
			c0,0.027,0.029,0.045,0.086,0.045c0.03,0.027,0.073,0.041,0.131,0.041c0.029,0.029,0.058,0.047,0.088,0.047h0.043
			c0,0.029,0.027,0.041,0.086,0.041v0.045c0.059,0,0.088,0.016,0.088,0.041h0.042c0.03,0,0.044,0.01,0.044,0.023
			c0,0.016,0.014,0.021,0.042,0.021l0.044,0.041l0.042,0.047l0.045,0.041h0.042c0.029,0.033,0.06,0.043,0.088,0.043v0.045
			c0.029,0,0.042,0.008,0.042,0.021s0.015,0.023,0.044,0.023v0.045c0.03,0,0.044,0.006,0.044,0.02c0,0.016,0.014,0.021,0.044,0.021
			v0.045l0.086,0.086l0.087,0.086l0.088,0.09c0,0.027,0.015,0.059,0.044,0.088c0.027,0,0.043,0.014,0.043,0.041
			c0,0.029,0.014,0.047,0.042,0.047c0,0.059,0.014,0.086,0.042,0.086v0.041c0.029,0.031,0.045,0.061,0.045,0.088h0.042
			c0,0.062,0.009,0.096,0.022,0.109c0.015,0.016,0.022,0.039,0.022,0.064l7.459,17.23V445.87c0-0.729,0.253-1.342,0.762-1.854
			C266.795,443.506,267.418,443.252,268.146,443.252z"/>
		<path fill="#65280B" d="M310.712,445.348c0.612,0.582,1.208,1.4,1.79,2.463c0.581,1.062,0.873,2.48,0.873,4.252v16.49
			c0,1.773-0.292,3.188-0.873,4.25c-0.582,1.062-1.178,1.883-1.79,2.467c-1.539,1.395-3.357,2.094-5.451,2.094h-3.27h-2.399
			c-0.728,0-1.347-0.256-1.854-0.766c-0.507-0.51-0.762-1.127-0.762-1.854V445.87c0-0.727,0.255-1.342,0.762-1.852
			c0.507-0.51,1.126-0.766,1.854-0.766h2.399h3.27C307.354,443.252,309.172,443.954,310.712,445.348z M308.141,452.063
			c0-0.811-0.109-1.451-0.328-1.918c-0.218-0.463-0.481-0.82-0.785-1.068c-0.307-0.248-0.628-0.404-0.96-0.48
			c-0.334-0.072-0.603-0.109-0.808-0.109h-3.052v23.643h3.052c0.205,0,0.474-0.037,0.808-0.109c0.332-0.07,0.653-0.23,0.96-0.48
			c0.304-0.244,0.566-0.602,0.785-1.066c0.219-0.465,0.328-1.104,0.328-1.918V452.063z"/>
		<path fill="#65280B" d="M320.963,443.252c0.756,0,1.38,0.256,1.875,0.766c0.493,0.512,0.742,1.125,0.742,1.854v28.875
			c0,0.727-0.249,1.342-0.742,1.852c-0.496,0.51-1.12,0.766-1.875,0.766c-0.727,0-1.346-0.256-1.854-0.766
			c-0.511-0.51-0.766-1.125-0.766-1.852v-28.875c0-0.729,0.254-1.342,0.766-1.854C319.618,443.508,320.236,443.252,320.963,443.252z
			"/>
		<path fill="#65280B" d="M343.816,474.614c0.146,0.727,0.021,1.387-0.369,1.982c-0.393,0.598-0.953,0.969-1.682,1.113
			c-0.115,0.029-0.275,0.043-0.479,0.043c-0.609,0-1.154-0.193-1.635-0.588s-0.793-0.895-0.939-1.506l-0.914-4.447h-4.668
			l-0.914,4.447c-0.119,0.611-0.416,1.111-0.895,1.506c-0.48,0.395-1.027,0.588-1.638,0.588c-0.231,0-0.406-0.014-0.522-0.043
			c-0.727-0.146-1.286-0.516-1.68-1.113c-0.391-0.596-0.517-1.256-0.37-1.982l5.802-28.832v-0.043v-0.086
			c0-0.031,0.006-0.043,0.02-0.043c0.018,0,0.021-0.016,0.021-0.045v-0.045v-0.043c0.029-0.025,0.045-0.059,0.045-0.086
			c0-0.029,0.006-0.043,0.021-0.043c0.014,0,0.021-0.014,0.021-0.045v-0.043c0.088-0.236,0.217-0.439,0.393-0.611v-0.045
			c0.027,0,0.043-0.008,0.043-0.021c0-0.012,0.016-0.02,0.043-0.02v-0.047l0.045-0.041l0.043-0.045l0.043-0.043l0.043-0.045
			l0.043-0.041l0.086-0.047c0.176-0.174,0.379-0.303,0.611-0.393h0.045c0.027-0.027,0.059-0.045,0.086-0.045
			c0.145-0.057,0.275-0.092,0.393-0.107c0.115-0.014,0.248-0.035,0.391-0.062h0.047h0.086h0.086
			c0.146,0.027,0.277,0.049,0.393,0.062c0.115,0.016,0.248,0.053,0.393,0.107c0.027,0,0.059,0.018,0.088,0.045h0.043
			c0.232,0.09,0.436,0.219,0.609,0.393c0.029,0,0.061,0.016,0.088,0.047l0.043,0.041l0.043,0.045l0.043,0.043l0.045,0.045
			l0.043,0.041l0.045,0.047l0.041,0.041v0.045c0.176,0.172,0.307,0.375,0.391,0.611v0.043c0,0.031,0.008,0.045,0.023,0.045
			c0.014,0,0.021,0.014,0.021,0.043c0.059,0.174,0.088,0.303,0.088,0.391L343.816,474.614z M335.488,459.567l-1.311,6.412h2.574
			L335.488,459.567z"/>
		<path fill="#65280B" d="M367.675,474.745c0,0.727-0.256,1.344-0.764,1.854s-1.127,0.766-1.854,0.766s-1.346-0.256-1.854-0.766
			s-0.762-1.127-0.762-1.854v-17.969l-2.75,5.406c-0.232,0.639-0.656,1.107-1.266,1.396c-0.348,0.174-0.713,0.262-1.09,0.262h-0.043
			h-0.043h-0.043h-0.043c-0.381,0-0.744-0.088-1.09-0.262c-0.613-0.289-1.035-0.758-1.266-1.396l-2.75-5.406v17.969
			c0,0.727-0.256,1.344-0.762,1.854c-0.51,0.51-1.127,0.766-1.855,0.766c-0.727,0-1.344-0.256-1.854-0.766
			c-0.506-0.51-0.762-1.127-0.762-1.854V445.87v-0.131v-0.129v-0.045v-0.045c0-0.027,0.006-0.043,0.021-0.043
			c0.014,0,0.02-0.016,0.02-0.045v-0.041v-0.088c0-0.029,0.01-0.051,0.021-0.064c0.016-0.018,0.023-0.037,0.023-0.066
			c0.027-0.174,0.086-0.332,0.174-0.48c0-0.027,0.008-0.041,0.023-0.041c0.014,0,0.021-0.016,0.021-0.047l0.041-0.041l0.045-0.047
			c0-0.025,0.012-0.057,0.043-0.086v-0.041l0.086-0.088c0.059-0.059,0.107-0.117,0.152-0.176c0.043-0.059,0.094-0.117,0.152-0.172
			l0.088-0.09h0.045c0-0.027,0.006-0.045,0.021-0.045c0.014,0,0.021-0.012,0.021-0.043h0.041c0.029-0.027,0.059-0.041,0.088-0.041
			c0-0.031,0.016-0.047,0.043-0.047l0.043-0.041l0.09-0.047c0.027-0.025,0.057-0.041,0.086-0.041l0.043-0.045
			c0.029,0,0.059-0.012,0.088-0.041c0.029,0,0.051-0.008,0.066-0.023c0.012-0.014,0.037-0.023,0.064-0.023s0.051-0.006,0.064-0.02
			c0.018-0.018,0.037-0.021,0.066-0.021c0.027,0,0.059-0.018,0.086-0.045h0.043h0.088l0.045-0.041h0.043h0.086h0.043
			c0.029-0.029,0.061-0.047,0.088-0.047h0.045h0.129h0.129h0.131h0.09h0.043c0.025,0,0.057,0.018,0.086,0.047h0.088h0.043h0.088
			c0.117,0.059,0.217,0.09,0.305,0.105s0.176,0.051,0.264,0.109h0.043c0,0.029,0.027,0.045,0.088,0.045
			c0,0.027,0.014,0.041,0.041,0.041l0.045,0.047c0.027,0,0.057,0.014,0.086,0.041l0.088,0.088h0.043
			c0.146,0.088,0.26,0.205,0.35,0.35l0.088,0.086l0.086,0.09c0,0.027,0.006,0.043,0.021,0.043s0.021,0.016,0.021,0.045l0.043,0.041
			l0.045,0.047c0,0.029,0.012,0.059,0.043,0.086c0,0.027,0.006,0.053,0.02,0.064c0.016,0.016,0.023,0.037,0.023,0.064l5.494,10.773
			l5.498-10.773c0-0.059,0.014-0.102,0.041-0.129c0.027-0.029,0.043-0.059,0.043-0.088c0.027,0,0.043-0.016,0.043-0.045l0.043-0.043
			c0-0.027,0.016-0.059,0.043-0.086l0.088-0.09l0.088-0.088c0.086-0.145,0.205-0.262,0.348-0.348l0.088-0.09h0.045
			c0.029-0.025,0.057-0.041,0.088-0.041l0.043-0.045c0.027,0,0.043-0.014,0.043-0.041c0.059,0,0.088-0.016,0.088-0.047h0.041
			c0.059-0.059,0.131-0.094,0.219-0.107c0.086-0.016,0.16-0.037,0.217-0.064c0.059,0,0.104-0.016,0.131-0.043h0.088h0.045h0.086
			c0-0.029,0.014-0.045,0.043-0.045h0.088h0.088h0.129h0.131h0.131c0.059,0,0.102,0.016,0.129,0.045h0.09h0.086l0.045,0.043h0.086
			h0.043l0.088,0.045c0.029,0,0.049,0.004,0.062,0.02c0.018,0.016,0.037,0.021,0.066,0.021s0.057,0.018,0.088,0.047h0.043
			c0.029,0.029,0.059,0.041,0.086,0.041v0.045c0.059,0,0.104,0.016,0.133,0.041c0.029,0.031,0.059,0.047,0.088,0.047l0.043,0.041
			l0.043,0.045c0.025,0,0.057,0.016,0.088,0.043l0.086,0.088c0.057,0,0.088,0.029,0.088,0.09c0.143,0.086,0.262,0.203,0.348,0.348
			l0.088,0.088v0.041c0.029,0.029,0.043,0.061,0.043,0.086c0.029,0,0.041,0.02,0.041,0.047l0.045,0.041
			c0,0.031,0.016,0.061,0.045,0.088c0.057,0.148,0.115,0.307,0.174,0.48c0,0.059,0.014,0.102,0.043,0.131v0.088v0.043
			c0,0.029,0.016,0.059,0.045,0.088v0.045v0.045v0.127v0.133v28.873H367.675z"/>
		<path fill="#65280B" d="M387.453,472.846c0.51,0.51,0.764,1.127,0.764,1.855c0,0.727-0.254,1.346-0.764,1.854
			c-0.506,0.508-1.125,0.762-1.852,0.762h-10.688c-0.729,0-1.344-0.254-1.852-0.762c-0.51-0.508-0.764-1.127-0.764-1.854v-28.875
			c0-0.727,0.254-1.344,0.764-1.854c0.508-0.508,1.125-0.764,1.852-0.764h10.688c0.729,0,1.346,0.256,1.852,0.764
			c0.51,0.51,0.764,1.127,0.764,1.854c0,0.758-0.254,1.381-0.764,1.877c-0.506,0.496-1.125,0.742-1.852,0.742h-8.068v10.99h5.582
			c0.725,0,1.346,0.254,1.852,0.762c0.512,0.51,0.766,1.127,0.766,1.854c0,0.73-0.254,1.348-0.766,1.854
			c-0.506,0.512-1.127,0.766-1.852,0.766h-5.582v7.414h8.068C386.33,472.084,386.947,472.336,387.453,472.846z"/>
		<path fill="#65280B" d="M408.74,444.04c0.508,0.494,0.764,1.119,0.764,1.873c0,0.729-0.256,1.344-0.764,1.854
			c-0.508,0.512-1.127,0.766-1.854,0.766h-4.057v26.17c0,0.727-0.256,1.346-0.764,1.854c-0.51,0.508-1.127,0.764-1.854,0.764
			s-1.344-0.256-1.854-0.764s-0.764-1.127-0.764-1.854v-26.17h-4.145c-0.729,0-1.348-0.254-1.854-0.766
			c-0.508-0.51-0.764-1.125-0.764-1.854c0-0.754,0.256-1.379,0.764-1.873c0.506-0.494,1.125-0.74,1.854-0.74h13.436
			C407.613,443.299,408.232,443.545,408.74,444.04z"/>
		<path fill="#65280B" d="M427.625,472.846c0.51,0.51,0.764,1.127,0.764,1.855c0,0.727-0.254,1.346-0.764,1.854
			c-0.508,0.508-1.125,0.762-1.852,0.762h-10.688c-0.727,0-1.346-0.254-1.852-0.762c-0.512-0.508-0.764-1.127-0.764-1.854v-28.875
			c0-0.727,0.252-1.344,0.764-1.854c0.506-0.508,1.125-0.764,1.852-0.764h10.688c0.729,0,1.344,0.256,1.852,0.764
			c0.51,0.51,0.764,1.127,0.764,1.854c0,0.758-0.254,1.381-0.764,1.877c-0.508,0.496-1.125,0.742-1.852,0.742h-8.07v10.99h5.584
			c0.725,0,1.344,0.254,1.852,0.762c0.512,0.51,0.766,1.127,0.766,1.854c0,0.73-0.254,1.348-0.766,1.854
			c-0.508,0.512-1.125,0.766-1.852,0.766h-5.584v7.414h8.07C426.5,472.084,427.117,472.336,427.625,472.846z"/>
		<path fill="#65280B" d="M450.24,473.653c0.32,0.672,0.342,1.342,0.064,2.008c-0.273,0.67-0.746,1.146-1.416,1.439
			c-0.348,0.146-0.697,0.217-1.047,0.217c-0.494,0-0.959-0.139-1.395-0.412c-0.438-0.279-0.771-0.662-1.004-1.156l-4.842-11.078
			h-2.617v10.031c0,0.727-0.254,1.346-0.764,1.854c-0.508,0.508-1.125,0.762-1.852,0.762s-1.346-0.254-1.854-0.762
			c-0.51-0.508-0.764-1.127-0.764-1.854v-28.787c0-0.727,0.254-1.344,0.764-1.855c0.508-0.506,1.127-0.76,1.854-0.76h6.324
			c1.104,0,2.166,0.312,3.184,0.934c1.018,0.629,1.904,1.521,2.66,2.684c1.307,2.064,1.965,4.422,1.965,7.064
			c0,1.281-0.17,2.518-0.502,3.709c-0.336,1.191-0.822,2.299-1.463,3.316c-0.291,0.434-0.596,0.828-0.914,1.178
			c-0.322,0.348-0.641,0.668-0.961,0.957L450.24,473.653z M441.691,459.436c0.145,0,0.342-0.094,0.59-0.283
			c0.246-0.189,0.527-0.518,0.85-0.982c0.377-0.582,0.662-1.236,0.848-1.961c0.191-0.729,0.285-1.469,0.285-2.229
			c0-0.754-0.094-1.502-0.285-2.24c-0.188-0.744-0.471-1.406-0.848-1.986c-0.322-0.438-0.604-0.75-0.85-0.939
			c-0.248-0.188-0.445-0.281-0.59-0.281h-3.707v10.902H441.691L441.691,459.436z"/>
	</g>
</g>
</svg>
