<?xml version="1.0" encoding="utf-8"?>
<!-- Generator: Adobe Illustrator 16.0.0, SVG Export Plug-In . SVG Version: 6.00 Build 0)  -->
<!DOCTYPE svg PUBLIC "-//W3C//DTD SVG 1.1//EN" "http://www.w3.org/Graphics/SVG/1.1/DTD/svg11.dtd">
<svg version="1.1" id="Layer_1" xmlns="http://www.w3.org/2000/svg" xmlns:xlink="http://www.w3.org/1999/xlink" x="0px" y="0px"
	 width="320px" height="362px" viewBox="1.614 48.094 320 362" enable-background="new 1.614 48.094 320 362" xml:space="preserve">
<g id="Layer_1_1_">
</g>
<g id="Layer_5">
</g>
<g id="Layer_2">
</g>
<g id="neptune">
</g>
<g id="uranus">
</g>
<g id="saturn">
</g>
<g id="jupiter">
</g>
<g id="Layer_14">
</g>
<g id="mars">
</g>
<g id="venus">
</g>
<g id="mercury">
</g>
<g id="earth">
</g>
<g id="Layer_6">
</g>
<g>
	<path fill="#8FA60D" d="M73.934,354.312c1.105,0,2.046,0.388,2.821,1.16c0.775,0.774,1.163,1.717,1.163,2.822v43.903v0.267v0.198
		v0.065v0.135l-0.066,0.065v0.064v0.135v0.066c-0.047,0.044-0.066,0.089-0.066,0.132v0.064c0,0.047-0.011,0.068-0.035,0.068
		c-0.027,0-0.034,0.021-0.034,0.066c0,0.044-0.01,0.076-0.032,0.1c-0.022,0.021-0.033,0.056-0.033,0.1
		c0,0.045-0.014,0.076-0.036,0.1c-0.021,0.022-0.033,0.056-0.033,0.101c0,0.044-0.011,0.065-0.032,0.065s-0.032,0.022-0.032,0.066
		v0.065c-0.046,0-0.067,0.022-0.067,0.067l-0.068,0.065c0,0.044-0.021,0.088-0.064,0.133l-0.068,0.065v0.066
		c-0.042,0-0.065,0.021-0.065,0.066c0,0.043-0.023,0.065-0.066,0.065c0,0.045-0.011,0.065-0.036,0.065s-0.032,0.022-0.032,0.067
		h-0.065c0,0.045-0.024,0.088-0.068,0.133l-0.133,0.131l-0.131,0.134l-0.132,0.135h-0.067l-0.133,0.133
		c-0.043,0.042-0.09,0.065-0.133,0.065c0,0.043-0.021,0.066-0.068,0.066l-0.064,0.066c-0.046,0-0.066,0.01-0.066,0.032
		c0,0.021-0.023,0.031-0.066,0.031H75.86l-0.135,0.135c-0.175,0.088-0.332,0.154-0.465,0.198c-0.131,0.044-0.309,0.089-0.531,0.134
		c-0.176,0.042-0.441,0.065-0.794,0.065c-0.266,0-0.467-0.023-0.6-0.065h-0.131h-0.067c-0.044,0-0.068-0.022-0.068-0.065h-0.266
		v-0.067h-0.13c-0.18-0.089-0.29-0.133-0.333-0.133c-0.045,0-0.068-0.022-0.068-0.065h-0.065c-0.046,0-0.068-0.022-0.068-0.065
		c-0.043,0-0.088-0.023-0.131-0.068c-0.044,0-0.068-0.021-0.068-0.063h-0.065c-0.046,0-0.065-0.015-0.065-0.033
		c0-0.023-0.025-0.033-0.068-0.033c-0.489-0.354-0.885-0.774-1.194-1.264v-0.064c-0.046,0-0.066-0.022-0.066-0.065l-0.068-0.067
		v-0.065c-0.045-0.044-0.065-0.089-0.065-0.133c0-0.045-0.024-0.089-0.068-0.133l-11.355-26.236v24.708
		c0,1.108-0.39,2.049-1.163,2.823c-0.775,0.773-1.716,1.161-2.824,1.161c-1.107,0-2.048-0.388-2.821-1.161
		c-0.776-0.774-1.162-1.715-1.162-2.823V358.36v-0.267v-0.199v-0.065v-0.131l0.064-0.068v-0.065v-0.133v-0.066
		c0.043-0.043,0.067-0.088,0.067-0.133v-0.066c0-0.042,0.011-0.064,0.035-0.064c0.019,0,0.031-0.022,0.031-0.067
		c0-0.043,0.008-0.075,0.033-0.099c0.023-0.022,0.033-0.055,0.033-0.102c0-0.042,0.012-0.077,0.034-0.1
		c0.021-0.021,0.034-0.055,0.034-0.1s0.011-0.067,0.033-0.067c0.023,0,0.033-0.021,0.033-0.065v-0.066l0.133-0.131
		c0-0.045,0.007-0.067,0.034-0.067c0.024,0,0.035-0.021,0.035-0.066l0.068-0.065v-0.065c0.04-0.045,0.064-0.089,0.064-0.134h0.066
		c0-0.044,0.011-0.067,0.034-0.067c0.021,0,0.03-0.021,0.03-0.065h0.068c0-0.045,0.021-0.088,0.067-0.133l0.133-0.134v-0.064
		c0.045,0,0.09-0.023,0.133-0.066v-0.065c0.042,0,0.088-0.021,0.132-0.066h0.067l0.132-0.133l0.133-0.133h0.066
		c0-0.045,0.023-0.067,0.065-0.067c0.045,0,0.068-0.01,0.068-0.032c0-0.021,0.022-0.033,0.067-0.033h0.066l0.133-0.133
		c0.309-0.176,0.617-0.287,0.929-0.332h0.065c0.222-0.043,0.557-0.064,0.996-0.064h0.2h0.068l0.064,0.064h0.137h0.065H55.8
		c0,0.045,0.021,0.067,0.067,0.067h0.131h0.068c0,0.043,0.043,0.065,0.132,0.065c0.044,0.045,0.108,0.064,0.202,0.064
		c0.043,0.046,0.085,0.066,0.131,0.066h0.066c0,0.043,0.043,0.066,0.133,0.066v0.066c0.09,0,0.132,0.023,0.132,0.066h0.068
		c0.041,0,0.064,0.01,0.064,0.032s0.023,0.032,0.066,0.032l0.065,0.068l0.069,0.064l0.068,0.066h0.064
		c0.043,0.044,0.088,0.066,0.131,0.066v0.065c0.045,0,0.068,0.011,0.068,0.032c0,0.023,0.021,0.035,0.068,0.035v0.064
		c0.04,0,0.064,0.012,0.064,0.033c0,0.023,0.024,0.033,0.066,0.033v0.064l0.133,0.135l0.133,0.133l0.131,0.133
		c0,0.045,0.025,0.089,0.068,0.134c0.042,0,0.068,0.021,0.068,0.065c0,0.043,0.02,0.065,0.064,0.065
		c0,0.091,0.021,0.134,0.068,0.134v0.065c0.043,0.045,0.064,0.09,0.064,0.133h0.064c0,0.089,0.012,0.144,0.036,0.166
		c0.021,0.022,0.032,0.056,0.032,0.101l11.357,26.235v-24.709c0-1.104,0.386-2.048,1.163-2.821
		C71.884,354.699,72.824,354.312,73.934,354.312z"/>
	<path fill="#8FA60D" d="M108.304,399.376c0.772,0.774,1.161,1.716,1.161,2.822c0,1.105-0.389,2.049-1.161,2.823
		c-0.776,0.772-1.718,1.161-2.824,1.161H89.209c-1.109,0-2.05-0.389-2.823-1.161c-0.776-0.774-1.162-1.718-1.162-2.823v-43.97
		c0-1.104,0.385-2.047,1.162-2.822c0.773-0.773,1.714-1.164,2.823-1.164h16.271c1.106,0,2.048,0.391,2.824,1.164
		c0.772,0.775,1.161,1.718,1.161,2.822c0,1.15-0.389,2.104-1.161,2.854c-0.776,0.755-1.718,1.129-2.824,1.129H93.193v16.739h8.501
		c1.106,0,2.049,0.388,2.822,1.162c0.772,0.772,1.164,1.716,1.164,2.822s-0.392,2.047-1.164,2.822
		c-0.773,0.774-1.716,1.162-2.822,1.162h-8.501v11.292h12.287C106.586,398.214,107.528,398.602,108.304,399.376z"/>
	<path fill="#8FA60D" d="M138.492,359.891c0.974,1.506,1.716,3.178,2.222,5.015c0.51,1.837,0.769,3.729,0.769,5.68
		s-0.258,3.83-0.769,5.646c-0.506,1.816-1.249,3.498-2.222,5.049c-1.15,1.77-2.501,3.145-4.051,4.115
		c-1.553,0.976-3.165,1.463-4.85,1.463h-5.578V402.2c0,1.105-0.39,2.049-1.164,2.823c-0.776,0.772-1.716,1.161-2.823,1.161
		c-1.108,0-2.048-0.389-2.821-1.161c-0.776-0.774-1.162-1.718-1.162-2.823v-43.837c0-0.752,0.175-1.426,0.531-2.025
		c0.352-0.598,0.816-1.072,1.393-1.429c0.664-0.397,1.372-0.597,2.125-0.597h9.499c1.685,0,3.297,0.477,4.85,1.428
		C135.991,356.691,137.342,358.074,138.492,359.891z M131.783,376.96c0.533-0.888,0.953-1.884,1.263-2.989
		c0.31-1.106,0.467-2.234,0.467-3.387s-0.158-2.293-0.467-3.422c-0.31-1.13-0.729-2.137-1.263-3.021
		c-0.487-0.664-0.917-1.139-1.294-1.43c-0.375-0.287-0.676-0.43-0.896-0.43h-5.578v16.604h5.578c0.22,0,0.521-0.143,0.896-0.432
		C130.865,378.166,131.296,377.668,131.783,376.96z"/>
	<path fill="#8FA60D" d="M172.199,355.505c0.774,0.755,1.163,1.707,1.163,2.856c0,1.106-0.389,2.049-1.163,2.822
		c-0.778,0.774-1.716,1.164-2.824,1.164h-6.176v39.851c0,1.105-0.388,2.049-1.164,2.823c-0.774,0.772-1.716,1.161-2.822,1.161
		c-1.105,0-2.05-0.389-2.825-1.161c-0.771-0.774-1.162-1.718-1.162-2.823v-39.851h-6.31c-1.105,0-2.046-0.39-2.823-1.164
		c-0.772-0.773-1.161-1.716-1.161-2.822c0-1.149,0.389-2.103,1.161-2.856c0.777-0.751,1.718-1.128,2.823-1.128h20.458
		C170.483,354.377,171.421,354.754,172.199,355.505z"/>
	<path fill="#8FA60D" d="M202.883,394.66c-0.021,0.73-0.144,1.572-0.362,2.522c-0.225,0.953-0.576,1.972-1.064,3.056
		c-0.487,1.086-1.172,2.093-2.061,3.021c-0.752,0.844-1.869,1.661-3.352,2.456c-1.482,0.799-3.396,1.197-5.747,1.197
		c-2.348,0-4.237-0.398-5.68-1.197c-1.437-0.795-2.534-1.612-3.286-2.456c-0.885-0.973-1.561-2.015-2.027-3.121
		c-0.463-1.105-0.795-2.156-0.996-3.154c-0.194-0.996-0.298-1.883-0.298-2.656c0-0.774,0-1.318,0-1.629v-34.271
		c0-1.104,0.388-2.047,1.162-2.822c0.778-0.774,1.716-1.16,2.824-1.16c1.106,0,2.047,0.386,2.823,1.16
		c0.775,0.775,1.162,1.718,1.162,2.822v34.605v0.131c0,0.225,0,0.532,0,0.932c0,0.398,0.043,0.818,0.133,1.262
		c0.086,0.443,0.224,0.896,0.398,1.361c0.176,0.465,0.42,0.854,0.73,1.162c0.132,0.133,0.422,0.344,0.863,0.631
		c0.441,0.289,1.17,0.433,2.19,0.433c1.153,0,1.96-0.144,2.427-0.433c0.461-0.287,0.762-0.498,0.894-0.631
		c0.622-0.664,0.998-1.461,1.129-2.39c0.136-0.933,0.201-1.595,0.201-1.993v-0.2v-0.065v-34.737c0-1.106,0.386-2.047,1.161-2.823
		c0.775-0.773,1.716-1.161,2.824-1.161c1.106,0,2.045,0.388,2.823,1.161c0.775,0.776,1.159,1.717,1.159,2.823v34.67
		C202.915,393.432,202.906,393.928,202.883,394.66z"/>
	<path fill="#8FA60D" d="M233.534,354.312c1.107,0,2.047,0.388,2.822,1.16c0.775,0.774,1.164,1.717,1.164,2.822v43.903v0.267v0.198
		v0.065v0.135l-0.065,0.065v0.064v0.135v0.066c-0.046,0.044-0.067,0.089-0.067,0.132v0.064c0,0.047-0.01,0.068-0.033,0.068
		c-0.022,0-0.035,0.021-0.035,0.066c0,0.044-0.01,0.076-0.029,0.1c-0.023,0.021-0.035,0.056-0.035,0.1
		c0,0.045-0.015,0.076-0.033,0.1c-0.022,0.022-0.033,0.056-0.033,0.101c0,0.044-0.01,0.065-0.035,0.065
		c-0.021,0-0.029,0.022-0.029,0.066v0.065c-0.047,0-0.068,0.022-0.068,0.067l-0.066,0.065c0,0.044-0.021,0.088-0.064,0.133
		l-0.068,0.065v0.066c-0.043,0-0.064,0.021-0.064,0.066c0,0.043-0.021,0.065-0.066,0.065c0,0.045-0.013,0.065-0.033,0.065
		c-0.025,0-0.034,0.022-0.034,0.067h-0.065c0,0.045-0.022,0.088-0.068,0.133l-0.131,0.131l-0.131,0.134l-0.134,0.135h-0.067
		l-0.133,0.133c-0.043,0.042-0.089,0.065-0.131,0.065c0,0.043-0.023,0.066-0.066,0.066l-0.067,0.066
		c-0.042,0-0.063,0.01-0.063,0.032c0,0.021-0.025,0.031-0.068,0.031h-0.066l-0.136,0.135c-0.174,0.088-0.33,0.154-0.462,0.198
		c-0.133,0.044-0.309,0.089-0.531,0.134c-0.175,0.042-0.441,0.065-0.797,0.065c-0.266,0-0.463-0.023-0.596-0.065h-0.133h-0.068
		c-0.042,0-0.068-0.022-0.068-0.065h-0.264v-0.067h-0.131c-0.18-0.089-0.289-0.133-0.334-0.133c-0.043,0-0.066-0.022-0.066-0.065
		h-0.064c-0.045,0-0.067-0.022-0.067-0.065c-0.043,0-0.088-0.023-0.132-0.068c-0.043,0-0.067-0.021-0.067-0.063h-0.063
		c-0.047,0-0.068-0.015-0.068-0.033c0-0.023-0.023-0.033-0.066-0.033c-0.488-0.354-0.886-0.774-1.193-1.264v-0.064
		c-0.047,0-0.068-0.022-0.068-0.065l-0.068-0.067v-0.065c-0.043-0.044-0.064-0.089-0.064-0.133c0-0.045-0.021-0.089-0.068-0.133
		l-11.355-26.236v24.708c0,1.108-0.387,2.049-1.161,2.823c-0.776,0.773-1.717,1.161-2.823,1.161c-1.107,0-2.05-0.388-2.822-1.161
		c-0.775-0.774-1.164-1.715-1.164-2.823V358.36v-0.267v-0.199v-0.065v-0.131l0.065-0.068v-0.065v-0.133v-0.066
		c0.044-0.043,0.068-0.088,0.068-0.133v-0.066c0-0.042,0.011-0.064,0.034-0.064c0.02,0,0.031-0.022,0.031-0.067
		c0-0.043,0.01-0.075,0.034-0.099c0.023-0.022,0.034-0.055,0.034-0.102c0-0.042,0.009-0.077,0.032-0.1
		c0.021-0.021,0.036-0.055,0.036-0.1s0.007-0.067,0.029-0.067c0.024,0,0.035-0.021,0.035-0.065v-0.066l0.131-0.131
		c0-0.045,0.01-0.067,0.034-0.067c0.021,0,0.034-0.021,0.034-0.066l0.066-0.065v-0.065c0.041-0.045,0.064-0.089,0.064-0.134h0.068
		c0-0.044,0.01-0.067,0.033-0.067c0.021,0,0.03-0.021,0.03-0.065h0.068c0-0.045,0.021-0.088,0.065-0.133l0.133-0.134v-0.064
		c0.045,0,0.089-0.023,0.132-0.066v-0.065c0.044,0,0.089-0.021,0.132-0.066h0.068l0.134-0.133l0.13-0.133h0.068
		c0-0.045,0.02-0.067,0.063-0.067c0.045,0,0.067-0.01,0.067-0.032c0-0.021,0.021-0.033,0.068-0.033h0.063l0.133-0.133
		c0.312-0.176,0.621-0.287,0.933-0.332h0.063c0.226-0.043,0.558-0.064,0.997-0.064h0.201h0.066l0.064,0.064h0.135h0.064h0.133
		c0,0.045,0.023,0.067,0.068,0.067h0.133h0.064c0,0.043,0.045,0.065,0.131,0.065c0.047,0.045,0.112,0.064,0.201,0.064
		c0.043,0.046,0.09,0.066,0.133,0.066h0.069c0,0.043,0.04,0.066,0.131,0.066v0.066c0.087,0,0.134,0.023,0.134,0.066h0.065
		c0.042,0,0.065,0.01,0.065,0.032s0.021,0.032,0.066,0.032l0.064,0.068l0.067,0.064l0.067,0.066h0.066
		c0.043,0.044,0.086,0.066,0.131,0.066v0.065c0.045,0,0.068,0.011,0.068,0.032c0,0.023,0.02,0.035,0.066,0.035v0.064
		c0.043,0,0.064,0.012,0.064,0.033c0,0.023,0.024,0.033,0.067,0.033v0.064l0.132,0.135l0.133,0.133l0.133,0.133
		c0,0.045,0.021,0.089,0.064,0.134c0.047,0,0.068,0.021,0.068,0.065c0,0.043,0.021,0.065,0.064,0.065
		c0,0.091,0.025,0.134,0.068,0.134v0.065c0.043,0.045,0.064,0.09,0.064,0.133h0.067c0,0.089,0.011,0.144,0.035,0.166
		c0.021,0.022,0.032,0.056,0.032,0.101l11.355,26.235v-24.709c0-1.104,0.385-2.048,1.161-2.821
		C231.483,354.699,232.426,354.312,233.534,354.312z"/>
	<path fill="#8FA60D" d="M267.905,399.376c0.775,0.774,1.162,1.716,1.162,2.822c0,1.105-0.387,2.049-1.162,2.823
		c-0.778,0.772-1.717,1.161-2.822,1.161h-16.271c-1.106,0-2.052-0.389-2.823-1.161c-0.78-0.774-1.163-1.718-1.163-2.823v-43.97
		c0-1.104,0.383-2.047,1.163-2.822c0.771-0.773,1.716-1.164,2.823-1.164h16.271c1.105,0,2.044,0.391,2.822,1.164
		c0.775,0.775,1.162,1.718,1.162,2.822c0,1.15-0.387,2.104-1.162,2.854c-0.778,0.755-1.717,1.129-2.822,1.129h-12.289v16.739h8.503
		c1.104,0,2.047,0.388,2.824,1.162c0.771,0.772,1.163,1.716,1.163,2.822s-0.393,2.047-1.163,2.822
		c-0.776,0.774-1.718,1.162-2.824,1.162h-8.503v11.292h12.289C266.188,398.214,267.127,398.602,267.905,399.376z"/>
</g>
<g>
	<path fill="#8FA60D" d="M318.261,182.219c0,30.103-22.747,64.62-46.394,85.656c-31.038,27.605-75.727,37.361-115.234,37.361
		c-46.922,0-88.196-8.809-118.534-40.93c-14.539-15.397-32.121-43.34-32.121-66.03c0-69.615,81.044-145.123,150.655-145.123
		c39.518,0,91.338,15.893,122.371,45.195C302.64,120.663,318.261,152.125,318.261,182.219z"/>
	<polygon fill="#697E09" points="242.052,175.094 237.468,168.244 232.559,174.188 222.296,174.707 228.47,183.214 223.315,189.922 
		236.573,188.15 242.82,183.694 247.725,178.947 251.295,175.094 	"/>
	<path fill="#809605" d="M70.616,113.156l31.677-21.356l22.303-10.263c0,0,30.782-7.586,49.074-5.798
		c18.293,1.782,36.136,6.692,36.136,6.692l24.091,11.88l29.444,15.778l-15.616-5.801l-20.075-4.906l-12.49-3.124l-5.354,5.801
		l-20.969-12.046c0,0-30.782-0.891-32.565,0.892c-1.782,1.786-30.782,0-30.782,0l-17.398,7.586l-21.414,8.03l-16.954,7.137"/>
	<path fill="#4C2903" d="M302.607,178.794c0,0-8.929,5.346-8.484,10.256c0.449,4.908-0.476,8.479-0.016,10.262
		c0.465,1.783,4.601,4.951,4.601,4.951l-0.419-4.951l2.976-14.277L302.607,178.794z"/>
	<path fill="#846606" d="M308.646,191.86c-2.144,7.845-6.29,13.543-9.259,12.732c-2.975-0.815-3.645-7.831-1.501-15.673
		s6.289-13.541,9.265-12.73C310.12,177,310.79,184.015,308.646,191.86z"/>
	<path fill="#697E09" d="M295.017,158.267l-1.04-13.383c0,0-8.997-4.685-9.667-9.369c-0.669-4.684-5.354-12.045-5.354-12.045
		l-13.383-6.023l0.889,4.686l5.803,4.684l6.691,12.045l5.354,3.346l6.023,12.715l2.007,6.691L295.017,158.267z"/>
	<polygon fill="#697E09" points="121.699,138.192 127.555,131.056 137.76,138.192 136.756,144.214 141.439,149.903 138.873,159.162 
		131.736,146.222 128.391,138.861 	"/>
	<polygon fill="#809605" points="103.187,134.578 109.654,128.801 115.342,133.277 125.154,133.724 129.614,137.303 
		129.614,146.222 118.798,138.094 110.323,138.094 	"/>
	<path fill="#809605" d="M133.964,156.931l6.174-0.891c0,0,3.194,11.151,5.871,11.151s-1.782,3.57-1.782,3.57l-8.03-8.924
		L133.964,156.931z"/>
	<polygon fill="#C9DB6D" points="86.901,148.899 105.639,154.252 116.121,170.762 117.015,189.05 114.511,202.433 113.267,211.802 
		110.992,219.832 83.456,223.178 61.473,229.201 51.436,211.007 41.397,204.263 43.405,199.756 38.135,187.042 40.729,176.111 
		52.104,154.252 60.124,149.103 	"/>
	<polygon fill="#809605" points="263.341,217.602 247.28,193.958 227.205,175.222 208.468,170.762 187.498,181.019 160.731,191.283 
		137.979,197.974 120.58,209.669 93.369,217.602 69.723,219.388 58.571,227.863 54.557,242.14 71.511,268.014 113.444,269.797 
		159.843,272.027 179.468,275.6 220.957,268.457 247.725,255.074 266.462,245.706 	"/>
	<path fill="#809605" d="M84.669,144.439c0,0-35.686,1.783-38.42,12.992c-1.595,6.535-8.114,14.806-8.114,14.806l3.305,9.41
		l1.317,6.044l1.997-11.591l4.183-10.478l6.514,1.344l-0.894-8.699l6.916-1.673l5.798-3.681l8.255,1.117L84.669,144.439z"/>
	<path fill="#697E09" d="M261.558,200.651l2.677,11.151l0.826,26.098l-23.578,13.255l-31.749,17.938h-43.199l-34.128-5.894
		l-50.858,2.74l-48.181-37.105c0,0-5.364-37.828-7.361-43.818c-2.677-8.031-4.015-26.756-4.015-26.756l20.295-45.111
		c0,0-21.283,23.677-31.942,56.255c-10.66,32.582,2.054,55.875,2.054,55.875s16.542,37.442,46.305,56.373
		c29.763,18.932,72.889,22.882,81.436,23.583c8.554,0.697,48.715,5.182,93.545-14.014c0,0,39.653-16.518,62.317-50.421
		c0,0-7.675-25.651-11.69-26.32c-4.015-0.669-26.767-26.101-26.767-26.101L261.558,200.651z"/>
	<polygon fill="#C9DB6D" points="223.614,156.041 227.194,144.214 235.345,132.838 244.201,136.853 251.266,140.869 
		242.806,146.222 233.21,152.914 223.614,163.402 	"/>
	<polygon fill="#C9DB6D" points="244.614,157.598 249.688,152.245 256.562,152.914 249.061,157.598 244.614,160.945 	"/>
	<path fill="#C9DB6D" d="M285.623,121.018l3.991,5.578v3.565l2.701,2.677l2.691,5.354l1.621,4.465c0,0,1.049-12.048-1.629-12.495
		C292.323,129.717,285.623,121.018,285.623,121.018z"/>
	<path fill="#C9DB6D" d="M274.497,142.657l2.677,8.475l3.121,3.571l1.338,6.91l4.016,4.685l2.232,5.804l1.338-6.248l-3.57-10.707
		c0,0-2.677-5.351-5.798-10.037c-3.126-4.685-8.03-7.586-8.03-7.586L274.497,142.657z"/>
</g>
<path fill="#8FA60D" d="M318.261,182.219c0,30.103-22.747,64.62-46.394,85.656c-31.038,27.605-75.727,37.361-115.234,37.361
	c-46.922,0-88.196-8.809-118.534-40.93c-14.539-15.397-32.121-43.34-32.121-66.03c0-69.615,81.044-145.123,150.655-145.123
	c39.518,0,91.338,15.893,122.371,45.195C302.64,120.663,318.261,152.125,318.261,182.219z"/>
<g>
	<path fill="#697E09" d="M73.12,166.791c0.02,0.098,0.02,0.186,0,0.263v0.146c-0.078,1.345-0.468,2.446-1.17,3.305
		c-0.858,1.093-2.076,1.765-3.656,2.019c-0.37,0.078-0.809,0.116-1.315,0.116h-0.146h-0.117c-0.409,0-0.819-0.029-1.229-0.087
		c-1.638-0.273-2.896-0.955-3.772-2.048c-0.78-1.014-1.17-2.34-1.17-3.978c0-2.885,0.682-5.021,2.047-6.405l0.059-0.059
		c-0.39-0.486-0.692-1.102-0.906-1.842c-0.098-0.41-0.176-0.868-0.234-1.375s-0.088-1.092-0.088-1.755v-0.234
		c0-0.194,0.005-0.447,0.015-0.76c0.011-0.312,0.06-0.653,0.146-1.023s0.214-0.751,0.38-1.142c0.166-0.39,0.404-0.76,0.717-1.11
		c0.331-0.371,0.818-0.736,1.462-1.098c0.644-0.36,1.501-0.541,2.574-0.541h0.117h0.146c1.072,0,1.925,0.181,2.559,0.541
		c0.634,0.361,1.116,0.727,1.448,1.098c0.312,0.351,0.556,0.721,0.73,1.11c0.176,0.391,0.308,0.771,0.395,1.142
		c0.088,0.37,0.138,0.711,0.146,1.023c0.01,0.312,0.016,0.565,0.016,0.76c0,0.118-0.011,0.195-0.029,0.234
		c0,0.663-0.024,1.248-0.073,1.755s-0.132,0.965-0.249,1.375c-0.215,0.74-0.507,1.355-0.877,1.842l0.058,0.059
		c1.346,1.365,2.019,3.5,2.019,6.405V166.791z M69.61,166.527c0-1.91-0.342-3.236-1.023-3.978c-0.391-0.39-0.975-0.644-1.755-0.76
		c-0.8,0.116-1.375,0.37-1.726,0.76c-0.701,0.741-1.053,2.067-1.053,3.978v0.117c0.019,0.078,0.058,0.254,0.117,0.526
		c0.058,0.273,0.185,0.556,0.38,0.849c0.37,0.604,0.906,0.965,1.608,1.082c0.098,0,0.205,0.005,0.322,0.015
		c0.116,0.01,0.233,0.015,0.351,0.015c0.136,0,0.268-0.005,0.395-0.015s0.239-0.024,0.337-0.044
		c0.721-0.117,1.267-0.478,1.638-1.082c0.136-0.234,0.234-0.463,0.292-0.688c0.059-0.224,0.098-0.385,0.117-0.482V166.527z
		 M64.932,155.238c0,0.526,0.022,0.955,0.072,1.287c0.049,0.331,0.098,0.595,0.146,0.789c0.048,0.195,0.098,0.337,0.146,0.424
		c0.048,0.088,0.083,0.143,0.103,0.161c0.116,0.099,0.311,0.161,0.584,0.19s0.557,0.054,0.849,0.073
		c0.312-0.02,0.604-0.044,0.878-0.073c0.271-0.029,0.457-0.092,0.556-0.19c0.019-0.019,0.058-0.073,0.116-0.161
		c0.059-0.087,0.111-0.238,0.16-0.453c0.05-0.215,0.094-0.502,0.132-0.862c0.039-0.361,0.06-0.823,0.06-1.39
		c0-0.039,0.01-0.068,0.029-0.087v-0.147h-0.029l0.029-0.029c-0.02-0.194-0.064-0.452-0.132-0.774
		c-0.068-0.322-0.21-0.59-0.424-0.805c-0.059-0.059-0.187-0.15-0.381-0.277c-0.195-0.127-0.526-0.2-0.994-0.22
		c-0.449,0.02-0.771,0.093-0.966,0.22c-0.194,0.127-0.321,0.219-0.38,0.277c-0.214,0.215-0.36,0.482-0.438,0.805
		s-0.116,0.58-0.116,0.774v0.029C64.95,154.955,64.95,155.102,64.932,155.238z"/>
	<path fill="#697E09" d="M75.167,168.283c0.488,0,0.902,0.17,1.244,0.511c0.341,0.342,0.512,0.756,0.512,1.243
		c0,0.508-0.171,0.932-0.512,1.272c-0.342,0.342-0.756,0.512-1.244,0.512c-0.507,0-0.932-0.17-1.271-0.512
		c-0.341-0.341-0.512-0.765-0.512-1.272c0-0.487,0.171-0.901,0.512-1.243C74.235,168.453,74.66,168.283,75.167,168.283z"/>
	<path fill="#697E09" d="M88.606,169.408c0.341,0.342,0.512,0.756,0.512,1.243s-0.171,0.902-0.512,1.243s-0.756,0.512-1.243,0.512
		h-7.604c-0.486,0-0.901-0.171-1.242-0.512s-0.513-0.756-0.513-1.243s0.172-0.901,0.513-1.243c0.341-0.341,0.756-0.512,1.242-0.512
		h2.107v-13.337l-0.731,0.731c-0.333,0.332-0.742,0.497-1.229,0.497s-0.906-0.165-1.257-0.497c-0.333-0.352-0.497-0.771-0.497-1.258
		s0.164-0.896,0.497-1.228l3.714-3.715c0.253-0.253,0.556-0.414,0.906-0.483c0.352-0.068,0.691-0.033,1.024,0.104
		c0.331,0.136,0.595,0.351,0.79,0.643c0.193,0.292,0.292,0.614,0.292,0.966v17.577h1.988
		C87.851,168.896,88.266,169.067,88.606,169.408z"/>
	<path fill="#697E09" d="M103.917,164.187c0.215,1.132,0.205,2.242-0.028,3.335c-0.137,0.604-0.332,1.174-0.585,1.71
		c-0.254,0.537-0.576,1.02-0.967,1.448c-0.291,0.332-0.613,0.624-0.964,0.878c-0.352,0.254-0.722,0.457-1.112,0.613
		c-0.74,0.293-1.52,0.438-2.34,0.438h-0.467c-1.307-0.077-2.467-0.478-3.48-1.199c-0.976-0.682-1.755-1.617-2.34-2.808
		c-0.917-1.949-1.306-4.436-1.17-7.457c0-1.131,0.126-2.165,0.38-3.101c0.254-0.937,0.58-1.77,0.979-2.501s0.838-1.374,1.316-1.93
		c0.478-0.556,0.951-1.029,1.419-1.419c0.487-0.409,0.965-0.761,1.433-1.053s0.893-0.531,1.272-0.717
		c0.381-0.185,0.692-0.321,0.937-0.41c0.243-0.087,0.395-0.141,0.452-0.16c0.312-0.098,0.614-0.127,0.907-0.088
		c0.253,0.04,0.506,0.137,0.76,0.293s0.459,0.429,0.615,0.819c0.155,0.409,0.175,0.76,0.058,1.052
		c-0.116,0.293-0.272,0.537-0.468,0.731c-0.214,0.215-0.497,0.399-0.848,0.556c-0.293,0.098-0.604,0.225-0.936,0.38
		c-0.274,0.138-0.585,0.317-0.937,0.541c-0.351,0.225-0.712,0.493-1.083,0.806c-1.734,1.521-2.642,3.44-2.72,5.761
		c0.449-0.312,0.989-0.574,1.624-0.789c0.634-0.215,1.369-0.322,2.208-0.322c0.663,0,1.258,0.068,1.784,0.205
		s0.994,0.317,1.403,0.541c0.41,0.225,0.761,0.468,1.053,0.73c0.293,0.264,0.546,0.522,0.761,0.776
		c0.39,0.525,0.658,1.014,0.805,1.462S103.878,164.051,103.917,164.187z M99.706,168.34c0.352-0.39,0.6-0.911,0.746-1.565
		c0.146-0.652,0.15-1.291,0.014-1.915v-0.029c-0.02-0.039-0.062-0.146-0.131-0.322c-0.069-0.175-0.19-0.369-0.365-0.584
		c-0.469-0.546-1.181-0.819-2.136-0.819c-1.015,0-1.843,0.332-2.486,0.994c-0.233,0.254-0.404,0.493-0.513,0.717
		c-0.106,0.225-0.17,0.356-0.189,0.396s-0.043,0.131-0.072,0.277s-0.034,0.317-0.015,0.512c0,0.156,0.033,0.356,0.103,0.6
		c0.067,0.244,0.131,0.424,0.189,0.541c0,0.039,0.01,0.068,0.029,0.088c0.584,1.17,1.521,1.794,2.808,1.872
		C98.546,169.16,99.219,168.907,99.706,168.34z"/>
	<path fill="#697E09" d="M132.375,166.498c0,0.059-0.005,0.249-0.015,0.57c-0.01,0.322-0.059,0.702-0.146,1.142
		c-0.088,0.438-0.239,0.911-0.453,1.418c-0.215,0.508-0.526,0.976-0.937,1.403c-0.331,0.371-0.823,0.731-1.476,1.082
		c-0.654,0.352-1.497,0.526-2.531,0.526c-1.033,0-1.867-0.175-2.501-0.526c-0.633-0.351-1.115-0.711-1.447-1.082
		c-0.39-0.428-0.692-0.887-0.906-1.374c-0.215-0.487-0.366-0.951-0.454-1.39c-0.087-0.438-0.131-0.828-0.131-1.17
		c0-0.341,0-0.58,0-0.716V155.15c0-1.189,0.194-2.14,0.585-2.852c0.39-0.712,0.789-1.263,1.199-1.653
		c0.487-0.448,1.043-0.794,1.666-1.038c0.624-0.243,1.278-0.365,1.961-0.365c0.662,0,1.33,0.117,2.003,0.352
		c0.673,0.233,1.272,0.595,1.799,1.081c0.525,0.488,0.955,1.103,1.287,1.844c0.331,0.74,0.497,1.618,0.497,2.632
		c0,0.507-0.171,0.927-0.512,1.257c-0.342,0.333-0.756,0.498-1.243,0.498s-0.902-0.165-1.243-0.498
		c-0.341-0.33-0.512-0.75-0.512-1.257c0-0.526-0.073-0.945-0.22-1.258c-0.146-0.312-0.321-0.551-0.526-0.716
		c-0.205-0.166-0.429-0.278-0.673-0.337c-0.243-0.059-0.463-0.088-0.657-0.088c-0.137,0-0.312,0.024-0.526,0.073
		c-0.215,0.049-0.425,0.156-0.629,0.322c-0.205,0.165-0.381,0.404-0.527,0.716c-0.146,0.312-0.219,0.741-0.219,1.287v11.289v0.146
		c0,0.098,0,0.229,0,0.395c0,0.166,0.019,0.352,0.058,0.556c0.039,0.205,0.099,0.409,0.176,0.614s0.185,0.376,0.322,0.513
		c0.059,0.059,0.185,0.151,0.38,0.277c0.195,0.127,0.526,0.19,0.994,0.19c0.507,0,0.858-0.063,1.053-0.19
		c0.195-0.126,0.322-0.229,0.381-0.308c0.272-0.272,0.443-0.613,0.512-1.023c0.068-0.409,0.103-0.711,0.103-0.906
		c0-0.02,0-0.127,0-0.321c0-0.195,0.048-0.404,0.146-0.629s0.259-0.434,0.483-0.629c0.224-0.195,0.55-0.303,0.979-0.322
		c0.449-0.019,0.794,0.059,1.038,0.234s0.434,0.37,0.57,0.585C132.238,165.875,132.336,166.167,132.375,166.498z"/>
	<path fill="#697E09" d="M145.696,169.35c0.342,0.341,0.513,0.756,0.513,1.242c0,0.488-0.171,0.902-0.513,1.243
		c-0.341,0.341-0.756,0.512-1.242,0.512h-7.166c-0.487,0-0.902-0.171-1.243-0.512s-0.512-0.755-0.512-1.243v-19.361
		c0-0.487,0.171-0.901,0.512-1.243c0.341-0.341,0.756-0.513,1.243-0.513h7.166c0.486,0,0.901,0.172,1.242,0.513
		c0.342,0.342,0.513,0.756,0.513,1.243c0,0.507-0.171,0.926-0.513,1.258c-0.341,0.331-0.756,0.497-1.242,0.497h-5.412v7.37h3.744
		c0.488,0,0.902,0.171,1.244,0.512c0.341,0.342,0.512,0.756,0.512,1.243s-0.171,0.902-0.512,1.243
		c-0.342,0.341-0.756,0.512-1.244,0.512h-3.744v4.972h5.412C144.94,168.837,145.355,169.008,145.696,169.35z"/>
	<path fill="#697E09" d="M159.312,149.504c0.486,0,0.901,0.172,1.243,0.512c0.34,0.342,0.512,0.757,0.512,1.244v19.332v0.117v0.088
		v0.029v0.059l-0.03,0.029v0.028v0.059v0.029c-0.019,0.021-0.029,0.039-0.029,0.059v0.029c0,0.02-0.004,0.029-0.014,0.029
		c-0.011,0-0.016,0.01-0.016,0.029s-0.004,0.035-0.014,0.044c-0.011,0.011-0.015,0.024-0.015,0.044s-0.005,0.034-0.015,0.044
		s-0.015,0.024-0.015,0.044s-0.005,0.029-0.015,0.029c-0.011,0-0.015,0.01-0.015,0.028v0.03c-0.02,0-0.029,0.01-0.029,0.029
		l-0.029,0.029c0,0.02-0.011,0.039-0.028,0.059l-0.029,0.028v0.03c-0.021,0-0.03,0.01-0.03,0.029c0,0.019-0.01,0.028-0.029,0.028
		c0,0.02-0.005,0.029-0.014,0.029c-0.011,0-0.015,0.011-0.015,0.029h-0.029c0,0.02-0.011,0.04-0.029,0.059l-0.06,0.059l-0.059,0.059
		l-0.059,0.059h-0.028l-0.059,0.059c-0.02,0.019-0.04,0.029-0.059,0.029c0,0.019-0.01,0.029-0.029,0.029l-0.029,0.028
		c-0.02,0-0.029,0.005-0.029,0.016c0,0.009-0.01,0.014-0.029,0.014h-0.029l-0.059,0.059c-0.078,0.039-0.146,0.068-0.204,0.088
		c-0.06,0.02-0.137,0.039-0.234,0.059c-0.078,0.02-0.196,0.029-0.351,0.029c-0.117,0-0.205-0.01-0.264-0.029h-0.059h-0.029
		c-0.019,0-0.029-0.01-0.029-0.029h-0.116v-0.029h-0.059c-0.079-0.039-0.128-0.059-0.146-0.059c-0.021,0-0.029-0.01-0.029-0.029
		h-0.029c-0.02,0-0.03-0.01-0.03-0.029c-0.019,0-0.038-0.01-0.058-0.029c-0.02,0-0.029-0.01-0.029-0.029h-0.029
		c-0.02,0-0.029-0.005-0.029-0.014c0-0.011-0.01-0.015-0.028-0.015c-0.216-0.156-0.391-0.341-0.527-0.556V171.5
		c-0.02,0-0.029-0.01-0.029-0.029l-0.029-0.029v-0.03c-0.019-0.019-0.029-0.038-0.029-0.058s-0.01-0.039-0.029-0.059l-5.001-11.553
		v10.88c0,0.487-0.171,0.902-0.512,1.243s-0.756,0.512-1.243,0.512s-0.902-0.171-1.243-0.512s-0.513-0.756-0.513-1.243V151.29
		v-0.117v-0.088v-0.029v-0.059l0.03-0.029v-0.029v-0.058v-0.029c0.02-0.02,0.029-0.039,0.029-0.059v-0.03
		c0-0.019,0.005-0.028,0.015-0.028s0.015-0.01,0.015-0.03c0-0.019,0.005-0.033,0.016-0.043c0.009-0.01,0.014-0.024,0.014-0.044
		s0.005-0.034,0.015-0.044s0.015-0.024,0.015-0.044s0.005-0.029,0.015-0.029s0.015-0.01,0.015-0.029v-0.029l0.059-0.059
		c0-0.019,0.005-0.029,0.015-0.029c0.009,0,0.015-0.009,0.015-0.029l0.029-0.029v-0.029c0.019-0.019,0.029-0.039,0.029-0.059h0.029
		c0-0.019,0.004-0.028,0.014-0.028c0.011,0,0.015-0.011,0.015-0.029h0.029c0-0.02,0.011-0.039,0.029-0.059l0.059-0.059v-0.029
		c0.02,0,0.039-0.01,0.059-0.029v-0.029c0.02,0,0.039-0.009,0.059-0.029h0.029l0.059-0.059l0.059-0.059h0.029
		c0-0.019,0.01-0.029,0.029-0.029s0.029-0.004,0.029-0.015c0-0.009,0.009-0.014,0.029-0.014h0.029l0.059-0.059
		c0.135-0.078,0.272-0.127,0.409-0.147h0.029c0.097-0.019,0.243-0.029,0.438-0.029h0.088h0.029l0.028,0.029h0.06h0.029h0.059
		c0,0.021,0.009,0.03,0.029,0.03h0.059h0.029c0,0.02,0.018,0.029,0.058,0.029c0.019,0.02,0.049,0.029,0.088,0.029
		c0.02,0.02,0.039,0.029,0.058,0.029h0.029c0,0.02,0.021,0.029,0.06,0.029v0.029c0.038,0,0.059,0.009,0.059,0.029h0.029
		c0.019,0,0.029,0.005,0.029,0.014c0,0.011,0.009,0.015,0.029,0.015l0.028,0.029l0.029,0.029l0.029,0.029H152
		c0.019,0.02,0.038,0.029,0.058,0.029v0.029c0.02,0,0.029,0.005,0.029,0.015s0.01,0.015,0.029,0.015v0.029
		c0.02,0,0.029,0.005,0.029,0.015s0.01,0.015,0.029,0.015v0.029l0.059,0.059l0.059,0.059l0.059,0.058c0,0.02,0.01,0.04,0.028,0.059
		c0.021,0,0.029,0.011,0.029,0.029c0,0.02,0.011,0.029,0.03,0.029c0,0.04,0.009,0.059,0.029,0.059v0.029
		c0.019,0.02,0.029,0.039,0.029,0.059h0.029c0,0.039,0.004,0.063,0.014,0.073s0.016,0.024,0.016,0.044l5.001,11.553v-10.88
		c0-0.487,0.171-0.902,0.512-1.244C158.409,149.676,158.824,149.504,159.312,149.504z"/>
	<path fill="#697E09" d="M174.798,150.032c0.34,0.332,0.512,0.751,0.512,1.258c0,0.487-0.172,0.902-0.512,1.242
		c-0.342,0.342-0.757,0.513-1.243,0.513h-2.72v17.548c0,0.488-0.171,0.902-0.512,1.243c-0.343,0.341-0.756,0.512-1.244,0.512
		c-0.487,0-0.901-0.171-1.242-0.512c-0.342-0.341-0.513-0.755-0.513-1.243v-17.548h-2.778c-0.487,0-0.901-0.171-1.242-0.513
		c-0.342-0.34-0.513-0.755-0.513-1.242c0-0.507,0.171-0.926,0.513-1.258c0.341-0.331,0.755-0.498,1.242-0.498h9.009
		C174.041,149.534,174.456,149.701,174.798,150.032z"/>
	<path fill="#697E09" d="M179.17,149.504c0.507,0,0.925,0.172,1.257,0.512c0.331,0.342,0.498,0.757,0.498,1.244v19.361
		c0,0.487-0.167,0.902-0.498,1.243c-0.332,0.341-0.75,0.512-1.257,0.512c-0.488,0-0.903-0.171-1.243-0.512
		c-0.342-0.341-0.512-0.756-0.512-1.243V151.26c0-0.487,0.17-0.902,0.512-1.244C178.267,149.676,178.682,149.504,179.17,149.504z"/>
	<path fill="#697E09" d="M198.122,170.622c0,0.487-0.172,0.902-0.512,1.243c-0.342,0.341-0.757,0.512-1.243,0.512
		c-0.487,0-0.902-0.171-1.243-0.512c-0.342-0.341-0.512-0.756-0.512-1.243v-12.05l-1.843,3.627
		c-0.156,0.429-0.438,0.741-0.849,0.936c-0.234,0.116-0.479,0.176-0.731,0.176h-0.029h-0.028h-0.029h-0.029
		c-0.254,0-0.497-0.06-0.731-0.176c-0.409-0.194-0.692-0.507-0.848-0.936l-1.843-3.627v12.05c0,0.487-0.171,0.902-0.512,1.243
		c-0.342,0.341-0.756,0.512-1.244,0.512c-0.486,0-0.901-0.171-1.242-0.512c-0.342-0.341-0.512-0.756-0.512-1.243V151.26v-0.088
		v-0.088v-0.029v-0.029c0-0.019,0.005-0.029,0.015-0.029c0.009,0,0.015-0.01,0.015-0.029v-0.029v-0.058
		c0-0.021,0.005-0.034,0.014-0.045c0.011-0.01,0.016-0.023,0.016-0.043c0.02-0.118,0.059-0.225,0.116-0.322
		c0-0.02,0.005-0.029,0.016-0.029c0.009,0,0.015-0.01,0.015-0.029l0.029-0.029l0.029-0.029c0-0.019,0.009-0.039,0.029-0.059v-0.029
		l0.058-0.059c0.039-0.039,0.073-0.077,0.103-0.116s0.062-0.078,0.103-0.117l0.058-0.059h0.029c0-0.019,0.006-0.029,0.016-0.029
		s0.014-0.01,0.014-0.029h0.029c0.02-0.019,0.039-0.029,0.059-0.029c0-0.019,0.01-0.029,0.03-0.029l0.029-0.029l0.058-0.028
		c0.02-0.021,0.039-0.029,0.059-0.029l0.029-0.029c0.02,0,0.039-0.01,0.059-0.029c0.02,0,0.033-0.005,0.044-0.015
		c0.011-0.011,0.024-0.015,0.044-0.015s0.033-0.005,0.044-0.016c0.01-0.009,0.024-0.014,0.044-0.014c0.019,0,0.039-0.01,0.059-0.029
		h0.029h0.058l0.029-0.03h0.029h0.06h0.028c0.02-0.019,0.039-0.029,0.06-0.029h0.029h0.087h0.087h0.089h0.058h0.029
		c0.02,0,0.039,0.011,0.06,0.029h0.059h0.028h0.059c0.078,0.04,0.146,0.064,0.205,0.073c0.059,0.011,0.117,0.035,0.175,0.074h0.029
		c0,0.02,0.02,0.029,0.059,0.029c0,0.019,0.01,0.029,0.029,0.029l0.029,0.028c0.02,0,0.038,0.011,0.06,0.029l0.059,0.059h0.028
		c0.098,0.059,0.175,0.137,0.234,0.234l0.058,0.059l0.059,0.058c0,0.02,0.006,0.029,0.015,0.029c0.01,0,0.015,0.011,0.015,0.029
		l0.029,0.029l0.029,0.029c0,0.021,0.01,0.04,0.029,0.059c0,0.021,0.004,0.034,0.015,0.044c0.01,0.011,0.016,0.024,0.016,0.044
		l3.685,7.225l3.685-7.225c0-0.039,0.01-0.067,0.029-0.088c0.021-0.019,0.029-0.038,0.029-0.059c0.02,0,0.029-0.01,0.029-0.029
		l0.029-0.029c0-0.019,0.01-0.039,0.029-0.059l0.059-0.058l0.059-0.059c0.059-0.098,0.136-0.176,0.233-0.234l0.059-0.059h0.029
		c0.02-0.019,0.039-0.029,0.059-0.029l0.029-0.028c0.02,0,0.03-0.011,0.03-0.029c0.038,0,0.058-0.01,0.058-0.029h0.029
		c0.038-0.039,0.088-0.063,0.146-0.074c0.059-0.009,0.107-0.023,0.146-0.043c0.039,0,0.069-0.01,0.088-0.03h0.058h0.03h0.059
		c0-0.019,0.01-0.029,0.029-0.029h0.059h0.059h0.088h0.087h0.088c0.039,0,0.068,0.011,0.088,0.029h0.059h0.059l0.028,0.03h0.06
		h0.029l0.059,0.029c0.02,0,0.033,0.005,0.044,0.014c0.01,0.011,0.024,0.016,0.044,0.016c0.019,0,0.039,0.01,0.059,0.029h0.029
		c0.018,0.02,0.039,0.029,0.058,0.029v0.029c0.039,0,0.068,0.009,0.089,0.029c0.019,0.019,0.038,0.028,0.058,0.028l0.029,0.029
		l0.028,0.029c0.02,0,0.039,0.011,0.06,0.029l0.059,0.059c0.038,0,0.059,0.021,0.059,0.059c0.097,0.059,0.175,0.137,0.233,0.233
		l0.059,0.059v0.029c0.019,0.02,0.029,0.04,0.029,0.059c0.019,0,0.029,0.011,0.029,0.029l0.029,0.029c0,0.02,0.01,0.039,0.029,0.059
		c0.038,0.098,0.078,0.204,0.117,0.322c0,0.039,0.01,0.067,0.028,0.088v0.058v0.029c0,0.02,0.01,0.04,0.03,0.059v0.029v0.029v0.088
		v0.088V170.622z"/>
	<path fill="#697E09" d="M211.386,169.35c0.341,0.341,0.512,0.756,0.512,1.242c0,0.488-0.171,0.902-0.512,1.243
		c-0.342,0.341-0.756,0.512-1.244,0.512h-7.166c-0.486,0-0.901-0.171-1.242-0.512s-0.512-0.755-0.512-1.243v-19.361
		c0-0.487,0.171-0.901,0.512-1.243c0.341-0.341,0.756-0.513,1.242-0.513h7.166c0.488,0,0.902,0.172,1.244,0.513
		c0.341,0.342,0.512,0.756,0.512,1.243c0,0.507-0.171,0.926-0.512,1.258c-0.342,0.331-0.756,0.497-1.244,0.497h-5.41v7.37h3.744
		c0.486,0,0.9,0.171,1.242,0.512c0.342,0.342,0.512,0.756,0.512,1.243s-0.17,0.902-0.512,1.243s-0.756,0.512-1.242,0.512h-3.744
		v4.972h5.41C210.63,168.837,211.044,169.008,211.386,169.35z"/>
	<path fill="#697E09" d="M225.658,150.032c0.34,0.332,0.512,0.751,0.512,1.258c0,0.487-0.172,0.902-0.512,1.242
		c-0.342,0.342-0.757,0.513-1.243,0.513h-2.721v17.548c0,0.488-0.171,0.902-0.512,1.243c-0.342,0.341-0.755,0.512-1.243,0.512
		c-0.487,0-0.902-0.171-1.242-0.512c-0.342-0.341-0.513-0.755-0.513-1.243v-17.548h-2.778c-0.487,0-0.901-0.171-1.243-0.513
		c-0.342-0.34-0.512-0.755-0.512-1.242c0-0.507,0.17-0.926,0.512-1.258c0.342-0.331,0.756-0.498,1.243-0.498h9.009
		C224.901,149.534,225.316,149.701,225.658,150.032z"/>
	<path fill="#697E09" d="M238.321,169.35c0.342,0.341,0.513,0.756,0.513,1.242c0,0.488-0.171,0.902-0.513,1.243
		s-0.756,0.512-1.242,0.512h-7.166c-0.488,0-0.902-0.171-1.243-0.512s-0.512-0.755-0.512-1.243v-19.361
		c0-0.487,0.171-0.901,0.512-1.243c0.341-0.341,0.755-0.513,1.243-0.513h7.166c0.486,0,0.9,0.172,1.242,0.513
		c0.342,0.342,0.513,0.756,0.513,1.243c0,0.507-0.171,0.926-0.513,1.258c-0.342,0.331-0.756,0.497-1.242,0.497h-5.412v7.37h3.744
		c0.486,0,0.901,0.171,1.242,0.512c0.342,0.342,0.513,0.756,0.513,1.243s-0.171,0.902-0.513,1.243
		c-0.341,0.341-0.756,0.512-1.242,0.512h-3.744v4.972h5.412C237.565,168.837,237.979,169.008,238.321,169.35z"/>
	<path fill="#697E09" d="M253.486,169.89c0.214,0.448,0.229,0.897,0.044,1.346c-0.186,0.449-0.503,0.771-0.95,0.965
		c-0.235,0.098-0.469,0.146-0.702,0.146c-0.332,0-0.645-0.093-0.937-0.277c-0.292-0.186-0.517-0.443-0.673-0.775l-3.246-7.429
		h-1.755v6.727c0,0.488-0.171,0.902-0.512,1.243c-0.342,0.341-0.757,0.512-1.243,0.512c-0.488,0-0.902-0.171-1.242-0.512
		c-0.342-0.341-0.513-0.755-0.513-1.243V151.29c0-0.487,0.171-0.902,0.513-1.243c0.34-0.341,0.754-0.513,1.242-0.513h4.241
		c0.74,0,1.452,0.211,2.134,0.629c0.684,0.42,1.277,1.02,1.785,1.799c0.877,1.385,1.316,2.965,1.316,4.738
		c0,0.858-0.112,1.687-0.336,2.486c-0.225,0.8-0.552,1.54-0.98,2.224c-0.195,0.291-0.4,0.555-0.614,0.789
		c-0.215,0.233-0.43,0.448-0.644,0.643L253.486,169.89z M247.754,160.356c0.098,0,0.229-0.063,0.396-0.19
		c0.164-0.126,0.354-0.346,0.57-0.657c0.252-0.391,0.442-0.829,0.569-1.316c0.126-0.487,0.19-0.984,0.19-1.492
		c0-0.507-0.064-1.009-0.19-1.506c-0.127-0.497-0.317-0.94-0.569-1.331c-0.216-0.293-0.406-0.501-0.57-0.629
		c-0.167-0.126-0.298-0.189-0.396-0.189h-2.486v7.312H247.754z"/>
	<path fill="#697E09" d="M265.771,161.642c1.149,1.443,1.725,3.13,1.725,5.061c0,0.604-0.063,1.146-0.189,1.623
		c-0.127,0.478-0.283,0.902-0.468,1.272c-0.186,0.37-0.396,0.692-0.629,0.965c-0.234,0.273-0.468,0.507-0.702,0.702
		c-1.092,0.877-2.418,1.315-3.978,1.315c-0.761,0-1.473-0.106-2.135-0.321c-0.664-0.215-1.249-0.545-1.755-0.994
		c-0.215-0.176-0.436-0.399-0.658-0.673c-0.225-0.272-0.43-0.594-0.614-0.965c-0.186-0.37-0.337-0.8-0.454-1.287
		c-0.116-0.487-0.175-1.043-0.175-1.667c0-0.487,0.171-0.902,0.512-1.243s0.756-0.512,1.242-0.512c0.508,0,0.927,0.171,1.259,0.512
		c0.331,0.341,0.496,0.756,0.496,1.243c0,0.273,0.024,0.551,0.073,0.833c0.05,0.283,0.151,0.541,0.308,0.776
		c0.156,0.232,0.385,0.423,0.688,0.569s0.706,0.22,1.214,0.22c0.351,0,0.677-0.044,0.979-0.132s0.561-0.219,0.775-0.396
		c0.468-0.409,0.701-1.022,0.701-1.842c0-0.604-0.077-1.131-0.233-1.579c-0.156-0.449-0.386-0.863-0.688-1.244
		c-0.303-0.38-0.673-0.74-1.11-1.081c-0.439-0.342-0.933-0.707-1.479-1.098c-0.507-0.351-1.008-0.717-1.506-1.097
		c-0.497-0.38-0.96-0.813-1.389-1.301c-0.508-0.624-0.893-1.272-1.155-1.945c-0.264-0.673-0.396-1.408-0.396-2.208
		c0-0.117,0.006-0.331,0.015-0.644c0.01-0.312,0.059-0.673,0.146-1.082c0.088-0.41,0.234-0.839,0.438-1.287
		c0.205-0.448,0.502-0.877,0.893-1.286c0.331-0.371,0.828-0.731,1.491-1.083c0.662-0.351,1.521-0.526,2.574-0.526
		c1.071,0,1.925,0.181,2.559,0.541c0.634,0.361,1.116,0.727,1.447,1.098c0.371,0.447,0.649,0.921,0.835,1.418
		c0.185,0.497,0.307,0.955,0.365,1.374c0.058,0.421,0.078,0.786,0.058,1.097c-0.019,0.312-0.038,0.498-0.058,0.557
		c-0.059,0.351-0.176,0.643-0.352,0.877c-0.156,0.215-0.365,0.395-0.629,0.541c-0.263,0.146-0.619,0.171-1.067,0.073
		c-0.43-0.077-0.745-0.22-0.95-0.424c-0.205-0.205-0.342-0.42-0.41-0.644c-0.068-0.225-0.098-0.424-0.087-0.6
		c0.01-0.175,0.015-0.282,0.015-0.322c0.019-0.077,0.029-0.185,0.029-0.321c0-0.136-0.016-0.282-0.044-0.438
		c-0.029-0.156-0.073-0.312-0.132-0.469c-0.06-0.155-0.137-0.292-0.234-0.409c-0.233-0.292-0.683-0.438-1.345-0.438
		c-0.527,0-0.893,0.068-1.097,0.205c-0.205,0.137-0.337,0.233-0.395,0.292c-0.138,0.137-0.24,0.293-0.309,0.469
		c-0.067,0.175-0.121,0.351-0.16,0.526c-0.039,0.175-0.063,0.326-0.072,0.453c-0.012,0.127-0.016,0.219-0.016,0.278v0.058v0.059
		c0,0.391,0.068,0.746,0.205,1.067c0.137,0.322,0.326,0.624,0.57,0.907c0.243,0.282,0.551,0.565,0.922,0.848
		c0.37,0.283,0.789,0.59,1.257,0.921c0.546,0.391,1.106,0.81,1.682,1.258C264.751,160.542,265.282,161.058,265.771,161.642z"/>
	<path fill="#697E09" d="M107.764,201.625c0,1.638-0.391,2.964-1.17,3.978c-1.111,1.423-2.866,2.135-5.265,2.135
		c-1.072,0-1.926-0.181-2.559-0.542c-0.635-0.359-1.117-0.726-1.449-1.097c-0.39-0.429-0.672-0.892-0.848-1.389
		s-0.293-0.96-0.351-1.39c-0.059-0.428-0.079-0.794-0.059-1.097c0.02-0.302,0.039-0.492,0.059-0.57
		c0.077-0.272,0.204-0.517,0.38-0.731c0.156-0.175,0.361-0.33,0.614-0.467c0.253-0.138,0.575-0.176,0.966-0.117
		c0.39,0.058,0.688,0.186,0.892,0.38s0.354,0.399,0.454,0.614c0.097,0.254,0.154,0.526,0.175,0.818
		c-0.021,0.138-0.015,0.386,0.015,0.746c0.029,0.361,0.15,0.658,0.365,0.892c0.234,0.293,0.683,0.439,1.346,0.439
		c0.604,0,1.102-0.054,1.491-0.161c0.391-0.106,0.688-0.272,0.893-0.497c0.204-0.225,0.346-0.497,0.424-0.819
		c0.078-0.321,0.117-0.696,0.117-1.125c0-1.911-0.352-3.237-1.054-3.979c-0.546-0.546-1.452-0.818-2.72-0.818
		c-0.487,0-0.901-0.171-1.242-0.513c-0.342-0.341-0.512-0.755-0.512-1.242v-0.029c0-0.507,0.17-0.926,0.512-1.258
		c0.341-0.331,0.755-0.497,1.242-0.497c0.176,0,0.385,0,0.629,0s0.482-0.01,0.717-0.029c0.234-0.019,0.448-0.048,0.644-0.088
		c0.194-0.039,0.331-0.098,0.409-0.176c0.02-0.02,0.059-0.072,0.117-0.16s0.117-0.239,0.175-0.454
		c0.06-0.214,0.107-0.501,0.146-0.862c0.039-0.36,0.059-0.824,0.059-1.39v-0.088c0.02-0.155-0.004-0.424-0.072-0.804
		s-0.23-0.697-0.483-0.95c-0.059-0.059-0.195-0.156-0.409-0.293c-0.215-0.136-0.576-0.205-1.082-0.205
		c-0.663,0-1.111,0.146-1.346,0.439c-0.215,0.233-0.336,0.531-0.365,0.892c-0.029,0.361-0.035,0.62-0.015,0.775v-0.029
		c0.019,0.312-0.021,0.595-0.117,0.848c-0.098,0.215-0.248,0.429-0.454,0.644c-0.203,0.215-0.531,0.351-0.979,0.41
		c-0.448,0.059-0.8,0.02-1.052-0.118c-0.254-0.136-0.449-0.301-0.586-0.497c-0.156-0.214-0.254-0.478-0.292-0.789
		c-0.02-0.059-0.039-0.244-0.059-0.556c-0.021-0.312,0-0.678,0.059-1.097c0.058-0.419,0.175-0.873,0.351-1.36
		s0.458-0.955,0.848-1.404c0.332-0.389,0.814-0.765,1.449-1.126c0.633-0.36,1.486-0.541,2.559-0.541s1.935,0.176,2.588,0.526
		c0.654,0.352,1.146,0.713,1.477,1.083c0.371,0.409,0.663,0.838,0.878,1.286c0.215,0.449,0.365,0.878,0.453,1.287
		c0.089,0.409,0.137,0.771,0.146,1.082c0.01,0.312,0.015,0.526,0.015,0.644c0,0.663-0.029,1.248-0.087,1.755
		c-0.059,0.508-0.138,0.965-0.235,1.375c-0.215,0.741-0.516,1.355-0.906,1.843l0.059,0.059
		C107.08,196.603,107.764,198.738,107.764,201.625z"/>
	<path fill="#697E09" d="M110.541,203.378c0.488,0,0.903,0.172,1.244,0.513s0.511,0.756,0.511,1.242c0,0.508-0.17,0.932-0.511,1.272
		s-0.756,0.512-1.244,0.512c-0.507,0-0.931-0.171-1.271-0.512s-0.512-0.765-0.512-1.272c0-0.486,0.171-0.901,0.512-1.242
		S110.034,203.378,110.541,203.378z"/>
	<path fill="#697E09" d="M123.791,201.361c0.487,0,0.901,0.171,1.243,0.512c0.341,0.341,0.512,0.756,0.512,1.243
		c0,0.546-0.044,1.093-0.132,1.638c-0.088,0.546-0.298,1.043-0.629,1.491c-0.39,0.546-0.906,0.937-1.55,1.17
		c-0.526,0.194-1.17,0.293-1.931,0.293h-5.762c-0.488,0-0.902-0.171-1.242-0.513c-0.342-0.34-0.513-0.755-0.513-1.242
		c0-1.014,0.142-1.964,0.424-2.853c0.282-0.887,0.648-1.729,1.097-2.529c0.449-0.799,0.945-1.56,1.492-2.28
		c0.546-0.723,1.092-1.414,1.638-2.077c0.429-0.527,0.839-1.043,1.229-1.55c0.389-0.507,0.741-1.009,1.053-1.507
		c0.312-0.497,0.561-0.989,0.746-1.477s0.278-0.976,0.278-1.462V190.1c0.019-0.156-0.006-0.419-0.074-0.789
		s-0.219-0.692-0.452-0.966c-0.06-0.058-0.195-0.15-0.41-0.277s-0.575-0.189-1.082-0.189c-0.683,0-1.142,0.136-1.375,0.409
		c-0.215,0.253-0.337,0.57-0.365,0.95c-0.029,0.38-0.034,0.609-0.016,0.688c0.078,0.487-0.028,0.926-0.321,1.315
		c-0.292,0.391-0.683,0.615-1.169,0.673c-0.488,0.078-0.922-0.029-1.302-0.322c-0.381-0.292-0.61-0.682-0.688-1.169
		c0-0.059-0.01-0.243-0.029-0.556c-0.021-0.312,0-0.678,0.059-1.097c0.058-0.419,0.171-0.873,0.336-1.36s0.443-0.955,0.834-1.404
		c0.331-0.389,0.818-0.76,1.462-1.11c0.644-0.352,1.502-0.527,2.574-0.527c1.053,0,1.905,0.172,2.559,0.513
		c0.653,0.34,1.146,0.697,1.478,1.066c0.37,0.409,0.663,0.844,0.877,1.303c0.214,0.457,0.366,0.887,0.453,1.286
		c0.089,0.399,0.137,0.756,0.146,1.067c0.01,0.312,0.015,0.526,0.015,0.644c0,0.8-0.117,1.56-0.351,2.281
		c-0.234,0.722-0.546,1.419-0.937,2.091c-0.39,0.674-0.828,1.327-1.316,1.96c-0.486,0.634-0.984,1.253-1.491,1.857
		c-0.78,0.956-1.506,1.896-2.179,2.822c-0.672,0.926-1.146,1.906-1.418,2.938h3.743c0.176,0,0.316-0.004,0.424-0.014
		s0.19-0.024,0.249-0.044c0.019-0.078,0.033-0.19,0.043-0.336c0.011-0.146,0.016-0.375,0.016-0.688c0-0.487,0.17-0.902,0.512-1.243
		C122.889,201.532,123.304,201.361,123.791,201.361z"/>
	<path fill="#697E09" d="M138.429,204.504c0.341,0.342,0.512,0.756,0.512,1.243c0,0.488-0.171,0.902-0.512,1.243
		c-0.342,0.342-0.756,0.512-1.243,0.512h-7.604c-0.486,0-0.901-0.17-1.242-0.512c-0.342-0.341-0.512-0.755-0.512-1.243
		c0-0.487,0.17-0.901,0.512-1.243c0.341-0.341,0.756-0.511,1.242-0.511h2.106v-13.337l-0.731,0.731
		c-0.332,0.331-0.741,0.496-1.229,0.496s-0.906-0.165-1.258-0.496c-0.332-0.352-0.497-0.771-0.497-1.259
		c0-0.487,0.165-0.896,0.497-1.228l3.715-3.715c0.253-0.254,0.556-0.414,0.906-0.482c0.352-0.068,0.692-0.034,1.023,0.102
		c0.332,0.138,0.596,0.352,0.79,0.644c0.194,0.293,0.293,0.614,0.293,0.966v17.578h1.988
		C137.673,203.994,138.087,204.164,138.429,204.504z"/>
	<path fill="#697E09" d="M158.565,184.602c0.507,0,0.926,0.171,1.258,0.512c0.332,0.342,0.497,0.756,0.497,1.242v19.362
		c0,0.488-0.165,0.902-0.497,1.243s-0.751,0.512-1.258,0.512c-0.488,0-0.902-0.171-1.243-0.512
		c-0.342-0.341-0.512-0.755-0.512-1.243v-19.362c0-0.486,0.17-0.9,0.512-1.242C157.663,184.773,158.077,184.602,158.565,184.602z"/>
	<path fill="#697E09" d="M173.804,184.602c0.486,0,0.901,0.171,1.242,0.512c0.342,0.342,0.512,0.756,0.512,1.242v19.333v0.117v0.088
		v0.029v0.059l-0.029,0.029v0.029v0.058v0.03c-0.02,0.02-0.029,0.039-0.029,0.058v0.029c0,0.021-0.005,0.029-0.014,0.029
		c-0.011,0-0.016,0.011-0.016,0.029c0,0.021-0.005,0.034-0.015,0.044c-0.009,0.01-0.015,0.024-0.015,0.044s-0.004,0.034-0.015,0.044
		c-0.009,0.011-0.015,0.024-0.015,0.044s-0.005,0.029-0.015,0.029c-0.009,0-0.015,0.01-0.015,0.029v0.029
		c-0.02,0-0.029,0.01-0.029,0.029l-0.029,0.029c0,0.02-0.01,0.039-0.029,0.058l-0.028,0.029v0.029c-0.021,0-0.03,0.011-0.03,0.029
		c0,0.021-0.01,0.03-0.028,0.03c0,0.019-0.005,0.029-0.015,0.029s-0.015,0.01-0.015,0.028h-0.029c0,0.021-0.011,0.039-0.028,0.06
		l-0.06,0.058l-0.058,0.059l-0.06,0.059h-0.029l-0.058,0.059c-0.021,0.02-0.039,0.029-0.06,0.029c0,0.019-0.009,0.029-0.029,0.029
		l-0.028,0.029c-0.02,0-0.029,0.005-0.029,0.014c0,0.01-0.011,0.016-0.029,0.016h-0.029l-0.059,0.059
		c-0.079,0.039-0.146,0.068-0.204,0.087c-0.06,0.02-0.138,0.039-0.235,0.059c-0.077,0.02-0.194,0.029-0.35,0.029
		c-0.118,0-0.205-0.01-0.264-0.029h-0.059h-0.029c-0.02,0-0.029-0.01-0.029-0.029h-0.117v-0.029h-0.059
		c-0.078-0.039-0.127-0.058-0.146-0.058c-0.021,0-0.029-0.011-0.029-0.029h-0.03c-0.02,0-0.028-0.011-0.028-0.03
		c-0.021,0-0.04-0.01-0.06-0.028c-0.02,0-0.028-0.011-0.028-0.029h-0.03c-0.019,0-0.028-0.005-0.028-0.016
		c0-0.01-0.01-0.014-0.03-0.014c-0.214-0.156-0.389-0.342-0.526-0.556v-0.029c-0.019,0-0.028-0.01-0.028-0.029l-0.029-0.029v-0.029
		c-0.02-0.02-0.029-0.039-0.029-0.059s-0.01-0.038-0.029-0.059l-5.002-11.553v10.88c0,0.488-0.171,0.902-0.512,1.243
		s-0.756,0.512-1.243,0.512s-0.901-0.171-1.243-0.512c-0.341-0.341-0.511-0.755-0.511-1.243v-19.333v-0.116v-0.088v-0.028v-0.06
		l0.03-0.029v-0.029v-0.059v-0.029c0.018-0.019,0.028-0.039,0.028-0.058v-0.029c0-0.02,0.005-0.029,0.015-0.029
		c0.009,0,0.015-0.01,0.015-0.029s0.005-0.034,0.015-0.044c0.009-0.01,0.015-0.024,0.015-0.044s0.004-0.034,0.015-0.044
		c0.01-0.01,0.014-0.023,0.014-0.044c0-0.019,0.005-0.029,0.016-0.029c0.009,0,0.015-0.01,0.015-0.029v-0.029l0.058-0.059
		c0-0.019,0.005-0.029,0.016-0.029c0.009,0,0.014-0.01,0.014-0.028l0.029-0.029v-0.029c0.02-0.02,0.029-0.039,0.029-0.059h0.029
		c0-0.02,0.005-0.029,0.015-0.029s0.015-0.01,0.015-0.029h0.029c0-0.02,0.01-0.039,0.029-0.059l0.059-0.059v-0.029
		c0.02,0,0.039-0.01,0.058-0.029v-0.029c0.021,0,0.04-0.01,0.06-0.029h0.029l0.059-0.058l0.059-0.059h0.029
		c0-0.02,0.009-0.03,0.029-0.03c0.019,0,0.029-0.004,0.029-0.015c0-0.009,0.01-0.015,0.028-0.015h0.03l0.058-0.059
		c0.136-0.077,0.273-0.126,0.41-0.146h0.028c0.097-0.02,0.244-0.029,0.439-0.029h0.088h0.029l0.029,0.029h0.058h0.03h0.058
		c0,0.02,0.01,0.029,0.029,0.029h0.059h0.029c0,0.02,0.02,0.029,0.058,0.029c0.021,0.02,0.049,0.028,0.088,0.028
		c0.02,0.021,0.039,0.029,0.06,0.029h0.028c0,0.021,0.02,0.029,0.059,0.029v0.029c0.039,0,0.059,0.011,0.059,0.029h0.029
		c0.02,0,0.029,0.006,0.029,0.015c0,0.011,0.01,0.015,0.029,0.015l0.029,0.03l0.029,0.029l0.029,0.029h0.029
		c0.019,0.019,0.039,0.028,0.059,0.028v0.029c0.019,0,0.029,0.006,0.029,0.015c0,0.01,0.01,0.015,0.029,0.015v0.029
		c0.019,0,0.029,0.005,0.029,0.015s0.009,0.015,0.029,0.015v0.029l0.058,0.059l0.06,0.059l0.059,0.059
		c0,0.02,0.009,0.039,0.029,0.059c0.019,0,0.028,0.01,0.028,0.029c0,0.019,0.009,0.029,0.03,0.029c0,0.039,0.008,0.058,0.028,0.058
		v0.029c0.019,0.02,0.029,0.04,0.029,0.059h0.029c0,0.04,0.004,0.063,0.015,0.073c0.01,0.01,0.014,0.024,0.014,0.044l5.003,11.553
		v-10.881c0-0.486,0.17-0.9,0.512-1.242C172.901,184.773,173.315,184.602,173.804,184.602z"/>
	<path fill="#697E09" d="M189.771,201.595c0,0.058-0.005,0.248-0.015,0.57c-0.01,0.321-0.059,0.701-0.146,1.141
		c-0.087,0.438-0.238,0.911-0.453,1.418s-0.526,0.975-0.936,1.404c-0.331,0.37-0.824,0.73-1.478,1.082
		c-0.653,0.351-1.496,0.526-2.53,0.526c-1.033,0-1.866-0.176-2.5-0.526c-0.634-0.352-1.117-0.712-1.447-1.082
		c-0.391-0.43-0.692-0.888-0.906-1.375c-0.215-0.487-0.366-0.95-0.453-1.389c-0.088-0.439-0.133-0.829-0.133-1.17
		c0-0.342,0-0.58,0-0.717v-11.231c0-1.189,0.195-2.14,0.586-2.852c0.39-0.712,0.789-1.263,1.198-1.652
		c0.487-0.448,1.043-0.794,1.667-1.038s1.277-0.366,1.959-0.366c0.664,0,1.332,0.117,2.005,0.352s1.272,0.595,1.798,1.082
		c0.526,0.487,0.955,1.102,1.287,1.842c0.332,0.742,0.497,1.619,0.497,2.633c0,0.508-0.171,0.926-0.512,1.258
		c-0.341,0.331-0.755,0.497-1.243,0.497c-0.487,0-0.902-0.166-1.243-0.497c-0.341-0.332-0.512-0.75-0.512-1.258
		c0-0.526-0.072-0.945-0.22-1.258c-0.146-0.312-0.32-0.551-0.525-0.717c-0.205-0.165-0.429-0.277-0.674-0.336
		c-0.243-0.058-0.463-0.088-0.658-0.088c-0.136,0-0.312,0.025-0.525,0.073c-0.215,0.049-0.424,0.156-0.629,0.321
		c-0.205,0.166-0.38,0.405-0.526,0.718c-0.147,0.312-0.22,0.741-0.22,1.286v11.29v0.146c0,0.098,0,0.229,0,0.396
		s0.02,0.351,0.059,0.556c0.039,0.204,0.098,0.409,0.176,0.613c0.078,0.206,0.186,0.376,0.321,0.512
		c0.059,0.06,0.186,0.151,0.381,0.278c0.194,0.127,0.526,0.19,0.993,0.19c0.508,0,0.858-0.063,1.055-0.19
		c0.193-0.127,0.321-0.229,0.379-0.307c0.273-0.272,0.443-0.614,0.513-1.023c0.067-0.41,0.102-0.712,0.102-0.907
		c0-0.02,0-0.127,0-0.321c0-0.195,0.049-0.405,0.146-0.629c0.098-0.225,0.259-0.434,0.482-0.629s0.551-0.303,0.979-0.321
		c0.449-0.021,0.795,0.058,1.039,0.233c0.243,0.176,0.434,0.37,0.57,0.585C189.636,200.971,189.732,201.263,189.771,201.595z"/>
	<path fill="#697E09" d="M202.758,184.602c0.487,0,0.901,0.171,1.243,0.512c0.341,0.342,0.512,0.756,0.512,1.242v19.362
		c0,0.488-0.171,0.902-0.512,1.243c-0.342,0.341-0.756,0.512-1.243,0.512c-0.488,0-0.902-0.171-1.243-0.512
		c-0.342-0.341-0.512-0.755-0.512-1.243v-6.727h-4.562v6.727c0,0.488-0.171,0.902-0.512,1.243c-0.342,0.341-0.756,0.512-1.243,0.512
		c-0.488,0-0.902-0.171-1.243-0.512c-0.342-0.341-0.512-0.755-0.512-1.243v-19.362c0-0.486,0.17-0.9,0.512-1.242
		c0.341-0.341,0.755-0.512,1.243-0.512c0.487,0,0.901,0.171,1.243,0.512c0.341,0.342,0.512,0.756,0.512,1.242v9.126h4.562v-9.126
		c0-0.486,0.17-0.9,0.512-1.242C201.855,184.773,202.27,184.602,202.758,184.602z"/>
	<path fill="#697E09" d="M218.156,204.446c0.341,0.342,0.512,0.757,0.512,1.243c0,0.487-0.171,0.902-0.512,1.243
		s-0.756,0.512-1.243,0.512h-7.166c-0.487,0-0.901-0.171-1.242-0.512c-0.342-0.341-0.513-0.756-0.513-1.243v-19.361
		c0-0.487,0.171-0.901,0.513-1.243c0.341-0.341,0.755-0.512,1.242-0.512h7.166c0.487,0,0.902,0.171,1.243,0.512
		c0.341,0.342,0.512,0.756,0.512,1.243c0,0.507-0.171,0.927-0.512,1.258c-0.341,0.332-0.756,0.497-1.243,0.497h-5.41v7.37h3.743
		c0.487,0,0.901,0.171,1.243,0.512c0.341,0.342,0.512,0.756,0.512,1.243s-0.171,0.902-0.512,1.243
		c-0.342,0.342-0.756,0.512-1.243,0.512h-3.743v4.973h5.41C217.4,203.935,217.815,204.106,218.156,204.446z"/>
	<path fill="#697E09" d="M231.245,196.74c1.149,1.443,1.725,3.129,1.725,5.06c0,0.604-0.063,1.146-0.189,1.623
		c-0.128,0.479-0.283,0.902-0.469,1.272c-0.186,0.371-0.395,0.692-0.629,0.965c-0.233,0.273-0.468,0.508-0.701,0.702
		c-1.092,0.878-2.418,1.316-3.978,1.316c-0.761,0-1.473-0.107-2.136-0.321c-0.663-0.215-1.248-0.546-1.754-0.995
		c-0.215-0.176-0.435-0.399-0.659-0.673c-0.224-0.272-0.429-0.594-0.613-0.965c-0.187-0.37-0.337-0.799-0.454-1.287
		c-0.117-0.487-0.175-1.043-0.175-1.667c0-0.487,0.17-0.901,0.511-1.242c0.342-0.342,0.756-0.512,1.244-0.512
		c0.506,0,0.926,0.17,1.258,0.512c0.331,0.341,0.496,0.755,0.496,1.242c0,0.273,0.024,0.552,0.073,0.834s0.151,0.541,0.308,0.774
		c0.156,0.234,0.385,0.425,0.688,0.57c0.302,0.146,0.706,0.22,1.214,0.22c0.351,0,0.677-0.044,0.979-0.132s0.561-0.219,0.775-0.395
		c0.467-0.409,0.701-1.024,0.701-1.843c0-0.604-0.078-1.13-0.234-1.579c-0.155-0.448-0.385-0.862-0.687-1.243
		c-0.303-0.38-0.673-0.741-1.111-1.082s-0.932-0.707-1.478-1.097c-0.507-0.352-1.009-0.717-1.506-1.097
		c-0.497-0.381-0.961-0.814-1.39-1.302c-0.507-0.624-0.892-1.272-1.155-1.944c-0.264-0.674-0.395-1.409-0.395-2.209
		c0-0.117,0.004-0.331,0.016-0.644c0.009-0.312,0.058-0.672,0.146-1.082c0.088-0.409,0.233-0.838,0.438-1.287
		c0.205-0.448,0.502-0.878,0.892-1.287c0.332-0.369,0.829-0.73,1.492-1.082c0.662-0.35,1.521-0.526,2.573-0.526
		c1.072,0,1.926,0.181,2.56,0.542c0.634,0.36,1.116,0.727,1.447,1.096c0.37,0.449,0.648,0.922,0.835,1.419
		c0.185,0.497,0.306,0.956,0.365,1.375c0.058,0.419,0.077,0.785,0.058,1.097c-0.019,0.312-0.039,0.497-0.058,0.556
		c-0.06,0.351-0.176,0.644-0.352,0.877c-0.156,0.215-0.365,0.395-0.629,0.541s-0.619,0.172-1.067,0.073
		c-0.429-0.078-0.745-0.22-0.95-0.424c-0.205-0.205-0.342-0.419-0.409-0.644c-0.069-0.224-0.099-0.424-0.089-0.6
		s0.016-0.282,0.016-0.321c0.019-0.078,0.029-0.185,0.029-0.322c0-0.137-0.016-0.282-0.045-0.438
		c-0.028-0.155-0.073-0.312-0.131-0.468c-0.059-0.156-0.137-0.293-0.234-0.409c-0.233-0.293-0.683-0.439-1.346-0.439
		c-0.526,0-0.892,0.069-1.097,0.205c-0.204,0.137-0.336,0.234-0.394,0.292c-0.137,0.138-0.24,0.293-0.309,0.468
		c-0.068,0.176-0.121,0.352-0.16,0.527c-0.039,0.175-0.064,0.326-0.073,0.452c-0.01,0.128-0.015,0.22-0.015,0.278v0.059v0.059
		c0,0.391,0.067,0.746,0.204,1.067c0.137,0.322,0.327,0.625,0.571,0.907c0.243,0.283,0.55,0.565,0.921,0.848
		c0.37,0.283,0.79,0.59,1.257,0.922c0.546,0.39,1.107,0.809,1.683,1.258C230.226,195.638,230.757,196.154,231.245,196.74z"/>
	<path fill="#697E09" d="M117.123,226.081c0.244,0.245,0.367,0.543,0.367,0.892c0,0.351-0.123,0.647-0.367,0.892
		c-0.244,0.245-0.542,0.367-0.891,0.367h-0.463l0.23,0.399c0.183,0.293,0.229,0.608,0.138,0.943s-0.291,0.595-0.599,0.776
		c-0.195,0.111-0.405,0.167-0.629,0.167c-0.21,0-0.416-0.056-0.618-0.167c-0.203-0.112-0.361-0.266-0.473-0.462l-0.209-0.398
		l-0.231,0.398c-0.111,0.196-0.266,0.35-0.461,0.462c-0.196,0.111-0.406,0.167-0.63,0.167s-0.433-0.056-0.629-0.167
		c-0.308-0.182-0.507-0.437-0.598-0.767c-0.091-0.328-0.045-0.646,0.137-0.953l0.23-0.399h-0.463c-0.348,0-0.646-0.122-0.891-0.367
		c-0.244-0.244-0.367-0.541-0.367-0.892c0-0.349,0.123-0.646,0.367-0.892c0.245-0.244,0.543-0.366,0.891-0.366h0.441l-0.209-0.378
		c-0.182-0.308-0.228-0.629-0.137-0.965s0.283-0.587,0.576-0.755c0.309-0.182,0.63-0.227,0.966-0.136
		c0.335,0.091,0.587,0.29,0.755,0.598l0.23,0.378l0.23-0.378c0.168-0.308,0.42-0.507,0.756-0.598
		c0.335-0.091,0.657-0.054,0.964,0.114c0.294,0.183,0.485,0.44,0.577,0.776s0.053,0.65-0.116,0.944l-0.23,0.398h0.463
		C116.581,225.714,116.879,225.836,117.123,226.081z"/>
	<path fill="#697E09" d="M119.65,222.966c0.363,0,0.663,0.123,0.902,0.367c0.237,0.245,0.356,0.542,0.356,0.892v13.885
		c0,0.351-0.119,0.647-0.356,0.892c-0.239,0.244-0.539,0.367-0.902,0.367c-0.35,0-0.647-0.123-0.892-0.367s-0.367-0.541-0.367-0.892
		v-13.885c0-0.35,0.123-0.646,0.367-0.892C119.003,223.089,119.301,222.966,119.65,222.966z"/>
	<path fill="#697E09" d="M130.579,222.966c0.348,0,0.645,0.123,0.891,0.367c0.244,0.245,0.367,0.542,0.367,0.892v13.864v0.084v0.063
		v0.021v0.042l-0.021,0.021v0.021v0.042v0.021c-0.014,0.014-0.021,0.027-0.021,0.042v0.021c0,0.014-0.003,0.021-0.01,0.021
		s-0.011,0.007-0.011,0.021c0,0.015-0.004,0.025-0.011,0.032s-0.011,0.018-0.011,0.031s-0.003,0.024-0.011,0.031
		c-0.006,0.007-0.01,0.018-0.01,0.031c0,0.015-0.004,0.021-0.01,0.021c-0.008,0-0.012,0.007-0.012,0.021v0.021
		c-0.014,0-0.021,0.007-0.021,0.021l-0.021,0.021c0,0.015-0.008,0.029-0.022,0.043l-0.021,0.021v0.021
		c-0.014,0-0.02,0.008-0.02,0.021c0,0.015-0.008,0.021-0.021,0.021c0,0.014-0.004,0.021-0.012,0.021c-0.006,0-0.01,0.008-0.01,0.021
		h-0.021c0,0.015-0.007,0.028-0.021,0.042l-0.042,0.042l-0.041,0.042l-0.043,0.042h-0.021l-0.042,0.042
		c-0.014,0.015-0.028,0.021-0.042,0.021c0,0.014-0.007,0.021-0.021,0.021l-0.021,0.021c-0.015,0-0.022,0.003-0.022,0.011
		c0,0.007-0.006,0.01-0.02,0.01h-0.022l-0.042,0.043c-0.056,0.026-0.104,0.048-0.146,0.062c-0.042,0.014-0.098,0.027-0.168,0.041
		c-0.056,0.015-0.14,0.021-0.25,0.021c-0.085,0-0.147-0.007-0.19-0.021h-0.041h-0.021c-0.015,0-0.021-0.007-0.021-0.021h-0.084
		v-0.021h-0.042c-0.056-0.029-0.092-0.042-0.105-0.042s-0.021-0.007-0.021-0.021h-0.021c-0.015,0-0.022-0.008-0.022-0.021
		c-0.014,0-0.027-0.008-0.041-0.021c-0.015,0-0.021-0.007-0.021-0.021h-0.021c-0.014,0-0.021-0.004-0.021-0.011
		c0-0.008-0.008-0.011-0.021-0.011c-0.153-0.112-0.279-0.244-0.377-0.398v-0.021c-0.015,0-0.021-0.007-0.021-0.021l-0.021-0.021
		v-0.021c-0.014-0.014-0.021-0.027-0.021-0.042c0-0.014-0.006-0.027-0.02-0.042l-3.587-8.285v7.803c0,0.351-0.123,0.647-0.367,0.892
		c-0.245,0.244-0.542,0.367-0.892,0.367s-0.646-0.123-0.892-0.367s-0.366-0.541-0.366-0.892v-13.864v-0.083v-0.063v-0.021v-0.043
		l0.02-0.021v-0.021v-0.042v-0.021c0.015-0.014,0.021-0.027,0.021-0.042v-0.021c0-0.014,0.004-0.021,0.011-0.021
		s0.011-0.007,0.011-0.021c0-0.014,0.003-0.024,0.011-0.031c0.007-0.008,0.011-0.018,0.011-0.032c0-0.014,0.003-0.023,0.01-0.031
		c0.007-0.007,0.011-0.018,0.011-0.031s0.003-0.021,0.011-0.021c0.006,0,0.01-0.008,0.01-0.021v-0.021l0.043-0.042
		c0-0.014,0.003-0.021,0.01-0.021c0.008,0,0.01-0.007,0.01-0.021l0.022-0.021v-0.021c0.014-0.015,0.021-0.028,0.021-0.042h0.02
		c0-0.014,0.004-0.021,0.012-0.021c0.007,0,0.011-0.006,0.011-0.021h0.021c0-0.013,0.007-0.027,0.021-0.041l0.042-0.042v-0.021
		c0.015,0,0.028-0.007,0.043-0.021v-0.021c0.014,0,0.027-0.006,0.042-0.021h0.021l0.042-0.042l0.042-0.042h0.021
		c0-0.014,0.007-0.021,0.021-0.021s0.021-0.004,0.021-0.011s0.008-0.011,0.021-0.011h0.02l0.043-0.042
		c0.098-0.056,0.195-0.091,0.294-0.104h0.021c0.07-0.014,0.175-0.021,0.314-0.021h0.063h0.021l0.021,0.021h0.042h0.021h0.043
		c0,0.014,0.006,0.021,0.021,0.021h0.042h0.021c0,0.014,0.015,0.021,0.042,0.021c0.014,0.015,0.035,0.022,0.062,0.022
		c0.014,0.014,0.028,0.021,0.043,0.021h0.021c0,0.014,0.014,0.021,0.041,0.021v0.021c0.028,0,0.042,0.007,0.042,0.021h0.021
		c0.014,0,0.021,0.004,0.021,0.011s0.007,0.011,0.021,0.011l0.021,0.021l0.021,0.021l0.021,0.021h0.021
		c0.015,0.014,0.028,0.021,0.043,0.021v0.021c0.013,0,0.021,0.004,0.021,0.011s0.007,0.01,0.021,0.01v0.021
		c0.014,0,0.021,0.003,0.021,0.011c0,0.007,0.007,0.01,0.021,0.01v0.021l0.042,0.042l0.042,0.041l0.042,0.043
		c0,0.014,0.007,0.027,0.021,0.042c0.014,0,0.021,0.007,0.021,0.021c0,0.015,0.007,0.021,0.021,0.021
		c0,0.027,0.007,0.041,0.021,0.041v0.021c0.015,0.014,0.022,0.028,0.022,0.042h0.021c0,0.028,0.003,0.046,0.01,0.053
		s0.012,0.018,0.012,0.031l3.586,8.285v-7.803c0-0.35,0.123-0.646,0.367-0.892C129.931,223.089,130.228,222.966,130.579,222.966z"/>
	<path fill="#697E09" d="M151.048,223.973c0.295,0.28,0.581,0.676,0.86,1.186c0.28,0.511,0.421,1.191,0.421,2.045v7.928
		c0,0.854-0.141,1.535-0.421,2.046c-0.279,0.51-0.565,0.905-0.86,1.185c-0.741,0.671-1.614,1.007-2.621,1.007h-1.572H145.7
		c-0.35,0-0.646-0.123-0.891-0.367c-0.246-0.244-0.367-0.541-0.367-0.892v-13.885c0-0.35,0.121-0.646,0.367-0.892
		c0.244-0.244,0.541-0.367,0.891-0.367h1.154h1.572C149.434,222.966,150.307,223.302,151.048,223.973z M149.812,227.204
		c0-0.392-0.053-0.699-0.157-0.924c-0.105-0.223-0.231-0.394-0.378-0.513s-0.301-0.196-0.462-0.231
		c-0.161-0.034-0.29-0.052-0.388-0.052h-1.468v11.368h1.468c0.098,0,0.227-0.019,0.388-0.053c0.161-0.035,0.315-0.111,0.462-0.23
		s0.272-0.291,0.378-0.514c0.104-0.224,0.157-0.531,0.157-0.924V227.204z"/>
	<path fill="#697E09" d="M155.978,222.966c0.363,0,0.664,0.123,0.902,0.367c0.237,0.245,0.355,0.542,0.355,0.892v13.885
		c0,0.351-0.118,0.647-0.355,0.892c-0.238,0.244-0.539,0.367-0.902,0.367c-0.35,0-0.647-0.123-0.891-0.367
		c-0.245-0.244-0.368-0.541-0.368-0.892v-13.885c0-0.35,0.123-0.646,0.368-0.892C155.33,223.089,155.628,222.966,155.978,222.966z"
		/>
	<path fill="#697E09" d="M166.968,238.047c0.07,0.35,0.011,0.668-0.178,0.954c-0.188,0.287-0.459,0.465-0.809,0.535
		c-0.056,0.014-0.132,0.021-0.23,0.021c-0.293,0-0.556-0.096-0.786-0.283c-0.23-0.189-0.381-0.431-0.45-0.724l-0.441-2.141h-2.244
		l-0.44,2.141c-0.056,0.293-0.199,0.534-0.43,0.724c-0.23,0.188-0.493,0.283-0.786,0.283c-0.112,0-0.196-0.008-0.252-0.021
		c-0.35-0.07-0.619-0.248-0.808-0.535c-0.188-0.286-0.249-0.604-0.179-0.954l2.789-13.864v-0.021v-0.043
		c0-0.014,0.004-0.021,0.011-0.021c0.008,0,0.011-0.007,0.011-0.021v-0.021v-0.021c0.014-0.014,0.021-0.027,0.021-0.041
		s0.003-0.021,0.011-0.021c0.007,0,0.01-0.007,0.01-0.021v-0.021c0.042-0.111,0.104-0.21,0.188-0.294v-0.021
		c0.015,0,0.021-0.004,0.021-0.011s0.007-0.011,0.021-0.011v-0.021l0.02-0.021l0.021-0.021l0.021-0.021l0.021-0.021l0.021-0.021
		l0.042-0.021c0.084-0.084,0.182-0.146,0.293-0.188h0.021c0.014-0.014,0.027-0.021,0.042-0.021c0.07-0.028,0.133-0.046,0.189-0.053
		c0.055-0.007,0.118-0.018,0.188-0.031h0.021h0.042h0.042c0.069,0.014,0.132,0.024,0.188,0.031c0.056,0.007,0.118,0.024,0.189,0.053
		c0.014,0,0.027,0.007,0.041,0.021h0.021c0.111,0.042,0.21,0.104,0.293,0.188c0.014,0,0.028,0.008,0.043,0.021l0.021,0.021
		l0.02,0.021l0.021,0.021l0.021,0.021l0.022,0.021l0.02,0.021l0.021,0.021v0.021c0.084,0.084,0.146,0.183,0.189,0.294v0.021
		c0,0.014,0.003,0.021,0.011,0.021c0.006,0,0.01,0.008,0.01,0.021c0.028,0.084,0.042,0.146,0.042,0.188L166.968,238.047z
		 M162.962,230.811l-0.629,3.084h1.237L162.962,230.811z"/>
	<path fill="#697E09" d="M178.44,238.11c0,0.351-0.122,0.647-0.366,0.892c-0.245,0.244-0.542,0.367-0.892,0.367
		s-0.646-0.123-0.892-0.367s-0.366-0.541-0.366-0.892v-8.642l-1.322,2.602c-0.111,0.307-0.314,0.531-0.608,0.671
		c-0.168,0.084-0.343,0.126-0.524,0.126h-0.021h-0.021h-0.021h-0.021c-0.182,0-0.355-0.042-0.524-0.126
		c-0.293-0.14-0.496-0.364-0.608-0.671l-1.32-2.602v8.642c0,0.351-0.123,0.647-0.368,0.892s-0.542,0.367-0.891,0.367
		c-0.351,0-0.646-0.123-0.892-0.367s-0.367-0.541-0.367-0.892v-13.885v-0.062v-0.063v-0.021v-0.021c0-0.014,0.004-0.021,0.01-0.021
		c0.008,0,0.012-0.007,0.012-0.021v-0.021v-0.042c0-0.014,0.002-0.024,0.01-0.032c0.007-0.007,0.011-0.017,0.011-0.031
		c0.015-0.084,0.042-0.16,0.084-0.23c0-0.014,0.003-0.021,0.011-0.021c0.007,0,0.01-0.007,0.01-0.021l0.022-0.021l0.021-0.021
		c0-0.014,0.006-0.027,0.02-0.042v-0.021l0.043-0.042c0.027-0.027,0.052-0.056,0.073-0.084c0.021-0.028,0.046-0.057,0.073-0.084
		l0.042-0.042h0.021c0-0.014,0.004-0.021,0.012-0.021c0.006,0,0.011-0.008,0.011-0.021h0.021c0.013-0.014,0.027-0.021,0.041-0.021
		c0-0.015,0.008-0.021,0.021-0.021l0.021-0.021l0.041-0.021c0.015-0.014,0.028-0.021,0.042-0.021l0.021-0.021
		c0.014,0,0.028-0.007,0.041-0.021c0.015,0,0.024-0.004,0.032-0.012c0.008-0.006,0.018-0.009,0.032-0.009
		c0.013,0,0.022-0.004,0.031-0.011c0.007-0.007,0.018-0.012,0.03-0.012c0.015,0,0.028-0.007,0.043-0.021h0.021h0.042l0.021-0.021
		h0.021h0.042h0.021c0.014-0.014,0.027-0.021,0.042-0.021h0.021h0.062h0.063h0.062h0.042h0.021c0.014,0,0.029,0.008,0.043,0.021
		h0.042h0.021h0.042c0.057,0.027,0.105,0.046,0.147,0.053c0.041,0.007,0.083,0.024,0.125,0.052h0.021
		c0,0.015,0.015,0.021,0.043,0.021c0,0.014,0.007,0.021,0.021,0.021l0.021,0.021c0.015,0,0.028,0.007,0.042,0.021l0.042,0.042h0.021
		c0.07,0.042,0.126,0.098,0.168,0.168l0.041,0.041l0.043,0.043c0,0.014,0.003,0.021,0.01,0.021c0.008,0,0.011,0.007,0.011,0.021
		l0.021,0.021l0.021,0.021c0,0.014,0.007,0.027,0.021,0.041c0,0.015,0.002,0.025,0.01,0.032s0.011,0.018,0.011,0.031l2.643,5.181
		l2.643-5.181c0-0.028,0.007-0.049,0.021-0.063c0.014-0.014,0.021-0.027,0.021-0.041c0.014,0,0.021-0.007,0.021-0.021l0.021-0.021
		c0-0.015,0.007-0.028,0.021-0.042l0.042-0.043l0.042-0.041c0.041-0.07,0.098-0.126,0.167-0.168l0.042-0.042h0.021
		c0.015-0.014,0.028-0.021,0.042-0.021l0.021-0.021c0.014,0,0.021-0.007,0.021-0.021c0.028,0,0.042-0.007,0.042-0.021h0.021
		c0.028-0.027,0.062-0.045,0.104-0.052c0.043-0.007,0.078-0.019,0.105-0.032c0.028,0,0.049-0.007,0.062-0.021h0.043h0.021h0.041
		c0-0.014,0.007-0.021,0.021-0.021h0.041h0.043h0.062h0.062h0.062c0.029,0,0.05,0.008,0.062,0.021h0.043h0.042l0.021,0.021h0.043
		h0.021l0.042,0.021c0.014,0,0.024,0.005,0.031,0.012s0.018,0.011,0.032,0.011c0.014,0,0.027,0.007,0.04,0.021h0.023
		c0.013,0.014,0.027,0.021,0.041,0.021v0.021c0.027,0,0.049,0.007,0.062,0.021c0.014,0.015,0.028,0.021,0.042,0.021l0.021,0.021
		l0.021,0.021c0.014,0,0.027,0.007,0.043,0.021l0.041,0.042c0.027,0,0.042,0.015,0.042,0.042c0.069,0.042,0.126,0.098,0.168,0.168
		l0.042,0.042v0.021c0.014,0.015,0.021,0.028,0.021,0.042c0.014,0,0.021,0.007,0.021,0.021l0.021,0.021
		c0,0.014,0.007,0.028,0.021,0.042c0.028,0.07,0.056,0.146,0.084,0.23c0,0.028,0.008,0.05,0.021,0.063v0.042v0.021
		c0,0.014,0.007,0.028,0.021,0.042v0.021v0.021v0.063v0.062V238.11z"/>
	<path fill="#697E09" d="M187.953,237.198c0.244,0.245,0.366,0.542,0.366,0.892s-0.122,0.647-0.366,0.892
		c-0.245,0.244-0.542,0.366-0.893,0.366h-5.138c-0.351,0-0.647-0.122-0.892-0.366c-0.245-0.244-0.367-0.542-0.367-0.892v-13.886
		c0-0.349,0.122-0.646,0.367-0.891c0.244-0.245,0.541-0.368,0.892-0.368h5.138c0.351,0,0.647,0.123,0.893,0.368
		c0.244,0.245,0.366,0.542,0.366,0.891c0,0.364-0.122,0.665-0.366,0.902c-0.245,0.238-0.542,0.357-0.893,0.357h-3.88v5.284h2.686
		c0.349,0,0.646,0.123,0.891,0.367c0.244,0.245,0.367,0.543,0.367,0.892c0,0.35-0.123,0.646-0.367,0.892
		c-0.244,0.244-0.542,0.367-0.891,0.367h-2.686v3.565h3.88C187.411,236.831,187.708,236.954,187.953,237.198z"/>
	<path fill="#697E09" d="M198.188,223.344c0.244,0.237,0.367,0.538,0.367,0.901c0,0.351-0.123,0.647-0.367,0.892
		c-0.245,0.245-0.543,0.367-0.892,0.367h-1.951v12.585c0,0.35-0.122,0.647-0.366,0.892c-0.245,0.244-0.543,0.366-0.893,0.366
		s-0.646-0.122-0.891-0.366s-0.367-0.542-0.367-0.892v-12.585h-1.992c-0.351,0-0.647-0.122-0.893-0.367
		c-0.244-0.244-0.366-0.541-0.366-0.892c0-0.363,0.122-0.664,0.366-0.901c0.245-0.237,0.542-0.356,0.893-0.356h6.46
		C197.646,222.988,197.943,223.107,198.188,223.344z"/>
	<path fill="#697E09" d="M207.271,237.198c0.244,0.245,0.366,0.542,0.366,0.892s-0.122,0.647-0.366,0.892
		c-0.245,0.244-0.543,0.366-0.892,0.366h-5.139c-0.351,0-0.647-0.122-0.893-0.366s-0.366-0.542-0.366-0.892v-13.886
		c0-0.349,0.121-0.646,0.366-0.891s0.542-0.368,0.893-0.368h5.139c0.349,0,0.646,0.123,0.892,0.368
		c0.244,0.245,0.366,0.542,0.366,0.891c0,0.364-0.122,0.665-0.366,0.902c-0.245,0.238-0.543,0.357-0.892,0.357h-3.88v5.284h2.684
		c0.35,0,0.646,0.123,0.892,0.367c0.244,0.245,0.367,0.543,0.367,0.892c0,0.35-0.123,0.646-0.367,0.892
		c-0.245,0.244-0.542,0.367-0.892,0.367h-2.684v3.565h3.88C206.728,236.831,207.025,236.954,207.271,237.198z"/>
	<path fill="#697E09" d="M218.146,237.585c0.154,0.322,0.165,0.645,0.031,0.966c-0.133,0.321-0.36,0.552-0.682,0.692
		c-0.168,0.069-0.336,0.104-0.504,0.104c-0.237,0-0.461-0.065-0.672-0.198c-0.209-0.134-0.369-0.318-0.481-0.557l-2.328-5.327
		h-1.258v4.824c0,0.35-0.123,0.647-0.367,0.892c-0.245,0.244-0.543,0.366-0.893,0.366c-0.349,0-0.646-0.122-0.891-0.366
		c-0.245-0.244-0.367-0.542-0.367-0.892v-13.844c0-0.349,0.122-0.646,0.367-0.891c0.244-0.245,0.542-0.367,0.891-0.367h3.042
		c0.531,0,1.041,0.15,1.531,0.451c0.489,0.301,0.915,0.73,1.279,1.289c0.629,0.993,0.943,2.127,0.943,3.398
		c0,0.615-0.08,1.21-0.24,1.782c-0.161,0.574-0.396,1.104-0.703,1.595c-0.141,0.209-0.287,0.398-0.44,0.566
		c-0.154,0.167-0.309,0.321-0.461,0.461L218.146,237.585z M214.034,230.748c0.07,0,0.164-0.045,0.283-0.136
		c0.118-0.091,0.255-0.248,0.409-0.473c0.181-0.278,0.317-0.594,0.409-0.943c0.09-0.35,0.137-0.706,0.137-1.069
		s-0.047-0.724-0.137-1.08c-0.092-0.357-0.229-0.675-0.409-0.954c-0.154-0.211-0.291-0.36-0.409-0.452
		c-0.119-0.091-0.213-0.136-0.283-0.136h-1.782v5.243H214.034z"/>
</g>
</svg>
