<?xml version="1.0" encoding="utf-8"?>
<!-- Generator: Adobe Illustrator 16.0.0, SVG Export Plug-In . SVG Version: 6.00 Build 0)  -->
<!DOCTYPE svg PUBLIC "-//W3C//DTD SVG 1.1//EN" "http://www.w3.org/Graphics/SVG/1.1/DTD/svg11.dtd">
<svg version="1.1" id="Layer_1" xmlns="http://www.w3.org/2000/svg" xmlns:xlink="http://www.w3.org/1999/xlink" x="0px" y="0px"
	 width="51.5px" height="78.5px" viewBox="63.096 28.29 51.5 78.5" enable-background="new 63.096 28.29 51.5 78.5"
	 xml:space="preserve">
<g id="Layer_1_1_">
</g>
<g id="Layer_5">
</g>
<g id="Layer_2">
</g>
<g id="neptune">
</g>
<g id="uranus">
</g>
<g id="saturn">
</g>
<g id="jupiter">
</g>
<g id="Layer_14">
</g>
<g id="mars">
</g>
<g id="venus">
</g>
<g id="mercury">
</g>
<g id="earth">
</g>
<g id="Layer_6">
</g>
<g id="Layer_4">
	<g>
		<path fill="#CF3918" d="M82.429,100.616c0,0.303-0.108,0.562-0.319,0.771c-0.211,0.214-0.473,0.322-0.773,0.322
			c-0.303,0-0.564-0.108-0.776-0.322c-0.211-0.209-0.319-0.469-0.319-0.771v-7.498l-1.146,2.258
			c-0.091,0.267-0.269,0.463-0.524,0.582c-0.146,0.072-0.296,0.107-0.459,0.107h-0.013h-0.021h-0.02h-0.019
			c-0.154,0-0.308-0.035-0.455-0.107c-0.257-0.119-0.428-0.315-0.527-0.582l-1.144-2.258v7.498c0,0.303-0.108,0.562-0.319,0.771
			c-0.213,0.214-0.471,0.322-0.773,0.322c-0.305,0-0.56-0.108-0.774-0.322c-0.215-0.209-0.316-0.469-0.316-0.771V88.569v-0.054
			v-0.056v-0.018v-0.02c0-0.012,0-0.018,0-0.018c0.016,0,0.019-0.007,0.019-0.021v-0.016v-0.037c0-0.014,0-0.021,0.007-0.027
			c0.008-0.006,0.014-0.016,0.014-0.025c0.011-0.074,0.031-0.14,0.07-0.201c0-0.013,0-0.02,0-0.02c0.013,0,0.018-0.004,0.018-0.018
			l0.019-0.02L73.897,88c0-0.01,0.001-0.023,0.016-0.035v-0.018l0.036-0.035c0.026-0.025,0.048-0.051,0.062-0.072
			c0.019-0.025,0.043-0.051,0.067-0.075l0.035-0.037h0.017c0-0.009,0.007-0.017,0.012-0.017c0,0,0.006-0.006,0.006-0.018h0.02
			c0.014-0.013,0.024-0.02,0.037-0.02c0-0.012,0.006-0.02,0.021-0.02l0.018-0.017l0.031-0.019c0.012-0.015,0.029-0.021,0.04-0.021
			l0.019-0.019c0.012,0,0.022-0.006,0.041-0.02c0.011,0,0.021-0.001,0.021-0.008c0.008-0.006,0.02-0.008,0.02-0.008
			c0.021,0,0.031-0.006,0.039-0.012c0.005-0.007,0.015-0.007,0.024-0.007c0.015,0,0.025-0.008,0.037-0.021h0.021h0.034l0.017-0.02
			H74.6h0.039h0.021c0.008-0.014,0.019-0.02,0.031-0.02h0.02h0.058h0.052h0.058h0.033h0.018c0.016,0,0.026,0.006,0.036,0.02h0.041
			h0.014h0.036c0.049,0.023,0.092,0.039,0.125,0.047c0.039,0.004,0.079,0.021,0.111,0.045h0.017c0,0.012,0.013,0.019,0.04,0.019
			c0,0.011,0.004,0.021,0.017,0.021l0.018,0.018c0.015,0,0.025,0.006,0.039,0.017l0.034,0.039h0.019
			c0.062,0.033,0.114,0.084,0.147,0.146l0.035,0.033l0.036,0.039c0,0.012,0.003,0.02,0.012,0.02c0,0,0.012,0.004,0.012,0.018
			l0.017,0.018l0.019,0.021c0,0.01,0.005,0.021,0.016,0.033c0,0.014,0.006,0.021,0.01,0.027c0.005,0.006,0.01,0.016,0.01,0.027
			l2.293,4.492l2.293-4.492c0-0.023,0.008-0.043,0.019-0.056C80.401,88.01,80.41,88,80.41,87.991c0,0,0.015-0.011,0.015-0.021
			l0.017-0.02c0-0.013,0.003-0.023,0.02-0.035l0.037-0.039l0.031-0.033c0.04-0.061,0.091-0.111,0.146-0.145l0.043-0.039h0.018
			c0.013-0.012,0.025-0.017,0.036-0.017l0.015-0.019c0.013,0,0.021-0.01,0.021-0.021c0.025,0,0.038-0.006,0.038-0.019h0.021
			c0.021-0.024,0.049-0.041,0.088-0.045c0.036-0.008,0.066-0.016,0.09-0.027c0.029,0,0.043-0.008,0.055-0.02h0.035h0.016h0.042
			c0-0.014,0.002-0.019,0.018-0.019h0.036h0.034h0.059h0.054h0.051c0.028,0,0.045,0.005,0.059,0.019h0.038h0.035l0.018,0.02h0.034
			h0.021l0.037,0.021c0.011,0,0.02,0,0.028,0.006c0.004,0.006,0.012,0.012,0.023,0.012c0.016,0,0.026,0.005,0.038,0.016h0.021
			c0.016,0.014,0.019,0.02,0.033,0.02v0.019c0.029,0,0.044,0.006,0.056,0.021c0.013,0.012,0.023,0.019,0.041,0.019l0.017,0.017
			l0.016,0.021c0.013,0,0.029,0.006,0.042,0.019l0.031,0.033c0.023,0,0.034,0.014,0.034,0.037c0.062,0.038,0.108,0.086,0.147,0.146
			l0.037,0.035v0.02c0.014,0.011,0.017,0.023,0.017,0.033c0.012,0,0.02,0.008,0.02,0.021l0.016,0.019
			c0,0.015,0.009,0.024,0.021,0.037c0.024,0.062,0.051,0.127,0.073,0.201c0,0.021,0.006,0.041,0.02,0.055v0.037v0.016
			c0,0.014,0.006,0.025,0.021,0.037v0.02v0.018v0.056v0.054v12.043H82.429z"/>
		<path fill="#CF3918" d="M90.539,100.56c0.061,0.304,0.007,0.582-0.157,0.827c-0.162,0.25-0.397,0.406-0.7,0.468
			c-0.045,0.009-0.112,0.017-0.2,0.017c-0.252,0-0.479-0.082-0.68-0.244c-0.196-0.164-0.329-0.373-0.388-0.631l-0.387-1.854h-1.946
			l-0.383,1.854c-0.051,0.258-0.172,0.467-0.372,0.631c-0.199,0.162-0.429,0.244-0.683,0.244c-0.098,0-0.172-0.008-0.217-0.017
			c-0.305-0.062-0.541-0.218-0.7-0.468c-0.165-0.245-0.218-0.523-0.157-0.827l2.425-12.024v-0.02v-0.038
			c0-0.011,0-0.017,0.007-0.017c0,0,0.007-0.004,0.007-0.019v-0.019v-0.02c0.012-0.014,0.017-0.023,0.017-0.035
			c0-0.014,0.007-0.021,0.007-0.021c0.014,0,0.014-0.005,0.014-0.017v-0.021c0.037-0.099,0.093-0.183,0.167-0.255V88.04
			c0.009,0,0.02-0.002,0.02-0.008c0-0.008,0-0.012,0.021-0.012V88l0.013-0.015l0.02-0.021l0.017-0.02l0.019-0.018l0.021-0.018
			l0.035-0.021c0.072-0.072,0.153-0.126,0.251-0.163h0.021c0.013-0.009,0.023-0.017,0.038-0.017
			c0.063-0.023,0.112-0.039,0.163-0.047c0.045-0.004,0.104-0.015,0.165-0.024h0.021h0.03h0.036c0.062,0.011,0.12,0.021,0.164,0.024
			c0.05,0.008,0.104,0.022,0.165,0.047c0.014,0,0.024,0.008,0.035,0.017h0.021c0.098,0.037,0.181,0.091,0.258,0.163
			c0.013,0,0.018,0.008,0.031,0.021l0.021,0.018l0.014,0.018l0.02,0.02l0.023,0.021L87.866,88l0.021,0.02l0.021,0.02v0.018
			c0.068,0.072,0.125,0.156,0.165,0.255v0.021c0,0.012,0,0.017,0,0.017s0.017,0.007,0.017,0.021
			c0.021,0.072,0.032,0.127,0.032,0.164L90.539,100.56z M87.062,94.286l-0.546,2.674h1.074L87.062,94.286z"/>
		<path fill="#CF3918" d="M99.147,100.161c0.138,0.278,0.143,0.559,0.028,0.836c-0.116,0.278-0.312,0.479-0.593,0.602
			c-0.149,0.061-0.292,0.09-0.438,0.09c-0.203,0-0.396-0.055-0.584-0.173c-0.182-0.114-0.322-0.272-0.414-0.481l-2.021-4.619h-1.089
			v4.185c0,0.304-0.107,0.562-0.316,0.772c-0.215,0.211-0.473,0.316-0.775,0.316c-0.3,0-0.562-0.105-0.772-0.316
			s-0.315-0.47-0.315-0.772V88.588c0-0.303,0.104-0.561,0.315-0.772c0.212-0.211,0.474-0.317,0.772-0.317h2.635
			c0.464,0,0.911,0.131,1.331,0.391c0.428,0.262,0.797,0.634,1.112,1.119c0.543,0.863,0.815,1.845,0.815,2.947
			c0,0.535-0.07,1.051-0.208,1.547c-0.14,0.496-0.343,0.959-0.607,1.385c-0.125,0.18-0.25,0.346-0.386,0.49
			c-0.137,0.146-0.268,0.277-0.399,0.399L99.147,100.161z M95.577,94.23c0.063,0,0.147-0.039,0.249-0.121
			c0.104-0.075,0.222-0.214,0.356-0.409c0.157-0.24,0.275-0.514,0.354-0.818c0.078-0.303,0.118-0.612,0.118-0.928
			c0-0.312-0.04-0.627-0.118-0.938c-0.077-0.309-0.195-0.584-0.354-0.825c-0.136-0.185-0.252-0.313-0.356-0.392
			c-0.102-0.082-0.186-0.121-0.249-0.121h-1.542v4.552H95.577z"/>
		<path fill="#CF3918" d="M106.784,95.03c0.72,0.898,1.077,1.944,1.077,3.146c0,0.377-0.037,0.711-0.118,1.011
			c-0.077,0.297-0.177,0.562-0.291,0.791c-0.111,0.229-0.244,0.431-0.392,0.603c-0.149,0.166-0.29,0.313-0.435,0.438
			c-0.685,0.546-1.504,0.818-2.479,0.818c-0.472,0-0.915-0.068-1.326-0.201c-0.413-0.133-0.775-0.34-1.092-0.617
			c-0.134-0.109-0.271-0.249-0.408-0.42c-0.141-0.17-0.269-0.369-0.384-0.602c-0.111-0.229-0.207-0.496-0.28-0.801
			c-0.068-0.302-0.105-0.648-0.105-1.035c0-0.305,0.101-0.562,0.314-0.773c0.215-0.211,0.471-0.32,0.774-0.32
			c0.313,0,0.579,0.109,0.781,0.32c0.209,0.212,0.312,0.47,0.312,0.773c0,0.168,0.017,0.342,0.045,0.518
			c0.029,0.176,0.092,0.336,0.192,0.482c0.097,0.145,0.238,0.262,0.426,0.354c0.187,0.089,0.437,0.135,0.751,0.135
			c0.226,0,0.426-0.026,0.613-0.079c0.186-0.056,0.349-0.138,0.482-0.246c0.287-0.254,0.435-0.638,0.435-1.146
			c0-0.375-0.048-0.702-0.146-0.983c-0.094-0.278-0.238-0.534-0.427-0.772c-0.188-0.235-0.415-0.459-0.69-0.672
			c-0.271-0.215-0.582-0.439-0.919-0.686c-0.315-0.217-0.628-0.443-0.939-0.682c-0.305-0.235-0.594-0.506-0.861-0.809
			c-0.314-0.389-0.553-0.793-0.717-1.213c-0.163-0.416-0.247-0.873-0.247-1.371c0-0.076,0-0.209,0.006-0.402
			c0.012-0.193,0.04-0.416,0.095-0.674c0.055-0.252,0.146-0.52,0.273-0.799s0.312-0.547,0.557-0.802
			c0.2-0.229,0.514-0.452,0.925-0.671c0.412-0.223,0.949-0.329,1.601-0.329c0.671,0,1.197,0.112,1.59,0.337
			c0.4,0.225,0.7,0.45,0.908,0.684c0.229,0.276,0.401,0.574,0.518,0.883c0.111,0.308,0.189,0.594,0.229,0.854
			c0.032,0.262,0.043,0.488,0.032,0.684c-0.013,0.193-0.024,0.309-0.032,0.345c-0.04,0.22-0.107,0.401-0.223,0.547
			c-0.1,0.134-0.228,0.245-0.396,0.337c-0.163,0.09-0.382,0.104-0.664,0.046c-0.266-0.051-0.462-0.138-0.589-0.267
			c-0.129-0.127-0.212-0.258-0.257-0.398c-0.04-0.141-0.061-0.265-0.053-0.373c0.01-0.109,0.01-0.177,0.01-0.201
			c0.014-0.047,0.021-0.113,0.021-0.199s-0.012-0.176-0.031-0.272c-0.018-0.097-0.044-0.194-0.078-0.289
			c-0.038-0.101-0.086-0.183-0.147-0.257c-0.146-0.182-0.424-0.271-0.84-0.271c-0.325,0-0.553,0.045-0.682,0.125
			c-0.127,0.086-0.207,0.146-0.244,0.185c-0.086,0.083-0.148,0.183-0.192,0.289c-0.046,0.108-0.074,0.22-0.097,0.332
			c-0.032,0.106-0.042,0.2-0.051,0.28c0,0.078-0.006,0.135-0.006,0.172v0.033v0.039c0,0.244,0.045,0.467,0.125,0.662
			c0.092,0.2,0.204,0.391,0.356,0.564c0.146,0.177,0.346,0.354,0.572,0.529c0.232,0.176,0.492,0.367,0.781,0.57
			c0.344,0.245,0.691,0.506,1.046,0.784C106.154,94.344,106.487,94.667,106.784,95.03z"/>
	</g>
	<g>
		<path fill="#CF3918" d="M113.207,55.472c0,13.157-10.664,23.817-23.816,23.817c-13.145,0-23.814-10.661-23.814-23.817
			c0-13.154,10.671-23.811,23.814-23.811C102.543,31.661,113.207,42.317,113.207,55.472z"/>
		<path fill="#8C230E" d="M73.539,37.536L89,42.149V64.71l9.599-9.428l6.946-1.485l7.506,0.115c0,0-0.307-16.261-17.675-21.495
			C82.923,28.664,73.539,37.536,73.539,37.536z"/>
	</g>
</g>
<g>
	<g>
		<path fill="#CF3918" d="M113.418,55.474c0,13.273-10.755,24.024-24.025,24.024c-13.264,0-24.026-10.751-24.026-24.024
			c0-13.271,10.763-24.021,24.026-24.021C102.663,31.452,113.418,42.202,113.418,55.474z"/>
	</g>
	<g>
		<path fill="#8C230E" d="M70.701,52.581c0.044,0.24,0.041,0.478-0.005,0.706c-0.031,0.13-0.072,0.252-0.125,0.366
			c-0.056,0.114-0.124,0.213-0.206,0.309c-0.063,0.068-0.129,0.13-0.203,0.186c-0.077,0.051-0.156,0.099-0.237,0.131
			c-0.157,0.061-0.325,0.093-0.499,0.093h-0.099c-0.277-0.015-0.526-0.101-0.741-0.255c-0.208-0.145-0.373-0.344-0.496-0.599
			c-0.195-0.413-0.278-0.939-0.25-1.586c0-0.236,0.027-0.458,0.077-0.658c0.059-0.198,0.127-0.374,0.212-0.528
			c0.084-0.158,0.178-0.293,0.279-0.412c0.102-0.118,0.203-0.219,0.305-0.301c0.103-0.087,0.204-0.162,0.305-0.223
			c0.096-0.063,0.188-0.114,0.268-0.154c0.083-0.039,0.148-0.067,0.2-0.085c0.052-0.019,0.083-0.029,0.095-0.037
			c0.065-0.018,0.133-0.024,0.194-0.018c0.052,0.006,0.105,0.028,0.16,0.061c0.054,0.036,0.098,0.094,0.131,0.177
			c0.035,0.085,0.039,0.156,0.014,0.222c-0.024,0.064-0.058,0.114-0.1,0.158c-0.044,0.046-0.104,0.082-0.18,0.114
			c-0.062,0.021-0.129,0.05-0.2,0.082c-0.059,0.033-0.123,0.069-0.198,0.115c-0.073,0.05-0.15,0.104-0.229,0.172
			c-0.369,0.323-0.562,0.731-0.58,1.224c0.097-0.065,0.213-0.123,0.348-0.167c0.133-0.046,0.291-0.067,0.47-0.067
			c0.139,0,0.264,0.014,0.375,0.043c0.116,0.028,0.216,0.065,0.301,0.116c0.086,0.046,0.16,0.096,0.226,0.153
			c0.06,0.057,0.111,0.111,0.16,0.165c0.083,0.11,0.141,0.215,0.172,0.312C70.672,52.49,70.692,52.551,70.701,52.581z
			 M69.806,53.463c0.074-0.084,0.127-0.195,0.157-0.334c0.031-0.137,0.033-0.276,0.004-0.409v-0.004
			c-0.006-0.007-0.014-0.032-0.028-0.067c-0.015-0.039-0.039-0.079-0.077-0.127c-0.1-0.112-0.254-0.171-0.453-0.171
			c-0.216,0-0.391,0.068-0.532,0.212c-0.048,0.051-0.085,0.104-0.107,0.153c-0.021,0.043-0.035,0.076-0.039,0.083
			c-0.003,0.008-0.012,0.028-0.018,0.058c-0.004,0.032-0.006,0.064,0,0.107c0,0.032,0.006,0.078,0.021,0.128
			c0.014,0.051,0.029,0.092,0.039,0.116c0,0.007,0.002,0.014,0.007,0.018c0.122,0.247,0.322,0.38,0.596,0.398
			C69.56,53.634,69.701,53.583,69.806,53.463z"/>
		<path fill="#8C230E" d="M71.436,53.502c0.099-0.025,0.196-0.015,0.291,0.043c0.089,0.05,0.145,0.121,0.167,0.222
			c0.03,0.101,0.021,0.194-0.029,0.28l-0.443,0.771c-0.052,0.09-0.133,0.149-0.228,0.176c-0.103,0.029-0.196,0.014-0.283-0.032
			c-0.094-0.054-0.156-0.133-0.181-0.233c-0.025-0.096-0.009-0.189,0.046-0.279l0.438-0.768
			C71.266,53.587,71.34,53.53,71.436,53.502z"/>
		<path fill="#8C230E" d="M74.393,49.625c0.039,0.048,0.062,0.101,0.07,0.159c0.013,0.057,0.009,0.114-0.009,0.172l-1.175,4.069
			c-0.021,0.082-0.063,0.144-0.131,0.192c-0.069,0.047-0.146,0.072-0.228,0.072c-0.017,0-0.034,0-0.05,0
			c-0.019,0-0.035-0.009-0.05-0.015c-0.101-0.029-0.175-0.086-0.226-0.177c-0.049-0.089-0.059-0.183-0.029-0.284l1.037-3.593h-1.354
			c-0.104,0-0.192-0.035-0.266-0.106c-0.071-0.075-0.108-0.161-0.108-0.265s0.037-0.195,0.108-0.266
			c0.073-0.071,0.162-0.108,0.266-0.108h1.846C74.22,49.479,74.319,49.528,74.393,49.625z"/>
		<path fill="#8C230E" d="M76.998,53.133c0.004,0.021,0.004,0.039,0,0.057v0.029c-0.017,0.286-0.1,0.523-0.25,0.702
			c-0.183,0.231-0.44,0.378-0.776,0.431c-0.079,0.014-0.172,0.025-0.281,0.025h-0.029h-0.024c-0.088,0-0.176-0.008-0.263-0.02
			c-0.349-0.058-0.616-0.205-0.803-0.438c-0.166-0.215-0.249-0.494-0.249-0.842c0-0.614,0.146-1.069,0.436-1.363l0.015-0.015
			c-0.085-0.102-0.146-0.232-0.193-0.393c-0.021-0.085-0.037-0.183-0.05-0.29c-0.012-0.105-0.02-0.232-0.02-0.371v-0.051
			c0-0.043,0.003-0.097,0.005-0.162s0.013-0.14,0.032-0.219c0.018-0.077,0.042-0.156,0.079-0.243
			c0.034-0.079,0.086-0.158,0.152-0.233c0.069-0.083,0.171-0.161,0.31-0.232c0.138-0.08,0.32-0.118,0.55-0.118h0.024h0.029
			c0.229,0,0.412,0.038,0.543,0.118c0.137,0.071,0.237,0.149,0.308,0.232c0.07,0.075,0.119,0.154,0.156,0.233
			c0.037,0.087,0.065,0.166,0.084,0.243c0.019,0.079,0.027,0.152,0.031,0.219c0.002,0.065,0.002,0.119,0.002,0.162
			c0,0.021,0,0.039-0.006,0.051c0,0.139-0.006,0.266-0.018,0.371c-0.01,0.107-0.024,0.205-0.05,0.29
			c-0.044,0.159-0.108,0.291-0.187,0.393l0.013,0.015c0.285,0.287,0.43,0.746,0.43,1.363V53.133z M76.251,53.08
			c0-0.409-0.075-0.689-0.219-0.847c-0.083-0.086-0.207-0.136-0.37-0.161c-0.173,0.025-0.295,0.075-0.368,0.161
			c-0.147,0.157-0.224,0.438-0.224,0.847v0.024c0.002,0.014,0.011,0.055,0.025,0.111c0.012,0.057,0.038,0.118,0.078,0.18
			c0.079,0.13,0.192,0.207,0.344,0.229c0.019,0,0.044,0,0.068,0.003c0.025,0.004,0.051,0.004,0.075,0.004
			c0.029,0,0.054,0,0.081-0.004c0.029-0.003,0.052-0.003,0.073-0.011c0.154-0.021,0.268-0.1,0.347-0.226
			c0.029-0.054,0.05-0.101,0.063-0.146c0.011-0.051,0.019-0.082,0.024-0.104L76.251,53.08L76.251,53.08z M75.254,50.677
			c0,0.114,0.006,0.204,0.017,0.275c0.012,0.067,0.021,0.125,0.033,0.168c0.01,0.04,0.021,0.069,0.03,0.091
			c0.011,0.018,0.02,0.028,0.021,0.032c0.024,0.021,0.066,0.033,0.127,0.043c0.053,0.004,0.115,0.011,0.179,0.011
			c0.065,0,0.127-0.007,0.186-0.011c0.058-0.01,0.098-0.021,0.118-0.043c0.005-0.004,0.011-0.015,0.025-0.032
			c0.01-0.021,0.021-0.055,0.031-0.098s0.022-0.107,0.03-0.182c0.009-0.08,0.01-0.177,0.01-0.298c0-0.007,0.004-0.015,0.008-0.019
			v-0.031h-0.008l0.008-0.007c-0.004-0.04-0.013-0.095-0.028-0.165c-0.016-0.064-0.042-0.122-0.091-0.169
			c-0.01-0.011-0.037-0.032-0.079-0.059c-0.042-0.027-0.108-0.045-0.21-0.049c-0.098,0.004-0.166,0.021-0.208,0.049
			c-0.042,0.025-0.066,0.047-0.079,0.059c-0.046,0.047-0.075,0.104-0.094,0.169c-0.016,0.07-0.025,0.125-0.025,0.165v0.007
			C75.256,50.62,75.256,50.649,75.254,50.677z"/>
		<path fill="#8C230E" d="M79.515,53.133c0.004,0.021,0.004,0.039,0,0.057v0.029c-0.019,0.286-0.101,0.523-0.249,0.702
			c-0.184,0.231-0.443,0.378-0.776,0.431c-0.079,0.014-0.172,0.025-0.28,0.025h-0.033h-0.023c-0.085,0-0.172-0.008-0.261-0.02
			c-0.349-0.058-0.614-0.205-0.804-0.438c-0.164-0.215-0.244-0.494-0.244-0.842c0-0.614,0.142-1.069,0.434-1.363l0.012-0.015
			c-0.083-0.102-0.147-0.232-0.197-0.393c-0.017-0.085-0.032-0.183-0.044-0.29c-0.015-0.105-0.021-0.232-0.021-0.371v-0.051
			c0-0.043,0.004-0.097,0.006-0.162c0-0.065,0.009-0.14,0.028-0.219c0.02-0.077,0.048-0.156,0.081-0.243
			c0.034-0.079,0.088-0.158,0.151-0.233c0.071-0.083,0.178-0.161,0.311-0.232c0.139-0.08,0.32-0.118,0.547-0.118h0.023h0.033
			c0.229,0,0.409,0.038,0.545,0.118c0.133,0.071,0.233,0.149,0.305,0.232c0.067,0.075,0.119,0.154,0.155,0.233
			c0.039,0.087,0.066,0.166,0.084,0.243c0.019,0.079,0.029,0.152,0.031,0.219c0.002,0.065,0.003,0.119,0.003,0.162
			c0,0.021-0.001,0.039-0.005,0.051c0,0.139-0.008,0.266-0.02,0.371c-0.009,0.107-0.026,0.205-0.051,0.29
			c-0.046,0.159-0.107,0.291-0.185,0.393l0.008,0.015c0.289,0.287,0.432,0.746,0.432,1.363v0.055H79.515z M78.77,53.08
			c0-0.409-0.071-0.689-0.219-0.847c-0.083-0.086-0.205-0.136-0.374-0.161c-0.169,0.025-0.29,0.075-0.365,0.161
			c-0.15,0.157-0.226,0.438-0.226,0.847v0.024c0.006,0.014,0.016,0.055,0.024,0.111c0.016,0.057,0.041,0.118,0.083,0.18
			c0.079,0.13,0.193,0.207,0.343,0.229c0.021,0,0.041,0,0.068,0.003c0.022,0.004,0.048,0.004,0.073,0.004
			c0.028,0,0.058,0,0.085-0.004c0.026-0.003,0.05-0.003,0.068-0.011c0.154-0.021,0.271-0.1,0.352-0.226
			c0.03-0.054,0.05-0.101,0.062-0.146c0.014-0.051,0.021-0.082,0.025-0.104V53.08z M77.775,50.677c0,0.114,0.006,0.204,0.015,0.275
			c0.012,0.067,0.021,0.125,0.029,0.168c0.013,0.04,0.021,0.069,0.033,0.091c0.008,0.018,0.016,0.028,0.021,0.032
			c0.024,0.021,0.065,0.033,0.125,0.043c0.059,0.004,0.117,0.011,0.179,0.011c0.07,0,0.13-0.007,0.188-0.011
			c0.06-0.01,0.096-0.021,0.116-0.043c0.006-0.004,0.013-0.015,0.026-0.032c0.015-0.021,0.025-0.055,0.037-0.098
			c0.008-0.043,0.019-0.107,0.027-0.182c0.008-0.08,0.013-0.177,0.013-0.298c0-0.007,0-0.015,0.004-0.019v-0.031h-0.004l0.004-0.007
			c-0.004-0.04-0.011-0.095-0.028-0.165c-0.015-0.064-0.044-0.122-0.089-0.169c-0.015-0.011-0.038-0.032-0.081-0.059
			c-0.042-0.027-0.112-0.045-0.213-0.049c-0.094,0.004-0.164,0.021-0.203,0.049c-0.043,0.025-0.068,0.047-0.082,0.059
			c-0.044,0.047-0.077,0.104-0.095,0.169c-0.017,0.07-0.022,0.125-0.022,0.165v0.007C77.781,50.62,77.781,50.649,77.775,50.677z"/>
		<path fill="#8C230E" d="M85.505,54.063c-0.03,0.1-0.096,0.17-0.188,0.215c-0.05,0.023-0.11,0.035-0.169,0.035
			c-0.072,0-0.135-0.014-0.193-0.051c-0.06-0.036-0.104-0.086-0.137-0.154l-0.921-1.813l-0.283,0.459v1.216
			c0,0.102-0.039,0.189-0.111,0.262c-0.071,0.071-0.16,0.107-0.267,0.107c-0.103,0-0.188-0.036-0.26-0.107
			c-0.075-0.071-0.11-0.16-0.11-0.262V52.65v-0.007v-2.786c0-0.101,0.035-0.19,0.11-0.261c0.07-0.073,0.157-0.112,0.26-0.112
			c0.105,0,0.195,0.039,0.267,0.112c0.073,0.07,0.111,0.16,0.111,0.261v1.473l1.018-1.648c0.054-0.093,0.13-0.151,0.231-0.172
			c0.1-0.025,0.194-0.008,0.285,0.043c0.086,0.057,0.141,0.132,0.169,0.233c0.023,0.097,0.008,0.188-0.05,0.279l-0.915,1.483
			l1.13,2.228C85.529,53.866,85.534,53.968,85.505,54.063z"/>
		<path fill="#8C230E" d="M86.471,49.461c0.107,0,0.198,0.033,0.269,0.108c0.069,0.07,0.105,0.16,0.105,0.261v4.115
			c0,0.107-0.037,0.193-0.105,0.266c-0.07,0.072-0.16,0.107-0.269,0.107c-0.103,0-0.19-0.035-0.267-0.107
			c-0.071-0.071-0.105-0.157-0.105-0.266v-4.115c0-0.101,0.034-0.19,0.105-0.261C86.28,49.495,86.368,49.461,86.471,49.461z"/>
		<path fill="#8C230E" d="M89.985,53.686c0.071,0.071,0.104,0.157,0.104,0.26c0,0.108-0.032,0.194-0.104,0.267
			s-0.162,0.108-0.269,0.108h-1.621c-0.104,0-0.193-0.036-0.265-0.108c-0.073-0.071-0.108-0.157-0.108-0.267v-4.114
			c0-0.101,0.035-0.19,0.108-0.261c0.071-0.075,0.16-0.108,0.265-0.108c0.1,0,0.189,0.033,0.264,0.108
			c0.073,0.07,0.109,0.16,0.109,0.261v3.743h1.248C89.823,53.573,89.913,53.609,89.985,53.686z"/>
		<path fill="#8C230E" d="M93.036,53.083c0,0.025,0,0.076-0.004,0.14c0,0.071-0.014,0.147-0.031,0.237
			c-0.022,0.09-0.054,0.186-0.102,0.287c-0.048,0.099-0.11,0.191-0.194,0.283c-0.066,0.078-0.174,0.152-0.312,0.229
			c-0.139,0.076-0.317,0.111-0.537,0.111c-0.225,0-0.397-0.036-0.532-0.111c-0.133-0.075-0.237-0.15-0.308-0.229
			c-0.081-0.092-0.146-0.191-0.188-0.291c-0.046-0.107-0.075-0.204-0.094-0.297c-0.021-0.094-0.029-0.176-0.029-0.248
			s0-0.126,0-0.154v-2.381c0-0.247,0.042-0.448,0.124-0.602c0.085-0.155,0.169-0.27,0.256-0.35c0.212-0.199,0.469-0.3,0.771-0.3
			c0.141,0,0.281,0.024,0.422,0.075c0.141,0.05,0.266,0.129,0.381,0.229c0.11,0.108,0.2,0.237,0.273,0.396
			c0.068,0.157,0.104,0.345,0.104,0.556L93.036,53.083L93.036,53.083z M92.165,53.517c0.031-0.029,0.055-0.062,0.067-0.104
			c0.017-0.04,0.033-0.083,0.041-0.126c0.006-0.04,0.012-0.074,0.015-0.106c0.002-0.029,0.002-0.051,0.002-0.065v-0.011v-2.441
			c0-0.107-0.013-0.198-0.048-0.265c-0.028-0.065-0.067-0.116-0.109-0.155c-0.044-0.036-0.09-0.062-0.139-0.072
			c-0.052-0.009-0.098-0.013-0.139-0.013c-0.033,0-0.075,0.004-0.118,0.013c-0.046,0.012-0.088,0.032-0.133,0.065
			c-0.039,0.032-0.077,0.086-0.106,0.154c-0.033,0.067-0.048,0.157-0.048,0.27v2.413v0.011c0,0.021,0,0.051,0,0.09
			c0,0.036,0.004,0.074,0.016,0.114c0.007,0.043,0.017,0.086,0.035,0.13c0.018,0.043,0.04,0.082,0.069,0.11
			c0.01,0.012,0.039,0.028,0.079,0.057c0.042,0.025,0.112,0.041,0.206,0.041c0.108,0,0.185-0.016,0.227-0.044
			C92.124,53.551,92.154,53.53,92.165,53.517z"/>
		<path fill="#8C230E" d="M96.523,53.946c0,0.107-0.035,0.193-0.109,0.266c-0.072,0.072-0.158,0.107-0.261,0.107
			c-0.106,0-0.194-0.035-0.266-0.107c-0.075-0.071-0.11-0.157-0.11-0.266v-2.561l-0.394,0.771c-0.032,0.09-0.09,0.159-0.179,0.202
			c-0.052,0.021-0.1,0.035-0.156,0.035h-0.006h-0.006h-0.006h-0.007c-0.052,0-0.106-0.014-0.154-0.035
			c-0.087-0.043-0.146-0.112-0.183-0.202l-0.39-0.771v2.561c0,0.107-0.034,0.193-0.109,0.266c-0.071,0.072-0.158,0.107-0.265,0.107
			c-0.102,0-0.189-0.035-0.264-0.107c-0.071-0.071-0.106-0.157-0.106-0.266v-4.115v-0.015v-0.021v-0.008v-0.003
			c0,0,0-0.007,0.003-0.007c0,0,0.004-0.004,0.004-0.008V49.76v-0.01c0-0.004,0-0.008,0-0.012c0.004,0,0.006-0.004,0.006-0.008
			c0.004-0.025,0.012-0.05,0.022-0.067c0-0.008,0.002-0.008,0.004-0.008c0.003,0,0.003-0.003,0.003-0.007l0.007-0.007l0.008-0.004
			c0-0.004,0-0.012,0.004-0.015V49.62l0.013-0.015c0.008-0.007,0.017-0.013,0.021-0.021c0.008-0.015,0.014-0.018,0.022-0.029
			l0.011-0.011h0.008c0,0,0.002-0.007,0.004-0.007c0,0,0.003,0,0.003-0.008h0.004c0.006-0.004,0.01-0.004,0.014-0.004
			c0-0.007,0-0.007,0.009-0.007l0.002-0.006l0.016-0.008C93.742,49.5,93.746,49.5,93.75,49.5l0.006-0.007
			c0.004,0,0.008-0.003,0.014-0.007c0.006,0,0.006,0,0.006,0c0.006-0.008,0.01-0.008,0.012-0.008c0.005,0,0.009,0,0.011,0
			c0,0,0.005-0.004,0.009-0.004s0.008-0.004,0.016-0.007h0.004h0.013l0.004-0.007h0.009h0.014h0.004
			c0.006-0.004,0.008-0.004,0.013-0.004h0.007h0.019h0.018h0.02h0.014h0.004c0.006,0,0.011,0,0.016,0.004h0.012h0.006h0.012
			c0.018,0.007,0.031,0.014,0.044,0.018c0.013,0,0.025,0.008,0.037,0.015h0.009c0,0.003,0.004,0.007,0.012,0.007
			c0,0.004,0.004,0.004,0.006,0.004l0.005,0.008c0.006,0,0.01,0.004,0.014,0.006l0.015,0.011h0.004
			c0.021,0.015,0.04,0.033,0.05,0.055l0.013,0.01l0.013,0.011c0,0.008,0,0.008,0.002,0.008c0.004,0,0.004,0,0.004,0.007l0.008,0.003
			l0.004,0.007c0,0,0.004,0.012,0.008,0.012c0,0.007,0.002,0.007,0.004,0.011c0,0,0.004,0.003,0.004,0.011l0.782,1.535l0.782-1.535
			c0-0.011,0.004-0.015,0.006-0.021c0.006,0,0.008-0.008,0.008-0.008c0.004-0.004,0.009-0.008,0.009-0.008l0.002-0.006
			c0-0.007,0.004-0.007,0.009-0.015l0.014-0.011l0.009-0.01c0.017-0.021,0.029-0.04,0.051-0.055l0.016-0.011h0.005
			c0.002-0.002,0.008-0.006,0.012-0.006l0.009-0.008c0,0,0.004,0,0.004-0.004c0.008,0,0.014-0.004,0.014-0.007h0.004
			c0.009-0.007,0.021-0.015,0.032-0.015c0.012-0.004,0.022-0.008,0.031-0.011c0.008,0,0.014,0,0.018-0.007h0.012h0.007h0.015
			c0-0.004,0-0.004,0.008-0.004h0.012h0.013h0.021h0.019h0.017c0.008,0,0.016,0,0.018,0.004h0.015h0.011l0.008,0.007h0.014h0.007
			l0.012,0.007c0.006,0,0.007,0,0.009,0.004c0.002,0,0.006,0,0.01,0s0.008,0.004,0.012,0.008h0.008
			c0.002,0.004,0.006,0.007,0.012,0.007V49.5c0.009,0,0.013,0,0.018,0.004c0.006,0.008,0.01,0.008,0.014,0.008l0.008,0.006
			l0.004,0.007c0.004,0,0.007,0,0.011,0.004l0.015,0.015c0.01,0,0.014,0.004,0.014,0.011c0.021,0.015,0.036,0.029,0.05,0.05
			l0.014,0.015v0.003c0.002,0.003,0.004,0.011,0.004,0.015c0.004,0,0.006,0.004,0.006,0.004l0.008,0.007
			c0,0.004,0.002,0.007,0.006,0.015c0.01,0.018,0.019,0.042,0.025,0.067c0,0.008,0.002,0.016,0.006,0.02v0.01v0.008
			c0,0.004,0.002,0.011,0.006,0.015v0.003v0.008v0.021v0.015v4.114H96.523z"/>
		<path fill="#8C230E" d="M99.34,53.678c0.073,0.071,0.11,0.16,0.11,0.262c0,0.107-0.037,0.192-0.11,0.266
			c-0.07,0.074-0.159,0.107-0.264,0.107h-1.524c-0.105,0-0.19-0.033-0.264-0.107c-0.073-0.072-0.107-0.157-0.107-0.266v-4.117
			c0-0.101,0.034-0.191,0.107-0.258c0.073-0.075,0.158-0.112,0.264-0.112h1.524c0.104,0,0.192,0.037,0.264,0.112
			c0.073,0.066,0.11,0.157,0.11,0.258c0,0.11-0.037,0.2-0.11,0.271c-0.07,0.07-0.159,0.104-0.264,0.104h-1.147v1.569h0.793
			c0.102,0,0.194,0.034,0.266,0.105c0.071,0.073,0.11,0.158,0.11,0.266c0,0.104-0.039,0.191-0.11,0.267
			c-0.071,0.07-0.164,0.107-0.266,0.107h-0.793v1.057h1.147C99.182,53.569,99.27,53.606,99.34,53.678z"/>
		<path fill="#8C230E" d="M102.376,49.572c0.072,0.071,0.106,0.157,0.106,0.265c0,0.104-0.034,0.194-0.106,0.266
			c-0.075,0.071-0.162,0.107-0.266,0.107h-0.578v3.729c0,0.107-0.035,0.192-0.109,0.266c-0.073,0.074-0.159,0.107-0.262,0.107
			c-0.104,0-0.196-0.033-0.266-0.107c-0.071-0.072-0.108-0.157-0.108-0.266V50.21h-0.593c-0.104,0-0.191-0.036-0.26-0.107
			c-0.076-0.071-0.112-0.162-0.112-0.266c0-0.107,0.037-0.193,0.112-0.265c0.068-0.072,0.156-0.107,0.26-0.107h1.917
			C102.214,49.465,102.301,49.5,102.376,49.572z"/>
		<path fill="#8C230E" d="M105.066,53.678c0.074,0.071,0.105,0.16,0.105,0.262c0,0.107-0.031,0.192-0.105,0.266
			c-0.073,0.074-0.158,0.107-0.262,0.107h-1.524c-0.104,0-0.195-0.033-0.266-0.107c-0.072-0.072-0.11-0.157-0.11-0.266v-4.117
			c0-0.101,0.039-0.191,0.11-0.258c0.07-0.075,0.16-0.112,0.266-0.112h1.524c0.104,0,0.188,0.037,0.262,0.112
			c0.074,0.066,0.105,0.157,0.105,0.258c0,0.11-0.031,0.2-0.105,0.271c-0.073,0.07-0.158,0.104-0.262,0.104h-1.152v1.569h0.795
			c0.104,0,0.193,0.034,0.267,0.105c0.069,0.073,0.107,0.158,0.107,0.266c0,0.104-0.039,0.191-0.107,0.267
			c-0.073,0.07-0.162,0.107-0.267,0.107h-0.795v1.057h1.152C104.908,53.569,104.993,53.606,105.066,53.678z"/>
		<path fill="#8C230E" d="M108.29,53.792c0.044,0.095,0.048,0.191,0.008,0.288c-0.039,0.093-0.104,0.161-0.203,0.204
			c-0.049,0.018-0.099,0.027-0.148,0.027c-0.07,0-0.135-0.013-0.199-0.058c-0.062-0.039-0.107-0.093-0.143-0.163l-0.689-1.577
			h-0.374v1.427c0,0.107-0.035,0.192-0.105,0.266c-0.075,0.074-0.162,0.107-0.269,0.107c-0.102,0-0.188-0.033-0.264-0.107
			c-0.071-0.072-0.107-0.157-0.107-0.266v-4.103c0-0.104,0.037-0.189,0.107-0.265c0.076-0.072,0.162-0.107,0.264-0.107h0.901
			c0.16,0,0.312,0.047,0.455,0.132c0.146,0.09,0.272,0.219,0.381,0.385c0.183,0.292,0.279,0.63,0.279,1.007
			c0,0.184-0.027,0.358-0.072,0.53c-0.048,0.169-0.121,0.326-0.208,0.47c-0.044,0.062-0.087,0.119-0.133,0.168
			c-0.046,0.051-0.091,0.098-0.138,0.137L108.29,53.792z M107.07,51.769c0.022,0,0.052-0.016,0.087-0.045
			c0.035-0.025,0.073-0.071,0.117-0.139c0.058-0.083,0.097-0.177,0.123-0.277c0.026-0.105,0.043-0.207,0.043-0.318
			c0-0.107-0.017-0.216-0.043-0.319c-0.026-0.108-0.065-0.201-0.123-0.283c-0.044-0.064-0.083-0.108-0.117-0.133
			c-0.035-0.029-0.063-0.043-0.087-0.043h-0.527v1.558L107.07,51.769L107.07,51.769z"/>
		<path fill="#8C230E" d="M110.9,52.04c0.247,0.308,0.368,0.666,0.368,1.075c0,0.13-0.015,0.244-0.041,0.345
			c-0.027,0.1-0.061,0.193-0.099,0.27c-0.041,0.082-0.085,0.149-0.137,0.207c-0.048,0.059-0.096,0.107-0.148,0.151
			c-0.23,0.183-0.512,0.274-0.844,0.274c-0.164,0-0.313-0.021-0.457-0.062c-0.139-0.052-0.262-0.12-0.37-0.212
			c-0.046-0.04-0.093-0.087-0.143-0.147c-0.044-0.058-0.089-0.125-0.129-0.201c-0.039-0.083-0.069-0.172-0.097-0.274
			c-0.024-0.104-0.038-0.219-0.038-0.355c0-0.104,0.038-0.19,0.109-0.266c0.073-0.071,0.162-0.108,0.267-0.108
			c0.107,0,0.196,0.037,0.264,0.108c0.073,0.075,0.107,0.161,0.107,0.266c0,0.058,0.004,0.118,0.018,0.179
			c0.008,0.058,0.031,0.114,0.063,0.166c0.035,0.046,0.081,0.086,0.146,0.121c0.063,0.028,0.15,0.043,0.258,0.043
			c0.075,0,0.142-0.011,0.208-0.029c0.063-0.014,0.118-0.042,0.164-0.082c0.102-0.089,0.15-0.219,0.15-0.391
			c0-0.129-0.019-0.239-0.05-0.337c-0.031-0.094-0.083-0.183-0.146-0.262c-0.066-0.082-0.145-0.157-0.237-0.231
			c-0.094-0.072-0.195-0.148-0.312-0.232c-0.108-0.077-0.214-0.152-0.322-0.233c-0.104-0.079-0.203-0.174-0.295-0.274
			c-0.108-0.136-0.191-0.271-0.245-0.416c-0.056-0.143-0.083-0.301-0.083-0.469c0-0.024,0-0.068,0.002-0.14
			c0.004-0.062,0.01-0.141,0.031-0.226c0.02-0.087,0.05-0.18,0.092-0.273c0.044-0.097,0.108-0.189,0.191-0.275
			c0.07-0.079,0.177-0.153,0.315-0.229c0.142-0.076,0.324-0.112,0.547-0.112c0.228,0,0.41,0.036,0.543,0.116
			c0.138,0.075,0.239,0.153,0.31,0.232c0.079,0.097,0.137,0.192,0.177,0.301c0.038,0.104,0.067,0.2,0.077,0.294
			c0.014,0.089,0.02,0.164,0.014,0.229c-0.006,0.068-0.01,0.107-0.014,0.122c-0.01,0.07-0.035,0.132-0.073,0.187
			c-0.035,0.043-0.079,0.082-0.137,0.113c-0.054,0.028-0.129,0.036-0.224,0.016c-0.093-0.016-0.162-0.047-0.204-0.094
			c-0.042-0.039-0.072-0.086-0.087-0.133c-0.015-0.051-0.021-0.089-0.019-0.129c0.004-0.039,0.004-0.057,0.004-0.068
			c0.004-0.018,0.008-0.043,0.008-0.071c0-0.025-0.004-0.058-0.012-0.087c-0.008-0.034-0.016-0.07-0.026-0.104
			c-0.012-0.032-0.031-0.061-0.053-0.086c-0.048-0.062-0.143-0.093-0.285-0.093c-0.113,0-0.188,0.016-0.232,0.042
			c-0.044,0.029-0.072,0.051-0.085,0.062c-0.029,0.028-0.05,0.065-0.063,0.101c-0.016,0.036-0.024,0.078-0.035,0.11
			c-0.008,0.04-0.014,0.072-0.016,0.097c-0.002,0.029-0.004,0.048-0.004,0.059v0.015v0.015c0,0.083,0.014,0.157,0.042,0.225
			c0.03,0.068,0.071,0.133,0.124,0.19c0.051,0.063,0.115,0.126,0.196,0.184c0.08,0.06,0.166,0.125,0.266,0.196
			c0.118,0.079,0.237,0.172,0.358,0.266C110.684,51.802,110.798,51.914,110.9,52.04z"/>
		<path fill="#8C230E" d="M77.144,56.936c0.1,0,0.191,0.036,0.266,0.107c0.069,0.076,0.107,0.162,0.107,0.27v4.105
			c0,0.104-0.039,0.193-0.107,0.266c-0.074,0.071-0.166,0.107-0.266,0.107c-0.103,0-0.193-0.036-0.265-0.107
			c-0.071-0.07-0.107-0.16-0.107-0.266v-1.686h-1.426c-0.059,0-0.112-0.009-0.162-0.033c-0.055-0.025-0.098-0.062-0.129-0.108
			c-0.08-0.101-0.104-0.204-0.068-0.323l0.547-2.05c0.027-0.098,0.08-0.177,0.17-0.228c0.09-0.055,0.184-0.063,0.283-0.043
			c0.1,0.028,0.175,0.091,0.227,0.18c0.053,0.091,0.066,0.188,0.042,0.283l-0.424,1.578h0.938v-1.676
			c0-0.106,0.037-0.192,0.107-0.27C76.95,56.972,77.041,56.936,77.144,56.936z"/>
		<path fill="#8C230E" d="M78.236,60.963c0.096-0.027,0.195-0.016,0.289,0.039c0.086,0.051,0.145,0.125,0.169,0.223
			c0.029,0.103,0.02,0.193-0.033,0.283l-0.44,0.768c-0.055,0.094-0.132,0.154-0.229,0.181c-0.101,0.024-0.195,0.014-0.285-0.037
			c-0.091-0.054-0.154-0.13-0.177-0.229c-0.025-0.098-0.01-0.192,0.046-0.278l0.438-0.771C78.064,61.049,78.14,60.991,78.236,60.963
			z"/>
		<path fill="#8C230E" d="M80.997,60.481c0.104,0,0.193,0.039,0.265,0.109c0.071,0.071,0.111,0.162,0.111,0.266
			c0,0.115-0.012,0.229-0.028,0.345c-0.021,0.118-0.066,0.227-0.136,0.319c-0.085,0.114-0.192,0.199-0.33,0.246
			c-0.111,0.04-0.25,0.064-0.413,0.064h-1.223c-0.102,0-0.192-0.035-0.264-0.111c-0.073-0.07-0.112-0.156-0.112-0.265
			c0-0.211,0.033-0.415,0.094-0.604c0.061-0.189,0.138-0.368,0.233-0.536c0.093-0.174,0.199-0.33,0.315-0.487
			c0.113-0.151,0.233-0.304,0.349-0.438c0.093-0.115,0.176-0.223,0.261-0.333c0.083-0.104,0.157-0.211,0.223-0.319
			c0.068-0.104,0.119-0.207,0.158-0.312c0.042-0.108,0.06-0.208,0.06-0.312v-0.025c0.004-0.032,0-0.089-0.016-0.168
			c-0.014-0.079-0.046-0.146-0.097-0.204c-0.014-0.015-0.042-0.03-0.086-0.062c-0.048-0.024-0.122-0.041-0.229-0.041
			c-0.146,0-0.242,0.033-0.292,0.088c-0.046,0.054-0.071,0.121-0.077,0.203c-0.009,0.08-0.01,0.131-0.005,0.145
			c0.017,0.104-0.005,0.202-0.068,0.28c-0.062,0.085-0.146,0.132-0.249,0.143c-0.104,0.015-0.198-0.007-0.275-0.067
			c-0.084-0.062-0.129-0.145-0.146-0.248c0-0.01,0-0.051-0.008-0.116c-0.004-0.065,0-0.146,0.014-0.234s0.037-0.183,0.073-0.291
			c0.032-0.104,0.093-0.2,0.176-0.296c0.071-0.083,0.175-0.158,0.312-0.232c0.136-0.078,0.318-0.115,0.547-0.115
			c0.223,0,0.403,0.037,0.542,0.107c0.142,0.074,0.243,0.149,0.313,0.229c0.08,0.087,0.143,0.176,0.188,0.275
			c0.045,0.099,0.078,0.19,0.097,0.272c0.02,0.086,0.028,0.162,0.028,0.226c0.004,0.068,0.004,0.115,0.004,0.142
			c0,0.167-0.025,0.329-0.077,0.479c-0.046,0.157-0.113,0.305-0.195,0.444c-0.083,0.144-0.179,0.283-0.281,0.42
			c-0.104,0.132-0.209,0.269-0.317,0.394c-0.165,0.205-0.319,0.406-0.46,0.604c-0.146,0.193-0.247,0.4-0.306,0.624h0.795
			c0.037,0,0.07-0.004,0.093-0.004c0.021-0.004,0.041-0.007,0.05-0.011c0.004-0.019,0.008-0.039,0.012-0.072
			c0-0.031,0.004-0.079,0.004-0.143c0-0.104,0.033-0.194,0.106-0.267C80.801,60.52,80.894,60.481,80.997,60.481z"/>
		<path fill="#8C230E" d="M83.922,61.151c0.073,0.071,0.107,0.16,0.107,0.261c0,0.108-0.035,0.194-0.107,0.266
			c-0.071,0.071-0.159,0.108-0.265,0.108h-1.614c-0.104,0-0.192-0.037-0.266-0.108c-0.071-0.069-0.107-0.157-0.107-0.266
			c0-0.101,0.036-0.188,0.107-0.261c0.073-0.072,0.162-0.106,0.266-0.106h0.447v-2.837l-0.156,0.152
			c-0.069,0.072-0.158,0.104-0.262,0.104c-0.103,0-0.191-0.032-0.268-0.104c-0.07-0.071-0.106-0.159-0.106-0.265
			c0-0.104,0.037-0.19,0.106-0.262l0.79-0.79c0.056-0.057,0.118-0.089,0.194-0.104c0.075-0.015,0.146-0.007,0.217,0.021
			c0.072,0.028,0.125,0.076,0.168,0.141c0.039,0.059,0.062,0.124,0.062,0.2v3.741h0.422C83.763,61.043,83.851,61.078,83.922,61.151z
			"/>
		<path fill="#8C230E" d="M86.442,60.481c0.104,0,0.193,0.039,0.266,0.109c0.072,0.071,0.108,0.162,0.108,0.266
			c0,0.115-0.01,0.229-0.025,0.345c-0.021,0.118-0.064,0.227-0.137,0.319c-0.083,0.114-0.191,0.199-0.33,0.246
			c-0.112,0.04-0.249,0.064-0.409,0.064H84.69c-0.105,0-0.191-0.035-0.267-0.111c-0.072-0.07-0.107-0.156-0.107-0.265
			c0-0.211,0.031-0.415,0.088-0.604c0.062-0.189,0.141-0.368,0.235-0.536c0.095-0.174,0.198-0.33,0.317-0.487
			c0.113-0.151,0.231-0.304,0.348-0.438c0.094-0.115,0.177-0.223,0.262-0.333c0.083-0.104,0.156-0.211,0.223-0.319
			c0.064-0.104,0.119-0.207,0.156-0.312c0.041-0.108,0.062-0.208,0.062-0.312v-0.025c0.004-0.032-0.002-0.089-0.015-0.168
			c-0.016-0.079-0.046-0.146-0.097-0.204c-0.014-0.015-0.042-0.03-0.086-0.062c-0.047-0.024-0.124-0.041-0.231-0.041
			c-0.147,0-0.243,0.033-0.291,0.088c-0.046,0.054-0.072,0.121-0.082,0.203c-0.007,0.08-0.007,0.131-0.004,0.145
			c0.021,0.104-0.003,0.202-0.065,0.28c-0.062,0.085-0.145,0.132-0.248,0.143c-0.104,0.015-0.197-0.007-0.275-0.067
			c-0.083-0.062-0.131-0.145-0.146-0.248c0-0.01-0.004-0.051-0.008-0.116s0-0.146,0.015-0.234c0.012-0.089,0.033-0.183,0.07-0.291
			c0.033-0.104,0.094-0.2,0.179-0.296c0.068-0.083,0.173-0.158,0.312-0.232c0.137-0.078,0.319-0.115,0.545-0.115
			c0.224,0,0.405,0.037,0.543,0.107c0.139,0.074,0.245,0.149,0.316,0.229c0.077,0.087,0.141,0.176,0.185,0.275
			c0.048,0.099,0.078,0.19,0.097,0.272c0.021,0.086,0.029,0.162,0.03,0.226c0.004,0.068,0.004,0.115,0.004,0.142
			c0,0.167-0.023,0.329-0.075,0.479c-0.05,0.157-0.115,0.305-0.196,0.444c-0.084,0.144-0.178,0.283-0.279,0.42
			c-0.105,0.132-0.211,0.269-0.319,0.394c-0.166,0.205-0.319,0.406-0.462,0.604c-0.145,0.193-0.245,0.4-0.301,0.624h0.795
			c0.035,0,0.068-0.004,0.089-0.004c0.021-0.004,0.04-0.007,0.055-0.011c0.004-0.019,0.008-0.039,0.008-0.072
			c0.004-0.031,0.004-0.079,0.004-0.143c0-0.104,0.035-0.194,0.11-0.267C86.252,60.52,86.339,60.481,86.442,60.481z"/>
		<path fill="#8C230E" d="M93.389,61.407c0,0.104-0.037,0.194-0.108,0.262c-0.073,0.076-0.162,0.111-0.268,0.111
			c-0.103,0-0.191-0.035-0.265-0.111c-0.072-0.066-0.109-0.156-0.109-0.262v-2.56l-0.391,0.771
			c-0.031,0.089-0.094,0.153-0.181,0.196c-0.05,0.023-0.104,0.035-0.154,0.035h-0.007h-0.008h-0.003H91.89
			c-0.055,0-0.106-0.012-0.154-0.035c-0.088-0.043-0.148-0.107-0.183-0.196l-0.392-0.771v2.56c0,0.104-0.037,0.194-0.106,0.262
			c-0.072,0.076-0.162,0.111-0.267,0.111c-0.102,0-0.19-0.035-0.264-0.111c-0.073-0.066-0.106-0.156-0.106-0.262v-4.114v-0.019
			v-0.02v-0.007v-0.007c0-0.004,0-0.008,0-0.008c0.004,0,0.004,0,0.004-0.009v-0.001v-0.014c0,0,0-0.004,0.004-0.008
			c0.003-0.004,0.003-0.004,0.003-0.006c0.006-0.029,0.014-0.051,0.022-0.072c0-0.004,0.004-0.004,0.005-0.004
			c0.002,0,0.002-0.004,0.002-0.006l0.008-0.008l0.007-0.005c0-0.007,0.002-0.011,0.008-0.014V57.08l0.012-0.015
			c0.006-0.008,0.013-0.016,0.021-0.022c0.008-0.011,0.014-0.019,0.021-0.027l0.014-0.011h0.003L90.554,57
			c0.004,0,0.004-0.004,0.004-0.008h0.008c0.006-0.008,0.008-0.008,0.012-0.008c0,0,0.004-0.002,0.008-0.002l0.008-0.009l0.01-0.008
			c0.004-0.003,0.01-0.007,0.016-0.007l0.004-0.007c0.006,0,0.008,0,0.015-0.009c0.004,0,0.008,0,0.008,0
			c0.003-0.004,0.007-0.004,0.009-0.004c0.004,0,0.008,0,0.012-0.002c0-0.005,0.004-0.005,0.008-0.005
			c0.003,0,0.008-0.002,0.014-0.006h0.007h0.01l0.006-0.004h0.008h0.013h0.008c0.002-0.004,0.007-0.008,0.011-0.008h0.008h0.019
			h0.017h0.015h0.015h0.008c0.002,0,0.005,0.004,0.011,0.008h0.013h0.006h0.012c0.015,0.008,0.033,0.01,0.044,0.015
			c0.012,0.002,0.025,0.006,0.037,0.015h0.007c0,0,0.002,0.007,0.013,0.007c0,0,0.002,0.007,0.005,0.007l0.008,0.008
			c0.004,0,0.006,0,0.01,0.009l0.016,0.01h0.005c0.022,0.012,0.038,0.027,0.052,0.05l0.011,0.016l0.012,0.007
			c0,0.008,0.002,0.008,0.002,0.008c0.004,0,0.004,0,0.004,0.008l0.008,0.008l0.008,0.003c0,0.004,0,0.011,0.005,0.015
			c0,0.004,0,0.008,0.002,0.01c0.002,0,0.002,0.005,0.002,0.009l0.783,1.534l0.786-1.534c0-0.009,0.002-0.015,0.006-0.019
			s0.006-0.011,0.006-0.015c0.004,0,0.008,0,0.008,0l0.005-0.011c0-0.008,0-0.008,0.006-0.016l0.013-0.007l0.014-0.016
			c0.012-0.021,0.027-0.038,0.048-0.05l0.014-0.01h0.008c0.004-0.009,0.008-0.009,0.01-0.009l0.008-0.008
			c0.004,0,0.008-0.003,0.008-0.003c0.009-0.004,0.011-0.007,0.011-0.007l0.005-0.004c0.008-0.009,0.021-0.013,0.033-0.015
			c0.013-0.005,0.022-0.007,0.03-0.011c0.009,0,0.014,0,0.018-0.004h0.015h0.002h0.016c0-0.004,0.003-0.008,0.009-0.008h0.012h0.011
			h0.019h0.02h0.02c0.008,0,0.013,0.004,0.021,0.008h0.01H93.1l0.006,0.004h0.014h0.006l0.012,0.006c0.004,0,0.008,0,0.01,0.005
			c0.002,0.002,0.006,0.002,0.01,0.002s0.008,0.004,0.012,0.004h0.008c0.003,0.009,0.008,0.009,0.012,0.009v0.007
			c0.008,0,0.016,0.004,0.019,0.007c0.004,0.004,0.006,0.008,0.012,0.008l0.007,0.009l0.007,0.002c0.004,0,0.006,0,0.01,0.008
			l0.016,0.012c0.009,0,0.011,0.007,0.011,0.007c0.022,0.019,0.041,0.035,0.05,0.054l0.013,0.016v0.008
			c0.006,0.003,0.008,0.007,0.008,0.014c0.004,0,0.004,0,0.004,0l0.008,0.012c0,0.002,0.002,0.007,0.004,0.011
			c0.012,0.021,0.018,0.043,0.028,0.071c0,0.004,0,0.011,0.005,0.015v0.014v0.003c0,0.008,0.002,0.012,0.008,0.017v0.007v0.007
			v0.019v0.02v4.111H93.389z"/>
		<path fill="#8C230E" d="M94.445,56.918c0.104,0,0.196,0.036,0.266,0.107c0.073,0.075,0.106,0.162,0.106,0.267v4.114
			c0,0.104-0.033,0.194-0.106,0.262c-0.069,0.076-0.16,0.111-0.266,0.111c-0.104,0-0.193-0.035-0.264-0.111
			c-0.071-0.066-0.108-0.156-0.108-0.262v-4.114c0-0.104,0.037-0.19,0.108-0.267C94.251,56.955,94.339,56.918,94.445,56.918z"/>
		<path fill="#8C230E" d="M97.958,61.143c0.069,0.071,0.104,0.161,0.104,0.266c0,0.104-0.035,0.193-0.104,0.261
			c-0.071,0.076-0.162,0.112-0.268,0.112h-1.626c-0.103,0-0.189-0.036-0.265-0.112c-0.07-0.065-0.107-0.156-0.107-0.261v-4.115
			c0-0.104,0.037-0.189,0.107-0.268c0.075-0.07,0.162-0.106,0.265-0.106c0.105,0,0.192,0.036,0.268,0.106
			c0.072,0.076,0.106,0.162,0.106,0.268v3.738h1.252C97.795,61.032,97.887,61.071,97.958,61.143z"/>
		<path fill="#8C230E" d="M100.955,61.135c0.073,0.075,0.108,0.162,0.108,0.268c0,0.104-0.035,0.188-0.108,0.261
			c-0.071,0.075-0.16,0.11-0.264,0.11h-1.523c-0.104,0-0.192-0.035-0.262-0.11c-0.073-0.071-0.111-0.157-0.111-0.261v-4.117
			c0-0.104,0.038-0.189,0.111-0.264c0.069-0.074,0.158-0.106,0.262-0.106h1.523c0.104,0,0.192,0.032,0.264,0.106
			c0.073,0.073,0.108,0.158,0.108,0.264c0,0.111-0.035,0.197-0.108,0.27c-0.071,0.071-0.16,0.104-0.264,0.104h-1.15v1.564h0.796
			c0.104,0,0.192,0.036,0.265,0.108c0.072,0.074,0.107,0.16,0.107,0.265c0,0.107-0.035,0.193-0.107,0.265
			c-0.071,0.072-0.16,0.108-0.265,0.108h-0.796v1.058h1.15C100.794,61.028,100.883,61.065,100.955,61.135z"/>
		<path fill="#8C230E" d="M103.737,59.497c0.245,0.309,0.368,0.668,0.368,1.08c0,0.125-0.017,0.238-0.042,0.343
			c-0.027,0.103-0.059,0.19-0.099,0.271c-0.039,0.082-0.085,0.146-0.135,0.209c-0.048,0.057-0.098,0.104-0.147,0.146
			c-0.233,0.187-0.513,0.278-0.847,0.278c-0.162,0-0.312-0.021-0.455-0.066c-0.141-0.046-0.262-0.114-0.37-0.212
			c-0.046-0.035-0.095-0.082-0.143-0.142c-0.046-0.062-0.091-0.127-0.131-0.205c-0.039-0.079-0.069-0.174-0.097-0.273
			c-0.022-0.104-0.036-0.222-0.036-0.354c0-0.104,0.036-0.193,0.109-0.267c0.073-0.071,0.16-0.11,0.265-0.11
			c0.107,0,0.196,0.039,0.268,0.11c0.07,0.072,0.106,0.162,0.106,0.267c0,0.058,0.004,0.115,0.016,0.176
			c0.009,0.062,0.033,0.115,0.063,0.165c0.034,0.051,0.081,0.089,0.147,0.122c0.061,0.033,0.148,0.046,0.256,0.046
			c0.075,0,0.146-0.009,0.208-0.028c0.062-0.018,0.12-0.047,0.164-0.082c0.104-0.09,0.152-0.219,0.152-0.391
			c0-0.129-0.021-0.241-0.05-0.338c-0.033-0.098-0.083-0.184-0.146-0.262c-0.065-0.087-0.145-0.158-0.239-0.232
			c-0.092-0.071-0.195-0.15-0.312-0.233c-0.106-0.075-0.214-0.153-0.322-0.233c-0.104-0.082-0.202-0.172-0.294-0.274
			c-0.107-0.133-0.188-0.271-0.243-0.413c-0.058-0.145-0.085-0.302-0.085-0.469c0-0.025,0-0.072,0.002-0.141
			c0.003-0.063,0.012-0.141,0.033-0.227c0.017-0.09,0.05-0.179,0.09-0.275c0.044-0.098,0.11-0.187,0.193-0.272
			c0.069-0.079,0.175-0.158,0.315-0.229c0.144-0.074,0.321-0.11,0.548-0.11c0.228,0,0.408,0.036,0.542,0.11
			c0.137,0.079,0.238,0.154,0.308,0.233c0.079,0.096,0.137,0.197,0.179,0.3c0.039,0.108,0.065,0.206,0.077,0.295
			c0.012,0.09,0.018,0.169,0.012,0.234c-0.006,0.066-0.008,0.107-0.012,0.115c-0.012,0.078-0.037,0.138-0.076,0.188
			c-0.029,0.046-0.079,0.083-0.133,0.115c-0.056,0.028-0.131,0.035-0.227,0.014c-0.09-0.014-0.158-0.046-0.203-0.09
			c-0.042-0.039-0.073-0.09-0.086-0.135c-0.016-0.047-0.023-0.093-0.02-0.126c0.004-0.041,0.004-0.062,0.004-0.072
			c0.004-0.014,0.008-0.039,0.008-0.068c0-0.027-0.004-0.058-0.012-0.09c-0.006-0.035-0.014-0.067-0.028-0.101
			c-0.01-0.035-0.028-0.063-0.049-0.089c-0.048-0.062-0.145-0.09-0.284-0.09c-0.113,0-0.189,0.015-0.235,0.039
			c-0.044,0.033-0.071,0.051-0.083,0.064c-0.029,0.027-0.05,0.061-0.065,0.1c-0.014,0.037-0.024,0.075-0.034,0.107
			c-0.009,0.041-0.016,0.072-0.016,0.102c0,0.024-0.004,0.047-0.004,0.057v0.016v0.01c0,0.084,0.015,0.158,0.044,0.23
			c0.028,0.068,0.071,0.129,0.123,0.189c0.05,0.062,0.116,0.121,0.194,0.18c0.079,0.062,0.167,0.125,0.266,0.195
			c0.118,0.084,0.237,0.175,0.359,0.267C103.52,59.264,103.634,59.375,103.737,59.497z"/>
		<g>
			<path fill="#8C230E" d="M79.87,65.772c0.05,0.051,0.075,0.11,0.075,0.18c0,0.076-0.025,0.136-0.075,0.187
				c-0.05,0.05-0.112,0.075-0.183,0.075H79.59l0.051,0.082c0.034,0.062,0.042,0.126,0.026,0.193
				c-0.021,0.072-0.06,0.121-0.127,0.162c-0.037,0.021-0.079,0.031-0.125,0.031c-0.044,0-0.087-0.01-0.127-0.031
				c-0.044-0.025-0.075-0.058-0.1-0.099l-0.041-0.078L79.1,66.552c-0.023,0.041-0.055,0.072-0.095,0.099
				c-0.041,0.021-0.087,0.031-0.129,0.031c-0.046,0-0.09-0.01-0.131-0.031c-0.062-0.041-0.105-0.09-0.121-0.157
				c-0.02-0.069-0.014-0.134,0.027-0.198l0.046-0.082h-0.092c-0.073,0-0.135-0.025-0.184-0.075c-0.05-0.051-0.074-0.11-0.074-0.187
				c0-0.068,0.024-0.129,0.074-0.18c0.049-0.051,0.11-0.076,0.184-0.076h0.089l-0.042-0.077c-0.041-0.062-0.046-0.13-0.027-0.202
				c0.016-0.067,0.059-0.117,0.115-0.153c0.066-0.034,0.131-0.047,0.203-0.028c0.066,0.021,0.119,0.062,0.154,0.125l0.046,0.076
				l0.046-0.076c0.037-0.063,0.091-0.104,0.158-0.125c0.069-0.019,0.135-0.011,0.194,0.025c0.063,0.039,0.103,0.089,0.121,0.156
				c0.021,0.072,0.01,0.138-0.021,0.197l-0.051,0.082h0.098C79.758,65.696,79.821,65.721,79.87,65.772z"/>
			<path fill="#8C230E" d="M80.392,65.129c0.072,0,0.135,0.025,0.185,0.075c0.05,0.051,0.073,0.11,0.073,0.183v2.858
				c0,0.071-0.023,0.134-0.073,0.183c-0.05,0.051-0.112,0.075-0.185,0.075c-0.075,0-0.134-0.024-0.184-0.075
				c-0.052-0.049-0.075-0.111-0.075-0.183v-2.858c0-0.07,0.023-0.132,0.075-0.183C80.258,65.155,80.316,65.129,80.392,65.129z"/>
			<path fill="#8C230E" d="M82.64,65.129c0.07,0,0.131,0.025,0.181,0.075c0.052,0.051,0.08,0.11,0.08,0.183v2.852v0.021v0.013v0.004
				v0.009l-0.004,0.004v0.004v0.011v0.004c-0.006,0.004-0.006,0.004-0.006,0.008v0.008v0.004c-0.004,0-0.007,0-0.007,0.004v0.003
				c-0.002,0.003-0.002,0.007-0.002,0.011l-0.004,0.004c0,0.004,0,0.004,0,0.004c0,0.008-0.004,0.008-0.004,0.008
				c-0.002,0-0.002,0.004-0.002,0.004v0.007c-0.002,0-0.004,0-0.004,0l-0.004,0.008l-0.004,0.01h-0.006v0.007
				c-0.003,0-0.005,0.004-0.005,0.004s0,0.004-0.002,0.004c0,0.004,0,0.004-0.002,0.004s-0.002,0-0.002,0.008h-0.009
				c0,0,0,0.006-0.004,0.006l-0.008,0.008l-0.006,0.008l-0.011,0.01h-0.003l-0.009,0.008c-0.002,0.004-0.006,0.004-0.008,0.004
				c0,0.003-0.002,0.003-0.006,0.003l-0.004,0.003c-0.004,0-0.006,0.004-0.006,0.004H82.77h-0.008l-0.008,0.012
				c-0.01,0.006-0.02,0.01-0.03,0.01c-0.007,0.008-0.018,0.008-0.033,0.012c-0.015,0.004-0.026,0.004-0.052,0.004
				c-0.019,0-0.031,0-0.039-0.004h-0.011h-0.004c-0.002,0-0.006-0.004-0.006-0.004h-0.014v-0.008h-0.01
				c-0.013-0.004-0.021-0.006-0.021-0.006c-0.004,0-0.004,0-0.004-0.004h-0.004c-0.003,0-0.003-0.004-0.003-0.004
				c-0.004,0-0.008,0-0.012-0.008c0,0-0.003,0-0.003-0.004h-0.004c-0.004,0-0.004,0-0.004,0l-0.004-0.003
				c-0.033-0.022-0.06-0.05-0.079-0.081v-0.004c-0.004,0-0.004,0-0.004-0.004l-0.006-0.004v-0.004
				c-0.002-0.004-0.004-0.008-0.004-0.01c0,0-0.002-0.009-0.004-0.009l-0.739-1.703v1.604c0,0.071-0.024,0.134-0.076,0.183
				c-0.051,0.051-0.108,0.075-0.183,0.075c-0.071,0-0.133-0.024-0.183-0.075c-0.051-0.049-0.075-0.111-0.075-0.183v-2.853v-0.017
				v-0.015v-0.004v-0.012l0.004-0.004v-0.003v-0.006v-0.006c0.004,0,0.004-0.009,0.004-0.009v-0.008c0,0,0,0,0.004,0v-0.007
				c0,0,0.004-0.003,0.004-0.007l0.003-0.004c0-0.003,0-0.003,0-0.012c0.002,0,0.002,0,0.002,0v-0.006c0.004,0,0.004,0,0.004,0
				v-0.008l0.009-0.011c0-0.004,0.002-0.004,0.004-0.004s0.002,0,0.002,0l0.006-0.007v-0.008c0.004-0.004,0.004-0.004,0.004-0.008
				h0.002c0-0.007,0-0.007,0.004-0.007c0.002,0,0.002,0,0.002,0l0.004-0.004c0,0,0.002-0.004,0.005-0.008l0.008-0.011v-0.004
				c0.003,0,0.005,0,0.009-0.004l0,0c0,0,0.004,0,0.008-0.004h0.008l0.008-0.011l0.008-0.007h0.004c0,0,0.002-0.008,0.006-0.008
				s0.004,0,0.004,0s0,0,0.004,0h0.004l0.012-0.012c0.018-0.011,0.039-0.015,0.059-0.021h0.005c0.014-0.003,0.035-0.003,0.064-0.003
				h0.011h0.006l0.006,0.003h0.007h0.004h0.01c0,0.008,0,0.008,0.004,0.008h0.009h0.004c0,0,0.002,0.004,0.01,0.004
				c0.004,0,0.007,0.004,0.011,0.004s0.006,0.004,0.01,0.004h0.005c0,0,0.004,0.004,0.01,0.004v0.002
				c0.006,0,0.008,0.005,0.008,0.009h0.002c0.004,0,0.004,0,0.004,0s0.004,0,0.007,0l0.006,0.008l0.005,0.003l0.002,0.004h0.006
				c0.002,0.003,0.006,0.006,0.01,0.006v0.004c0.002,0,0.004,0,0.004,0.004c0,0,0.002,0,0.006,0v0.004
				c0.002,0,0.002,0.005,0.002,0.005s0.002,0,0.004,0v0.003l0.01,0.011l0.01,0.008l0.004,0.011c0,0.004,0.004,0.004,0.008,0.008
				c0.004,0,0.004,0.004,0.004,0.004l0.004,0.008c0,0,0.004,0.007,0.006,0.007v0.003c0.005,0.004,0.005,0.008,0.005,0.012h0.003
				c0,0.006,0,0.006,0.002,0.006c0.002,0.005,0.002,0.005,0.002,0.013l0.739,1.702V65.39c0-0.071,0.024-0.132,0.073-0.183
				C82.506,65.155,82.566,65.129,82.64,65.129z"/>
			<path fill="#8C230E" d="M86.853,65.337c0.06,0.058,0.118,0.136,0.177,0.244c0.056,0.104,0.083,0.244,0.083,0.42v1.63
				c0,0.178-0.027,0.319-0.083,0.42c-0.06,0.107-0.118,0.188-0.177,0.244c-0.154,0.137-0.335,0.208-0.541,0.208h-0.324H85.75
				c-0.071,0-0.133-0.024-0.183-0.075c-0.052-0.049-0.076-0.111-0.076-0.183v-2.858c0-0.07,0.023-0.132,0.076-0.183
				c0.05-0.05,0.111-0.075,0.183-0.075h0.237h0.324C86.517,65.129,86.698,65.198,86.853,65.337z M86.597,66.001
				c0-0.083-0.013-0.146-0.031-0.19c-0.023-0.047-0.05-0.082-0.079-0.104c-0.028-0.025-0.063-0.042-0.094-0.051
				c-0.035-0.008-0.061-0.01-0.081-0.01h-0.304v2.338h0.304c0.021,0,0.046,0,0.081-0.009c0.03-0.007,0.065-0.024,0.094-0.047
				c0.029-0.028,0.056-0.06,0.079-0.106c0.02-0.043,0.031-0.11,0.031-0.19V66.001z"/>
			<path fill="#8C230E" d="M87.865,65.129c0.075,0,0.137,0.025,0.185,0.075c0.049,0.051,0.073,0.11,0.073,0.183v2.858
				c0,0.071-0.024,0.134-0.073,0.183c-0.048,0.051-0.109,0.075-0.185,0.075c-0.071,0-0.135-0.024-0.183-0.075
				c-0.051-0.049-0.078-0.111-0.078-0.183v-2.858c0-0.07,0.026-0.132,0.078-0.183C87.731,65.155,87.793,65.129,87.865,65.129z"/>
			<path fill="#8C230E" d="M90.126,68.231c0.014,0.071,0.001,0.142-0.039,0.197c-0.037,0.057-0.093,0.098-0.164,0.111
				c-0.012,0.003-0.026,0.003-0.05,0.003c-0.058,0-0.111-0.019-0.158-0.058c-0.048-0.039-0.081-0.09-0.094-0.15l-0.09-0.438h-0.46
				l-0.092,0.438c-0.013,0.062-0.041,0.111-0.087,0.15c-0.051,0.039-0.103,0.058-0.164,0.058c-0.021,0-0.04,0-0.05-0.003
				c-0.073-0.016-0.128-0.055-0.167-0.111s-0.051-0.126-0.039-0.197l0.575-2.85v-0.004v-0.012v-0.004c0.002,0,0.004,0,0.004-0.004
				v-0.002v-0.009c0.003,0,0.005-0.007,0.005-0.007c0-0.004,0-0.004,0.004-0.004v-0.003v-0.006c0.012-0.022,0.022-0.044,0.041-0.058
				v-0.009c0.002,0,0.002,0,0.002,0s0-0.003,0.004-0.003v-0.004l0.008-0.003l0.004-0.004l0.004-0.009l0.004-0.004l0.002-0.002
				l0.012-0.008c0.017-0.016,0.039-0.029,0.062-0.037h0.002c0.004-0.004,0.006-0.004,0.012-0.004c0.013-0.01,0.025-0.01,0.037-0.013
				c0.011,0,0.025,0,0.038-0.008h0.006h0.011h0.006c0.016,0.008,0.026,0.008,0.041,0.008c0.01,0.003,0.022,0.003,0.037,0.013
				c0.004,0,0.006,0,0.01,0.004h0.006c0.021,0.008,0.04,0.021,0.058,0.037c0.004,0,0.009,0,0.012,0.008l0.004,0.002l0.004,0.004
				l0.004,0.009l0.004,0.004l0.004,0.003l0.004,0.004l0.006,0.003v0.009c0.018,0.014,0.031,0.034,0.039,0.058v0.006
				c0,0,0,0.004,0.002,0.004s0.002,0,0.002,0.004c0.006,0.019,0.008,0.028,0.008,0.04L90.126,68.231z M89.305,66.743l-0.132,0.635
				h0.257L89.305,66.743z"/>
			<path fill="#8C230E" d="M92.487,68.246c0,0.071-0.025,0.134-0.075,0.183c-0.05,0.051-0.11,0.075-0.183,0.075
				c-0.073,0-0.133-0.024-0.184-0.075c-0.052-0.049-0.08-0.111-0.08-0.183v-1.777l-0.268,0.537c-0.023,0.06-0.067,0.106-0.125,0.136
				c-0.037,0.016-0.071,0.025-0.108,0.025h-0.006h-0.006h-0.004h-0.002c-0.041,0-0.075-0.012-0.107-0.025
				c-0.062-0.027-0.103-0.076-0.125-0.136l-0.272-0.537v1.777c0,0.071-0.025,0.134-0.077,0.183c-0.048,0.051-0.11,0.075-0.181,0.075
				c-0.073,0-0.134-0.024-0.184-0.075c-0.05-0.049-0.076-0.111-0.076-0.183v-2.858v-0.01v-0.016v-0.004v-0.002
				c0-0.005,0-0.009,0-0.009c0.002,0,0.005,0,0.005-0.004V65.34v-0.007c0-0.002,0-0.006,0.002-0.006s0.002-0.009,0.002-0.009
				c0.004-0.015,0.008-0.035,0.018-0.045c0-0.004,0-0.004,0-0.004c0.004,0,0.004-0.005,0.004-0.009l0.003-0.003l0.006-0.004
				c0,0,0.002-0.007,0.004-0.007v-0.009l0.009-0.006c0.008-0.008,0.012-0.012,0.016-0.02c0.004-0.004,0.01-0.011,0.017-0.018
				l0.009-0.008h0.004c0,0,0-0.005,0.002-0.005v-0.006h0.006c0.004-0.004,0.005-0.004,0.009-0.004c0,0,0-0.003,0.004-0.003
				l0.006-0.008h0.005c0.005-0.004,0.009-0.008,0.009-0.008l0.004-0.004c0.006,0,0.008,0,0.012-0.004c0.004,0,0.004,0,0.006-0.002
				c0.002,0,0.006,0,0.008,0s0.004-0.005,0.007-0.005c0.001,0,0.001,0,0.005,0s0.004-0.004,0.01-0.004h0.006h0.008l0.002-0.008
				h0.004h0.013h0.003c0.004-0.003,0.004-0.003,0.006-0.003h0.006h0.014h0.014h0.013h0.008h0.002c0.004,0,0.008,0,0.013,0.003h0.008
				h0.004h0.009c0.014,0.008,0.021,0.012,0.031,0.012c0.008,0,0.017,0.005,0.024,0.011h0.004c0,0.004,0.005,0.004,0.011,0.004
				c0,0,0.002,0.008,0.004,0.008h0.003c0.004,0,0.008,0.008,0.012,0.008l0.005,0.007h0.006c0.015,0.011,0.025,0.021,0.035,0.035
				l0.007,0.008l0.009,0.011c0,0.004,0.002,0.004,0.002,0.004c0.004,0,0.004,0,0.004,0l0.004,0.012l0.004,0.004
				c0,0,0.004,0.003,0.004,0.007l0.002,0.003c0,0.008,0.004,0.008,0.004,0.012l0.541,1.064l0.545-1.064
				c0-0.008,0.002-0.012,0.004-0.015c0.003-0.004,0.003-0.004,0.003-0.004c0.004-0.003,0.009-0.007,0.009-0.007l0.004-0.008
				c0,0,0-0.004,0.002-0.008l0.01-0.011l0.01-0.008c0.008-0.015,0.02-0.024,0.031-0.035l0.011-0.007h0.004
				c0.002,0,0.006-0.008,0.006-0.008h0.007c0.001,0,0.005-0.004,0.005-0.004c0.004-0.004,0.008-0.004,0.008-0.008h0.006
				c0.006-0.006,0.012-0.011,0.021-0.011c0.011,0,0.017-0.004,0.024-0.004c0.004,0,0.008,0,0.012-0.008h0.007h0.006h0.009
				c0-0.003,0.002-0.003,0.004-0.003h0.01h0.008h0.014h0.013h0.012c0.007,0,0.013,0,0.015,0.003h0.01h0.006l0.005,0.008h0.01h0.005
				l0.008,0.004c0.002,0,0.006,0,0.006,0c0.004,0,0.004,0.005,0.008,0.005s0.006,0,0.009,0.002h0.004
				c0.002,0.004,0.004,0.004,0.009,0.004v0.004c0.008,0,0.01,0.004,0.014,0.008c0.003,0,0.005,0,0.009,0l0.006,0.008l0.004,0.003
				c0.002,0,0.003,0,0.005,0.004l0.007,0.011c0.008,0,0.012,0.004,0.012,0.004c0.016,0.011,0.027,0.024,0.035,0.039l0.01,0.008
				v0.008c0.002,0,0.004,0.004,0.004,0.004c0.004,0.003,0.006,0.003,0.006,0.007l0.004,0.003c0,0.004,0,0.008,0.004,0.012
				c0.005,0.01,0.013,0.031,0.02,0.047c0,0.008,0,0.012,0.002,0.014v0.008v0.003c0,0.004,0,0.009,0.004,0.013v0.002v0.004v0.016
				v0.01v2.858H92.487z"/>
			<path fill="#8C230E" d="M94.445,68.059c0.049,0.051,0.077,0.111,0.077,0.18c0,0.074-0.027,0.138-0.077,0.187
				c-0.048,0.051-0.11,0.075-0.185,0.075h-1.058c-0.073,0-0.135-0.024-0.183-0.075c-0.05-0.049-0.078-0.11-0.078-0.187v-2.855
				c0-0.07,0.026-0.131,0.078-0.182c0.048-0.051,0.109-0.076,0.183-0.076h1.058c0.073,0,0.136,0.025,0.185,0.076
				s0.077,0.109,0.077,0.182c0,0.077-0.027,0.137-0.077,0.188c-0.048,0.052-0.11,0.071-0.185,0.071h-0.799v1.087h0.554
				c0.07,0,0.133,0.024,0.183,0.074c0.05,0.055,0.075,0.115,0.075,0.188s-0.025,0.133-0.075,0.183
				c-0.05,0.052-0.112,0.077-0.183,0.077h-0.554v0.734h0.799C94.334,67.985,94.397,68.008,94.445,68.059z"/>
			<path fill="#8C230E" d="M96.549,65.205c0.051,0.051,0.075,0.11,0.075,0.188c0,0.069-0.024,0.135-0.075,0.185
				c-0.05,0.046-0.111,0.071-0.183,0.071h-0.401v2.588c0,0.076-0.024,0.139-0.074,0.188c-0.051,0.051-0.114,0.075-0.184,0.075
				c-0.072,0-0.135-0.024-0.187-0.075c-0.048-0.049-0.073-0.111-0.073-0.188v-2.588h-0.411c-0.073,0-0.133-0.025-0.183-0.071
				c-0.05-0.05-0.076-0.114-0.076-0.185c0-0.078,0.025-0.139,0.076-0.188c0.05-0.048,0.108-0.072,0.183-0.072h1.33
				C96.438,65.132,96.499,65.157,96.549,65.205z"/>
			<path fill="#8C230E" d="M98.417,68.059c0.05,0.051,0.075,0.111,0.075,0.18c0,0.074-0.025,0.138-0.075,0.187
				c-0.052,0.051-0.111,0.075-0.183,0.075h-1.059c-0.07,0-0.135-0.024-0.183-0.075c-0.05-0.049-0.079-0.11-0.079-0.187v-2.855
				c0-0.07,0.029-0.131,0.079-0.182c0.048-0.051,0.112-0.076,0.183-0.076h1.059c0.071,0,0.131,0.025,0.183,0.076
				c0.05,0.051,0.075,0.109,0.075,0.182c0,0.077-0.025,0.137-0.075,0.188c-0.052,0.052-0.111,0.071-0.183,0.071h-0.798v1.087h0.551
				c0.069,0,0.133,0.024,0.183,0.074c0.048,0.055,0.075,0.115,0.075,0.188s-0.027,0.133-0.075,0.183
				c-0.05,0.052-0.113,0.077-0.183,0.077h-0.551v0.734h0.798C98.307,67.985,98.366,68.008,98.417,68.059z"/>
			<path fill="#8C230E" d="M100.653,68.138c0.035,0.063,0.035,0.129,0.008,0.196c-0.026,0.068-0.073,0.115-0.139,0.145
				c-0.034,0.01-0.067,0.021-0.104,0.021c-0.05,0-0.094-0.016-0.135-0.039c-0.046-0.028-0.081-0.064-0.1-0.114L99.7,67.25h-0.258
				v0.988c0,0.074-0.025,0.138-0.075,0.187c-0.05,0.051-0.112,0.075-0.184,0.075c-0.072,0-0.138-0.024-0.186-0.075
				c-0.05-0.049-0.075-0.11-0.075-0.187v-2.844c0-0.074,0.025-0.136,0.075-0.184c0.048-0.055,0.114-0.079,0.186-0.079h0.624
				c0.109,0,0.216,0.033,0.315,0.095c0.103,0.064,0.189,0.15,0.265,0.266c0.129,0.203,0.194,0.438,0.194,0.697
				c0,0.127-0.018,0.25-0.05,0.371c-0.035,0.114-0.083,0.226-0.145,0.326c-0.032,0.043-0.061,0.082-0.093,0.118
				c-0.03,0.031-0.062,0.063-0.094,0.092L100.653,68.138z M99.809,66.729c0.014,0,0.034-0.008,0.06-0.024
				c0.025-0.021,0.052-0.054,0.083-0.099c0.039-0.057,0.066-0.125,0.083-0.194c0.021-0.069,0.029-0.146,0.029-0.222
				c0-0.074-0.01-0.146-0.029-0.222c-0.017-0.069-0.044-0.14-0.083-0.196c-0.03-0.043-0.058-0.072-0.083-0.095
				c-0.025-0.013-0.046-0.028-0.06-0.028h-0.366v1.08H99.809z"/>
		</g>
	</g>
</g>
</svg>
