<?xml version="1.0" encoding="utf-8"?>
<!-- Generator: Adobe Illustrator 16.0.0, SVG Export Plug-In . SVG Version: 6.00 Build 0)  -->
<!DOCTYPE svg PUBLIC "-//W3C//DTD SVG 1.1//EN" "http://www.w3.org/Graphics/SVG/1.1/DTD/svg11.dtd">
<svg version="1.1" id="Layer_1" xmlns="http://www.w3.org/2000/svg" xmlns:xlink="http://www.w3.org/1999/xlink" x="0px" y="0px"
	 width="51.5px" height="78.5px" viewBox="0 0 51.5 78.5" enable-background="new 0 0 51.5 78.5" xml:space="preserve">
<g id="Layer_4">
	<g>
		<path fill="#CF3918" d="M18.787,74.116c0,0.303-0.107,0.562-0.319,0.771c-0.211,0.215-0.473,0.322-0.772,0.322
			c-0.303,0-0.563-0.107-0.776-0.322c-0.211-0.209-0.318-0.469-0.318-0.771v-7.498l-1.146,2.258
			c-0.091,0.267-0.269,0.463-0.523,0.582c-0.146,0.072-0.297,0.106-0.459,0.106h-0.014h-0.021h-0.021h-0.019
			c-0.154,0-0.308-0.034-0.455-0.106c-0.257-0.119-0.428-0.315-0.526-0.582l-1.145-2.258v7.498c0,0.303-0.107,0.562-0.319,0.771
			c-0.213,0.215-0.471,0.322-0.772,0.322c-0.305,0-0.561-0.107-0.774-0.322c-0.215-0.209-0.315-0.469-0.315-0.771V62.069v-0.055
			v-0.056v-0.018v-0.021c0-0.012,0-0.018,0-0.018c0.016,0,0.019-0.007,0.019-0.021v-0.016v-0.037c0-0.015,0-0.021,0.007-0.027
			c0.008-0.006,0.014-0.016,0.014-0.024c0.012-0.074,0.031-0.141,0.07-0.201c0-0.014,0-0.021,0-0.021
			c0.014,0,0.018-0.004,0.018-0.018l0.02-0.021l0.018-0.018c0-0.01,0.002-0.023,0.017-0.035v-0.018l0.036-0.035
			c0.025-0.025,0.048-0.051,0.062-0.072c0.02-0.025,0.043-0.051,0.067-0.075l0.035-0.036h0.017c0-0.01,0.007-0.018,0.013-0.018
			c0,0,0.006-0.006,0.006-0.018h0.02c0.014-0.014,0.023-0.021,0.037-0.021c0-0.012,0.006-0.02,0.021-0.02l0.018-0.018l0.031-0.019
			c0.012-0.016,0.028-0.021,0.039-0.021l0.02-0.019c0.012,0,0.021-0.006,0.041-0.021c0.011,0,0.021-0.001,0.021-0.008
			c0.008-0.006,0.02-0.008,0.02-0.008c0.021,0,0.031-0.006,0.039-0.012c0.005-0.008,0.015-0.008,0.023-0.008
			c0.016,0,0.025-0.008,0.037-0.021h0.021h0.034l0.017-0.021h0.012h0.039h0.021c0.008-0.014,0.019-0.02,0.031-0.02h0.02h0.059h0.052
			h0.058h0.033h0.018c0.017,0,0.026,0.006,0.036,0.02h0.041h0.015h0.035c0.049,0.023,0.092,0.039,0.125,0.048
			c0.039,0.004,0.079,0.021,0.111,0.045h0.018c0,0.012,0.013,0.019,0.039,0.019c0,0.012,0.004,0.021,0.018,0.021l0.018,0.018
			c0.016,0,0.025,0.006,0.039,0.018l0.034,0.039h0.019c0.062,0.032,0.114,0.084,0.147,0.146l0.035,0.033l0.036,0.039
			c0,0.012,0.003,0.02,0.012,0.02c0,0,0.012,0.004,0.012,0.019l0.018,0.018l0.019,0.021c0,0.01,0.005,0.021,0.017,0.032
			c0,0.015,0.006,0.021,0.01,0.027c0.005,0.006,0.01,0.017,0.01,0.027l2.293,4.491l2.293-4.491c0-0.023,0.008-0.044,0.02-0.057
			c0.004-0.003,0.014-0.013,0.014-0.021c0,0,0.015-0.011,0.015-0.021l0.017-0.02c0-0.013,0.004-0.023,0.021-0.035l0.037-0.039
			l0.031-0.033c0.04-0.061,0.091-0.11,0.146-0.145l0.043-0.039h0.019c0.013-0.013,0.024-0.017,0.036-0.017l0.015-0.02
			c0.013,0,0.021-0.01,0.021-0.021c0.025,0,0.039-0.006,0.039-0.019h0.021c0.021-0.024,0.049-0.041,0.088-0.045
			c0.036-0.008,0.065-0.017,0.09-0.027c0.029,0,0.043-0.008,0.056-0.02h0.034h0.017h0.041c0-0.015,0.003-0.02,0.019-0.02h0.036
			h0.034h0.059h0.054h0.052c0.028,0,0.045,0.005,0.059,0.02h0.038h0.035l0.018,0.02h0.034h0.021l0.037,0.021
			c0.012,0,0.021,0,0.028,0.006c0.004,0.006,0.013,0.012,0.023,0.012c0.016,0,0.026,0.005,0.038,0.017h0.021
			c0.017,0.014,0.019,0.02,0.033,0.02v0.02c0.028,0,0.044,0.006,0.056,0.021c0.014,0.012,0.023,0.019,0.041,0.019l0.018,0.018
			l0.016,0.021c0.014,0,0.029,0.006,0.042,0.019l0.031,0.033c0.022,0,0.034,0.014,0.034,0.036c0.062,0.039,0.107,0.086,0.146,0.146
			l0.037,0.035v0.02c0.014,0.012,0.018,0.023,0.018,0.033c0.012,0,0.02,0.008,0.02,0.021l0.016,0.019
			c0,0.015,0.01,0.024,0.021,0.037c0.023,0.062,0.051,0.127,0.072,0.201c0,0.021,0.007,0.041,0.021,0.055v0.037v0.017
			c0,0.014,0.006,0.024,0.021,0.036v0.021v0.018v0.057v0.054V74.12h-0.011V74.116z"/>
		<path fill="#CF3918" d="M26.896,74.061c0.061,0.304,0.008,0.582-0.156,0.826c-0.162,0.25-0.398,0.406-0.701,0.469
			c-0.045,0.009-0.111,0.017-0.199,0.017c-0.252,0-0.479-0.082-0.681-0.244c-0.196-0.164-0.329-0.373-0.388-0.631l-0.387-1.854
			h-1.946l-0.383,1.854c-0.052,0.258-0.173,0.467-0.372,0.631c-0.199,0.162-0.43,0.244-0.684,0.244
			c-0.098,0-0.172-0.008-0.217-0.017c-0.305-0.062-0.541-0.219-0.699-0.469c-0.166-0.244-0.219-0.522-0.158-0.826l2.426-12.024
			v-0.021v-0.037c0-0.012,0-0.018,0.007-0.018c0,0,0.007-0.004,0.007-0.02v-0.019v-0.02c0.012-0.015,0.018-0.023,0.018-0.035
			c0-0.015,0.007-0.021,0.007-0.021c0.014,0,0.014-0.005,0.014-0.017v-0.021c0.037-0.099,0.093-0.183,0.167-0.255V61.54
			c0.01,0,0.02-0.002,0.02-0.008c0-0.009,0-0.013,0.021-0.013V61.5l0.014-0.015l0.02-0.021l0.017-0.02l0.02-0.019l0.021-0.018
			l0.035-0.021c0.072-0.072,0.153-0.126,0.251-0.162h0.021c0.014-0.01,0.023-0.018,0.039-0.018c0.062-0.023,0.111-0.039,0.162-0.047
			c0.045-0.004,0.104-0.016,0.166-0.024h0.021h0.03h0.035c0.062,0.011,0.121,0.021,0.164,0.024c0.051,0.008,0.104,0.021,0.166,0.047
			c0.014,0,0.023,0.008,0.034,0.018h0.021c0.098,0.036,0.181,0.09,0.258,0.162c0.013,0,0.019,0.008,0.031,0.021l0.021,0.018
			l0.014,0.019l0.021,0.02l0.022,0.021l0.011,0.015l0.021,0.02l0.021,0.021v0.019c0.068,0.071,0.125,0.155,0.165,0.254v0.021
			c0,0.012,0,0.018,0,0.018s0.017,0.006,0.017,0.021c0.021,0.072,0.032,0.127,0.032,0.164L26.896,74.061z M23.42,67.786
			l-0.547,2.674h1.074L23.42,67.786z"/>
		<path fill="#CF3918" d="M35.504,73.661c0.139,0.278,0.145,0.559,0.029,0.836c-0.117,0.278-0.312,0.479-0.594,0.603
			c-0.148,0.061-0.291,0.09-0.438,0.09c-0.203,0-0.396-0.056-0.584-0.174c-0.182-0.113-0.322-0.271-0.414-0.48l-2.021-4.619h-1.088
			v4.186c0,0.304-0.107,0.562-0.316,0.771c-0.215,0.211-0.473,0.316-0.775,0.316c-0.301,0-0.562-0.105-0.771-0.316
			c-0.211-0.211-0.316-0.47-0.316-0.771V62.088c0-0.303,0.105-0.561,0.316-0.771s0.473-0.317,0.771-0.317h2.635
			c0.465,0,0.912,0.131,1.332,0.391c0.428,0.263,0.797,0.634,1.111,1.119c0.543,0.863,0.814,1.845,0.814,2.947
			c0,0.535-0.07,1.051-0.207,1.547c-0.141,0.496-0.344,0.959-0.607,1.385c-0.125,0.181-0.25,0.347-0.387,0.49
			c-0.137,0.146-0.268,0.277-0.398,0.399L35.504,73.661z M31.936,67.73c0.062,0,0.146-0.039,0.248-0.121
			c0.104-0.075,0.223-0.215,0.355-0.409c0.158-0.24,0.275-0.515,0.355-0.818c0.078-0.303,0.117-0.612,0.117-0.928
			c0-0.312-0.039-0.627-0.117-0.938c-0.078-0.309-0.195-0.584-0.355-0.824c-0.135-0.186-0.252-0.313-0.355-0.393
			c-0.102-0.082-0.186-0.121-0.248-0.121h-1.543v4.553H31.936z"/>
		<path fill="#CF3918" d="M43.143,68.53c0.719,0.897,1.076,1.944,1.076,3.146c0,0.377-0.037,0.711-0.117,1.012
			c-0.078,0.297-0.178,0.562-0.291,0.791c-0.111,0.229-0.244,0.431-0.393,0.603c-0.148,0.166-0.291,0.313-0.436,0.438
			c-0.686,0.545-1.504,0.817-2.479,0.817c-0.473,0-0.916-0.067-1.326-0.201c-0.412-0.133-0.775-0.34-1.092-0.616
			c-0.135-0.109-0.271-0.25-0.408-0.42c-0.141-0.171-0.27-0.369-0.385-0.603c-0.109-0.229-0.207-0.496-0.279-0.801
			c-0.068-0.302-0.105-0.648-0.105-1.035c0-0.306,0.102-0.562,0.314-0.773c0.215-0.211,0.471-0.319,0.773-0.319
			c0.314,0,0.58,0.108,0.781,0.319c0.209,0.212,0.312,0.47,0.312,0.773c0,0.168,0.018,0.342,0.045,0.518
			c0.029,0.177,0.092,0.336,0.191,0.482c0.098,0.145,0.238,0.262,0.426,0.354c0.188,0.089,0.438,0.136,0.752,0.136
			c0.227,0,0.426-0.026,0.613-0.079c0.186-0.057,0.348-0.138,0.482-0.246c0.287-0.254,0.434-0.638,0.434-1.146
			c0-0.375-0.047-0.702-0.145-0.982c-0.096-0.278-0.238-0.534-0.428-0.772c-0.188-0.234-0.416-0.459-0.689-0.672
			c-0.271-0.215-0.582-0.439-0.92-0.686c-0.314-0.218-0.627-0.443-0.939-0.683c-0.305-0.235-0.594-0.506-0.861-0.809
			c-0.312-0.39-0.553-0.793-0.717-1.213c-0.162-0.416-0.246-0.873-0.246-1.371c0-0.076,0-0.209,0.006-0.402
			c0.012-0.192,0.039-0.416,0.096-0.674c0.055-0.252,0.145-0.521,0.271-0.799c0.127-0.279,0.312-0.547,0.559-0.802
			c0.199-0.229,0.514-0.452,0.924-0.672c0.412-0.223,0.949-0.328,1.602-0.328c0.67,0,1.197,0.111,1.59,0.336
			c0.4,0.226,0.699,0.451,0.908,0.685c0.229,0.276,0.4,0.574,0.518,0.883c0.111,0.308,0.189,0.595,0.229,0.854
			c0.033,0.262,0.043,0.488,0.033,0.684c-0.014,0.193-0.025,0.309-0.033,0.346c-0.039,0.22-0.105,0.4-0.223,0.547
			c-0.1,0.134-0.229,0.244-0.396,0.336c-0.162,0.091-0.381,0.104-0.664,0.047c-0.266-0.051-0.461-0.139-0.588-0.268
			c-0.129-0.127-0.213-0.258-0.258-0.397c-0.039-0.142-0.061-0.265-0.053-0.373c0.01-0.109,0.01-0.177,0.01-0.201
			c0.014-0.047,0.021-0.113,0.021-0.199s-0.012-0.176-0.031-0.271c-0.018-0.098-0.043-0.194-0.078-0.289
			c-0.037-0.102-0.086-0.184-0.146-0.257c-0.146-0.183-0.424-0.271-0.84-0.271c-0.326,0-0.553,0.045-0.682,0.125
			c-0.127,0.086-0.207,0.146-0.244,0.186c-0.086,0.082-0.148,0.183-0.193,0.289c-0.045,0.107-0.072,0.22-0.096,0.332
			c-0.033,0.105-0.043,0.199-0.051,0.279c0,0.078-0.006,0.135-0.006,0.172v0.033v0.039c0,0.244,0.045,0.467,0.125,0.662
			c0.092,0.2,0.203,0.391,0.355,0.564c0.146,0.177,0.346,0.354,0.572,0.528c0.232,0.176,0.492,0.367,0.781,0.57
			c0.344,0.245,0.689,0.506,1.045,0.784C42.512,67.844,42.846,68.167,43.143,68.53z"/>
	</g>
	<g>
		<path fill="#CF3918" d="M49.564,28.972c0,13.157-10.664,23.817-23.816,23.817c-13.145,0-23.813-10.661-23.813-23.817
			c0-13.153,10.671-23.811,23.813-23.811C38.9,5.161,49.564,15.816,49.564,28.972z"/>
		<path fill="#8C230E" d="M9.897,11.036l15.461,4.612V38.21l9.599-9.428l6.945-1.485l7.506,0.115c0,0-0.307-16.261-17.674-21.495
			C19.281,2.164,9.897,11.036,9.897,11.036z"/>
	</g>
</g>
</svg>
