<?xml version="1.0" encoding="utf-8"?>
<!-- Generator: Adobe Illustrator 16.0.0, SVG Export Plug-In . SVG Version: 6.00 Build 0)  -->
<!DOCTYPE svg PUBLIC "-//W3C//DTD SVG 1.1//EN" "http://www.w3.org/Graphics/SVG/1.1/DTD/svg11.dtd">
<svg version="1.1" id="Layer_1" xmlns="http://www.w3.org/2000/svg" xmlns:xlink="http://www.w3.org/1999/xlink" x="0px" y="0px"
	 width="79.2px" height="73.834px" viewBox="0 0 79.2 73.834" enable-background="new 0 0 79.2 73.834" xml:space="preserve">
<g>
	<path fill="#CC820D" d="M12.172,71.529c0,0.382-0.131,0.707-0.4,0.972c-0.266,0.267-0.591,0.401-0.971,0.401
		c-0.383,0-0.702-0.137-0.972-0.401c-0.268-0.265-0.4-0.59-0.4-0.972V62.12l-1.432,2.834c-0.124,0.332-0.344,0.58-0.666,0.729
		c-0.186,0.094-0.373,0.14-0.571,0.14H6.735H6.716H6.695H6.669c-0.195,0-0.39-0.046-0.573-0.14
		c-0.321-0.149-0.538-0.396-0.664-0.729L3.999,62.12v9.409c0,0.382-0.133,0.707-0.402,0.972c-0.263,0.267-0.585,0.401-0.972,0.401
		c-0.378,0-0.702-0.137-0.965-0.401c-0.271-0.265-0.4-0.59-0.4-0.972V56.413v-0.067v-0.069v-0.02V56.23c0-0.014,0-0.021,0.008-0.021
		c0.01,0,0.016-0.008,0.016-0.023v-0.021V56.12c0-0.018,0-0.025,0.006-0.032c0.006-0.011,0.014-0.021,0.014-0.034
		c0.014-0.094,0.046-0.174,0.091-0.251c0-0.017,0.002-0.021,0.012-0.021c0.008,0,0.008-0.012,0.008-0.025l0.025-0.026l0.024-0.021
		c0-0.018,0.005-0.032,0.021-0.047V55.64l0.047-0.044c0.032-0.031,0.056-0.062,0.081-0.093c0.023-0.031,0.05-0.06,0.082-0.09
		l0.044-0.05h0.02c0-0.015,0.005-0.021,0.016-0.021c0.001,0,0.01-0.007,0.01-0.022h0.019C1.821,55.306,1.836,55.3,1.856,55.3
		c0-0.016,0.004-0.023,0.021-0.023l0.024-0.022l0.044-0.021c0.011-0.018,0.027-0.022,0.045-0.022l0.019-0.029
		c0.017,0,0.032-0.008,0.048-0.021c0.016,0,0.025-0.005,0.034-0.014c0.005-0.005,0.021-0.009,0.034-0.009
		c0.013,0,0.026-0.005,0.032-0.013c0.008-0.012,0.021-0.012,0.031-0.012c0.02,0,0.031-0.011,0.052-0.022h0.023h0.046l0.021-0.022
		h0.024h0.049h0.021c0.014-0.018,0.029-0.021,0.044-0.021h0.022h0.066h0.068h0.071H2.74h0.019c0.021,0,0.036,0.005,0.049,0.021
		h0.047h0.021H2.92c0.066,0.033,0.12,0.047,0.165,0.059c0.042,0.008,0.091,0.025,0.136,0.057h0.025c0,0.017,0.014,0.023,0.04,0.023
		c0,0.016,0.011,0.021,0.025,0.021l0.021,0.021c0.018,0,0.029,0.011,0.048,0.022l0.047,0.046h0.02
		c0.076,0.044,0.14,0.106,0.186,0.184l0.045,0.046l0.04,0.047c0,0.015,0.009,0.021,0.014,0.021c0.012,0,0.018,0.006,0.018,0.022
		l0.02,0.022l0.023,0.024c0,0.014,0.012,0.026,0.023,0.041c0,0.019,0.003,0.027,0.014,0.035c0.005,0.01,0.01,0.021,0.01,0.036
		l2.877,5.642l2.873-5.642c0-0.032,0.012-0.055,0.02-0.071c0.023-0.015,0.029-0.027,0.029-0.041c0.015,0,0.021-0.011,0.021-0.024
		l0.026-0.022c0-0.019,0.002-0.029,0.025-0.044l0.039-0.047l0.044-0.047c0.051-0.074,0.108-0.139,0.188-0.183l0.044-0.046h0.022
		c0.015-0.014,0.034-0.023,0.045-0.023l0.023-0.021c0.011,0,0.025-0.008,0.025-0.022c0.027,0,0.039-0.008,0.039-0.022h0.027
		c0.026-0.029,0.065-0.049,0.111-0.058c0.047-0.011,0.084-0.021,0.121-0.033c0.027,0,0.052-0.008,0.063-0.022h0.047h0.018h0.046
		c0-0.018,0.01-0.021,0.025-0.021h0.046h0.045h0.069h0.072h0.062c0.034,0,0.055,0.005,0.074,0.021h0.042h0.045l0.023,0.022h0.051
		h0.022l0.041,0.022c0.016,0,0.027,0,0.039,0.011c0,0.009,0.015,0.014,0.03,0.014c0.013,0,0.031,0.007,0.049,0.021h0.021
		c0.012,0.016,0.026,0.021,0.046,0.021v0.023c0.029,0,0.051,0.007,0.063,0.021c0.02,0.016,0.037,0.021,0.048,0.021l0.024,0.022
		l0.023,0.023c0.012,0,0.03,0.008,0.047,0.021l0.042,0.044c0.031,0,0.044,0.017,0.044,0.05c0.083,0.045,0.143,0.106,0.185,0.183
		l0.047,0.044v0.023c0.012,0.015,0.023,0.029,0.023,0.047c0.012,0,0.022,0.005,0.022,0.02l0.025,0.023
		c0,0.016,0.006,0.03,0.018,0.048c0.035,0.077,0.065,0.157,0.095,0.251c0,0.029,0.004,0.051,0.022,0.066v0.045v0.021
		c0,0.018,0.003,0.032,0.021,0.045v0.027v0.02v0.069v0.067v15.119h0.007V71.529z"/>
	<path fill="#CC820D" d="M22.524,70.538c0.27,0.266,0.405,0.588,0.405,0.971c0,0.379-0.136,0.705-0.405,0.972
		c-0.261,0.269-0.588,0.396-0.968,0.396h-5.598c-0.378,0-0.703-0.13-0.967-0.396c-0.268-0.267-0.4-0.593-0.4-0.972V56.391
		c0-0.383,0.133-0.706,0.4-0.97c0.264-0.271,0.589-0.4,0.967-0.4h5.598c0.38,0,0.707,0.132,0.968,0.4
		c0.27,0.264,0.405,0.587,0.405,0.97c0,0.396-0.136,0.723-0.405,0.979c-0.261,0.262-0.588,0.387-0.968,0.387h-4.221v5.757h2.919
		c0.381,0,0.705,0.136,0.975,0.399c0.26,0.268,0.396,0.59,0.396,0.969c0,0.383-0.136,0.705-0.396,0.977
		c-0.27,0.266-0.594,0.397-0.975,0.397h-2.919v3.883h4.221C21.937,70.139,22.263,70.268,22.524,70.538z"/>
	<path fill="#CC820D" d="M34.369,70.96c0.17,0.351,0.181,0.699,0.032,1.053c-0.141,0.349-0.389,0.602-0.741,0.752
		c-0.182,0.077-0.368,0.112-0.55,0.112c-0.26,0-0.5-0.069-0.729-0.218c-0.231-0.145-0.406-0.343-0.526-0.604l-2.536-5.8h-1.367
		v5.251c0,0.379-0.137,0.705-0.399,0.972c-0.27,0.269-0.59,0.396-0.976,0.396c-0.371,0-0.699-0.129-0.971-0.396
		c-0.259-0.267-0.395-0.593-0.395-0.972V56.438c0-0.38,0.136-0.705,0.395-0.975c0.271-0.266,0.6-0.398,0.971-0.398h3.312
		c0.583,0,1.14,0.166,1.665,0.489c0.54,0.329,1.004,0.796,1.402,1.405c0.682,1.083,1.022,2.312,1.022,3.697
		c0,0.672-0.088,1.318-0.262,1.941c-0.175,0.627-0.429,1.204-0.761,1.738c-0.159,0.229-0.315,0.43-0.487,0.613
		c-0.166,0.186-0.335,0.352-0.501,0.5L34.369,70.96z M29.889,63.514c0.079,0,0.184-0.048,0.309-0.147
		c0.135-0.099,0.277-0.271,0.443-0.516c0.202-0.302,0.348-0.645,0.45-1.025c0.097-0.38,0.146-0.768,0.146-1.166
		c0-0.394-0.05-0.785-0.146-1.173c-0.103-0.39-0.248-0.737-0.45-1.039c-0.166-0.229-0.309-0.395-0.443-0.489
		c-0.125-0.104-0.229-0.15-0.309-0.15h-1.938v5.708L29.889,63.514L29.889,63.514z"/>
	<path fill="#CC820D" d="M45.254,68.309c0,0.05,0,0.193-0.002,0.445c-0.011,0.251-0.043,0.552-0.121,0.893
		c-0.063,0.345-0.183,0.713-0.347,1.108c-0.172,0.396-0.411,0.76-0.733,1.095c-0.256,0.288-0.639,0.572-1.152,0.844
		c-0.511,0.274-1.171,0.412-1.974,0.412c-0.808,0-1.463-0.138-1.957-0.412c-0.496-0.271-0.873-0.556-1.135-0.844
		c-0.297-0.335-0.539-0.694-0.702-1.074c-0.17-0.379-0.282-0.741-0.355-1.08c-0.07-0.348-0.104-0.647-0.104-0.917
		c0-0.267,0-0.455,0-0.561v-8.77c0-0.926,0.151-1.669,0.459-2.226c0.303-0.555,0.62-0.986,0.939-1.293
		c0.376-0.351,0.81-0.616,1.292-0.81c0.498-0.189,1.005-0.285,1.535-0.285c0.516,0,1.035,0.093,1.566,0.274
		c0.521,0.185,0.989,0.464,1.401,0.843c0.412,0.384,0.746,0.863,1.008,1.438c0.252,0.578,0.379,1.265,0.379,2.056
		c0,0.396-0.127,0.728-0.396,0.984c-0.265,0.26-0.593,0.389-0.972,0.389c-0.381,0-0.703-0.129-0.965-0.389
		c-0.271-0.259-0.405-0.588-0.405-0.984c0-0.408-0.053-0.736-0.17-0.979c-0.113-0.244-0.252-0.434-0.414-0.562
		c-0.152-0.128-0.332-0.215-0.521-0.262c-0.188-0.047-0.359-0.066-0.514-0.066c-0.109,0-0.242,0.017-0.411,0.054
		c-0.17,0.041-0.328,0.125-0.487,0.257c-0.165,0.124-0.299,0.314-0.417,0.559c-0.113,0.243-0.17,0.577-0.17,1.002v8.814v0.114
		c0,0.077,0,0.178,0,0.31c0,0.127,0.012,0.271,0.047,0.438c0.027,0.156,0.076,0.318,0.137,0.477c0.062,0.161,0.145,0.292,0.25,0.399
		c0.045,0.047,0.145,0.116,0.298,0.217c0.156,0.101,0.412,0.149,0.78,0.149c0.391,0,0.67-0.051,0.818-0.149
		c0.153-0.101,0.252-0.179,0.295-0.239c0.213-0.212,0.35-0.478,0.4-0.8c0.053-0.318,0.078-0.556,0.078-0.707
		c0-0.015,0-0.099,0-0.252c0-0.149,0.035-0.314,0.117-0.489c0.078-0.177,0.2-0.342,0.378-0.492c0.172-0.149,0.427-0.233,0.766-0.251
		c0.346-0.015,0.62,0.048,0.809,0.186c0.191,0.138,0.336,0.289,0.447,0.457C45.154,67.825,45.231,68.053,45.254,68.309z"/>
	<path fill="#CC820D" d="M56.326,68.92c-0.006,0.247-0.045,0.536-0.122,0.864c-0.078,0.329-0.205,0.681-0.369,1.05
		c-0.168,0.372-0.406,0.72-0.707,1.04c-0.265,0.293-0.645,0.57-1.15,0.847c-0.51,0.272-1.164,0.41-1.975,0.41
		c-0.81,0-1.459-0.138-1.957-0.41c-0.496-0.274-0.875-0.554-1.129-0.847c-0.308-0.334-0.535-0.694-0.695-1.07
		c-0.162-0.383-0.273-0.745-0.348-1.088c-0.064-0.339-0.099-0.646-0.099-0.912s0-0.454,0-0.562V56.46
		c0-0.381,0.127-0.705,0.399-0.972c0.265-0.268,0.588-0.398,0.969-0.398s0.701,0.133,0.97,0.398
		c0.271,0.267,0.401,0.591,0.401,0.972v11.898v0.044c0,0.077,0,0.184,0,0.319s0.013,0.28,0.043,0.436
		c0.029,0.15,0.076,0.307,0.142,0.467c0.06,0.16,0.146,0.297,0.252,0.399c0.041,0.047,0.146,0.115,0.298,0.22
		c0.149,0.098,0.395,0.146,0.754,0.146c0.387,0,0.674-0.05,0.836-0.146c0.151-0.104,0.258-0.173,0.307-0.22
		c0.21-0.229,0.336-0.502,0.387-0.819c0.045-0.321,0.062-0.55,0.062-0.685V68.45v-0.023V56.48c0-0.382,0.136-0.703,0.406-0.971
		c0.26-0.269,0.584-0.397,0.961-0.397c0.381,0,0.711,0.131,0.976,0.397c0.272,0.268,0.399,0.589,0.399,0.971v11.922
		C56.334,68.493,56.334,68.665,56.326,68.92z"/>
	<path fill="#CC820D" d="M68.076,70.96c0.164,0.351,0.175,0.699,0.035,1.053c-0.146,0.349-0.394,0.602-0.746,0.752
		c-0.181,0.077-0.366,0.112-0.551,0.112c-0.257,0-0.499-0.069-0.724-0.218c-0.235-0.145-0.406-0.343-0.528-0.604l-2.537-5.8h-1.369
		v5.251c0,0.379-0.135,0.705-0.397,0.972c-0.264,0.269-0.592,0.396-0.974,0.396c-0.377,0-0.704-0.129-0.97-0.396
		s-0.396-0.593-0.396-0.972V56.438c0-0.38,0.131-0.705,0.396-0.975c0.266-0.266,0.593-0.398,0.97-0.398h3.312
		c0.578,0,1.14,0.166,1.668,0.489c0.535,0.329,1.002,0.796,1.396,1.405c0.684,1.083,1.023,2.312,1.023,3.697
		c0,0.672-0.092,1.318-0.266,1.941c-0.168,0.627-0.424,1.204-0.759,1.738c-0.155,0.229-0.313,0.43-0.483,0.613
		c-0.174,0.186-0.332,0.352-0.506,0.5L68.076,70.96z M63.596,63.514c0.082,0,0.181-0.048,0.312-0.147
		c0.13-0.099,0.274-0.271,0.442-0.516c0.201-0.302,0.347-0.645,0.443-1.025c0.1-0.38,0.158-0.768,0.158-1.166
		c0-0.394-0.061-0.785-0.158-1.173c-0.098-0.39-0.242-0.737-0.443-1.039c-0.168-0.229-0.312-0.395-0.442-0.489
		c-0.131-0.104-0.229-0.15-0.312-0.15h-1.94v5.708L63.596,63.514L63.596,63.514z"/>
	<path fill="#CC820D" d="M77.486,55.249c0.347,0.139,0.599,0.382,0.747,0.731c0.16,0.351,0.16,0.699,0.029,1.048l-2.793,7.061v7.49
		c0,0.377-0.129,0.703-0.397,0.969c-0.26,0.267-0.586,0.397-0.97,0.397c-0.395,0-0.719-0.133-0.979-0.397
		c-0.261-0.266-0.388-0.592-0.388-0.969v-7.49l-2.787-7.061c-0.155-0.349-0.155-0.697,0-1.048c0.149-0.352,0.401-0.595,0.752-0.731
		c0.353-0.137,0.701-0.137,1.052,0.011c0.352,0.146,0.594,0.396,0.727,0.745l1.626,4.086l1.597-4.086
		c0.143-0.352,0.375-0.601,0.735-0.745C76.781,55.112,77.131,55.112,77.486,55.249z"/>
</g>
<g>
	<path fill="#FFAA00" d="M60.572,24.366c0,11.804-9.563,21.369-21.367,21.369c-11.792,0-21.354-9.564-21.354-21.369
		c0-11.792,9.562-21.354,21.354-21.354C51.006,3.012,60.572,12.574,60.572,24.366z"/>
	<path fill="#CC820D" d="M59.551,22.718c0,10.603-8.598,19.197-19.197,19.197c-10.604,0-19.212-8.597-19.212-19.197
		c0-10.602,8.607-19.199,19.212-19.199C50.956,3.519,59.551,12.117,59.551,22.718z"/>
	<path fill="#E29307" d="M55.217,17.504c0,7.586-6.137,13.729-13.724,13.729c-7.578,0-13.732-6.146-13.732-13.729
		c0-7.587,6.154-13.733,13.732-13.733C49.083,3.771,55.217,9.917,55.217,17.504z"/>
</g>
</svg>
