<?xml version="1.0" encoding="utf-8"?>
<!-- Generator: Adobe Illustrator 16.0.0, SVG Export Plug-In . SVG Version: 6.00 Build 0)  -->
<!DOCTYPE svg PUBLIC "-//W3C//DTD SVG 1.1//EN" "http://www.w3.org/Graphics/SVG/1.1/DTD/svg11.dtd">
<svg version="1.1" id="Layer_1" xmlns="http://www.w3.org/2000/svg" xmlns:xlink="http://www.w3.org/1999/xlink" x="0px" y="0px"
	 width="255px" height="362px" viewBox="0 0 255 362" enable-background="new 0 0 255 362" xml:space="preserve">
<g id="Layer_4">
	<g>
		<g>
			<path fill="#057EAD" d="M43.585,301.643c1.105,0,2.046,0.388,2.821,1.159c0.775,0.774,1.163,1.718,1.163,2.822v43.903v0.267
				v0.198v0.064v0.136l-0.066,0.064v0.064v0.135v0.066c-0.047,0.044-0.066,0.089-0.066,0.132v0.063c0,0.048-0.011,0.068-0.035,0.068
				c-0.027,0-0.034,0.021-0.034,0.065s-0.01,0.076-0.032,0.101c-0.022,0.021-0.033,0.056-0.033,0.101s-0.014,0.075-0.036,0.1
				c-0.021,0.021-0.033,0.056-0.033,0.101c0,0.044-0.011,0.065-0.032,0.065c-0.021,0-0.032,0.021-0.032,0.066v0.064
				c-0.046,0-0.067,0.021-0.067,0.066l-0.068,0.065c0,0.044-0.021,0.088-0.064,0.133l-0.068,0.065v0.066
				c-0.042,0-0.065,0.021-0.065,0.065c0,0.043-0.023,0.065-0.066,0.065c0,0.045-0.011,0.064-0.036,0.064s-0.032,0.022-0.032,0.067
				H46.64c0,0.045-0.024,0.088-0.068,0.133l-0.133,0.131l-0.131,0.134l-0.132,0.135h-0.067l-0.133,0.134
				c-0.043,0.042-0.09,0.064-0.133,0.064c0,0.043-0.021,0.066-0.068,0.066l-0.064,0.065c-0.046,0-0.066,0.011-0.066,0.032
				s-0.023,0.031-0.066,0.031h-0.067l-0.135,0.135c-0.175,0.089-0.332,0.154-0.465,0.198c-0.131,0.044-0.309,0.089-0.531,0.134
				c-0.176,0.042-0.441,0.065-0.794,0.065c-0.266,0-0.467-0.023-0.6-0.065h-0.131h-0.067c-0.044,0-0.068-0.021-0.068-0.064h-0.266
				v-0.067h-0.13c-0.18-0.089-0.29-0.133-0.333-0.133c-0.045,0-0.068-0.021-0.068-0.065h-0.065c-0.046,0-0.068-0.021-0.068-0.064
				c-0.043,0-0.088-0.023-0.131-0.068c-0.044,0-0.068-0.021-0.068-0.062h-0.065c-0.046,0-0.065-0.016-0.065-0.033
				c0-0.023-0.025-0.033-0.068-0.033c-0.489-0.354-0.885-0.774-1.194-1.264v-0.064c-0.046,0-0.066-0.021-0.066-0.064l-0.068-0.067
				v-0.064c-0.045-0.045-0.065-0.09-0.065-0.134c0-0.045-0.024-0.089-0.068-0.133l-11.355-26.235v24.707
				c0,1.108-0.39,2.05-1.163,2.823c-0.774,0.773-1.716,1.161-2.824,1.161c-1.107,0-2.048-0.388-2.821-1.161
				c-0.776-0.773-1.162-1.715-1.162-2.823v-43.9v-0.267v-0.198v-0.065v-0.131l0.064-0.068v-0.065v-0.133v-0.065
				c0.043-0.043,0.067-0.089,0.067-0.134v-0.065c0-0.042,0.011-0.063,0.035-0.063c0.019,0,0.031-0.022,0.031-0.067
				c0-0.043,0.008-0.075,0.033-0.099c0.023-0.022,0.033-0.056,0.033-0.103c0-0.042,0.012-0.077,0.034-0.101
				c0.021-0.021,0.034-0.055,0.034-0.1s0.011-0.066,0.033-0.066c0.023,0,0.033-0.021,0.033-0.065v-0.065l0.133-0.132
				c0-0.045,0.007-0.066,0.034-0.066c0.024,0,0.035-0.021,0.035-0.066l0.068-0.065v-0.064c0.04-0.045,0.064-0.089,0.064-0.134h0.066
				c0-0.044,0.011-0.067,0.034-0.067c0.021,0,0.03-0.021,0.03-0.064h0.068c0-0.045,0.021-0.088,0.067-0.133l0.133-0.135v-0.063
				c0.045,0,0.09-0.023,0.133-0.066v-0.065c0.042,0,0.088-0.021,0.132-0.065h0.067l0.132-0.133l0.133-0.134h0.066
				c0-0.045,0.023-0.066,0.065-0.066c0.045,0,0.068-0.01,0.068-0.032c0-0.021,0.022-0.032,0.067-0.032h0.066l0.133-0.134
				c0.309-0.176,0.617-0.287,0.929-0.332h0.065c0.222-0.043,0.557-0.063,0.996-0.063h0.2h0.068l0.063,0.063h0.137h0.065h0.129
				c0,0.045,0.021,0.067,0.067,0.067h0.131h0.068c0,0.043,0.043,0.064,0.132,0.064c0.044,0.045,0.108,0.064,0.202,0.064
				c0.043,0.046,0.085,0.066,0.131,0.066h0.066c0,0.043,0.043,0.065,0.133,0.065v0.066c0.09,0,0.132,0.022,0.132,0.065h0.068
				c0.041,0,0.064,0.01,0.064,0.032s0.023,0.032,0.066,0.032l0.065,0.068l0.069,0.063l0.068,0.065h0.064
				c0.043,0.045,0.088,0.066,0.131,0.066v0.065c0.045,0,0.068,0.011,0.068,0.032c0,0.022,0.021,0.035,0.068,0.035v0.063
				c0.04,0,0.064,0.012,0.064,0.033c0,0.022,0.024,0.032,0.066,0.032v0.064l0.133,0.135l0.133,0.133l0.131,0.134
				c0,0.045,0.025,0.089,0.068,0.134c0.042,0,0.068,0.021,0.068,0.064s0.02,0.065,0.064,0.065c0,0.091,0.021,0.134,0.068,0.134
				v0.065c0.043,0.045,0.064,0.09,0.064,0.133h0.064c0,0.089,0.012,0.144,0.036,0.166c0.021,0.022,0.032,0.056,0.032,0.101
				l11.357,26.235V305.62c0-1.104,0.386-2.048,1.163-2.821C41.535,302.029,42.476,301.643,43.585,301.643z"/>
			<path fill="#057EAD" d="M77.955,346.706c0.772,0.774,1.161,1.716,1.161,2.822c0,1.104-0.389,2.049-1.161,2.823
				c-0.776,0.771-1.718,1.16-2.824,1.16H58.86c-1.109,0-2.05-0.389-2.823-1.16c-0.776-0.774-1.162-1.719-1.162-2.823v-43.97
				c0-1.104,0.385-2.048,1.162-2.822c0.773-0.773,1.714-1.164,2.823-1.164h16.271c1.106,0,2.048,0.391,2.824,1.164
				c0.772,0.774,1.161,1.718,1.161,2.822c0,1.149-0.389,2.104-1.161,2.854c-0.776,0.755-1.718,1.129-2.824,1.129H62.844v16.739
				h8.501c1.106,0,2.049,0.388,2.822,1.162c0.772,0.771,1.164,1.716,1.164,2.821c0,1.106-0.392,2.047-1.164,2.822
				c-0.773,0.774-1.716,1.162-2.822,1.162h-8.501v11.292h12.287C76.237,345.544,77.179,345.932,77.955,346.706z"/>
			<path fill="#057EAD" d="M108.144,307.221c0.974,1.506,1.716,3.179,2.222,5.016c0.511,1.837,0.769,3.729,0.769,5.68
				s-0.258,3.83-0.769,5.646c-0.506,1.815-1.249,3.498-2.222,5.049c-1.15,1.77-2.501,3.145-4.051,4.115
				c-1.553,0.976-3.166,1.463-4.851,1.463h-5.578v15.341c0,1.104-0.39,2.049-1.164,2.823c-0.776,0.771-1.716,1.16-2.823,1.16
				c-1.108,0-2.048-0.389-2.821-1.16c-0.776-0.774-1.162-1.719-1.162-2.823v-43.837c0-0.752,0.175-1.426,0.531-2.025
				c0.352-0.598,0.816-1.072,1.393-1.429c0.664-0.397,1.372-0.597,2.125-0.597h9.499c1.685,0,3.297,0.477,4.851,1.428
				C105.643,304.021,106.993,305.404,108.144,307.221z M101.435,324.29c0.533-0.888,0.953-1.884,1.263-2.989
				s0.467-2.233,0.467-3.387s-0.157-2.293-0.467-3.422c-0.31-1.13-0.729-2.137-1.263-3.021c-0.487-0.664-0.917-1.139-1.294-1.43
				c-0.375-0.287-0.677-0.43-0.896-0.43h-5.578v16.604h5.578c0.22,0,0.521-0.143,0.896-0.432
				C100.517,325.496,100.947,324.998,101.435,324.29z"/>
			<path fill="#057EAD" d="M141.851,302.835c0.773,0.755,1.163,1.707,1.163,2.856c0,1.105-0.39,2.049-1.163,2.822
				c-0.778,0.773-1.717,1.163-2.824,1.163h-6.176v39.852c0,1.104-0.389,2.049-1.164,2.823c-0.774,0.771-1.717,1.16-2.822,1.16
				s-2.05-0.389-2.825-1.16c-0.771-0.774-1.161-1.719-1.161-2.823v-39.852h-6.311c-1.105,0-2.046-0.39-2.823-1.163
				c-0.771-0.773-1.161-1.717-1.161-2.822c0-1.149,0.39-2.104,1.161-2.856c0.777-0.751,1.718-1.128,2.823-1.128h20.458
				C140.134,301.707,141.072,302.084,141.851,302.835z"/>
			<path fill="#057EAD" d="M172.534,341.99c-0.021,0.73-0.144,1.572-0.361,2.521c-0.226,0.953-0.576,1.973-1.064,3.057
				c-0.487,1.086-1.172,2.093-2.061,3.021c-0.752,0.845-1.869,1.661-3.353,2.456c-1.481,0.799-3.396,1.197-5.747,1.197
				c-2.348,0-4.236-0.398-5.68-1.197c-1.438-0.795-2.534-1.611-3.286-2.456c-0.885-0.973-1.562-2.015-2.027-3.121
				c-0.463-1.104-0.795-2.155-0.995-3.153c-0.194-0.996-0.299-1.883-0.299-2.656c0-0.774,0-1.318,0-1.629v-34.271
				c0-1.104,0.389-2.047,1.162-2.822c0.778-0.773,1.717-1.159,2.824-1.159c1.105,0,2.047,0.386,2.822,1.159
				c0.775,0.775,1.162,1.719,1.162,2.822v34.605v0.131c0,0.225,0,0.532,0,0.932c0,0.398,0.043,0.818,0.134,1.262
				c0.086,0.443,0.224,0.896,0.397,1.361c0.176,0.465,0.42,0.854,0.73,1.162c0.132,0.133,0.422,0.344,0.863,0.631
				c0.44,0.289,1.17,0.434,2.189,0.434c1.153,0,1.96-0.145,2.428-0.434c0.461-0.287,0.762-0.498,0.894-0.631
				c0.622-0.664,0.998-1.461,1.129-2.39c0.136-0.933,0.201-1.595,0.201-1.993v-0.2v-0.065v-34.736c0-1.106,0.386-2.047,1.161-2.823
				c0.774-0.772,1.716-1.161,2.824-1.161c1.105,0,2.045,0.389,2.822,1.161c0.775,0.776,1.159,1.717,1.159,2.823v34.67
				C172.566,340.762,172.558,341.258,172.534,341.99z"/>
			<path fill="#057EAD" d="M203.186,301.643c1.106,0,2.047,0.388,2.821,1.159c0.775,0.774,1.164,1.718,1.164,2.822v43.903v0.267
				v0.198v0.064v0.136l-0.064,0.064v0.064v0.135v0.066c-0.046,0.044-0.067,0.089-0.067,0.132v0.063c0,0.048-0.01,0.068-0.032,0.068
				s-0.035,0.021-0.035,0.065s-0.01,0.076-0.029,0.101c-0.023,0.021-0.035,0.056-0.035,0.101s-0.015,0.075-0.033,0.1
				c-0.021,0.021-0.033,0.056-0.033,0.101c0,0.044-0.01,0.065-0.034,0.065c-0.021,0-0.029,0.021-0.029,0.066v0.064
				c-0.047,0-0.067,0.021-0.067,0.066l-0.066,0.065c0,0.044-0.021,0.088-0.064,0.133l-0.068,0.065v0.066
				c-0.043,0-0.063,0.021-0.063,0.065c0,0.043-0.021,0.065-0.065,0.065c0,0.045-0.014,0.064-0.033,0.064
				c-0.025,0-0.034,0.022-0.034,0.067h-0.065c0,0.045-0.021,0.088-0.067,0.133l-0.132,0.131l-0.131,0.134l-0.134,0.135h-0.067
				l-0.133,0.134c-0.043,0.042-0.089,0.064-0.131,0.064c0,0.043-0.022,0.066-0.065,0.066l-0.067,0.065
				c-0.042,0-0.062,0.011-0.062,0.032s-0.025,0.031-0.068,0.031h-0.066l-0.136,0.135c-0.174,0.089-0.33,0.154-0.462,0.198
				c-0.133,0.044-0.309,0.089-0.531,0.134c-0.175,0.042-0.44,0.065-0.797,0.065c-0.266,0-0.463-0.023-0.596-0.065h-0.133h-0.068
				c-0.042,0-0.068-0.021-0.068-0.064h-0.264v-0.067h-0.131c-0.18-0.089-0.289-0.133-0.334-0.133c-0.043,0-0.066-0.021-0.066-0.065
				h-0.063c-0.045,0-0.067-0.021-0.067-0.064c-0.043,0-0.088-0.023-0.132-0.068c-0.043,0-0.067-0.021-0.067-0.062h-0.062
				c-0.047,0-0.068-0.016-0.068-0.033c0-0.023-0.022-0.033-0.065-0.033c-0.488-0.354-0.886-0.774-1.193-1.264v-0.064
				c-0.047,0-0.067-0.021-0.067-0.064l-0.068-0.067v-0.064c-0.043-0.045-0.064-0.09-0.064-0.134c0-0.045-0.021-0.089-0.068-0.133
				l-11.354-26.235v24.707c0,1.108-0.387,2.05-1.161,2.823c-0.775,0.773-1.717,1.161-2.822,1.161c-1.107,0-2.051-0.388-2.822-1.161
				c-0.775-0.773-1.164-1.715-1.164-2.823v-43.9v-0.267v-0.198v-0.065v-0.131l0.064-0.068v-0.065v-0.133v-0.065
				c0.045-0.043,0.068-0.089,0.068-0.134v-0.065c0-0.042,0.011-0.063,0.034-0.063c0.021,0,0.03-0.022,0.03-0.067
				c0-0.043,0.011-0.075,0.035-0.099c0.022-0.022,0.033-0.056,0.033-0.103c0-0.042,0.01-0.077,0.032-0.101
				c0.021-0.021,0.036-0.055,0.036-0.1s0.007-0.066,0.029-0.066c0.023,0,0.035-0.021,0.035-0.065v-0.065l0.131-0.132
				c0-0.045,0.01-0.066,0.033-0.066c0.021,0,0.034-0.021,0.034-0.066l0.066-0.065v-0.064c0.041-0.045,0.063-0.089,0.063-0.134h0.068
				c0-0.044,0.01-0.067,0.033-0.067c0.021,0,0.029-0.021,0.029-0.064h0.068c0-0.045,0.021-0.088,0.064-0.133l0.134-0.135v-0.063
				c0.045,0,0.089-0.023,0.132-0.066v-0.065c0.044,0,0.089-0.021,0.132-0.065h0.068l0.134-0.133l0.13-0.134h0.068
				c0-0.045,0.02-0.066,0.062-0.066c0.046,0,0.067-0.01,0.067-0.032c0-0.021,0.021-0.032,0.068-0.032h0.062l0.133-0.134
				c0.312-0.176,0.621-0.287,0.934-0.332h0.062c0.227-0.043,0.559-0.063,0.997-0.063h0.201h0.065l0.064,0.063h0.135h0.064h0.133
				c0,0.045,0.023,0.067,0.068,0.067h0.133h0.063c0,0.043,0.046,0.064,0.132,0.064c0.047,0.045,0.111,0.064,0.2,0.064
				c0.043,0.046,0.091,0.066,0.134,0.066h0.068c0,0.043,0.04,0.065,0.131,0.065v0.066c0.087,0,0.135,0.022,0.135,0.065h0.064
				c0.042,0,0.064,0.01,0.064,0.032s0.021,0.032,0.066,0.032l0.064,0.068l0.066,0.063l0.067,0.065h0.065
				c0.043,0.045,0.086,0.066,0.131,0.066v0.065c0.045,0,0.068,0.011,0.068,0.032c0,0.022,0.021,0.035,0.066,0.035v0.063
				c0.043,0,0.064,0.012,0.064,0.033c0,0.022,0.023,0.032,0.066,0.032v0.064l0.132,0.135l0.133,0.133l0.134,0.134
				c0,0.045,0.021,0.089,0.063,0.134c0.047,0,0.067,0.021,0.067,0.064s0.021,0.065,0.064,0.065c0,0.091,0.025,0.134,0.068,0.134
				v0.065c0.043,0.045,0.064,0.09,0.064,0.133h0.066c0,0.089,0.011,0.144,0.035,0.166c0.021,0.022,0.031,0.056,0.031,0.101
				l11.355,26.235V305.62c0-1.104,0.385-2.048,1.161-2.821C201.134,302.029,202.077,301.643,203.186,301.643z"/>
			<path fill="#057EAD" d="M237.557,346.706c0.774,0.774,1.161,1.716,1.161,2.822c0,1.104-0.387,2.049-1.161,2.823
				c-0.778,0.771-1.718,1.16-2.822,1.16h-16.271c-1.106,0-2.053-0.389-2.823-1.16c-0.78-0.774-1.163-1.719-1.163-2.823v-43.97
				c0-1.104,0.383-2.048,1.163-2.822c0.771-0.773,1.716-1.164,2.823-1.164h16.271c1.104,0,2.044,0.391,2.822,1.164
				c0.774,0.774,1.161,1.718,1.161,2.822c0,1.149-0.387,2.104-1.161,2.854c-0.778,0.755-1.718,1.129-2.822,1.129h-12.289v16.739
				h8.503c1.104,0,2.047,0.388,2.824,1.162c0.771,0.771,1.163,1.716,1.163,2.821c0,1.106-0.394,2.047-1.163,2.822
				c-0.776,0.774-1.718,1.162-2.824,1.162h-8.503v11.292h12.289C235.839,345.544,236.778,345.932,237.557,346.706z"/>
		</g>
		<g>
			<path fill="#057EAD" d="M252.601,127.603c0,69.094-56.006,125.102-125.102,125.102c-46.571,0-87.199-25.447-108.739-63.197
				C8.347,171.254,2.399,150.125,2.399,127.604c0-69.094,56.01-125.1,125.102-125.1C196.595,2.504,252.601,58.51,252.601,127.603z"
				/>
			<path fill="#1394BC" d="M92.441,18.911c14.698-7.872,31.487-12.339,49.297-12.339c57.765,0,103.979,50.275,110.083,107.234
				c0,0-21.597-7.557-51.438-12.982c-29.821-5.426-90.854-6.781-90.854-6.781L47.147,83.189L30.876,66.918l59.667-1.358
				c0,0,5.426-24.405-8.131-18.979c-13.563,5.426-1.357-14.922,6.776-14.922C97.324,31.658,92.441,18.911,92.441,18.911z"/>
			<path fill="#074054" d="M221.603,210.113c0,0-13.867,16.313-31.055,25.572c0,0-84.312-7.736-124.327,1.08
				c0,0-19.012-10.671-30.76-24.617c-3.706-4.4,55.081-19.787,55.081-19.787l89.847,2.029L221.603,210.113z"/>
			<path fill="#046A9A" d="M22.406,195.393c0,0,101.929-44.423,211.772-2.382c0,0-7.433,12.079-13.866,18.349
				c-2.832,2.76-104.69-27.928-184.019,1.91C36.293,213.27,26.661,202.852,22.406,195.393z"/>
		</g>
	</g>
</g>
</svg>
