<?xml version="1.0" encoding="utf-8"?>
<!-- Generator: Adobe Illustrator 16.0.0, SVG Export Plug-In . SVG Version: 6.00 Build 0)  -->
<!DOCTYPE svg PUBLIC "-//W3C//DTD SVG 1.1//EN" "http://www.w3.org/Graphics/SVG/1.1/DTD/svg11.dtd">
<svg version="1.1" id="Layer_1" xmlns="http://www.w3.org/2000/svg" xmlns:xlink="http://www.w3.org/1999/xlink" x="0px" y="0px"
	 width="255px" height="362px" viewBox="29.614 48.094 255 362" enable-background="new 29.614 48.094 255 362"
	 xml:space="preserve">
<g id="Layer_1_1_">
</g>
<g id="Layer_5">
</g>
<g id="Layer_2">
</g>
<g id="neptune">
</g>
<g id="uranus">
</g>
<g id="saturn">
</g>
<g id="jupiter">
</g>
<g id="Layer_14">
</g>
<g id="mars">
</g>
<g id="venus">
</g>
<g id="mercury">
</g>
<g id="earth">
</g>
<g id="Layer_6">
</g>
<g id="Layer_4">
	<g>
		<g>
			<path fill="#057EAD" d="M73.934,354.312c1.105,0,2.046,0.388,2.821,1.16c0.775,0.774,1.163,1.717,1.163,2.822v43.903v0.267v0.198
				v0.065v0.135l-0.066,0.065v0.064v0.135v0.066c-0.047,0.044-0.066,0.089-0.066,0.132v0.064c0,0.047-0.011,0.068-0.035,0.068
				c-0.027,0-0.034,0.021-0.034,0.066c0,0.044-0.01,0.076-0.032,0.1c-0.022,0.021-0.033,0.056-0.033,0.1
				c0,0.045-0.014,0.076-0.036,0.1c-0.021,0.022-0.033,0.056-0.033,0.101c0,0.044-0.011,0.065-0.032,0.065s-0.032,0.022-0.032,0.066
				v0.065c-0.046,0-0.067,0.022-0.067,0.067l-0.068,0.065c0,0.044-0.021,0.088-0.064,0.133l-0.068,0.065v0.066
				c-0.042,0-0.065,0.021-0.065,0.066c0,0.043-0.023,0.065-0.066,0.065c0,0.045-0.011,0.065-0.036,0.065s-0.032,0.022-0.032,0.067
				h-0.065c0,0.045-0.024,0.088-0.068,0.133l-0.133,0.131l-0.131,0.134l-0.132,0.135h-0.067l-0.133,0.133
				c-0.043,0.042-0.09,0.065-0.133,0.065c0,0.043-0.021,0.066-0.068,0.066l-0.064,0.066c-0.046,0-0.066,0.01-0.066,0.032
				c0,0.021-0.023,0.031-0.066,0.031H75.86l-0.135,0.135c-0.175,0.088-0.332,0.154-0.465,0.198
				c-0.131,0.044-0.309,0.089-0.531,0.134c-0.176,0.042-0.441,0.065-0.794,0.065c-0.266,0-0.467-0.023-0.6-0.065h-0.131h-0.067
				c-0.044,0-0.068-0.022-0.068-0.065h-0.266v-0.067h-0.13c-0.18-0.089-0.29-0.133-0.333-0.133c-0.045,0-0.068-0.022-0.068-0.065
				h-0.065c-0.046,0-0.068-0.022-0.068-0.065c-0.043,0-0.088-0.023-0.131-0.068c-0.044,0-0.068-0.021-0.068-0.063h-0.065
				c-0.046,0-0.065-0.015-0.065-0.033c0-0.023-0.025-0.033-0.068-0.033c-0.489-0.354-0.885-0.774-1.194-1.264v-0.064
				c-0.046,0-0.066-0.022-0.066-0.065l-0.068-0.067v-0.065c-0.045-0.044-0.065-0.089-0.065-0.133c0-0.045-0.024-0.089-0.068-0.133
				l-11.355-26.236v24.708c0,1.108-0.39,2.049-1.163,2.823c-0.775,0.773-1.716,1.161-2.824,1.161c-1.107,0-2.048-0.388-2.821-1.161
				c-0.776-0.774-1.162-1.715-1.162-2.823V358.36v-0.267v-0.199v-0.065v-0.131l0.064-0.068v-0.065v-0.133v-0.066
				c0.043-0.043,0.067-0.088,0.067-0.133v-0.066c0-0.042,0.011-0.064,0.035-0.064c0.019,0,0.031-0.022,0.031-0.067
				c0-0.043,0.008-0.075,0.033-0.099c0.023-0.022,0.033-0.055,0.033-0.102c0-0.042,0.012-0.077,0.034-0.1
				c0.021-0.021,0.034-0.055,0.034-0.1s0.011-0.067,0.033-0.067c0.023,0,0.033-0.021,0.033-0.065v-0.066l0.133-0.131
				c0-0.045,0.007-0.067,0.034-0.067c0.024,0,0.035-0.021,0.035-0.066l0.068-0.065v-0.065c0.04-0.045,0.064-0.089,0.064-0.134h0.066
				c0-0.044,0.011-0.067,0.034-0.067c0.021,0,0.03-0.021,0.03-0.065h0.068c0-0.045,0.021-0.088,0.067-0.133l0.133-0.134v-0.064
				c0.045,0,0.09-0.023,0.133-0.066v-0.065c0.042,0,0.088-0.021,0.132-0.066h0.067l0.132-0.133l0.133-0.133h0.066
				c0-0.045,0.023-0.067,0.065-0.067c0.045,0,0.068-0.01,0.068-0.032c0-0.021,0.022-0.033,0.067-0.033h0.066l0.133-0.133
				c0.309-0.176,0.617-0.287,0.929-0.332h0.065c0.222-0.043,0.557-0.064,0.996-0.064h0.2h0.068l0.064,0.064h0.137h0.065H55.8
				c0,0.045,0.021,0.067,0.067,0.067h0.131h0.068c0,0.043,0.043,0.065,0.132,0.065c0.044,0.045,0.108,0.064,0.202,0.064
				c0.043,0.046,0.085,0.066,0.131,0.066h0.066c0,0.043,0.043,0.066,0.133,0.066v0.066c0.09,0,0.132,0.023,0.132,0.066h0.068
				c0.041,0,0.064,0.01,0.064,0.032s0.023,0.032,0.066,0.032l0.065,0.068l0.069,0.064l0.068,0.066h0.064
				c0.043,0.044,0.088,0.066,0.131,0.066v0.065c0.045,0,0.068,0.011,0.068,0.032c0,0.023,0.021,0.035,0.068,0.035v0.064
				c0.04,0,0.064,0.012,0.064,0.033c0,0.023,0.024,0.033,0.066,0.033v0.064l0.133,0.135l0.133,0.133l0.131,0.133
				c0,0.045,0.025,0.089,0.068,0.134c0.042,0,0.068,0.021,0.068,0.065c0,0.043,0.02,0.065,0.064,0.065
				c0,0.091,0.021,0.134,0.068,0.134v0.065c0.043,0.045,0.064,0.09,0.064,0.133h0.064c0,0.089,0.012,0.144,0.036,0.166
				c0.021,0.022,0.032,0.056,0.032,0.101l11.357,26.235v-24.709c0-1.104,0.386-2.048,1.163-2.821
				C71.884,354.699,72.824,354.312,73.934,354.312z"/>
			<path fill="#057EAD" d="M108.304,399.376c0.772,0.774,1.161,1.716,1.161,2.822c0,1.105-0.389,2.049-1.161,2.823
				c-0.776,0.772-1.718,1.161-2.824,1.161H89.209c-1.109,0-2.05-0.389-2.823-1.161c-0.776-0.774-1.162-1.718-1.162-2.823v-43.97
				c0-1.104,0.385-2.047,1.162-2.822c0.773-0.773,1.714-1.164,2.823-1.164h16.271c1.106,0,2.048,0.391,2.824,1.164
				c0.772,0.775,1.161,1.718,1.161,2.822c0,1.15-0.389,2.104-1.161,2.854c-0.776,0.755-1.718,1.129-2.824,1.129H93.193v16.739h8.501
				c1.106,0,2.049,0.388,2.822,1.162c0.772,0.772,1.164,1.716,1.164,2.822s-0.392,2.047-1.164,2.822
				c-0.773,0.774-1.716,1.162-2.822,1.162h-8.501v11.292h12.287C106.586,398.214,107.528,398.602,108.304,399.376z"/>
			<path fill="#057EAD" d="M138.492,359.891c0.974,1.506,1.716,3.178,2.222,5.015c0.51,1.837,0.769,3.729,0.769,5.68
				s-0.258,3.83-0.769,5.646c-0.506,1.816-1.249,3.498-2.222,5.049c-1.15,1.77-2.501,3.145-4.051,4.115
				c-1.553,0.976-3.165,1.463-4.85,1.463h-5.578V402.2c0,1.105-0.39,2.049-1.164,2.823c-0.776,0.772-1.716,1.161-2.823,1.161
				c-1.108,0-2.048-0.389-2.821-1.161c-0.776-0.774-1.162-1.718-1.162-2.823v-43.837c0-0.752,0.175-1.426,0.531-2.025
				c0.352-0.598,0.816-1.072,1.393-1.429c0.664-0.397,1.372-0.597,2.125-0.597h9.499c1.685,0,3.297,0.477,4.85,1.428
				C135.991,356.691,137.342,358.074,138.492,359.891z M131.783,376.96c0.533-0.888,0.953-1.884,1.263-2.989
				c0.31-1.106,0.467-2.234,0.467-3.387s-0.158-2.293-0.467-3.422c-0.31-1.13-0.729-2.137-1.263-3.021
				c-0.487-0.664-0.917-1.139-1.294-1.43c-0.375-0.287-0.676-0.43-0.896-0.43h-5.578v16.604h5.578c0.22,0,0.521-0.143,0.896-0.432
				C130.865,378.166,131.296,377.668,131.783,376.96z"/>
			<path fill="#057EAD" d="M172.199,355.505c0.774,0.755,1.163,1.707,1.163,2.856c0,1.106-0.389,2.049-1.163,2.822
				c-0.778,0.774-1.716,1.164-2.824,1.164h-6.176v39.851c0,1.105-0.388,2.049-1.164,2.823c-0.774,0.772-1.716,1.161-2.822,1.161
				c-1.105,0-2.05-0.389-2.825-1.161c-0.771-0.774-1.162-1.718-1.162-2.823v-39.851h-6.31c-1.105,0-2.046-0.39-2.823-1.164
				c-0.772-0.773-1.161-1.716-1.161-2.822c0-1.149,0.389-2.103,1.161-2.856c0.777-0.751,1.718-1.128,2.823-1.128h20.458
				C170.483,354.377,171.421,354.754,172.199,355.505z"/>
			<path fill="#057EAD" d="M202.883,394.66c-0.021,0.73-0.144,1.572-0.362,2.522c-0.225,0.953-0.576,1.972-1.064,3.056
				c-0.487,1.086-1.172,2.093-2.061,3.021c-0.752,0.844-1.869,1.661-3.352,2.456c-1.482,0.799-3.396,1.197-5.747,1.197
				c-2.348,0-4.237-0.398-5.68-1.197c-1.437-0.795-2.534-1.612-3.286-2.456c-0.885-0.973-1.561-2.015-2.027-3.121
				c-0.463-1.105-0.795-2.156-0.996-3.154c-0.194-0.996-0.298-1.883-0.298-2.656c0-0.774,0-1.318,0-1.629v-34.271
				c0-1.104,0.388-2.047,1.162-2.822c0.778-0.774,1.716-1.16,2.824-1.16c1.106,0,2.047,0.386,2.823,1.16
				c0.775,0.775,1.162,1.718,1.162,2.822v34.605v0.131c0,0.225,0,0.532,0,0.932c0,0.398,0.043,0.818,0.133,1.262
				c0.086,0.443,0.224,0.896,0.398,1.361c0.176,0.465,0.42,0.854,0.73,1.162c0.132,0.133,0.422,0.344,0.863,0.631
				c0.441,0.289,1.17,0.433,2.19,0.433c1.153,0,1.96-0.144,2.427-0.433c0.461-0.287,0.762-0.498,0.894-0.631
				c0.622-0.664,0.998-1.461,1.129-2.39c0.136-0.933,0.201-1.595,0.201-1.993v-0.2v-0.065v-34.737c0-1.106,0.386-2.047,1.161-2.823
				c0.775-0.773,1.716-1.161,2.824-1.161c1.106,0,2.045,0.388,2.823,1.161c0.775,0.776,1.159,1.717,1.159,2.823v34.67
				C202.915,393.432,202.906,393.928,202.883,394.66z"/>
			<path fill="#057EAD" d="M233.534,354.312c1.107,0,2.047,0.388,2.822,1.16c0.775,0.774,1.164,1.717,1.164,2.822v43.903v0.267
				v0.198v0.065v0.135l-0.065,0.065v0.064v0.135v0.066c-0.046,0.044-0.067,0.089-0.067,0.132v0.064c0,0.047-0.01,0.068-0.033,0.068
				c-0.022,0-0.035,0.021-0.035,0.066c0,0.044-0.01,0.076-0.029,0.1c-0.023,0.021-0.035,0.056-0.035,0.1
				c0,0.045-0.015,0.076-0.033,0.1c-0.022,0.022-0.033,0.056-0.033,0.101c0,0.044-0.01,0.065-0.035,0.065
				c-0.021,0-0.029,0.022-0.029,0.066v0.065c-0.047,0-0.068,0.022-0.068,0.067l-0.066,0.065c0,0.044-0.021,0.088-0.064,0.133
				l-0.068,0.065v0.066c-0.043,0-0.064,0.021-0.064,0.066c0,0.043-0.021,0.065-0.066,0.065c0,0.045-0.013,0.065-0.033,0.065
				c-0.025,0-0.034,0.022-0.034,0.067h-0.065c0,0.045-0.022,0.088-0.068,0.133l-0.131,0.131l-0.131,0.134l-0.134,0.135h-0.067
				l-0.133,0.133c-0.043,0.042-0.089,0.065-0.131,0.065c0,0.043-0.023,0.066-0.066,0.066l-0.067,0.066
				c-0.042,0-0.063,0.01-0.063,0.032c0,0.021-0.025,0.031-0.068,0.031h-0.066l-0.136,0.135c-0.174,0.088-0.33,0.154-0.462,0.198
				c-0.133,0.044-0.309,0.089-0.531,0.134c-0.175,0.042-0.441,0.065-0.797,0.065c-0.266,0-0.463-0.023-0.596-0.065h-0.133h-0.068
				c-0.042,0-0.068-0.022-0.068-0.065h-0.264v-0.067h-0.131c-0.18-0.089-0.289-0.133-0.334-0.133c-0.043,0-0.066-0.022-0.066-0.065
				h-0.064c-0.045,0-0.067-0.022-0.067-0.065c-0.043,0-0.088-0.023-0.132-0.068c-0.043,0-0.067-0.021-0.067-0.063h-0.063
				c-0.047,0-0.068-0.015-0.068-0.033c0-0.023-0.023-0.033-0.066-0.033c-0.488-0.354-0.886-0.774-1.193-1.264v-0.064
				c-0.047,0-0.068-0.022-0.068-0.065l-0.068-0.067v-0.065c-0.043-0.044-0.064-0.089-0.064-0.133c0-0.045-0.021-0.089-0.068-0.133
				l-11.355-26.236v24.708c0,1.108-0.387,2.049-1.161,2.823c-0.776,0.773-1.717,1.161-2.823,1.161c-1.107,0-2.05-0.388-2.822-1.161
				c-0.775-0.774-1.164-1.715-1.164-2.823V358.36v-0.267v-0.199v-0.065v-0.131l0.065-0.068v-0.065v-0.133v-0.066
				c0.044-0.043,0.068-0.088,0.068-0.133v-0.066c0-0.042,0.011-0.064,0.034-0.064c0.02,0,0.031-0.022,0.031-0.067
				c0-0.043,0.01-0.075,0.034-0.099c0.023-0.022,0.034-0.055,0.034-0.102c0-0.042,0.009-0.077,0.032-0.1
				c0.021-0.021,0.036-0.055,0.036-0.1s0.007-0.067,0.029-0.067c0.024,0,0.035-0.021,0.035-0.065v-0.066l0.131-0.131
				c0-0.045,0.01-0.067,0.034-0.067c0.021,0,0.034-0.021,0.034-0.066l0.066-0.065v-0.065c0.041-0.045,0.064-0.089,0.064-0.134h0.068
				c0-0.044,0.01-0.067,0.033-0.067c0.021,0,0.03-0.021,0.03-0.065h0.068c0-0.045,0.021-0.088,0.065-0.133l0.133-0.134v-0.064
				c0.045,0,0.089-0.023,0.132-0.066v-0.065c0.044,0,0.089-0.021,0.132-0.066h0.068l0.134-0.133l0.13-0.133h0.068
				c0-0.045,0.02-0.067,0.063-0.067c0.045,0,0.067-0.01,0.067-0.032c0-0.021,0.021-0.033,0.068-0.033h0.063l0.133-0.133
				c0.312-0.176,0.621-0.287,0.933-0.332h0.063c0.226-0.043,0.558-0.064,0.997-0.064h0.201h0.066l0.064,0.064h0.135h0.064h0.133
				c0,0.045,0.023,0.067,0.068,0.067h0.133h0.064c0,0.043,0.045,0.065,0.131,0.065c0.047,0.045,0.112,0.064,0.201,0.064
				c0.043,0.046,0.09,0.066,0.133,0.066h0.069c0,0.043,0.04,0.066,0.131,0.066v0.066c0.087,0,0.134,0.023,0.134,0.066h0.065
				c0.042,0,0.065,0.01,0.065,0.032s0.021,0.032,0.066,0.032l0.064,0.068l0.067,0.064l0.067,0.066h0.066
				c0.043,0.044,0.086,0.066,0.131,0.066v0.065c0.045,0,0.068,0.011,0.068,0.032c0,0.023,0.02,0.035,0.066,0.035v0.064
				c0.043,0,0.064,0.012,0.064,0.033c0,0.023,0.024,0.033,0.067,0.033v0.064l0.132,0.135l0.133,0.133l0.133,0.133
				c0,0.045,0.021,0.089,0.064,0.134c0.047,0,0.068,0.021,0.068,0.065c0,0.043,0.021,0.065,0.064,0.065
				c0,0.091,0.025,0.134,0.068,0.134v0.065c0.043,0.045,0.064,0.09,0.064,0.133h0.067c0,0.089,0.011,0.144,0.035,0.166
				c0.021,0.022,0.032,0.056,0.032,0.101l11.355,26.235v-24.709c0-1.104,0.385-2.048,1.161-2.821
				C231.483,354.699,232.426,354.312,233.534,354.312z"/>
			<path fill="#057EAD" d="M267.905,399.376c0.775,0.774,1.162,1.716,1.162,2.822c0,1.105-0.387,2.049-1.162,2.823
				c-0.778,0.772-1.717,1.161-2.822,1.161h-16.271c-1.106,0-2.052-0.389-2.823-1.161c-0.78-0.774-1.163-1.718-1.163-2.823v-43.97
				c0-1.104,0.383-2.047,1.163-2.822c0.771-0.773,1.716-1.164,2.823-1.164h16.271c1.105,0,2.044,0.391,2.822,1.164
				c0.775,0.775,1.162,1.718,1.162,2.822c0,1.15-0.387,2.104-1.162,2.854c-0.778,0.755-1.717,1.129-2.822,1.129h-12.289v16.739
				h8.503c1.104,0,2.047,0.388,2.824,1.162c0.771,0.772,1.163,1.716,1.163,2.822s-0.393,2.047-1.163,2.822
				c-0.776,0.774-1.718,1.162-2.824,1.162h-8.503v11.292h12.289C266.188,398.214,267.127,398.602,267.905,399.376z"/>
		</g>
		<g>
			<path fill="#057EAD" d="M282.949,180.273c0,69.094-56.005,125.102-125.101,125.102c-46.571,0-87.199-25.447-108.739-63.197
				c-10.414-18.254-16.361-39.383-16.361-61.904c0-69.094,56.01-125.1,125.101-125.1C226.944,55.174,282.949,111.18,282.949,180.273
				z"/>
			<path fill="#1394BC" d="M122.79,71.581c14.698-7.872,31.488-12.339,49.297-12.339c57.764,0,103.98,50.275,110.083,107.234
				c0,0-21.597-7.557-51.438-12.982c-29.821-5.426-90.854-6.781-90.854-6.781l-62.382-10.854l-16.271-16.271l59.667-1.358
				c0,0,5.426-24.405-8.131-18.979c-13.564,5.426-1.358-14.922,6.776-14.922C127.673,84.328,122.79,71.581,122.79,71.581z"/>
			<path fill="#074054" d="M251.951,262.783c0,0-13.867,16.314-31.054,25.572c0,0-84.313-7.736-124.327,1.08
				c0,0-19.012-10.67-30.76-24.617c-3.706-4.4,55.081-19.787,55.081-19.787l89.847,2.029L251.951,262.783z"/>
			<path fill="#046A9A" d="M52.755,248.062c0,0,101.928-44.422,211.773-2.381c0,0-7.433,12.079-13.867,18.348
				c-2.832,2.76-104.69-27.927-184.019,1.91C66.642,265.939,57.01,255.521,52.755,248.062z"/>
		</g>
	</g>
</g>
<g>
	<g>
		<path fill="#057EAD" d="M283.526,180.275c0,69.276-56.152,125.432-125.432,125.432c-46.693,0-87.432-25.514-109.027-63.363
			c-10.443-18.303-16.404-39.488-16.404-62.069c0-69.279,56.158-125.432,125.432-125.432
			C227.374,54.844,283.526,110.996,283.526,180.275z"/>
	</g>
	<g>
		<path fill="#074054" d="M55.328,153.957c0.498,0,0.924,0.172,1.271,0.525c0.352,0.347,0.525,0.773,0.525,1.268v19.804
			c0,0.503-0.174,0.924-0.525,1.274c-0.348,0.35-0.773,0.521-1.271,0.521s-0.924-0.171-1.273-0.521
			c-0.352-0.351-0.523-0.771-0.523-1.274v-8.118h-6.861c-0.279,0-0.543-0.061-0.795-0.18c-0.246-0.123-0.455-0.289-0.613-0.51
			c-0.377-0.479-0.488-0.996-0.33-1.559l2.639-9.883c0.117-0.479,0.395-0.843,0.822-1.098c0.43-0.247,0.885-0.312,1.363-0.192
			c0.479,0.138,0.842,0.427,1.094,0.856c0.25,0.429,0.314,0.879,0.195,1.363l-2.037,7.608h4.523v-8.093
			c0-0.494,0.172-0.921,0.523-1.268C54.404,154.129,54.83,153.957,55.328,153.957z"/>
		<path fill="#074054" d="M70.637,160.248c0.42,2.757-0.449,6.318-2.607,10.691c-0.381,0.783-0.76,1.504-1.137,2.172
			c-0.381,0.671-0.721,1.254-1.018,1.754c-0.299,0.502-0.547,0.892-0.736,1.186c-0.189,0.289-0.293,0.445-0.314,0.465
			c-0.18,0.258-0.402,0.453-0.674,0.584c-0.27,0.125-0.545,0.194-0.824,0.194c-0.379,0-0.719-0.112-1.018-0.333
			c-0.4-0.275-0.646-0.66-0.732-1.149c-0.092-0.489,0.002-0.935,0.283-1.337c0.357-0.533,0.678-1.041,0.959-1.512
			c0.281-0.469,0.592-1.012,0.943-1.637c0.348-0.613,0.703-1.281,1.062-2.002c0.42-0.838,0.779-1.647,1.078-2.428
			c-0.338,0.1-0.693,0.18-1.062,0.236c-0.369,0.065-0.764,0.094-1.186,0.094h-0.029c-0.697,0-1.316-0.07-1.855-0.213
			c-0.539-0.138-1.018-0.322-1.439-0.551c-0.418-0.227-0.777-0.482-1.078-0.75c-0.299-0.271-0.549-0.533-0.75-0.796
			c-0.418-0.515-0.701-1.012-0.852-1.478c-0.15-0.471-0.236-0.777-0.256-0.918c-0.119-0.555-0.174-1.121-0.166-1.691
			c0.012-0.566,0.078-1.134,0.197-1.693c0.279-1.256,0.799-2.336,1.557-3.236c0.58-0.66,1.289-1.176,2.127-1.555
			c0.9-0.381,1.857-0.521,2.877-0.422c1.857,0.122,3.324,0.689,4.402,1.709c1.098,0.999,1.84,2.518,2.219,4.553L70.637,160.248z
			 M66.531,162.404c0.16-0.182,0.291-0.354,0.391-0.528c0.102-0.167,0.172-0.304,0.209-0.403c0-0.096-0.006-0.211-0.016-0.33
			c-0.01-0.119-0.021-0.227-0.043-0.328c-0.119-0.658-0.281-1.199-0.482-1.615c-0.197-0.422-0.43-0.749-0.701-0.988
			c-0.27-0.244-0.58-0.411-0.928-0.51c-0.354-0.102-0.754-0.172-1.217-0.209c-0.857-0.064-1.545,0.195-2.064,0.778
			c-0.359,0.4-0.609,0.935-0.75,1.6c-0.141,0.671-0.15,1.324-0.027,1.964l0.027,0.029c0,0.041,0.035,0.156,0.105,0.346
			c0.07,0.19,0.195,0.383,0.375,0.586c0.479,0.557,1.207,0.84,2.188,0.84C64.873,163.593,65.851,163.185,66.531,162.404z"/>
		<path fill="#074054" d="M74.126,173.353c0.469-0.133,0.934-0.062,1.393,0.191c0.42,0.24,0.693,0.602,0.824,1.078
			c0.127,0.48,0.074,0.931-0.166,1.35l-2.127,3.717c-0.26,0.439-0.629,0.724-1.107,0.854c-0.479,0.131-0.93,0.073-1.35-0.164
			c-0.459-0.26-0.748-0.635-0.867-1.11c-0.119-0.481-0.049-0.929,0.211-1.345l2.125-3.717
			C73.304,173.764,73.656,173.483,74.126,173.353z"/>
		<path fill="#074054" d="M90.376,168.902c0.221,1.16,0.211,2.299-0.027,3.416c-0.141,0.619-0.342,1.203-0.6,1.75
			c-0.26,0.552-0.592,1.049-0.988,1.485c-0.303,0.341-0.629,0.64-0.99,0.903c-0.359,0.254-0.74,0.463-1.139,0.624
			c-0.756,0.302-1.557,0.452-2.396,0.452h-0.479c-1.34-0.083-2.525-0.491-3.566-1.23c-0.998-0.697-1.799-1.654-2.396-2.874
			c-0.938-1.998-1.336-4.542-1.197-7.64c0-1.158,0.129-2.217,0.389-3.18c0.262-0.957,0.594-1.812,1.006-2.555
			c0.408-0.752,0.857-1.412,1.346-1.979c0.492-0.572,0.973-1.056,1.453-1.454c0.498-0.422,0.99-0.78,1.469-1.08
			c0.479-0.301,0.914-0.541,1.305-0.732c0.387-0.19,0.707-0.326,0.957-0.422c0.25-0.088,0.404-0.141,0.465-0.161
			c0.316-0.102,0.629-0.13,0.928-0.094c0.26,0.047,0.518,0.144,0.779,0.302c0.262,0.161,0.469,0.439,0.629,0.843
			c0.16,0.416,0.182,0.778,0.061,1.074c-0.119,0.3-0.281,0.549-0.479,0.749c-0.223,0.221-0.512,0.408-0.871,0.567
			c-0.297,0.102-0.617,0.234-0.957,0.39c-0.281,0.141-0.6,0.331-0.959,0.557c-0.359,0.229-0.729,0.508-1.107,0.82
			c-1.777,1.562-2.707,3.529-2.789,5.907c0.461-0.322,1.016-0.591,1.662-0.812c0.648-0.219,1.406-0.33,2.262-0.33
			c0.682,0,1.291,0.072,1.83,0.211c0.537,0.141,1.016,0.324,1.438,0.554c0.42,0.233,0.777,0.479,1.078,0.749
			c0.299,0.268,0.561,0.533,0.777,0.793c0.402,0.541,0.678,1.039,0.824,1.499C90.242,168.463,90.336,168.764,90.376,168.902z
			 M86.064,173.155c0.357-0.396,0.613-0.935,0.762-1.604c0.152-0.663,0.156-1.321,0.018-1.961v-0.031
			c-0.02-0.039-0.068-0.146-0.135-0.328c-0.068-0.18-0.197-0.377-0.375-0.598c-0.479-0.562-1.207-0.841-2.189-0.841
			c-1.037,0-1.885,0.343-2.543,1.021c-0.242,0.26-0.416,0.504-0.525,0.732c-0.109,0.229-0.176,0.367-0.195,0.406
			s-0.045,0.133-0.074,0.286c-0.031,0.146-0.035,0.325-0.016,0.524c0,0.153,0.035,0.358,0.105,0.611
			c0.07,0.25,0.137,0.435,0.195,0.554c0,0.039,0.01,0.068,0.031,0.089c0.598,1.196,1.555,1.837,2.875,1.923
			C84.875,173.998,85.564,173.735,86.064,173.155z"/>
		<path fill="#074054" d="M102.001,171.033c0.496,0,0.924,0.172,1.271,0.52c0.35,0.354,0.525,0.775,0.525,1.275
			c0,0.562-0.047,1.121-0.135,1.678c-0.088,0.559-0.305,1.068-0.643,1.529c-0.402,0.557-0.932,0.957-1.59,1.197
			c-0.537,0.197-1.197,0.301-1.975,0.301h-5.902c-0.5,0-0.926-0.177-1.273-0.527c-0.352-0.344-0.525-0.771-0.525-1.272
			c0-1.038,0.145-2.011,0.434-2.921c0.291-0.906,0.664-1.774,1.127-2.592c0.457-0.816,0.967-1.597,1.525-2.336
			c0.559-0.741,1.119-1.445,1.678-2.127c0.439-0.539,0.859-1.063,1.258-1.59c0.4-0.516,0.76-1.033,1.08-1.54
			c0.318-0.511,0.572-1.015,0.764-1.515c0.188-0.499,0.283-0.996,0.283-1.498v-0.119c0.02-0.162-0.006-0.43-0.076-0.81
			c-0.066-0.377-0.225-0.708-0.461-0.985c-0.062-0.061-0.201-0.156-0.42-0.283c-0.221-0.133-0.59-0.198-1.109-0.198
			c-0.699,0-1.17,0.138-1.41,0.421c-0.217,0.261-0.342,0.586-0.373,0.973c-0.029,0.391-0.035,0.625-0.016,0.708
			c0.08,0.495-0.027,0.947-0.328,1.345c-0.303,0.398-0.699,0.63-1.199,0.689c-0.5,0.076-0.945-0.031-1.332-0.332
			c-0.389-0.297-0.625-0.697-0.705-1.195c0-0.062-0.01-0.252-0.029-0.568c-0.02-0.32,0-0.697,0.059-1.125
			c0.062-0.429,0.174-0.896,0.346-1.391c0.17-0.5,0.451-0.981,0.855-1.439c0.338-0.4,0.838-0.78,1.496-1.137
			c0.66-0.363,1.537-0.543,2.637-0.543c1.078,0,1.953,0.176,2.619,0.525c0.67,0.346,1.176,0.713,1.514,1.09
			c0.377,0.424,0.68,0.863,0.9,1.34c0.219,0.465,0.373,0.904,0.465,1.311c0.09,0.414,0.139,0.78,0.146,1.098
			c0.012,0.32,0.018,0.539,0.018,0.658c0,0.819-0.119,1.598-0.359,2.334c-0.242,0.74-0.561,1.459-0.961,2.146
			c-0.398,0.689-0.846,1.36-1.346,2.009c-0.5,0.645-1.01,1.282-1.529,1.898c-0.799,0.979-1.541,1.943-2.23,2.893
			c-0.691,0.947-1.174,1.951-1.455,3.017h3.838c0.176,0,0.32-0.011,0.432-0.02c0.109-0.013,0.193-0.026,0.254-0.047
			c0.02-0.078,0.037-0.195,0.045-0.343c0.012-0.151,0.018-0.383,0.018-0.705c0-0.5,0.176-0.922,0.523-1.275
			C101.076,171.205,101.501,171.033,102.001,171.033z"/>
		<path fill="#074054" d="M116.708,171.301c0,0.119-0.004,0.349-0.014,0.689c-0.01,0.338-0.066,0.723-0.164,1.154
			c-0.1,0.43-0.258,0.888-0.465,1.374c-0.209,0.489-0.518,0.946-0.914,1.363c-0.357,0.382-0.869,0.749-1.527,1.11
			c-0.66,0.356-1.518,0.541-2.576,0.541c-1.078,0-1.938-0.185-2.576-0.541c-0.639-0.361-1.131-0.729-1.469-1.11
			c-0.4-0.437-0.711-0.903-0.928-1.407c-0.221-0.497-0.373-0.971-0.467-1.42c-0.086-0.453-0.133-0.852-0.133-1.203
			c0-0.346,0-0.592,0-0.732v-11.473c0-1.217,0.199-2.193,0.6-2.922c0.398-0.728,0.809-1.292,1.227-1.689
			c1.02-0.961,2.256-1.439,3.715-1.439c0.68,0,1.359,0.119,2.039,0.361c0.678,0.234,1.285,0.609,1.824,1.105
			c0.543,0.502,0.98,1.129,1.318,1.887c0.34,0.762,0.51,1.66,0.51,2.697V171.301L116.708,171.301z M112.099,157.428
			c-0.184-0.096-0.365-0.164-0.557-0.195c-0.191-0.023-0.365-0.041-0.525-0.041c-0.141,0-0.318,0.025-0.537,0.072
			c-0.221,0.053-0.436,0.162-0.646,0.333c-0.213,0.167-0.389,0.411-0.541,0.731c-0.15,0.322-0.225,0.76-0.225,1.318v5.694
			L112.099,157.428z M112.515,173.429c0.258-0.278,0.43-0.635,0.51-1.066c0.08-0.426,0.111-0.732,0.09-0.912v-0.089v-6.529
			l-3.355,8.745c0.098,0.082,0.244,0.159,0.436,0.242c0.188,0.078,0.475,0.123,0.854,0.123c0.498,0,0.854-0.076,1.062-0.214
			C112.322,173.588,112.457,173.486,112.515,173.429z"/>
		<path fill="#074054" d="M146.982,176.051c-0.15,0.469-0.455,0.814-0.914,1.03c-0.24,0.12-0.508,0.183-0.809,0.183
			c-0.338,0-0.648-0.086-0.93-0.258c-0.279-0.17-0.498-0.414-0.656-0.731l-4.436-8.749l-1.379,2.215v5.845
			c0,0.499-0.174,0.921-0.523,1.272c-0.35,0.348-0.775,0.525-1.275,0.525c-0.498,0-0.922-0.178-1.273-0.525
			c-0.346-0.352-0.523-0.773-0.523-1.272v-6.353v-0.028v-13.421c0-0.499,0.178-0.926,0.523-1.274
			c0.352-0.349,0.775-0.525,1.273-0.525c0.5,0,0.926,0.177,1.275,0.525c0.349,0.348,0.523,0.775,0.523,1.274v7.1l4.914-7.965
			c0.26-0.443,0.631-0.719,1.109-0.83c0.479-0.107,0.939-0.031,1.377,0.227c0.418,0.26,0.689,0.629,0.809,1.11
			c0.119,0.476,0.039,0.926-0.24,1.347l-4.402,7.16l5.449,10.723C147.095,175.117,147.131,175.582,146.982,176.051z"/>
		<path fill="#074054" d="M151.941,153.866c0.518,0,0.947,0.175,1.287,0.521c0.338,0.353,0.51,0.775,0.51,1.277v19.83
			c0,0.5-0.172,0.924-0.51,1.274c-0.34,0.349-0.77,0.525-1.287,0.525c-0.5,0-0.926-0.177-1.275-0.525
			c-0.348-0.351-0.521-0.774-0.521-1.274v-19.83c0-0.502,0.174-0.926,0.521-1.277C151.015,154.041,151.441,153.866,151.941,153.866z
			"/>
		<path fill="#074054" d="M169.165,174.223c0.34,0.351,0.508,0.771,0.508,1.271s-0.168,0.924-0.508,1.274
			c-0.34,0.349-0.77,0.525-1.285,0.525h-7.823c-0.498,0-0.922-0.177-1.271-0.525c-0.348-0.351-0.523-0.774-0.523-1.274v-19.83
			c0-0.502,0.177-0.926,0.523-1.277c0.35-0.346,0.773-0.521,1.271-0.521s0.926,0.175,1.272,0.521
			c0.353,0.353,0.524,0.775,0.524,1.277v18.032h6.024C168.396,173.696,168.825,173.871,169.165,174.223z"/>
		<path fill="#074054" d="M184.173,171.326c0,0.123-0.006,0.35-0.018,0.677c-0.01,0.331-0.061,0.71-0.162,1.142
			c-0.1,0.43-0.258,0.888-0.479,1.374c-0.221,0.489-0.529,0.946-0.932,1.363c-0.338,0.382-0.844,0.749-1.51,1.11
			c-0.67,0.356-1.535,0.541-2.592,0.541c-1.061,0-1.912-0.185-2.562-0.541c-0.65-0.361-1.143-0.729-1.482-1.11
			c-0.402-0.437-0.703-0.903-0.912-1.407c-0.211-0.497-0.359-0.971-0.449-1.42c-0.092-0.453-0.135-0.852-0.135-1.203
			c0-0.346,0-0.592,0-0.732v-11.473c0-1.196,0.197-2.167,0.596-2.902c0.4-0.742,0.812-1.301,1.23-1.682
			c1.02-0.959,2.256-1.438,3.715-1.438c0.68,0,1.359,0.119,2.037,0.358c0.678,0.242,1.287,0.611,1.828,1.11
			c0.537,0.5,0.977,1.127,1.316,1.887c0.338,0.762,0.51,1.656,0.51,2.697V171.326L184.173,171.326z M179.979,173.429
			c0.139-0.138,0.25-0.312,0.33-0.513c0.078-0.197,0.137-0.398,0.18-0.598c0.039-0.198,0.062-0.375,0.074-0.523
			c0.01-0.15,0.016-0.255,0.016-0.314v-0.061v-11.742c0-0.541-0.076-0.973-0.227-1.29s-0.328-0.567-0.539-0.747
			c-0.209-0.182-0.434-0.297-0.672-0.346c-0.242-0.052-0.463-0.075-0.66-0.075c-0.164,0-0.352,0.023-0.57,0.075
			c-0.219,0.049-0.432,0.156-0.629,0.314c-0.199,0.159-0.375,0.404-0.523,0.736c-0.148,0.33-0.225,0.763-0.225,1.301v11.625v0.055
			c0,0.104,0,0.242,0,0.422c0,0.182,0.02,0.372,0.059,0.57c0.043,0.199,0.102,0.405,0.184,0.613
			c0.078,0.213,0.188,0.388,0.328,0.525c0.059,0.062,0.189,0.156,0.389,0.283c0.201,0.131,0.529,0.201,0.99,0.201
			c0.518,0,0.883-0.076,1.096-0.214C179.784,173.588,179.917,173.486,179.979,173.429z"/>
		<path fill="#074054" d="M201.278,175.494c0,0.5-0.176,0.924-0.525,1.274c-0.35,0.349-0.771,0.525-1.271,0.525
			c-0.496,0-0.926-0.177-1.271-0.525c-0.352-0.351-0.525-0.774-0.525-1.274V163.15l-1.887,3.718c-0.16,0.437-0.449,0.759-0.869,0.96
			c-0.24,0.119-0.49,0.177-0.748,0.177h-0.031h-0.031h-0.027h-0.031c-0.26,0-0.51-0.058-0.75-0.177
			c-0.416-0.201-0.705-0.523-0.865-0.96l-1.891-3.718v12.344c0,0.5-0.174,0.924-0.521,1.274c-0.35,0.349-0.771,0.525-1.273,0.525
			c-0.498,0-0.922-0.177-1.273-0.525c-0.35-0.351-0.523-0.774-0.523-1.274v-19.83v-0.094v-0.088v-0.031v-0.026
			c0-0.021,0.006-0.034,0.014-0.034c0.014,0,0.018-0.008,0.018-0.028v-0.028v-0.058c0-0.021,0.006-0.039,0.016-0.047
			c0.01-0.011,0.016-0.026,0.016-0.047c0.021-0.12,0.061-0.229,0.121-0.33c0-0.019,0-0.026,0.014-0.026
			c0.008,0,0.014-0.013,0.014-0.031l0.029-0.028l0.031-0.034c0-0.021,0.01-0.036,0.029-0.057v-0.031l0.059-0.061
			c0.041-0.039,0.078-0.08,0.107-0.119c0.029-0.041,0.064-0.078,0.104-0.119l0.061-0.062h0.031c0-0.016,0.004-0.029,0.014-0.029
			c0.012,0,0.016-0.008,0.016-0.028h0.033c0.018-0.021,0.041-0.034,0.061-0.034c0-0.013,0.006-0.023,0.029-0.023l0.025-0.036
			l0.062-0.028c0.02-0.019,0.039-0.029,0.061-0.029l0.029-0.028c0.02,0,0.039-0.011,0.059-0.031c0.021,0,0.037-0.005,0.047-0.016
			c0.01-0.011,0.023-0.016,0.047-0.016c0.018,0,0.031-0.003,0.043-0.013c0.01-0.011,0.025-0.014,0.045-0.014s0.039-0.01,0.061-0.033
			h0.027h0.061l0.027-0.029h0.035h0.061h0.029c0.021-0.018,0.039-0.028,0.059-0.028h0.031h0.09h0.088h0.094h0.057h0.035
			c0.016,0,0.035,0.011,0.055,0.028h0.062h0.027h0.062c0.08,0.042,0.148,0.065,0.209,0.076c0.061,0.01,0.117,0.033,0.18,0.075h0.031
			c0,0.021,0.018,0.028,0.059,0.028c0,0.021,0.012,0.029,0.031,0.029l0.029,0.028c0.02,0,0.041,0.013,0.059,0.036l0.061,0.058h0.031
			c0.1,0.058,0.18,0.14,0.238,0.239l0.061,0.06l0.062,0.06c0,0.021,0.004,0.029,0.012,0.029c0.012,0,0.014,0.013,0.014,0.031
			l0.033,0.031l0.029,0.028c0,0.021,0.01,0.042,0.029,0.062c0,0.016,0.004,0.034,0.014,0.042c0.01,0.01,0.018,0.025,0.018,0.044
			l3.771,7.403l3.777-7.403c0-0.039,0.01-0.07,0.031-0.086c0.02-0.021,0.025-0.042,0.025-0.062c0.021,0,0.029-0.008,0.029-0.028
			l0.033-0.031c0-0.019,0.008-0.039,0.027-0.061l0.059-0.06l0.062-0.06c0.059-0.1,0.139-0.182,0.24-0.239l0.059-0.058h0.031
			c0.018-0.023,0.039-0.036,0.061-0.036l0.027-0.028c0.021,0,0.031-0.008,0.031-0.029c0.039,0,0.059-0.008,0.059-0.028h0.029
			c0.041-0.042,0.09-0.065,0.15-0.075c0.061-0.011,0.111-0.023,0.148-0.047c0.039,0,0.07-0.008,0.092-0.029h0.059h0.033h0.059
			c0-0.018,0.01-0.028,0.031-0.028h0.059h0.061h0.088h0.092h0.09c0.039,0,0.07,0.011,0.092,0.028h0.059h0.061l0.029,0.029h0.059
			h0.031l0.061,0.033c0.021,0,0.035,0.003,0.043,0.014c0.01,0.01,0.027,0.013,0.047,0.013s0.039,0.011,0.059,0.031h0.031
			c0.02,0.021,0.039,0.031,0.059,0.031v0.028c0.045,0,0.07,0.011,0.094,0.029c0.02,0.021,0.039,0.028,0.059,0.028l0.029,0.036
			l0.031,0.023c0.02,0,0.039,0.014,0.061,0.034l0.059,0.058c0.041,0,0.061,0.021,0.061,0.062c0.1,0.06,0.182,0.14,0.238,0.238
			l0.062,0.061v0.031c0.018,0.021,0.029,0.036,0.029,0.057c0.02,0,0.029,0.014,0.029,0.034l0.027,0.028
			c0,0.019,0.014,0.039,0.031,0.058c0.039,0.101,0.08,0.21,0.121,0.33c0,0.042,0.008,0.073,0.027,0.094v0.058v0.028
			c0,0.021,0.012,0.042,0.031,0.062v0.026v0.031v0.088v0.094v19.83H201.278z"/>
		<path fill="#074054" d="M215.163,174.191c0.348,0.348,0.523,0.771,0.523,1.273c0,0.498-0.176,0.922-0.523,1.275
			c-0.352,0.346-0.771,0.522-1.273,0.522h-7.34c-0.5,0-0.922-0.178-1.271-0.522c-0.35-0.354-0.521-0.777-0.521-1.275v-19.832
			c0-0.5,0.174-0.924,0.521-1.271c0.352-0.352,0.771-0.523,1.271-0.523h7.34c0.502,0,0.924,0.172,1.273,0.523
			c0.348,0.348,0.523,0.771,0.523,1.271c0,0.52-0.176,0.949-0.523,1.287c-0.352,0.339-0.771,0.508-1.273,0.508h-5.541v7.555h3.834
			c0.5,0,0.926,0.172,1.273,0.522c0.348,0.349,0.525,0.775,0.525,1.272c0,0.499-0.178,0.926-0.525,1.274
			c-0.35,0.346-0.773,0.522-1.273,0.522h-3.834v5.091h5.541C214.392,173.665,214.812,173.84,215.163,174.191z"/>
		<path fill="#074054" d="M230.083,154.404c0.35,0.342,0.523,0.768,0.523,1.288c0,0.499-0.174,0.921-0.523,1.274
			c-0.35,0.35-0.775,0.525-1.275,0.525h-2.783v17.973c0,0.498-0.176,0.922-0.523,1.275c-0.35,0.346-0.775,0.522-1.275,0.522
			s-0.92-0.178-1.271-0.522c-0.35-0.354-0.523-0.777-0.523-1.275v-17.973h-2.848c-0.498,0-0.922-0.176-1.273-0.525
			c-0.348-0.354-0.52-0.775-0.52-1.274c0-0.521,0.174-0.946,0.52-1.288c0.354-0.338,0.775-0.51,1.273-0.51h9.227
			C229.308,153.895,229.733,154.066,230.083,154.404z"/>
		<path fill="#074054" d="M243.353,174.191c0.35,0.348,0.525,0.771,0.525,1.273c0,0.498-0.176,0.922-0.525,1.275
			c-0.348,0.346-0.775,0.522-1.273,0.522h-7.34c-0.498,0-0.924-0.178-1.271-0.522c-0.354-0.354-0.523-0.777-0.523-1.275v-19.832
			c0-0.5,0.172-0.924,0.523-1.271c0.35-0.352,0.773-0.523,1.271-0.523h7.34c0.498,0,0.926,0.172,1.273,0.523
			c0.35,0.348,0.525,0.771,0.525,1.271c0,0.52-0.176,0.949-0.525,1.287c-0.348,0.339-0.775,0.508-1.273,0.508h-5.541v7.555h3.834
			c0.498,0,0.924,0.172,1.273,0.522c0.352,0.349,0.523,0.775,0.523,1.272c0,0.499-0.172,0.926-0.523,1.274
			c-0.35,0.346-0.775,0.522-1.273,0.522h-3.834v5.091h5.541C242.577,173.665,243.005,173.84,243.353,174.191z"/>
		<path fill="#074054" d="M259.187,174.744c0.219,0.461,0.232,0.919,0.043,1.379c-0.189,0.463-0.514,0.786-0.973,0.989
			c-0.24,0.099-0.482,0.151-0.719,0.151c-0.34,0-0.66-0.098-0.959-0.287c-0.301-0.188-0.529-0.453-0.689-0.793l-3.324-7.609h-1.797
			v6.891c0,0.498-0.176,0.922-0.525,1.275c-0.35,0.346-0.775,0.523-1.273,0.523c-0.5,0-0.924-0.178-1.271-0.523
			c-0.352-0.354-0.523-0.777-0.523-1.275v-19.772c0-0.497,0.174-0.921,0.523-1.272c0.35-0.351,0.771-0.525,1.271-0.525h4.346
			c0.76,0,1.486,0.214,2.188,0.643c0.697,0.432,1.305,1.047,1.826,1.848c0.9,1.415,1.348,3.033,1.348,4.849
			c0,0.882-0.113,1.729-0.346,2.547c-0.227,0.819-0.562,1.579-1.002,2.276c-0.201,0.301-0.41,0.569-0.631,0.812
			c-0.219,0.236-0.439,0.458-0.658,0.657L259.187,174.744z M253.313,164.982c0.1,0,0.236-0.068,0.406-0.198
			c0.168-0.13,0.363-0.354,0.584-0.674c0.258-0.397,0.451-0.851,0.582-1.347c0.131-0.5,0.195-1.01,0.195-1.53
			c0-0.518-0.064-1.032-0.195-1.542c-0.131-0.508-0.324-0.961-0.582-1.363c-0.221-0.299-0.416-0.516-0.584-0.643
			c-0.17-0.131-0.307-0.193-0.406-0.193h-2.545v7.49H253.313z"/>
		<path fill="#074054" d="M272.069,166.299c1.176,1.479,1.766,3.201,1.766,5.182c0,0.619-0.066,1.17-0.195,1.664
			c-0.131,0.492-0.289,0.922-0.479,1.304c-0.191,0.378-0.406,0.708-0.645,0.985c-0.24,0.281-0.479,0.518-0.719,0.721
			c-1.119,0.897-2.477,1.348-4.076,1.348c-0.777,0-1.506-0.111-2.186-0.33c-0.68-0.219-1.279-0.559-1.797-1.018
			c-0.223-0.182-0.445-0.41-0.672-0.689c-0.232-0.28-0.441-0.607-0.629-0.99c-0.193-0.38-0.35-0.816-0.469-1.319
			c-0.121-0.497-0.182-1.066-0.182-1.706c0-0.497,0.176-0.922,0.525-1.272c0.348-0.346,0.773-0.524,1.273-0.524
			c0.52,0,0.949,0.18,1.287,0.524c0.34,0.352,0.51,0.775,0.51,1.272c0,0.283,0.025,0.566,0.076,0.855
			c0.049,0.286,0.154,0.557,0.312,0.793c0.158,0.24,0.395,0.436,0.707,0.583c0.309,0.151,0.723,0.227,1.238,0.227
			c0.359,0,0.693-0.047,1.004-0.138c0.312-0.089,0.574-0.225,0.795-0.4c0.48-0.422,0.723-1.051,0.723-1.889
			c0-0.619-0.082-1.158-0.242-1.621c-0.16-0.455-0.396-0.879-0.703-1.27c-0.309-0.393-0.689-0.76-1.139-1.107
			c-0.447-0.352-0.953-0.727-1.514-1.125c-0.52-0.358-1.033-0.732-1.545-1.123c-0.508-0.393-0.98-0.832-1.422-1.332
			c-0.52-0.644-0.914-1.306-1.182-1.995c-0.273-0.689-0.406-1.441-0.406-2.261c0-0.119,0.004-0.338,0.016-0.658
			c0.01-0.317,0.061-0.691,0.148-1.107c0.092-0.422,0.242-0.861,0.449-1.319c0.213-0.46,0.516-0.897,0.916-1.321
			c0.338-0.377,0.848-0.75,1.527-1.108c0.68-0.355,1.559-0.536,2.637-0.536c1.098,0,1.973,0.182,2.619,0.555
			c0.65,0.366,1.143,0.744,1.484,1.126c0.377,0.458,0.664,0.938,0.855,1.448c0.188,0.508,0.312,0.981,0.373,1.41
			c0.061,0.428,0.078,0.805,0.061,1.125c-0.02,0.316-0.041,0.506-0.061,0.568c-0.061,0.357-0.184,0.656-0.361,0.898
			c-0.158,0.215-0.373,0.402-0.641,0.554c-0.273,0.148-0.641,0.172-1.098,0.075c-0.438-0.08-0.766-0.227-0.973-0.438
			c-0.211-0.207-0.35-0.429-0.42-0.654c-0.074-0.229-0.102-0.436-0.09-0.617c0.012-0.177,0.014-0.291,0.014-0.325
			c0.021-0.083,0.031-0.194,0.031-0.333c0-0.141-0.014-0.289-0.045-0.449c-0.031-0.159-0.076-0.32-0.135-0.482
			c-0.061-0.155-0.143-0.296-0.24-0.416c-0.24-0.301-0.699-0.449-1.377-0.449c-0.541,0-0.916,0.067-1.123,0.211
			c-0.211,0.137-0.346,0.238-0.406,0.299c-0.139,0.141-0.242,0.299-0.312,0.479s-0.125,0.359-0.168,0.538
			c-0.037,0.184-0.061,0.333-0.072,0.466c-0.01,0.13-0.016,0.224-0.016,0.286v0.058v0.062c0,0.396,0.07,0.762,0.209,1.092
			c0.141,0.328,0.334,0.641,0.586,0.93c0.248,0.285,0.562,0.576,0.943,0.868c0.379,0.288,0.807,0.606,1.285,0.942
			c0.561,0.4,1.135,0.829,1.725,1.287C271.022,165.166,271.565,165.697,272.069,166.299z"/>
		<path fill="#074054" d="M94.064,207.254c0,1.676-0.4,3.033-1.199,4.071c-1.141,1.456-2.938,2.188-5.396,2.188
			c-1.094,0-1.967-0.188-2.617-0.555c-0.652-0.373-1.145-0.744-1.482-1.127c-0.4-0.439-0.691-0.913-0.869-1.42
			c-0.182-0.51-0.301-0.986-0.357-1.426c-0.062-0.439-0.084-0.812-0.062-1.121c0.018-0.312,0.041-0.506,0.062-0.583
			c0.078-0.283,0.207-0.53,0.387-0.751c0.158-0.18,0.369-0.342,0.627-0.482c0.262-0.135,0.59-0.176,0.988-0.117
			c0.402,0.062,0.707,0.193,0.914,0.392c0.213,0.2,0.367,0.407,0.465,0.63c0.1,0.255,0.16,0.538,0.184,0.837
			c-0.023,0.142-0.018,0.394,0.014,0.769c0.029,0.366,0.156,0.672,0.373,0.91c0.24,0.297,0.701,0.447,1.375,0.447
			c0.623,0,1.131-0.055,1.531-0.164c0.4-0.107,0.703-0.277,0.914-0.51c0.209-0.229,0.354-0.51,0.436-0.837
			c0.08-0.331,0.117-0.714,0.117-1.15c0-1.964-0.357-3.321-1.076-4.075c-0.561-0.561-1.488-0.839-2.787-0.839
			c-0.5,0-0.924-0.177-1.273-0.524c-0.348-0.353-0.523-0.775-0.523-1.275v-0.027c0-0.522,0.176-0.953,0.523-1.291
			c0.35-0.341,0.773-0.51,1.273-0.51c0.18,0,0.395,0,0.645,0c0.248,0,0.494-0.008,0.734-0.027c0.238-0.021,0.459-0.051,0.658-0.095
			c0.199-0.036,0.34-0.099,0.42-0.175c0.02-0.021,0.059-0.075,0.119-0.168c0.061-0.09,0.121-0.24,0.18-0.461
			c0.061-0.221,0.109-0.518,0.15-0.887c0.039-0.367,0.059-0.842,0.059-1.422v-0.09c0.02-0.162-0.004-0.436-0.072-0.824
			c-0.072-0.39-0.238-0.717-0.496-0.975c-0.059-0.062-0.199-0.16-0.418-0.302c-0.221-0.138-0.59-0.208-1.113-0.208
			c-0.674,0-1.135,0.15-1.375,0.447c-0.217,0.242-0.344,0.546-0.373,0.919c-0.031,0.368-0.037,0.629-0.014,0.791v-0.029
			c0.018,0.32-0.023,0.611-0.123,0.869c-0.098,0.221-0.254,0.437-0.463,0.658c-0.209,0.221-0.545,0.358-1.004,0.421
			c-0.459,0.06-0.818,0.021-1.078-0.12c-0.262-0.14-0.461-0.31-0.602-0.51c-0.158-0.222-0.258-0.491-0.295-0.81
			c-0.021-0.062-0.045-0.25-0.062-0.57c-0.021-0.318,0-0.692,0.062-1.12c0.057-0.429,0.176-0.896,0.357-1.395
			c0.178-0.499,0.469-0.98,0.869-1.437c0.338-0.402,0.83-0.785,1.482-1.154c0.65-0.369,1.523-0.557,2.617-0.557
			c1.102,0,1.986,0.182,2.654,0.541c0.668,0.358,1.174,0.729,1.512,1.106c0.383,0.421,0.68,0.859,0.9,1.316
			c0.219,0.461,0.375,0.901,0.463,1.319c0.09,0.418,0.141,0.787,0.152,1.109c0.008,0.318,0.014,0.536,0.014,0.656
			c0,0.684-0.029,1.279-0.088,1.8c-0.062,0.519-0.141,0.985-0.24,1.407c-0.219,0.757-0.531,1.387-0.93,1.889l0.061,0.057
			C93.363,202.105,94.064,204.293,94.064,207.254z"/>
		<path fill="#074054" d="M106.345,207.254c0,0.117-0.006,0.346-0.016,0.682c-0.01,0.345-0.062,0.727-0.164,1.154
			c-0.102,0.43-0.254,0.891-0.463,1.383c-0.211,0.488-0.514,0.941-0.916,1.359c-0.357,0.383-0.869,0.75-1.527,1.107
			c-0.66,0.358-1.518,0.545-2.576,0.545c-1.08,0-1.938-0.187-2.576-0.545c-0.643-0.357-1.129-0.726-1.467-1.107
			c-0.402-0.439-0.711-0.908-0.93-1.404c-0.219-0.502-0.373-0.976-0.467-1.424c-0.09-0.447-0.133-0.85-0.133-1.199
			c0-0.348,0-0.598,0-0.731v-11.476c0-1.221,0.199-2.194,0.6-2.924c0.398-0.727,0.809-1.291,1.227-1.691
			c1.021-0.957,2.258-1.438,3.715-1.438c0.682,0,1.359,0.122,2.039,0.361c0.678,0.238,1.287,0.607,1.828,1.107
			c0.537,0.5,0.977,1.123,1.316,1.883c0.34,0.764,0.51,1.66,0.51,2.701V207.254z M101.73,193.381
			c-0.178-0.099-0.365-0.166-0.553-0.195c-0.191-0.03-0.365-0.047-0.525-0.047c-0.137,0-0.318,0.026-0.537,0.076
			c-0.221,0.049-0.436,0.16-0.646,0.327c-0.209,0.172-0.389,0.419-0.537,0.733c-0.152,0.322-0.225,0.766-0.225,1.322v5.69
			L101.73,193.381z M102.152,209.377c0.258-0.281,0.428-0.633,0.51-1.062c0.078-0.43,0.109-0.735,0.09-0.916v-0.09v-6.529
			l-3.357,8.746c0.102,0.082,0.246,0.16,0.434,0.238c0.191,0.08,0.475,0.122,0.855,0.122c0.498,0,0.854-0.069,1.064-0.209
			C101.957,209.537,102.09,209.438,102.152,209.377z"/>
		<path fill="#074054" d="M110.404,209.301c0.469-0.127,0.934-0.063,1.393,0.198c0.42,0.239,0.691,0.596,0.824,1.077
			c0.129,0.48,0.074,0.928-0.164,1.345l-2.129,3.718c-0.258,0.439-0.629,0.724-1.107,0.854c-0.48,0.13-0.93,0.074-1.35-0.167
			c-0.457-0.257-0.75-0.624-0.867-1.107c-0.119-0.477-0.047-0.926,0.209-1.346l2.125-3.719
			C109.58,209.715,109.935,209.432,110.404,209.301z"/>
		<path fill="#074054" d="M124.949,201.439c0.238,0.416,0.428,0.841,0.568,1.27c0.139,0.432,0.244,0.84,0.316,1.229
			c0.064,0.394,0.119,0.75,0.146,1.082c0.031,0.33,0.047,0.613,0.047,0.854c0,0.397-0.033,0.993-0.104,1.779
			c-0.072,0.791-0.316,1.604-0.736,2.441c-0.518,0.996-1.236,1.779-2.156,2.339c-0.998,0.621-2.246,0.929-3.744,0.929
			s-2.717-0.319-3.654-0.957c-0.859-0.601-1.428-1.421-1.709-2.458c-0.121-0.479-0.049-0.936,0.209-1.363
			c0.258-0.428,0.631-0.705,1.109-0.82c0.479-0.121,0.932-0.059,1.363,0.19c0.43,0.25,0.703,0.625,0.824,1.124
			c0.018,0.141,0.1,0.258,0.238,0.359c0.102,0.062,0.27,0.129,0.51,0.207c0.238,0.08,0.611,0.119,1.109,0.119
			c1.139,0,1.945-0.291,2.426-0.881c0.48-0.588,0.721-1.596,0.721-3.01c0-0.24-0.035-0.619-0.107-1.143
			c-0.068-0.517-0.244-1.035-0.523-1.554c-0.08-0.161-0.189-0.325-0.328-0.497c-0.143-0.169-0.318-0.33-0.541-0.479
			c-0.219-0.148-0.488-0.271-0.809-0.362c-0.32-0.088-0.707-0.129-1.168-0.129h-3.025c-0.502,0-0.92-0.175-1.258-0.514
			c-0.359-0.355-0.541-0.785-0.541-1.287v-8.48c0-0.495,0.176-0.921,0.523-1.271c0.352-0.35,0.773-0.525,1.275-0.525h6.77
			c0.502,0,0.924,0.176,1.273,0.525c0.348,0.351,0.525,0.775,0.525,1.271c0,0.505-0.178,0.927-0.525,1.275
			c-0.35,0.351-0.771,0.524-1.273,0.524h-4.971v4.884h1.227c1.459,0,2.717,0.329,3.775,0.985
			C123.67,199.682,124.41,200.459,124.949,201.439z"/>
		<path fill="#074054" d="M140.256,196.198c0.42,2.752-0.449,6.317-2.604,10.69c-0.381,0.78-0.762,1.504-1.139,2.174
			c-0.383,0.668-0.721,1.252-1.021,1.752c-0.297,0.498-0.541,0.896-0.734,1.184c-0.188,0.289-0.293,0.445-0.312,0.464
			c-0.182,0.263-0.404,0.452-0.674,0.588c-0.271,0.128-0.547,0.19-0.824,0.19c-0.377,0-0.719-0.107-1.018-0.328
			c-0.4-0.281-0.645-0.666-0.736-1.152c-0.09-0.488,0.008-0.934,0.285-1.332c0.361-0.541,0.678-1.046,0.959-1.514
			c0.279-0.471,0.594-1.016,0.945-1.632c0.346-0.624,0.703-1.288,1.062-2.009c0.418-0.838,0.779-1.65,1.078-2.426
			c-0.338,0.102-0.693,0.18-1.062,0.237c-0.371,0.062-0.766,0.092-1.184,0.092h-0.029c-0.703,0-1.318-0.069-1.859-0.211
			c-0.537-0.141-1.02-0.325-1.439-0.551c-0.418-0.233-0.777-0.483-1.078-0.752c-0.295-0.271-0.547-0.537-0.748-0.797
			c-0.418-0.515-0.703-1.013-0.854-1.482c-0.15-0.469-0.234-0.774-0.256-0.916c-0.119-0.554-0.172-1.12-0.164-1.689
			c0.012-0.567,0.076-1.132,0.193-1.69c0.281-1.26,0.801-2.336,1.561-3.238c0.578-0.653,1.287-1.18,2.127-1.557
			c0.898-0.375,1.857-0.518,2.877-0.419c1.857,0.122,3.326,0.692,4.404,1.71c1.096,0.996,1.836,2.516,2.215,4.555L140.256,196.198z
			 M136.15,198.354c0.16-0.183,0.293-0.355,0.393-0.524c0.098-0.171,0.168-0.304,0.207-0.405c0-0.1-0.004-0.209-0.012-0.331
			c-0.012-0.116-0.027-0.226-0.047-0.327c-0.121-0.66-0.279-1.196-0.479-1.619c-0.201-0.418-0.436-0.75-0.705-0.989
			c-0.268-0.239-0.576-0.408-0.93-0.509c-0.348-0.102-0.752-0.168-1.213-0.211c-0.859-0.057-1.547,0.201-2.066,0.781
			c-0.359,0.398-0.609,0.932-0.748,1.603c-0.139,0.669-0.148,1.321-0.029,1.965l0.029,0.028c0,0.039,0.033,0.152,0.104,0.343
			c0.07,0.192,0.197,0.389,0.375,0.586c0.48,0.56,1.209,0.838,2.186,0.838C134.496,199.541,135.472,199.133,136.15,198.354z"/>
		<path fill="#074054" d="M153.5,196.198c0.416,2.752-0.453,6.317-2.609,10.69c-0.381,0.78-0.76,1.504-1.139,2.174
			c-0.379,0.668-0.717,1.252-1.02,1.752c-0.297,0.498-0.543,0.896-0.73,1.184c-0.191,0.289-0.295,0.445-0.316,0.464
			c-0.18,0.263-0.402,0.452-0.672,0.588c-0.273,0.128-0.549,0.19-0.828,0.19c-0.377,0-0.717-0.107-1.016-0.328
			c-0.398-0.281-0.646-0.666-0.734-1.152c-0.09-0.488,0.004-0.934,0.283-1.332c0.359-0.541,0.682-1.046,0.959-1.514
			c0.281-0.471,0.596-1.016,0.943-1.632c0.352-0.624,0.707-1.288,1.064-2.009c0.42-0.838,0.781-1.65,1.078-2.426
			c-0.34,0.102-0.691,0.18-1.064,0.237c-0.367,0.062-0.764,0.092-1.184,0.092h-0.027c-0.701,0-1.318-0.069-1.857-0.211
			c-0.541-0.141-1.02-0.325-1.439-0.551c-0.418-0.233-0.777-0.483-1.078-0.752c-0.299-0.271-0.549-0.537-0.75-0.797
			c-0.416-0.515-0.703-1.013-0.852-1.482c-0.152-0.469-0.234-0.774-0.256-0.916c-0.119-0.554-0.172-1.12-0.164-1.689
			c0.01-0.567,0.074-1.132,0.193-1.69c0.281-1.26,0.799-2.336,1.559-3.238c0.58-0.653,1.289-1.18,2.125-1.557
			c0.902-0.375,1.859-0.518,2.877-0.419c1.861,0.122,3.33,0.692,4.404,1.71c1.098,0.996,1.836,2.516,2.219,4.555L153.5,196.198z
			 M149.394,198.354c0.16-0.183,0.287-0.355,0.387-0.524c0.102-0.171,0.172-0.304,0.211-0.405c0-0.1-0.008-0.209-0.016-0.331
			c-0.01-0.116-0.023-0.226-0.043-0.327c-0.121-0.66-0.281-1.196-0.479-1.619c-0.201-0.418-0.436-0.75-0.705-0.989
			s-0.58-0.408-0.93-0.509c-0.35-0.102-0.752-0.168-1.211-0.211c-0.861-0.057-1.549,0.201-2.068,0.781
			c-0.359,0.398-0.609,0.932-0.748,1.603c-0.143,0.669-0.15,1.321-0.031,1.965l0.031,0.028c0,0.039,0.031,0.152,0.104,0.343
			c0.07,0.192,0.193,0.389,0.375,0.586c0.479,0.56,1.207,0.838,2.186,0.838C147.736,199.541,148.715,199.133,149.394,198.354z"/>
		<path fill="#074054" d="M184.622,211.445c0,0.498-0.176,0.92-0.523,1.271c-0.352,0.353-0.773,0.523-1.271,0.523
			c-0.5,0-0.926-0.173-1.273-0.523c-0.35-0.352-0.525-0.772-0.525-1.271v-12.348l-1.885,3.719c-0.162,0.438-0.451,0.762-0.871,0.957
			c-0.238,0.119-0.488,0.18-0.748,0.18h-0.031h-0.031h-0.029h-0.025c-0.262,0-0.508-0.061-0.75-0.18
			c-0.42-0.195-0.709-0.519-0.867-0.957l-1.889-3.719v12.348c0,0.498-0.178,0.92-0.523,1.271c-0.352,0.353-0.775,0.523-1.275,0.523
			c-0.498,0-0.924-0.173-1.271-0.523c-0.352-0.352-0.525-0.772-0.525-1.271v-19.834v-0.088v-0.094v-0.025v-0.031
			c0-0.021,0.008-0.031,0.02-0.031c0.008,0,0.014-0.011,0.014-0.031v-0.025v-0.062c0-0.021,0.004-0.033,0.016-0.044
			c0.01-0.011,0.014-0.022,0.014-0.045c0.018-0.118,0.062-0.229,0.121-0.332c0-0.019,0.004-0.026,0.012-0.026
			c0.012,0,0.02-0.01,0.02-0.03l0.027-0.028l0.031-0.033c0-0.02,0.01-0.039,0.027-0.056v-0.034l0.062-0.057
			c0.037-0.042,0.074-0.08,0.104-0.123c0.031-0.039,0.066-0.078,0.105-0.119l0.059-0.061h0.029c0-0.021,0.006-0.027,0.018-0.027
			c0.008,0,0.012-0.011,0.012-0.031h0.031c0.021-0.021,0.041-0.029,0.062-0.029c0-0.018,0.01-0.03,0.029-0.03l0.029-0.028
			l0.061-0.027c0.02-0.021,0.041-0.031,0.061-0.031l0.027-0.029c0.021,0,0.039-0.014,0.061-0.033c0.02,0,0.035-0.003,0.045-0.016
			c0.012-0.006,0.025-0.012,0.045-0.012c0.021,0,0.035-0.008,0.045-0.016c0.01-0.011,0.025-0.016,0.047-0.016
			c0.018,0,0.039-0.012,0.057-0.031h0.031h0.062l0.027-0.03h0.031h0.062h0.027c0.021-0.021,0.041-0.026,0.062-0.026h0.025h0.09h0.09
			h0.092h0.061h0.029c0.021,0,0.041,0.006,0.061,0.026h0.061h0.029h0.061c0.078,0.041,0.15,0.066,0.209,0.077
			c0.061,0.008,0.121,0.034,0.18,0.075h0.031c0,0.021,0.021,0.028,0.061,0.028c0,0.021,0.01,0.031,0.031,0.031l0.027,0.028
			c0.021,0,0.041,0.008,0.061,0.028l0.059,0.061h0.029c0.102,0.061,0.184,0.141,0.242,0.238l0.061,0.061l0.057,0.062
			c0,0.021,0.006,0.031,0.02,0.031c0.01,0,0.014,0.005,0.014,0.024l0.031,0.034l0.031,0.028c0,0.016,0.008,0.036,0.025,0.061
			c0,0.021,0.006,0.033,0.018,0.044c0.01,0.012,0.016,0.023,0.016,0.042l3.77,7.4l3.777-7.4c0-0.036,0.01-0.065,0.029-0.086
			c0.021-0.022,0.029-0.045,0.029-0.061c0.02,0,0.031-0.013,0.031-0.028l0.031-0.034c0-0.021,0.008-0.036,0.027-0.057l0.061-0.062
			l0.062-0.062c0.059-0.099,0.137-0.179,0.234-0.238l0.062-0.061h0.029c0.021-0.021,0.039-0.028,0.061-0.028l0.031-0.027
			c0.02,0,0.029-0.012,0.029-0.031c0.039,0,0.061-0.008,0.061-0.029h0.031c0.035-0.041,0.086-0.067,0.145-0.075
			c0.062-0.011,0.111-0.026,0.152-0.047c0.039,0,0.07-0.011,0.09-0.03h0.059h0.031h0.062c0-0.021,0.01-0.027,0.027-0.027h0.061
			h0.061h0.09h0.09h0.09c0.041,0,0.07,0.007,0.09,0.027h0.061h0.059l0.029,0.03h0.062h0.031l0.059,0.031
			c0.02,0,0.035,0.005,0.047,0.016c0.01,0.008,0.023,0.017,0.043,0.017s0.041,0.004,0.061,0.025h0.029
			c0.02,0.021,0.041,0.033,0.061,0.033v0.029c0.041,0,0.07,0.01,0.092,0.031c0.02,0.016,0.039,0.027,0.059,0.027l0.029,0.028
			l0.029,0.03c0.02,0,0.041,0.008,0.061,0.029l0.062,0.061c0.039,0,0.061,0.021,0.061,0.06c0.1,0.062,0.178,0.142,0.238,0.242
			l0.059,0.057v0.034c0.02,0.016,0.033,0.036,0.033,0.055c0.016,0,0.027,0.012,0.027,0.034l0.031,0.028
			c0,0.021,0.008,0.039,0.027,0.058c0.039,0.103,0.08,0.214,0.119,0.332c0,0.042,0.012,0.068,0.029,0.089v0.062v0.025
			c0,0.021,0.012,0.041,0.031,0.062v0.031v0.024v0.095v0.088v19.834H184.622z"/>
		<path fill="#074054" d="M190.015,189.816c0.52,0,0.949,0.172,1.289,0.524c0.34,0.347,0.508,0.771,0.508,1.271v19.834
			c0,0.498-0.168,0.92-0.508,1.271s-0.77,0.523-1.289,0.523c-0.5,0-0.924-0.173-1.275-0.523c-0.348-0.352-0.521-0.772-0.521-1.271
			v-19.834c0-0.499,0.174-0.924,0.521-1.271C189.091,189.988,189.515,189.816,190.015,189.816z"/>
		<path fill="#074054" d="M207.239,210.17c0.342,0.35,0.51,0.775,0.51,1.275c0,0.498-0.168,0.92-0.51,1.271
			c-0.34,0.353-0.768,0.523-1.289,0.523h-7.816c-0.5,0-0.928-0.173-1.271-0.523c-0.352-0.352-0.523-0.772-0.523-1.271v-19.834
			c0-0.499,0.174-0.924,0.523-1.271c0.346-0.354,0.771-0.524,1.271-0.524c0.496,0,0.924,0.172,1.271,0.524
			c0.35,0.347,0.525,0.771,0.525,1.271v18.033h6.02C206.472,209.645,206.899,209.821,207.239,210.17z"/>
		<path fill="#074054" d="M221.993,210.141c0.348,0.351,0.523,0.775,0.523,1.273c0,0.499-0.176,0.926-0.523,1.273
			c-0.35,0.35-0.773,0.522-1.273,0.522h-7.338c-0.502,0-0.926-0.174-1.271-0.522c-0.352-0.349-0.525-0.774-0.525-1.273v-19.83
			c0-0.5,0.176-0.924,0.525-1.275c0.348-0.349,0.77-0.524,1.271-0.524h7.338c0.5,0,0.924,0.177,1.273,0.524
			c0.348,0.353,0.523,0.775,0.523,1.275c0,0.52-0.176,0.946-0.523,1.287c-0.35,0.338-0.773,0.51-1.273,0.51h-5.543v7.547h3.838
			c0.496,0,0.924,0.174,1.271,0.525c0.348,0.354,0.525,0.771,0.525,1.273c0,0.498-0.178,0.922-0.525,1.272
			c-0.35,0.349-0.775,0.524-1.271,0.524h-3.838v5.091h5.543C221.22,209.615,221.644,209.79,221.993,210.141z"/>
		<path fill="#074054" d="M235.698,202.246c1.178,1.479,1.77,3.205,1.77,5.182c0,0.622-0.064,1.176-0.193,1.662
			c-0.133,0.492-0.289,0.928-0.48,1.307c-0.191,0.377-0.406,0.707-0.646,0.986c-0.236,0.283-0.479,0.521-0.719,0.721
			c-1.115,0.896-2.477,1.351-4.072,1.351c-0.777,0-1.508-0.112-2.189-0.33c-0.68-0.219-1.277-0.562-1.795-1.021
			c-0.223-0.183-0.447-0.408-0.674-0.688c-0.23-0.281-0.441-0.608-0.631-0.985c-0.189-0.381-0.346-0.82-0.465-1.32
			c-0.119-0.498-0.18-1.07-0.18-1.709c0-0.498,0.174-0.926,0.525-1.271c0.348-0.348,0.771-0.525,1.27-0.525
			c0.521,0,0.951,0.179,1.289,0.525c0.34,0.348,0.508,0.773,0.508,1.271c0,0.285,0.025,0.564,0.076,0.854
			c0.049,0.291,0.156,0.554,0.316,0.794c0.158,0.238,0.393,0.434,0.703,0.582c0.309,0.153,0.725,0.229,1.242,0.229
			c0.359,0,0.693-0.048,1.006-0.138c0.309-0.092,0.572-0.222,0.793-0.403c0.48-0.421,0.717-1.048,0.717-1.89
			c0-0.615-0.078-1.156-0.236-1.611c-0.16-0.465-0.395-0.891-0.705-1.277c-0.311-0.391-0.688-0.757-1.137-1.109
			c-0.453-0.351-0.955-0.722-1.516-1.121c-0.52-0.357-1.035-0.734-1.543-1.121c-0.508-0.392-0.984-0.834-1.422-1.338
			c-0.52-0.638-0.914-1.302-1.184-1.987c-0.27-0.689-0.406-1.446-0.406-2.263c0-0.121,0.006-0.343,0.018-0.662
			c0.01-0.318,0.059-0.687,0.148-1.107c0.088-0.421,0.24-0.855,0.449-1.318c0.209-0.457,0.514-0.897,0.914-1.313
			c0.338-0.382,0.85-0.748,1.529-1.11c0.678-0.361,1.557-0.541,2.635-0.541c1.098,0,1.973,0.186,2.621,0.557
			c0.648,0.367,1.143,0.744,1.479,1.121c0.385,0.461,0.666,0.946,0.855,1.453c0.189,0.512,0.316,0.978,0.375,1.408
			c0.059,0.43,0.078,0.805,0.059,1.124c-0.016,0.32-0.037,0.511-0.059,0.57c-0.059,0.36-0.178,0.657-0.359,0.896
			c-0.162,0.223-0.375,0.406-0.645,0.558c-0.268,0.151-0.635,0.172-1.094,0.073c-0.436-0.082-0.764-0.225-0.973-0.433
			c-0.209-0.214-0.35-0.429-0.418-0.661c-0.074-0.229-0.102-0.434-0.092-0.613c0.01-0.183,0.016-0.291,0.016-0.33
			c0.02-0.082,0.029-0.192,0.029-0.33c0-0.139-0.014-0.293-0.045-0.447c-0.031-0.159-0.074-0.32-0.133-0.48
			c-0.062-0.162-0.143-0.298-0.238-0.42c-0.242-0.302-0.701-0.449-1.381-0.449c-0.539,0-0.912,0.069-1.125,0.213
			c-0.207,0.139-0.344,0.236-0.402,0.297c-0.141,0.141-0.244,0.299-0.316,0.48c-0.068,0.18-0.123,0.359-0.162,0.536
			c-0.041,0.183-0.066,0.336-0.076,0.465c-0.01,0.134-0.018,0.226-0.018,0.284v0.062v0.058c0,0.399,0.07,0.765,0.213,1.095
			c0.139,0.331,0.332,0.639,0.584,0.93c0.25,0.289,0.564,0.578,0.945,0.869c0.377,0.291,0.805,0.604,1.287,0.942
			c0.557,0.397,1.133,0.83,1.723,1.289C234.653,201.12,235.2,201.648,235.698,202.246z"/>
		<g>
			<path fill="#074054" d="M115.904,232.932c0.219,0.222,0.326,0.489,0.326,0.805c0,0.316-0.107,0.58-0.326,0.804
				c-0.223,0.221-0.49,0.33-0.807,0.33h-0.416l0.207,0.362c0.162,0.263,0.205,0.549,0.123,0.851
				c-0.082,0.306-0.26,0.535-0.539,0.699c-0.176,0.102-0.365,0.153-0.566,0.153c-0.189,0-0.377-0.053-0.561-0.153
				s-0.322-0.242-0.424-0.416l-0.188-0.361l-0.211,0.361c-0.1,0.174-0.24,0.313-0.416,0.416c-0.178,0.102-0.365,0.153-0.568,0.153
				c-0.201,0-0.391-0.053-0.568-0.153c-0.277-0.164-0.455-0.394-0.537-0.689c-0.086-0.296-0.043-0.588,0.123-0.86l0.205-0.361
				h-0.414c-0.316,0-0.584-0.109-0.807-0.33c-0.219-0.225-0.328-0.486-0.328-0.804c0-0.314,0.109-0.583,0.328-0.804
				c0.223-0.222,0.49-0.334,0.807-0.334h0.396l-0.188-0.341c-0.166-0.278-0.209-0.569-0.123-0.87
				c0.082-0.303,0.254-0.529,0.52-0.681c0.275-0.166,0.568-0.207,0.869-0.125c0.305,0.082,0.531,0.265,0.68,0.545l0.211,0.335
				l0.209-0.335c0.15-0.28,0.379-0.463,0.682-0.545c0.303-0.082,0.592-0.047,0.869,0.104c0.266,0.164,0.438,0.397,0.523,0.699
				c0.082,0.303,0.045,0.588-0.107,0.854l-0.207,0.358h0.416C115.414,232.6,115.681,232.711,115.904,232.932z"/>
			<path fill="#074054" d="M118.373,230.117c0.326,0,0.598,0.111,0.812,0.333c0.215,0.224,0.32,0.491,0.32,0.806v12.529
				c0,0.316-0.105,0.582-0.32,0.806c-0.215,0.222-0.486,0.331-0.812,0.331c-0.316,0-0.586-0.109-0.807-0.331
				c-0.221-0.224-0.33-0.489-0.33-0.806v-12.529c0-0.314,0.109-0.582,0.33-0.806C117.787,230.229,118.056,230.117,118.373,230.117z"
				/>
			<path fill="#074054" d="M128.42,230.117c0.316,0,0.586,0.111,0.807,0.333c0.219,0.224,0.332,0.491,0.332,0.806v12.514v0.074
				v0.053v0.021v0.036l-0.021,0.021v0.019v0.039v0.019c-0.012,0.014-0.016,0.026-0.016,0.039v0.02c0,0.01-0.006,0.016-0.012,0.016
				s-0.01,0.01-0.01,0.021c0,0.013-0.004,0.025-0.008,0.03c-0.008,0.005-0.01,0.017-0.01,0.026c0,0.013-0.006,0.023-0.012,0.027
				c-0.006,0.009-0.008,0.017-0.008,0.028c0,0.017-0.002,0.019-0.01,0.019c-0.008,0-0.008,0.009-0.008,0.021v0.02
				c-0.016,0-0.021,0.003-0.021,0.019l-0.016,0.021c0,0.012-0.01,0.026-0.021,0.039l-0.018,0.016v0.02
				c-0.014,0-0.02,0.008-0.02,0.019c0,0.014-0.006,0.021-0.018,0.021c0,0.012-0.006,0.021-0.014,0.021
				c-0.006,0-0.006,0.008-0.006,0.019h-0.02c0,0.014-0.008,0.023-0.02,0.036l-0.037,0.039l-0.037,0.037l-0.039,0.039h-0.02
				l-0.037,0.036c-0.012,0.013-0.023,0.021-0.039,0.021c0,0.015-0.006,0.019-0.016,0.019l-0.021,0.02
				c-0.012,0-0.018,0.002-0.018,0.01c0,0.006-0.008,0.008-0.02,0.008h-0.018l-0.041,0.043c-0.049,0.021-0.094,0.041-0.131,0.055
				c-0.037,0.011-0.09,0.025-0.152,0.039c-0.051,0.011-0.125,0.02-0.229,0.02c-0.074,0-0.133-0.009-0.17-0.02h-0.039h-0.016
				c-0.012,0-0.021-0.008-0.021-0.021h-0.076v-0.019h-0.037c-0.049-0.026-0.08-0.039-0.092-0.039c-0.014,0-0.021-0.003-0.021-0.017
				h-0.02c-0.012,0-0.018-0.008-0.018-0.021c-0.014,0-0.025-0.008-0.037-0.021c-0.016,0-0.02-0.006-0.02-0.019h-0.018
				c-0.018,0-0.021-0.003-0.021-0.008c0-0.006-0.006-0.011-0.018-0.011c-0.139-0.104-0.252-0.223-0.342-0.358v-0.021
				c-0.012,0-0.018-0.008-0.018-0.02l-0.02-0.02V244.3c-0.012-0.013-0.018-0.022-0.018-0.039c0-0.013-0.008-0.024-0.021-0.038
				l-3.232-7.478v7.043c0,0.315-0.113,0.582-0.334,0.806c-0.219,0.223-0.49,0.331-0.805,0.331c-0.315,0-0.582-0.108-0.803-0.331
				c-0.221-0.224-0.332-0.488-0.332-0.806v-12.511v-0.073v-0.058v-0.018v-0.042l0.02-0.019v-0.019v-0.039v-0.019
				c0.012-0.012,0.02-0.026,0.02-0.042v-0.017c0-0.01,0.002-0.021,0.008-0.021c0.006,0,0.012-0.005,0.012-0.017
				c0-0.013,0-0.025,0.01-0.03c0.006-0.005,0.01-0.017,0.01-0.026c0-0.013,0-0.021,0.008-0.031c0.004-0.005,0.01-0.013,0.01-0.024
				c0-0.015,0.002-0.02,0.006-0.02c0.01,0,0.012-0.005,0.012-0.019v-0.021l0.039-0.039c0-0.011,0.002-0.019,0.008-0.019
				c0.008,0,0.012-0.004,0.012-0.021l0.018-0.016v-0.02c0.014-0.012,0.02-0.027,0.02-0.039h0.02c0-0.012,0.002-0.019,0.006-0.019
				c0.006,0,0.01-0.01,0.01-0.021h0.02c0-0.012,0.008-0.022,0.02-0.035l0.039-0.039v-0.02c0.012,0,0.023-0.008,0.037-0.019V230.4
				c0.014,0,0.025-0.006,0.037-0.02h0.02l0.037-0.036l0.041-0.036h0.018c0-0.014,0.006-0.021,0.018-0.021
				c0.014,0,0.02-0.002,0.02-0.013c0-0.006,0.006-0.008,0.02-0.008h0.02l0.037-0.037c0.088-0.053,0.176-0.08,0.266-0.097h0.018
				c0.062-0.011,0.158-0.021,0.283-0.021h0.057h0.02l0.02,0.021h0.037h0.02h0.039c0,0.017,0.006,0.021,0.018,0.021h0.039h0.018
				c0,0.014,0.012,0.019,0.037,0.019c0.012,0.016,0.031,0.021,0.059,0.021c0.012,0.014,0.023,0.019,0.037,0.019h0.018
				c0,0.011,0.014,0.019,0.039,0.019v0.019c0.023,0,0.037,0.006,0.037,0.019h0.02c0.012,0,0.018,0.004,0.018,0.008
				c0,0.012,0.006,0.014,0.021,0.014l0.018,0.021l0.02,0.016l0.018,0.021h0.02c0.012,0.01,0.025,0.016,0.039,0.016v0.021
				c0.01,0,0.02,0.007,0.02,0.011c0,0.006,0.006,0.008,0.018,0.008v0.021c0.012,0,0.02,0,0.02,0.008
				c0,0.006,0.006,0.012,0.018,0.012v0.019l0.039,0.039l0.037,0.035l0.037,0.039c0,0.012,0.006,0.026,0.02,0.039
				c0.012,0,0.018,0.008,0.018,0.02c0,0.011,0.006,0.017,0.021,0.017c0,0.026,0.006,0.037,0.016,0.037v0.021
				c0.016,0.014,0.021,0.023,0.021,0.039h0.018c0,0.023,0.004,0.039,0.012,0.045c0.006,0.008,0.008,0.016,0.008,0.031l3.236,7.477
				v-7.043c0-0.314,0.113-0.582,0.332-0.806C127.838,230.229,128.103,230.117,128.42,230.117z"/>
			<path fill="#074054" d="M147.271,231.027c0.266,0.255,0.523,0.608,0.777,1.072c0.25,0.457,0.379,1.073,0.379,1.847v7.151
				c0,0.77-0.129,1.387-0.379,1.844c-0.254,0.461-0.512,0.815-0.777,1.068c-0.668,0.606-1.455,0.911-2.365,0.911h-1.418h-1.043
				c-0.314,0-0.582-0.108-0.807-0.331c-0.221-0.224-0.326-0.488-0.326-0.806v-12.529c0-0.313,0.105-0.582,0.326-0.806
				c0.225-0.223,0.492-0.333,0.807-0.333h1.043h1.418C145.816,230.117,146.603,230.424,147.271,231.027z M146.154,233.946
				c0-0.356-0.047-0.632-0.141-0.835s-0.207-0.356-0.342-0.467c-0.133-0.108-0.27-0.175-0.416-0.205
				c-0.143-0.031-0.26-0.049-0.35-0.049h-1.326v10.26h1.326c0.09,0,0.207-0.019,0.35-0.049c0.146-0.029,0.283-0.103,0.416-0.209
				c0.135-0.106,0.248-0.264,0.342-0.463c0.094-0.203,0.141-0.479,0.141-0.832V233.946z"/>
			<path fill="#074054" d="M151.908,230.117c0.33,0,0.6,0.111,0.816,0.333c0.215,0.224,0.32,0.491,0.32,0.806v12.529
				c0,0.316-0.105,0.582-0.32,0.806c-0.217,0.222-0.486,0.331-0.816,0.331c-0.316,0-0.582-0.109-0.803-0.331
				c-0.221-0.224-0.332-0.489-0.332-0.806v-12.529c0-0.314,0.111-0.582,0.332-0.806
				C151.326,230.229,151.592,230.117,151.908,230.117z"/>
			<path fill="#074054" d="M162.016,243.729c0.062,0.313,0.007,0.604-0.161,0.862c-0.171,0.255-0.414,0.419-0.729,0.481
				c-0.053,0.014-0.123,0.018-0.209,0.018c-0.266,0-0.502-0.082-0.709-0.254c-0.207-0.17-0.344-0.391-0.406-0.652l-0.397-1.932
				h-2.023l-0.398,1.932c-0.053,0.263-0.18,0.482-0.389,0.652c-0.207,0.172-0.443,0.254-0.711,0.254
				c-0.102,0-0.176-0.004-0.227-0.018c-0.314-0.062-0.561-0.227-0.729-0.481c-0.17-0.26-0.225-0.549-0.16-0.862l2.518-12.512v-0.016
				v-0.039c0-0.012,0-0.018,0.008-0.018c0.006,0,0.012-0.009,0.012-0.019v-0.021v-0.021c0.012-0.013,0.018-0.023,0.018-0.036
				c0-0.014,0.002-0.021,0.01-0.021c0.004,0,0.01-0.006,0.01-0.019v-0.019c0.039-0.103,0.094-0.19,0.17-0.266v-0.02
				c0.014,0,0.018-0.002,0.018-0.01s0.008-0.012,0.02-0.012v-0.019l0.02-0.021l0.02-0.016l0.018-0.02l0.021-0.021l0.018-0.021
				l0.037-0.018c0.078-0.074,0.166-0.133,0.266-0.172h0.02c0.01-0.01,0.023-0.021,0.037-0.021c0.064-0.022,0.121-0.039,0.168-0.043
				c0.053-0.006,0.109-0.017,0.172-0.029h0.02h0.037h0.039c0.061,0.014,0.119,0.023,0.17,0.029c0.051,0.004,0.105,0.021,0.17,0.043
				c0.012,0,0.025,0.012,0.037,0.021h0.02c0.101,0.039,0.188,0.098,0.265,0.172c0.014,0,0.026,0.006,0.038,0.018l0.021,0.021
				l0.017,0.021l0.021,0.02l0.021,0.016l0.018,0.021l0.02,0.019l0.021,0.021v0.02c0.074,0.074,0.133,0.163,0.17,0.266v0.019
				c0,0.013,0.004,0.019,0.008,0.019c0.009,0,0.011,0.008,0.011,0.021c0.026,0.078,0.037,0.134,0.037,0.168L162.016,243.729z
				 M158.4,237.197l-0.566,2.787h1.115L158.4,237.197z"/>
			<path fill="#074054" d="M172.556,243.785c0,0.316-0.109,0.582-0.33,0.806c-0.221,0.222-0.49,0.331-0.805,0.331
				c-0.316,0-0.582-0.109-0.803-0.331c-0.227-0.224-0.332-0.489-0.332-0.806v-7.797l-1.191,2.346
				c-0.104,0.279-0.285,0.479-0.551,0.607c-0.152,0.074-0.307,0.113-0.473,0.113h-0.018h-0.021h-0.02h-0.02
				c-0.164,0-0.318-0.039-0.47-0.113c-0.271-0.129-0.451-0.328-0.552-0.607l-1.192-2.346v7.797c0,0.316-0.113,0.582-0.332,0.806
				c-0.222,0.222-0.485,0.331-0.801,0.331c-0.318,0-0.584-0.109-0.806-0.331c-0.221-0.224-0.334-0.489-0.334-0.806v-12.529v-0.055
				v-0.057v-0.019v-0.021c0-0.017,0.004-0.021,0.012-0.021c0.005,0,0.009-0.005,0.009-0.02v-0.018v-0.039
				c0-0.011,0.004-0.021,0.012-0.029c0.004-0.008,0.009-0.016,0.009-0.03c0.012-0.072,0.034-0.144,0.075-0.203
				c0-0.017,0.002-0.021,0.011-0.021c0.006,0,0.008-0.006,0.008-0.02l0.02-0.021l0.02-0.019c0-0.012,0.004-0.024,0.021-0.035v-0.021
				l0.037-0.038c0.022-0.027,0.049-0.052,0.067-0.074s0.039-0.05,0.064-0.076l0.037-0.039h0.02c0-0.01,0.004-0.021,0.01-0.021
				c0.007,0,0.011-0.006,0.011-0.017h0.019c0.012-0.013,0.024-0.021,0.037-0.021c0-0.014,0.008-0.016,0.02-0.016l0.02-0.021
				l0.037-0.021c0.014-0.013,0.025-0.019,0.037-0.019l0.02-0.019c0.013,0,0.027-0.008,0.039-0.019c0.01,0,0.021-0.005,0.027-0.013
				c0.006-0.006,0.016-0.006,0.025-0.006c0.016,0,0.027-0.006,0.031-0.01c0.008-0.009,0.018-0.012,0.026-0.012
				c0.013,0,0.022-0.005,0.039-0.02h0.021h0.039l0.016-0.021h0.021h0.036h0.021c0.014-0.011,0.022-0.021,0.035-0.021h0.021h0.058
				h0.059h0.055h0.039h0.018c0.013,0,0.025,0.01,0.037,0.021h0.037h0.021h0.037c0.051,0.028,0.096,0.042,0.133,0.05
				c0.039,0.006,0.076,0.023,0.113,0.047h0.02c0,0.014,0.014,0.019,0.039,0.019c0,0.016,0.004,0.019,0.02,0.019l0.017,0.021
				c0.017,0,0.026,0.008,0.041,0.021l0.037,0.035h0.018c0.062,0.036,0.113,0.086,0.15,0.151l0.036,0.034l0.039,0.039
				c0,0.013,0.002,0.021,0.009,0.021c0.006,0,0.012,0.008,0.012,0.021l0.021,0.02l0.02,0.016c0,0.017,0.004,0.027,0.018,0.039
				c0,0.016,0.002,0.022,0.008,0.03c0.011,0.005,0.011,0.013,0.011,0.028l2.386,4.672l2.385-4.672c0-0.025,0.006-0.044,0.02-0.061
				c0.012-0.011,0.02-0.021,0.02-0.037c0.014,0,0.02-0.007,0.02-0.017l0.016-0.021c0-0.012,0.01-0.026,0.021-0.039l0.037-0.038
				l0.039-0.035c0.037-0.065,0.088-0.115,0.15-0.151l0.039-0.035h0.02c0.01-0.015,0.023-0.021,0.035-0.021l0.02-0.021
				c0.014,0,0.02-0.003,0.02-0.019c0.025,0,0.037-0.005,0.037-0.019h0.021c0.023-0.022,0.057-0.041,0.096-0.047
				c0.037-0.008,0.07-0.016,0.092-0.029c0.027,0,0.047-0.004,0.059-0.021h0.039h0.018h0.039c0-0.011,0.006-0.021,0.018-0.021h0.037
				h0.039h0.057h0.059h0.057c0.023,0,0.045,0.01,0.055,0.021h0.039h0.041l0.018,0.021h0.037h0.021l0.037,0.02
				c0.012,0,0.021,0.003,0.029,0.012c0.004,0.004,0.012,0.01,0.023,0.01c0.014,0,0.025,0.006,0.037,0.019h0.021
				c0.01,0.011,0.023,0.019,0.037,0.019v0.019c0.023,0,0.043,0.006,0.057,0.019c0.012,0.014,0.023,0.021,0.035,0.021l0.02,0.021
				l0.021,0.016c0.012,0,0.023,0.008,0.037,0.021l0.039,0.036c0.023,0,0.037,0.014,0.037,0.039c0.064,0.037,0.113,0.089,0.15,0.15
				l0.039,0.039v0.02c0.01,0.01,0.02,0.023,0.02,0.035c0.012,0,0.018,0.008,0.018,0.02l0.021,0.021c0,0.014,0.004,0.022,0.016,0.039
				c0.027,0.061,0.053,0.131,0.076,0.203c0,0.03,0.006,0.05,0.02,0.061v0.039v0.019c0,0.014,0.006,0.022,0.02,0.039v0.021v0.019
				v0.057v0.055v12.531H172.556z"/>
			<path fill="#074054" d="M181.327,242.96c0.221,0.224,0.334,0.489,0.334,0.81c0,0.312-0.113,0.582-0.334,0.802
				c-0.221,0.221-0.486,0.333-0.803,0.333h-4.637c-0.314,0-0.582-0.112-0.803-0.333c-0.223-0.22-0.334-0.489-0.334-0.802v-12.532
				c0-0.312,0.111-0.584,0.334-0.806c0.221-0.221,0.488-0.33,0.803-0.33h4.637c0.316,0,0.582,0.109,0.803,0.33
				c0.221,0.222,0.334,0.492,0.334,0.806c0,0.331-0.113,0.598-0.334,0.811c-0.221,0.218-0.486,0.326-0.803,0.326h-3.502v4.771h2.424
				c0.314,0,0.584,0.108,0.805,0.33c0.221,0.219,0.332,0.489,0.332,0.808c0,0.312-0.111,0.583-0.332,0.802
				c-0.221,0.221-0.49,0.332-0.805,0.332h-2.424v3.215h3.502C180.841,242.629,181.106,242.738,181.327,242.96z"/>
			<path fill="#074054" d="M190.755,230.461c0.221,0.215,0.332,0.482,0.332,0.814c0,0.313-0.111,0.584-0.332,0.803
				c-0.221,0.225-0.49,0.334-0.805,0.334h-1.76v11.357c0,0.312-0.111,0.582-0.33,0.801c-0.223,0.221-0.492,0.332-0.807,0.332
				s-0.584-0.111-0.803-0.332c-0.221-0.219-0.332-0.489-0.332-0.801v-11.357h-1.797c-0.316,0-0.586-0.109-0.805-0.334
				c-0.225-0.219-0.332-0.488-0.332-0.803c0-0.332,0.107-0.601,0.332-0.814c0.219-0.214,0.486-0.322,0.805-0.322h5.828
				C190.265,230.139,190.534,230.247,190.755,230.461z"/>
			<path fill="#074054" d="M199.14,242.96c0.219,0.224,0.33,0.489,0.33,0.81c0,0.312-0.111,0.582-0.33,0.802
				c-0.221,0.221-0.49,0.333-0.807,0.333h-4.635c-0.314,0-0.584-0.112-0.807-0.333c-0.221-0.22-0.328-0.489-0.328-0.802v-12.532
				c0-0.312,0.107-0.584,0.328-0.806c0.223-0.221,0.49-0.33,0.807-0.33h4.635c0.316,0,0.586,0.109,0.807,0.33
				c0.219,0.222,0.33,0.492,0.33,0.806c0,0.331-0.111,0.598-0.33,0.811c-0.221,0.218-0.49,0.326-0.807,0.326h-3.5v4.771h2.422
				c0.316,0,0.584,0.108,0.805,0.33c0.221,0.219,0.332,0.489,0.332,0.808c0,0.312-0.111,0.583-0.332,0.802
				c-0.221,0.221-0.488,0.332-0.805,0.332h-2.422v3.215h3.5C198.649,242.629,198.919,242.738,199.14,242.96z"/>
			<path fill="#074054" d="M209.142,243.311c0.141,0.293,0.148,0.58,0.027,0.873c-0.119,0.291-0.324,0.498-0.615,0.627
				c-0.15,0.06-0.301,0.094-0.455,0.094c-0.213,0-0.414-0.062-0.602-0.184c-0.193-0.117-0.338-0.285-0.438-0.502l-2.102-4.805
				h-1.137v4.355c0,0.312-0.109,0.582-0.33,0.801c-0.221,0.221-0.49,0.332-0.807,0.332c-0.314,0-0.584-0.111-0.805-0.332
				c-0.219-0.219-0.328-0.489-0.328-0.801v-12.494c0-0.315,0.109-0.586,0.328-0.806c0.221-0.221,0.49-0.333,0.805-0.333h2.746
				c0.479,0,0.939,0.137,1.381,0.405c0.441,0.276,0.826,0.664,1.156,1.169c0.564,0.895,0.852,1.917,0.852,3.062
				c0,0.559-0.074,1.092-0.221,1.611c-0.145,0.516-0.354,0.996-0.631,1.437c-0.129,0.188-0.262,0.36-0.398,0.512
				c-0.139,0.151-0.277,0.289-0.418,0.417L209.142,243.311z M205.433,237.143c0.062,0,0.146-0.041,0.256-0.121
				c0.105-0.084,0.23-0.227,0.367-0.428c0.166-0.254,0.287-0.537,0.369-0.853c0.082-0.317,0.125-0.636,0.125-0.966
				c0-0.324-0.043-0.654-0.125-0.976s-0.203-0.606-0.369-0.86c-0.137-0.189-0.262-0.322-0.367-0.408
				c-0.109-0.08-0.193-0.119-0.256-0.119h-1.609v4.73H205.433L205.433,237.143z"/>
		</g>
	</g>
</g>
</svg>
