<?xml version="1.0" encoding="utf-8"?>
<!-- Generator: Adobe Illustrator 16.0.0, SVG Export Plug-In . SVG Version: 6.00 Build 0)  -->
<!DOCTYPE svg PUBLIC "-//W3C//DTD SVG 1.1//EN" "http://www.w3.org/Graphics/SVG/1.1/DTD/svg11.dtd">
<svg version="1.1" id="Layer_1" xmlns="http://www.w3.org/2000/svg" xmlns:xlink="http://www.w3.org/1999/xlink" x="0px" y="0px"
	 width="2632px" height="2796px" viewBox="0 0 2632 2796" enable-background="new 0 0 2632 2796" xml:space="preserve">
<g id="Layer_1_1_">
</g>
<g id="Layer_5">
</g>
<g id="Layer_2">
</g>
<g id="neptune">
</g>
<g id="uranus">
</g>
<g id="saturn">
</g>
<g id="jupiter">
</g>
<g id="Layer_14">
</g>
<g id="mars">
</g>
<g id="venus">
</g>
<g id="mercury">
</g>
<g id="earth">
</g>
<g id="Layer_6">
</g>
<g>
	<path fill="#FF1717" d="M1177.581,2686.435c1.205,1.174,1.812,2.653,1.812,4.444c0,1.728-0.604,3.191-1.812,4.396
		c-1.207,1.207-2.672,1.809-4.395,1.809h-9.614v62.037c0,1.726-0.604,3.188-1.81,4.396c-1.207,1.205-2.675,1.809-4.396,1.809
		c-1.729,0-3.188-0.604-4.396-1.809c-1.209-1.207-1.809-2.67-1.809-4.396v-62.037h-9.823c-1.726,0-3.188-0.602-4.395-1.809
		c-1.206-1.205-1.812-2.67-1.812-4.396c0-1.791,0.604-3.271,1.812-4.444c1.205-1.173,2.669-1.759,4.395-1.759h31.847
		C1174.909,2684.676,1176.374,2685.262,1177.581,2686.435z"/>
	<path fill="#FF1717" d="M1221.159,2684.573c1.725,0,3.188,0.604,4.396,1.809c1.203,1.207,1.808,2.672,1.808,4.396v68.445
		c0,1.725-0.604,3.188-1.808,4.396c-1.209,1.205-2.674,1.81-4.396,1.81c-1.722,0-3.188-0.604-4.393-1.81
		c-1.207-1.205-1.812-2.672-1.812-4.396v-23.779h-16.129v23.779c0,1.725-0.604,3.188-1.811,4.396
		c-1.207,1.205-2.673,1.81-4.396,1.81c-1.725,0-3.188-0.604-4.395-1.81s-1.811-2.672-1.811-4.396v-68.445
		c0-1.726,0.604-3.189,1.811-4.396c1.205-1.205,2.67-1.809,4.395-1.809c1.723,0,3.188,0.604,4.396,1.809
		c1.206,1.207,1.811,2.672,1.811,4.396v32.258h16.129v-32.258c0-1.726,0.604-3.189,1.812-4.396
		C1217.972,2685.178,1219.438,2684.573,1221.159,2684.573z"/>
	<path fill="#FF1717" d="M1275.599,2754.726c1.205,1.207,1.809,2.674,1.809,4.396c0,1.726-0.604,3.188-1.809,4.396
		c-1.207,1.205-2.672,1.809-4.396,1.809h-25.332c-1.724,0-3.19-0.604-4.394-1.809c-1.208-1.207-1.812-2.67-1.812-4.396v-68.447
		c0-1.723,0.604-3.188,1.812-4.395c1.201-1.205,2.67-1.812,4.394-1.812h25.332c1.724,0,3.188,0.605,4.396,1.812
		c1.205,1.207,1.809,2.672,1.809,4.395c0,1.793-0.604,3.273-1.809,4.445c-1.207,1.174-2.672,1.758-4.396,1.758h-19.13v26.056h13.234
		c1.723,0,3.188,0.604,4.395,1.811c1.205,1.207,1.812,2.672,1.812,4.395c0,1.726-0.604,3.189-1.812,4.396
		c-1.207,1.207-2.672,1.81-4.395,1.81h-13.234v17.577h19.13C1272.927,2752.916,1274.392,2753.521,1275.599,2754.726z"/>
	<path fill="#FF1717" d="M1373.559,2727.481c4.065,5.104,6.101,11.062,6.101,17.889c0,2.137-0.225,4.051-0.672,5.736
		c-0.451,1.688-1.002,3.188-1.656,4.498c-0.654,1.312-1.394,2.446-2.222,3.412c-0.827,0.967-1.654,1.793-2.48,2.481
		c-3.86,3.103-8.55,4.652-14.062,4.652c-2.688,0-5.206-0.382-7.548-1.138c-2.345-0.76-4.413-1.93-6.205-3.516
		c-0.76-0.621-1.535-1.414-2.327-2.379c-0.791-0.965-1.516-2.104-2.168-3.412c-0.657-1.311-1.189-2.824-1.604-4.549
		c-0.416-1.726-0.621-3.689-0.621-5.896c0-1.721,0.604-3.188,1.812-4.393c1.203-1.205,2.669-1.812,4.395-1.812
		c1.791,0,3.271,0.605,4.444,1.812c1.172,1.207,1.756,2.672,1.756,4.393c0,0.967,0.09,1.949,0.263,2.947
		c0.171,1,0.532,1.914,1.086,2.74c0.551,0.826,1.357,1.5,2.429,2.016c1.07,0.521,2.5,0.775,4.292,0.775
		c1.238,0,2.396-0.154,3.463-0.465c1.069-0.312,1.982-0.773,2.742-1.396c1.651-1.447,2.479-3.619,2.479-6.512
		c0-2.139-0.273-3.998-0.825-5.584c-0.555-1.586-1.362-3.053-2.431-4.396c-1.069-1.346-2.378-2.621-3.931-3.827
		c-1.551-1.203-3.29-2.496-5.221-3.875c-1.795-1.24-3.568-2.533-5.323-3.879c-1.759-1.343-3.398-2.875-4.914-4.601
		c-1.791-2.205-3.151-4.498-4.082-6.875c-0.933-2.379-1.396-4.979-1.396-7.807c0-0.414,0.018-1.173,0.054-2.275
		c0.032-1.102,0.206-2.377,0.517-3.823c0.311-1.447,0.828-2.963,1.553-4.552c0.724-1.584,1.772-3.1,3.151-4.549
		c1.172-1.312,2.931-2.584,5.271-3.826c2.346-1.239,5.377-1.86,9.102-1.86c3.79,0,6.806,0.641,9.047,1.914
		c2.24,1.274,3.946,2.567,5.117,3.875c1.31,1.588,2.292,3.258,2.947,5.016c0.653,1.758,1.087,3.379,1.291,4.859
		c0.207,1.481,0.275,2.774,0.207,3.877c-0.068,1.104-0.138,1.758-0.207,1.965c-0.204,1.24-0.618,2.274-1.237,3.102
		c-0.556,0.76-1.292,1.396-2.227,1.914c-0.931,0.517-2.188,0.604-3.771,0.258c-1.52-0.272-2.638-0.772-3.36-1.5
		c-0.724-0.723-1.208-1.479-1.447-2.272c-0.242-0.791-0.347-1.5-0.312-2.119c0.035-0.621,0.053-1,0.053-1.139
		c0.066-0.272,0.104-0.654,0.104-1.139c0-0.48-0.054-0.998-0.154-1.55c-0.104-0.551-0.258-1.104-0.465-1.655
		s-0.482-1.033-0.828-1.447c-0.826-1.033-2.414-1.551-4.756-1.551c-1.861,0-3.154,0.241-3.879,0.725
		c-0.722,0.482-1.188,0.826-1.396,1.033c-0.48,0.483-0.846,1.033-1.085,1.654c-0.243,0.618-0.432,1.241-0.566,1.86
		c-0.141,0.621-0.228,1.156-0.261,1.603c-0.036,0.451-0.052,0.774-0.052,0.983v0.207v0.207c0,1.379,0.241,2.636,0.723,3.771
		c0.481,1.139,1.154,2.209,2.019,3.205c0.862,1.002,1.948,2.002,3.258,3c1.312,1.002,2.791,2.086,4.447,3.258
		c1.927,1.381,3.909,2.861,5.942,4.445C1369.955,2723.588,1371.832,2725.415,1373.559,2727.481z"/>
	<path fill="#FF1717" d="M1427.891,2747.383c-0.036,1.14-0.226,2.449-0.568,3.933c-0.346,1.479-0.896,3.065-1.655,4.754
		c-0.757,1.69-1.826,3.26-3.203,4.705c-1.174,1.312-2.911,2.586-5.224,3.825c-2.312,1.242-5.29,1.861-8.939,1.861
		c-3.655,0-6.604-0.619-8.843-1.861c-2.24-1.239-3.945-2.516-5.119-3.825c-1.381-1.517-2.43-3.138-3.15-4.857
		c-0.723-1.723-1.242-3.359-1.551-4.912c-0.313-1.551-0.467-2.928-0.467-4.135c0-1.205,0-2.051,0-2.533v-53.354
		c0-1.722,0.604-3.188,1.812-4.396c1.204-1.205,2.669-1.812,4.396-1.812c1.721,0,3.188,0.605,4.395,1.812
		c1.203,1.207,1.809,2.672,1.809,4.396v53.868v0.207c0,0.347,0,0.826,0,1.447c0,0.619,0.067,1.274,0.208,1.965
		c0.14,0.689,0.345,1.396,0.62,2.117c0.273,0.728,0.653,1.33,1.137,1.812c0.207,0.207,0.655,0.534,1.347,0.981
		c0.687,0.449,1.823,0.672,3.412,0.672c1.79,0,3.05-0.223,3.771-0.672c0.725-0.447,1.188-0.774,1.396-0.981
		c0.965-1.033,1.551-2.273,1.758-3.724c0.206-1.446,0.311-2.479,0.311-3.102v-0.312v-0.104v-54.074c0-1.723,0.604-3.189,1.81-4.396
		c1.205-1.205,2.672-1.809,4.396-1.809c1.723,0,3.188,0.604,4.396,1.809c1.205,1.209,1.809,2.675,1.809,4.396v53.973
		C1427.942,2745.473,1427.926,2746.249,1427.891,2747.383z"/>
	<path fill="#FF1717" d="M1475.607,2684.573c1.722,0,3.188,0.604,4.393,1.809c1.206,1.207,1.812,2.672,1.812,4.396v68.344v0.412
		v0.312v0.104v0.205l-0.105,0.104v0.105v0.207v0.104c-0.066,0.068-0.103,0.14-0.103,0.207v0.103c0,0.072-0.018,0.104-0.052,0.104
		c-0.035,0-0.054,0.037-0.054,0.104c0,0.07-0.018,0.121-0.051,0.154c-0.037,0.032-0.054,0.088-0.054,0.153
		c0,0.068-0.017,0.121-0.052,0.154c-0.035,0.035-0.053,0.088-0.053,0.154c0,0.07-0.019,0.104-0.05,0.104
		c-0.038,0-0.054,0.037-0.054,0.105v0.104c-0.069,0-0.104,0.037-0.104,0.104l-0.103,0.104c0,0.067-0.037,0.139-0.104,0.207
		l-0.102,0.104v0.104c-0.071,0-0.104,0.035-0.104,0.104s-0.032,0.104-0.104,0.104c0,0.067-0.018,0.104-0.05,0.104
		c-0.037,0-0.055,0.037-0.055,0.104h-0.104c0,0.07-0.036,0.142-0.104,0.207l-0.206,0.207l-0.208,0.207l-0.206,0.207h-0.102
		l-0.209,0.207c-0.07,0.068-0.138,0.104-0.206,0.104c0,0.068-0.036,0.104-0.104,0.104l-0.104,0.104c-0.07,0-0.104,0.017-0.104,0.051
		c0,0.035-0.033,0.054-0.104,0.054h-0.104l-0.206,0.205c-0.275,0.139-0.518,0.241-0.725,0.312c-0.208,0.065-0.483,0.137-0.828,0.205
		c-0.274,0.068-0.688,0.104-1.24,0.104c-0.413,0-0.725-0.033-0.931-0.104h-0.208h-0.103c-0.069,0-0.104-0.035-0.104-0.104h-0.415
		v-0.104h-0.208c-0.271-0.139-0.449-0.207-0.517-0.207c-0.069,0-0.104-0.035-0.104-0.104h-0.104c-0.068,0-0.104-0.035-0.104-0.104
		c-0.069,0-0.14-0.035-0.208-0.104c-0.066,0-0.101-0.034-0.101-0.104h-0.104c-0.069,0-0.104-0.02-0.104-0.053
		c0-0.035-0.033-0.053-0.104-0.053c-0.759-0.552-1.379-1.205-1.862-1.966v-0.102c-0.065,0-0.102-0.035-0.102-0.105l-0.104-0.104
		v-0.104c-0.069-0.065-0.104-0.137-0.104-0.207c0-0.065-0.037-0.137-0.104-0.205l-17.683-40.842v38.463
		c0,1.723-0.604,3.188-1.81,4.395c-1.206,1.205-2.672,1.81-4.396,1.81c-1.725,0-3.188-0.604-4.394-1.81
		c-1.208-1.205-1.812-2.672-1.812-4.395v-68.344v-0.414v-0.312v-0.104v-0.207l0.104-0.105v-0.102v-0.207v-0.104
		c0.068-0.065,0.104-0.139,0.104-0.207v-0.104c0-0.068,0.019-0.104,0.052-0.104c0.034,0,0.055-0.034,0.055-0.104
		s0.016-0.119,0.051-0.154s0.052-0.086,0.052-0.156c0-0.067,0.017-0.118,0.052-0.153c0.033-0.033,0.053-0.086,0.053-0.156
		c0-0.068,0.018-0.104,0.055-0.104c0.031,0,0.049-0.034,0.049-0.104v-0.104l0.209-0.207c0-0.065,0.018-0.104,0.051-0.104
		c0.034,0,0.053-0.033,0.053-0.104l0.104-0.104v-0.104c0.069-0.065,0.104-0.139,0.104-0.207h0.104c0-0.068,0.019-0.104,0.052-0.104
		c0.034,0,0.054-0.033,0.054-0.104h0.104c0-0.067,0.033-0.137,0.104-0.207l0.208-0.207v-0.104c0.065,0,0.137-0.033,0.206-0.104
		v-0.104c0.065,0,0.139-0.033,0.208-0.104h0.103l0.208-0.207l0.206-0.207h0.104c0-0.067,0.034-0.104,0.104-0.104
		c0.07,0,0.104-0.017,0.104-0.052c0-0.032,0.031-0.053,0.104-0.053h0.104l0.207-0.205c0.479-0.274,0.964-0.449,1.445-0.518h0.104
		c0.343-0.066,0.859-0.104,1.551-0.104h0.309h0.104l0.104,0.104h0.207h0.103h0.207c0,0.068,0.034,0.104,0.104,0.104h0.209h0.102
		c0,0.07,0.066,0.104,0.206,0.104c0.068,0.067,0.174,0.104,0.31,0.104c0.07,0.066,0.141,0.103,0.209,0.103h0.104
		c0,0.067,0.068,0.104,0.207,0.104v0.104c0.138,0,0.207,0.035,0.207,0.104h0.104c0.065,0,0.104,0.021,0.104,0.053
		c0,0.035,0.032,0.052,0.102,0.052l0.105,0.104l0.104,0.104l0.104,0.104h0.104c0.065,0.07,0.137,0.105,0.209,0.105v0.102
		c0.064,0,0.102,0.019,0.102,0.051c0,0.037,0.036,0.054,0.104,0.054v0.104c0.069,0,0.104,0.019,0.104,0.052
		c0,0.034,0.034,0.053,0.104,0.053v0.104l0.207,0.207l0.205,0.207l0.207,0.207c0,0.068,0.033,0.139,0.104,0.207
		c0.067,0,0.104,0.035,0.104,0.104s0.033,0.104,0.104,0.104c0,0.14,0.032,0.207,0.103,0.207v0.104
		c0.066,0.068,0.104,0.139,0.104,0.207h0.104c0,0.139,0.017,0.227,0.053,0.26c0.035,0.035,0.052,0.086,0.052,0.154l17.683,40.84
		v-38.461c0-1.723,0.604-3.189,1.81-4.396C1472.416,2685.178,1473.885,2684.573,1475.607,2684.573z"/>
</g>
<g>
	<g>
		<path fill="#FF1717" d="M1648.311,53.959c0,0,111.444,234.801,448.018,196.637l-40.553,230.117l80.399,172.77l112.56,8.894
			l184.267-4.099c0,0-125.991,297.351,177.242,455.121l-177.971,96.369v209.761l61.717,158.602l66.021,61.789
			c0,0-261.471,149.426-194.321,450.557l-111.875-51.889l-56.259,30.697l-184.172,92.092l-53.301,97.207l-2.295,168.543
			c0,0-316.111-64.604-457.688,177.607l-39.257-79.479l-179.059-106.814h-81.859l-164.146-18.696l-62.205,154.403
			c0,0-99.108-292.312-450.557-188.978l30.627-193.164l-69.986-77.101l-81.858-66.531l-71.625-35.821l-107.06-37.845l-36.748,2.328
			c0,0,94.457-290.903-177.607-452.575l206.525-135.504l-20.465-189.299L94.828,1030.7l-35.631-52.771
			c0,0,312.24-84.137,196.959-460.791l155.877,42.873l117.672-97.207l86.976-107.438l42.602-133.021l4.854-41.854
			c0,0,297.736,99.201,457.693-177.607l42.283,102.036l102.324,56.524h163.713l127.904-26.469L1648.311,53.959z"/>
		<g>
			<path fill="#F9E450" d="M2433.001,658.256c-385.822-106.477-336.652-407.979-336.652-407.979l-785.535,1054.411L2433.001,658.256
				z"/>
			<path fill="#F9E450" d="M2560.171,1639.918c-197.525-348.106,50.438-526.53,50.438-526.53l-1301.037,190.121L2560.171,1639.918z"
				/>
			<path fill="#F9E450" d="M1957.792,2427.125c106.479-385.82,407.979-336.649,407.979-336.649l-1054.404-785.54L1957.792,2427.125z
				"/>
			<path fill="#F9E450" d="M973.572,2554.295c348.103-197.524,526.527,50.438,526.527,50.438l-190.113-1301.04L973.572,2554.295z"/>
			<path fill="#F9E450" d="M186.365,1957.032c385.82,106.479,336.65,407.979,336.65,407.979l785.543-1054.407L186.365,1957.032z"/>
			<path fill="#F9E450" d="M59.195,977.928c197.524,348.107-50.438,526.53-50.438,526.53L1309.8,1314.342L59.195,977.928z"/>
			<path fill="#F9E450" d="M664.134,180.488C557.654,566.308,256.154,517.136,256.154,517.136l1054.408,785.544L664.134,180.488z"/>
			<path fill="#F9E450" d="M1648.352,53.319C1300.25,250.843,1121.826,2.881,1121.826,2.881l190.117,1301.044L1648.352,53.319z"/>
		</g>
	</g>
	<path fill="#FF8939" d="M1308.777,1229.047c44.729,0,80.994,36.265,80.994,81s-36.265,81-80.994,81c-44.735,0-81-36.265-81-81
		S1264.042,1229.047,1308.777,1229.047z"/>
</g>
<g display="none">
	<path display="inline" fill="#FF1717" d="M1401.841,3056.023c1.205,1.172,1.811,2.653,1.811,4.444c0,1.726-0.604,3.189-1.811,4.396
		c-1.207,1.207-2.672,1.811-4.395,1.811h-9.614v62.035c0,1.725-0.604,3.189-1.811,4.395c-1.207,1.205-2.673,1.81-4.395,1.81
		c-1.728,0-3.189-0.604-4.396-1.81c-1.209-1.205-1.809-2.67-1.809-4.395v-62.035h-9.823c-1.726,0-3.188-0.604-4.395-1.811
		c-1.206-1.205-1.812-2.67-1.812-4.396c0-1.791,0.604-3.272,1.812-4.444c1.205-1.173,2.669-1.761,4.395-1.761h31.846
		C1399.169,3054.263,1400.634,3054.852,1401.841,3056.023z"/>
	<path display="inline" fill="#FF1717" d="M1445.419,3054.162c1.724,0,3.188,0.604,4.396,1.809c1.203,1.207,1.809,2.673,1.809,4.396
		v68.447c0,1.723-0.604,3.188-1.809,4.395c-1.209,1.205-2.673,1.81-4.396,1.81c-1.722,0-3.188-0.604-4.393-1.81
		c-1.207-1.205-1.811-2.672-1.811-4.395v-23.781h-16.129v23.781c0,1.723-0.604,3.188-1.812,4.395
		c-1.207,1.205-2.671,1.81-4.394,1.81c-1.725,0-3.188-0.604-4.396-1.81s-1.809-2.672-1.809-4.395v-68.447
		c0-1.723,0.603-3.188,1.809-4.396c1.205-1.205,2.671-1.809,4.396-1.809c1.723,0,3.187,0.604,4.394,1.809
		c1.207,1.207,1.812,2.673,1.812,4.396v32.26h16.129v-32.26c0-1.723,0.604-3.188,1.811-4.396
		C1442.23,3054.765,1443.697,3054.162,1445.419,3054.162z"/>
	<path display="inline" fill="#FF1717" d="M1499.858,3124.314c1.204,1.207,1.809,2.672,1.809,4.395c0,1.725-0.604,3.189-1.809,4.395
		c-1.207,1.205-2.671,1.81-4.395,1.81h-25.332c-1.724,0-3.19-0.604-4.394-1.81c-1.208-1.205-1.812-2.67-1.812-4.395v-68.445
		c0-1.725,0.604-3.188,1.812-4.396c1.201-1.205,2.67-1.81,4.394-1.81h25.332c1.724,0,3.188,0.604,4.395,1.81
		c1.204,1.207,1.809,2.672,1.809,4.396c0,1.793-0.604,3.271-1.809,4.445c-1.207,1.172-2.671,1.756-4.395,1.756h-19.13v26.057h13.234
		c1.723,0,3.188,0.604,4.395,1.81c1.205,1.207,1.811,2.672,1.811,4.396c0,1.725-0.604,3.188-1.811,4.395
		c-1.207,1.207-2.672,1.809-4.395,1.809h-13.234v17.578h19.13C1497.188,3122.505,1498.651,3123.109,1499.858,3124.314z"/>
	<path display="inline" fill="#FF1717" d="M1597.824,3097.07c4.066,5.102,6.101,11.062,6.101,17.889
		c0,2.135-0.225,4.049-0.672,5.736c-0.451,1.688-1.002,3.188-1.656,4.498c-0.655,1.311-1.394,2.447-2.222,3.412
		c-0.827,0.967-1.654,1.793-2.48,2.481c-3.861,3.103-8.55,4.652-14.062,4.652c-2.688,0-5.206-0.381-7.548-1.137
		c-2.344-0.761-4.413-1.931-6.205-3.517c-0.76-0.619-1.535-1.414-2.327-2.379c-0.791-0.963-1.516-2.102-2.168-3.412
		c-0.657-1.309-1.19-2.824-1.604-4.549c-0.413-1.723-0.62-3.688-0.62-5.895c0-1.722,0.604-3.188,1.812-4.396
		c1.203-1.203,2.669-1.81,4.393-1.81c1.793,0,3.273,0.605,4.446,1.81c1.172,1.207,1.756,2.674,1.756,4.396
		c0,0.967,0.091,1.948,0.262,2.946c0.171,1,0.534,1.914,1.086,2.74c0.551,0.826,1.358,1.5,2.429,2.017
		c1.07,0.518,2.5,0.774,4.292,0.774c1.238,0,2.396-0.154,3.463-0.465c1.069-0.312,1.982-0.773,2.742-1.396
		c1.651-1.446,2.479-3.618,2.479-6.512c0-2.137-0.274-3.998-0.827-5.584s-1.361-3.051-2.429-4.396
		c-1.071-1.344-2.378-2.618-3.931-3.825c-1.551-1.205-3.29-2.496-5.22-3.877c-1.796-1.24-3.569-2.533-5.324-3.879
		c-1.759-1.343-3.398-2.875-4.914-4.601c-1.791-2.205-3.151-4.496-4.082-6.875c-0.932-2.379-1.396-4.979-1.396-7.807
		c0-0.414,0.016-1.172,0.052-2.275c0.032-1.102,0.206-2.377,0.517-3.823c0.311-1.449,0.828-2.963,1.553-4.552
		c0.723-1.584,1.772-3.102,3.151-4.549c1.172-1.311,2.931-2.586,5.272-3.826c2.344-1.239,5.377-1.86,9.1-1.86
		c3.79,0,6.806,0.639,9.047,1.914c2.24,1.274,3.946,2.567,5.117,3.877c1.31,1.586,2.292,3.256,2.949,5.014
		c0.652,1.758,1.084,3.379,1.291,4.858c0.205,1.482,0.274,2.775,0.205,3.877c-0.068,1.105-0.137,1.759-0.205,1.966
		c-0.207,1.241-0.619,2.274-1.239,3.104c-0.554,0.761-1.292,1.396-2.226,1.912c-0.931,0.519-2.188,0.604-3.771,0.259
		c-1.518-0.273-2.638-0.773-3.36-1.498c-0.724-0.726-1.208-1.482-1.448-2.275c-0.242-0.791-0.346-1.5-0.311-2.119
		c0.035-0.621,0.053-0.998,0.053-1.137c0.066-0.275,0.103-0.654,0.103-1.139c0-0.48-0.054-0.998-0.154-1.551
		c-0.104-0.552-0.258-1.103-0.465-1.654c-0.207-0.551-0.482-1.033-0.828-1.447c-0.826-1.033-2.414-1.551-4.756-1.551
		c-1.861,0-3.154,0.242-3.879,0.723c-0.722,0.484-1.188,0.828-1.396,1.035c-0.481,0.481-0.846,1.033-1.085,1.654
		c-0.243,0.618-0.432,1.239-0.567,1.86c-0.14,0.621-0.227,1.154-0.26,1.603c-0.035,0.449-0.052,0.774-0.052,0.981v0.207v0.207
		c0,1.382,0.241,2.638,0.724,3.773c0.481,1.136,1.153,2.207,2.017,3.205c0.863,1,1.948,2,3.258,2.998
		c1.312,1.002,2.791,2.086,4.447,3.258c1.927,1.381,3.909,2.861,5.942,4.447C1594.222,3093.177,1596.099,3095.001,1597.824,3097.07z
		"/>
	<path display="inline" fill="#FF1717" d="M1652.156,3116.972c-0.036,1.14-0.225,2.449-0.568,3.933
		c-0.346,1.479-0.896,3.065-1.655,4.754c-0.757,1.69-1.827,3.258-3.202,4.705c-1.175,1.311-2.913,2.586-5.225,3.825
		c-2.312,1.242-5.29,1.861-8.941,1.861c-3.654,0-6.602-0.619-8.841-1.861c-2.241-1.239-3.946-2.516-5.118-3.825
		c-1.382-1.517-2.431-3.138-3.152-4.859s-1.242-3.359-1.551-4.912c-0.313-1.551-0.467-2.928-0.467-4.135c0-1.205,0-2.049,0-2.533
		v-53.352c0-1.724,0.604-3.188,1.812-4.396c1.204-1.205,2.669-1.812,4.396-1.812c1.72,0,3.187,0.605,4.394,1.812
		c1.203,1.207,1.809,2.672,1.809,4.396v53.868v0.207c0,0.347,0,0.826,0,1.447c0,0.619,0.067,1.274,0.208,1.965
		c0.139,0.689,0.344,1.396,0.62,2.117c0.273,0.728,0.653,1.33,1.136,1.812c0.209,0.207,0.656,0.534,1.347,0.981
		c0.687,0.449,1.825,0.672,3.412,0.672c1.79,0,3.05-0.223,3.771-0.672c0.724-0.447,1.188-0.774,1.396-0.981
		c0.965-1.033,1.551-2.273,1.758-3.724c0.206-1.446,0.311-2.479,0.311-3.102v-0.312v-0.104v-54.074c0-1.723,0.604-3.188,1.809-4.395
		c1.205-1.205,2.672-1.812,4.396-1.812c1.721,0,3.188,0.604,4.396,1.812c1.205,1.207,1.809,2.672,1.809,4.395v53.973
		C1652.208,3115.062,1652.191,3115.835,1652.156,3116.972z"/>
	<path display="inline" fill="#FF1717" d="M1699.873,3054.162c1.722,0,3.188,0.604,4.393,1.809c1.206,1.207,1.812,2.673,1.812,4.396
		v68.344v0.414v0.312v0.104v0.205l-0.105,0.104v0.104v0.207v0.105c-0.067,0.067-0.103,0.137-0.103,0.207v0.102
		c0,0.07-0.019,0.104-0.052,0.104c-0.035,0-0.053,0.037-0.053,0.104c0,0.07-0.018,0.121-0.051,0.154
		c-0.037,0.035-0.054,0.088-0.054,0.156s-0.017,0.121-0.052,0.154c-0.035,0.034-0.052,0.088-0.052,0.153
		c0,0.07-0.019,0.104-0.05,0.104c-0.038,0-0.054,0.037-0.054,0.104v0.104c-0.069,0-0.104,0.037-0.104,0.104l-0.103,0.105
		c0,0.067-0.037,0.137-0.104,0.205l-0.102,0.104v0.104c-0.071,0-0.104,0.035-0.104,0.104c0,0.069-0.034,0.104-0.104,0.104
		c0,0.067-0.019,0.104-0.05,0.104c-0.037,0-0.054,0.035-0.054,0.103h-0.104c0,0.07-0.036,0.141-0.104,0.209l-0.206,0.207
		l-0.208,0.205l-0.206,0.209h-0.102l-0.209,0.205c-0.07,0.068-0.138,0.104-0.206,0.104c0,0.068-0.036,0.104-0.104,0.104
		l-0.104,0.104c-0.07,0-0.104,0.017-0.104,0.052c0,0.034-0.035,0.053-0.104,0.053h-0.103l-0.206,0.207
		c-0.276,0.137-0.518,0.24-0.725,0.311c-0.208,0.066-0.483,0.137-0.828,0.205c-0.275,0.068-0.688,0.104-1.24,0.104
		c-0.414,0-0.725-0.035-0.931-0.104h-0.208h-0.104c-0.068,0-0.102-0.035-0.102-0.104h-0.415v-0.103h-0.208
		c-0.273-0.141-0.449-0.209-0.517-0.209c-0.069,0-0.104-0.032-0.104-0.102h-0.104c-0.068,0-0.104-0.035-0.104-0.104
		c-0.068,0-0.14-0.035-0.208-0.104c-0.067,0-0.101-0.035-0.101-0.104h-0.104c-0.071,0-0.105-0.018-0.105-0.053
		s-0.033-0.051-0.103-0.051c-0.759-0.552-1.379-1.205-1.861-1.966v-0.102c-0.067,0-0.103-0.035-0.103-0.105l-0.103-0.104v-0.104
		c-0.07-0.066-0.104-0.138-0.104-0.207c0-0.066-0.037-0.138-0.104-0.205l-17.682-40.843v38.463c0,1.724-0.604,3.189-1.81,4.396
		c-1.206,1.205-2.673,1.809-4.395,1.809c-1.725,0-3.188-0.604-4.394-1.809c-1.208-1.205-1.812-2.672-1.812-4.396v-68.344v-0.414
		v-0.31v-0.104v-0.207l0.104-0.105v-0.102v-0.207v-0.104c0.069-0.068,0.104-0.14,0.104-0.207v-0.104
		c0-0.068,0.017-0.103,0.052-0.103c0.034,0,0.054-0.034,0.054-0.104c0-0.068,0.016-0.119,0.051-0.154s0.052-0.086,0.052-0.155
		c0-0.068,0.016-0.119,0.052-0.152c0.033-0.035,0.052-0.088,0.052-0.158c0-0.066,0.018-0.102,0.055-0.102
		c0.031,0,0.049-0.035,0.049-0.104v-0.104l0.209-0.207c0-0.067,0.018-0.104,0.051-0.104c0.034,0,0.052-0.033,0.052-0.104
		l0.104-0.104v-0.104c0.069-0.065,0.104-0.137,0.104-0.205h0.104c0-0.069,0.017-0.104,0.052-0.104c0.034,0,0.053-0.033,0.053-0.103
		h0.104c0-0.067,0.033-0.139,0.104-0.209l0.208-0.205v-0.104c0.066,0,0.137-0.033,0.206-0.104v-0.104
		c0.066,0,0.139-0.033,0.208-0.104h0.103l0.208-0.207l0.206-0.207h0.104c0-0.067,0.033-0.104,0.104-0.104s0.104-0.016,0.104-0.051
		s0.032-0.053,0.104-0.053h0.104l0.207-0.205c0.48-0.275,0.964-0.449,1.446-0.521h0.104c0.343-0.065,0.858-0.103,1.551-0.103h0.31
		h0.104l0.104,0.103h0.207h0.104h0.207c0,0.07,0.034,0.104,0.104,0.104h0.209h0.103c0,0.069,0.066,0.104,0.206,0.104
		c0.068,0.07,0.174,0.105,0.311,0.105c0.069,0.067,0.139,0.104,0.209,0.104h0.103c0,0.068,0.068,0.104,0.207,0.104v0.103
		c0.138,0,0.207,0.035,0.207,0.104h0.103c0.067,0,0.104,0.018,0.104,0.053s0.032,0.051,0.103,0.051l0.104,0.104l0.103,0.104
		l0.104,0.104h0.103c0.067,0.069,0.138,0.104,0.209,0.104v0.104c0.066,0,0.103,0.019,0.103,0.052c0,0.037,0.036,0.053,0.104,0.053
		v0.104c0.068,0,0.103,0.018,0.103,0.051c0,0.035,0.034,0.053,0.104,0.053v0.104l0.207,0.205l0.207,0.209l0.207,0.207
		c0,0.068,0.032,0.14,0.103,0.205c0.067,0,0.103,0.037,0.103,0.104c0,0.07,0.034,0.104,0.105,0.104c0,0.139,0.032,0.207,0.102,0.207
		v0.104c0.067,0.068,0.104,0.139,0.104,0.207h0.104c0,0.139,0.015,0.225,0.051,0.258c0.035,0.035,0.052,0.086,0.052,0.154
		l17.683,40.842v-38.463c0-1.723,0.603-3.188,1.809-4.395C1696.683,3054.765,1698.15,3054.162,1699.873,3054.162z"/>
</g>
</svg>
