<?xml version="1.0" encoding="utf-8"?>
<!-- Generator: Adobe Illustrator 16.0.0, SVG Export Plug-In . SVG Version: 6.00 Build 0)  -->
<!DOCTYPE svg PUBLIC "-//W3C//DTD SVG 1.1//EN" "http://www.w3.org/Graphics/SVG/1.1/DTD/svg11.dtd">
<svg version="1.1" id="Layer_1" xmlns="http://www.w3.org/2000/svg" xmlns:xlink="http://www.w3.org/1999/xlink" x="0px" y="0px"
	 width="2632px" height="2796px" viewBox="0 0 2632 2796" enable-background="new 0 0 2632 2796" xml:space="preserve">
<g id="Layer_1_1_">
</g>
<g id="Layer_5">
</g>
<g id="Layer_2">
</g>
<g id="neptune">
</g>
<g id="uranus">
</g>
<g id="saturn">
</g>
<g id="jupiter">
</g>
<g id="Layer_14">
</g>
<g id="mars">
</g>
<g id="venus">
</g>
<g id="mercury">
</g>
<g id="earth">
</g>
<g id="Layer_6">
</g>
<g>
	<path fill="#FF1717" d="M1177.581,2686.435c1.205,1.174,1.812,2.653,1.812,4.444c0,1.728-0.604,3.191-1.812,4.396
		c-1.207,1.207-2.672,1.809-4.395,1.809h-9.614v62.037c0,1.726-0.604,3.188-1.81,4.396c-1.207,1.205-2.675,1.809-4.396,1.809
		c-1.729,0-3.188-0.604-4.396-1.809c-1.209-1.207-1.809-2.67-1.809-4.396v-62.037h-9.823c-1.726,0-3.188-0.602-4.395-1.809
		c-1.206-1.205-1.812-2.67-1.812-4.396c0-1.791,0.604-3.271,1.812-4.444c1.205-1.173,2.669-1.759,4.395-1.759h31.847
		C1174.909,2684.676,1176.374,2685.262,1177.581,2686.435z"/>
	<path fill="#FF1717" d="M1221.159,2684.573c1.725,0,3.188,0.604,4.396,1.809c1.203,1.207,1.808,2.672,1.808,4.396v68.445
		c0,1.725-0.604,3.188-1.808,4.396c-1.209,1.205-2.674,1.81-4.396,1.81c-1.722,0-3.188-0.604-4.393-1.81
		c-1.207-1.205-1.812-2.672-1.812-4.396v-23.779h-16.129v23.779c0,1.725-0.604,3.188-1.811,4.396
		c-1.207,1.205-2.673,1.81-4.396,1.81c-1.725,0-3.188-0.604-4.395-1.81s-1.811-2.672-1.811-4.396v-68.445
		c0-1.726,0.604-3.189,1.811-4.396c1.205-1.205,2.67-1.809,4.395-1.809c1.723,0,3.188,0.604,4.396,1.809
		c1.206,1.207,1.811,2.672,1.811,4.396v32.258h16.129v-32.258c0-1.726,0.604-3.189,1.812-4.396
		C1217.972,2685.178,1219.438,2684.573,1221.159,2684.573z"/>
	<path fill="#FF1717" d="M1275.599,2754.726c1.205,1.207,1.809,2.674,1.809,4.396c0,1.726-0.604,3.188-1.809,4.396
		c-1.207,1.205-2.672,1.809-4.396,1.809h-25.332c-1.724,0-3.19-0.604-4.394-1.809c-1.208-1.207-1.812-2.67-1.812-4.396v-68.447
		c0-1.723,0.604-3.188,1.812-4.395c1.201-1.205,2.67-1.812,4.394-1.812h25.332c1.724,0,3.188,0.605,4.396,1.812
		c1.205,1.207,1.809,2.672,1.809,4.395c0,1.793-0.604,3.273-1.809,4.445c-1.207,1.174-2.672,1.758-4.396,1.758h-19.13v26.056h13.234
		c1.723,0,3.188,0.604,4.395,1.811c1.205,1.207,1.812,2.672,1.812,4.395c0,1.726-0.604,3.189-1.812,4.396
		c-1.207,1.207-2.672,1.81-4.395,1.81h-13.234v17.577h19.13C1272.927,2752.916,1274.392,2753.521,1275.599,2754.726z"/>
	<path fill="#FF1717" d="M1373.559,2727.481c4.065,5.104,6.101,11.062,6.101,17.889c0,2.137-0.225,4.051-0.672,5.736
		c-0.451,1.688-1.002,3.188-1.656,4.498c-0.654,1.312-1.394,2.446-2.222,3.412c-0.827,0.967-1.654,1.793-2.48,2.481
		c-3.86,3.103-8.55,4.652-14.062,4.652c-2.688,0-5.206-0.382-7.548-1.138c-2.345-0.76-4.413-1.93-6.205-3.516
		c-0.76-0.621-1.535-1.414-2.327-2.379c-0.791-0.965-1.516-2.104-2.168-3.412c-0.657-1.311-1.189-2.824-1.604-4.549
		c-0.416-1.726-0.621-3.689-0.621-5.896c0-1.721,0.604-3.188,1.812-4.393c1.203-1.205,2.669-1.812,4.395-1.812
		c1.791,0,3.271,0.605,4.444,1.812c1.172,1.207,1.756,2.672,1.756,4.393c0,0.967,0.09,1.949,0.263,2.947
		c0.171,1,0.532,1.914,1.086,2.74c0.551,0.826,1.357,1.5,2.429,2.016c1.07,0.521,2.5,0.775,4.292,0.775
		c1.238,0,2.396-0.154,3.463-0.465c1.069-0.312,1.982-0.773,2.742-1.396c1.651-1.447,2.479-3.619,2.479-6.512
		c0-2.139-0.273-3.998-0.825-5.584c-0.555-1.586-1.362-3.053-2.431-4.396c-1.069-1.346-2.378-2.621-3.931-3.827
		c-1.551-1.203-3.29-2.496-5.221-3.875c-1.795-1.24-3.568-2.533-5.323-3.879c-1.759-1.343-3.398-2.875-4.914-4.601
		c-1.791-2.205-3.151-4.498-4.082-6.875c-0.933-2.379-1.396-4.979-1.396-7.807c0-0.414,0.018-1.173,0.054-2.275
		c0.032-1.102,0.206-2.377,0.517-3.823c0.311-1.447,0.828-2.963,1.553-4.552c0.724-1.584,1.772-3.1,3.151-4.549
		c1.172-1.312,2.931-2.584,5.271-3.826c2.346-1.239,5.377-1.86,9.102-1.86c3.79,0,6.806,0.641,9.047,1.914
		c2.24,1.274,3.946,2.567,5.117,3.875c1.31,1.588,2.292,3.258,2.947,5.016c0.653,1.758,1.087,3.379,1.291,4.859
		c0.207,1.481,0.275,2.774,0.207,3.877c-0.068,1.104-0.138,1.758-0.207,1.965c-0.204,1.24-0.618,2.274-1.237,3.102
		c-0.556,0.76-1.292,1.396-2.227,1.914c-0.931,0.517-2.188,0.604-3.771,0.258c-1.52-0.272-2.638-0.772-3.36-1.5
		c-0.724-0.723-1.208-1.479-1.447-2.272c-0.242-0.791-0.347-1.5-0.312-2.119c0.035-0.621,0.053-1,0.053-1.139
		c0.066-0.272,0.104-0.654,0.104-1.139c0-0.48-0.054-0.998-0.154-1.55c-0.104-0.551-0.258-1.104-0.465-1.655
		s-0.482-1.033-0.828-1.447c-0.826-1.033-2.414-1.551-4.756-1.551c-1.861,0-3.154,0.241-3.879,0.725
		c-0.722,0.482-1.188,0.826-1.396,1.033c-0.48,0.483-0.846,1.033-1.085,1.654c-0.243,0.618-0.432,1.241-0.566,1.86
		c-0.141,0.621-0.228,1.156-0.261,1.603c-0.036,0.451-0.052,0.774-0.052,0.983v0.207v0.207c0,1.379,0.241,2.636,0.723,3.771
		c0.481,1.139,1.154,2.209,2.019,3.205c0.862,1.002,1.948,2.002,3.258,3c1.312,1.002,2.791,2.086,4.447,3.258
		c1.927,1.381,3.909,2.861,5.942,4.445C1369.955,2723.588,1371.832,2725.415,1373.559,2727.481z"/>
	<path fill="#FF1717" d="M1427.891,2747.383c-0.036,1.14-0.226,2.449-0.568,3.933c-0.346,1.479-0.896,3.065-1.655,4.754
		c-0.757,1.69-1.826,3.26-3.203,4.705c-1.174,1.312-2.911,2.586-5.224,3.825c-2.312,1.242-5.29,1.861-8.939,1.861
		c-3.655,0-6.604-0.619-8.843-1.861c-2.24-1.239-3.945-2.516-5.119-3.825c-1.381-1.517-2.43-3.138-3.15-4.857
		c-0.723-1.723-1.242-3.359-1.551-4.912c-0.313-1.551-0.467-2.928-0.467-4.135c0-1.205,0-2.051,0-2.533v-53.354
		c0-1.722,0.604-3.188,1.812-4.396c1.204-1.205,2.669-1.812,4.396-1.812c1.721,0,3.188,0.605,4.395,1.812
		c1.203,1.207,1.809,2.672,1.809,4.396v53.868v0.207c0,0.347,0,0.826,0,1.447c0,0.619,0.067,1.274,0.208,1.965
		c0.14,0.689,0.345,1.396,0.62,2.117c0.273,0.728,0.653,1.33,1.137,1.812c0.207,0.207,0.655,0.534,1.347,0.981
		c0.687,0.449,1.823,0.672,3.412,0.672c1.79,0,3.05-0.223,3.771-0.672c0.725-0.447,1.188-0.774,1.396-0.981
		c0.965-1.033,1.551-2.273,1.758-3.724c0.206-1.446,0.311-2.479,0.311-3.102v-0.312v-0.104v-54.074c0-1.723,0.604-3.189,1.81-4.396
		c1.205-1.205,2.672-1.809,4.396-1.809c1.723,0,3.188,0.604,4.396,1.809c1.205,1.209,1.809,2.675,1.809,4.396v53.973
		C1427.942,2745.473,1427.926,2746.249,1427.891,2747.383z"/>
	<path fill="#FF1717" d="M1475.607,2684.573c1.722,0,3.188,0.604,4.393,1.809c1.206,1.207,1.812,2.672,1.812,4.396v68.344v0.412
		v0.312v0.104v0.205l-0.105,0.104v0.105v0.207v0.104c-0.066,0.068-0.103,0.14-0.103,0.207v0.103c0,0.072-0.018,0.104-0.052,0.104
		c-0.035,0-0.054,0.037-0.054,0.104c0,0.07-0.018,0.121-0.051,0.154c-0.037,0.032-0.054,0.088-0.054,0.153
		c0,0.068-0.017,0.121-0.052,0.154c-0.035,0.035-0.053,0.088-0.053,0.154c0,0.07-0.019,0.104-0.05,0.104
		c-0.038,0-0.054,0.037-0.054,0.105v0.104c-0.069,0-0.104,0.037-0.104,0.104l-0.103,0.104c0,0.067-0.037,0.139-0.104,0.207
		l-0.102,0.104v0.104c-0.071,0-0.104,0.035-0.104,0.104s-0.032,0.104-0.104,0.104c0,0.067-0.018,0.104-0.05,0.104
		c-0.037,0-0.055,0.037-0.055,0.104h-0.104c0,0.07-0.036,0.142-0.104,0.207l-0.206,0.207l-0.208,0.207l-0.206,0.207h-0.102
		l-0.209,0.207c-0.07,0.068-0.138,0.104-0.206,0.104c0,0.068-0.036,0.104-0.104,0.104l-0.104,0.104c-0.07,0-0.104,0.017-0.104,0.051
		c0,0.035-0.033,0.054-0.104,0.054h-0.104l-0.206,0.205c-0.275,0.139-0.518,0.241-0.725,0.312c-0.208,0.065-0.483,0.137-0.828,0.205
		c-0.274,0.068-0.688,0.104-1.24,0.104c-0.413,0-0.725-0.033-0.931-0.104h-0.208h-0.103c-0.069,0-0.104-0.035-0.104-0.104h-0.415
		v-0.104h-0.208c-0.271-0.139-0.449-0.207-0.517-0.207c-0.069,0-0.104-0.035-0.104-0.104h-0.104c-0.068,0-0.104-0.035-0.104-0.104
		c-0.069,0-0.14-0.035-0.208-0.104c-0.066,0-0.101-0.034-0.101-0.104h-0.104c-0.069,0-0.104-0.02-0.104-0.053
		c0-0.035-0.033-0.053-0.104-0.053c-0.759-0.552-1.379-1.205-1.862-1.966v-0.102c-0.065,0-0.102-0.035-0.102-0.105l-0.104-0.104
		v-0.104c-0.069-0.065-0.104-0.137-0.104-0.207c0-0.065-0.037-0.137-0.104-0.205l-17.683-40.842v38.463
		c0,1.723-0.604,3.188-1.81,4.395c-1.206,1.205-2.672,1.81-4.396,1.81c-1.725,0-3.188-0.604-4.394-1.81
		c-1.208-1.205-1.812-2.672-1.812-4.395v-68.344v-0.414v-0.312v-0.104v-0.207l0.104-0.105v-0.102v-0.207v-0.104
		c0.068-0.065,0.104-0.139,0.104-0.207v-0.104c0-0.068,0.019-0.104,0.052-0.104c0.034,0,0.055-0.034,0.055-0.104
		s0.016-0.119,0.051-0.154s0.052-0.086,0.052-0.156c0-0.067,0.017-0.118,0.052-0.153c0.033-0.033,0.053-0.086,0.053-0.156
		c0-0.068,0.018-0.104,0.055-0.104c0.031,0,0.049-0.034,0.049-0.104v-0.104l0.209-0.207c0-0.065,0.018-0.104,0.051-0.104
		c0.034,0,0.053-0.033,0.053-0.104l0.104-0.104v-0.104c0.069-0.065,0.104-0.139,0.104-0.207h0.104c0-0.068,0.019-0.104,0.052-0.104
		c0.034,0,0.054-0.033,0.054-0.104h0.104c0-0.067,0.033-0.137,0.104-0.207l0.208-0.207v-0.104c0.065,0,0.137-0.033,0.206-0.104
		v-0.104c0.065,0,0.139-0.033,0.208-0.104h0.103l0.208-0.207l0.206-0.207h0.104c0-0.067,0.034-0.104,0.104-0.104
		c0.07,0,0.104-0.017,0.104-0.052c0-0.032,0.031-0.053,0.104-0.053h0.104l0.207-0.205c0.479-0.274,0.964-0.449,1.445-0.518h0.104
		c0.343-0.066,0.859-0.104,1.551-0.104h0.309h0.104l0.104,0.104h0.207h0.103h0.207c0,0.068,0.034,0.104,0.104,0.104h0.209h0.102
		c0,0.07,0.066,0.104,0.206,0.104c0.068,0.067,0.174,0.104,0.31,0.104c0.07,0.066,0.141,0.103,0.209,0.103h0.104
		c0,0.067,0.068,0.104,0.207,0.104v0.104c0.138,0,0.207,0.035,0.207,0.104h0.104c0.065,0,0.104,0.021,0.104,0.053
		c0,0.035,0.032,0.052,0.102,0.052l0.105,0.104l0.104,0.104l0.104,0.104h0.104c0.065,0.07,0.137,0.105,0.209,0.105v0.102
		c0.064,0,0.102,0.019,0.102,0.051c0,0.037,0.036,0.054,0.104,0.054v0.104c0.069,0,0.104,0.019,0.104,0.052
		c0,0.034,0.034,0.053,0.104,0.053v0.104l0.207,0.207l0.205,0.207l0.207,0.207c0,0.068,0.033,0.139,0.104,0.207
		c0.067,0,0.104,0.035,0.104,0.104s0.033,0.104,0.104,0.104c0,0.14,0.032,0.207,0.103,0.207v0.104
		c0.066,0.068,0.104,0.139,0.104,0.207h0.104c0,0.139,0.017,0.227,0.053,0.26c0.035,0.035,0.052,0.086,0.052,0.154l17.683,40.84
		v-38.461c0-1.723,0.604-3.189,1.81-4.396C1472.416,2685.178,1473.885,2684.573,1475.607,2684.573z"/>
</g>
<g>
	<g>
		<g>
			<path fill="#FF1717" d="M1648.428,60.752c0,0,111.444,234.801,448.018,196.637l-40.553,230.117l80.399,172.77l112.56,8.894
				l184.267-4.099c0,0-125.991,297.351,177.242,455.121l-177.971,96.369v209.763l61.717,158.602l66.021,61.789
				c0,0-261.471,149.426-194.321,450.557l-111.875-51.889l-56.259,30.697l-184.172,92.092l-53.301,97.207l-2.294,168.543
				c0,0-316.112-64.604-457.689,177.607l-39.257-79.479l-179.064-106.814h-81.859l-164.146-18.697l-62.205,154.404
				c0,0-99.108-292.312-450.557-188.979l30.627-193.164l-69.986-77.1l-81.858-66.531l-71.625-35.822l-107.06-37.844l-36.748,2.328
				c0,0,94.457-290.904-177.607-452.576l206.525-135.506l-20.465-189.299l-99.992-148.957l-35.631-52.771
				c0,0,312.24-84.137,196.959-460.791l155.877,42.873l117.672-97.207l86.976-107.438l42.602-133.021l4.854-41.854
				c0,0,297.736,99.201,457.693-177.607l42.283,102.036l102.324,56.524h163.719l127.904-26.469L1648.428,60.752z"/>
			<g>
				<path fill="#FF1717" d="M2433.118,665.049c-385.822-106.477-336.652-407.979-336.652-407.979l-785.541,1054.411
					L2433.118,665.049z"/>
				<path fill="#FF1717" d="M2560.288,1646.715c-197.525-348.11,50.438-526.534,50.438-526.534l-1301.043,190.121L2560.288,1646.715
					z"/>
				<path fill="#FF1717" d="M1957.909,2433.922c106.479-385.82,407.979-336.65,407.979-336.65l-1054.41-785.542L1957.909,2433.922z"
					/>
				<path fill="#FF1717" d="M973.684,2561.092c348.106-197.525,526.533,50.438,526.533,50.438l-190.119-1301.042L973.684,2561.092z"
					/>
				<path fill="#FF1717" d="M186.477,1963.828c385.82,106.479,336.65,407.979,336.65,407.979l785.543-1054.41L186.477,1963.828z"/>
				<path fill="#FF1717" d="M59.307,984.721c197.524,348.107-50.438,526.533-50.438,526.533l1301.042-190.119L59.307,984.721z"/>
				<path fill="#FF1717" d="M664.245,187.282C557.766,573.101,256.266,523.929,256.266,523.929l1054.408,785.544L664.245,187.282z"
					/>
				<path fill="#FF1717" d="M1648.469,60.113c-348.107,197.523-526.531-50.438-526.531-50.438l190.117,1301.044L1648.469,60.113z"/>
			</g>
		</g>
		<circle fill="#FF1717" cx="1308.889" cy="1316.84" r="81"/>
	</g>
	<g>
		<path fill="#F9E450" d="M436.82,1220.106c4.855,0,8.988,1.702,12.388,5.102c3.397,3.4,5.102,7.532,5.102,12.388
			c0,5.444-0.434,10.886-1.311,16.321c-0.877,5.443-2.966,10.398-6.269,14.865c-3.888,5.441-9.034,9.33-15.445,11.658
			c-5.247,1.941-11.657,2.914-19.24,2.914h-57.418c-4.863,0-8.991-1.701-12.391-5.101c-3.403-3.396-5.1-7.526-5.1-12.388
			c0-10.101,1.405-19.571,4.224-28.42c2.817-8.838,6.462-17.239,10.932-25.211c4.469-7.967,9.428-15.545,14.869-22.733
			c5.438-7.188,10.879-14.089,16.321-20.695c4.271-5.248,8.353-10.396,12.24-15.448c3.889-5.052,7.383-10.056,10.491-15.015
			c3.107-4.952,5.587-9.86,7.436-14.716c1.846-4.855,2.768-9.718,2.768-14.573v-1.167c0.193-1.555-0.045-4.179-0.729-7.871
			c-0.684-3.688-2.188-6.896-4.514-9.617c-0.588-0.584-1.947-1.504-4.082-2.771c-2.142-1.262-5.732-1.894-10.783-1.894
			c-6.809,0-11.369,1.36-13.703,4.078c-2.141,2.528-3.353,5.686-3.644,9.475c-0.29,3.789-0.342,6.076-0.143,6.852
			c0.774,4.856-0.297,9.229-3.211,13.116c-2.914,3.889-6.805,6.12-11.66,6.7c-4.854,0.779-9.177-0.291-12.967-3.206
			c-3.793-2.914-6.074-6.797-6.851-11.657c0-0.581-0.103-2.426-0.288-5.539c-0.201-3.104,0-6.747,0.58-10.931
			c0.58-4.174,1.695-8.694,3.352-13.554c1.646-4.853,4.418-9.519,8.308-13.99c3.303-3.885,8.164-7.577,14.573-11.077
			c6.41-3.495,14.961-5.243,25.652-5.243c10.492,0,18.991,1.7,25.504,5.101c6.508,3.398,11.408,6.948,14.716,10.638
			c3.69,4.08,6.604,8.405,8.746,12.973c2.134,4.566,3.645,8.842,4.521,12.826c0.87,3.984,1.354,7.531,1.457,10.636
			c0.096,3.111,0.143,5.247,0.143,6.414c0,7.97-1.162,15.547-3.497,22.733c-2.335,7.193-5.439,14.14-9.323,20.841
			c-3.895,6.706-8.268,13.22-13.116,19.532c-4.863,6.312-9.815,12.483-14.871,18.507c-7.771,9.524-15.006,18.899-21.713,28.13
			c-6.706,9.229-11.42,18.994-14.137,29.29h37.308c1.753,0,3.159-0.046,4.229-0.143c1.064-0.098,1.896-0.245,2.478-0.438
			c0.192-0.774,0.336-1.896,0.438-3.354c0.097-1.459,0.143-3.74,0.143-6.85c0-4.855,1.7-8.986,5.101-12.388
			C427.831,1221.808,431.964,1220.106,436.82,1220.106z"/>
		<path fill="#F9E450" d="M581.103,1166.181c2.333,4.084,4.178,8.21,5.538,12.391c1.354,4.178,2.38,8.159,3.062,11.947
			c0.681,3.793,1.162,7.287,1.457,10.494c0.291,3.207,0.435,5.978,0.435,8.309c0,3.891-0.342,9.67-1.021,17.344
			c-0.683,7.679-3.057,15.593-7.139,23.758c-5.055,9.716-12.052,17.294-20.989,22.731c-9.719,6.021-21.859,9.035-36.435,9.035
			s-26.428-3.109-35.559-9.326c-8.357-5.83-13.896-13.794-16.612-23.9c-1.167-4.664-0.49-9.082,2.038-13.264
			c2.521-4.178,6.121-6.849,10.781-8.017c4.67-1.167,9.088-0.532,13.266,1.896c4.18,2.433,6.849,6.075,8.017,10.93
			c0.192,1.362,0.968,2.53,2.333,3.497c0.969,0.586,2.619,1.27,4.953,2.043c2.334,0.778,5.926,1.164,10.783,1.164
			c11.078,0,18.945-2.865,23.613-8.6c4.662-5.727,6.99-15.491,6.99-29.293c0-2.33-0.342-6.021-1.019-11.076
			c-0.685-5.049-2.38-10.101-5.103-15.156c-0.778-1.55-1.85-3.156-3.204-4.807c-1.36-1.652-3.107-3.211-5.248-4.666
			c-2.143-1.459-4.761-2.622-7.869-3.498c-3.107-0.875-6.898-1.312-11.369-1.312h-29.438c-4.86,0-8.938-1.65-12.239-4.957
			c-3.501-3.497-5.248-7.674-5.248-12.531v-82.489c0-4.856,1.696-8.984,5.102-12.389c3.398-3.397,7.525-5.102,12.388-5.102h65.873
			c4.856,0,8.989,1.703,12.389,5.102c3.397,3.403,5.102,7.531,5.102,12.389c0,4.859-1.703,8.987-5.102,12.389
			c-3.398,3.402-7.531,5.1-12.389,5.1h-48.385v47.515h11.948c14.183,0,26.428,3.204,36.728,9.614
			C568.663,1149.085,575.859,1156.663,581.103,1166.181z"/>
		<path fill="#F9E450" d="M712.848,1222.73c0,1.164-0.051,3.4-0.146,6.701c-0.099,3.309-0.635,7.048-1.603,11.226
			c-0.979,4.18-2.481,8.648-4.521,13.408c-2.037,4.763-5.004,9.18-8.893,13.26c-3.496,3.693-8.447,7.286-14.865,10.787
			c-6.408,3.496-14.767,5.242-25.063,5.242c-10.493,0-18.852-1.745-25.067-5.242c-6.222-3.501-10.979-7.094-14.282-10.787
			c-3.89-4.271-6.899-8.839-9.034-13.698c-2.142-4.854-3.645-9.473-4.521-13.845c-0.87-4.372-1.309-8.26-1.309-11.658
			s0-5.779,0-7.143v-111.637c0-11.853,1.94-21.326,5.83-28.419c3.883-7.094,7.866-12.582,11.948-16.47
			c9.912-9.326,21.957-13.991,36.146-13.991c6.604,0,13.215,1.165,19.815,3.497c6.604,2.334,12.537,5.932,17.785,10.784
			c5.242,4.862,9.52,10.981,12.82,18.365c3.303,7.387,4.959,16.131,4.959,26.232V1222.73L712.848,1222.73z M667.958,1087.774
			c-1.747-0.969-3.547-1.604-5.392-1.896c-1.851-0.29-3.546-0.434-5.101-0.434c-1.359,0-3.113,0.246-5.25,0.728
			c-2.14,0.487-4.224,1.56-6.269,3.209c-2.037,1.65-3.784,4.032-5.241,7.14c-1.457,3.11-2.188,7.39-2.188,12.825v55.382
			L667.958,1087.774z M672.04,1243.423c2.522-2.721,4.173-6.166,4.953-10.349c0.773-4.174,1.064-7.14,0.877-8.888v-0.876v-63.543
			l-32.649,85.113c0.975,0.779,2.379,1.557,4.229,2.33c1.845,0.777,4.611,1.165,8.308,1.165c4.854,0,8.306-0.677,10.35-2.039
			C670.145,1244.983,671.454,1244.005,672.04,1243.423z"/>
		<path fill="#F9E450" d="M989.747,1222.437c0,0.583-0.046,2.479-0.143,5.687c-0.103,3.204-0.585,6.996-1.456,11.367
			c-0.877,4.373-2.385,9.087-4.521,14.136c-2.142,5.056-5.243,9.719-9.324,13.991c-3.309,3.691-8.215,7.287-14.723,10.783
			c-6.514,3.497-14.916,5.247-25.214,5.247c-10.3,0-18.604-1.75-24.919-5.247c-6.318-3.496-11.13-7.092-14.432-10.783
			c-3.888-4.272-6.899-8.838-9.034-13.701c-2.142-4.855-3.645-9.473-4.516-13.846c-0.875-4.371-1.314-8.255-1.314-11.657
			c0-3.4,0-5.779,0-7.14v-111.93c0-11.854,1.941-21.326,5.83-28.419c3.888-7.094,7.873-12.582,11.948-16.47
			c4.857-4.469,10.396-7.913,16.618-10.349c6.217-2.428,12.725-3.644,19.526-3.644c6.604,0,13.265,1.165,19.965,3.497
			c6.707,2.334,12.686,5.932,17.928,10.784c5.25,4.861,9.519,10.981,12.827,18.364c3.302,7.388,4.952,16.132,4.952,26.233
			c0,5.056-1.702,9.23-5.102,12.531c-3.397,3.307-7.532,4.957-12.388,4.957c-4.856,0-8.989-1.65-12.388-4.957
			c-3.399-3.301-5.103-7.477-5.103-12.531c0-5.249-0.729-9.422-2.187-12.535c-1.457-3.104-3.204-5.488-5.243-7.139
			c-2.043-1.652-4.274-2.771-6.706-3.354c-2.432-0.581-4.616-0.873-6.559-0.873c-1.36,0-3.106,0.246-5.244,0.729
			c-2.141,0.487-4.229,1.559-6.268,3.209c-2.043,1.649-3.791,4.032-5.248,7.139c-1.459,3.111-2.187,7.39-2.187,12.826v112.509v1.459
			c0,0.974,0,2.287,0,3.934c0,1.656,0.192,3.501,0.587,5.54c0.386,2.04,0.967,4.082,1.748,6.12c0.771,2.043,1.844,3.744,3.204,5.101
			c0.581,0.586,1.845,1.508,3.792,2.771c1.936,1.267,5.242,1.895,9.905,1.895c5.056,0,8.552-0.628,10.496-1.895
			c1.938-1.264,3.206-2.281,3.787-3.062c2.721-2.717,4.417-6.12,5.101-10.2c0.678-4.083,1.02-7.092,1.02-9.036
			c0-0.192,0-1.263,0-3.204c0-1.94,0.484-4.03,1.457-6.269c0.974-2.232,2.573-4.322,4.811-6.269
			c2.232-1.941,5.489-3.013,9.765-3.205c4.469-0.192,7.92,0.579,10.35,2.332c2.427,1.75,4.322,3.691,5.684,5.829
			C988.387,1216.22,989.359,1219.135,989.747,1222.437z"/>
		<path fill="#F9E450" d="M1122.518,1250.856c3.399,3.401,5.103,7.534,5.103,12.389c0,4.858-1.702,8.993-5.103,12.389
			c-3.404,3.396-7.531,5.103-12.387,5.103h-71.413c-4.861,0-8.989-1.707-12.388-5.103c-3.404-3.396-5.102-7.529-5.102-12.389
			v-192.96c0-4.855,1.696-8.982,5.102-12.388c3.397-3.398,7.525-5.103,12.388-5.103h71.413c4.854,0,8.981,1.703,12.387,5.103
			c3.399,3.404,5.103,7.531,5.103,12.388c0,5.055-1.702,9.233-5.103,12.535c-3.404,3.306-7.531,4.952-12.387,4.952h-53.924v73.453
			h37.305c4.857,0,8.99,1.705,12.389,5.103c3.398,3.401,5.102,7.534,5.102,12.388c0,4.859-1.702,8.993-5.102,12.387
			c-3.397,3.403-7.53,5.103-12.389,5.103h-37.305v49.553h53.924C1114.986,1245.756,1119.113,1247.46,1122.518,1250.856z"/>
		<path fill="#F9E450" d="M1258.197,1053.085c4.857,0,8.991,1.706,12.391,5.101c3.397,3.405,5.099,7.536,5.099,12.391v192.668v1.165
			v0.876v0.292v0.582l-0.289,0.294v0.291v0.58v0.293c-0.193,0.195-0.291,0.389-0.291,0.583v0.292c0,0.194-0.051,0.289-0.146,0.289
			c-0.097,0-0.143,0.102-0.143,0.293c0,0.196-0.051,0.342-0.147,0.435c-0.103,0.104-0.148,0.249-0.148,0.438
			c0,0.196-0.045,0.344-0.143,0.438c-0.103,0.101-0.148,0.246-0.148,0.438c0,0.194-0.05,0.291-0.141,0.291
			c-0.103,0-0.147,0.101-0.147,0.291v0.289c-0.195,0-0.291,0.104-0.291,0.294l-0.289,0.293c0,0.193-0.104,0.391-0.297,0.581
			l-0.291,0.291v0.292c-0.193,0-0.289,0.101-0.289,0.293c0,0.193-0.104,0.292-0.291,0.292c0,0.192-0.052,0.289-0.147,0.289
			s-0.143,0.103-0.143,0.29h-0.296c0,0.199-0.098,0.395-0.291,0.587l-0.58,0.581l-0.586,0.583l-0.581,0.584h-0.291l-0.585,0.579
			c-0.194,0.194-0.389,0.296-0.582,0.296c0,0.19-0.103,0.291-0.29,0.291l-0.291,0.29c-0.198,0-0.296,0.047-0.296,0.146
			c0,0.093-0.097,0.145-0.289,0.145h-0.291l-0.581,0.583c-0.78,0.387-1.457,0.682-2.044,0.875c-0.58,0.192-1.359,0.387-2.328,0.584
			c-0.779,0.19-1.947,0.292-3.502,0.292c-1.166,0-2.037-0.102-2.623-0.292h-0.581h-0.29c-0.2,0-0.291-0.101-0.291-0.294h-1.167
			v-0.29h-0.585c-0.775-0.394-1.266-0.582-1.459-0.582s-0.289-0.103-0.289-0.293h-0.292c-0.192,0-0.289-0.099-0.289-0.292
			c-0.2,0-0.394-0.097-0.587-0.291c-0.193,0-0.29-0.1-0.29-0.291h-0.291c-0.193,0-0.29-0.049-0.29-0.146s-0.104-0.144-0.291-0.144
			c-2.141-1.554-3.896-3.397-5.248-5.539v-0.289c-0.193,0-0.291-0.098-0.291-0.293l-0.289-0.295v-0.288
			c-0.2-0.191-0.297-0.389-0.297-0.582c0-0.192-0.096-0.388-0.291-0.587l-49.84-115.134v108.434c0,4.856-1.703,8.99-5.103,12.389
			c-3.405,3.396-7.532,5.101-12.388,5.101c-4.862,0-8.99-1.703-12.39-5.101c-3.402-3.397-5.1-7.531-5.1-12.389v-192.668v-1.165
			v-0.876v-0.29v-0.585l0.289-0.292v-0.29v-0.581v-0.294c0.193-0.19,0.292-0.389,0.292-0.584v-0.288
			c0-0.194,0.045-0.292,0.146-0.292c0.097,0,0.147-0.099,0.147-0.293c0-0.19,0.045-0.339,0.144-0.437
			c0.097-0.098,0.146-0.245,0.146-0.438c0-0.192,0.046-0.335,0.143-0.438c0.098-0.096,0.148-0.238,0.148-0.438
			c0-0.188,0.046-0.291,0.146-0.291c0.093,0,0.144-0.096,0.144-0.29v-0.292l0.586-0.585c0-0.188,0.046-0.29,0.143-0.29
			s0.147-0.099,0.147-0.291l0.291-0.289v-0.294c0.192-0.191,0.29-0.387,0.29-0.583h0.291c0-0.19,0.045-0.291,0.146-0.291
			c0.098,0,0.148-0.098,0.148-0.291h0.291c0-0.192,0.096-0.387,0.29-0.586l0.581-0.58v-0.29c0.192,0,0.388-0.099,0.586-0.295v-0.292
			c0.188,0,0.387-0.094,0.58-0.289h0.291l0.586-0.582l0.582-0.586h0.289c0-0.188,0.097-0.291,0.297-0.291
			c0.188,0,0.291-0.045,0.291-0.146c0-0.095,0.096-0.145,0.289-0.145h0.291l0.586-0.586c1.354-0.772,2.716-1.261,4.076-1.455h0.296
			c0.968-0.191,2.425-0.295,4.372-0.295h0.871h0.291l0.296,0.295h0.58h0.29h0.587c0,0.194,0.092,0.293,0.29,0.293h0.58h0.291
			c0,0.191,0.192,0.288,0.586,0.288c0.188,0.194,0.483,0.292,0.871,0.292c0.192,0.196,0.389,0.291,0.588,0.291h0.289
			c0,0.196,0.192,0.291,0.58,0.291v0.294c0.389,0,0.588,0.098,0.588,0.292h0.289c0.194,0,0.291,0.05,0.291,0.145
			c0,0.101,0.097,0.146,0.289,0.146l0.297,0.291l0.291,0.294l0.289,0.292h0.291c0.192,0.191,0.388,0.29,0.587,0.29v0.292
			c0.188,0,0.29,0.049,0.29,0.146s0.098,0.144,0.291,0.144v0.291c0.192,0,0.289,0.051,0.289,0.146c0,0.102,0.098,0.148,0.291,0.148
			v0.289l0.587,0.58l0.581,0.586l0.585,0.582c0,0.196,0.091,0.393,0.291,0.584c0.188,0,0.291,0.099,0.291,0.293
			c0,0.193,0.097,0.289,0.29,0.289c0,0.395,0.096,0.581,0.291,0.581v0.293c0.19,0.196,0.296,0.391,0.296,0.584h0.289
			c0,0.394,0.046,0.632,0.142,0.729c0.098,0.1,0.15,0.245,0.15,0.438l49.84,115.134v-108.434c0-4.854,1.703-8.983,5.102-12.39
			C1249.209,1054.792,1253.342,1053.085,1258.197,1053.085z"/>
		<path fill="#F9E450" d="M1412.535,1058.335c3.398,3.308,5.101,7.479,5.101,12.533c0,4.858-1.701,8.991-5.101,12.388
			c-3.399,3.401-7.532,5.101-12.389,5.101h-27.104v174.888c0,4.858-1.709,8.992-5.102,12.389c-3.404,3.395-7.537,5.102-12.388,5.102
			c-4.862,0-8.995-1.707-12.388-5.102c-3.406-3.396-5.103-7.529-5.103-12.389v-174.888h-27.69c-4.859,0-8.993-1.698-12.388-5.101
			c-3.405-3.396-5.102-7.528-5.102-12.388c0-5.054,1.696-9.227,5.102-12.533c3.395-3.303,7.527-4.955,12.388-4.955h89.772
			C1405.002,1053.38,1409.135,1055.033,1412.535,1058.335z"/>
		<path fill="#F9E450" d="M1456.107,1053.085c5.049,0,9.229,1.706,12.537,5.101c3.301,3.405,4.951,7.536,4.951,12.391v192.961
			c0,4.856-1.65,8.99-4.951,12.389c-3.309,3.396-7.488,5.102-12.537,5.102c-4.86,0-8.988-1.704-12.387-5.102
			c-3.405-3.396-5.103-7.531-5.103-12.389v-192.961c0-4.854,1.696-8.984,5.103-12.391
			C1447.12,1054.792,1451.247,1053.085,1456.107,1053.085z"/>
		<path fill="#F9E450" d="M1644.982,1263.537c0,4.856-1.702,8.991-5.103,12.389c-3.401,3.396-7.53,5.101-12.387,5.101
			c-4.86,0-8.988-1.703-12.387-5.101c-3.406-3.396-5.102-7.531-5.102-12.389v-120.093l-18.366,36.146
			c-1.554,4.275-4.371,7.389-8.448,9.328c-2.334,1.164-4.766,1.75-7.286,1.75h-0.297h-0.29h-0.291h-0.29
			c-2.526,0-4.958-0.586-7.286-1.75c-4.082-1.939-6.9-5.053-8.455-9.328l-18.365-36.146v120.093c0,4.856-1.701,8.991-5.101,12.389
			c-3.397,3.396-7.532,5.101-12.388,5.101c-4.857,0-8.99-1.703-12.389-5.101c-3.398-3.396-5.101-7.531-5.101-12.389v-192.961v-0.872
			v-0.876v-0.29v-0.291c0-0.194,0.044-0.294,0.147-0.294c0.097,0,0.146-0.094,0.146-0.292v-0.29v-0.581
			c0-0.193,0.047-0.34,0.145-0.438c0.097-0.098,0.146-0.243,0.146-0.438c0.188-1.166,0.58-2.23,1.167-3.204
			c0-0.194,0.046-0.292,0.144-0.292c0.097,0,0.146-0.096,0.146-0.292l0.291-0.293l0.29-0.29c0-0.191,0.097-0.387,0.29-0.58v-0.294
			l0.586-0.583c0.389-0.388,0.729-0.773,1.021-1.168c0.291-0.388,0.625-0.772,1.019-1.165l0.588-0.581h0.288
			c0-0.191,0.048-0.292,0.144-0.292c0.099,0,0.147-0.098,0.147-0.29h0.29c0.194-0.193,0.389-0.292,0.587-0.292
			c0-0.189,0.093-0.294,0.289-0.294l0.292-0.291l0.58-0.289c0.193-0.193,0.388-0.292,0.587-0.292l0.29-0.294
			c0.192,0,0.389-0.094,0.581-0.291c0.194,0,0.343-0.046,0.438-0.145c0.097-0.098,0.246-0.146,0.438-0.146
			c0.193,0,0.336-0.046,0.438-0.146c0.098-0.093,0.238-0.146,0.438-0.146c0.188,0,0.388-0.096,0.58-0.288h0.291h0.586l0.291-0.293
			h0.289h0.58h0.297c0.188-0.19,0.387-0.295,0.58-0.295h0.291h0.877h0.871h0.877h0.579h0.298c0.188,0,0.386,0.104,0.579,0.295h0.582
			h0.296h0.581c0.772,0.39,1.457,0.636,2.037,0.729c0.586,0.1,1.168,0.343,1.752,0.728h0.291c0,0.197,0.189,0.294,0.582,0.294
			c0,0.194,0.097,0.292,0.289,0.292l0.296,0.289c0.188,0,0.389,0.104,0.582,0.291l0.579,0.586h0.298
			c0.967,0.582,1.748,1.36,2.327,2.328l0.587,0.586l0.579,0.582c0,0.196,0.047,0.29,0.148,0.29c0.092,0,0.143,0.103,0.143,0.293
			l0.291,0.294l0.295,0.289c0,0.193,0.092,0.395,0.291,0.581c0,0.199,0.046,0.341,0.144,0.438c0.096,0.103,0.147,0.244,0.147,0.438
			l36.726,71.993l36.725-71.993c0-0.388,0.097-0.678,0.298-0.877c0.188-0.188,0.291-0.388,0.291-0.581
			c0.188,0,0.288-0.096,0.288-0.289l0.291-0.294c0-0.19,0.097-0.387,0.289-0.583l0.588-0.582l0.58-0.586
			c0.586-0.968,1.361-1.746,2.334-2.328l0.581-0.586h0.29c0.193-0.188,0.388-0.291,0.586-0.291l0.291-0.289
			c0.193,0,0.29-0.098,0.29-0.292c0.389,0,0.588-0.097,0.588-0.294h0.288c0.39-0.385,0.873-0.628,1.458-0.728
			c0.581-0.093,1.064-0.242,1.457-0.436c0.389,0,0.68-0.098,0.872-0.293h0.586h0.29h0.581c0-0.19,0.097-0.295,0.298-0.295h0.579
			h0.58h0.877h0.877h0.871c0.386,0,0.677,0.104,0.877,0.295h0.58h0.586l0.291,0.293h0.58h0.289l0.588,0.288
			c0.188,0,0.336,0.055,0.438,0.146c0.09,0.1,0.238,0.146,0.433,0.146s0.387,0.104,0.587,0.291h0.29
			c0.192,0.197,0.387,0.291,0.58,0.291v0.294c0.387,0,0.684,0.099,0.878,0.292c0.191,0.192,0.386,0.289,0.581,0.289l0.295,0.291
			l0.29,0.294c0.188,0,0.388,0.1,0.581,0.292l0.586,0.582c0.388,0,0.581,0.195,0.581,0.581c0.969,0.585,1.747,1.364,2.334,2.333
			l0.581,0.583v0.294c0.192,0.193,0.291,0.39,0.291,0.58c0.192,0,0.289,0.103,0.289,0.29l0.297,0.293c0,0.196,0.091,0.39,0.29,0.584
			c0.387,0.974,0.774,2.038,1.167,3.204c0,0.394,0.091,0.685,0.291,0.878v0.581v0.29c0,0.198,0.097,0.392,0.289,0.586v0.291v0.29
			v0.876v0.872v192.961H1644.982z"/>
		<path fill="#F9E450" d="M1777.165,1250.856c3.4,3.401,5.103,7.534,5.103,12.389c0,4.858-1.701,8.993-5.103,12.389
			s-7.53,5.103-12.387,5.103h-71.412c-4.861,0-8.988-1.707-12.389-5.103c-3.404-3.396-5.1-7.529-5.1-12.389v-192.96
			c0-4.855,1.694-8.982,5.1-12.388c3.4-3.398,7.525-5.103,12.389-5.103h71.412c4.855,0,8.984,1.703,12.387,5.103
			c3.4,3.404,5.103,7.531,5.103,12.388c0,5.055-1.701,9.233-5.103,12.535c-3.401,3.306-7.53,4.952-12.387,4.952h-53.923v73.453
			h37.306c4.855,0,8.989,1.705,12.389,5.103c3.397,3.401,5.101,7.534,5.101,12.388c0,4.859-1.702,8.993-5.101,12.387
			c-3.398,3.403-7.532,5.103-12.389,5.103h-37.306v49.553h53.923C1769.635,1245.756,1773.764,1247.46,1777.165,1250.856z"/>
		<path fill="#F9E450" d="M1919.406,1058.335c3.398,3.308,5.102,7.479,5.102,12.533c0,4.858-1.702,8.991-5.102,12.388
			c-3.397,3.401-7.532,5.101-12.388,5.101h-27.105v174.888c0,4.858-1.707,8.992-5.101,12.389c-3.404,3.395-7.537,5.102-12.388,5.102
			c-4.861,0-8.995-1.707-12.389-5.102c-3.403-3.396-5.102-7.529-5.102-12.389v-174.888h-27.689c-4.86,0-8.994-1.698-12.389-5.101
			c-3.404-3.396-5.102-7.528-5.102-12.388c0-5.054,1.697-9.227,5.102-12.533c3.395-3.303,7.527-4.955,12.389-4.955h89.772
			C1911.874,1053.38,1916.008,1055.033,1919.406,1058.335z"/>
		<path fill="#F9E450" d="M2045.612,1250.856c3.398,3.401,5.102,7.534,5.102,12.389c0,4.858-1.702,8.993-5.102,12.389
			c-3.397,3.396-7.531,5.103-12.388,5.103h-71.412c-4.856,0-8.989-1.707-12.389-5.103c-3.398-3.396-5.101-7.529-5.101-12.389
			v-192.96c0-4.855,1.701-8.982,5.101-12.388c3.398-3.398,7.53-5.103,12.389-5.103h71.412c4.854,0,8.989,1.703,12.388,5.103
			c3.398,3.404,5.102,7.531,5.102,12.388c0,5.055-1.702,9.233-5.102,12.535c-3.397,3.306-7.531,4.952-12.388,4.952h-53.924v73.453
			h37.312c4.855,0,8.983,1.705,12.387,5.103c3.398,3.401,5.103,7.534,5.103,12.388c0,4.859-1.703,8.993-5.103,12.387
			c-3.402,3.403-7.53,5.103-12.387,5.103h-37.312v49.553h53.924C2038.081,1245.756,2042.214,1247.46,2045.612,1250.856z"/>
		<path fill="#F9E450" d="M2196.743,1256.25c2.136,4.469,2.283,8.937,0.438,13.407c-1.851,4.471-5.004,7.673-9.473,9.616
			c-2.334,0.972-4.662,1.459-6.997,1.459c-3.309,0-6.411-0.927-9.325-2.771c-2.914-1.843-5.152-4.417-6.706-7.726l-32.354-74.033
			h-17.488v67.04c0,4.858-1.702,8.993-5.102,12.389c-3.404,3.396-7.531,5.103-12.388,5.103c-4.862,0-8.989-1.707-12.389-5.103
			c-3.404-3.396-5.102-7.529-5.102-12.389v-192.375c0-4.854,1.696-8.987,5.102-12.39c3.398-3.396,7.525-5.1,12.389-5.1h42.265
			c7.383,0,14.471,2.091,21.279,6.265c6.797,4.185,12.725,10.155,17.779,17.927c8.744,13.8,13.115,29.542,13.115,47.221
			c0,8.554-1.119,16.809-3.353,24.775c-2.238,7.97-5.494,15.352-9.764,22.152c-1.947,2.915-3.985,5.538-6.119,7.869
			c-2.142,2.334-4.282,4.475-6.416,6.412L2196.743,1256.25z M2139.615,1161.226c0.968,0,2.282-0.628,3.934-1.893
			c1.65-1.264,3.548-3.449,5.688-6.559c2.522-3.889,4.418-8.262,5.683-13.117c1.265-4.854,1.896-9.812,1.896-14.866
			c0-5.052-0.631-10.057-1.896-15.009c-1.265-4.958-3.159-9.377-5.683-13.265c-2.14-2.916-4.036-4.998-5.688-6.27
			c-1.65-1.258-2.966-1.893-3.934-1.893h-24.775v72.869L2139.615,1161.226L2139.615,1161.226z"/>
		<path fill="#F9E450" d="M2319.163,1174.049c11.468,14.387,17.199,31.192,17.199,50.429c0,6.023-0.631,11.418-1.896,16.179
			c-1.265,4.762-2.818,8.99-4.662,12.681c-1.851,3.692-3.935,6.897-6.269,9.615c-2.334,2.727-4.662,5.054-6.996,6.995
			c-10.885,8.744-24.099,13.116-39.641,13.116c-7.577,0-14.678-1.069-21.28-3.204c-6.604-2.142-12.435-5.438-17.489-9.912
			c-2.141-1.747-4.326-3.979-6.557-6.703c-2.232-2.717-4.277-5.923-6.121-9.618c-1.852-3.689-3.354-7.964-4.516-12.825
			c-1.166-4.857-1.754-10.393-1.754-16.611c0-4.855,1.702-8.988,5.102-12.39c3.398-3.396,7.532-5.102,12.388-5.102
			c5.056,0,9.229,1.704,12.537,5.102c3.302,3.4,4.952,7.533,4.952,12.39c0,2.722,0.245,5.489,0.729,8.306
			c0.484,2.817,1.504,5.391,3.063,7.727c1.554,2.327,3.837,4.225,6.849,5.681c3.012,1.459,7.043,2.188,12.099,2.188
			c3.493,0,6.752-0.438,9.763-1.311c3.013-0.877,5.585-2.187,7.727-3.938c4.662-4.08,6.996-10.199,6.996-18.361
			c0-6.022-0.779-11.268-2.334-15.74c-1.556-4.469-3.836-8.598-6.85-12.39c-3.018-3.788-6.706-7.384-11.077-10.781
			c-4.374-3.398-9.28-7.043-14.717-10.933c-5.055-3.5-10.06-7.145-15.012-10.93c-4.954-3.791-9.576-8.112-13.847-12.975
			c-5.057-6.218-8.893-12.678-11.512-19.381c-2.625-6.703-3.939-14.037-3.939-22.007c0-1.167,0.046-3.303,0.148-6.414
			c0.096-3.104,0.58-6.702,1.457-10.782c0.877-4.083,2.334-8.354,4.372-12.828c2.038-4.465,4.999-8.743,8.893-12.823
			c3.303-3.688,8.256-7.286,14.864-10.785c6.604-3.495,15.155-5.246,25.646-5.246c10.686,0,19.191,1.799,25.504,5.396
			c6.314,3.598,11.125,7.24,14.434,10.931c3.688,4.47,6.455,9.179,8.306,14.136c1.845,4.951,3.062,9.523,3.644,13.697
			c0.58,4.184,0.775,7.827,0.58,10.932c-0.191,3.112-0.388,4.957-0.58,5.538c-0.581,3.497-1.749,6.413-3.495,8.743
			c-1.561,2.143-3.645,3.937-6.269,5.392c-2.624,1.459-6.171,1.707-10.641,0.729c-4.274-0.772-7.436-2.185-9.473-4.223
			c-2.037-2.042-3.404-4.182-4.082-6.414c-0.684-2.232-0.974-4.228-0.871-5.976c0.092-1.748,0.142-2.814,0.142-3.204
			c0.194-0.775,0.291-1.845,0.291-3.209c0-1.356-0.142-2.815-0.433-4.371c-0.297-1.552-0.729-3.105-1.315-4.666
			c-0.58-1.552-1.36-2.914-2.327-4.079c-2.334-2.915-6.809-4.371-13.413-4.371c-5.243,0-8.887,0.683-10.93,2.041
			c-2.037,1.358-3.348,2.33-3.937,2.914c-1.358,1.359-2.379,2.915-3.057,4.663c-0.682,1.748-1.219,3.498-1.604,5.248
			c-0.394,1.747-0.633,3.257-0.729,4.516c-0.102,1.269-0.146,2.186-0.146,2.771v0.581v0.584c0,3.891,0.682,7.432,2.043,10.637
			c1.354,3.207,3.25,6.223,5.682,9.037c2.431,2.822,5.488,5.64,9.184,8.453c3.688,2.818,7.867,5.88,12.534,9.181
			c5.438,3.888,11.021,8.067,16.761,12.535C2309.009,1163.074,2314.303,1168.221,2319.163,1174.049z"/>
		<path fill="#F9E450" d="M876.218,1464.949c4.082,26.812-4.372,61.5-25.355,104.055c-3.693,7.58-7.39,14.625-11.079,21.131
			c-3.693,6.514-6.995,12.201-9.909,17.055c-2.916,4.859-5.296,8.699-7.142,11.518c-1.85,2.816-2.868,4.324-3.062,4.516
			c-1.747,2.529-3.935,4.418-6.559,5.684c-2.619,1.264-5.294,1.896-8.015,1.896c-3.69,0-6.992-1.07-9.906-3.207
			c-3.895-2.719-6.269-6.461-7.146-11.225c-0.869-4.762,0.046-9.08,2.772-12.971c3.496-5.25,6.604-10.146,9.325-14.721
			c2.722-4.561,5.778-9.857,9.184-15.885c3.398-6.023,6.849-12.535,10.344-19.527c4.082-8.162,7.584-16.031,10.498-23.611
			c-3.309,0.977-6.759,1.75-10.351,2.334c-3.598,0.582-7.435,0.875-11.51,0.875h-0.297c-6.804,0-12.82-0.684-18.068-2.041
			c-5.251-1.355-9.914-3.156-13.994-5.395c-4.077-2.229-7.577-4.662-10.493-7.287c-2.914-2.625-5.345-5.195-7.285-7.725
			c-4.083-5.051-6.849-9.861-8.309-14.426c-1.456-4.564-2.281-7.533-2.476-8.893c-1.167-5.438-1.701-10.93-1.604-16.471
			c0.102-5.535,0.729-11.023,1.896-16.465c2.722-12.242,7.771-22.736,15.154-31.48c5.637-6.412,12.537-11.467,20.698-15.158
			c8.745-3.688,18.069-5.051,27.98-4.078c18.069,1.164,32.354,6.701,42.846,16.613c10.687,9.717,17.877,24.484,21.57,44.305
			L876.218,1464.949z M836.288,1485.932c1.555-1.746,2.813-3.443,3.786-5.1c0.974-1.646,1.65-2.961,2.043-3.936
			c0-0.969-0.051-2.035-0.146-3.203c-0.098-1.168-0.246-2.232-0.439-3.205c-1.16-6.418-2.721-11.66-4.662-15.742
			c-1.94-4.082-4.225-7.287-6.848-9.621c-2.625-2.328-5.637-3.979-9.037-4.951c-3.401-0.973-7.336-1.652-11.807-2.041
			c-8.357-0.584-15.059,1.943-20.112,7.578c-3.497,3.889-5.927,9.086-7.288,15.594c-1.358,6.514-1.456,12.875-0.289,19.092
			l0.289,0.293c0,0.389,0.344,1.506,1.025,3.352c0.678,1.846,1.89,3.742,3.644,5.684c4.663,5.441,11.751,8.16,21.274,8.16
			C820.154,1497.5,829.679,1493.514,836.288,1485.932z"/>
		<path fill="#F9E450" d="M996.597,1575.127c0.191,0.977,0.191,1.848,0,2.623v1.455c-0.776,13.41-4.663,24.389-11.659,32.939
			c-8.551,10.885-20.695,17.586-36.437,20.113c-3.688,0.773-8.061,1.166-13.115,1.166h-1.458h-1.162
			c-4.08,0-8.162-0.295-12.244-0.875c-16.322-2.723-28.858-9.52-37.604-20.404c-7.77-10.102-11.657-23.318-11.657-39.641
			c0-28.756,6.803-50.035,20.402-63.834l0.587-0.584c-3.889-4.854-6.899-10.979-9.034-18.361c-0.979-4.084-1.755-8.646-2.334-13.699
			c-0.581-5.055-0.877-10.885-0.877-17.49v-2.33c0-1.941,0.045-4.471,0.147-7.578c0.098-3.109,0.581-6.51,1.457-10.203
			c0.877-3.688,2.135-7.479,3.792-11.367c1.646-3.885,4.03-7.576,7.14-11.076c3.303-3.691,8.162-7.334,14.574-10.934
			c6.408-3.594,14.96-5.391,25.65-5.391h1.162h1.458c10.685,0,19.19,1.797,25.505,5.391c6.312,3.6,11.123,7.24,14.432,10.934
			c3.103,3.5,5.538,7.191,7.286,11.076c1.748,3.889,3.058,7.68,3.935,11.367c0.875,3.693,1.355,7.094,1.457,10.203
			c0.098,3.107,0.148,5.637,0.148,7.578c0,1.166-0.104,1.943-0.297,2.33c0,6.605-0.246,12.436-0.729,17.49
			c-0.484,5.053-1.31,9.615-2.478,13.699c-2.141,7.385-5.056,13.51-8.744,18.361l0.586,0.584
			c13.408,13.604,20.108,34.881,20.108,63.834v2.623H996.597z M961.617,1572.504c0-19.041-3.397-32.256-10.2-39.641
			c-3.89-3.887-9.718-6.414-17.488-7.58c-7.971,1.166-13.697,3.693-17.193,7.58c-6.995,7.385-10.497,20.6-10.497,39.641v1.166
			c0.194,0.775,0.587,2.527,1.167,5.246c0.587,2.723,1.846,5.539,3.792,8.453c3.688,6.023,9.034,9.619,16.032,10.781
			c0.965,0,2.037,0.053,3.203,0.15c1.168,0.098,2.334,0.145,3.496,0.145c1.36,0,2.67-0.047,3.938-0.145
			c1.259-0.098,2.374-0.244,3.349-0.439c7.188-1.166,12.633-4.76,16.326-10.781c1.355-2.336,2.329-4.617,2.916-6.852
			c0.579-2.232,0.967-3.834,1.159-4.809V1572.504z M914.981,1459.992c0,5.246,0.245,9.523,0.729,12.824
			c0.481,3.307,0.973,5.932,1.457,7.873c0.483,1.941,0.973,3.352,1.457,4.225c0.483,0.877,0.825,1.412,1.024,1.605
			c1.161,0.973,3.104,1.598,5.829,1.893c2.714,0.293,5.532,0.539,8.448,0.729c3.107-0.188,6.021-0.436,8.744-0.729
			c2.723-0.295,4.565-0.92,5.54-1.893c0.191-0.193,0.585-0.729,1.167-1.605c0.581-0.873,1.115-2.377,1.604-4.518
			c0.479-2.139,0.917-5.002,1.312-8.6c0.386-3.592,0.581-8.205,0.581-13.844c0-0.391,0.096-0.682,0.295-0.875v-1.457h-0.295
			l0.295-0.293c-0.199-1.939-0.637-4.516-1.314-7.727c-0.684-3.207-2.09-5.873-4.225-8.016c-0.586-0.582-1.851-1.502-3.791-2.768
			c-1.941-1.262-5.243-1.99-9.912-2.186c-4.469,0.195-7.674,0.924-9.615,2.186c-1.946,1.266-3.205,2.186-3.791,2.768
			c-2.14,2.143-3.6,4.809-4.373,8.016c-0.778,3.213-1.167,5.785-1.167,7.727v0.293
			C915.176,1457.178,915.176,1458.635,914.981,1459.992z"/>
		<path fill="#F9E450" d="M1174.694,1402.861c5.049,0,9.224,1.705,12.53,5.1c3.303,3.406,4.959,7.535,4.959,12.389v192.963
			c0,4.855-1.656,8.988-4.959,12.389c-3.308,3.395-7.481,5.102-12.53,5.102c-4.861,0-8.995-1.705-12.388-5.102
			c-3.404-3.398-5.103-7.531-5.103-12.389V1420.35c0-4.854,1.697-8.98,5.103-12.389
			C1165.699,1404.566,1169.831,1402.861,1174.694,1402.861z"/>
		<path fill="#F9E450" d="M1326.548,1402.861c4.854,0,8.988,1.705,12.388,5.1c3.397,3.406,5.103,7.535,5.103,12.389v192.67v1.162
			v0.877v0.291v0.584l-0.291,0.293v0.291v0.58v0.295c-0.193,0.195-0.291,0.391-0.291,0.582v0.291c0,0.195-0.052,0.289-0.146,0.289
			c-0.098,0-0.143,0.105-0.143,0.293c0,0.197-0.054,0.342-0.148,0.438c-0.103,0.104-0.147,0.248-0.147,0.438
			c0,0.195-0.046,0.342-0.143,0.439c-0.103,0.1-0.148,0.246-0.148,0.438c0,0.193-0.052,0.291-0.143,0.291
			c-0.103,0-0.146,0.102-0.146,0.291v0.289c-0.193,0-0.291,0.104-0.291,0.293l-0.289,0.293c0,0.193-0.104,0.391-0.297,0.58
			l-0.291,0.291v0.293c-0.193,0-0.289,0.1-0.289,0.293s-0.104,0.291-0.291,0.291c0,0.193-0.051,0.291-0.148,0.291
			c-0.097,0-0.143,0.1-0.143,0.289h-0.295c0,0.199-0.099,0.395-0.291,0.586l-0.58,0.582l-0.588,0.582l-0.58,0.586h-0.289
			l-0.588,0.578c-0.193,0.195-0.387,0.295-0.58,0.295c0,0.191-0.102,0.293-0.289,0.293l-0.291,0.289c-0.2,0-0.297,0.047-0.297,0.146
			c0,0.094-0.097,0.145-0.29,0.145h-0.29l-0.58,0.584c-0.78,0.387-1.459,0.68-2.044,0.873c-0.582,0.193-1.359,0.389-2.329,0.586
			c-0.778,0.189-1.946,0.291-3.501,0.291c-1.167,0-2.037-0.102-2.624-0.291h-0.582h-0.288c-0.2,0-0.291-0.102-0.291-0.297h-1.166
			v-0.289h-0.589c-0.772-0.393-1.263-0.58-1.457-0.58c-0.192,0-0.288-0.104-0.288-0.293h-0.291c-0.193,0-0.291-0.1-0.291-0.293
			c-0.199,0-0.393-0.096-0.587-0.291c-0.192,0-0.29-0.102-0.29-0.291h-0.291c-0.191,0-0.29-0.051-0.29-0.145
			c0-0.1-0.103-0.145-0.291-0.145c-2.141-1.557-3.893-3.396-5.248-5.539v-0.291c-0.193,0-0.291-0.096-0.291-0.293l-0.288-0.293
			v-0.287c-0.199-0.191-0.298-0.391-0.298-0.582c0-0.193-0.096-0.389-0.29-0.588l-49.842-115.135v108.436
			c0,4.854-1.702,8.986-5.101,12.387c-3.404,3.395-7.531,5.102-12.39,5.102c-4.86,0-8.987-1.705-12.388-5.102
			c-3.404-3.398-5.101-7.531-5.101-12.387v-192.672v-1.162v-0.877v-0.289v-0.584l0.29-0.293v-0.291v-0.58v-0.293
			c0.192-0.191,0.29-0.391,0.29-0.584v-0.291c0-0.193,0.046-0.291,0.147-0.291c0.097,0,0.148-0.096,0.148-0.293
			c0-0.189,0.045-0.338,0.141-0.438c0.099-0.096,0.15-0.244,0.15-0.438s0.045-0.336,0.141-0.438c0.099-0.098,0.148-0.24,0.148-0.439
			c0-0.188,0.045-0.289,0.147-0.289c0.091,0,0.143-0.096,0.143-0.291v-0.291l0.587-0.586c0-0.188,0.045-0.291,0.143-0.291
			s0.147-0.098,0.147-0.289l0.291-0.291v-0.295c0.191-0.189,0.289-0.385,0.289-0.58h0.291c0-0.193,0.045-0.293,0.146-0.293
			c0.098,0,0.148-0.098,0.148-0.289h0.291c0-0.193,0.096-0.387,0.291-0.586l0.579-0.58v-0.293c0.193,0,0.388-0.096,0.587-0.293
			v-0.291c0.188,0,0.388-0.094,0.579-0.291h0.291l0.587-0.58l0.58-0.588h0.291c0-0.188,0.098-0.291,0.297-0.291
			c0.188,0,0.289-0.045,0.289-0.143c0-0.096,0.099-0.146,0.291-0.146h0.289l0.588-0.584c1.354-0.771,2.715-1.26,4.076-1.457h0.295
			c0.969-0.189,2.426-0.293,4.373-0.293h0.871h0.291l0.297,0.293h0.58h0.288h0.589c0,0.197,0.09,0.293,0.288,0.293h0.58h0.291
			c0,0.193,0.193,0.289,0.586,0.289c0.188,0.195,0.484,0.291,0.871,0.291c0.193,0.197,0.388,0.291,0.587,0.291h0.29
			c0,0.199,0.193,0.293,0.58,0.293v0.293c0.39,0,0.587,0.096,0.587,0.291h0.291c0.192,0,0.29,0.051,0.29,0.146
			c0,0.098,0.099,0.143,0.291,0.143l0.296,0.291l0.291,0.295l0.289,0.293h0.291c0.192,0.191,0.387,0.287,0.586,0.287v0.293
			c0.188,0,0.291,0.049,0.291,0.146s0.097,0.145,0.289,0.145v0.291c0.194,0,0.291,0.049,0.291,0.146
			c0,0.102,0.098,0.146,0.291,0.146v0.293l0.587,0.58l0.579,0.586l0.587,0.582c0,0.195,0.092,0.391,0.291,0.58
			c0.188,0,0.288,0.102,0.288,0.295c0,0.195,0.1,0.291,0.293,0.291c0,0.393,0.096,0.58,0.288,0.58v0.293
			c0.194,0.197,0.298,0.389,0.298,0.584h0.289c0,0.393,0.047,0.633,0.144,0.729c0.097,0.1,0.146,0.244,0.146,0.439l49.843,115.133
			V1420.35c0-4.855,1.703-8.982,5.102-12.391C1317.559,1404.566,1321.691,1402.861,1326.548,1402.861z"/>
		<path fill="#F9E450" d="M1485.694,1572.213c0,0.582-0.052,2.479-0.147,5.684c-0.097,3.205-0.581,6.996-1.457,11.369
			c-0.872,4.371-2.38,9.086-4.516,14.135c-2.141,5.055-5.25,9.719-9.329,13.992c-3.304,3.691-8.211,7.285-14.718,10.783
			c-6.513,3.496-14.916,5.248-25.215,5.248c-10.304,0-18.608-1.752-24.924-5.248c-6.312-3.498-11.123-7.092-14.425-10.783
			c-3.891-4.273-6.899-8.84-9.034-13.701c-2.142-4.857-3.646-9.473-4.521-13.846c-0.87-4.371-1.309-8.254-1.309-11.658
			c0-3.4,0-5.779,0-7.139v-111.93c0-11.855,1.94-21.326,5.83-28.422c3.883-7.092,7.866-12.578,11.948-16.469
			c4.855-4.469,10.396-7.914,16.611-10.348c6.217-2.43,12.729-3.645,19.533-3.645c6.602,0,13.26,1.166,19.965,3.498
			c6.706,2.334,12.679,5.93,17.926,10.783c5.244,4.863,9.521,10.982,12.826,18.365c3.303,7.387,4.954,16.131,4.954,26.232
			c0,5.057-1.702,9.23-5.101,12.531c-3.406,3.309-7.532,4.957-12.389,4.957c-4.861,0-8.988-1.648-12.39-4.957
			c-3.403-3.301-5.101-7.477-5.101-12.531c0-5.25-0.729-9.422-2.187-12.535c-1.457-3.104-3.205-5.488-5.247-7.141
			c-2.04-1.648-4.276-2.77-6.701-3.354c-2.432-0.58-4.616-0.873-6.559-0.873c-1.361,0-3.113,0.248-5.25,0.729
			c-2.14,0.488-4.223,1.559-6.268,3.207c-2.037,1.652-3.785,4.035-5.244,7.141c-1.457,3.111-2.187,7.391-2.187,12.826v112.51v1.459
			c0,0.973,0,2.289,0,3.934c0,1.656,0.188,3.5,0.582,5.539c0.387,2.041,0.974,4.084,1.746,6.121
			c0.775,2.043,1.847,3.746,3.211,5.102c0.58,0.584,1.847,1.508,3.787,2.771c1.941,1.262,5.248,1.893,9.91,1.893
			c5.051,0,8.551-0.629,10.492-1.893c1.94-1.264,3.205-2.285,3.793-3.062c2.715-2.719,4.417-6.121,5.1-10.203
			c0.679-4.082,1.02-7.09,1.02-9.033c0-0.195,0-1.264,0-3.205s0.483-4.031,1.458-6.27c0.968-2.232,2.574-4.32,4.811-6.268
			c2.232-1.943,5.488-3.012,9.764-3.205c4.47-0.193,7.913,0.58,10.352,2.332c2.424,1.748,4.321,3.691,5.68,5.828
			C1484.334,1565.994,1485.303,1568.91,1485.694,1572.213z"/>
		<path fill="#F9E450" d="M1615.107,1402.861c4.854,0,8.988,1.705,12.388,5.1c3.397,3.406,5.102,7.535,5.102,12.389v192.963
			c0,4.855-1.703,8.988-5.102,12.389c-3.398,3.395-7.531,5.102-12.388,5.102s-8.989-1.705-12.389-5.102
			c-3.399-3.398-5.101-7.531-5.101-12.389v-67.039h-45.473v67.039c0,4.855-1.7,8.988-5.1,12.389
			c-3.399,3.395-7.531,5.102-12.39,5.102c-4.854,0-8.987-1.705-12.387-5.102c-3.397-3.398-5.103-7.531-5.103-12.389V1420.35
			c0-4.854,1.703-8.98,5.103-12.389c3.397-3.395,7.531-5.1,12.387-5.1c4.857,0,8.989,1.705,12.39,5.1
			c3.398,3.406,5.1,7.535,5.1,12.389v90.943h45.473v-90.943c0-4.854,1.7-8.98,5.101-12.389
			C1606.118,1404.566,1610.249,1402.861,1615.107,1402.861z"/>
		<path fill="#F9E450" d="M1768.57,1600.631c3.398,3.402,5.103,7.535,5.103,12.389c0,4.857-1.703,8.99-5.103,12.387
			s-7.53,5.104-12.387,5.104h-71.412c-4.856,0-8.989-1.707-12.389-5.104s-5.101-7.529-5.101-12.387v-192.959
			c0-4.857,1.701-8.984,5.101-12.389c3.397-3.4,7.53-5.104,12.389-5.104h71.412c4.854,0,8.988,1.701,12.387,5.104
			c3.398,3.404,5.103,7.531,5.103,12.389c0,5.055-1.703,9.232-5.103,12.535c-3.397,3.305-7.53,4.953-12.387,4.953h-53.924v73.453
			h37.312c4.856,0,8.983,1.705,12.389,5.1c3.397,3.402,5.102,7.535,5.102,12.389c0,4.859-1.703,8.994-5.102,12.387
			c-3.404,3.404-7.531,5.102-12.389,5.102h-37.312v49.553h53.924C1761.038,1595.529,1765.172,1597.234,1768.57,1600.631z"/>
		<path fill="#F9E450" d="M1899.008,1523.824c11.465,14.387,17.198,31.193,17.198,50.43c0,6.021-0.633,11.418-1.896,16.176
			c-1.263,4.762-2.816,8.992-4.661,12.684c-1.852,3.689-3.935,6.896-6.27,9.613c-2.333,2.729-4.662,5.057-6.996,6.996
			c-10.886,8.744-24.099,13.117-39.64,13.117c-7.577,0-14.678-1.07-21.28-3.205c-6.604-2.141-12.435-5.438-17.488-9.912
			c-2.142-1.748-4.326-3.979-6.56-6.703c-2.229-2.719-4.274-5.924-6.119-9.619c-1.852-3.688-3.354-7.965-4.514-12.824
			c-1.168-4.855-1.754-10.395-1.754-16.611c0-4.855,1.702-8.988,5.102-12.389c3.397-3.398,7.531-5.104,12.388-5.104
			c5.055,0,9.228,1.703,12.535,5.104c3.303,3.398,4.952,7.531,4.952,12.389c0,2.723,0.246,5.49,0.729,8.305
			c0.483,2.818,1.504,5.393,3.062,7.727c1.556,2.328,3.838,4.225,6.851,5.68c3.011,1.459,7.041,2.189,12.097,2.189
			c3.497,0,6.753-0.439,9.764-1.311c3.012-0.879,5.586-2.188,7.726-3.938c4.663-4.08,6.997-10.201,6.997-18.361
			c0-6.021-0.779-11.268-2.334-15.742c-1.554-4.469-3.837-8.596-6.848-12.387c-3.019-3.789-6.708-7.385-11.079-10.785
			c-4.372-3.395-9.28-7.041-14.718-10.93c-5.056-3.5-10.06-7.145-15.013-10.93c-4.952-3.791-9.573-8.113-13.844-12.973
			c-5.058-6.219-8.894-12.678-11.512-19.383c-2.625-6.703-3.939-14.035-3.939-22.006c0-1.166,0.046-3.303,0.147-6.414
			c0.098-3.105,0.581-6.703,1.458-10.783c0.877-4.084,2.334-8.354,4.372-12.828c2.037-4.465,4.998-8.744,8.893-12.822
			c3.302-3.689,8.254-7.287,14.864-10.787c6.604-3.494,15.153-5.246,25.646-5.246c10.687,0,19.19,1.801,25.505,5.396
			c6.313,3.598,11.124,7.24,14.431,10.93c3.689,4.469,6.457,9.18,8.308,14.135c1.844,4.953,3.062,9.523,3.645,13.697
			c0.58,4.186,0.773,7.828,0.58,10.932c-0.194,3.111-0.389,4.957-0.58,5.539c-0.581,3.498-1.748,6.412-3.497,8.744
			c-1.56,2.141-3.644,3.934-6.268,5.391c-2.625,1.459-6.171,1.707-10.641,0.73c-4.275-0.773-7.436-2.188-9.474-4.227
			s-3.403-4.18-4.081-6.412c-0.684-2.23-0.975-4.227-0.872-5.975c0.091-1.748,0.144-2.812,0.144-3.205
			c0.191-0.773,0.289-1.844,0.289-3.209c0-1.354-0.143-2.812-0.433-4.371c-0.296-1.553-0.729-3.104-1.315-4.666
			c-0.58-1.551-1.358-2.914-2.327-4.08c-2.334-2.912-6.81-4.369-13.412-4.369c-5.242,0-8.888,0.684-10.931,2.041
			c-2.039,1.357-3.35,2.328-3.935,2.916c-1.36,1.355-2.38,2.912-3.057,4.66c-0.685,1.746-1.218,3.498-1.606,5.248
			c-0.393,1.748-0.631,3.258-0.728,4.518c-0.104,1.268-0.149,2.186-0.149,2.77v0.582v0.582c0,3.893,0.686,7.436,2.045,10.639
			c1.354,3.209,3.25,6.223,5.682,9.037c2.431,2.82,5.487,5.641,9.183,8.451c3.688,2.82,7.868,5.881,12.537,9.184
			c5.436,3.889,11.021,8.066,16.758,12.535C1888.852,1512.85,1894.145,1517.994,1899.008,1523.824z"/>
		<path fill="#F9E450" d="M891.788,1819.375c2.288,2.291,3.437,5.074,3.437,8.344c0,3.275-1.147,6.061-3.437,8.346
			c-2.289,2.291-5.073,3.438-8.345,3.438h-4.318l2.159,3.729c1.698,2.75,2.125,5.695,1.277,8.836
			c-0.855,3.141-2.719,5.566-5.596,7.266c-1.837,1.047-3.801,1.568-5.889,1.568c-1.966,0-3.897-0.521-5.795-1.568
			c-1.898-1.047-3.371-2.484-4.418-4.322l-1.963-3.729l-2.158,3.729c-1.052,1.838-2.488,3.275-4.319,4.322
			c-1.835,1.047-3.798,1.568-5.888,1.568c-2.1,0-4.062-0.521-5.892-1.568c-2.883-1.699-4.746-4.09-5.6-7.166
			c-0.851-3.076-0.424-6.055,1.276-8.936l2.16-3.729h-4.318c-3.274,0-6.055-1.146-8.344-3.438c-2.288-2.287-3.437-5.068-3.437-8.346
			c0-3.27,1.147-6.053,3.437-8.344c2.289-2.287,5.068-3.434,8.344-3.434h4.124l-1.965-3.535c-1.701-2.877-2.127-5.889-1.277-9.029
			c0.854-3.143,2.654-5.5,5.399-7.068c2.881-1.703,5.892-2.127,9.035-1.273c3.141,0.85,5.493,2.717,7.066,5.594l2.158,3.533
			l2.159-3.533c1.571-2.877,3.927-4.744,7.066-5.594c3.146-0.854,6.149-0.492,9.033,1.074c2.746,1.703,4.543,4.125,5.399,7.27
			c0.849,3.141,0.49,6.086-1.081,8.834l-2.16,3.729h4.319C886.715,1815.941,889.499,1817.088,891.788,1819.375z"/>
		<path fill="#F9E450" d="M915.442,1790.219c3.401,0,6.217,1.15,8.444,3.438c2.225,2.293,3.336,5.074,3.336,8.344v129.975
			c0,3.27-1.111,6.055-3.336,8.344c-2.229,2.287-5.043,3.438-8.444,3.438c-3.273,0-6.054-1.15-8.343-3.438
			c-2.294-2.289-3.437-5.074-3.437-8.344V1802c0-3.27,1.143-6.051,3.437-8.344C909.389,1791.369,912.168,1790.219,915.442,1790.219z
			"/>
		<path fill="#F9E450" d="M1017.73,1790.219c3.267,0,6.051,1.15,8.344,3.438c2.285,2.293,3.437,5.074,3.437,8.344v129.775v0.783
			v0.592v0.195v0.393l-0.199,0.197v0.195v0.393v0.195c-0.131,0.135-0.195,0.264-0.195,0.395v0.193c0,0.135-0.034,0.197-0.096,0.197
			c-0.068,0-0.101,0.068-0.101,0.199s-0.034,0.229-0.101,0.291c-0.063,0.07-0.095,0.166-0.095,0.297s-0.035,0.229-0.102,0.293
			c-0.064,0.068-0.097,0.166-0.097,0.297s-0.032,0.197-0.1,0.197c-0.068,0-0.099,0.066-0.099,0.193v0.197
			c-0.13,0-0.196,0.068-0.196,0.197l-0.195,0.193c0,0.133-0.067,0.266-0.194,0.395l-0.195,0.195v0.195c-0.135,0-0.2,0.066-0.2,0.197
			s-0.062,0.195-0.193,0.195c0,0.131-0.035,0.195-0.096,0.195c-0.07,0-0.101,0.07-0.101,0.197h-0.194
			c0,0.133-0.07,0.264-0.196,0.395l-0.395,0.391l-0.393,0.395l-0.396,0.393h-0.193l-0.393,0.393
			c-0.135,0.129-0.264,0.195-0.395,0.195c0,0.131-0.065,0.199-0.195,0.199l-0.194,0.195c-0.131,0-0.196,0.031-0.196,0.098
			c0,0.064-0.068,0.1-0.194,0.1h-0.201l-0.391,0.391c-0.525,0.264-0.98,0.459-1.372,0.588c-0.396,0.135-0.921,0.266-1.572,0.396
			c-0.525,0.129-1.312,0.199-2.354,0.199c-0.785,0-1.377-0.07-1.769-0.199h-0.396h-0.193c-0.132,0-0.196-0.066-0.196-0.197h-0.785
			v-0.197h-0.392c-0.524-0.264-0.855-0.391-0.981-0.391c-0.135,0-0.195-0.068-0.195-0.197h-0.199c-0.129,0-0.194-0.066-0.194-0.197
			c-0.132,0-0.267-0.064-0.394-0.193c-0.133,0-0.192-0.068-0.192-0.197h-0.201c-0.131,0-0.196-0.033-0.196-0.1
			c0-0.064-0.062-0.096-0.193-0.096c-1.441-1.049-2.619-2.289-3.537-3.732v-0.195c-0.129,0-0.193-0.064-0.193-0.195l-0.195-0.197
			v-0.195c-0.132-0.127-0.195-0.262-0.195-0.393s-0.069-0.26-0.196-0.395l-33.575-77.551v73.039c0,3.268-1.146,6.053-3.436,8.342
			c-2.29,2.287-5.073,3.438-8.346,3.438c-3.27,0-6.053-1.148-8.344-3.438c-2.289-2.289-3.436-5.074-3.436-8.342v-129.777v-0.783
			v-0.592v-0.195v-0.393l0.198-0.197v-0.195v-0.391v-0.199c0.127-0.129,0.196-0.26,0.196-0.393v-0.195
			c0-0.131,0.03-0.197,0.098-0.197c0.063,0,0.1-0.064,0.1-0.195c0-0.129,0.031-0.23,0.098-0.293
			c0.062-0.066,0.099-0.166,0.099-0.297c0-0.129,0.028-0.227,0.099-0.295c0.064-0.064,0.097-0.162,0.097-0.295
			c0-0.127,0.03-0.195,0.101-0.195c0.063,0,0.098-0.066,0.098-0.195v-0.195l0.393-0.395c0-0.127,0.031-0.195,0.101-0.195
			c0.062,0,0.096-0.064,0.096-0.195l0.195-0.195v-0.197c0.131-0.129,0.198-0.262,0.198-0.393h0.196c0-0.129,0.032-0.197,0.095-0.197
			c0.065,0,0.103-0.064,0.103-0.195h0.195c0-0.131,0.064-0.26,0.194-0.395l0.396-0.391v-0.195c0.125,0,0.259-0.064,0.389-0.197
			v-0.197c0.131,0,0.261-0.064,0.396-0.197h0.193l0.393-0.391l0.395-0.395h0.195c0-0.127,0.064-0.195,0.195-0.195
			s0.196-0.031,0.196-0.1c0-0.062,0.064-0.098,0.195-0.098h0.199l0.391-0.395c0.912-0.521,1.832-0.848,2.75-0.98h0.195
			c0.651-0.129,1.633-0.197,2.944-0.197h0.59h0.195l0.196,0.197h0.39h0.2h0.392c0,0.135,0.065,0.197,0.195,0.197h0.395h0.197
			c0,0.131,0.125,0.195,0.389,0.195c0.133,0.131,0.328,0.195,0.593,0.195c0.127,0.133,0.262,0.197,0.391,0.197h0.195
			c0,0.133,0.132,0.195,0.396,0.195v0.199c0.262,0,0.392,0.062,0.392,0.195h0.194c0.131,0,0.199,0.031,0.199,0.096
			c0,0.068,0.061,0.1,0.195,0.1l0.194,0.195l0.196,0.197l0.196,0.197h0.198c0.127,0.131,0.261,0.193,0.392,0.193v0.195
			c0.129,0,0.194,0.035,0.194,0.102c0,0.064,0.065,0.098,0.196,0.098v0.197c0.13,0,0.199,0.031,0.199,0.098
			c0,0.068,0.062,0.1,0.194,0.1v0.195l0.391,0.391l0.396,0.395l0.391,0.395c0,0.131,0.066,0.264,0.195,0.393
			c0.131,0,0.195,0.066,0.195,0.197s0.065,0.195,0.2,0.195c0,0.264,0.062,0.391,0.195,0.391v0.199
			c0.127,0.131,0.194,0.262,0.194,0.393h0.196c0,0.264,0.03,0.424,0.099,0.49c0.065,0.066,0.097,0.164,0.097,0.297l33.574,77.551
			v-73.039c0-3.27,1.145-6.051,3.436-8.344C1011.672,1791.369,1014.456,1790.219,1017.73,1790.219z"/>
		<path fill="#F9E450" d="M1209.343,1799.645c2.749,2.619,5.431,6.316,8.054,11.094c2.615,4.779,3.926,11.158,3.926,19.145v74.209
			c0,7.986-1.311,14.367-3.926,19.143c-2.623,4.779-5.305,8.479-8.054,11.096c-6.938,6.279-15.114,9.426-24.54,9.426h-14.726
			h-10.797c-3.272,0-6.057-1.15-8.347-3.439s-3.436-5.072-3.436-8.342V1802c0-3.27,1.146-6.051,3.436-8.344
			c2.29-2.287,5.073-3.438,8.347-3.438h10.797h14.726C1194.229,1790.219,1202.406,1793.363,1209.343,1799.645z M1197.764,1829.883
			c0-3.666-0.492-6.547-1.474-8.645c-0.98-2.092-2.163-3.691-3.535-4.809c-1.372-1.111-2.814-1.832-4.317-2.162
			c-1.507-0.322-2.719-0.49-3.635-0.49h-13.744v106.414h13.744c0.916,0,2.128-0.166,3.635-0.492
			c1.503-0.324,2.945-1.047,4.317-2.158c1.371-1.109,2.555-2.717,3.535-4.812c0.98-2.092,1.474-4.975,1.474-8.639V1829.883z"/>
		<path fill="#F9E450" d="M1255.48,1790.219c3.4,0,6.217,1.15,8.443,3.438c2.225,2.293,3.338,5.074,3.338,8.344v129.975
			c0,3.27-1.113,6.055-3.338,8.344c-2.228,2.287-5.043,3.438-8.443,3.438c-3.274,0-6.055-1.15-8.344-3.438
			c-2.293-2.289-3.437-5.074-3.437-8.344V1802c0-3.27,1.144-6.051,3.437-8.344
			C1249.426,1791.369,1252.206,1790.219,1255.48,1790.219z"/>
		<path fill="#F9E450" d="M1358.354,1931.381c0.655,3.277,0.1,6.254-1.669,8.936c-1.768,2.68-4.286,4.348-7.557,5.004
			c-0.526,0.131-1.247,0.197-2.16,0.197c-2.748,0-5.203-0.883-7.361-2.65c-2.163-1.768-3.569-4.023-4.223-6.773l-4.122-20.023
			h-21.009l-4.123,20.023c-0.525,2.75-1.864,5.006-4.025,6.773c-2.159,1.768-4.613,2.65-7.362,2.65
			c-1.048,0-1.833-0.066-2.354-0.197c-3.275-0.656-5.792-2.324-7.559-5.004c-1.769-2.682-2.327-5.658-1.668-8.936l26.108-129.771
			v-0.195v-0.396c0-0.127,0.031-0.195,0.101-0.195c0.063,0,0.096-0.062,0.096-0.193v-0.195v-0.197
			c0.131-0.129,0.201-0.262,0.201-0.393c0-0.133,0.028-0.197,0.094-0.197c0.064,0,0.102-0.064,0.102-0.193v-0.199
			c0.392-1.045,0.981-1.963,1.769-2.746v-0.197c0.127,0,0.194-0.031,0.194-0.098s0.065-0.102,0.195-0.102v-0.195l0.195-0.195
			l0.194-0.195l0.199-0.197l0.195-0.197l0.195-0.195l0.393-0.195c0.785-0.785,1.702-1.373,2.749-1.77h0.194
			c0.13-0.127,0.262-0.195,0.396-0.195c0.651-0.26,1.242-0.424,1.768-0.488c0.521-0.064,1.107-0.162,1.765-0.295h0.199h0.392h0.391
			c0.655,0.133,1.243,0.229,1.767,0.295c0.523,0.064,1.113,0.229,1.77,0.488c0.13,0,0.261,0.068,0.392,0.195h0.199
			c1.043,0.396,1.963,0.982,2.746,1.77c0.13,0,0.26,0.066,0.396,0.195l0.194,0.195l0.195,0.197l0.196,0.197l0.199,0.195l0.193,0.195
			l0.197,0.195l0.193,0.199v0.195c0.787,0.783,1.377,1.701,1.77,2.746v0.199c0,0.129,0.031,0.193,0.1,0.193
			c0.062,0,0.096,0.066,0.096,0.197c0.263,0.785,0.396,1.375,0.396,1.768L1358.354,1931.381z M1320.856,1863.65l-5.89,28.857h11.584
			L1320.856,1863.65z"/>
		<path fill="#F9E450" d="M1465.745,1931.975c0,3.268-1.146,6.053-3.436,8.342c-2.293,2.287-5.073,3.438-8.344,3.438
			c-3.276,0-6.057-1.15-8.346-3.438c-2.293-2.289-3.436-5.074-3.436-8.342v-80.893l-12.371,24.346
			c-1.047,2.881-2.943,4.979-5.689,6.283c-1.571,0.783-3.209,1.18-4.907,1.18h-0.199h-0.194h-0.195h-0.196
			c-1.702,0-3.341-0.396-4.909-1.18c-2.75-1.307-4.646-3.402-5.692-6.283l-12.369-24.346v80.893c0,3.268-1.148,6.053-3.438,8.342
			c-2.289,2.287-5.072,3.438-8.344,3.438s-6.055-1.15-8.345-3.438c-2.288-2.289-3.436-5.074-3.436-8.342V1802v-0.586v-0.594v-0.193
			v-0.195c0-0.129,0.029-0.197,0.101-0.197c0.063,0,0.1-0.062,0.1-0.197v-0.195v-0.391c0-0.133,0.029-0.23,0.096-0.297
			c0.066-0.062,0.101-0.162,0.101-0.295c0.127-0.787,0.393-1.504,0.786-2.158c0-0.131,0.029-0.195,0.097-0.195
			c0.063,0,0.099-0.066,0.099-0.197l0.196-0.199l0.195-0.195c0-0.129,0.063-0.26,0.194-0.391v-0.197l0.396-0.393
			c0.26-0.262,0.491-0.523,0.686-0.787c0.197-0.262,0.423-0.521,0.688-0.783l0.396-0.395h0.194c0-0.127,0.031-0.195,0.098-0.195
			c0.064,0,0.101-0.064,0.101-0.195h0.192c0.133-0.131,0.262-0.197,0.396-0.197c0-0.129,0.061-0.197,0.194-0.197l0.195-0.195
			l0.393-0.193c0.13-0.133,0.261-0.195,0.395-0.195l0.196-0.199c0.129,0,0.26-0.062,0.391-0.195c0.131,0,0.23-0.033,0.295-0.096
			c0.064-0.066,0.166-0.102,0.295-0.102c0.13,0,0.228-0.029,0.296-0.1c0.065-0.061,0.16-0.098,0.294-0.098
			c0.127,0,0.263-0.062,0.394-0.195h0.194h0.396l0.196-0.195h0.192h0.393h0.199c0.127-0.129,0.262-0.199,0.392-0.199h0.194h0.59
			h0.589h0.591h0.392h0.199c0.127,0,0.26,0.07,0.391,0.199h0.392h0.198h0.394c0.52,0.264,0.979,0.428,1.372,0.488
			c0.394,0.068,0.784,0.23,1.181,0.49h0.195c0,0.133,0.127,0.199,0.393,0.199c0,0.129,0.064,0.195,0.195,0.195l0.198,0.195
			c0.125,0,0.262,0.068,0.392,0.195l0.391,0.395h0.199c0.652,0.391,1.177,0.918,1.568,1.568l0.396,0.395l0.39,0.393
			c0,0.133,0.031,0.195,0.103,0.195c0.061,0,0.096,0.068,0.096,0.197l0.194,0.197l0.199,0.195c0,0.131,0.062,0.264,0.195,0.391
			c0,0.135,0.031,0.23,0.096,0.297c0.065,0.068,0.101,0.164,0.101,0.295l24.737,48.492l24.736-48.492
			c0-0.262,0.064-0.457,0.198-0.592c0.127-0.127,0.197-0.26,0.197-0.391c0.126,0,0.193-0.064,0.193-0.195l0.195-0.197
			c0-0.129,0.065-0.262,0.196-0.393l0.396-0.393l0.392-0.396c0.395-0.648,0.916-1.178,1.571-1.566l0.392-0.396h0.194
			c0.131-0.127,0.261-0.195,0.396-0.195l0.194-0.193c0.132,0,0.197-0.066,0.197-0.195c0.261,0,0.395-0.066,0.395-0.199h0.196
			c0.262-0.26,0.585-0.422,0.981-0.49c0.391-0.062,0.717-0.162,0.979-0.293c0.263,0,0.457-0.064,0.588-0.197h0.394h0.198h0.39
			c0-0.129,0.065-0.199,0.199-0.199h0.393h0.392h0.591h0.589h0.588c0.262,0,0.457,0.07,0.592,0.199h0.389h0.396l0.195,0.197h0.392
			h0.194l0.396,0.195c0.125,0,0.226,0.035,0.295,0.098c0.062,0.068,0.16,0.098,0.291,0.098s0.261,0.07,0.396,0.197h0.194
			c0.132,0.133,0.261,0.195,0.394,0.195v0.199c0.259,0,0.459,0.062,0.589,0.195c0.132,0.129,0.261,0.193,0.392,0.193l0.199,0.195
			l0.195,0.197c0.128,0,0.261,0.066,0.391,0.197l0.396,0.391c0.261,0,0.391,0.133,0.391,0.396c0.652,0.393,1.177,0.918,1.572,1.568
			l0.392,0.395v0.197c0.13,0.131,0.194,0.262,0.194,0.391c0.132,0,0.196,0.068,0.196,0.195l0.198,0.199
			c0,0.131,0.062,0.262,0.196,0.393c0.26,0.654,0.521,1.371,0.785,2.158c0,0.264,0.062,0.459,0.196,0.592v0.391v0.195
			c0,0.135,0.064,0.266,0.193,0.395v0.195v0.195v0.592V1802v129.975H1465.745z"/>
		<path fill="#F9E450" d="M1554.778,1923.43c2.29,2.291,3.438,5.076,3.438,8.346c0,3.271-1.146,6.057-3.438,8.344
			c-2.292,2.287-5.07,3.436-8.343,3.436h-48.101c-3.274,0-6.055-1.146-8.345-3.436c-2.292-2.287-3.435-5.072-3.435-8.344v-129.971
			c0-3.271,1.143-6.051,3.435-8.344c2.29-2.291,5.069-3.438,8.345-3.438h48.101c3.271,0,6.051,1.146,8.343,3.438
			c2.29,2.293,3.438,5.072,3.438,8.344c0,3.406-1.146,6.219-3.438,8.443c-2.292,2.227-5.07,3.336-8.343,3.336h-36.319v49.475h25.127
			c3.271,0,6.056,1.148,8.344,3.438c2.29,2.291,3.438,5.076,3.438,8.344c0,3.273-1.146,6.057-3.438,8.344
			c-2.288,2.291-5.072,3.438-8.344,3.438h-25.127v33.375h36.319C1549.706,1919.994,1552.486,1921.143,1554.778,1923.43z"/>
		<path fill="#F9E450" d="M1650.585,1793.756c2.289,2.227,3.437,5.039,3.437,8.439c0,3.273-1.146,6.059-3.437,8.346
			c-2.288,2.291-5.071,3.436-8.344,3.436h-18.256v117.799c0,3.271-1.15,6.057-3.438,8.344c-2.291,2.287-5.076,3.436-8.342,3.436
			c-3.275,0-6.061-1.146-8.346-3.436c-2.294-2.287-3.435-5.072-3.435-8.344v-117.799h-18.653c-3.273,0-6.058-1.145-8.343-3.436
			c-2.294-2.287-3.438-5.07-3.438-8.346c0-3.4,1.145-6.215,3.438-8.439c2.285-2.227,5.069-3.338,8.343-3.338h60.469
			C1645.514,1790.418,1648.297,1791.531,1650.585,1793.756z"/>
		<path fill="#F9E450" d="M1735.595,1923.43c2.288,2.291,3.436,5.076,3.436,8.346c0,3.271-1.146,6.057-3.436,8.344
			c-2.29,2.287-5.073,3.436-8.346,3.436h-48.099c-3.271,0-6.057-1.146-8.347-3.436c-2.289-2.287-3.436-5.072-3.436-8.344v-129.971
			c0-3.271,1.146-6.051,3.436-8.344c2.29-2.291,5.074-3.438,8.347-3.438h48.099c3.271,0,6.056,1.146,8.346,3.438
			c2.288,2.293,3.436,5.072,3.436,8.344c0,3.406-1.146,6.219-3.436,8.443c-2.29,2.227-5.073,3.336-8.346,3.336h-36.319v49.475
			h25.132c3.271,0,6.053,1.148,8.344,3.438c2.291,2.291,3.437,5.076,3.437,8.344c0,3.273-1.146,6.057-3.437,8.344
			c-2.291,2.291-5.072,3.438-8.344,3.438h-25.132v33.375h36.319C1730.521,1919.994,1733.305,1921.143,1735.595,1923.43z"/>
		<path fill="#F9E450" d="M1837.391,1927.064c1.438,3.01,1.537,6.02,0.296,9.029c-1.247,3.014-3.371,5.17-6.382,6.479
			c-1.571,0.654-3.14,0.982-4.712,0.982c-2.229,0-4.318-0.623-6.282-1.867c-1.963-1.24-3.47-2.975-4.517-5.201l-21.791-49.867
			h-11.78v45.156c0,3.271-1.147,6.057-3.437,8.344c-2.293,2.287-5.074,3.436-8.345,3.436c-3.274,0-6.055-1.146-8.343-3.436
			c-2.294-2.287-3.438-5.072-3.438-8.344v-129.578c0-3.268,1.144-6.053,3.438-8.344c2.288-2.287,5.068-3.436,8.343-3.436h28.47
			c4.974,0,9.746,1.408,14.332,4.219c4.578,2.818,8.57,6.842,11.978,12.076c5.889,9.295,8.834,19.898,8.834,31.805
			c0,5.764-0.756,11.322-2.259,16.688c-1.508,5.369-3.7,10.34-6.575,14.924c-1.312,1.963-2.687,3.73-4.123,5.299
			c-1.44,1.574-2.883,3.016-4.319,4.318L1837.391,1927.064z M1798.911,1863.059c0.651,0,1.537-0.422,2.649-1.273
			c1.111-0.852,2.39-2.324,3.831-4.418c1.698-2.617,2.977-5.564,3.826-8.834c0.852-3.271,1.277-6.609,1.277-10.016
			c0-3.402-0.426-6.773-1.277-10.109c-0.852-3.34-2.128-6.314-3.826-8.934c-1.441-1.965-2.72-3.367-3.831-4.221
			c-1.112-0.852-1.998-1.277-2.649-1.277h-16.688v49.082H1798.911z"/>
	</g>
</g>
</svg>
