<?xml version="1.0" encoding="utf-8"?>
<!-- Generator: Adobe Illustrator 16.0.0, SVG Export Plug-In . SVG Version: 6.00 Build 0)  -->
<!DOCTYPE svg PUBLIC "-//W3C//DTD SVG 1.1//EN" "http://www.w3.org/Graphics/SVG/1.1/DTD/svg11.dtd">
<svg version="1.1" id="Layer_1" xmlns="http://www.w3.org/2000/svg" xmlns:xlink="http://www.w3.org/1999/xlink" x="0px" y="0px"
	 width="79.2px" height="73.834px" viewBox="3.066 12.593 79.2 73.834" enable-background="new 3.066 12.593 79.2 73.834"
	 xml:space="preserve">
<g id="Layer_1_1_">
</g>
<g id="Layer_5">
</g>
<g id="Layer_2">
</g>
<g id="neptune">
</g>
<g id="uranus">
</g>
<g id="saturn">
</g>
<g id="jupiter">
</g>
<g id="Layer_14">
</g>
<g id="mars">
</g>
<g id="venus">
</g>
<g id="mercury">
</g>
<g id="earth">
</g>
<g id="Layer_6">
</g>
<g>
	<path fill="#2E292D" d="M15.083,82.639c0,0.381-0.131,0.707-0.4,0.971c-0.266,0.267-0.591,0.402-0.971,0.402
		c-0.383,0-0.702-0.137-0.972-0.402c-0.268-0.264-0.4-0.59-0.4-0.971V73.23l-1.432,2.834c-0.124,0.332-0.344,0.579-0.666,0.729
		c-0.186,0.094-0.373,0.14-0.571,0.14H9.646H9.627H9.606H9.58c-0.195,0-0.39-0.046-0.573-0.14c-0.321-0.149-0.538-0.396-0.664-0.729
		L6.909,73.23v9.409c0,0.381-0.133,0.707-0.402,0.971c-0.263,0.267-0.585,0.402-0.972,0.402c-0.378,0-0.702-0.137-0.965-0.402
		c-0.271-0.264-0.4-0.59-0.4-0.971V67.522v-0.067v-0.069v-0.02v-0.026c0-0.014,0-0.021,0.008-0.021c0.01,0,0.016-0.007,0.016-0.023
		v-0.022v-0.044c0-0.018,0-0.026,0.006-0.033c0.006-0.011,0.014-0.021,0.014-0.034c0.014-0.094,0.046-0.174,0.091-0.251
		c0-0.017,0.002-0.021,0.012-0.021c0.008,0,0.008-0.011,0.008-0.025L4.35,66.84l0.024-0.021c0-0.017,0.005-0.032,0.021-0.047v-0.023
		l0.047-0.044c0.032-0.031,0.056-0.062,0.081-0.093c0.023-0.031,0.05-0.059,0.082-0.09l0.044-0.049h0.02
		c0-0.015,0.005-0.021,0.016-0.021c0.001,0,0.01-0.007,0.01-0.022h0.019c0.018-0.015,0.033-0.021,0.053-0.021
		c0-0.016,0.004-0.023,0.021-0.023l0.024-0.023l0.044-0.021c0.011-0.018,0.027-0.023,0.045-0.023l0.019-0.029
		c0.017,0,0.032-0.008,0.048-0.022c0.016,0,0.025-0.004,0.034-0.013c0.005-0.005,0.021-0.009,0.034-0.009
		c0.013,0,0.026-0.005,0.032-0.013c0.008-0.011,0.021-0.011,0.031-0.011c0.02,0,0.031-0.011,0.052-0.023h0.023H5.22l0.02-0.022
		h0.024h0.049h0.021c0.014-0.018,0.029-0.021,0.044-0.021H5.4h0.066h0.068h0.071h0.046H5.67c0.021,0,0.036,0.005,0.049,0.021h0.047
		h0.021h0.044c0.066,0.033,0.12,0.047,0.165,0.058c0.042,0.008,0.091,0.026,0.136,0.057h0.025c0,0.017,0.014,0.023,0.04,0.023
		c0,0.016,0.011,0.022,0.025,0.022l0.021,0.021c0.018,0,0.029,0.011,0.048,0.023l0.047,0.046h0.02
		c0.076,0.044,0.14,0.106,0.186,0.183l0.045,0.046l0.04,0.047c0,0.015,0.009,0.021,0.014,0.021c0.012,0,0.018,0.006,0.018,0.022
		l0.02,0.023l0.023,0.024c0,0.014,0.012,0.026,0.023,0.041c0,0.019,0.003,0.027,0.014,0.035c0.005,0.01,0.01,0.021,0.01,0.036
		l2.877,5.642l2.873-5.642c0-0.032,0.012-0.054,0.02-0.071c0.023-0.015,0.029-0.027,0.029-0.041c0.015,0,0.021-0.011,0.021-0.024
		l0.026-0.023c0-0.018,0.002-0.029,0.025-0.044l0.039-0.047l0.044-0.046c0.051-0.075,0.108-0.139,0.188-0.183l0.044-0.046h0.022
		c0.015-0.014,0.034-0.023,0.045-0.023l0.023-0.021c0.011,0,0.025-0.008,0.025-0.022c0.027,0,0.039-0.008,0.039-0.023h0.027
		c0.026-0.029,0.065-0.049,0.111-0.057c0.047-0.011,0.084-0.021,0.121-0.034c0.027,0,0.052-0.007,0.063-0.022h0.047h0.018h0.046
		c0-0.018,0.01-0.021,0.025-0.021h0.046h0.045h0.069h0.072h0.063c0.034,0,0.055,0.005,0.074,0.021h0.042h0.045l0.023,0.022h0.051
		h0.022l0.041,0.023c0.016,0,0.027,0,0.039,0.011c0,0.008,0.015,0.013,0.03,0.013c0.013,0,0.031,0.007,0.049,0.021h0.021
		c0.012,0.016,0.026,0.022,0.046,0.022v0.023c0.029,0,0.051,0.007,0.063,0.022c0.02,0.015,0.037,0.021,0.048,0.021l0.024,0.023
		l0.023,0.023c0.012,0,0.03,0.008,0.047,0.021l0.042,0.044c0.031,0,0.044,0.017,0.044,0.049c0.083,0.045,0.143,0.107,0.185,0.183
		l0.047,0.044v0.023c0.012,0.015,0.023,0.03,0.023,0.047c0.012,0,0.022,0.005,0.022,0.02l0.025,0.023
		c0,0.016,0.006,0.031,0.018,0.048c0.035,0.077,0.065,0.157,0.095,0.251c0,0.029,0.004,0.051,0.022,0.067v0.044v0.022
		c0,0.018,0.003,0.032,0.021,0.045v0.027v0.02v0.069v0.067v15.12H15.083z"/>
	<path fill="#2E292D" d="M25.435,81.647c0.27,0.266,0.405,0.588,0.405,0.971c0,0.379-0.136,0.705-0.405,0.972
		c-0.261,0.269-0.588,0.396-0.968,0.396h-5.598c-0.378,0-0.703-0.129-0.967-0.396c-0.268-0.267-0.4-0.593-0.4-0.972V67.5
		c0-0.383,0.133-0.706,0.4-0.97c0.264-0.27,0.589-0.4,0.967-0.4h5.598c0.38,0,0.707,0.132,0.968,0.4
		c0.27,0.264,0.405,0.587,0.405,0.97c0,0.396-0.136,0.723-0.405,0.98c-0.261,0.261-0.588,0.386-0.968,0.386h-4.221v5.757h2.919
		c0.381,0,0.705,0.136,0.975,0.399c0.26,0.268,0.396,0.59,0.396,0.969c0,0.383-0.136,0.705-0.396,0.977
		c-0.27,0.266-0.594,0.397-0.975,0.397h-2.919v3.883h4.221C24.847,81.248,25.174,81.377,25.435,81.647z"/>
	<path fill="#2E292D" d="M37.279,82.069c0.17,0.351,0.181,0.7,0.032,1.053c-0.141,0.349-0.389,0.602-0.741,0.752
		c-0.182,0.077-0.368,0.112-0.55,0.112c-0.26,0-0.5-0.069-0.729-0.217c-0.231-0.145-0.406-0.343-0.526-0.604l-2.536-5.8h-1.367
		v5.251c0,0.379-0.137,0.705-0.399,0.972c-0.27,0.269-0.59,0.396-0.976,0.396c-0.371,0-0.699-0.129-0.971-0.396
		c-0.259-0.267-0.395-0.593-0.395-0.972V67.548c0-0.38,0.136-0.705,0.395-0.975c0.271-0.265,0.6-0.398,0.971-0.398H32.8
		c0.583,0,1.14,0.166,1.665,0.489c0.54,0.329,1.004,0.796,1.402,1.405c0.682,1.083,1.022,2.313,1.022,3.698
		c0,0.672-0.088,1.318-0.262,1.941c-0.175,0.627-0.429,1.204-0.761,1.738c-0.159,0.229-0.315,0.43-0.487,0.614
		c-0.166,0.185-0.335,0.351-0.501,0.5L37.279,82.069z M32.8,74.623c0.079,0,0.184-0.048,0.309-0.148
		c0.135-0.098,0.277-0.271,0.443-0.515c0.202-0.302,0.348-0.645,0.45-1.026c0.097-0.379,0.146-0.767,0.146-1.165
		c0-0.394-0.05-0.785-0.146-1.173c-0.103-0.39-0.248-0.737-0.45-1.039c-0.166-0.229-0.309-0.395-0.443-0.49
		c-0.125-0.104-0.229-0.15-0.309-0.15h-1.938v5.708L32.8,74.623L32.8,74.623z"/>
	<path fill="#2E292D" d="M48.164,79.418c0,0.05,0,0.193-0.002,0.445c-0.01,0.251-0.043,0.552-0.121,0.893
		c-0.063,0.344-0.182,0.713-0.346,1.108c-0.172,0.396-0.412,0.76-0.733,1.095c-0.257,0.288-0.64,0.572-1.153,0.844
		c-0.509,0.274-1.17,0.412-1.972,0.412c-0.81,0-1.463-0.138-1.958-0.412c-0.495-0.271-0.873-0.556-1.135-0.844
		c-0.297-0.335-0.539-0.694-0.701-1.074c-0.17-0.379-0.282-0.741-0.355-1.08c-0.07-0.348-0.104-0.648-0.104-0.917
		c0-0.267,0-0.455,0-0.561v-8.769c0-0.926,0.151-1.669,0.459-2.226c0.303-0.555,0.619-0.986,0.939-1.293
		c0.376-0.35,0.81-0.616,1.291-0.809c0.498-0.19,1.004-0.286,1.536-0.286c0.515,0,1.036,0.093,1.566,0.275
		c0.521,0.184,0.989,0.464,1.401,0.843c0.412,0.383,0.746,0.863,1.008,1.438c0.252,0.578,0.379,1.265,0.379,2.056
		c0,0.396-0.127,0.727-0.396,0.984c-0.264,0.26-0.592,0.389-0.972,0.389c-0.381,0-0.703-0.129-0.965-0.389
		c-0.27-0.259-0.403-0.588-0.403-0.984c0-0.408-0.054-0.737-0.17-0.979c-0.115-0.244-0.253-0.434-0.414-0.562
		c-0.153-0.128-0.333-0.215-0.522-0.262c-0.188-0.047-0.36-0.067-0.514-0.067c-0.109,0-0.242,0.017-0.412,0.054
		c-0.171,0.041-0.329,0.125-0.487,0.257c-0.164,0.124-0.299,0.315-0.416,0.559c-0.113,0.243-0.17,0.577-0.17,1.002v8.814v0.114
		c0,0.078,0,0.178,0,0.31c0,0.127,0.013,0.271,0.048,0.437c0.027,0.157,0.076,0.319,0.137,0.477c0.062,0.161,0.144,0.292,0.25,0.399
		c0.045,0.047,0.144,0.117,0.297,0.217c0.155,0.101,0.412,0.149,0.781,0.149c0.39,0,0.669-0.05,0.818-0.149
		c0.153-0.1,0.252-0.178,0.295-0.239c0.213-0.212,0.35-0.478,0.4-0.8c0.053-0.318,0.079-0.555,0.079-0.707c0-0.014,0-0.099,0-0.252
		c0-0.149,0.035-0.314,0.117-0.489c0.077-0.177,0.198-0.342,0.376-0.492c0.172-0.15,0.427-0.234,0.766-0.251
		c0.346-0.015,0.62,0.048,0.809,0.185c0.191,0.138,0.336,0.289,0.447,0.457C48.064,78.934,48.141,79.162,48.164,79.418z"/>
	<path fill="#2E292D" d="M59.236,80.029c-0.006,0.247-0.045,0.537-0.123,0.864c-0.078,0.33-0.205,0.681-0.369,1.05
		c-0.168,0.372-0.406,0.72-0.707,1.041c-0.264,0.292-0.644,0.57-1.149,0.846c-0.511,0.272-1.165,0.41-1.976,0.41
		c-0.809,0-1.459-0.138-1.957-0.41c-0.496-0.274-0.875-0.554-1.129-0.846c-0.307-0.334-0.535-0.695-0.695-1.071
		c-0.161-0.383-0.273-0.745-0.348-1.088c-0.063-0.339-0.098-0.646-0.098-0.912s0-0.454,0-0.562V67.569
		c0-0.381,0.127-0.705,0.399-0.971c0.265-0.268,0.588-0.399,0.969-0.399s0.701,0.133,0.97,0.399c0.27,0.266,0.401,0.59,0.401,0.971
		v11.899v0.044c0,0.077,0,0.183,0,0.319s0.013,0.28,0.044,0.435c0.029,0.151,0.075,0.307,0.141,0.467
		c0.059,0.16,0.145,0.297,0.252,0.4c0.041,0.047,0.146,0.115,0.297,0.219c0.15,0.098,0.396,0.146,0.754,0.146
		c0.388,0,0.675-0.05,0.836-0.146c0.152-0.104,0.259-0.172,0.307-0.219c0.21-0.229,0.336-0.502,0.387-0.82
		c0.045-0.321,0.063-0.549,0.063-0.684v-0.07v-0.023V67.59c0-0.382,0.135-0.703,0.405-0.971c0.26-0.268,0.584-0.397,0.961-0.397
		c0.382,0,0.711,0.131,0.976,0.397c0.272,0.268,0.399,0.589,0.399,0.971v11.922C59.244,79.602,59.244,79.774,59.236,80.029z"/>
	<path fill="#2E292D" d="M70.986,82.069c0.164,0.351,0.174,0.7,0.035,1.053c-0.146,0.349-0.394,0.602-0.746,0.752
		c-0.18,0.077-0.367,0.112-0.551,0.112c-0.257,0-0.499-0.069-0.724-0.217c-0.235-0.145-0.406-0.343-0.528-0.604l-2.537-5.8h-1.369
		v5.251c0,0.379-0.135,0.705-0.397,0.972c-0.265,0.269-0.593,0.396-0.974,0.396c-0.377,0-0.705-0.129-0.97-0.396
		c-0.266-0.267-0.396-0.593-0.396-0.972V67.548c0-0.38,0.131-0.705,0.396-0.975c0.265-0.265,0.593-0.398,0.97-0.398h3.312
		c0.577,0,1.139,0.166,1.668,0.489c0.534,0.329,1.001,0.796,1.396,1.405c0.684,1.083,1.023,2.313,1.023,3.698
		c0,0.672-0.092,1.318-0.266,1.941c-0.168,0.627-0.424,1.204-0.758,1.738c-0.156,0.229-0.314,0.43-0.484,0.614
		c-0.174,0.185-0.332,0.351-0.506,0.5L70.986,82.069z M66.506,74.623c0.082,0,0.181-0.048,0.312-0.148
		c0.129-0.098,0.275-0.271,0.443-0.515c0.2-0.302,0.346-0.645,0.443-1.026c0.099-0.379,0.158-0.767,0.158-1.165
		c0-0.394-0.061-0.785-0.158-1.173c-0.098-0.39-0.243-0.737-0.443-1.039c-0.168-0.229-0.314-0.395-0.443-0.49
		c-0.131-0.104-0.229-0.15-0.312-0.15h-1.94v5.708L66.506,74.623L66.506,74.623z"/>
	<path fill="#2E292D" d="M80.396,66.358c0.346,0.139,0.598,0.382,0.747,0.732c0.16,0.35,0.161,0.699,0.029,1.048l-2.792,7.06v7.49
		c0,0.378-0.13,0.703-0.398,0.969c-0.26,0.267-0.586,0.398-0.969,0.398c-0.396,0-0.72-0.133-0.98-0.398
		c-0.26-0.266-0.387-0.591-0.387-0.969v-7.49l-2.787-7.06c-0.156-0.349-0.156-0.698,0-1.048c0.15-0.352,0.402-0.595,0.752-0.732
		c0.352-0.136,0.701-0.136,1.051,0.011c0.352,0.146,0.595,0.396,0.727,0.745l1.626,4.086l1.597-4.086
		c0.143-0.351,0.375-0.6,0.735-0.745C79.691,66.222,80.042,66.222,80.396,66.358z"/>
</g>
<path fill="#2E292D" d="M65.178,36.988c0,2.701-1.064,4.092-2.291,6.099c-0.836,1.372-1.686,5.839-2.668,7.252
	c-1.928,2.75-5.805,2.218-8.777,3.818c-3.01,1.61-5.098,2.925-8.75,2.925c-1.863,0-3.451-0.957-5.178-1.404
	c-1.297-0.331-3.961-0.77-5.15-1.332c-4.109-1.945-5.078-2.514-7.248-6.483c-0.656-1.203-2.418-3.751-2.668-5.151
	c-0.395-2.159-0.385-6.147-0.385-8.396c0-3.51,0.062-5.472,1.564-8.396c1.328-2.593,1.932-1.583,4.158-3.434
	c0.832-0.693,1.547-3.635,2.48-4.194c1.73-1.038,3.346-3.036,5.725-3.818c2.047-0.675,4.838-0.215,6.701-0.215
	c2.688,0,5.264,0.501,7.637,1.408c1.391,0.532,2.549,2.589,3.783,3.385c2.518,1.623,4.842,2.37,6.486,4.874
	C62.817,27.294,65.178,32.646,65.178,36.988z"/>
<polygon fill="#18181A" points="54.497,27.259 56.401,30.496 56.592,30.707 53.731,28.427 51.823,28.427 48.389,30.707 
	44.766,30.031 41.904,28.524 42.092,26.078 45.911,26.859 48.008,25.722 51.635,25.913 "/>
<polygon fill="#18181A" points="44.167,38.123 44.167,42.702 40.268,42.514 41.467,44.427 45.5,45.572 47.597,47.093 48.167,48.621 
	48.167,42.702 46.93,40.797 "/>
<path fill="#18181A" d="M34.846,17.905l4.006-2.092l1.717,1.52l3.434-0.572l1.145,2.102l-1.525,1.717L41.52,22.68
	c0,0-0.195,0.188-1.145-1.341C39.424,19.819,34.846,17.905,34.846,17.905z"/>
<polygon fill="#18181A" points="49.534,18.102 51.823,20.766 55.641,23.056 57.165,25.542 59.075,24.397 55.829,21.339 
	52.586,19.622 51.063,17.905 "/>
<path fill="#18181A" d="M57.545,38.704c0,0-4.959,4.194-4.766,7.243c0.188,3.059,0.951,3.059,0.951,3.059l-0.379,1.521l3.621-0.572
	l0.764-1.333l1.145-4.006L57.545,38.704z"/>
<path fill="#18181A" d="M36.941,47.62l4.391-1.193h0.76l3.055,3.67l2.098,2.891c0,0-0.953,0.87-2.479,2.396l-2.102-2.05
	l-3.621-1.521L36.941,47.62z"/>
<path fill="#665C4D" d="M25.309,28.403l1.953,2.665l-1.095,5.723v5.912l0,0l0.144,5.535c0,0,0.354,2.186,0.926,2.57
	s-0.01-2.946-0.01-2.946l0.951-1.914l0.948-0.188l3.053,1.333l3.813,3.63l1.523,4.954l0.957,0.197l-3.054-8.013l1.717-3.059
	l2.861,0.957l7.249,3.05l2.672,4.963l0.189,1.332l1.336-0.948l-0.951-3.818l-5.344-4.006l-3.627-1.905l-3.621-1.528l-3.053,4.39
	l-4.387-1.528l-2.861-1.905l0.188-6.492l0.764-4.954l-1.145-3.631l-1.145-3.237l-0.951-1.538l-1.051,0.858L25.309,28.403z"/>
<polygon fill="#665C4D" points="26.167,25.89 29.623,22.922 31.707,20.436 35.184,20.051 38.066,22.219 40.51,23.95 44.661,21.236 
	47.235,19.381 50.096,20.811 52.823,23.243 55.541,24.531 56.973,27.393 57.975,28.394 60.836,29.11 63.698,30.111 64.127,30.77 
	60.692,28.427 58.118,28.427 58.975,33.274 61.409,35.986 59.977,38.629 60.12,42.093 60.979,44.69 61.264,46.987 60.692,48.993 
	60.12,47.276 59.5,44.704 58.167,40.126 58.167,38.123 59.43,36.12 57.415,33.688 56.981,30.111 55.402,26.105 53.112,24.817 
	50.392,22.957 47.387,21.097 44.954,22.671 41.52,24.96 40.375,27.822 41.377,29.682 44.096,31.971 49.819,33.831 52.108,35.405 
	55.399,36.263 56.258,37.98 56.973,39.411 55.542,40.556 54.254,38.266 52.25,36.55 48.674,35.548 44.381,33.974 41.092,33.402 
	40.09,31.113 38.23,27.536 37.943,24.674 35.654,23.53 34.367,23.1 33.078,22.242 31.648,24.388 29.502,25.533 27.906,26.677 
	26.167,27.393 "/>
<polygon fill="#665C4D" points="27.404,28.779 29.502,30.54 32.793,32.972 35.225,34.26 36.799,35.405 38.516,37.122 41.234,36.55 
	45.67,34.833 46.528,34.404 48.102,35.119 46.672,35.834 42.521,37.265 40.375,37.694 38.658,38.696 36.084,36.836 33.365,34.26 
	29.932,32.4 27.213,31.068 "/>
<polygon fill="#665C4D" points="50.963,35.977 50.678,39.983 50.391,45.277 49.961,48.281 50.249,50.857 50.678,51.859 
	51.106,50.714 51.823,48.425 51.25,45.134 51.536,40.412 51.965,37.551 52.108,35.405 "/>
<path fill="#2E292D" d="M167.178,36.988c0,2.701-1.064,4.092-2.291,6.099c-0.836,1.372-1.686,5.839-2.668,7.252
	c-1.928,2.75-5.805,2.218-8.777,3.818c-3.01,1.61-5.098,2.925-8.75,2.925c-1.863,0-3.451-0.957-5.178-1.404
	c-1.297-0.331-3.961-0.77-5.15-1.332c-4.109-1.945-5.078-2.514-7.248-6.483c-0.656-1.203-2.418-3.751-2.668-5.151
	c-0.395-2.159-0.385-6.147-0.385-8.396c0-3.51,0.062-5.472,1.564-8.396c1.328-2.593,1.932-1.583,4.158-3.434
	c0.832-0.693,1.547-3.635,2.48-4.194c1.73-1.038,3.346-3.036,5.725-3.818c2.047-0.675,4.838-0.215,6.701-0.215
	c2.688,0,5.264,0.501,7.637,1.408c1.391,0.532,2.549,2.589,3.783,3.385c2.518,1.623,4.842,2.37,6.486,4.874
	C164.817,27.294,167.178,32.646,167.178,36.988z"/>
<g>
	<path fill="#665C4D" d="M130.348,34.188c0,0.019,0,0.056-0.002,0.11s-0.012,0.116-0.027,0.185s-0.041,0.142-0.074,0.221
		c-0.033,0.078-0.082,0.151-0.146,0.218c-0.057,0.061-0.139,0.12-0.244,0.177c-0.105,0.058-0.242,0.086-0.412,0.086
		c-0.172,0-0.311-0.029-0.412-0.086c-0.102-0.057-0.18-0.116-0.234-0.177c-0.064-0.07-0.113-0.146-0.148-0.226
		s-0.061-0.156-0.074-0.228c-0.016-0.072-0.021-0.136-0.021-0.192s0-0.095,0-0.118v-1.835c0-0.195,0.031-0.351,0.096-0.467
		c0.062-0.117,0.129-0.207,0.195-0.271c0.164-0.153,0.361-0.23,0.596-0.23c0.107,0,0.217,0.019,0.326,0.058
		c0.107,0.038,0.205,0.097,0.291,0.177c0.086,0.08,0.156,0.18,0.211,0.302s0.082,0.265,0.082,0.432V34.188z M129.61,31.968
		c-0.029-0.016-0.059-0.026-0.088-0.031c-0.031-0.005-0.059-0.007-0.084-0.007c-0.023,0-0.051,0.004-0.086,0.012
		c-0.037,0.008-0.07,0.026-0.104,0.053c-0.033,0.027-0.062,0.066-0.086,0.118c-0.025,0.051-0.037,0.122-0.037,0.211v0.911
		L129.61,31.968z M129.676,34.528c0.043-0.044,0.07-0.101,0.082-0.17c0.014-0.069,0.018-0.118,0.016-0.146v-0.014v-1.045l-0.537,1.4
		c0.016,0.013,0.039,0.025,0.068,0.038c0.031,0.013,0.076,0.019,0.137,0.019c0.08,0,0.137-0.011,0.17-0.034
		C129.645,34.553,129.667,34.537,129.676,34.528z"/>
	<path fill="#665C4D" d="M130.721,34.475c0.08,0,0.148,0.028,0.205,0.084c0.055,0.056,0.084,0.124,0.084,0.204
		c0,0.083-0.029,0.152-0.084,0.208c-0.057,0.056-0.125,0.084-0.205,0.084c-0.082,0-0.152-0.028-0.207-0.084
		c-0.057-0.056-0.084-0.125-0.084-0.208c0-0.08,0.027-0.148,0.084-0.204C130.569,34.503,130.639,34.475,130.721,34.475z"/>
	<path fill="#665C4D" d="M133.028,34.231c0.004,0.016,0.004,0.03,0,0.043v0.024c-0.014,0.221-0.076,0.401-0.191,0.542
		c-0.141,0.179-0.342,0.29-0.6,0.331c-0.061,0.013-0.133,0.019-0.215,0.019h-0.025h-0.02c-0.066,0-0.133-0.005-0.201-0.014
		c-0.268-0.045-0.475-0.157-0.617-0.336c-0.129-0.166-0.191-0.383-0.191-0.651c0-0.473,0.111-0.823,0.334-1.05l0.01-0.01
		c-0.062-0.08-0.113-0.181-0.148-0.302c-0.016-0.067-0.029-0.142-0.037-0.225c-0.01-0.083-0.016-0.179-0.016-0.288v-0.039
		c0-0.032,0.002-0.073,0.002-0.125c0.002-0.051,0.01-0.107,0.025-0.167c0.014-0.061,0.035-0.123,0.062-0.187
		s0.066-0.125,0.117-0.182c0.055-0.061,0.133-0.121,0.238-0.18s0.246-0.089,0.422-0.089h0.02h0.025c0.174,0,0.314,0.03,0.418,0.089
		s0.184,0.119,0.238,0.18c0.051,0.058,0.09,0.118,0.119,0.182s0.051,0.126,0.064,0.187c0.016,0.061,0.023,0.117,0.023,0.167
		c0.002,0.051,0.004,0.093,0.004,0.125c0,0.02-0.002,0.032-0.006,0.039c0,0.109-0.004,0.205-0.012,0.288s-0.021,0.158-0.041,0.225
		c-0.035,0.122-0.082,0.222-0.143,0.302l0.01,0.01c0.219,0.224,0.33,0.573,0.33,1.05V34.231z M132.452,34.188
		c0-0.313-0.055-0.531-0.168-0.652c-0.062-0.063-0.158-0.105-0.287-0.125c-0.131,0.019-0.225,0.061-0.283,0.125
		c-0.113,0.122-0.172,0.339-0.172,0.652v0.019c0.004,0.013,0.01,0.042,0.02,0.086c0.01,0.045,0.029,0.091,0.062,0.139
		c0.061,0.099,0.148,0.158,0.264,0.177c0.016,0,0.033,0.001,0.053,0.002c0.02,0.002,0.037,0.002,0.057,0.002
		c0.023,0,0.045,0,0.064-0.002c0.021-0.001,0.039-0.004,0.057-0.007c0.117-0.02,0.207-0.079,0.268-0.178
		c0.021-0.038,0.039-0.076,0.049-0.112c0.008-0.037,0.016-0.063,0.018-0.079V34.188z M131.686,32.337
		c0,0.086,0.004,0.157,0.012,0.211c0.008,0.055,0.016,0.098,0.023,0.129s0.016,0.055,0.023,0.07
		c0.008,0.014,0.014,0.023,0.018,0.026c0.02,0.016,0.051,0.026,0.096,0.031c0.045,0.005,0.092,0.009,0.139,0.012
		c0.051-0.003,0.1-0.007,0.145-0.012c0.045-0.004,0.074-0.015,0.09-0.031c0.004-0.003,0.01-0.012,0.02-0.026
		c0.01-0.015,0.02-0.04,0.027-0.075s0.016-0.082,0.021-0.141s0.01-0.135,0.01-0.228c0-0.007,0.002-0.012,0.004-0.015v-0.024h-0.004
		l0.004-0.005c-0.002-0.032-0.01-0.074-0.021-0.127s-0.033-0.097-0.068-0.132c-0.01-0.01-0.031-0.025-0.062-0.045
		c-0.033-0.021-0.086-0.033-0.164-0.036c-0.072,0.003-0.125,0.015-0.158,0.036c-0.031,0.021-0.053,0.036-0.062,0.045
		c-0.035,0.035-0.059,0.079-0.07,0.132c-0.014,0.053-0.02,0.095-0.02,0.127v0.005C131.688,32.291,131.688,32.315,131.686,32.337z"/>
	<path fill="#665C4D" d="M135.131,31.527c0.029,0.035,0.047,0.075,0.055,0.12c0.01,0.045,0.006,0.09-0.006,0.135l-0.906,3.135
		c-0.016,0.063-0.051,0.114-0.104,0.151s-0.111,0.055-0.174,0.055c-0.014,0-0.027,0-0.039,0c-0.014,0-0.025-0.003-0.039-0.01
		c-0.076-0.022-0.133-0.068-0.172-0.137c-0.039-0.068-0.047-0.142-0.023-0.218l0.801-2.771h-1.045c-0.08,0-0.148-0.028-0.205-0.084
		c-0.055-0.056-0.084-0.124-0.084-0.204c0-0.08,0.029-0.147,0.084-0.204c0.057-0.056,0.125-0.083,0.205-0.083h1.424
		C134.999,31.412,135.075,31.45,135.131,31.527z"/>
	<path fill="#665C4D" d="M139.864,34.183c0,0.009-0.002,0.041-0.004,0.093s-0.01,0.115-0.023,0.187
		c-0.014,0.072-0.039,0.149-0.074,0.232s-0.086,0.16-0.154,0.23c-0.053,0.061-0.135,0.12-0.24,0.177
		c-0.107,0.058-0.246,0.086-0.416,0.086c-0.168,0-0.305-0.029-0.41-0.086c-0.104-0.058-0.182-0.116-0.236-0.177
		c-0.064-0.07-0.113-0.146-0.148-0.225c-0.035-0.08-0.061-0.156-0.074-0.228c-0.016-0.072-0.021-0.136-0.021-0.192s0-0.095,0-0.118
		v-1.84c0-0.195,0.031-0.351,0.096-0.467c0.064-0.117,0.129-0.207,0.195-0.271c0.08-0.074,0.172-0.13,0.273-0.17
		c0.104-0.04,0.209-0.06,0.322-0.06c0.107,0,0.217,0.019,0.328,0.058c0.109,0.038,0.209,0.097,0.295,0.177
		c0.086,0.08,0.156,0.18,0.211,0.302s0.082,0.265,0.082,0.432c0,0.083-0.029,0.152-0.084,0.206
		c-0.057,0.054-0.125,0.082-0.205,0.082s-0.146-0.027-0.203-0.082s-0.084-0.123-0.084-0.206c0-0.086-0.012-0.155-0.035-0.207
		c-0.025-0.051-0.053-0.09-0.088-0.117c-0.033-0.027-0.07-0.045-0.109-0.055c-0.039-0.009-0.076-0.014-0.107-0.014
		c-0.023,0-0.051,0.004-0.086,0.012c-0.035,0.008-0.07,0.026-0.104,0.053c-0.033,0.027-0.062,0.066-0.086,0.118
		c-0.025,0.051-0.037,0.122-0.037,0.211v1.85v0.024c0,0.016,0,0.038,0,0.065c0,0.027,0.004,0.057,0.01,0.091
		s0.016,0.067,0.029,0.101c0.012,0.034,0.029,0.062,0.053,0.084c0.01,0.01,0.029,0.025,0.062,0.045
		c0.031,0.021,0.086,0.031,0.162,0.031c0.084,0,0.141-0.01,0.174-0.031c0.031-0.021,0.053-0.038,0.061-0.05
		c0.045-0.045,0.074-0.101,0.084-0.167c0.012-0.067,0.018-0.117,0.018-0.149c0-0.003,0-0.021,0-0.053
		c0-0.032,0.008-0.066,0.023-0.103s0.043-0.071,0.08-0.103c0.037-0.032,0.09-0.049,0.16-0.053c0.074-0.003,0.131,0.01,0.17,0.039
		c0.041,0.029,0.07,0.061,0.094,0.096C139.84,34.08,139.856,34.128,139.864,34.183z"/>
	<path fill="#665C4D" d="M142.045,34.65c0.057,0.056,0.084,0.124,0.084,0.204s-0.027,0.148-0.084,0.204
		c-0.055,0.056-0.123,0.084-0.203,0.084h-1.174c-0.08,0-0.148-0.028-0.203-0.084c-0.057-0.056-0.084-0.124-0.084-0.204V31.68
		c0-0.08,0.027-0.148,0.084-0.204c0.055-0.056,0.123-0.084,0.203-0.084h1.174c0.08,0,0.148,0.028,0.203,0.084
		c0.057,0.056,0.084,0.124,0.084,0.204c0,0.083-0.027,0.152-0.084,0.207c-0.055,0.054-0.123,0.081-0.203,0.081h-0.887v1.208h0.613
		c0.08,0,0.148,0.028,0.203,0.084c0.057,0.056,0.084,0.124,0.084,0.204c0,0.08-0.027,0.148-0.084,0.204
		c-0.055,0.056-0.123,0.084-0.203,0.084h-0.613v0.815h0.887C141.922,34.566,141.991,34.594,142.045,34.65z"/>
	<path fill="#665C4D" d="M144.278,31.398c0.08,0,0.146,0.028,0.203,0.084s0.084,0.124,0.084,0.204v3.168v0.019v0.014v0.005v0.01
		l-0.004,0.005v0.005v0.01v0.004c-0.004,0.003-0.006,0.006-0.006,0.01v0.005c0,0.003,0,0.004-0.002,0.004s-0.002,0.002-0.002,0.005
		c0,0.003-0.002,0.006-0.004,0.007c0,0.001-0.002,0.004-0.002,0.007c0,0.003,0,0.005-0.002,0.007
		c-0.002,0.002-0.002,0.004-0.002,0.007c0,0.003-0.002,0.005-0.002,0.005c-0.002,0-0.004,0.001-0.004,0.005v0.004
		c-0.002,0-0.004,0.002-0.004,0.005l-0.006,0.005c0,0.003,0,0.006-0.004,0.01l-0.004,0.005v0.005c-0.004,0-0.006,0.001-0.006,0.004
		c0,0.003-0.002,0.005-0.004,0.005c0,0.003-0.002,0.005-0.004,0.005c0,0-0.002,0.001-0.002,0.005h-0.004
		c0,0.003-0.002,0.006-0.006,0.009l-0.01,0.01l-0.01,0.01l-0.008,0.009h-0.006l-0.01,0.01c-0.002,0.003-0.006,0.005-0.01,0.005
		c0,0.003-0.002,0.004-0.004,0.004l-0.006,0.005c-0.002,0-0.004,0.001-0.004,0.002s-0.002,0.002-0.006,0.002h-0.004l-0.01,0.01
		c-0.014,0.006-0.023,0.011-0.033,0.014c-0.01,0.003-0.023,0.006-0.039,0.01c-0.012,0.003-0.031,0.005-0.057,0.005
		c-0.02,0-0.033-0.002-0.043-0.005h-0.01h-0.006c-0.002,0-0.004-0.001-0.004-0.005h-0.02v-0.005h-0.01
		c-0.012-0.006-0.02-0.009-0.023-0.009s-0.006-0.002-0.006-0.005h-0.004c-0.004,0-0.004-0.002-0.004-0.005
		c-0.004,0-0.008-0.002-0.01-0.005c-0.004,0-0.006-0.001-0.006-0.005h-0.004c-0.004,0-0.006,0-0.006-0.002
		c0-0.002-0.002-0.003-0.004-0.003c-0.035-0.025-0.064-0.056-0.086-0.091v-0.005c-0.004,0-0.006-0.001-0.006-0.005l-0.004-0.005
		v-0.004c-0.004-0.003-0.006-0.006-0.006-0.01c0-0.003-0.002-0.006-0.004-0.009l-0.82-1.894v1.783c0,0.08-0.027,0.147-0.084,0.204
		c-0.055,0.056-0.123,0.084-0.203,0.084s-0.148-0.028-0.203-0.084c-0.057-0.056-0.084-0.124-0.084-0.204V31.69v-0.019v-0.015v-0.005
		v-0.009l0.004-0.005v-0.005v-0.009v-0.005c0.004-0.003,0.006-0.007,0.006-0.01v-0.005c0-0.003,0-0.005,0.002-0.005
		s0.002-0.001,0.002-0.005c0-0.003,0-0.005,0.002-0.007c0.002-0.002,0.004-0.004,0.004-0.007s0-0.005,0.002-0.007
		c0.002-0.001,0.002-0.004,0.002-0.007c0-0.003,0-0.005,0.002-0.005s0.002-0.002,0.002-0.005v-0.005l0.01-0.01
		c0-0.003,0.002-0.004,0.004-0.004c0,0,0.002-0.001,0.002-0.005l0.004-0.005v-0.005c0.004-0.003,0.006-0.006,0.006-0.009h0.004
		c0-0.003,0-0.005,0.002-0.005s0.004-0.002,0.004-0.005h0.004c0-0.003,0.002-0.006,0.004-0.01l0.01-0.009v-0.005
		c0.004,0,0.008-0.001,0.01-0.005v-0.005c0.004,0,0.008-0.001,0.01-0.004h0.006l0.01-0.01l0.008-0.01h0.006
		c0-0.003,0.002-0.005,0.004-0.005c0.004,0,0.006,0,0.006-0.002c0-0.002,0.002-0.003,0.004-0.003h0.006l0.01-0.009
		c0.021-0.013,0.045-0.021,0.066-0.024h0.004c0.018-0.003,0.041-0.005,0.072-0.005h0.016h0.004l0.006,0.005h0.008h0.006h0.01
		c0,0.003,0.002,0.005,0.004,0.005h0.01h0.006c0,0.003,0.002,0.005,0.01,0.005c0.002,0.003,0.008,0.004,0.014,0.004
		c0.004,0.003,0.006,0.005,0.01,0.005h0.004c0,0.003,0.004,0.005,0.01,0.005v0.005c0.006,0,0.01,0.001,0.01,0.004h0.006
		c0.002,0,0.004,0.001,0.004,0.003c0,0.001,0.002,0.002,0.004,0.002l0.006,0.005l0.004,0.005l0.006,0.005h0.004
		c0.004,0.003,0.008,0.005,0.01,0.005v0.005c0.004,0,0.006,0,0.006,0.002c0,0.002,0,0.002,0.004,0.002v0.005
		c0.004,0,0.006,0.001,0.006,0.002s0,0.002,0.004,0.002v0.005l0.01,0.009l0.01,0.01l0.01,0.01c0,0.003,0.002,0.006,0.004,0.009
		c0.004,0,0.006,0.002,0.006,0.005c0,0.003,0,0.005,0.004,0.005c0,0.006,0.002,0.009,0.006,0.009v0.005
		c0.002,0.003,0.004,0.007,0.004,0.01h0.004c0,0.006,0.002,0.01,0.004,0.012c0,0.002,0.002,0.004,0.002,0.007l0.82,1.894v-1.783
		c0-0.08,0.027-0.148,0.082-0.204C144.129,31.426,144.198,31.398,144.278,31.398z"/>
	<path fill="#665C4D" d="M146.815,31.484c0.057,0.054,0.084,0.123,0.084,0.206c0,0.08-0.027,0.148-0.084,0.204
		c-0.055,0.056-0.123,0.084-0.203,0.084h-0.445v2.876c0,0.08-0.029,0.148-0.084,0.204c-0.057,0.056-0.125,0.084-0.203,0.084
		c-0.08,0-0.148-0.028-0.205-0.084c-0.055-0.056-0.084-0.124-0.084-0.204v-2.876h-0.455c-0.08,0-0.148-0.028-0.203-0.084
		c-0.057-0.056-0.084-0.124-0.084-0.204c0-0.083,0.027-0.152,0.084-0.206c0.055-0.054,0.123-0.082,0.203-0.082h1.477
		C146.692,31.403,146.76,31.43,146.815,31.484z"/>
	<path fill="#665C4D" d="M147.532,31.398c0.084,0,0.152,0.028,0.207,0.084s0.08,0.124,0.08,0.204v3.173
		c0,0.08-0.025,0.147-0.08,0.204s-0.123,0.084-0.207,0.084c-0.08,0-0.148-0.028-0.203-0.084c-0.057-0.056-0.084-0.124-0.084-0.204
		v-3.173c0-0.08,0.027-0.148,0.084-0.204C147.383,31.426,147.452,31.398,147.532,31.398z"/>
	<path fill="#665C4D" d="M150.637,34.859c0,0.08-0.027,0.147-0.082,0.204c-0.057,0.056-0.125,0.084-0.205,0.084
		s-0.148-0.028-0.203-0.084c-0.057-0.056-0.084-0.124-0.084-0.204v-1.975l-0.303,0.594c-0.025,0.07-0.072,0.122-0.139,0.153
		c-0.037,0.02-0.078,0.029-0.119,0.029h-0.006h-0.004h-0.006h-0.004c-0.041,0-0.082-0.01-0.119-0.029
		c-0.068-0.032-0.113-0.083-0.141-0.153l-0.301-0.594v1.975c0,0.08-0.029,0.147-0.084,0.204c-0.057,0.056-0.125,0.084-0.203,0.084
		c-0.08,0-0.148-0.028-0.205-0.084c-0.055-0.056-0.084-0.124-0.084-0.204v-3.173v-0.014v-0.015v-0.005v-0.005
		c0-0.003,0.002-0.004,0.004-0.004c0,0,0.002-0.001,0.002-0.005v-0.005v-0.009c0-0.003,0-0.006,0.002-0.007s0.002-0.004,0.002-0.007
		c0.004-0.019,0.01-0.037,0.02-0.053c0-0.003,0-0.005,0.002-0.005s0.004-0.001,0.004-0.005l0.004-0.005l0.004-0.004
		c0-0.003,0.002-0.006,0.006-0.01v-0.005l0.01-0.009c0.006-0.007,0.012-0.013,0.016-0.02c0.006-0.006,0.012-0.013,0.018-0.019
		l0.01-0.009h0.004c0-0.003,0.002-0.005,0.004-0.005c0,0,0.002-0.002,0.002-0.005h0.004c0.004-0.003,0.006-0.005,0.01-0.005
		c0-0.003,0.002-0.005,0.006-0.005l0.004-0.005l0.01-0.005c0.004-0.003,0.006-0.004,0.01-0.004l0.004-0.005
		c0.004,0,0.008-0.001,0.01-0.005c0.004,0,0.006,0,0.008-0.002c0.002-0.001,0.004-0.002,0.008-0.002c0.002,0,0.004,0,0.006-0.002
		c0.002-0.001,0.004-0.002,0.008-0.002s0.006-0.002,0.01-0.005h0.004h0.01l0.006-0.005h0.004h0.01h0.006
		c0.002-0.003,0.006-0.005,0.008-0.005h0.006h0.014h0.016h0.014h0.01h0.004c0.004,0,0.008,0.001,0.01,0.005h0.01h0.006h0.008
		c0.014,0.006,0.025,0.01,0.035,0.012c0.01,0.002,0.018,0.006,0.027,0.012h0.006c0,0.003,0.002,0.005,0.01,0.005
		c0,0.003,0.002,0.004,0.004,0.004l0.006,0.005c0.002,0,0.006,0.002,0.01,0.005l0.008,0.01h0.006
		c0.016,0.01,0.029,0.022,0.039,0.038l0.008,0.01l0.01,0.01c0,0.003,0.002,0.005,0.004,0.005c0,0,0.002,0.001,0.002,0.004
		l0.004,0.005l0.006,0.005c0,0.003,0.002,0.006,0.004,0.009c0,0.003,0.002,0.006,0.002,0.007c0.002,0.001,0.004,0.004,0.004,0.007
		l0.604,1.184l0.604-1.184c0-0.006,0.002-0.011,0.006-0.015c0.002-0.003,0.004-0.006,0.004-0.009c0.004,0,0.004-0.001,0.004-0.005
		l0.006-0.005c0-0.003,0.002-0.006,0.004-0.009l0.01-0.01l0.01-0.01c0.01-0.016,0.023-0.028,0.039-0.038l0.01-0.01h0.004
		c0.004-0.003,0.006-0.005,0.01-0.005l0.006-0.005c0.002,0,0.004-0.001,0.004-0.004c0.006,0,0.01-0.001,0.01-0.005h0.004
		c0.008-0.006,0.016-0.01,0.025-0.012c0.01-0.001,0.018-0.004,0.023-0.007c0.006,0,0.012-0.002,0.014-0.005h0.01h0.006h0.01
		c0-0.003,0-0.005,0.004-0.005h0.01h0.01h0.014h0.016h0.014c0.006,0,0.012,0.001,0.014,0.005h0.01h0.01l0.006,0.005h0.008h0.006
		l0.01,0.005c0.002,0,0.006,0,0.008,0.002c0,0.002,0.004,0.002,0.006,0.002c0.004,0,0.006,0.002,0.01,0.005h0.006
		c0.002,0.003,0.006,0.005,0.008,0.005v0.005c0.008,0,0.012,0.001,0.016,0.004c0.002,0.003,0.006,0.005,0.01,0.005l0.004,0.005
		l0.006,0.005c0.002,0,0.006,0.002,0.01,0.005l0.008,0.01c0.008,0,0.01,0.003,0.01,0.009c0.016,0.01,0.029,0.022,0.039,0.039
		l0.01,0.009v0.005c0.004,0.003,0.004,0.006,0.004,0.01c0.004,0,0.006,0.001,0.006,0.004l0.004,0.005
		c0,0.003,0.002,0.007,0.006,0.01c0.006,0.016,0.012,0.034,0.02,0.053c0,0.006,0,0.011,0.004,0.015v0.009v0.005
		c0,0.003,0.002,0.006,0.004,0.009v0.005v0.005v0.015v0.014V34.859z"/>
	<path fill="#665C4D" d="M152.811,34.65c0.057,0.056,0.084,0.124,0.084,0.204s-0.027,0.148-0.084,0.204
		c-0.055,0.056-0.123,0.084-0.203,0.084h-1.174c-0.08,0-0.148-0.028-0.203-0.084c-0.057-0.056-0.084-0.124-0.084-0.204V31.68
		c0-0.08,0.027-0.148,0.084-0.204c0.055-0.056,0.123-0.084,0.203-0.084h1.174c0.08,0,0.148,0.028,0.203,0.084
		c0.057,0.056,0.084,0.124,0.084,0.204c0,0.083-0.027,0.152-0.084,0.207c-0.055,0.054-0.123,0.081-0.203,0.081h-0.887v1.208h0.613
		c0.08,0,0.148,0.028,0.203,0.084c0.057,0.056,0.084,0.124,0.084,0.204c0,0.08-0.027,0.148-0.084,0.204
		c-0.055,0.056-0.123,0.084-0.203,0.084h-0.613v0.815h0.887C152.688,34.566,152.756,34.594,152.811,34.65z"/>
	<path fill="#665C4D" d="M155.151,31.484c0.057,0.054,0.084,0.123,0.084,0.206c0,0.08-0.027,0.148-0.084,0.204
		c-0.057,0.056-0.123,0.084-0.203,0.084h-0.445v2.876c0,0.08-0.029,0.148-0.084,0.204c-0.057,0.056-0.125,0.084-0.205,0.084
		s-0.148-0.028-0.203-0.084c-0.057-0.056-0.084-0.124-0.084-0.204v-2.876h-0.455c-0.08,0-0.148-0.028-0.203-0.084
		c-0.057-0.056-0.084-0.124-0.084-0.204c0-0.083,0.027-0.152,0.084-0.206c0.055-0.054,0.123-0.082,0.203-0.082h1.477
		C155.028,31.403,155.094,31.43,155.151,31.484z"/>
	<path fill="#665C4D" d="M157.227,34.65c0.055,0.056,0.084,0.124,0.084,0.204s-0.029,0.148-0.084,0.204
		c-0.057,0.056-0.125,0.084-0.205,0.084h-1.174c-0.08,0-0.148-0.028-0.203-0.084c-0.057-0.056-0.084-0.124-0.084-0.204V31.68
		c0-0.08,0.027-0.148,0.084-0.204c0.055-0.056,0.123-0.084,0.203-0.084h1.174c0.08,0,0.148,0.028,0.205,0.084
		c0.055,0.056,0.084,0.124,0.084,0.204c0,0.083-0.029,0.152-0.084,0.207c-0.057,0.054-0.125,0.081-0.205,0.081h-0.887v1.208h0.613
		c0.08,0,0.148,0.028,0.205,0.084c0.055,0.056,0.084,0.124,0.084,0.204c0,0.08-0.029,0.148-0.084,0.204
		c-0.057,0.056-0.125,0.084-0.205,0.084h-0.613v0.815h0.887C157.102,34.566,157.17,34.594,157.227,34.65z"/>
	<path fill="#665C4D" d="M159.711,34.739c0.035,0.074,0.037,0.147,0.008,0.221c-0.031,0.073-0.082,0.126-0.156,0.158
		c-0.039,0.016-0.076,0.024-0.115,0.024c-0.055,0-0.105-0.015-0.152-0.045c-0.049-0.03-0.086-0.073-0.111-0.127l-0.531-1.218h-0.289
		v1.103c0,0.08-0.027,0.148-0.082,0.204c-0.057,0.056-0.125,0.084-0.205,0.084s-0.146-0.028-0.203-0.084
		c-0.057-0.056-0.084-0.124-0.084-0.204V31.69c0-0.08,0.027-0.148,0.084-0.204c0.057-0.056,0.123-0.084,0.203-0.084h0.695
		c0.121,0,0.238,0.034,0.35,0.103c0.113,0.069,0.209,0.167,0.293,0.295c0.145,0.227,0.215,0.486,0.215,0.776
		c0,0.141-0.018,0.276-0.055,0.407c-0.037,0.131-0.09,0.252-0.16,0.365c-0.031,0.048-0.066,0.091-0.102,0.129
		c-0.035,0.039-0.07,0.074-0.105,0.105L159.711,34.739z M158.772,33.176c0.016,0,0.037-0.01,0.064-0.031
		c0.027-0.021,0.059-0.057,0.094-0.107c0.041-0.064,0.072-0.136,0.094-0.216c0.021-0.08,0.031-0.162,0.031-0.245
		s-0.01-0.166-0.031-0.247s-0.053-0.154-0.094-0.218c-0.035-0.048-0.066-0.083-0.094-0.103c-0.027-0.021-0.049-0.031-0.064-0.031
		h-0.408v1.198H158.772z"/>
	<path fill="#665C4D" d="M161.725,33.387c0.188,0.236,0.283,0.513,0.283,0.829c0,0.099-0.012,0.188-0.031,0.266
		c-0.021,0.079-0.047,0.148-0.078,0.208c-0.029,0.061-0.064,0.113-0.102,0.158c-0.039,0.045-0.078,0.083-0.115,0.115
		c-0.18,0.144-0.396,0.216-0.652,0.216c-0.125,0-0.242-0.018-0.35-0.053c-0.109-0.036-0.205-0.09-0.287-0.163
		c-0.035-0.029-0.072-0.065-0.109-0.11c-0.035-0.045-0.07-0.098-0.1-0.158c-0.031-0.061-0.055-0.131-0.074-0.211
		s-0.029-0.171-0.029-0.273c0-0.08,0.027-0.147,0.084-0.204c0.057-0.056,0.123-0.083,0.203-0.083c0.084,0,0.152,0.028,0.207,0.083
		c0.055,0.056,0.082,0.124,0.082,0.204c0,0.045,0.004,0.091,0.012,0.137c0.008,0.046,0.023,0.089,0.051,0.127
		c0.025,0.039,0.062,0.07,0.111,0.094c0.051,0.024,0.115,0.036,0.199,0.036c0.057,0,0.111-0.007,0.16-0.022
		c0.051-0.014,0.092-0.036,0.127-0.064c0.078-0.067,0.115-0.168,0.115-0.302c0-0.099-0.012-0.185-0.037-0.259
		c-0.027-0.073-0.064-0.142-0.113-0.204s-0.111-0.122-0.182-0.177c-0.072-0.056-0.154-0.116-0.242-0.18
		c-0.084-0.058-0.166-0.118-0.248-0.18c-0.08-0.062-0.156-0.134-0.227-0.214c-0.084-0.102-0.146-0.208-0.189-0.318
		s-0.064-0.231-0.064-0.362c0-0.019,0-0.054,0.002-0.105s0.01-0.11,0.023-0.177c0.016-0.067,0.039-0.138,0.072-0.211
		c0.033-0.074,0.082-0.144,0.146-0.211c0.055-0.061,0.135-0.12,0.244-0.178s0.25-0.086,0.422-0.086c0.176,0,0.316,0.029,0.42,0.088
		s0.182,0.119,0.236,0.18c0.061,0.073,0.105,0.15,0.137,0.232c0.031,0.081,0.051,0.156,0.061,0.225s0.012,0.128,0.01,0.18
		c-0.004,0.051-0.008,0.082-0.01,0.091c-0.01,0.057-0.029,0.105-0.059,0.144c-0.025,0.035-0.059,0.064-0.102,0.089
		c-0.043,0.024-0.102,0.028-0.176,0.012c-0.07-0.013-0.123-0.036-0.156-0.069c-0.033-0.034-0.055-0.069-0.066-0.105
		s-0.016-0.069-0.014-0.098c0-0.029,0.002-0.046,0.002-0.053c0.002-0.013,0.004-0.031,0.004-0.053c0-0.022-0.002-0.046-0.006-0.072
		c-0.006-0.026-0.014-0.051-0.023-0.077c-0.008-0.025-0.021-0.048-0.037-0.067c-0.039-0.048-0.113-0.072-0.221-0.072
		c-0.086,0-0.146,0.011-0.18,0.033c-0.033,0.022-0.055,0.039-0.064,0.048c-0.023,0.022-0.039,0.048-0.051,0.077
		c-0.012,0.028-0.02,0.058-0.025,0.086c-0.008,0.029-0.012,0.054-0.014,0.074c0,0.021-0.002,0.036-0.002,0.046v0.01v0.009
		c0,0.064,0.012,0.122,0.033,0.175c0.023,0.053,0.055,0.103,0.094,0.149c0.041,0.046,0.09,0.093,0.15,0.139
		c0.062,0.046,0.131,0.097,0.207,0.151c0.09,0.063,0.182,0.132,0.275,0.206C161.557,33.206,161.645,33.291,161.725,33.387z"/>
	<path fill="#665C4D" d="M136.286,39.94c0,0.019-0.002,0.056-0.004,0.11s-0.01,0.116-0.025,0.185s-0.041,0.142-0.074,0.22
		s-0.082,0.151-0.146,0.219c-0.059,0.061-0.139,0.119-0.244,0.177s-0.244,0.087-0.412,0.087c-0.174,0-0.311-0.029-0.412-0.087
		c-0.104-0.058-0.182-0.116-0.236-0.177c-0.062-0.07-0.113-0.146-0.148-0.226s-0.059-0.156-0.074-0.228
		c-0.014-0.072-0.021-0.136-0.021-0.192s0-0.095,0-0.118v-1.835c0-0.195,0.033-0.351,0.096-0.467
		c0.064-0.117,0.131-0.207,0.197-0.271c0.162-0.153,0.361-0.23,0.594-0.23c0.109,0,0.217,0.019,0.326,0.058
		c0.109,0.038,0.207,0.097,0.293,0.177c0.086,0.08,0.156,0.18,0.211,0.302s0.082,0.265,0.082,0.432V39.94z M135.547,37.72
		c-0.029-0.016-0.059-0.026-0.09-0.031c-0.029-0.005-0.059-0.007-0.084-0.007c-0.021,0-0.051,0.004-0.086,0.012
		c-0.035,0.008-0.07,0.026-0.104,0.053c-0.033,0.027-0.062,0.066-0.086,0.118s-0.035,0.122-0.035,0.211v0.911L135.547,37.72z
		 M135.614,40.28c0.041-0.044,0.068-0.101,0.082-0.17c0.012-0.069,0.018-0.117,0.014-0.146v-0.014v-1.045l-0.537,1.4
		c0.016,0.013,0.039,0.025,0.07,0.038c0.029,0.013,0.076,0.019,0.137,0.019c0.08,0,0.137-0.011,0.17-0.034
		C135.583,40.305,135.604,40.289,135.614,40.28z"/>
	<path fill="#665C4D" d="M136.606,40.227c0.08,0,0.148,0.028,0.203,0.084c0.057,0.056,0.084,0.124,0.084,0.204
		c0,0.083-0.027,0.152-0.084,0.208c-0.055,0.056-0.123,0.084-0.203,0.084c-0.084,0-0.152-0.028-0.209-0.084
		s-0.084-0.125-0.084-0.208c0-0.08,0.027-0.148,0.084-0.204C136.454,40.255,136.522,40.227,136.606,40.227z"/>
	<path fill="#665C4D" d="M138.877,39.94c0,0.268-0.064,0.485-0.191,0.651c-0.182,0.233-0.469,0.35-0.863,0.35
		c-0.176,0-0.314-0.029-0.418-0.088c-0.105-0.06-0.184-0.119-0.238-0.18c-0.064-0.07-0.109-0.146-0.139-0.229
		c-0.029-0.081-0.049-0.157-0.059-0.227c-0.008-0.07-0.012-0.13-0.008-0.18c0.002-0.05,0.006-0.081,0.008-0.094
		c0.014-0.044,0.035-0.084,0.062-0.12c0.025-0.029,0.061-0.054,0.102-0.077s0.094-0.029,0.158-0.019
		c0.064,0.009,0.113,0.03,0.146,0.062s0.059,0.065,0.074,0.101c0.016,0.042,0.025,0.086,0.027,0.134
		c-0.002,0.022-0.002,0.063,0.004,0.122c0.004,0.06,0.023,0.108,0.059,0.146c0.039,0.048,0.113,0.072,0.221,0.072
		c0.1,0,0.182-0.009,0.244-0.026c0.064-0.018,0.113-0.044,0.146-0.082c0.033-0.037,0.057-0.082,0.07-0.134
		c0.012-0.053,0.02-0.114,0.02-0.185c0-0.313-0.059-0.531-0.174-0.652c-0.088-0.089-0.238-0.134-0.445-0.134
		c-0.08,0-0.148-0.028-0.203-0.084c-0.057-0.056-0.084-0.124-0.084-0.204v-0.005c0-0.083,0.027-0.151,0.084-0.206
		c0.055-0.054,0.123-0.081,0.203-0.081c0.029,0,0.062,0,0.104,0c0.039,0,0.078-0.002,0.117-0.005s0.074-0.008,0.105-0.015
		c0.031-0.006,0.055-0.016,0.066-0.028c0.004-0.003,0.01-0.012,0.02-0.026c0.01-0.015,0.02-0.039,0.029-0.075
		c0.01-0.035,0.018-0.082,0.023-0.141s0.01-0.135,0.01-0.228v-0.015c0.004-0.025,0-0.069-0.012-0.132s-0.037-0.114-0.08-0.156
		c-0.008-0.009-0.031-0.025-0.066-0.048s-0.094-0.034-0.178-0.034c-0.107,0-0.182,0.024-0.221,0.072
		c-0.035,0.038-0.055,0.087-0.059,0.146c-0.006,0.059-0.006,0.101-0.004,0.127v-0.005c0.004,0.051-0.002,0.098-0.018,0.139
		c-0.018,0.035-0.041,0.07-0.074,0.105c-0.035,0.035-0.088,0.058-0.162,0.067c-0.072,0.01-0.131,0.003-0.172-0.019
		s-0.074-0.05-0.096-0.082c-0.025-0.035-0.041-0.078-0.049-0.129c-0.002-0.01-0.006-0.04-0.008-0.091
		c-0.004-0.051,0-0.111,0.008-0.18c0.01-0.069,0.029-0.143,0.059-0.223s0.074-0.157,0.139-0.23c0.055-0.064,0.133-0.125,0.238-0.185
		c0.104-0.059,0.242-0.089,0.418-0.089s0.318,0.029,0.424,0.086c0.107,0.058,0.189,0.117,0.242,0.177
		c0.061,0.067,0.109,0.138,0.145,0.211s0.061,0.144,0.074,0.211c0.014,0.067,0.021,0.126,0.023,0.177s0.004,0.086,0.004,0.105
		c0,0.109-0.006,0.205-0.016,0.288s-0.021,0.158-0.037,0.226c-0.035,0.121-0.086,0.222-0.15,0.302l0.01,0.01
		C138.766,39.116,138.877,39.467,138.877,39.94z"/>
	<path fill="#665C4D" d="M140.579,37.164c0.08,0,0.148,0.028,0.205,0.083c0.055,0.056,0.084,0.124,0.084,0.204v3.169
		c0,0.08-0.029,0.147-0.084,0.203c-0.057,0.057-0.125,0.084-0.205,0.084s-0.146-0.027-0.203-0.084
		c-0.057-0.056-0.084-0.123-0.084-0.203v-1.299h-1.098c-0.045,0-0.086-0.009-0.127-0.029c-0.039-0.019-0.072-0.046-0.098-0.082
		c-0.061-0.077-0.078-0.16-0.053-0.249l0.422-1.582c0.02-0.077,0.062-0.135,0.131-0.175s0.143-0.05,0.219-0.031
		c0.076,0.022,0.135,0.068,0.174,0.137c0.041,0.069,0.051,0.141,0.031,0.218l-0.324,1.217h0.723v-1.294
		c0-0.08,0.027-0.147,0.084-0.204C140.432,37.192,140.499,37.164,140.579,37.164z"/>
	<path fill="#665C4D" d="M143.877,37.15c0.082,0,0.152,0.028,0.205,0.084c0.055,0.056,0.082,0.124,0.082,0.204v3.173
		c0,0.08-0.027,0.147-0.082,0.203c-0.053,0.057-0.123,0.084-0.205,0.084c-0.08,0-0.148-0.027-0.203-0.084
		c-0.057-0.056-0.084-0.123-0.084-0.203v-3.173c0-0.08,0.027-0.148,0.084-0.204C143.729,37.178,143.797,37.15,143.877,37.15z"/>
	<path fill="#665C4D" d="M146.374,37.15c0.08,0,0.148,0.028,0.205,0.084c0.055,0.056,0.084,0.124,0.084,0.204v3.168v0.019v0.015
		v0.005v0.01l-0.006,0.005v0.005v0.01v0.004c-0.002,0.004-0.004,0.007-0.004,0.01v0.006c0,0.002-0.002,0.004-0.002,0.004
		c-0.002,0-0.004,0.002-0.004,0.005s0,0.006-0.002,0.007c-0.002,0.002-0.002,0.004-0.002,0.008c0,0.003,0,0.006-0.002,0.007
		c-0.002,0.002-0.004,0.005-0.004,0.007c0,0.004,0,0.006-0.002,0.006s-0.002,0.001-0.002,0.004v0.005
		c-0.004,0-0.004,0.002-0.004,0.005l-0.006,0.005c0,0.003-0.002,0.007-0.004,0.01l-0.006,0.005v0.005
		c-0.002,0-0.004,0.001-0.004,0.005c0,0.003-0.002,0.004-0.006,0.004c0,0.004,0,0.006-0.002,0.006s-0.002,0.001-0.002,0.004h-0.006
		c0,0.004-0.002,0.007-0.004,0.01l-0.01,0.01l-0.01,0.01l-0.01,0.01h-0.004l-0.01,0.01c-0.004,0.003-0.006,0.004-0.01,0.004
		c0,0.004-0.002,0.005-0.006,0.005l-0.004,0.005c-0.004,0-0.004,0.001-0.004,0.002c0,0.002-0.002,0.003-0.006,0.003h-0.004
		l-0.01,0.01c-0.014,0.007-0.023,0.011-0.033,0.015c-0.01,0.003-0.023,0.006-0.039,0.01c-0.014,0.003-0.031,0.004-0.059,0.004
		c-0.018,0-0.033-0.001-0.043-0.004h-0.008h-0.006c-0.004,0-0.004-0.002-0.004-0.006h-0.02v-0.004h-0.01
		c-0.014-0.007-0.021-0.01-0.023-0.01c-0.004,0-0.006-0.002-0.006-0.005h-0.004c-0.004,0-0.006-0.002-0.006-0.005
		c-0.002,0-0.006-0.002-0.01-0.005c-0.002,0-0.004-0.001-0.004-0.005h-0.006c-0.002,0-0.004,0-0.004-0.002s-0.002-0.003-0.006-0.003
		c-0.033-0.025-0.062-0.056-0.086-0.091v-0.005c-0.002,0-0.004-0.001-0.004-0.005l-0.006-0.005V40.74
		c-0.002-0.003-0.004-0.006-0.004-0.01c0-0.002-0.002-0.006-0.004-0.009l-0.82-1.894v1.783c0,0.08-0.029,0.147-0.084,0.203
		c-0.057,0.057-0.125,0.084-0.203,0.084c-0.08,0-0.148-0.027-0.205-0.084c-0.055-0.056-0.084-0.123-0.084-0.203v-3.168v-0.019
		v-0.015v-0.005v-0.009l0.006-0.005v-0.005v-0.009V37.37c0.002-0.003,0.004-0.007,0.004-0.01v-0.005
		c0-0.003,0.002-0.005,0.002-0.005c0.002,0,0.004-0.001,0.004-0.005c0-0.003,0-0.005,0.002-0.007
		c0.002-0.002,0.002-0.004,0.002-0.007s0.002-0.005,0.002-0.007c0.002-0.001,0.004-0.004,0.004-0.007c0-0.003,0-0.005,0.002-0.005
		s0.002-0.001,0.002-0.005v-0.005l0.01-0.01c0-0.003,0-0.004,0.002-0.004s0.002-0.001,0.002-0.005l0.006-0.005v-0.005
		c0.002-0.003,0.004-0.006,0.004-0.009h0.006c0-0.003,0-0.005,0.002-0.005s0.002-0.002,0.002-0.005h0.006
		c0-0.003,0.002-0.006,0.004-0.01l0.01-0.009v-0.005c0.004,0,0.006-0.001,0.01-0.005v-0.004c0.004,0,0.006-0.002,0.01-0.005h0.004
		l0.01-0.01l0.01-0.01h0.006c0-0.003,0-0.005,0.004-0.005s0.006,0,0.006-0.002c0-0.002,0-0.003,0.004-0.003h0.004l0.01-0.009
		c0.023-0.013,0.045-0.021,0.068-0.024h0.004c0.016-0.003,0.041-0.005,0.072-0.005h0.014h0.006l0.004,0.005h0.01h0.006h0.008
		c0,0.003,0.002,0.005,0.006,0.005h0.01h0.004c0,0.003,0.004,0.005,0.01,0.005c0.004,0.003,0.008,0.004,0.016,0.004
		c0.002,0.003,0.006,0.005,0.008,0.005h0.006c0,0.003,0.004,0.005,0.01,0.005v0.005c0.006,0,0.01,0.001,0.01,0.004h0.004
		c0.004,0,0.006,0.001,0.006,0.003c0,0.001,0,0.002,0.004,0.002l0.006,0.005l0.004,0.005l0.006,0.005h0.004
		c0.004,0.003,0.006,0.005,0.01,0.005v0.005c0.002,0,0.004,0,0.004,0.002c0,0.002,0.002,0.003,0.006,0.003v0.004
		c0.002,0,0.004,0.001,0.004,0.002c0,0.002,0.002,0.002,0.006,0.002v0.005l0.01,0.009l0.008,0.01l0.01,0.01
		c0,0.003,0.002,0.006,0.006,0.009c0.002,0,0.004,0.002,0.004,0.005c0,0.003,0.002,0.005,0.006,0.005
		c0,0.006,0.002,0.009,0.004,0.009v0.005c0.004,0.003,0.006,0.007,0.006,0.01h0.004c0,0.006,0,0.01,0.002,0.012
		c0.002,0.001,0.004,0.004,0.004,0.007l0.818,1.894v-1.783c0-0.08,0.029-0.148,0.084-0.204
		C146.227,37.178,146.295,37.15,146.374,37.15z"/>
	<path fill="#665C4D" d="M148.991,39.935c0,0.009,0,0.041-0.002,0.093s-0.01,0.115-0.023,0.187
		c-0.014,0.072-0.039,0.149-0.074,0.232s-0.086,0.16-0.154,0.229c-0.053,0.062-0.135,0.12-0.242,0.178
		c-0.105,0.058-0.244,0.086-0.414,0.086s-0.307-0.028-0.41-0.086s-0.182-0.116-0.236-0.178c-0.064-0.069-0.113-0.145-0.148-0.225
		s-0.061-0.156-0.074-0.228c-0.016-0.072-0.021-0.136-0.021-0.192s0-0.095,0-0.118v-1.84c0-0.195,0.031-0.351,0.096-0.467
		c0.062-0.117,0.129-0.207,0.195-0.271c0.08-0.074,0.172-0.13,0.273-0.17c0.104-0.04,0.209-0.06,0.322-0.06
		c0.107,0,0.217,0.019,0.328,0.058c0.109,0.038,0.209,0.097,0.295,0.177c0.086,0.08,0.156,0.18,0.211,0.302s0.08,0.265,0.08,0.432
		c0,0.083-0.027,0.152-0.082,0.206c-0.057,0.054-0.125,0.082-0.205,0.082s-0.148-0.027-0.203-0.082
		c-0.057-0.054-0.084-0.123-0.084-0.206c0-0.086-0.012-0.155-0.035-0.207c-0.025-0.051-0.053-0.09-0.088-0.117
		c-0.033-0.027-0.07-0.045-0.109-0.055c-0.041-0.009-0.076-0.014-0.107-0.014c-0.023,0-0.051,0.004-0.086,0.012
		c-0.037,0.008-0.07,0.026-0.104,0.053c-0.033,0.027-0.062,0.066-0.086,0.118c-0.025,0.051-0.037,0.122-0.037,0.211v1.85v0.024
		c0,0.016,0,0.038,0,0.065c0,0.027,0.004,0.058,0.01,0.091c0.006,0.034,0.016,0.067,0.029,0.101
		c0.012,0.034,0.029,0.062,0.053,0.084c0.01,0.01,0.029,0.025,0.062,0.045c0.031,0.021,0.086,0.031,0.162,0.031
		c0.084,0,0.141-0.01,0.172-0.031c0.033-0.021,0.053-0.038,0.062-0.05c0.045-0.045,0.074-0.101,0.084-0.167
		c0.012-0.067,0.018-0.117,0.018-0.149c0-0.003,0-0.021,0-0.053c0-0.032,0.008-0.066,0.023-0.103s0.043-0.071,0.08-0.103
		c0.035-0.032,0.09-0.049,0.16-0.053c0.074-0.003,0.131,0.01,0.17,0.039s0.07,0.061,0.094,0.096
		C148.969,39.832,148.985,39.88,148.991,39.935z"/>
	<path fill="#665C4D" d="M151.12,37.15c0.08,0,0.148,0.028,0.203,0.084c0.057,0.056,0.084,0.124,0.084,0.204v3.173
		c0,0.08-0.027,0.147-0.084,0.203c-0.055,0.057-0.123,0.084-0.203,0.084s-0.148-0.027-0.203-0.084
		c-0.057-0.056-0.084-0.123-0.084-0.203v-1.103h-0.748v1.103c0,0.08-0.027,0.147-0.084,0.203c-0.057,0.057-0.123,0.084-0.203,0.084
		s-0.148-0.027-0.205-0.084c-0.055-0.056-0.084-0.123-0.084-0.203v-3.173c0-0.08,0.029-0.148,0.084-0.204
		c0.057-0.056,0.125-0.084,0.205-0.084s0.146,0.028,0.203,0.084s0.084,0.124,0.084,0.204v1.496h0.748v-1.496
		c0-0.08,0.027-0.148,0.084-0.204C150.971,37.178,151.04,37.15,151.12,37.15z"/>
	<path fill="#665C4D" d="M153.643,40.402c0.057,0.056,0.084,0.124,0.084,0.204s-0.027,0.147-0.084,0.204
		c-0.055,0.056-0.123,0.084-0.203,0.084h-1.174c-0.08,0-0.148-0.028-0.205-0.084c-0.055-0.057-0.084-0.124-0.084-0.204v-3.173
		c0-0.08,0.029-0.148,0.084-0.204c0.057-0.056,0.125-0.084,0.205-0.084h1.174c0.08,0,0.148,0.028,0.203,0.084
		c0.057,0.056,0.084,0.124,0.084,0.204c0,0.083-0.027,0.152-0.084,0.207c-0.055,0.054-0.123,0.081-0.203,0.081h-0.887v1.208h0.613
		c0.08,0,0.148,0.028,0.203,0.084c0.057,0.056,0.084,0.124,0.084,0.204c0,0.08-0.027,0.148-0.084,0.204
		c-0.055,0.056-0.123,0.084-0.203,0.084h-0.613v0.815h0.887C153.52,40.318,153.588,40.346,153.643,40.402z"/>
	<path fill="#665C4D" d="M155.788,39.139c0.189,0.236,0.283,0.513,0.283,0.829c0,0.099-0.01,0.188-0.031,0.266
		c-0.02,0.079-0.045,0.148-0.076,0.208s-0.064,0.113-0.104,0.158c-0.037,0.045-0.076,0.083-0.115,0.115
		c-0.178,0.144-0.396,0.216-0.65,0.216c-0.125,0-0.242-0.018-0.352-0.053c-0.107-0.035-0.203-0.09-0.287-0.163
		c-0.035-0.029-0.07-0.065-0.107-0.11s-0.07-0.098-0.102-0.158c-0.029-0.061-0.055-0.131-0.074-0.211
		c-0.018-0.08-0.027-0.171-0.027-0.273c0-0.08,0.027-0.147,0.084-0.204c0.055-0.056,0.123-0.083,0.203-0.083
		c0.082,0,0.152,0.028,0.205,0.083c0.055,0.056,0.082,0.124,0.082,0.204c0,0.045,0.004,0.091,0.012,0.137
		c0.008,0.046,0.025,0.089,0.051,0.127c0.025,0.039,0.062,0.07,0.113,0.094c0.049,0.024,0.115,0.036,0.199,0.036
		c0.057,0,0.109-0.007,0.16-0.022c0.049-0.014,0.092-0.036,0.127-0.064c0.076-0.067,0.115-0.168,0.115-0.302
		c0-0.099-0.014-0.185-0.039-0.259c-0.025-0.073-0.062-0.142-0.113-0.204c-0.049-0.062-0.109-0.122-0.182-0.177
		s-0.152-0.116-0.242-0.18c-0.082-0.058-0.164-0.118-0.246-0.18c-0.082-0.062-0.158-0.134-0.229-0.214
		c-0.082-0.102-0.146-0.208-0.189-0.318s-0.064-0.231-0.064-0.362c0-0.019,0.002-0.054,0.002-0.105
		c0.002-0.051,0.01-0.11,0.025-0.177c0.014-0.067,0.037-0.138,0.07-0.211c0.035-0.074,0.084-0.144,0.146-0.211
		c0.055-0.061,0.137-0.12,0.246-0.178c0.107-0.058,0.248-0.086,0.42-0.086c0.176,0,0.316,0.029,0.42,0.088s0.184,0.119,0.238,0.18
		c0.061,0.073,0.105,0.15,0.137,0.232c0.029,0.081,0.049,0.156,0.059,0.225s0.014,0.128,0.01,0.18
		c-0.002,0.051-0.006,0.082-0.01,0.091c-0.01,0.058-0.027,0.105-0.057,0.144c-0.025,0.035-0.061,0.065-0.104,0.089
		s-0.102,0.028-0.174,0.012c-0.07-0.013-0.123-0.036-0.156-0.069s-0.057-0.069-0.068-0.105c-0.01-0.037-0.016-0.069-0.014-0.098
		s0.002-0.046,0.002-0.053c0.004-0.013,0.006-0.031,0.006-0.053c0-0.022-0.002-0.046-0.008-0.072
		c-0.004-0.026-0.012-0.051-0.021-0.077c-0.01-0.025-0.021-0.048-0.039-0.067c-0.037-0.048-0.111-0.072-0.221-0.072
		c-0.086,0-0.145,0.011-0.18,0.033c-0.033,0.022-0.055,0.039-0.064,0.048c-0.021,0.022-0.039,0.048-0.049,0.077
		c-0.012,0.028-0.021,0.058-0.027,0.086c-0.006,0.029-0.01,0.054-0.012,0.074c-0.002,0.021-0.002,0.036-0.002,0.046v0.01v0.009
		c0,0.064,0.01,0.123,0.033,0.175c0.021,0.053,0.053,0.103,0.094,0.149c0.039,0.046,0.09,0.093,0.15,0.139
		c0.061,0.046,0.129,0.097,0.207,0.151c0.088,0.063,0.18,0.132,0.275,0.206C155.622,38.958,155.709,39.043,155.788,39.139z"/>
	<path fill="#665C4D" d="M138.155,44.017c0.037,0.036,0.055,0.081,0.055,0.134s-0.018,0.098-0.055,0.134
		c-0.037,0.037-0.082,0.056-0.135,0.056h-0.068l0.033,0.06c0.027,0.045,0.035,0.092,0.021,0.143s-0.043,0.09-0.09,0.117
		c-0.029,0.017-0.061,0.025-0.096,0.025c-0.031,0-0.062-0.009-0.092-0.025c-0.031-0.018-0.055-0.04-0.072-0.07l-0.031-0.06
		l-0.035,0.06c-0.016,0.03-0.039,0.053-0.068,0.07c-0.029,0.017-0.062,0.025-0.096,0.025s-0.064-0.009-0.094-0.025
		c-0.047-0.027-0.076-0.066-0.09-0.115c-0.016-0.05-0.008-0.098,0.02-0.145l0.035-0.06h-0.07c-0.053,0-0.098-0.019-0.133-0.056
		c-0.037-0.036-0.057-0.081-0.057-0.134s0.02-0.098,0.057-0.134c0.035-0.037,0.08-0.056,0.133-0.056h0.066l-0.031-0.058
		c-0.027-0.046-0.035-0.094-0.02-0.145c0.014-0.051,0.041-0.089,0.086-0.114c0.047-0.027,0.096-0.034,0.145-0.021
		c0.051,0.014,0.09,0.044,0.115,0.09l0.033,0.058l0.035-0.058c0.025-0.046,0.064-0.076,0.113-0.09
		c0.051-0.014,0.1-0.008,0.146,0.018c0.045,0.027,0.072,0.066,0.086,0.117s0.008,0.098-0.018,0.142l-0.033,0.061h0.068
		C138.073,43.961,138.118,43.98,138.155,44.017z"/>
	<path fill="#665C4D" d="M138.536,43.547c0.055,0,0.1,0.019,0.135,0.056c0.037,0.037,0.055,0.081,0.055,0.134v2.092
		c0,0.053-0.018,0.097-0.055,0.134c-0.035,0.037-0.08,0.056-0.135,0.056c-0.053,0-0.098-0.019-0.135-0.056s-0.055-0.081-0.055-0.134
		v-2.092c0-0.053,0.018-0.097,0.055-0.134S138.483,43.547,138.536,43.547z"/>
	<path fill="#665C4D" d="M140.182,43.547c0.053,0,0.098,0.019,0.133,0.056c0.037,0.037,0.057,0.081,0.057,0.134v2.089v0.012v0.01
		v0.004v0.006l-0.004,0.003v0.003v0.007v0.003c-0.002,0.002-0.004,0.004-0.004,0.006v0.004c0,0.002,0,0.003,0,0.003
		c-0.002,0-0.002,0.001-0.002,0.003s0,0.004-0.002,0.005c0,0.001-0.002,0.003-0.002,0.005s0,0.004-0.002,0.005
		c0,0.001,0,0.003,0,0.005s-0.002,0.003-0.002,0.003c-0.002,0-0.002,0.001-0.002,0.003v0.004c-0.002,0-0.004,0-0.004,0.002
		l-0.002,0.004c0,0.002-0.002,0.004-0.004,0.006l-0.002,0.004v0.003c-0.004,0-0.004,0.001-0.004,0.003s-0.002,0.003-0.004,0.003
		c0,0.003,0,0.003,0,0.003c-0.002,0-0.002,0.002-0.002,0.004h-0.004c0,0.002,0,0.004-0.004,0.006l-0.006,0.006l-0.006,0.007
		l-0.006,0.007h-0.004l-0.006,0.006c-0.002,0.002-0.004,0.004-0.006,0.004c0,0.002-0.002,0.002-0.004,0.002l-0.002,0.004
		c-0.004,0-0.004,0-0.004,0.002c0,0-0.002,0.001-0.004,0.001h-0.002l-0.008,0.007c-0.008,0.004-0.016,0.007-0.021,0.009
		s-0.016,0.005-0.025,0.007c-0.008,0.002-0.021,0.003-0.037,0.003c-0.014,0-0.023-0.001-0.029-0.003h-0.006h-0.004
		c-0.002,0-0.002-0.002-0.002-0.004h-0.014v-0.003h-0.006c-0.008-0.004-0.014-0.006-0.016-0.006s-0.004-0.001-0.004-0.003H140.1
		c-0.002,0-0.004-0.002-0.004-0.004c-0.002,0-0.004-0.001-0.006-0.003c-0.002,0-0.004-0.001-0.004-0.003h-0.002
		c-0.004,0-0.004-0.001-0.004-0.002s-0.002-0.002-0.004-0.002c-0.023-0.017-0.041-0.036-0.057-0.06v-0.003
		c-0.002,0-0.002-0.001-0.002-0.004l-0.004-0.002v-0.004c-0.002-0.002-0.004-0.004-0.004-0.006s0-0.004-0.002-0.007l-0.541-1.248
		v1.176c0,0.053-0.018,0.097-0.055,0.134s-0.082,0.056-0.135,0.056s-0.098-0.019-0.135-0.056s-0.055-0.081-0.055-0.134V43.74v-0.012
		v-0.01v-0.004v-0.006l0.004-0.003v-0.003v-0.007v-0.003c0.002-0.002,0.002-0.004,0.002-0.006v-0.004c0-0.002,0-0.003,0.002-0.003
		s0.002-0.001,0.002-0.003s0-0.004,0.002-0.005c0-0.001,0-0.003,0-0.005s0.002-0.004,0.002-0.005
		c0.002-0.001,0.002-0.003,0.002-0.005s0-0.003,0.002-0.003c0,0,0.002-0.001,0.002-0.003v-0.004l0.006-0.006
		c0-0.002,0-0.003,0.002-0.003c0,0,0.002-0.001,0.002-0.003l0.002-0.004v-0.003c0.002-0.002,0.004-0.004,0.004-0.007h0.002
		c0-0.002,0.002-0.002,0.002-0.002c0.002,0,0.002-0.002,0.002-0.004h0.004c0-0.002,0-0.004,0.002-0.006l0.006-0.007v-0.003
		c0.004,0,0.006-0.001,0.008-0.003v-0.003c0.002,0,0.004-0.002,0.006-0.004h0.004l0.006-0.006l0.006-0.007h0.004
		c0-0.002,0-0.003,0.002-0.003s0.004,0,0.004-0.002c0,0,0-0.001,0.004-0.001h0.002l0.006-0.007c0.016-0.008,0.029-0.014,0.045-0.016
		h0.004c0.01-0.002,0.025-0.003,0.047-0.003h0.01h0.002l0.004,0.003h0.006h0.004h0.006c0,0.002,0.002,0.004,0.004,0.004h0.006h0.004
		c0,0.002,0.002,0.003,0.006,0.003c0.002,0.002,0.004,0.003,0.01,0.003c0.002,0.002,0.004,0.003,0.006,0.003h0.004
		c0,0.003,0.002,0.003,0.006,0.003v0.004c0.004,0,0.006,0.001,0.006,0.003h0.004c0.002,0,0.002,0.001,0.002,0.001
		c0,0.002,0.002,0.002,0.004,0.002l0.002,0.003l0.004,0.003l0.004,0.004h0.002c0.002,0.002,0.004,0.003,0.006,0.003v0.003
		c0.004,0,0.004,0.001,0.004,0.002s0.002,0.002,0.004,0.002v0.003c0.002,0,0.002,0,0.002,0.001c0,0.002,0.002,0.002,0.004,0.002
		v0.003l0.006,0.007l0.006,0.006l0.008,0.006c0,0.003,0,0.005,0.002,0.007c0.002,0,0.004,0.001,0.004,0.003s0.002,0.004,0.004,0.004
		c0,0.004,0,0.006,0.002,0.006v0.003c0.002,0.003,0.004,0.005,0.004,0.007h0.002c0,0.004,0.002,0.007,0.002,0.008
		c0.002,0.001,0.002,0.002,0.002,0.005l0.541,1.247v-1.175c0-0.053,0.018-0.097,0.055-0.134S140.129,43.547,140.182,43.547z"/>
	<path fill="#665C4D" d="M143.264,43.698c0.045,0.043,0.088,0.102,0.131,0.179c0.041,0.077,0.062,0.18,0.062,0.308v1.195
		c0,0.128-0.021,0.23-0.062,0.308c-0.043,0.077-0.086,0.136-0.131,0.179c-0.111,0.101-0.242,0.151-0.395,0.151h-0.236h-0.174
		c-0.053,0-0.098-0.019-0.135-0.056s-0.055-0.081-0.055-0.134v-2.092c0-0.053,0.018-0.097,0.055-0.134s0.082-0.056,0.135-0.056
		h0.174h0.236C143.022,43.547,143.153,43.598,143.264,43.698z M143.079,44.185c0-0.059-0.008-0.105-0.023-0.139
		s-0.035-0.06-0.057-0.077c-0.023-0.019-0.045-0.029-0.07-0.035c-0.023-0.005-0.043-0.008-0.059-0.008h-0.221v1.713h0.221
		c0.016,0,0.035-0.003,0.059-0.009c0.025-0.005,0.047-0.016,0.07-0.034c0.021-0.018,0.041-0.044,0.057-0.077
		c0.016-0.034,0.023-0.08,0.023-0.139V44.185z"/>
	<path fill="#665C4D" d="M144.008,43.547c0.055,0,0.1,0.019,0.135,0.056c0.037,0.037,0.055,0.081,0.055,0.134v2.092
		c0,0.053-0.018,0.097-0.055,0.134c-0.035,0.037-0.08,0.056-0.135,0.056c-0.053,0-0.098-0.019-0.135-0.056s-0.055-0.081-0.055-0.134
		v-2.092c0-0.053,0.018-0.097,0.055-0.134S143.956,43.547,144.008,43.547z"/>
	<path fill="#665C4D" d="M145.663,45.819c0.012,0.053,0.002,0.101-0.027,0.144c-0.027,0.043-0.068,0.07-0.121,0.081
		c-0.008,0.002-0.02,0.003-0.035,0.003c-0.043,0-0.082-0.014-0.117-0.043c-0.035-0.028-0.059-0.064-0.068-0.108l-0.066-0.322h-0.338
		l-0.066,0.322c-0.008,0.044-0.029,0.08-0.064,0.108c-0.035,0.029-0.074,0.043-0.119,0.043c-0.018,0-0.029-0.001-0.037-0.003
		c-0.053-0.011-0.094-0.038-0.123-0.081c-0.027-0.043-0.037-0.091-0.025-0.144l0.42-2.089v-0.002v-0.007
		c0-0.002,0-0.003,0.002-0.003c0,0,0-0.002,0-0.004v-0.003v-0.003c0.004-0.002,0.004-0.004,0.004-0.006s0-0.004,0.002-0.004
		c0,0,0.002-0.001,0.002-0.003v-0.003c0.006-0.018,0.016-0.031,0.027-0.045v-0.003c0.002,0,0.004,0,0.004-0.001
		c0-0.002,0-0.002,0.002-0.002v-0.003l0.004-0.003l0.004-0.004l0.002-0.003l0.004-0.003l0.004-0.004l0.006-0.002
		c0.012-0.014,0.027-0.022,0.043-0.029h0.004c0.002-0.002,0.004-0.003,0.006-0.003c0.012-0.004,0.021-0.007,0.029-0.008
		s0.018-0.003,0.027-0.005h0.004h0.006h0.006c0.012,0.002,0.021,0.004,0.029,0.005s0.018,0.004,0.029,0.008
		c0.002,0,0.004,0.001,0.006,0.003h0.002c0.018,0.007,0.033,0.016,0.045,0.029c0.002,0,0.004,0,0.006,0.002l0.004,0.004l0.004,0.003
		l0.002,0.003l0.004,0.004l0.002,0.003l0.004,0.003l0.004,0.003v0.003c0.012,0.014,0.021,0.027,0.027,0.045v0.003
		c0,0.002,0.002,0.003,0.002,0.003c0.002,0,0.002,0.002,0.002,0.004c0.004,0.012,0.006,0.021,0.006,0.027L145.663,45.819z
		 M145.059,44.729l-0.094,0.464h0.186L145.059,44.729z"/>
	<path fill="#665C4D" d="M147.391,45.828c0,0.053-0.018,0.097-0.055,0.134s-0.082,0.056-0.135,0.056s-0.098-0.019-0.135-0.056
		s-0.055-0.081-0.055-0.134v-1.302l-0.199,0.392c-0.018,0.046-0.047,0.08-0.092,0.101c-0.025,0.014-0.051,0.02-0.078,0.02h-0.004
		h-0.004h-0.002h-0.004c-0.027,0-0.053-0.006-0.078-0.02c-0.045-0.021-0.076-0.055-0.092-0.101l-0.199-0.392v1.302
		c0,0.053-0.02,0.097-0.055,0.134c-0.037,0.037-0.082,0.056-0.135,0.056s-0.098-0.019-0.135-0.056s-0.055-0.081-0.055-0.134v-2.092
		v-0.009v-0.01v-0.004v-0.003c0-0.002,0-0.003,0.002-0.003c0,0,0-0.001,0-0.003v-0.003v-0.007c0-0.002,0.002-0.004,0.002-0.005
		c0.002-0.001,0.002-0.002,0.002-0.004c0.002-0.014,0.006-0.025,0.012-0.035c0-0.002,0.002-0.004,0.002-0.004
		c0.002,0,0.002,0,0.002-0.003l0.004-0.003l0.002-0.003c0-0.003,0.002-0.005,0.004-0.007v-0.003l0.006-0.007
		c0.004-0.004,0.008-0.008,0.012-0.012s0.006-0.009,0.012-0.013l0.006-0.007h0.002c0-0.002,0.002-0.003,0.002-0.003
		c0.002,0,0.002-0.001,0.002-0.003h0.004c0.002-0.002,0.004-0.004,0.006-0.004c0-0.002,0-0.003,0.004-0.003l0.002-0.003l0.006-0.003
		c0.002-0.002,0.004-0.003,0.008-0.003l0.002-0.004c0.002,0,0.004,0,0.006-0.003c0.004,0,0.004-0.001,0.006-0.001
		c0-0.002,0.002-0.002,0.004-0.002s0.004,0,0.006-0.002c0-0.001,0.002-0.001,0.004-0.001s0.004-0.001,0.006-0.003h0.004h0.006
		l0.004-0.004h0.002h0.008h0.002c0.002-0.002,0.004-0.003,0.008-0.003h0.002h0.01h0.01h0.01h0.006h0.004
		c0.002,0,0.004,0.001,0.006,0.003h0.006h0.004h0.006c0.008,0.004,0.016,0.007,0.021,0.008c0.006,0.002,0.014,0.004,0.02,0.008
		h0.004c0,0.002,0.002,0.004,0.006,0.004c0,0.002,0,0.003,0.002,0.003l0.004,0.003c0.002,0,0.004,0.001,0.006,0.003l0.008,0.007
		h0.002c0.01,0.006,0.02,0.015,0.025,0.025l0.006,0.006l0.008,0.006c0,0.003,0,0.004,0,0.004c0.002,0,0.002,0.001,0.002,0.003
		l0.004,0.003l0.002,0.004c0,0.002,0.002,0.004,0.004,0.006c0,0.002,0,0.004,0.002,0.005c0,0.001,0.002,0.003,0.002,0.005
		l0.396,0.78l0.398-0.78c0-0.004,0.002-0.008,0.004-0.01s0.002-0.004,0.002-0.006c0.004,0,0.004-0.002,0.004-0.004l0.004-0.003
		c0-0.002,0-0.004,0.002-0.007l0.008-0.006l0.006-0.006c0.006-0.011,0.014-0.02,0.025-0.025l0.006-0.007h0.004
		c0.002-0.002,0.004-0.003,0.006-0.003l0.002-0.003c0.004,0,0.004-0.001,0.004-0.003c0.004,0,0.006-0.002,0.006-0.004h0.004
		c0.004-0.004,0.01-0.006,0.016-0.008c0.006-0.001,0.012-0.002,0.016-0.004c0.004,0,0.008-0.002,0.01-0.004h0.006h0.004h0.006
		c0-0.002,0.002-0.003,0.004-0.003h0.006h0.006h0.01h0.01h0.01c0.004,0,0.006,0.001,0.01,0.003h0.006h0.006l0.004,0.004h0.006h0.002
		l0.008,0.003c0.002,0,0.004,0,0.004,0.001c0.002,0.002,0.004,0.002,0.006,0.002s0.004,0.001,0.006,0.003h0.002
		c0.002,0.003,0.006,0.003,0.008,0.003v0.004c0.004,0,0.006,0.001,0.01,0.003c0.002,0.002,0.004,0.003,0.006,0.003l0.002,0.003
		l0.004,0.003c0.002,0,0.004,0.002,0.006,0.004l0.006,0.006c0.006,0,0.008,0.002,0.008,0.007c0.01,0.006,0.018,0.015,0.025,0.024
		l0.006,0.007v0.003c0.002,0.002,0.002,0.004,0.002,0.007c0.004,0,0.004,0.001,0.004,0.003l0.004,0.003c0,0.003,0,0.005,0.002,0.007
		c0.004,0.01,0.01,0.021,0.014,0.035c0,0.004,0,0.007,0.002,0.009v0.007v0.003c0,0.002,0.002,0.004,0.004,0.006v0.003v0.004v0.01
		v0.009V45.828z"/>
	<path fill="#665C4D" d="M148.825,45.691c0.035,0.037,0.055,0.082,0.055,0.135s-0.02,0.098-0.055,0.134
		c-0.037,0.037-0.082,0.056-0.135,0.056h-0.773c-0.053,0-0.098-0.019-0.135-0.056c-0.037-0.036-0.055-0.081-0.055-0.134v-2.092
		c0-0.053,0.018-0.098,0.055-0.135s0.082-0.055,0.135-0.055h0.773c0.053,0,0.098,0.018,0.135,0.055
		c0.035,0.037,0.055,0.082,0.055,0.135c0,0.055-0.02,0.1-0.055,0.136c-0.037,0.036-0.082,0.054-0.135,0.054h-0.584v0.796h0.404
		c0.053,0,0.096,0.019,0.133,0.056s0.057,0.082,0.057,0.135c0,0.052-0.02,0.097-0.057,0.134c-0.037,0.036-0.08,0.056-0.133,0.056
		h-0.404v0.537h0.584C148.743,45.636,148.788,45.654,148.825,45.691z"/>
	<path fill="#665C4D" d="M150.366,43.604c0.037,0.036,0.055,0.081,0.055,0.136c0,0.053-0.018,0.098-0.055,0.135
		s-0.082,0.055-0.135,0.055h-0.293v1.896c0,0.053-0.02,0.098-0.057,0.134c-0.035,0.037-0.08,0.056-0.133,0.056
		s-0.098-0.019-0.135-0.056c-0.037-0.036-0.055-0.081-0.055-0.134v-1.896h-0.301c-0.053,0-0.098-0.018-0.135-0.055
		s-0.055-0.082-0.055-0.135c0-0.055,0.018-0.1,0.055-0.136s0.082-0.054,0.135-0.054h0.973
		C150.284,43.55,150.329,43.568,150.366,43.604z"/>
	<path fill="#665C4D" d="M151.733,45.691c0.037,0.037,0.057,0.082,0.057,0.135s-0.02,0.098-0.057,0.134
		c-0.037,0.037-0.08,0.056-0.133,0.056h-0.775c-0.053,0-0.098-0.019-0.133-0.056c-0.037-0.036-0.057-0.081-0.057-0.134v-2.092
		c0-0.053,0.02-0.098,0.057-0.135c0.035-0.037,0.08-0.055,0.133-0.055h0.775c0.053,0,0.096,0.018,0.133,0.055
		s0.057,0.082,0.057,0.135c0,0.055-0.02,0.1-0.057,0.136s-0.08,0.054-0.133,0.054h-0.586v0.796h0.404
		c0.053,0,0.098,0.019,0.135,0.056s0.057,0.082,0.057,0.135c0,0.052-0.02,0.097-0.057,0.134c-0.037,0.036-0.082,0.056-0.135,0.056
		h-0.404v0.537h0.586C151.653,45.636,151.696,45.654,151.733,45.691z"/>
	<path fill="#665C4D" d="M153.372,45.749c0.023,0.049,0.025,0.097,0.006,0.146c-0.021,0.048-0.055,0.083-0.104,0.104
		c-0.025,0.01-0.051,0.016-0.076,0.016c-0.035,0-0.068-0.01-0.102-0.03c-0.031-0.021-0.055-0.048-0.072-0.084l-0.35-0.802h-0.189
		v0.727c0,0.053-0.02,0.098-0.057,0.134c-0.037,0.037-0.082,0.056-0.135,0.056c-0.051,0-0.096-0.019-0.133-0.056
		c-0.037-0.036-0.057-0.081-0.057-0.134V43.74c0-0.053,0.02-0.098,0.057-0.134c0.037-0.037,0.082-0.056,0.133-0.056h0.459
		c0.08,0,0.156,0.023,0.23,0.068s0.139,0.109,0.193,0.194c0.094,0.149,0.143,0.319,0.143,0.512c0,0.093-0.014,0.183-0.037,0.269
		s-0.059,0.166-0.105,0.24c-0.021,0.031-0.043,0.06-0.066,0.085s-0.047,0.049-0.07,0.069L153.372,45.749z M152.752,44.719
		c0.01,0,0.025-0.007,0.043-0.021s0.039-0.037,0.061-0.07c0.027-0.043,0.049-0.09,0.062-0.143s0.02-0.106,0.02-0.161
		s-0.006-0.109-0.02-0.163s-0.035-0.102-0.062-0.144c-0.021-0.032-0.043-0.054-0.061-0.067s-0.033-0.021-0.043-0.021h-0.268v0.79
		H152.752z"/>
</g>
</svg>
