<?xml version="1.0" encoding="utf-8"?>
<!-- Generator: Adobe Illustrator 16.0.0, SVG Export Plug-In . SVG Version: 6.00 Build 0)  -->
<!DOCTYPE svg PUBLIC "-//W3C//DTD SVG 1.1//EN" "http://www.w3.org/Graphics/SVG/1.1/DTD/svg11.dtd">
<svg version="1.1" id="Layer_1" xmlns="http://www.w3.org/2000/svg" xmlns:xlink="http://www.w3.org/1999/xlink" x="0px" y="0px"
	 width="623.5px" height="466px" viewBox="46.5 13.094 623.5 466" enable-background="new 46.5 13.094 623.5 466"
	 xml:space="preserve">
<g id="Layer_1_1_">
</g>
<g id="Layer_5">
</g>
<g id="Layer_2">
</g>
<g id="neptune">
</g>
<g id="uranus">
</g>
<g id="saturn">
</g>
<g id="jupiter">
</g>
<g id="Layer_14">
</g>
<g id="mars">
</g>
<g id="venus">
</g>
<g id="mercury">
</g>
<g id="earth">
</g>
<g id="Layer_6">
</g>
<g id="Layer_4">
	<g>
		<g>
			<path fill="#F2DF8F" d="M641.104,31.671C614.213-1.106,459.717,56.617,298.579,160.272
				C137.446,263.925,28.621,374.521,55.515,407.297c26.889,32.777,179.314-24.679,340.449-128.331
				C557.098,175.312,667.992,64.448,641.104,31.671z M500.087,149.544c-31.737,31.09-77.469,66.385-128.769,99.384
				c-56.155,36.121-114.052,66.154-158.859,82.395c-36.812,13.343-52.824,20.474-57.409,11.943
				c-4.408-7.656,6.227-21.074,39.411-53.574c31.735-31.087,77.465-66.383,128.77-99.38
				c56.155-36.124,114.055-66.154,158.857-82.398c36.813-13.341,51.365-18.689,57.407-11.943
				C545.271,104.638,533.266,117.045,500.087,149.544z"/>
			<path fill="none" stroke="#D6BF85" stroke-width="5" stroke-miterlimit="10" d="M643.178,30.438
				c26.892,32.775-81.938,143.373-243.068,247.026C238.977,381.117,86.549,438.572,59.658,405.793
				c-26.89-32.773,81.932-143.375,243.07-247.024C463.86,55.115,616.29-2.339,643.178,30.438z"/>
			<path fill="none" stroke="#66421E" stroke-width="5" stroke-miterlimit="10" d="M576.199,67.844
				c20.521,25.013-62.525,109.412-185.489,188.511c-122.964,79.1-239.283,122.944-259.805,97.931
				c-20.521-25.011,62.527-109.41,185.492-188.51C439.36,86.678,555.678,42.833,576.199,67.844z"/>
		</g>
		<g>
			<path fill="#F2C04F" d="M486.821,120.387C537.569,200.4,513.848,306.4,433.839,357.15
				c-80.017,50.752-186.016,27.029-236.769-52.979c-50.743-80.01-27.023-186.013,52.984-236.764
				C330.066,16.658,436.068,40.379,486.821,120.387z"/>
			<path fill="#F4E495" d="M492.585,130.023c23.428,43.948,20.826,76.226,20.826,76.226L263.588,364.928
				c-39.116-19.75-58.962-50.002-58.962-50.002L492.585,130.023z"/>
			<path fill="#EDE1B0" d="M511.473,239.507c-4.901,30.812-18.968,54.897-18.968,54.897l-138.963,89.133
				c-31.183,2.299-57.967-6.18-57.967-6.18L511.473,239.507z"/>
			<path fill="#CC9D45" d="M353.541,383.537c0,0,37.745-1.418,72.033-21.146c34.288-19.726,52.768-43.322,66.931-67.986
				L353.541,383.537z"/>
			<path fill="#CC9D45" d="M202.215,112.697c0,0,17.15-26.207,47.115-44.801c25.926-16.092,45.956-21.87,68.019-25.436
				L202.215,112.697z"/>
			<path fill="#E8D579" d="M474.952,103.829c-14.53-18.495-34.283-31.886-34.283-31.886L172.83,241.8
				c3.469,21.388,13.874,43.644,13.874,43.644L474.952,103.829z"/>
		</g>
		<g>
			<path fill="#F2C04F" d="M307.689,453.597c2.427,3.042,3.638,6.6,3.638,10.667c0,1.275-0.131,2.416-0.4,3.422
				c-0.269,1.009-0.596,1.902-0.984,2.683c-0.393,0.782-0.834,1.461-1.327,2.036c-0.492,0.574-0.985,1.068-1.479,1.479
				c-2.304,1.85-5.099,2.774-8.386,2.774c-1.603,0-3.104-0.228-4.502-0.678c-1.397-0.454-2.631-1.15-3.7-2.098
				c-0.453-0.37-0.915-0.844-1.389-1.419c-0.472-0.574-0.904-1.254-1.294-2.034c-0.391-0.779-0.708-1.685-0.955-2.713
				c-0.247-1.027-0.369-2.2-0.369-3.518c0-1.025,0.358-1.898,1.079-2.618c0.718-0.719,1.592-1.08,2.621-1.08
				c1.069,0,1.952,0.361,2.651,1.08c0.698,0.72,1.048,1.593,1.048,2.618c0,0.577,0.051,1.164,0.154,1.759
				c0.104,0.598,0.318,1.142,0.647,1.635c0.328,0.493,0.811,0.896,1.449,1.201c0.637,0.309,1.489,0.464,2.56,0.464
				c0.739,0,1.426-0.093,2.066-0.275c0.637-0.188,1.179-0.464,1.634-0.836c0.986-0.861,1.479-2.156,1.479-3.884
				c0-1.272-0.165-2.383-0.493-3.328c-0.329-0.945-0.813-1.819-1.449-2.62c-0.639-0.803-1.418-1.562-2.343-2.282
				c-0.926-0.718-1.965-1.489-3.116-2.312c-1.068-0.739-2.125-1.511-3.173-2.312c-1.049-0.804-2.026-1.717-2.93-2.744
				c-1.068-1.316-1.88-2.684-2.435-4.1c-0.556-1.42-0.833-2.972-0.833-4.656c0-0.247,0.011-0.698,0.032-1.355
				c0.019-0.658,0.123-1.42,0.308-2.283c0.184-0.861,0.493-1.766,0.926-2.713c0.431-0.944,1.057-1.85,1.879-2.713
				c0.699-0.779,1.747-1.541,3.144-2.281c1.398-0.738,3.208-1.109,5.429-1.109c2.259,0,4.059,0.381,5.395,1.142
				c1.335,0.763,2.352,1.531,3.05,2.312c0.781,0.945,1.368,1.941,1.758,2.991c0.391,1.049,0.648,2.014,0.771,2.897
				c0.123,0.883,0.164,1.654,0.123,2.312s-0.084,1.049-0.123,1.173c-0.122,0.738-0.368,1.355-0.739,1.85
				c-0.33,0.454-0.771,0.833-1.325,1.142c-0.556,0.308-1.306,0.359-2.251,0.153c-0.906-0.164-1.572-0.462-2.004-0.894
				c-0.432-0.434-0.718-0.885-0.861-1.357c-0.146-0.473-0.207-0.894-0.187-1.264c0.019-0.37,0.031-0.596,0.031-0.68
				c0.041-0.163,0.062-0.39,0.062-0.677c0-0.289-0.03-0.598-0.092-0.926c-0.061-0.33-0.153-0.658-0.277-0.987
				c-0.124-0.326-0.289-0.617-0.494-0.862c-0.493-0.616-1.439-0.926-2.835-0.926c-1.111,0-1.881,0.146-2.313,0.433
				c-0.432,0.288-0.708,0.493-0.833,0.616c-0.288,0.29-0.504,0.616-0.646,0.985c-0.144,0.37-0.258,0.741-0.34,1.11
				c-0.083,0.37-0.135,0.688-0.153,0.955c-0.021,0.27-0.031,0.463-0.031,0.587v0.123v0.123c0,0.822,0.144,1.572,0.43,2.251
				c0.289,0.68,0.69,1.315,1.204,1.911c0.514,0.597,1.162,1.191,1.942,1.788c0.779,0.598,1.665,1.244,2.651,1.941
				c1.151,0.823,2.333,1.706,3.548,2.651C305.542,451.274,306.662,452.363,307.689,453.597z"/>
			<path fill="#F2C04F" d="M337.842,472.342c0.205,1.028,0.03,1.963-0.524,2.807c-0.555,0.841-1.347,1.365-2.374,1.571
				c-0.165,0.04-0.394,0.062-0.679,0.062c-0.862,0-1.633-0.277-2.312-0.832c-0.677-0.556-1.122-1.265-1.325-2.128l-1.295-6.29h-6.6
				l-1.294,6.29c-0.164,0.863-0.584,1.572-1.265,2.128c-0.678,0.555-1.449,0.832-2.312,0.832c-0.33,0-0.578-0.021-0.74-0.062
				c-1.027-0.206-1.818-0.73-2.375-1.571c-0.554-0.844-0.729-1.777-0.523-2.807l8.202-40.758v-0.062v-0.122
				c0-0.039,0.008-0.062,0.029-0.062c0.021,0,0.031-0.02,0.031-0.061v-0.063v-0.06c0.042-0.041,0.062-0.083,0.062-0.124
				c0-0.04,0.009-0.062,0.03-0.062c0.021,0,0.031-0.021,0.031-0.062v-0.062c0.122-0.328,0.309-0.617,0.556-0.863v-0.062
				c0.039,0,0.06-0.01,0.06-0.03c0-0.02,0.021-0.03,0.062-0.03v-0.062l0.062-0.061l0.062-0.062l0.062-0.062l0.062-0.062l0.061-0.062
				l0.123-0.062c0.247-0.246,0.535-0.432,0.865-0.555h0.062c0.038-0.041,0.081-0.062,0.121-0.062
				c0.206-0.082,0.393-0.132,0.557-0.152c0.164-0.021,0.349-0.053,0.555-0.094h0.061h0.125h0.125
				c0.203,0.041,0.389,0.072,0.553,0.094c0.163,0.021,0.349,0.07,0.554,0.152c0.042,0,0.083,0.021,0.125,0.062h0.062
				c0.327,0.123,0.614,0.309,0.861,0.555c0.04,0,0.082,0.021,0.124,0.062l0.062,0.062l0.062,0.062l0.062,0.062l0.061,0.062
				l0.062,0.061l0.062,0.062l0.06,0.062v0.062c0.248,0.246,0.435,0.534,0.557,0.862v0.062c0,0.042,0.01,0.062,0.031,0.062
				c0.019,0,0.029,0.021,0.029,0.062c0.083,0.247,0.124,0.432,0.124,0.556L337.842,472.342z M326.065,451.068l-1.853,9.065h3.639
				L326.065,451.068z"/>
			<path fill="#F2C04F" d="M365.126,429.117c0.72,0.699,1.081,1.584,1.081,2.65c0,1.028-0.361,1.902-1.081,2.62
				c-0.719,0.721-1.594,1.08-2.619,1.08h-5.734v36.996c0,1.028-0.361,1.902-1.078,2.621c-0.722,0.719-1.597,1.079-2.622,1.079
				c-1.029,0-1.901-0.36-2.621-1.079s-1.08-1.593-1.08-2.621v-36.996h-5.856c-1.028,0-1.9-0.359-2.622-1.08
				c-0.718-0.718-1.077-1.592-1.077-2.62c0-1.066,0.358-1.951,1.077-2.65c0.722-0.698,1.594-1.048,2.622-1.048h18.992
				C363.532,428.069,364.407,428.419,365.126,429.117z"/>
			<path fill="#F2C04F" d="M393.614,465.467c-0.021,0.678-0.134,1.459-0.338,2.342c-0.207,0.886-0.536,1.83-0.989,2.839
				c-0.452,1.008-1.09,1.941-1.91,2.804c-0.701,0.782-1.737,1.542-3.115,2.282c-1.378,0.739-3.153,1.11-5.334,1.11
				c-2.18,0-3.936-0.371-5.271-1.11c-1.336-0.74-2.354-1.5-3.054-2.282c-0.821-0.901-1.447-1.869-1.88-2.897
				c-0.432-1.024-0.739-2.004-0.925-2.929c-0.185-0.925-0.277-1.747-0.277-2.467c0-0.718,0-1.223,0-1.511V431.83
				c0-1.026,0.358-1.9,1.078-2.619c0.719-0.72,1.594-1.08,2.622-1.08c1.027,0,1.901,0.36,2.621,1.08
				c0.72,0.719,1.078,1.593,1.078,2.619v32.127v0.123c0,0.204,0,0.492,0,0.861c0,0.37,0.043,0.762,0.125,1.172
				c0.082,0.412,0.204,0.834,0.369,1.265c0.163,0.431,0.391,0.791,0.678,1.079c0.125,0.123,0.391,0.318,0.802,0.585
				c0.411,0.269,1.09,0.402,2.035,0.402c1.069,0,1.819-0.135,2.25-0.402c0.434-0.267,0.709-0.462,0.833-0.585
				c0.575-0.616,0.925-1.356,1.048-2.221c0.123-0.861,0.186-1.479,0.186-1.85V464.2v-0.061v-32.249c0-1.025,0.359-1.9,1.079-2.619
				c0.72-0.72,1.593-1.078,2.623-1.078c1.023,0,1.899,0.358,2.621,1.078c0.717,0.719,1.077,1.594,1.077,2.619v32.188
				C393.645,464.326,393.634,464.789,393.614,465.467z"/>
			<path fill="#F2C04F" d="M425.339,470.985c0.45,0.945,0.483,1.892,0.092,2.836c-0.392,0.945-1.059,1.623-2.004,2.034
				c-0.494,0.207-0.986,0.31-1.48,0.31c-0.699,0-1.357-0.196-1.975-0.587c-0.616-0.391-1.088-0.935-1.418-1.633l-6.842-15.662
				h-3.701v14.182c0,1.028-0.358,1.902-1.079,2.621c-0.719,0.719-1.592,1.079-2.619,1.079c-1.028,0-1.903-0.36-2.62-1.079
				c-0.723-0.719-1.08-1.593-1.08-2.621v-40.696c0-1.026,0.357-1.899,1.08-2.619c0.716-0.721,1.591-1.079,2.62-1.079h8.94
				c1.562,0,3.062,0.44,4.5,1.326c1.439,0.885,2.694,2.147,3.762,3.79c1.852,2.921,2.775,6.249,2.775,9.989
				c0,1.811-0.237,3.558-0.708,5.242c-0.473,1.686-1.164,3.247-2.066,4.686c-0.41,0.616-0.844,1.173-1.295,1.665
				c-0.449,0.492-0.903,0.945-1.356,1.356L425.339,470.985z M413.253,450.884c0.204,0,0.483-0.134,0.833-0.4
				c0.348-0.267,0.75-0.73,1.203-1.388c0.533-0.82,0.935-1.748,1.202-2.773c0.266-1.028,0.399-2.077,0.399-3.146
				c0-1.068-0.134-2.127-0.399-3.176c-0.269-1.049-0.669-1.982-1.202-2.806c-0.453-0.616-0.855-1.059-1.203-1.325
				c-0.35-0.266-0.628-0.4-0.833-0.4h-5.242v15.415H413.253z"/>
			<path fill="#F2C04F" d="M452.346,428.008c1.026,0,1.9,0.359,2.62,1.078c0.719,0.721,1.079,1.594,1.079,2.621v40.758v0.246v0.186
				v0.062v0.123l-0.061,0.062v0.062v0.123v0.06c-0.043,0.043-0.062,0.084-0.062,0.125v0.062c0,0.041-0.009,0.062-0.03,0.062
				c-0.021,0-0.031,0.021-0.031,0.062s-0.011,0.072-0.031,0.093c-0.021,0.021-0.029,0.051-0.029,0.093s-0.011,0.071-0.032,0.093
				c-0.021,0.021-0.03,0.054-0.03,0.093c0,0.041-0.01,0.062-0.031,0.062s-0.03,0.021-0.03,0.062v0.062
				c-0.042,0-0.062,0.022-0.062,0.062l-0.062,0.062c0,0.042-0.021,0.083-0.062,0.124l-0.062,0.062v0.062
				c-0.041,0-0.062,0.021-0.062,0.062s-0.021,0.062-0.061,0.062c0,0.041-0.011,0.062-0.032,0.062c-0.021,0-0.03,0.021-0.03,0.062
				h-0.062c0,0.042-0.021,0.083-0.062,0.122l-0.124,0.125l-0.124,0.123l-0.121,0.123h-0.062l-0.122,0.123
				c-0.043,0.04-0.084,0.062-0.125,0.062c0,0.04-0.021,0.062-0.062,0.062l-0.061,0.062c-0.044,0-0.062,0.01-0.062,0.03
				s-0.021,0.03-0.062,0.03h-0.062l-0.124,0.123c-0.163,0.082-0.308,0.146-0.431,0.188c-0.123,0.04-0.287,0.081-0.492,0.122
				c-0.165,0.04-0.412,0.062-0.74,0.062c-0.248,0-0.432-0.021-0.557-0.062h-0.122h-0.062c-0.042,0-0.061-0.021-0.061-0.062h-0.247
				v-0.062h-0.124c-0.164-0.084-0.268-0.124-0.308-0.124c-0.041,0-0.062-0.021-0.062-0.062h-0.062c-0.041,0-0.062-0.021-0.062-0.062
				c-0.04,0-0.083-0.021-0.124-0.062c-0.04,0-0.06-0.021-0.06-0.062h-0.063c-0.04,0-0.062-0.012-0.062-0.031
				c0-0.021-0.021-0.03-0.062-0.03c-0.452-0.328-0.821-0.72-1.109-1.172v-0.062c-0.039,0-0.061-0.021-0.061-0.062l-0.062-0.062
				v-0.062c-0.042-0.041-0.062-0.082-0.062-0.123c0-0.039-0.021-0.082-0.062-0.123l-10.543-24.357v22.939
				c0,1.026-0.361,1.9-1.081,2.62c-0.721,0.718-1.593,1.078-2.618,1.078c-1.028,0-1.903-0.36-2.622-1.078
				c-0.718-0.72-1.079-1.594-1.079-2.62v-40.759v-0.247v-0.187v-0.061v-0.123l0.062-0.062v-0.062v-0.123v-0.062
				c0.04-0.04,0.062-0.082,0.062-0.124v-0.061c0-0.04,0.008-0.062,0.029-0.062c0.021,0,0.03-0.021,0.03-0.062
				c0-0.04,0.011-0.072,0.031-0.092c0.022-0.021,0.032-0.052,0.032-0.095c0-0.039,0.009-0.068,0.029-0.092
				c0.021-0.02,0.031-0.051,0.031-0.093c0-0.04,0.01-0.062,0.031-0.062c0.022,0,0.031-0.02,0.031-0.062v-0.062l0.124-0.123
				c0-0.041,0.009-0.062,0.031-0.062c0.019,0,0.028-0.021,0.028-0.062l0.062-0.062v-0.062c0.04-0.04,0.061-0.082,0.061-0.124h0.062
				c0-0.04,0.012-0.062,0.032-0.062c0.019,0,0.028-0.021,0.028-0.062h0.062c0-0.04,0.021-0.081,0.062-0.123l0.124-0.124v-0.062
				c0.041,0,0.084-0.019,0.123-0.061v-0.062c0.042,0,0.082-0.021,0.123-0.062h0.062l0.124-0.124l0.123-0.123h0.061
				c0-0.04,0.019-0.062,0.062-0.062c0.041,0,0.062-0.01,0.062-0.029c0-0.021,0.021-0.032,0.062-0.032h0.062l0.123-0.123
				c0.286-0.164,0.576-0.268,0.863-0.309h0.062c0.204-0.039,0.512-0.062,0.923-0.062h0.187h0.062l0.062,0.062h0.122h0.061h0.123
				c0,0.041,0.021,0.062,0.064,0.062h0.124h0.06c0,0.041,0.042,0.062,0.123,0.062c0.042,0.039,0.103,0.061,0.187,0.061
				c0.041,0.042,0.081,0.062,0.123,0.062h0.062c0,0.04,0.039,0.061,0.123,0.061v0.062c0.083,0,0.123,0.021,0.123,0.062h0.062
				c0.04,0,0.062,0.011,0.062,0.032c0,0.021,0.021,0.029,0.062,0.029l0.062,0.062l0.062,0.062l0.062,0.062h0.062
				c0.04,0.04,0.082,0.062,0.122,0.062v0.062c0.04,0,0.061,0.01,0.061,0.03c0,0.02,0.021,0.031,0.062,0.031v0.062
				c0.04,0,0.062,0.01,0.062,0.031c0,0.02,0.019,0.028,0.062,0.028v0.062l0.123,0.124l0.124,0.123l0.123,0.122
				c0,0.042,0.019,0.084,0.062,0.124c0.038,0,0.062,0.021,0.062,0.062s0.02,0.062,0.062,0.062c0,0.082,0.02,0.123,0.06,0.123v0.062
				c0.041,0.042,0.062,0.082,0.062,0.123h0.062c0,0.083,0.01,0.136,0.03,0.154c0.019,0.021,0.03,0.053,0.03,0.092l10.545,24.356
				v-22.938c0-1.027,0.359-1.9,1.079-2.621C450.443,428.367,451.316,428.008,452.346,428.008z"/>
		</g>
	</g>
</g>
<g>
	<path fill="#F2C04F" d="M488.515,120.577c51.187,80.705,27.262,187.627-53.441,238.816
		c-80.709,51.189-187.628,27.264-238.821-53.439c-51.184-80.705-27.256-187.624,53.443-238.816
		C330.401,15.951,437.321,39.876,488.515,120.577z"/>
	<g>
		<g>
			<path fill="#CC9D45" d="M201.944,211.375c0.467,0.469,0.701,1.036,0.701,1.701c0,0.67-0.233,1.237-0.701,1.703
				c-0.468,0.466-1.036,0.7-1.702,0.7h-10.411c-0.668,0-1.235-0.234-1.701-0.7c-0.467-0.466-0.701-1.033-0.701-1.703
				c0-0.665,0.233-1.232,0.701-1.701c0.466-0.468,1.033-0.701,1.701-0.701h2.884v-18.259l-1.001,1.002
				c-0.454,0.453-1.015,0.68-1.682,0.68s-1.241-0.227-1.723-0.68c-0.452-0.48-0.68-1.054-0.68-1.723c0-0.664,0.228-1.228,0.68-1.682
				l5.087-5.083c0.346-0.348,0.761-0.568,1.241-0.663c0.481-0.093,0.946-0.045,1.401,0.141c0.455,0.186,0.814,0.479,1.081,0.881
				c0.267,0.4,0.4,0.841,0.4,1.321v24.064h2.723C200.908,210.674,201.476,210.907,201.944,211.375z"/>
			<path fill="#CC9D45" d="M218.181,207.071c0.667,0,1.234,0.233,1.703,0.701c0.467,0.468,0.7,1.033,0.7,1.702
				c0,0.747-0.061,1.494-0.18,2.24c-0.122,0.748-0.41,1.429-0.863,2.043c-0.534,0.749-1.241,1.282-2.124,1.604
				c-0.718,0.266-1.6,0.397-2.641,0.397h-7.89c-0.667,0-1.233-0.233-1.7-0.7c-0.468-0.467-0.702-1.034-0.702-1.702
				c0-1.387,0.192-2.688,0.582-3.903c0.387-1.213,0.886-2.367,1.501-3.462c0.614-1.096,1.295-2.136,2.042-3.124
				c0.749-0.987,1.494-1.936,2.241-2.843c0.589-0.722,1.148-1.429,1.684-2.122c0.532-0.694,1.013-1.382,1.439-2.063
				c0.428-0.68,0.769-1.355,1.022-2.021c0.254-0.668,0.38-1.336,0.38-2.001v-0.163c0.028-0.212-0.006-0.573-0.099-1.079
				c-0.094-0.507-0.302-0.95-0.621-1.324c-0.081-0.079-0.268-0.204-0.561-0.379c-0.294-0.173-0.788-0.26-1.481-0.26
				c-0.936,0-1.562,0.187-1.882,0.56c-0.295,0.349-0.461,0.782-0.501,1.302s-0.047,0.833-0.019,0.942
				c0.105,0.666-0.041,1.267-0.441,1.8c-0.4,0.535-0.934,0.84-1.604,0.922c-0.667,0.107-1.259-0.041-1.78-0.439
				c-0.523-0.401-0.835-0.935-0.941-1.603c0-0.08-0.016-0.334-0.04-0.761c-0.028-0.427,0-0.926,0.078-1.501
				c0.081-0.575,0.234-1.196,0.46-1.862c0.227-0.667,0.607-1.308,1.141-1.923c0.454-0.534,1.122-1.042,2.004-1.521
				c0.88-0.482,2.055-0.721,3.523-0.721c1.441,0,2.607,0.235,3.503,0.699c0.895,0.469,1.566,0.954,2.023,1.464
				c0.507,0.561,0.907,1.152,1.2,1.779c0.293,0.629,0.501,1.217,0.62,1.763c0.12,0.546,0.188,1.035,0.202,1.463
				c0.013,0.427,0.019,0.719,0.019,0.879c0,1.096-0.16,2.137-0.479,3.124c-0.32,0.987-0.749,1.942-1.281,2.862
				c-0.537,0.921-1.135,1.818-1.804,2.683c-0.667,0.867-1.348,1.717-2.042,2.542c-1.066,1.31-2.062,2.598-2.981,3.866
				c-0.922,1.268-1.569,2.608-1.943,4.024h5.125c0.241,0,0.433-0.006,0.581-0.021c0.146-0.011,0.26-0.033,0.339-0.059
				c0.028-0.107,0.047-0.261,0.06-0.461c0.015-0.2,0.022-0.514,0.022-0.94c0-0.669,0.233-1.234,0.699-1.702
				C216.945,207.306,217.513,207.071,218.181,207.071z"/>
			<path fill="#CC9D45" d="M237.442,207.432c0,0.16-0.008,0.468-0.021,0.92c-0.014,0.454-0.087,0.969-0.22,1.542
				c-0.134,0.575-0.34,1.188-0.621,1.843c-0.279,0.654-0.687,1.262-1.22,1.822c-0.48,0.507-1.161,1-2.043,1.481
				c-0.88,0.479-2.029,0.719-3.444,0.719c-1.441,0-2.588-0.238-3.443-0.719c-0.854-0.48-1.507-0.975-1.962-1.481
				c-0.533-0.588-0.949-1.217-1.24-1.882c-0.294-0.67-0.501-1.301-0.621-1.902c-0.12-0.601-0.18-1.135-0.18-1.603
				c0-0.467,0-0.795,0-0.981v-15.336c0-1.626,0.265-2.929,0.801-3.904c0.533-0.973,1.082-1.728,1.641-2.262
				c1.361-1.281,3.016-1.922,4.965-1.922c0.907,0,1.813,0.16,2.722,0.479c0.91,0.321,1.722,0.815,2.442,1.481
				c0.721,0.669,1.309,1.511,1.764,2.523c0.452,1.016,0.681,2.216,0.681,3.604L237.442,207.432L237.442,207.432z M231.275,188.894
				c-0.241-0.135-0.487-0.222-0.74-0.264c-0.254-0.038-0.488-0.059-0.702-0.059c-0.187,0-0.427,0.035-0.721,0.101
				c-0.293,0.067-0.581,0.213-0.86,0.44c-0.281,0.229-0.521,0.554-0.72,0.98c-0.2,0.428-0.299,1.016-0.299,1.762v7.609
				L231.275,188.894z M231.834,210.276c0.349-0.375,0.575-0.85,0.682-1.423c0.107-0.574,0.147-0.98,0.12-1.222v-0.121v-8.729
				l-4.484,11.692c0.133,0.105,0.327,0.215,0.581,0.321c0.253,0.105,0.635,0.16,1.141,0.16c0.668,0,1.142-0.096,1.423-0.282
				C231.575,210.488,231.755,210.355,231.834,210.276z"/>
			<path fill="#CC9D45" d="M242.467,210.175c0.628-0.173,1.248-0.086,1.861,0.258c0.562,0.321,0.928,0.802,1.1,1.444
				c0.175,0.639,0.1,1.24-0.218,1.8l-2.843,4.965c-0.346,0.59-0.841,0.971-1.483,1.146c-0.64,0.172-1.24,0.1-1.8-0.222
				c-0.615-0.349-1.002-0.842-1.163-1.481c-0.16-0.642-0.065-1.24,0.282-1.805l2.841-4.962
				C241.366,210.729,241.839,210.348,242.467,210.175z"/>
			<path fill="#CC9D45" d="M260.946,207.432c0,0.16-0.008,0.468-0.019,0.92c-0.016,0.454-0.089,0.969-0.222,1.542
				c-0.134,0.575-0.34,1.188-0.62,1.843c-0.281,0.654-0.688,1.262-1.221,1.822c-0.48,0.507-1.161,1-2.041,1.481
				c-0.882,0.479-2.031,0.719-3.444,0.719c-1.442,0-2.589-0.238-3.444-0.719c-0.856-0.48-1.509-0.975-1.962-1.481
				c-0.534-0.588-0.95-1.217-1.241-1.882c-0.292-0.67-0.501-1.301-0.62-1.902c-0.121-0.602-0.181-1.135-0.181-1.603
				c0-0.467,0-0.795,0-0.981v-15.336c0-1.626,0.267-2.929,0.801-3.904c0.533-0.973,1.082-1.728,1.642-2.262
				c1.362-1.281,3.016-1.922,4.964-1.922c0.907,0,1.816,0.16,2.724,0.479c0.908,0.321,1.72,0.815,2.441,1.481
				c0.722,0.669,1.308,1.511,1.763,2.523c0.452,1.016,0.681,2.216,0.681,3.604L260.946,207.432L260.946,207.432z M254.779,188.894
				c-0.241-0.135-0.487-0.222-0.74-0.264c-0.254-0.038-0.488-0.059-0.702-0.059c-0.187,0-0.426,0.035-0.72,0.101
				c-0.294,0.067-0.582,0.213-0.861,0.44c-0.28,0.229-0.521,0.554-0.72,0.98c-0.2,0.428-0.3,1.016-0.3,1.762v7.609L254.779,188.894z
				 M255.339,210.276c0.348-0.375,0.575-0.85,0.683-1.423c0.104-0.574,0.145-0.98,0.118-1.222v-0.121v-8.729l-4.484,11.692
				c0.133,0.105,0.327,0.215,0.582,0.321c0.252,0.105,0.634,0.16,1.141,0.16c0.667,0,1.141-0.096,1.421-0.282
				C255.079,210.488,255.26,210.355,255.339,210.276z"/>
			<path fill="#CC9D45" d="M278.401,207.432c0,2.241-0.533,4.06-1.6,5.446c-1.522,1.948-3.924,2.924-7.208,2.924
				c-1.467,0-2.636-0.249-3.504-0.742c-0.866-0.492-1.528-0.994-1.981-1.5c-0.534-0.588-0.92-1.221-1.16-1.903
				c-0.241-0.681-0.402-1.314-0.481-1.9c-0.081-0.588-0.108-1.087-0.081-1.502s0.052-0.675,0.081-0.78
				c0.105-0.373,0.281-0.708,0.52-1.004c0.213-0.238,0.493-0.451,0.841-0.64c0.346-0.184,0.787-0.238,1.321-0.16
				c0.535,0.079,0.94,0.254,1.221,0.52c0.281,0.269,0.488,0.549,0.622,0.842c0.132,0.347,0.213,0.721,0.24,1.121
				c-0.027,0.188-0.021,0.527,0.019,1.021c0.041,0.494,0.208,0.903,0.502,1.223c0.319,0.4,0.934,0.602,1.84,0.602
				c0.828,0,1.509-0.073,2.043-0.221c0.533-0.148,0.94-0.375,1.222-0.684c0.28-0.306,0.473-0.68,0.58-1.121
				c0.107-0.44,0.161-0.952,0.161-1.541c0-2.618-0.481-4.431-1.442-5.446c-0.748-0.747-1.987-1.121-3.724-1.121
				c-0.667,0-1.235-0.232-1.701-0.699c-0.468-0.466-0.702-1.036-0.702-1.702v-0.04c0-0.695,0.234-1.269,0.702-1.723
				c0.466-0.452,1.035-0.681,1.701-0.681c0.239,0,0.527,0,0.86,0c0.333,0,0.661-0.013,0.981-0.039
				c0.321-0.026,0.613-0.067,0.882-0.122c0.267-0.051,0.453-0.133,0.56-0.24c0.025-0.024,0.079-0.1,0.161-0.219
				c0.08-0.121,0.159-0.326,0.241-0.623c0.079-0.293,0.145-0.687,0.199-1.18c0.054-0.493,0.081-1.127,0.081-1.902v-0.118
				c0.025-0.215-0.008-0.583-0.102-1.103c-0.094-0.52-0.313-0.953-0.66-1.302c-0.082-0.08-0.267-0.212-0.561-0.399
				s-0.789-0.28-1.482-0.28c-0.907,0-1.521,0.2-1.84,0.6c-0.293,0.321-0.461,0.728-0.502,1.221c-0.04,0.494-0.045,0.849-0.019,1.061
				v-0.038c0.024,0.427-0.027,0.815-0.161,1.159c-0.135,0.296-0.34,0.59-0.621,0.885c-0.281,0.291-0.727,0.479-1.34,0.558
				c-0.615,0.081-1.095,0.027-1.443-0.159c-0.346-0.188-0.613-0.415-0.8-0.68c-0.213-0.296-0.347-0.653-0.399-1.082
				c-0.029-0.08-0.054-0.335-0.081-0.761c-0.028-0.427,0-0.927,0.081-1.502c0.079-0.574,0.24-1.194,0.481-1.863
				c0.239-0.666,0.626-1.305,1.16-1.919c0.454-0.537,1.115-1.051,1.981-1.542c0.868-0.496,2.037-0.741,3.504-0.741
				c1.469,0,2.65,0.239,3.545,0.72c0.894,0.479,1.567,0.974,2.022,1.481c0.507,0.56,0.907,1.149,1.201,1.763
				c0.293,0.612,0.502,1.201,0.621,1.762c0.12,0.559,0.186,1.054,0.2,1.481c0.013,0.429,0.02,0.72,0.02,0.88
				c0,0.908-0.041,1.709-0.121,2.402c-0.08,0.695-0.188,1.323-0.318,1.883c-0.296,1.016-0.708,1.857-1.243,2.522l0.08,0.081
				C277.469,200.558,278.401,203.482,278.401,207.432z"/>
			<path fill="#CC9D45" d="M292.617,184.246c0.667,0,1.235,0.235,1.702,0.702c0.467,0.468,0.702,1.034,0.702,1.701v26.468
				c0,0.667-0.235,1.233-0.702,1.7c-0.466,0.467-1.035,0.701-1.702,0.701s-1.234-0.234-1.701-0.701
				c-0.469-0.467-0.702-1.033-0.702-1.7v-10.852h-9.169c-0.374,0-0.728-0.08-1.062-0.239c-0.333-0.16-0.607-0.387-0.82-0.682
				c-0.506-0.641-0.654-1.335-0.44-2.081l3.525-13.215c0.16-0.642,0.526-1.129,1.1-1.462c0.574-0.333,1.18-0.42,1.823-0.259
				c0.641,0.187,1.127,0.565,1.461,1.14c0.333,0.575,0.419,1.182,0.259,1.821l-2.722,10.172h6.046v-10.812
				c0-0.667,0.233-1.233,0.702-1.701C291.383,184.481,291.951,184.246,292.617,184.246z"/>
			<path fill="#CC9D45" d="M334.282,213.776c-0.2,0.629-0.608,1.088-1.221,1.384c-0.322,0.157-0.683,0.239-1.081,0.239
				c-0.454,0-0.867-0.115-1.241-0.342s-0.667-0.552-0.881-0.979l-5.928-11.692l-1.84,2.965v7.806c0,0.669-0.233,1.237-0.701,1.705
				c-0.468,0.465-1.034,0.699-1.701,0.699s-1.235-0.234-1.703-0.699c-0.466-0.468-0.7-1.036-0.7-1.705v-8.488v-0.041V186.69
				c0-0.665,0.233-1.233,0.7-1.701c0.467-0.468,1.036-0.702,1.703-0.702s1.233,0.234,1.701,0.702
				c0.467,0.468,0.701,1.036,0.701,1.701v9.491l6.567-10.652c0.346-0.587,0.84-0.954,1.479-1.101
				c0.642-0.147,1.256-0.047,1.844,0.301c0.562,0.347,0.92,0.84,1.081,1.48s0.053,1.24-0.322,1.801l-5.884,9.57l7.287,14.336
				C334.435,212.53,334.482,213.151,334.282,213.776z"/>
			<path fill="#CC9D45" d="M340.507,184.127c0.695,0,1.269,0.234,1.724,0.701c0.452,0.468,0.681,1.034,0.681,1.702v26.507
				c0,0.668-0.229,1.235-0.681,1.703c-0.455,0.466-1.028,0.696-1.724,0.696c-0.667,0-1.232-0.23-1.699-0.696
				c-0.469-0.468-0.702-1.035-0.702-1.703V186.53c0-0.668,0.232-1.234,0.702-1.702C339.274,184.361,339.841,184.127,340.507,184.127
				z"/>
			<path fill="#CC9D45" d="M363.132,211.336c0.453,0.466,0.682,1.034,0.682,1.701c0,0.668-0.229,1.235-0.682,1.703
				c-0.455,0.466-1.029,0.696-1.722,0.696h-10.451c-0.667,0-1.232-0.23-1.7-0.696c-0.468-0.468-0.701-1.035-0.701-1.703V186.53
				c0-0.668,0.232-1.234,0.701-1.702c0.468-0.467,1.034-0.701,1.7-0.701c0.667,0,1.233,0.234,1.703,0.701
				c0.466,0.468,0.7,1.034,0.7,1.702v24.104h8.048C362.103,210.635,362.677,210.868,363.132,211.336z"/>
			<path fill="#CC9D45" d="M382.792,207.473c0,0.159-0.006,0.458-0.021,0.899c-0.014,0.441-0.087,0.948-0.22,1.521
				c-0.135,0.575-0.348,1.188-0.64,1.843c-0.295,0.654-0.708,1.262-1.241,1.822c-0.456,0.507-1.128,1.001-2.022,1.481
				c-0.896,0.479-2.052,0.719-3.465,0.719c-1.415,0-2.557-0.239-3.424-0.719s-1.528-0.975-1.982-1.481
				c-0.533-0.588-0.939-1.217-1.222-1.882c-0.28-0.67-0.48-1.301-0.6-1.902s-0.182-1.135-0.182-1.603c0-0.467,0-0.795,0-0.981
				v-15.336c0-1.602,0.268-2.895,0.802-3.883c0.535-0.986,1.082-1.736,1.641-2.244c1.361-1.28,3.018-1.92,4.966-1.92
				c0.908,0,1.815,0.159,2.724,0.479c0.906,0.322,1.722,0.816,2.443,1.482c0.718,0.669,1.308,1.509,1.759,2.522
				c0.457,1.015,0.683,2.218,0.683,3.604L382.792,207.473L382.792,207.473z M377.187,210.276c0.187-0.188,0.333-0.417,0.438-0.683
				c0.108-0.267,0.188-0.534,0.241-0.802c0.053-0.266,0.087-0.5,0.1-0.698c0.015-0.202,0.021-0.343,0.021-0.421v-0.081v-15.696
				c0-0.721-0.1-1.293-0.299-1.722c-0.2-0.429-0.44-0.761-0.721-1.002c-0.281-0.24-0.581-0.394-0.901-0.46
				c-0.321-0.066-0.614-0.1-0.881-0.1c-0.215,0-0.467,0.033-0.762,0.1c-0.295,0.066-0.575,0.208-0.84,0.42
				c-0.267,0.215-0.501,0.54-0.701,0.981c-0.2,0.44-0.3,1.021-0.3,1.741v15.537v0.081c0,0.133,0,0.319,0,0.561
				c0,0.241,0.026,0.494,0.079,0.76c0.054,0.268,0.134,0.542,0.241,0.822c0.105,0.279,0.252,0.515,0.438,0.701
				c0.082,0.08,0.255,0.206,0.521,0.38c0.267,0.173,0.708,0.261,1.322,0.261c0.693,0,1.182-0.096,1.462-0.282
				C376.925,210.488,377.105,210.355,377.187,210.276z"/>
			<path fill="#CC9D45" d="M405.254,213.037c0,0.668-0.232,1.235-0.698,1.703c-0.468,0.466-1.036,0.696-1.703,0.696
				s-1.234-0.23-1.701-0.696c-0.467-0.468-0.702-1.035-0.702-1.703V196.54l-2.521,4.966c-0.216,0.587-0.603,1.014-1.162,1.281
				c-0.322,0.161-0.656,0.237-1.002,0.237h-0.04h-0.04h-0.041h-0.041c-0.347,0-0.68-0.076-1-0.237
				c-0.562-0.268-0.948-0.694-1.162-1.281l-2.523-4.966v16.497c0,0.668-0.232,1.235-0.7,1.703c-0.467,0.466-1.035,0.696-1.701,0.696
				c-0.668,0-1.234-0.23-1.701-0.696c-0.47-0.468-0.702-1.035-0.702-1.703V186.53v-0.119v-0.121v-0.041v-0.039
				c0-0.026,0.006-0.04,0.021-0.04c0.013,0,0.02-0.015,0.02-0.041v-0.04v-0.081c0-0.025,0.006-0.046,0.02-0.059
				c0.015-0.014,0.021-0.034,0.021-0.062c0.026-0.161,0.08-0.308,0.16-0.438c0-0.027,0.006-0.042,0.02-0.042
				c0.013,0,0.021-0.013,0.021-0.038l0.038-0.041l0.042-0.04c0-0.026,0.013-0.055,0.041-0.081v-0.038l0.079-0.082
				c0.056-0.053,0.101-0.104,0.141-0.157c0.041-0.055,0.086-0.109,0.141-0.162l0.08-0.08h0.04c0-0.026,0.006-0.039,0.021-0.039
				c0.014,0,0.02-0.015,0.02-0.04h0.041c0.025-0.026,0.053-0.041,0.079-0.041c0-0.026,0.015-0.039,0.041-0.039l0.041-0.041
				l0.08-0.04c0.025-0.025,0.054-0.04,0.08-0.04l0.041-0.04c0.024,0,0.053-0.014,0.08-0.039c0.025,0,0.046-0.008,0.059-0.02
				c0.013-0.016,0.034-0.022,0.062-0.022c0.025,0,0.046-0.006,0.061-0.02c0.012-0.013,0.032-0.021,0.06-0.021
				c0.026,0,0.054-0.01,0.08-0.039h0.041h0.081l0.039-0.04h0.041h0.082h0.04c0.025-0.026,0.053-0.04,0.079-0.04h0.041h0.12h0.12
				h0.121h0.077h0.041c0.028,0,0.055,0.014,0.082,0.04h0.081h0.039h0.08c0.107,0.055,0.2,0.087,0.281,0.1
				c0.081,0.014,0.159,0.048,0.239,0.101h0.041c0,0.025,0.027,0.04,0.082,0.04c0,0.027,0.011,0.04,0.038,0.04l0.041,0.04
				c0.025,0,0.054,0.014,0.08,0.041l0.08,0.08h0.041c0.133,0.079,0.241,0.187,0.318,0.321l0.082,0.077l0.079,0.08
				c0,0.029,0.007,0.041,0.021,0.041s0.021,0.014,0.021,0.041l0.042,0.038l0.039,0.042c0,0.026,0.013,0.054,0.039,0.079
				c0,0.028,0.007,0.049,0.021,0.059c0.011,0.015,0.02,0.035,0.02,0.062l5.045,9.89l5.046-9.89c0-0.055,0.011-0.093,0.039-0.121
				c0.026-0.025,0.041-0.053,0.041-0.079c0.024,0,0.041-0.016,0.041-0.042l0.04-0.038c0-0.027,0.012-0.053,0.039-0.082l0.081-0.08
				l0.081-0.077c0.078-0.135,0.187-0.242,0.319-0.321l0.079-0.08h0.041c0.028-0.027,0.053-0.041,0.081-0.041l0.04-0.04
				c0.025,0,0.039-0.013,0.039-0.04c0.054,0,0.082-0.015,0.082-0.04h0.039c0.054-0.053,0.12-0.087,0.2-0.101
				c0.082-0.013,0.146-0.03,0.199-0.06c0.057,0,0.095-0.014,0.121-0.04h0.081h0.04h0.081c0-0.026,0.014-0.04,0.041-0.04h0.081h0.078
				h0.121h0.122h0.118c0.053,0,0.092,0.014,0.121,0.04h0.079h0.08l0.041,0.04h0.081h0.039l0.081,0.039
				c0.025,0,0.046,0.008,0.061,0.021c0.014,0.014,0.032,0.02,0.061,0.02c0.025,0,0.053,0.015,0.08,0.042h0.04
				c0.027,0.025,0.053,0.039,0.081,0.039v0.04c0.054,0,0.092,0.015,0.12,0.04c0.026,0.026,0.054,0.04,0.08,0.04l0.041,0.041
				l0.039,0.039c0.025,0,0.054,0.015,0.082,0.041l0.077,0.079c0.054,0,0.082,0.025,0.082,0.08c0.134,0.081,0.24,0.188,0.319,0.319
				l0.081,0.082v0.038c0.025,0.026,0.041,0.055,0.041,0.081c0.026,0,0.039,0.015,0.039,0.04l0.041,0.041
				c0,0.025,0.013,0.053,0.041,0.08c0.052,0.132,0.105,0.278,0.16,0.438c0,0.055,0.015,0.094,0.041,0.119v0.081v0.04
				c0,0.026,0.012,0.055,0.039,0.081v0.039v0.041v0.121v0.119v26.508H405.254z"/>
			<path fill="#CC9D45" d="M423.415,211.296c0.466,0.468,0.699,1.034,0.699,1.702c0,0.667-0.233,1.233-0.699,1.701
				c-0.469,0.466-1.036,0.7-1.703,0.7h-9.81c-0.667,0-1.235-0.234-1.701-0.7c-0.468-0.468-0.701-1.034-0.701-1.701V186.49
				c0-0.668,0.233-1.235,0.701-1.702c0.465-0.468,1.034-0.702,1.701-0.702h9.81c0.667,0,1.233,0.234,1.703,0.702
				c0.466,0.467,0.699,1.034,0.699,1.702c0,0.693-0.233,1.266-0.699,1.72c-0.469,0.457-1.036,0.684-1.703,0.684h-7.408v10.089h5.127
				c0.666,0,1.234,0.233,1.7,0.702c0.466,0.466,0.701,1.033,0.701,1.7c0,0.669-0.234,1.236-0.701,1.704
				c-0.466,0.465-1.036,0.697-1.7,0.697h-5.127v6.81h7.408C422.379,210.596,422.946,210.829,423.415,211.296z"/>
			<path fill="#CC9D45" d="M442.955,184.849c0.467,0.454,0.703,1.027,0.703,1.72c0,0.67-0.235,1.236-0.703,1.704
				c-0.466,0.467-1.035,0.699-1.701,0.699h-3.724v24.026c0,0.667-0.234,1.233-0.701,1.701c-0.467,0.466-1.035,0.7-1.702,0.7
				s-1.235-0.234-1.703-0.7c-0.467-0.468-0.699-1.034-0.699-1.701v-24.026h-3.804c-0.669,0-1.236-0.232-1.701-0.699
				c-0.469-0.468-0.702-1.034-0.702-1.704c0-0.692,0.232-1.266,0.702-1.72c0.464-0.456,1.032-0.682,1.701-0.682h12.332
				C441.92,184.167,442.489,184.393,442.955,184.849z"/>
			<path fill="#CC9D45" d="M460.294,211.296c0.467,0.468,0.701,1.034,0.701,1.702c0,0.667-0.232,1.233-0.701,1.701
				c-0.468,0.466-1.036,0.7-1.702,0.7h-9.81c-0.668,0-1.235-0.234-1.703-0.7c-0.466-0.468-0.7-1.034-0.7-1.701V186.49
				c0-0.668,0.233-1.235,0.7-1.702c0.467-0.468,1.035-0.702,1.703-0.702h9.81c0.667,0,1.234,0.234,1.702,0.702
				c0.467,0.467,0.701,1.034,0.701,1.702c0,0.693-0.232,1.266-0.701,1.72c-0.468,0.457-1.036,0.684-1.702,0.684h-7.406v10.089h5.125
				c0.666,0,1.233,0.233,1.7,0.702c0.468,0.466,0.702,1.033,0.702,1.7c0,0.669-0.233,1.236-0.702,1.704
				c-0.466,0.465-1.034,0.697-1.7,0.697h-5.125v6.81h7.406C459.259,210.596,459.826,210.829,460.294,211.296z"/>
			<path fill="#CC9D45" d="M481.058,212.036c0.292,0.613,0.311,1.227,0.06,1.841c-0.254,0.616-0.688,1.058-1.302,1.322
				c-0.319,0.133-0.641,0.2-0.961,0.2c-0.454,0-0.882-0.127-1.28-0.381c-0.402-0.254-0.708-0.605-0.922-1.062l-4.445-10.172h-2.403
				v9.212c0,0.667-0.234,1.233-0.701,1.701c-0.468,0.466-1.034,0.701-1.7,0.701c-0.669,0-1.235-0.235-1.703-0.701
				c-0.466-0.468-0.699-1.034-0.699-1.701v-26.43c0-0.665,0.233-1.234,0.699-1.701c0.467-0.468,1.034-0.7,1.703-0.7h5.806
				c1.016,0,1.989,0.287,2.923,0.861c0.936,0.574,1.748,1.395,2.443,2.461c1.202,1.897,1.802,4.061,1.802,6.487
				c0,1.176-0.154,2.309-0.46,3.404c-0.308,1.097-0.754,2.109-1.341,3.043c-0.267,0.401-0.547,0.761-0.84,1.082
				c-0.295,0.321-0.587,0.613-0.88,0.88L481.058,212.036z M473.208,198.982c0.133,0,0.313-0.086,0.541-0.261
				c0.228-0.172,0.487-0.473,0.78-0.899c0.347-0.532,0.606-1.135,0.782-1.802c0.173-0.669,0.259-1.349,0.259-2.043
				c0-0.691-0.085-1.381-0.259-2.061c-0.176-0.683-0.436-1.289-0.782-1.823c-0.293-0.4-0.553-0.686-0.78-0.859
				c-0.228-0.175-0.408-0.262-0.541-0.262h-3.404v10.011H473.208L473.208,198.982z"/>
			<path fill="#CC9D45" d="M497.873,200.744c1.575,1.977,2.362,4.286,2.362,6.929c0,0.826-0.085,1.567-0.26,2.221
				c-0.175,0.655-0.388,1.236-0.642,1.744c-0.253,0.508-0.539,0.946-0.859,1.319c-0.321,0.375-0.643,0.694-0.96,0.962
				c-1.497,1.201-3.312,1.801-5.446,1.801c-1.041,0-2.015-0.146-2.924-0.439c-0.907-0.293-1.708-0.747-2.402-1.36
				c-0.294-0.242-0.594-0.547-0.902-0.921c-0.307-0.374-0.586-0.813-0.841-1.321c-0.253-0.508-0.459-1.097-0.62-1.764
				c-0.16-0.668-0.239-1.428-0.239-2.281c0-0.667,0.233-1.234,0.701-1.703c0.467-0.465,1.033-0.7,1.702-0.7
				c0.694,0,1.268,0.235,1.722,0.7c0.454,0.469,0.682,1.036,0.682,1.703c0,0.375,0.033,0.755,0.099,1.141
				c0.067,0.389,0.207,0.741,0.421,1.062c0.213,0.32,0.526,0.581,0.941,0.781c0.413,0.199,0.966,0.3,1.662,0.3
				c0.479,0,0.927-0.062,1.341-0.181c0.413-0.119,0.766-0.302,1.062-0.539c0.641-0.562,0.961-1.403,0.961-2.522
				c0-0.83-0.107-1.55-0.32-2.164c-0.214-0.613-0.528-1.18-0.94-1.7c-0.415-0.52-0.923-1.014-1.522-1.483
				c-0.602-0.466-1.275-0.965-2.021-1.5c-0.695-0.48-1.382-0.98-2.062-1.502c-0.683-0.521-1.318-1.113-1.903-1.783
				c-0.693-0.854-1.22-1.74-1.581-2.661c-0.361-0.922-0.541-1.929-0.541-3.024c0-0.16,0.006-0.452,0.021-0.879
				c0.012-0.428,0.08-0.923,0.199-1.483c0.12-0.561,0.321-1.146,0.602-1.761c0.28-0.615,0.688-1.201,1.22-1.761
				c0.454-0.51,1.136-1.003,2.042-1.483c0.907-0.48,2.083-0.721,3.524-0.721c1.467,0,2.636,0.248,3.502,0.74
				c0.869,0.494,1.53,0.996,1.982,1.501c0.507,0.615,0.888,1.263,1.141,1.942c0.256,0.68,0.421,1.309,0.503,1.884
				c0.078,0.575,0.104,1.074,0.078,1.501c-0.027,0.427-0.055,0.681-0.078,0.761c-0.082,0.481-0.241,0.882-0.48,1.201
				c-0.215,0.292-0.503,0.541-0.86,0.741c-0.361,0.199-0.851,0.235-1.462,0.1c-0.589-0.105-1.021-0.3-1.303-0.582
				c-0.279-0.277-0.467-0.572-0.561-0.88c-0.094-0.308-0.134-0.58-0.119-0.821c0.012-0.24,0.02-0.386,0.02-0.438
				c0.026-0.109,0.04-0.255,0.04-0.44c0-0.188-0.021-0.389-0.06-0.602c-0.041-0.214-0.102-0.429-0.18-0.641
				c-0.081-0.213-0.188-0.4-0.321-0.562c-0.321-0.399-0.935-0.601-1.842-0.601c-0.721,0-1.222,0.096-1.502,0.281
				c-0.28,0.188-0.459,0.319-0.54,0.398c-0.188,0.188-0.327,0.403-0.419,0.642c-0.095,0.241-0.169,0.481-0.222,0.722
				c-0.054,0.239-0.086,0.447-0.1,0.619c-0.016,0.175-0.021,0.302-0.021,0.381v0.08v0.08c0,0.534,0.094,1.021,0.28,1.462
				c0.187,0.438,0.447,0.854,0.782,1.24c0.333,0.39,0.754,0.776,1.261,1.162c0.506,0.389,1.082,0.81,1.722,1.262
				c0.747,0.535,1.516,1.109,2.303,1.723C496.479,199.236,497.206,199.944,497.873,200.744z"/>
		</g>
		<path fill="#CC9D45" d="M257.462,232.769c0.241,0.295,0.394,0.627,0.46,1c0.066,0.375,0.045,0.748-0.061,1.123l-7.567,26.188
			c-0.133,0.533-0.421,0.953-0.861,1.26s-0.929,0.46-1.461,0.46c-0.107,0-0.213,0-0.32,0s-0.215-0.026-0.321-0.081
			c-0.641-0.187-1.121-0.564-1.441-1.139s-0.387-1.184-0.199-1.822l6.686-23.146h-8.729c-0.667,0-1.236-0.231-1.702-0.699
			c-0.467-0.469-0.7-1.036-0.7-1.702c0-0.667,0.233-1.233,0.7-1.701c0.465-0.466,1.034-0.7,1.702-0.7h11.894
			C256.341,231.808,256.981,232.127,257.462,232.769z"/>
		<path fill="#CC9D45" d="M272.357,254.631c0.668,0,1.234,0.235,1.703,0.703c0.466,0.465,0.7,1.033,0.7,1.699
			c0,0.748-0.059,1.495-0.18,2.241c-0.119,0.748-0.407,1.431-0.86,2.043c-0.534,0.746-1.241,1.281-2.123,1.604
			c-0.719,0.266-1.601,0.396-2.642,0.396h-7.888c-0.668,0-1.234-0.231-1.702-0.698c-0.468-0.468-0.703-1.034-0.703-1.703
			c0-1.386,0.194-2.688,0.582-3.903c0.387-1.214,0.887-2.365,1.502-3.462c0.613-1.095,1.294-2.136,2.041-3.123
			c0.749-0.987,1.497-1.935,2.244-2.844c0.586-0.722,1.147-1.431,1.682-2.124c0.533-0.693,1.014-1.38,1.44-2.062
			c0.427-0.68,0.767-1.354,1.023-2.021c0.251-0.667,0.38-1.334,0.38-2.003v-0.16c0.025-0.215-0.006-0.572-0.1-1.081
			c-0.094-0.508-0.302-0.948-0.621-1.321c-0.079-0.08-0.267-0.205-0.561-0.381c-0.294-0.174-0.788-0.26-1.482-0.26
			c-0.936,0-1.562,0.188-1.882,0.561c-0.294,0.35-0.459,0.78-0.5,1.303c-0.04,0.52-0.047,0.833-0.021,0.939
			c0.108,0.668-0.041,1.271-0.439,1.803c-0.402,0.535-0.935,0.84-1.601,0.923c-0.668,0.104-1.262-0.042-1.782-0.442
			c-0.521-0.398-0.835-0.935-0.941-1.602c0-0.08-0.014-0.334-0.041-0.762c-0.026-0.428,0-0.928,0.08-1.502
			c0.082-0.574,0.233-1.193,0.461-1.86c0.229-0.666,0.607-1.308,1.141-1.923c0.454-0.533,1.122-1.041,2.002-1.521
			c0.88-0.479,2.056-0.72,3.522-0.72c1.443,0,2.609,0.233,3.504,0.698c0.893,0.469,1.567,0.955,2.021,1.465
			c0.508,0.559,0.909,1.152,1.203,1.781c0.292,0.625,0.5,1.215,0.621,1.761c0.119,0.546,0.187,1.034,0.199,1.463
			c0.012,0.427,0.02,0.72,0.02,0.88c0,1.095-0.161,2.137-0.481,3.123c-0.318,0.988-0.747,1.941-1.28,2.863
			c-0.536,0.918-1.135,1.814-1.802,2.681c-0.667,0.87-1.349,1.717-2.042,2.544c-1.069,1.311-2.064,2.598-2.984,3.866
			c-0.921,1.267-1.569,2.606-1.943,4.021h5.126c0.24,0,0.433-0.004,0.581-0.019c0.146-0.015,0.261-0.033,0.34-0.062
			c0.027-0.105,0.047-0.261,0.061-0.461c0.013-0.199,0.021-0.512,0.021-0.939c0-0.666,0.233-1.234,0.701-1.699
			C271.122,254.866,271.691,254.631,272.357,254.631z"/>
		<path fill="#CC9D45" d="M280.546,257.735c0.627-0.174,1.247-0.088,1.861,0.258c0.561,0.322,0.928,0.802,1.101,1.443
			c0.173,0.639,0.101,1.241-0.22,1.801l-2.842,4.965c-0.348,0.589-0.84,0.969-1.482,1.142c-0.64,0.173-1.241,0.101-1.801-0.219
			c-0.615-0.349-1-0.841-1.161-1.483c-0.162-0.64-0.066-1.24,0.28-1.803l2.843-4.962
			C279.445,258.287,279.919,257.907,280.546,257.735z"/>
		<path fill="#CC9D45" d="M300.386,254.992c0,2.241-0.534,4.056-1.601,5.446c-1.523,1.945-3.926,2.922-7.208,2.922
			c-1.47,0-2.636-0.247-3.504-0.741c-0.867-0.491-1.529-0.993-1.982-1.502c-0.534-0.589-0.92-1.222-1.161-1.901
			c-0.241-0.679-0.401-1.314-0.48-1.9c-0.081-0.59-0.108-1.088-0.081-1.504c0.026-0.412,0.053-0.672,0.081-0.778
			c0.105-0.376,0.281-0.709,0.52-1.002c0.213-0.24,0.493-0.453,0.841-0.642c0.347-0.188,0.787-0.238,1.321-0.16
			c0.535,0.08,0.941,0.256,1.221,0.521c0.281,0.269,0.489,0.549,0.622,0.842c0.132,0.349,0.212,0.72,0.24,1.121
			c-0.028,0.188-0.022,0.527,0.019,1.021c0.041,0.496,0.208,0.901,0.502,1.223c0.318,0.4,0.934,0.602,1.841,0.602
			c0.826,0,1.508-0.074,2.041-0.222c0.534-0.146,0.941-0.372,1.222-0.681c0.281-0.308,0.474-0.68,0.581-1.122
			c0.107-0.438,0.161-0.952,0.161-1.539c0-2.617-0.481-4.431-1.442-5.447c-0.748-0.746-1.988-1.12-3.724-1.12
			c-0.667,0-1.235-0.232-1.702-0.701c-0.466-0.467-0.7-1.033-0.7-1.703v-0.037c0-0.694,0.233-1.269,0.7-1.725
			c0.467-0.453,1.036-0.681,1.702-0.681c0.24,0,0.526,0,0.86,0c0.333,0,0.661-0.011,0.982-0.038c0.319-0.027,0.611-0.068,0.88-0.121
			c0.267-0.053,0.454-0.134,0.562-0.24c0.025-0.025,0.078-0.102,0.16-0.221c0.08-0.119,0.16-0.326,0.241-0.62
			c0.079-0.293,0.144-0.687,0.198-1.181c0.056-0.493,0.081-1.129,0.081-1.902v-0.119c0.027-0.215-0.006-0.582-0.1-1.102
			c-0.094-0.521-0.314-0.953-0.662-1.303c-0.079-0.078-0.267-0.213-0.559-0.4c-0.294-0.186-0.79-0.28-1.482-0.28
			c-0.908,0-1.523,0.2-1.841,0.603c-0.295,0.32-0.461,0.727-0.502,1.221s-0.046,0.85-0.019,1.061v-0.039
			c0.025,0.428-0.028,0.814-0.161,1.162c-0.135,0.293-0.341,0.586-0.62,0.881c-0.282,0.293-0.729,0.479-1.341,0.56
			c-0.615,0.082-1.096,0.026-1.443-0.159c-0.347-0.188-0.613-0.415-0.8-0.68c-0.213-0.294-0.347-0.655-0.4-1.082
			c-0.028-0.081-0.055-0.334-0.081-0.762c-0.028-0.426,0-0.926,0.081-1.5c0.079-0.575,0.24-1.196,0.48-1.864
			c0.24-0.665,0.627-1.308,1.161-1.919c0.454-0.536,1.115-1.051,1.982-1.542c0.868-0.494,2.035-0.742,3.504-0.742
			c1.467,0,2.648,0.24,3.544,0.72c0.894,0.481,1.567,0.978,2.021,1.483c0.506,0.56,0.906,1.149,1.201,1.761
			c0.292,0.615,0.502,1.201,0.621,1.764c0.12,0.56,0.186,1.055,0.201,1.481c0.011,0.426,0.019,0.72,0.019,0.879
			c0,0.91-0.041,1.71-0.12,2.403c-0.08,0.693-0.188,1.322-0.319,1.881c-0.296,1.018-0.708,1.857-1.243,2.523l0.081,0.078
			C299.452,248.117,300.386,251.041,300.386,254.992z"/>
		<path fill="#CC9D45" d="M319.246,251.787c0.295,1.55,0.28,3.071-0.041,4.565c-0.186,0.826-0.453,1.608-0.801,2.342
			s-0.787,1.396-1.32,1.983c-0.401,0.453-0.841,0.854-1.321,1.2c-0.481,0.348-0.987,0.627-1.521,0.839
			c-1.015,0.403-2.083,0.601-3.205,0.601h-0.639c-1.79-0.105-3.378-0.653-4.767-1.642c-1.334-0.933-2.401-2.215-3.203-3.842
			c-1.255-2.669-1.788-6.074-1.602-10.212c0-1.548,0.174-2.964,0.521-4.244c0.347-1.281,0.795-2.422,1.341-3.424
			c0.547-1.001,1.148-1.882,1.802-2.643c0.655-0.762,1.301-1.408,1.943-1.942c0.667-0.56,1.32-1.042,1.96-1.441
			c0.643-0.397,1.222-0.727,1.742-0.979c0.521-0.253,0.947-0.44,1.28-0.561c0.335-0.121,0.542-0.195,0.623-0.222
			c0.426-0.133,0.839-0.171,1.241-0.12c0.345,0.055,0.693,0.188,1.041,0.4c0.346,0.214,0.626,0.589,0.84,1.119
			c0.213,0.562,0.241,1.043,0.081,1.443s-0.373,0.733-0.642,1.001c-0.292,0.294-0.681,0.548-1.161,0.763
			c-0.4,0.133-0.828,0.308-1.281,0.52c-0.375,0.186-0.802,0.434-1.282,0.741c-0.479,0.308-0.976,0.675-1.48,1.102
			c-2.376,2.08-3.617,4.708-3.725,7.888c0.614-0.429,1.354-0.785,2.225-1.082c0.864-0.293,1.874-0.439,3.022-0.439
			c0.906,0,1.72,0.096,2.442,0.28c0.72,0.188,1.359,0.434,1.92,0.739c0.561,0.308,1.041,0.641,1.441,1.002
			c0.4,0.36,0.748,0.713,1.043,1.062c0.533,0.722,0.899,1.39,1.1,2.002C319.067,251.2,319.192,251.603,319.246,251.787z
			 M313.48,257.474c0.479-0.533,0.821-1.246,1.021-2.14c0.198-0.896,0.206-1.771,0.02-2.626v-0.04
			c-0.026-0.052-0.086-0.199-0.182-0.438c-0.093-0.239-0.26-0.508-0.499-0.803c-0.641-0.746-1.614-1.121-2.923-1.121
			c-1.389,0-2.524,0.455-3.403,1.362c-0.322,0.347-0.556,0.674-0.702,0.981c-0.146,0.307-0.233,0.485-0.261,0.539
			c-0.026,0.053-0.061,0.181-0.102,0.381c-0.041,0.203-0.045,0.433-0.019,0.699c0,0.217,0.047,0.487,0.14,0.823
			c0.094,0.332,0.18,0.579,0.259,0.738c0,0.055,0.016,0.095,0.041,0.122c0.802,1.6,2.083,2.456,3.847,2.561
			C311.891,258.595,312.813,258.247,313.48,257.474z"/>
		<path fill="#CC9D45" d="M335.623,232.769c0.239,0.295,0.394,0.627,0.459,1c0.066,0.375,0.047,0.748-0.062,1.123l-7.566,26.188
			c-0.134,0.533-0.42,0.953-0.861,1.26s-0.929,0.46-1.462,0.46c-0.106,0-0.212,0-0.318,0c-0.109,0-0.216-0.026-0.322-0.081
			c-0.641-0.187-1.12-0.564-1.441-1.139c-0.317-0.574-0.386-1.184-0.199-1.822l6.687-23.146h-8.728
			c-0.669,0-1.235-0.231-1.703-0.699c-0.468-0.469-0.7-1.036-0.7-1.702c0-0.667,0.232-1.233,0.7-1.701
			c0.467-0.466,1.034-0.7,1.703-0.7H333.7C334.501,231.808,335.142,232.127,335.623,232.769z"/>
		<path fill="#CC9D45" d="M376.665,260.596c0,0.669-0.232,1.236-0.701,1.702c-0.466,0.467-1.035,0.701-1.701,0.701
			c-0.668,0-1.233-0.234-1.701-0.701c-0.469-0.466-0.701-1.033-0.701-1.702v-16.495l-2.523,4.967
			c-0.212,0.584-0.601,1.013-1.16,1.279c-0.32,0.159-0.655,0.239-1.002,0.239h-0.039h-0.041h-0.04h-0.041
			c-0.348,0-0.681-0.08-1.001-0.239c-0.562-0.268-0.948-0.695-1.161-1.279l-2.523-4.967v16.495c0,0.669-0.233,1.236-0.7,1.702
			c-0.467,0.467-1.035,0.701-1.703,0.701c-0.667,0-1.232-0.234-1.699-0.701c-0.469-0.466-0.702-1.033-0.702-1.702v-26.507v-0.119
			v-0.119v-0.041v-0.041c0-0.025,0.006-0.039,0.02-0.039s0.021-0.014,0.021-0.041v-0.039v-0.082c0-0.024,0.006-0.045,0.019-0.06
			c0.015-0.013,0.022-0.032,0.022-0.059c0.023-0.162,0.078-0.308,0.159-0.441c0-0.024,0.006-0.041,0.021-0.041
			c0.013,0,0.021-0.012,0.021-0.038l0.039-0.041l0.041-0.041c0-0.026,0.014-0.053,0.039-0.078v-0.039l0.082-0.082
			c0.053-0.053,0.1-0.105,0.141-0.158c0.04-0.055,0.086-0.107,0.14-0.161l0.08-0.081h0.041c0-0.023,0.006-0.038,0.021-0.038
			c0.011,0,0.021-0.017,0.021-0.041h0.039c0.026-0.024,0.054-0.04,0.081-0.04c0-0.025,0.012-0.04,0.04-0.04l0.041-0.04l0.08-0.041
			c0.026-0.025,0.053-0.04,0.08-0.04l0.041-0.038c0.024,0,0.051-0.013,0.079-0.039c0.025,0,0.047-0.008,0.06-0.021
			c0.013-0.015,0.034-0.021,0.061-0.021s0.046-0.007,0.061-0.021c0.014-0.012,0.034-0.018,0.061-0.018s0.054-0.013,0.08-0.041h0.04
			h0.081l0.038-0.041h0.041h0.08h0.039c0.029-0.024,0.053-0.039,0.082-0.039h0.041h0.119h0.118h0.121h0.08h0.041
			c0.028,0,0.054,0.015,0.082,0.039h0.078h0.041h0.08c0.104,0.053,0.199,0.088,0.281,0.1c0.081,0.016,0.161,0.048,0.238,0.104h0.042
			c0,0.024,0.025,0.037,0.08,0.037c0,0.03,0.014,0.04,0.039,0.04l0.041,0.041c0.028,0,0.055,0.015,0.082,0.04l0.08,0.08h0.039
			c0.134,0.079,0.242,0.188,0.32,0.321l0.082,0.08l0.08,0.079c0,0.025,0.005,0.041,0.019,0.041c0.013,0,0.021,0.012,0.021,0.039
			l0.038,0.041l0.041,0.039c0,0.027,0.015,0.055,0.041,0.08c0,0.026,0.006,0.047,0.02,0.061c0.013,0.013,0.021,0.033,0.021,0.06
			l5.046,9.89l5.046-9.89c0-0.053,0.012-0.093,0.04-0.12c0.025-0.024,0.041-0.052,0.041-0.08c0.025,0,0.039-0.014,0.039-0.039
			l0.041-0.039c0-0.028,0.013-0.056,0.039-0.082l0.082-0.078l0.079-0.08c0.08-0.135,0.188-0.242,0.321-0.321l0.079-0.08h0.041
			c0.026-0.026,0.054-0.04,0.08-0.04l0.039-0.041c0.028,0,0.042-0.01,0.042-0.039c0.052,0,0.081-0.014,0.081-0.039h0.039
			c0.054-0.055,0.12-0.086,0.2-0.103c0.081-0.013,0.147-0.029,0.2-0.058c0.054,0,0.093-0.016,0.12-0.043h0.08h0.041h0.08
			c0-0.023,0.013-0.039,0.041-0.039h0.081h0.079h0.12h0.12h0.12c0.053,0,0.094,0.016,0.12,0.039h0.081h0.08l0.041,0.043h0.08h0.039
			l0.08,0.039c0.026,0,0.047,0.006,0.06,0.019c0.017,0.017,0.035,0.021,0.062,0.021c0.025,0,0.054,0.015,0.08,0.043h0.041
			c0.026,0.025,0.053,0.039,0.081,0.039v0.037c0.053,0,0.092,0.016,0.117,0.04c0.028,0.028,0.056,0.041,0.082,0.041l0.041,0.04
			l0.04,0.04c0.025,0,0.054,0.015,0.079,0.04l0.082,0.079c0.052,0,0.079,0.026,0.079,0.081c0.133,0.082,0.241,0.188,0.322,0.32
			l0.078,0.08v0.041c0.026,0.024,0.041,0.051,0.041,0.078c0.026,0,0.04,0.016,0.04,0.041l0.041,0.041
			c0,0.025,0.013,0.053,0.041,0.078c0.052,0.135,0.105,0.279,0.159,0.441c0,0.053,0.014,0.093,0.041,0.117v0.082v0.039
			c0,0.027,0.012,0.055,0.039,0.08v0.041v0.041v0.119v0.119v26.507H376.665z"/>
		<path fill="#CC9D45" d="M383.472,231.687c0.695,0,1.271,0.235,1.724,0.703c0.452,0.465,0.68,1.031,0.68,1.699v26.507
			c0,0.669-0.228,1.236-0.68,1.702c-0.454,0.467-1.028,0.701-1.724,0.701c-0.666,0-1.232-0.234-1.7-0.701
			c-0.468-0.466-0.702-1.033-0.702-1.702v-26.507c0-0.668,0.232-1.234,0.702-1.7C382.239,231.922,382.806,231.687,383.472,231.687z"
			/>
		<path fill="#CC9D45" d="M406.097,258.896c0.452,0.467,0.68,1.033,0.68,1.7c0,0.669-0.228,1.236-0.68,1.702
			c-0.454,0.467-1.029,0.701-1.724,0.701h-10.449c-0.667,0-1.235-0.234-1.7-0.701c-0.469-0.466-0.703-1.033-0.703-1.702v-26.507
			c0-0.668,0.233-1.234,0.703-1.7c0.465-0.467,1.033-0.702,1.7-0.702s1.233,0.235,1.702,0.702c0.467,0.466,0.701,1.032,0.701,1.7
			v24.105h8.047C405.068,258.194,405.643,258.429,406.097,258.896z"/>
		<path fill="#CC9D45" d="M425.415,258.854c0.467,0.47,0.701,1.035,0.701,1.703s-0.233,1.233-0.701,1.701
			c-0.466,0.467-1.034,0.7-1.703,0.7h-9.809c-0.667,0-1.235-0.233-1.701-0.7c-0.467-0.468-0.702-1.033-0.702-1.701V234.05
			c0-0.668,0.234-1.236,0.702-1.703c0.466-0.466,1.034-0.699,1.701-0.699h9.809c0.669,0,1.236,0.233,1.703,0.699
			c0.467,0.467,0.701,1.035,0.701,1.703c0,0.694-0.233,1.268-0.701,1.721c-0.466,0.457-1.034,0.683-1.703,0.683h-7.408v10.09h5.129
			c0.666,0,1.232,0.233,1.7,0.701c0.467,0.467,0.701,1.032,0.701,1.7c0,0.669-0.234,1.234-0.701,1.701
			c-0.467,0.469-1.034,0.703-1.7,0.703h-5.129v6.809h7.408C424.382,258.156,424.949,258.387,425.415,258.854z"/>
		<path fill="#CC9D45" d="M443.335,248.306c1.575,1.976,2.362,4.282,2.362,6.928c0,0.826-0.086,1.566-0.26,2.222
			c-0.173,0.655-0.388,1.235-0.642,1.742c-0.254,0.506-0.54,0.948-0.859,1.321c-0.321,0.373-0.643,0.692-0.961,0.961
			c-1.495,1.201-3.312,1.8-5.445,1.8c-1.042,0-2.018-0.146-2.924-0.438c-0.909-0.294-1.709-0.749-2.402-1.359
			c-0.294-0.242-0.594-0.549-0.902-0.922c-0.307-0.375-0.586-0.814-0.841-1.324c-0.254-0.504-0.459-1.092-0.621-1.76
			c-0.159-0.668-0.238-1.429-0.238-2.283c0-0.666,0.233-1.232,0.7-1.7c0.468-0.468,1.034-0.702,1.703-0.702
			c0.694,0,1.268,0.234,1.722,0.702c0.451,0.468,0.681,1.034,0.681,1.7c0,0.373,0.033,0.756,0.1,1.141
			c0.066,0.389,0.207,0.743,0.421,1.062c0.214,0.318,0.525,0.58,0.941,0.779c0.413,0.2,0.966,0.301,1.662,0.301
			c0.479,0,0.926-0.061,1.34-0.18c0.414-0.121,0.767-0.302,1.062-0.542c0.641-0.562,0.959-1.399,0.959-2.521
			c0-0.828-0.105-1.549-0.318-2.163c-0.215-0.613-0.528-1.181-0.941-1.701c-0.415-0.521-0.922-1.015-1.521-1.483
			c-0.601-0.465-1.275-0.965-2.021-1.503c-0.694-0.479-1.382-0.979-2.062-1.497c-0.685-0.521-1.317-1.115-1.903-1.785
			c-0.694-0.853-1.221-1.739-1.582-2.662c-0.36-0.92-0.541-1.928-0.541-3.021c0-0.16,0.006-0.453,0.021-0.88
			c0.011-0.429,0.081-0.921,0.199-1.483c0.12-0.561,0.321-1.146,0.602-1.76c0.28-0.615,0.688-1.203,1.22-1.762
			c0.455-0.51,1.136-1.003,2.043-1.483c0.907-0.479,2.082-0.721,3.523-0.721c1.468,0,2.636,0.249,3.504,0.74
			c0.868,0.495,1.529,0.995,1.98,1.501c0.508,0.615,0.889,1.263,1.142,1.943c0.256,0.68,0.42,1.307,0.502,1.881
			c0.08,0.574,0.105,1.074,0.08,1.502c-0.029,0.428-0.053,0.682-0.08,0.762c-0.082,0.48-0.24,0.881-0.48,1.201
			c-0.214,0.293-0.501,0.539-0.86,0.74c-0.361,0.2-0.849,0.233-1.461,0.103c-0.589-0.106-1.021-0.304-1.303-0.583
			c-0.279-0.28-0.466-0.572-0.562-0.88c-0.093-0.308-0.134-0.581-0.118-0.821c0.013-0.24,0.021-0.386,0.021-0.439
			c0.023-0.107,0.039-0.254,0.039-0.439c0-0.188-0.021-0.389-0.06-0.602c-0.041-0.215-0.102-0.43-0.181-0.642
			c-0.081-0.212-0.188-0.401-0.32-0.562c-0.321-0.4-0.935-0.602-1.843-0.602c-0.72,0-1.22,0.096-1.501,0.28
			c-0.28,0.188-0.46,0.321-0.54,0.399c-0.188,0.188-0.328,0.401-0.42,0.642c-0.095,0.241-0.168,0.481-0.221,0.721
			c-0.054,0.241-0.087,0.446-0.101,0.621c-0.013,0.175-0.021,0.302-0.021,0.382v0.079v0.079c0,0.536,0.095,1.021,0.282,1.462
			c0.187,0.44,0.446,0.855,0.782,1.241c0.333,0.389,0.753,0.773,1.261,1.161c0.506,0.389,1.082,0.81,1.722,1.261
			c0.746,0.534,1.516,1.109,2.304,1.725C441.94,246.796,442.667,247.505,443.335,248.306z"/>
		<g>
			<path fill="#CC9D45" d="M284.598,283.581c0.308,0.309,0.459,0.68,0.459,1.117c0,0.437-0.152,0.809-0.459,1.115
				c-0.306,0.306-0.677,0.459-1.116,0.459h-0.578l0.289,0.5c0.228,0.367,0.285,0.761,0.171,1.18
				c-0.113,0.419-0.364,0.744-0.746,0.972c-0.247,0.142-0.508,0.208-0.788,0.208c-0.262,0-0.522-0.066-0.776-0.208
				c-0.254-0.139-0.452-0.331-0.59-0.577l-0.262-0.498l-0.289,0.498c-0.141,0.246-0.333,0.438-0.579,0.577
				c-0.246,0.142-0.506,0.208-0.786,0.208c-0.282,0-0.544-0.066-0.789-0.208c-0.386-0.228-0.634-0.547-0.749-0.958
				c-0.113-0.411-0.057-0.81,0.17-1.193l0.289-0.5h-0.577c-0.437,0-0.81-0.152-1.114-0.459c-0.306-0.307-0.459-0.679-0.459-1.114
				c0-0.438,0.154-0.81,0.459-1.117c0.305-0.306,0.678-0.458,1.114-0.458h0.552l-0.263-0.475c-0.227-0.383-0.284-0.783-0.17-1.205
				c0.115-0.42,0.356-0.736,0.722-0.944c0.386-0.229,0.789-0.284,1.208-0.171c0.419,0.111,0.736,0.361,0.945,0.747l0.288,0.474
				l0.289-0.474c0.21-0.386,0.525-0.636,0.945-0.747c0.421-0.113,0.822-0.064,1.208,0.145c0.366,0.227,0.605,0.551,0.721,0.973
				c0.113,0.421,0.065,0.812-0.146,1.18l-0.289,0.499h0.578C283.921,283.123,284.292,283.276,284.598,283.581z"/>
			<path fill="#CC9D45" d="M287.761,279.687c0.456,0,0.833,0.151,1.128,0.459c0.298,0.305,0.447,0.679,0.447,1.113v17.378
				c0,0.438-0.149,0.81-0.447,1.113c-0.295,0.308-0.672,0.46-1.128,0.46c-0.438,0-0.809-0.152-1.115-0.46
				c-0.307-0.306-0.458-0.677-0.458-1.113v-17.378c0-0.436,0.151-0.81,0.458-1.113C286.952,279.838,287.324,279.687,287.761,279.687
				z"/>
			<path fill="#CC9D45" d="M301.438,279.687c0.438,0,0.809,0.151,1.116,0.459c0.304,0.305,0.458,0.679,0.458,1.113v17.352v0.104
				v0.08v0.025v0.052l-0.026,0.026v0.027v0.053v0.025c-0.019,0.016-0.026,0.035-0.026,0.053v0.025c0,0.018-0.005,0.025-0.013,0.025
				c-0.011,0-0.014,0.012-0.014,0.026c0,0.019-0.003,0.032-0.013,0.04c-0.008,0.01-0.012,0.021-0.012,0.039
				c0,0.02-0.007,0.031-0.014,0.039c-0.01,0.009-0.013,0.023-0.013,0.039c0,0.018-0.005,0.027-0.015,0.027
				c-0.009,0-0.012,0.009-0.012,0.025v0.024c-0.018,0-0.027,0.009-0.027,0.026l-0.027,0.027c0,0.016-0.008,0.034-0.026,0.053
				l-0.025,0.024v0.026c-0.017,0-0.027,0.01-0.027,0.026s-0.008,0.025-0.025,0.025c0,0.017-0.005,0.026-0.014,0.026
				c-0.01,0-0.013,0.01-0.013,0.025h-0.026c0,0.018-0.01,0.037-0.028,0.053l-0.051,0.053l-0.054,0.052l-0.052,0.054h-0.026
				l-0.052,0.055c-0.017,0.016-0.036,0.023-0.052,0.023c0,0.018-0.01,0.025-0.028,0.025l-0.026,0.026
				c-0.018,0-0.027,0.005-0.027,0.015c0,0.008-0.008,0.012-0.025,0.012h-0.026l-0.053,0.055c-0.071,0.034-0.132,0.061-0.185,0.076
				c-0.051,0.02-0.123,0.037-0.21,0.055c-0.069,0.019-0.174,0.024-0.313,0.024c-0.105,0-0.185-0.007-0.237-0.024h-0.052h-0.027
				c-0.017,0-0.027-0.011-0.027-0.025h-0.105v-0.028h-0.052c-0.069-0.033-0.115-0.053-0.132-0.053c-0.018,0-0.026-0.007-0.026-0.023
				h-0.027c-0.018,0-0.025-0.009-0.025-0.026c-0.018,0-0.035-0.01-0.053-0.027c-0.017,0-0.026-0.01-0.026-0.025h-0.027
				c-0.019,0-0.027-0.004-0.027-0.013s-0.008-0.015-0.024-0.015c-0.194-0.14-0.351-0.307-0.473-0.5v-0.022
				c-0.018,0-0.027-0.011-0.027-0.028l-0.026-0.025v-0.024c-0.018-0.018-0.027-0.036-0.027-0.054c0-0.016-0.008-0.035-0.026-0.053
				l-4.488-10.369v9.767c0,0.437-0.153,0.81-0.458,1.113c-0.308,0.308-0.679,0.46-1.117,0.46s-0.81-0.152-1.115-0.46
				c-0.306-0.306-0.458-0.677-0.458-1.113v-17.351v-0.105v-0.078v-0.027v-0.051l0.024-0.026v-0.025v-0.053v-0.026
				c0.018-0.017,0.027-0.035,0.027-0.053v-0.027c0-0.016,0.004-0.023,0.012-0.023c0.01,0,0.014-0.01,0.014-0.026
				c0-0.018,0.004-0.03,0.013-0.038c0.01-0.011,0.013-0.025,0.013-0.042s0.005-0.028,0.015-0.038
				c0.007-0.009,0.012-0.022,0.012-0.039c0-0.018,0.004-0.025,0.013-0.025s0.013-0.01,0.013-0.027v-0.025l0.053-0.054
				c0-0.017,0.003-0.024,0.013-0.024c0.007,0,0.013-0.01,0.013-0.026l0.027-0.026v-0.025c0.017-0.02,0.027-0.035,0.027-0.053h0.025
				c0-0.018,0.006-0.026,0.013-0.026c0.009,0,0.014-0.009,0.014-0.025h0.025c0-0.017,0.009-0.034,0.028-0.053l0.051-0.053v-0.027
				c0.019,0,0.036-0.009,0.054-0.024v-0.027c0.016,0,0.035-0.008,0.051-0.024h0.027l0.054-0.054l0.051-0.052h0.026
				c0-0.02,0.01-0.024,0.027-0.024c0.018,0,0.027-0.006,0.027-0.016s0.008-0.014,0.026-0.014h0.026l0.053-0.053
				c0.122-0.068,0.243-0.113,0.367-0.133h0.026c0.087-0.014,0.219-0.023,0.395-0.023h0.078h0.026l0.026,0.023h0.052h0.026h0.053
				c0,0.02,0.009,0.027,0.028,0.027h0.052h0.027c0,0.019,0.017,0.027,0.051,0.027c0.018,0.014,0.044,0.023,0.079,0.023
				c0.019,0.02,0.035,0.027,0.053,0.027h0.027c0,0.02,0.017,0.025,0.052,0.025v0.028c0.034,0,0.052,0.007,0.052,0.022h0.027
				c0.019,0,0.025,0.004,0.025,0.015c0,0.01,0.009,0.016,0.027,0.016l0.027,0.024l0.025,0.024l0.028,0.026h0.026
				c0.016,0.018,0.035,0.027,0.052,0.027v0.025c0.017,0,0.026,0.004,0.026,0.014c0,0.009,0.008,0.012,0.026,0.012v0.027
				c0.018,0,0.028,0.004,0.028,0.013s0.007,0.013,0.026,0.013v0.027l0.052,0.053l0.053,0.053l0.052,0.053
				c0,0.018,0.009,0.033,0.028,0.053c0.016,0,0.024,0.009,0.024,0.025c0,0.019,0.008,0.026,0.026,0.026
				c0,0.035,0.009,0.052,0.028,0.052v0.027c0.016,0.018,0.026,0.035,0.026,0.052h0.026c0,0.036,0.005,0.058,0.014,0.065
				c0.009,0.009,0.011,0.021,0.011,0.037l4.49,10.369v-9.765c0-0.437,0.153-0.81,0.458-1.112
				C300.628,279.838,300.999,279.687,301.438,279.687z"/>
			<path fill="#CC9D45" d="M327.056,280.944c0.366,0.352,0.726,0.846,1.076,1.482c0.35,0.639,0.525,1.492,0.525,2.561v9.922
				c0,1.066-0.176,1.92-0.525,2.559c-0.351,0.641-0.709,1.133-1.076,1.483c-0.928,0.839-2.021,1.259-3.281,1.259h-1.969h-1.445
				c-0.437,0-0.81-0.152-1.114-0.46c-0.305-0.306-0.459-0.677-0.459-1.113v-17.378c0-0.436,0.154-0.81,0.459-1.113
				c0.306-0.308,0.679-0.459,1.114-0.459h1.445h1.969C325.034,279.687,326.128,280.104,327.056,280.944z M325.507,284.987
				c0-0.489-0.065-0.875-0.197-1.156c-0.133-0.278-0.288-0.494-0.473-0.643c-0.183-0.147-0.375-0.246-0.579-0.289
				c-0.198-0.043-0.362-0.065-0.483-0.065h-1.839v14.228h1.839c0.121,0,0.285-0.022,0.483-0.063c0.204-0.045,0.396-0.142,0.579-0.29
				c0.186-0.148,0.34-0.362,0.473-0.645c0.132-0.278,0.197-0.666,0.197-1.153V284.987z"/>
			<path fill="#CC9D45" d="M333.222,279.687c0.457,0,0.832,0.151,1.13,0.459c0.296,0.305,0.444,0.679,0.444,1.113v17.378
				c0,0.438-0.148,0.81-0.444,1.113c-0.298,0.308-0.673,0.46-1.13,0.46c-0.436,0-0.809-0.152-1.113-0.46
				c-0.309-0.306-0.459-0.677-0.459-1.113v-17.378c0-0.436,0.151-0.81,0.459-1.113C332.413,279.838,332.786,279.687,333.222,279.687
				z"/>
			<path fill="#CC9D45" d="M346.978,298.558c0.087,0.438,0.013,0.838-0.223,1.192c-0.234,0.358-0.573,0.583-1.012,0.671
				c-0.07,0.018-0.167,0.025-0.289,0.025c-0.366,0-0.695-0.118-0.984-0.354c-0.287-0.234-0.477-0.537-0.562-0.906l-0.552-2.677
				h-2.81l-0.551,2.677c-0.07,0.369-0.249,0.672-0.54,0.906c-0.288,0.235-0.615,0.354-0.983,0.354c-0.14,0-0.243-0.01-0.314-0.025
				c-0.438-0.088-0.774-0.312-1.011-0.671c-0.234-0.354-0.31-0.755-0.223-1.192l3.491-17.352v-0.025v-0.053
				c0-0.018,0.004-0.025,0.014-0.025c0.009,0,0.015-0.01,0.015-0.026v-0.025v-0.026c0.015-0.018,0.024-0.033,0.024-0.051
				c0-0.019,0.005-0.026,0.015-0.026c0.009,0,0.013-0.009,0.013-0.026v-0.025c0.052-0.141,0.13-0.265,0.237-0.369v-0.024
				c0.015,0,0.022-0.004,0.022-0.013c0-0.012,0.011-0.016,0.028-0.016v-0.023l0.027-0.027l0.024-0.027l0.027-0.024l0.026-0.026
				l0.024-0.025l0.053-0.026c0.106-0.104,0.228-0.185,0.368-0.235h0.027c0.016-0.017,0.035-0.025,0.052-0.025
				c0.087-0.034,0.167-0.059,0.237-0.066c0.069-0.008,0.149-0.021,0.235-0.037h0.026h0.054h0.052
				c0.087,0.016,0.166,0.029,0.236,0.037c0.068,0.01,0.147,0.032,0.235,0.066c0.018,0,0.035,0.01,0.054,0.025h0.026
				c0.138,0.053,0.263,0.131,0.366,0.235c0.018,0,0.035,0.01,0.054,0.026l0.025,0.025l0.026,0.026l0.027,0.024l0.024,0.027
				l0.028,0.027l0.025,0.023l0.026,0.027v0.025c0.105,0.104,0.185,0.229,0.236,0.367v0.026c0,0.019,0.004,0.026,0.013,0.026
				c0.01,0,0.016,0.009,0.016,0.025c0.033,0.104,0.05,0.185,0.05,0.234L346.978,298.558z M341.965,289.501l-0.789,3.859h1.55
				L341.965,289.501z"/>
			<path fill="#CC9D45" d="M361.335,298.637c0,0.438-0.151,0.81-0.458,1.113c-0.307,0.308-0.681,0.46-1.116,0.46
				c-0.438,0-0.809-0.152-1.115-0.46c-0.308-0.306-0.46-0.677-0.46-1.113v-10.812l-1.653,3.254c-0.14,0.384-0.393,0.666-0.76,0.84
				c-0.21,0.104-0.431,0.156-0.658,0.156h-0.026h-0.025h-0.027h-0.026c-0.227,0-0.445-0.052-0.656-0.156
				c-0.368-0.174-0.62-0.456-0.762-0.84l-1.652-3.254v10.812c0,0.438-0.154,0.81-0.459,1.113c-0.307,0.308-0.68,0.46-1.117,0.46
				c-0.437,0-0.81-0.152-1.114-0.46c-0.306-0.306-0.459-0.677-0.459-1.113v-17.378v-0.078v-0.078v-0.026v-0.025
				c0-0.018,0.003-0.026,0.014-0.026c0.009,0,0.013-0.008,0.013-0.025v-0.025v-0.053c0-0.02,0.003-0.031,0.013-0.039
				c0.009-0.01,0.015-0.023,0.015-0.04c0.017-0.104,0.051-0.202,0.104-0.289c0-0.017,0.005-0.026,0.014-0.026
				c0.008,0,0.013-0.008,0.013-0.024l0.027-0.026l0.027-0.024c0-0.021,0.008-0.036,0.024-0.056v-0.024l0.054-0.054
				c0.036-0.034,0.065-0.067,0.092-0.104c0.025-0.033,0.056-0.07,0.092-0.105l0.051-0.051h0.027c0-0.018,0.003-0.026,0.014-0.026
				c0.008,0,0.014-0.011,0.014-0.027h0.025c0.019-0.017,0.034-0.026,0.053-0.026c0-0.016,0.008-0.024,0.025-0.024l0.026-0.024
				l0.054-0.029c0.018-0.017,0.036-0.022,0.052-0.022l0.026-0.028c0.016,0,0.035-0.007,0.053-0.025c0.019,0,0.031-0.004,0.039-0.012
				c0.009-0.01,0.022-0.017,0.041-0.017c0.018,0,0.03-0.004,0.04-0.012c0.007-0.009,0.021-0.013,0.039-0.013
				c0.016,0,0.035-0.01,0.053-0.026h0.025h0.054l0.025-0.028h0.027h0.054h0.023c0.02-0.014,0.036-0.023,0.055-0.023h0.024h0.079
				h0.078h0.081h0.051h0.026c0.018,0,0.037,0.011,0.055,0.023h0.052h0.026h0.052c0.07,0.036,0.132,0.061,0.186,0.067
				c0.053,0.007,0.104,0.03,0.156,0.065h0.026c0,0.018,0.019,0.027,0.054,0.027c0,0.018,0.008,0.023,0.026,0.023l0.026,0.028
				c0.017,0,0.034,0.007,0.053,0.024l0.052,0.052h0.026c0.087,0.054,0.156,0.122,0.21,0.211l0.052,0.054l0.052,0.051
				c0,0.019,0.005,0.026,0.016,0.026c0.007,0,0.013,0.009,0.013,0.026l0.026,0.025l0.026,0.026c0,0.019,0.009,0.035,0.026,0.052
				c0,0.021,0.003,0.032,0.013,0.039c0.009,0.01,0.014,0.023,0.014,0.04l3.308,6.482l3.308-6.482c0-0.034,0.008-0.06,0.025-0.079
				c0.019-0.017,0.028-0.033,0.028-0.052c0.016,0,0.025-0.009,0.025-0.026l0.027-0.025c0-0.02,0.008-0.035,0.024-0.053l0.054-0.053
				l0.052-0.053c0.053-0.089,0.122-0.157,0.21-0.211l0.052-0.052h0.026c0.019-0.02,0.036-0.024,0.055-0.024l0.026-0.029
				c0.017,0,0.023-0.006,0.023-0.022c0.036,0,0.055-0.011,0.055-0.028h0.025c0.035-0.033,0.081-0.058,0.131-0.064
				c0.055-0.008,0.098-0.021,0.133-0.039c0.034,0,0.061-0.01,0.078-0.028h0.055h0.025h0.053c0-0.014,0.008-0.022,0.025-0.022h0.054
				h0.052h0.079h0.078h0.079c0.034,0,0.062,0.01,0.08,0.022h0.052h0.052l0.027,0.028h0.052h0.025l0.055,0.025
				c0.016,0,0.03,0.006,0.04,0.014c0.008,0.008,0.021,0.012,0.039,0.012s0.035,0.011,0.052,0.027h0.029
				c0.016,0.02,0.034,0.025,0.051,0.025v0.028c0.036,0,0.061,0.007,0.079,0.022c0.018,0.021,0.033,0.029,0.053,0.029l0.026,0.024
				l0.025,0.024c0.018,0,0.035,0.012,0.051,0.026l0.056,0.054c0.035,0,0.053,0.018,0.053,0.053c0.086,0.053,0.157,0.123,0.208,0.209
				l0.054,0.054v0.024c0.017,0.02,0.026,0.035,0.026,0.056c0.018,0,0.026,0.008,0.026,0.023l0.026,0.027
				c0,0.017,0.009,0.035,0.025,0.052c0.035,0.087,0.071,0.186,0.105,0.289c0,0.036,0.01,0.061,0.026,0.079v0.054V281
				c0,0.019,0.009,0.035,0.026,0.053v0.025v0.026v0.078v0.078v17.376H361.335z"/>
			<path fill="#CC9D45" d="M373.24,297.494c0.306,0.306,0.459,0.68,0.459,1.114c0,0.438-0.154,0.811-0.459,1.117
				c-0.307,0.307-0.679,0.459-1.115,0.459h-6.432c-0.438,0-0.809-0.152-1.115-0.459c-0.306-0.308-0.459-0.679-0.459-1.117v-17.375
				c0-0.438,0.154-0.81,0.459-1.116c0.308-0.306,0.678-0.459,1.115-0.459h6.432c0.438,0,0.81,0.153,1.115,0.459
				c0.306,0.308,0.459,0.68,0.459,1.116c0,0.455-0.154,0.83-0.459,1.129c-0.307,0.298-0.679,0.445-1.115,0.445h-4.854v6.614h3.358
				c0.438,0,0.81,0.152,1.114,0.46c0.307,0.309,0.46,0.68,0.46,1.114c0,0.438-0.154,0.812-0.46,1.116
				c-0.306,0.306-0.678,0.46-1.114,0.46h-3.358v4.463h4.854C372.562,297.036,372.934,297.188,373.24,297.494z"/>
			<path fill="#CC9D45" d="M386.049,280.157c0.308,0.298,0.46,0.674,0.46,1.129c0,0.438-0.153,0.811-0.46,1.115
				c-0.305,0.308-0.677,0.459-1.114,0.459h-2.442v15.748c0,0.438-0.154,0.811-0.459,1.117s-0.677,0.459-1.114,0.459
				s-0.812-0.152-1.117-0.459c-0.306-0.308-0.459-0.679-0.459-1.117V282.86h-2.491c-0.438,0-0.812-0.151-1.117-0.459
				c-0.306-0.306-0.458-0.678-0.458-1.115c0-0.455,0.152-0.831,0.458-1.129c0.305-0.299,0.679-0.448,1.117-0.448h8.084
				C385.371,279.709,385.743,279.858,386.049,280.157z"/>
			<path fill="#CC9D45" d="M397.416,297.494c0.304,0.306,0.457,0.68,0.457,1.114c0,0.438-0.153,0.811-0.457,1.117
				c-0.308,0.307-0.68,0.459-1.116,0.459h-6.431c-0.437,0-0.81-0.152-1.115-0.459c-0.308-0.308-0.46-0.679-0.46-1.117v-17.375
				c0-0.438,0.152-0.81,0.46-1.116c0.307-0.306,0.68-0.459,1.115-0.459h6.431c0.438,0,0.81,0.153,1.116,0.459
				c0.304,0.308,0.457,0.68,0.457,1.116c0,0.455-0.153,0.83-0.457,1.129c-0.308,0.298-0.68,0.445-1.116,0.445h-4.854v6.614h3.358
				c0.438,0,0.811,0.152,1.114,0.46c0.309,0.309,0.46,0.68,0.46,1.114c0,0.438-0.152,0.812-0.46,1.116
				c-0.304,0.306-0.676,0.46-1.114,0.46h-3.358v4.463h4.854C396.736,297.036,397.108,297.188,397.416,297.494z"/>
			<path fill="#CC9D45" d="M411.027,297.979c0.19,0.401,0.204,0.807,0.04,1.207c-0.168,0.403-0.451,0.692-0.854,0.867
				c-0.211,0.086-0.421,0.131-0.631,0.131c-0.295,0-0.577-0.084-0.839-0.25c-0.263-0.166-0.463-0.396-0.604-0.694l-2.913-6.667
				h-1.575v6.035c0,0.438-0.154,0.811-0.459,1.117c-0.307,0.307-0.677,0.459-1.114,0.459c-0.438,0-0.812-0.152-1.115-0.459
				c-0.307-0.308-0.46-0.679-0.46-1.117v-17.322c0-0.438,0.153-0.811,0.46-1.116c0.305-0.305,0.677-0.461,1.115-0.461h3.805
				c0.665,0,1.305,0.188,1.916,0.565c0.613,0.379,1.147,0.914,1.603,1.613c0.788,1.242,1.181,2.66,1.181,4.254
				c0,0.77-0.101,1.514-0.301,2.229c-0.202,0.72-0.495,1.384-0.879,1.997c-0.175,0.263-0.359,0.497-0.55,0.709
				c-0.193,0.209-0.387,0.403-0.58,0.577L411.027,297.979z M405.88,289.423c0.088,0,0.207-0.057,0.354-0.172
				c0.149-0.111,0.319-0.311,0.512-0.591c0.229-0.349,0.399-0.742,0.512-1.181c0.114-0.438,0.171-0.883,0.171-1.338
				s-0.058-0.906-0.171-1.352c-0.112-0.446-0.283-0.846-0.512-1.195c-0.192-0.264-0.362-0.451-0.512-0.562
				c-0.148-0.115-0.267-0.172-0.354-0.172h-2.23v6.562H405.88L405.88,289.423z"/>
		</g>
	</g>
</g>
</svg>
