<?xml version="1.0" encoding="utf-8"?>
<!-- Generator: Adobe Illustrator 16.0.0, SVG Export Plug-In . SVG Version: 6.00 Build 0)  -->
<!DOCTYPE svg PUBLIC "-//W3C//DTD SVG 1.1//EN" "http://www.w3.org/Graphics/SVG/1.1/DTD/svg11.dtd">
<svg version="1.1" id="Layer_1" xmlns="http://www.w3.org/2000/svg" xmlns:xlink="http://www.w3.org/1999/xlink" x="0px" y="0px"
	 width="623.5px" height="466px" viewBox="0 0 623.5 466" enable-background="new 0 0 623.5 466" xml:space="preserve">
<g id="Layer_4">
	<g>
		<g>
			<path fill="#F2DF8F" d="M601.556,18.401c-26.891-32.777-181.387,24.946-342.524,128.601
				C97.898,250.655-10.927,361.252,15.967,394.027c26.889,32.777,179.314-24.679,340.449-128.331
				C517.55,162.042,628.444,51.179,601.556,18.401z M460.539,136.274c-31.737,31.09-77.469,66.385-128.769,99.384
				c-56.155,36.121-114.052,66.154-158.859,82.396c-36.812,13.343-52.824,20.474-57.409,11.942
				c-4.408-7.656,6.227-21.074,39.411-53.574c31.735-31.086,77.465-66.382,128.77-99.379
				c56.155-36.124,114.056-66.154,158.857-82.398c36.813-13.341,51.365-18.689,57.407-11.943
				C505.724,91.368,493.718,103.775,460.539,136.274z"/>
			<path fill="none" stroke="#D6BF85" stroke-width="5" stroke-miterlimit="10" d="M603.63,17.168
				c26.893,32.775-81.938,143.373-243.067,247.026C199.429,367.848,47.001,425.303,20.11,392.523
				C-6.78,359.75,102.042,249.148,263.18,145.5C424.312,41.846,576.742-15.608,603.63,17.168z"/>
			<path fill="none" stroke="#66421E" stroke-width="5" stroke-miterlimit="10" d="M536.651,54.574
				c20.521,25.013-62.525,109.412-185.489,188.512S111.879,366.029,91.357,341.017c-20.521-25.011,62.527-109.41,185.491-188.51
				C399.812,73.408,516.13,29.563,536.651,54.574z"/>
		</g>
		<g>
			<path fill="#F2C04F" d="M447.273,107.117c50.748,80.013,27.026,186.014-52.982,236.764
				c-80.017,50.752-186.016,27.028-236.769-52.979c-50.743-80.01-27.023-186.013,52.984-236.764
				C290.519,3.389,396.521,27.109,447.273,107.117z"/>
			<path fill="#F4E495" d="M453.037,116.753c23.428,43.948,20.826,76.226,20.826,76.226L224.04,351.658
				c-39.116-19.75-58.962-50.002-58.962-50.002L453.037,116.753z"/>
			<path fill="#EDE1B0" d="M471.925,226.237c-4.9,30.812-18.968,54.897-18.968,54.897l-138.963,89.133
				c-31.183,2.299-57.967-6.18-57.967-6.18L471.925,226.237z"/>
			<path fill="#CC9D45" d="M313.993,370.268c0,0,37.745-1.418,72.033-21.146c34.288-19.726,52.768-43.321,66.931-67.985
				L313.993,370.268z"/>
			<path fill="#CC9D45" d="M162.667,99.428c0,0,17.15-26.207,47.115-44.801c25.926-16.092,45.956-21.87,68.019-25.436
				L162.667,99.428z"/>
			<path fill="#E8D579" d="M435.404,90.56c-14.53-18.495-34.283-31.886-34.283-31.886L133.282,228.53
				c3.469,21.388,13.874,43.645,13.874,43.645L435.404,90.56z"/>
		</g>
		<g>
			<path fill="#F2C04F" d="M268.142,440.327c2.427,3.042,3.638,6.601,3.638,10.667c0,1.275-0.131,2.416-0.4,3.422
				c-0.269,1.01-0.596,1.902-0.983,2.684c-0.394,0.781-0.834,1.461-1.327,2.036c-0.492,0.573-0.985,1.067-1.479,1.479
				c-2.304,1.851-5.099,2.774-8.386,2.774c-1.603,0-3.104-0.229-4.502-0.678c-1.397-0.455-2.631-1.15-3.7-2.099
				c-0.453-0.37-0.915-0.844-1.389-1.419c-0.472-0.574-0.904-1.254-1.294-2.034c-0.391-0.778-0.708-1.685-0.955-2.713
				c-0.247-1.026-0.369-2.2-0.369-3.518c0-1.025,0.358-1.898,1.079-2.618c0.718-0.719,1.592-1.08,2.621-1.08
				c1.069,0,1.952,0.361,2.651,1.08c0.698,0.72,1.048,1.593,1.048,2.618c0,0.577,0.051,1.164,0.154,1.759
				c0.104,0.598,0.318,1.142,0.647,1.635c0.328,0.493,0.811,0.896,1.449,1.201c0.637,0.309,1.489,0.464,2.56,0.464
				c0.739,0,1.426-0.093,2.066-0.274c0.637-0.188,1.179-0.465,1.634-0.836c0.986-0.861,1.479-2.156,1.479-3.885
				c0-1.271-0.165-2.383-0.493-3.328c-0.329-0.944-0.813-1.818-1.449-2.619c-0.639-0.804-1.418-1.562-2.343-2.282
				c-0.926-0.718-1.965-1.489-3.116-2.312c-1.068-0.739-2.125-1.511-3.173-2.312c-1.049-0.805-2.026-1.717-2.93-2.744
				c-1.068-1.316-1.88-2.684-2.435-4.1c-0.556-1.42-0.833-2.973-0.833-4.656c0-0.247,0.011-0.698,0.032-1.355
				c0.019-0.658,0.123-1.42,0.308-2.283c0.184-0.86,0.493-1.766,0.926-2.713c0.431-0.943,1.057-1.85,1.879-2.713
				c0.699-0.779,1.747-1.541,3.145-2.281c1.398-0.737,3.208-1.108,5.429-1.108c2.259,0,4.059,0.381,5.395,1.142
				c1.335,0.764,2.352,1.531,3.05,2.312c0.78,0.945,1.368,1.94,1.758,2.99c0.391,1.05,0.647,2.015,0.771,2.897
				s0.164,1.654,0.123,2.312c-0.041,0.658-0.084,1.05-0.123,1.174c-0.121,0.738-0.367,1.354-0.738,1.85
				c-0.33,0.454-0.771,0.833-1.325,1.143c-0.556,0.308-1.306,0.358-2.251,0.152c-0.906-0.164-1.572-0.462-2.004-0.894
				c-0.432-0.435-0.718-0.886-0.861-1.357c-0.146-0.473-0.207-0.894-0.187-1.264c0.019-0.37,0.031-0.597,0.031-0.681
				c0.041-0.162,0.062-0.39,0.062-0.677c0-0.289-0.03-0.598-0.092-0.926c-0.061-0.33-0.153-0.658-0.277-0.987
				c-0.124-0.326-0.289-0.617-0.494-0.861c-0.493-0.616-1.439-0.926-2.835-0.926c-1.111,0-1.881,0.146-2.313,0.433
				c-0.432,0.288-0.708,0.493-0.833,0.616c-0.288,0.289-0.504,0.615-0.646,0.984c-0.144,0.37-0.258,0.741-0.34,1.11
				c-0.083,0.37-0.135,0.688-0.153,0.955c-0.021,0.27-0.031,0.463-0.031,0.587v0.123v0.123c0,0.822,0.144,1.572,0.43,2.251
				c0.289,0.68,0.69,1.314,1.204,1.911c0.514,0.597,1.162,1.19,1.941,1.787c0.779,0.599,1.665,1.244,2.651,1.941
				c1.151,0.823,2.333,1.706,3.548,2.651C265.994,438.004,267.114,439.094,268.142,440.327z"/>
			<path fill="#F2C04F" d="M298.294,459.072c0.205,1.028,0.03,1.963-0.523,2.807c-0.556,0.842-1.348,1.365-2.374,1.571
				c-0.165,0.04-0.395,0.062-0.68,0.062c-0.861,0-1.633-0.277-2.312-0.832c-0.677-0.556-1.122-1.265-1.325-2.128l-1.295-6.29h-6.6
				l-1.294,6.29c-0.164,0.863-0.584,1.572-1.266,2.128c-0.678,0.555-1.449,0.832-2.312,0.832c-0.33,0-0.578-0.021-0.74-0.062
				c-1.027-0.206-1.818-0.729-2.375-1.571c-0.554-0.844-0.729-1.776-0.523-2.807l8.202-40.758v-0.062v-0.121
				c0-0.039,0.008-0.062,0.029-0.062c0.021,0,0.031-0.02,0.031-0.061v-0.063v-0.06c0.042-0.041,0.062-0.083,0.062-0.124
				c0-0.04,0.009-0.062,0.03-0.062c0.021,0,0.031-0.021,0.031-0.062v-0.062c0.121-0.328,0.309-0.617,0.556-0.863v-0.062
				c0.039,0,0.06-0.01,0.06-0.03c0-0.02,0.021-0.029,0.062-0.029v-0.062l0.062-0.061l0.062-0.062l0.062-0.062l0.062-0.062
				l0.061-0.062l0.123-0.062c0.247-0.246,0.535-0.432,0.865-0.555h0.062c0.037-0.041,0.08-0.062,0.121-0.062
				c0.205-0.082,0.393-0.132,0.557-0.152s0.349-0.053,0.555-0.094h0.062h0.125h0.125c0.202,0.041,0.389,0.072,0.553,0.094
				c0.163,0.021,0.349,0.07,0.554,0.152c0.042,0,0.083,0.021,0.125,0.062h0.062c0.326,0.123,0.613,0.309,0.86,0.555
				c0.04,0,0.082,0.021,0.124,0.062l0.062,0.062l0.062,0.062l0.062,0.062l0.061,0.062l0.062,0.061l0.062,0.062l0.061,0.062v0.062
				c0.248,0.246,0.435,0.535,0.557,0.862v0.062c0,0.042,0.01,0.062,0.031,0.062c0.019,0,0.029,0.021,0.029,0.062
				c0.082,0.247,0.123,0.432,0.123,0.556L298.294,459.072z M286.517,437.799l-1.853,9.064h3.64L286.517,437.799z"/>
			<path fill="#F2C04F" d="M325.578,415.848c0.72,0.699,1.081,1.584,1.081,2.65c0,1.027-0.361,1.901-1.081,2.619
				c-0.719,0.721-1.594,1.08-2.619,1.08h-5.733v36.996c0,1.028-0.361,1.902-1.078,2.621c-0.723,0.719-1.598,1.079-2.622,1.079
				c-1.029,0-1.901-0.36-2.621-1.079s-1.08-1.593-1.08-2.621v-36.996h-5.856c-1.027,0-1.899-0.359-2.621-1.08
				c-0.719-0.718-1.077-1.592-1.077-2.619c0-1.066,0.357-1.951,1.077-2.65c0.722-0.698,1.594-1.048,2.621-1.048h18.992
				C323.984,414.8,324.859,415.149,325.578,415.848z"/>
			<path fill="#F2C04F" d="M354.066,452.197c-0.021,0.678-0.134,1.459-0.338,2.342c-0.207,0.887-0.536,1.83-0.989,2.84
				c-0.452,1.008-1.09,1.94-1.91,2.804c-0.701,0.782-1.737,1.542-3.115,2.282c-1.378,0.738-3.152,1.109-5.334,1.109
				c-2.18,0-3.936-0.371-5.271-1.109c-1.336-0.74-2.354-1.5-3.054-2.282c-0.821-0.901-1.447-1.869-1.881-2.897
				c-0.432-1.023-0.738-2.004-0.925-2.929c-0.185-0.925-0.276-1.747-0.276-2.467c0-0.718,0-1.224,0-1.511v-31.818
				c0-1.026,0.357-1.9,1.077-2.619c0.72-0.72,1.595-1.08,2.622-1.08s1.901,0.36,2.621,1.08c0.721,0.719,1.078,1.593,1.078,2.619
				v32.127v0.123c0,0.204,0,0.492,0,0.861s0.043,0.762,0.125,1.172c0.082,0.412,0.204,0.834,0.369,1.265
				c0.163,0.431,0.391,0.791,0.678,1.079c0.125,0.123,0.392,0.318,0.803,0.585c0.41,0.269,1.09,0.401,2.034,0.401
				c1.069,0,1.819-0.135,2.25-0.401c0.435-0.267,0.709-0.462,0.833-0.585c0.575-0.616,0.926-1.355,1.049-2.221
				c0.122-0.861,0.186-1.479,0.186-1.851v-0.186v-0.062v-32.248c0-1.025,0.359-1.9,1.079-2.619c0.72-0.721,1.593-1.078,2.623-1.078
				c1.022,0,1.898,0.357,2.621,1.078c0.717,0.719,1.077,1.594,1.077,2.619v32.188C354.097,451.057,354.086,451.52,354.066,452.197z"
				/>
			<path fill="#F2C04F" d="M385.791,457.715c0.45,0.945,0.483,1.893,0.092,2.837s-1.059,1.622-2.004,2.034
				c-0.494,0.207-0.985,0.31-1.479,0.31c-0.699,0-1.357-0.196-1.976-0.587c-0.616-0.391-1.088-0.936-1.418-1.633l-6.842-15.662
				h-3.701v14.182c0,1.028-0.357,1.902-1.079,2.621c-0.719,0.719-1.592,1.079-2.619,1.079s-1.902-0.36-2.619-1.079
				c-0.724-0.719-1.08-1.593-1.08-2.621V418.5c0-1.026,0.356-1.899,1.08-2.619c0.716-0.722,1.591-1.079,2.619-1.079h8.94
				c1.562,0,3.062,0.439,4.5,1.325c1.439,0.886,2.694,2.147,3.762,3.791c1.853,2.92,2.775,6.248,2.775,9.988
				c0,1.812-0.237,3.559-0.708,5.242c-0.473,1.686-1.164,3.247-2.066,4.686c-0.41,0.616-0.844,1.174-1.295,1.666
				c-0.449,0.491-0.902,0.944-1.355,1.355L385.791,457.715z M373.705,437.614c0.204,0,0.483-0.134,0.833-0.399
				c0.348-0.268,0.75-0.73,1.203-1.389c0.533-0.82,0.935-1.748,1.202-2.772c0.266-1.028,0.398-2.077,0.398-3.146
				c0-1.067-0.134-2.127-0.398-3.176c-0.27-1.049-0.669-1.981-1.202-2.806c-0.453-0.616-0.855-1.06-1.203-1.325
				c-0.35-0.267-0.628-0.4-0.833-0.4h-5.242v15.415L373.705,437.614L373.705,437.614z"/>
			<path fill="#F2C04F" d="M412.798,414.738c1.026,0,1.9,0.359,2.62,1.078c0.72,0.721,1.079,1.594,1.079,2.621v40.758v0.246v0.186
				v0.062v0.123l-0.061,0.062v0.062v0.123v0.06c-0.043,0.043-0.062,0.084-0.062,0.125v0.062c0,0.041-0.009,0.062-0.03,0.062
				c-0.021,0-0.03,0.021-0.03,0.062s-0.012,0.071-0.031,0.093c-0.021,0.021-0.029,0.051-0.029,0.093s-0.011,0.071-0.031,0.093
				c-0.021,0.021-0.03,0.055-0.03,0.094c0,0.041-0.011,0.062-0.031,0.062s-0.03,0.021-0.03,0.062v0.062
				c-0.042,0-0.062,0.022-0.062,0.062l-0.062,0.062c0,0.042-0.021,0.083-0.062,0.124l-0.062,0.062v0.062
				c-0.041,0-0.062,0.021-0.062,0.062s-0.021,0.062-0.062,0.062c0,0.041-0.011,0.062-0.031,0.062c-0.021,0-0.03,0.021-0.03,0.062
				h-0.062c0,0.042-0.021,0.083-0.062,0.122l-0.124,0.125l-0.124,0.123l-0.121,0.123h-0.062l-0.121,0.123
				c-0.043,0.04-0.084,0.062-0.125,0.062c0,0.039-0.021,0.062-0.062,0.062l-0.061,0.062c-0.045,0-0.062,0.011-0.062,0.03
				c0,0.021-0.021,0.03-0.062,0.03h-0.062l-0.124,0.123c-0.163,0.082-0.308,0.146-0.431,0.188c-0.123,0.04-0.287,0.081-0.492,0.122
				c-0.165,0.04-0.412,0.062-0.74,0.062c-0.248,0-0.432-0.021-0.557-0.062h-0.122h-0.062c-0.042,0-0.061-0.021-0.061-0.062h-0.247
				v-0.062h-0.124c-0.164-0.084-0.268-0.124-0.309-0.124c-0.04,0-0.062-0.021-0.062-0.062h-0.062c-0.041,0-0.062-0.021-0.062-0.062
				c-0.04,0-0.083-0.021-0.124-0.062c-0.04,0-0.06-0.021-0.06-0.062h-0.063c-0.04,0-0.062-0.012-0.062-0.03
				c0-0.021-0.021-0.03-0.062-0.03c-0.452-0.328-0.82-0.72-1.109-1.172v-0.062c-0.038,0-0.061-0.021-0.061-0.062l-0.062-0.062
				v-0.062c-0.041-0.041-0.062-0.082-0.062-0.123c0-0.039-0.021-0.082-0.062-0.123l-10.543-24.357v22.939
				c0,1.026-0.361,1.899-1.081,2.62c-0.722,0.718-1.594,1.078-2.618,1.078c-1.028,0-1.903-0.36-2.622-1.078
				c-0.718-0.721-1.079-1.594-1.079-2.62v-40.759v-0.248v-0.187v-0.061v-0.123l0.062-0.062v-0.062v-0.123v-0.062
				c0.04-0.04,0.062-0.082,0.062-0.124v-0.061c0-0.04,0.008-0.062,0.029-0.062c0.021,0,0.029-0.021,0.029-0.062
				c0-0.04,0.011-0.072,0.031-0.092c0.022-0.021,0.032-0.053,0.032-0.096c0-0.039,0.009-0.067,0.029-0.092
				c0.021-0.02,0.03-0.051,0.03-0.093c0-0.04,0.011-0.062,0.031-0.062c0.022,0,0.031-0.021,0.031-0.062v-0.062l0.124-0.123
				c0-0.041,0.009-0.062,0.031-0.062c0.019,0,0.027-0.021,0.027-0.062l0.062-0.062v-0.062c0.04-0.039,0.061-0.082,0.061-0.123h0.062
				c0-0.041,0.012-0.062,0.031-0.062s0.028-0.021,0.028-0.062h0.062c0-0.039,0.021-0.08,0.062-0.123l0.124-0.123v-0.062
				c0.041,0,0.084-0.02,0.123-0.061v-0.062c0.042,0,0.082-0.021,0.123-0.062h0.062l0.125-0.123l0.122-0.123h0.062
				c0-0.04,0.019-0.062,0.062-0.062c0.041,0,0.062-0.01,0.062-0.029c0-0.021,0.021-0.031,0.062-0.031h0.062l0.123-0.123
				c0.286-0.164,0.576-0.268,0.863-0.309h0.062c0.204-0.039,0.512-0.062,0.923-0.062h0.188h0.062l0.062,0.062h0.122h0.061h0.123
				c0,0.041,0.021,0.062,0.064,0.062h0.123h0.061c0,0.041,0.042,0.062,0.123,0.062c0.042,0.039,0.103,0.062,0.187,0.062
				c0.041,0.042,0.081,0.062,0.123,0.062h0.062c0,0.04,0.039,0.062,0.123,0.062v0.062c0.083,0,0.123,0.021,0.123,0.062h0.062
				c0.04,0,0.062,0.011,0.062,0.031c0,0.021,0.021,0.029,0.062,0.029l0.062,0.062l0.062,0.062l0.062,0.062h0.062
				c0.04,0.04,0.082,0.062,0.122,0.062v0.062c0.04,0,0.062,0.01,0.062,0.029c0,0.021,0.021,0.031,0.062,0.031v0.062
				c0.04,0,0.062,0.01,0.062,0.031c0,0.02,0.019,0.027,0.062,0.027v0.062l0.123,0.124l0.124,0.122l0.123,0.123
				c0,0.041,0.019,0.084,0.062,0.123c0.037,0,0.062,0.021,0.062,0.062s0.02,0.062,0.062,0.062c0,0.082,0.021,0.123,0.061,0.123
				v0.062c0.041,0.042,0.062,0.082,0.062,0.123h0.062c0,0.083,0.01,0.136,0.03,0.153c0.019,0.021,0.029,0.054,0.029,0.093
				l10.545,24.355v-22.938c0-1.027,0.359-1.9,1.079-2.621C410.896,415.098,411.769,414.738,412.798,414.738z"/>
		</g>
	</g>
</g>
</svg>
