<?xml version="1.0" encoding="utf-8"?>
<!-- Generator: Adobe Illustrator 16.0.0, SVG Export Plug-In . SVG Version: 6.00 Build 0)  -->
<!DOCTYPE svg PUBLIC "-//W3C//DTD SVG 1.1//EN" "http://www.w3.org/Graphics/SVG/1.1/DTD/svg11.dtd">
<svg version="1.1" id="Layer_1" xmlns="http://www.w3.org/2000/svg" xmlns:xlink="http://www.w3.org/1999/xlink" x="0px" y="0px"
	 width="2669.465px" height="2849.43px" viewBox="0 0 2669.465 2849.43" enable-background="new 0 0 2669.465 2849.43"
	 xml:space="preserve">
<path fill="#FFF100" d="M2642.467,1331.317c0,722.24-585.492,1307.732-1307.734,1307.732S26.998,2053.557,26.998,1331.317
	c0-722.246,585.492-1307.738,1307.735-1307.738S2642.467,609.072,2642.467,1331.317z"/>
<g>
	<path fill="#FFF100" d="M1203.836,2712.227c1.205,1.174,1.811,2.652,1.811,4.443c0,1.729-0.604,3.191-1.811,4.396
		c-1.207,1.207-2.672,1.809-4.395,1.809h-9.615v62.037c0,1.727-0.604,3.189-1.809,4.396c-1.207,1.205-2.674,1.809-4.396,1.809
		c-1.729,0-3.188-0.604-4.396-1.809c-1.209-1.207-1.809-2.67-1.809-4.396v-62.037h-9.822c-1.727,0-3.189-0.602-4.396-1.809
		c-1.205-1.205-1.811-2.67-1.811-4.396c0-1.791,0.604-3.27,1.811-4.443c1.205-1.174,2.67-1.76,4.396-1.76h31.846
		C1201.165,2710.467,1202.629,2711.053,1203.836,2712.227z"/>
	<path fill="#FFF100" d="M1247.415,2710.366c1.725,0,3.188,0.604,4.396,1.809c1.203,1.207,1.807,2.672,1.807,4.396v68.445
		c0,1.725-0.604,3.188-1.807,4.395c-1.209,1.205-2.674,1.811-4.396,1.811s-3.188-0.605-4.393-1.811
		c-1.207-1.205-1.812-2.672-1.812-4.395v-23.779h-16.129v23.779c0,1.725-0.604,3.188-1.811,4.395
		c-1.207,1.205-2.672,1.811-4.395,1.811c-1.725,0-3.188-0.605-4.395-1.811s-1.811-2.672-1.811-4.395v-68.445
		c0-1.727,0.604-3.189,1.811-4.396c1.205-1.205,2.67-1.809,4.395-1.809c1.723,0,3.188,0.604,4.395,1.809
		c1.207,1.207,1.811,2.672,1.811,4.396v32.258h16.129v-32.258c0-1.727,0.605-3.189,1.812-4.396
		C1244.227,2710.969,1245.692,2710.366,1247.415,2710.366z"/>
	<path fill="#FFF100" d="M1301.854,2780.518c1.205,1.207,1.809,2.674,1.809,4.395c0,1.727-0.604,3.189-1.809,4.396
		c-1.207,1.205-2.672,1.809-4.396,1.809h-25.332c-1.723,0-3.189-0.604-4.393-1.809c-1.209-1.207-1.812-2.67-1.812-4.396v-68.447
		c0-1.723,0.604-3.188,1.812-4.395c1.201-1.205,2.67-1.811,4.393-1.811h25.332c1.725,0,3.189,0.605,4.396,1.811
		c1.205,1.207,1.809,2.672,1.809,4.395c0,1.793-0.604,3.273-1.809,4.445c-1.207,1.174-2.672,1.758-4.396,1.758h-19.129v26.057
		h13.234c1.723,0,3.188,0.604,4.395,1.811c1.205,1.207,1.811,2.672,1.811,4.395c0,1.725-0.604,3.189-1.811,4.395
		c-1.207,1.207-2.672,1.811-4.395,1.811h-13.234v17.576h19.129C1299.182,2778.708,1300.647,2779.313,1301.854,2780.518z"/>
	<path fill="#FFF100" d="M1399.819,2753.274c4.066,5.104,6.102,11.061,6.102,17.889c0,2.137-0.225,4.051-0.672,5.736
		c-0.451,1.688-1.002,3.188-1.656,4.498s-1.395,2.445-2.223,3.412c-0.826,0.967-1.654,1.793-2.479,2.48
		c-3.861,3.104-8.551,4.652-14.062,4.652c-2.688,0-5.207-0.381-7.549-1.137c-2.344-0.76-4.412-1.93-6.205-3.516
		c-0.76-0.621-1.535-1.414-2.326-2.379s-1.516-2.104-2.168-3.412c-0.658-1.311-1.189-2.824-1.604-4.549
		c-0.416-1.727-0.621-3.689-0.621-5.896c0-1.721,0.604-3.188,1.811-4.393c1.203-1.205,2.67-1.812,4.395-1.812
		c1.791,0,3.271,0.605,4.445,1.812c1.172,1.207,1.756,2.672,1.756,4.393c0,0.967,0.09,1.949,0.262,2.947
		c0.172,1,0.533,1.914,1.086,2.74c0.551,0.826,1.359,1.5,2.43,2.016c1.07,0.52,2.5,0.775,4.291,0.775
		c1.238,0,2.396-0.154,3.463-0.465c1.07-0.312,1.982-0.773,2.742-1.396c1.652-1.447,2.48-3.619,2.48-6.512
		c0-2.139-0.275-3.998-0.826-5.584c-0.555-1.586-1.363-3.053-2.432-4.396c-1.068-1.346-2.377-2.621-3.93-3.826
		c-1.551-1.203-3.291-2.496-5.221-3.875c-1.795-1.24-3.568-2.533-5.324-3.879c-1.758-1.344-3.398-2.875-4.914-4.602
		c-1.791-2.205-3.15-4.498-4.082-6.875c-0.932-2.379-1.395-4.979-1.395-7.807c0-0.414,0.016-1.172,0.053-2.275
		c0.033-1.102,0.205-2.377,0.516-3.822c0.312-1.447,0.828-2.963,1.553-4.553c0.725-1.584,1.773-3.1,3.152-4.549
		c1.172-1.311,2.93-2.584,5.271-3.826c2.344-1.238,5.377-1.859,9.1-1.859c3.791,0,6.807,0.641,9.047,1.914s3.947,2.566,5.117,3.875
		c1.311,1.588,2.293,3.258,2.949,5.016c0.652,1.758,1.086,3.379,1.291,4.859c0.207,1.48,0.273,2.773,0.207,3.877
		c-0.07,1.104-0.139,1.758-0.207,1.965c-0.205,1.24-0.619,2.273-1.238,3.102c-0.557,0.76-1.293,1.396-2.227,1.914
		c-0.932,0.516-2.188,0.604-3.771,0.258c-1.52-0.273-2.637-0.773-3.359-1.5c-0.725-0.723-1.209-1.48-1.447-2.273
		c-0.242-0.791-0.348-1.5-0.312-2.119c0.035-0.621,0.053-1,0.053-1.139c0.066-0.271,0.104-0.654,0.104-1.139
		c0-0.48-0.053-0.998-0.154-1.549c-0.104-0.551-0.258-1.104-0.465-1.656c-0.207-0.551-0.482-1.033-0.828-1.447
		c-0.826-1.033-2.414-1.551-4.756-1.551c-1.861,0-3.154,0.242-3.879,0.725c-0.721,0.482-1.188,0.826-1.396,1.033
		c-0.48,0.484-0.846,1.033-1.084,1.654c-0.244,0.619-0.432,1.242-0.566,1.861c-0.141,0.621-0.229,1.156-0.262,1.602
		c-0.035,0.451-0.051,0.775-0.051,0.984v0.207v0.207c0,1.379,0.24,2.635,0.723,3.771c0.48,1.139,1.154,2.209,2.018,3.205
		c0.863,1.002,1.949,2.002,3.258,3c1.312,1.002,2.791,2.086,4.447,3.258c1.928,1.381,3.91,2.861,5.943,4.445
		C1396.215,2749.379,1398.094,2751.208,1399.819,2753.274z"/>
	<path fill="#FFF100" d="M1454.151,2773.174c-0.035,1.141-0.225,2.449-0.568,3.934c-0.346,1.479-0.895,3.064-1.654,4.754
		c-0.758,1.689-1.826,3.26-3.203,4.705c-1.174,1.311-2.912,2.586-5.225,3.824c-2.311,1.242-5.289,1.861-8.939,1.861
		c-3.654,0-6.604-0.619-8.842-1.861c-2.24-1.238-3.945-2.516-5.119-3.824c-1.381-1.518-2.43-3.139-3.15-4.857
		c-0.723-1.723-1.242-3.359-1.551-4.912c-0.314-1.551-0.467-2.928-0.467-4.135c0-1.205,0-2.051,0-2.533v-53.354
		c0-1.723,0.604-3.189,1.811-4.396c1.205-1.205,2.67-1.811,4.396-1.811c1.721,0,3.188,0.605,4.395,1.811
		c1.203,1.207,1.809,2.672,1.809,4.396v53.867v0.207c0,0.348,0,0.826,0,1.447c0,0.619,0.066,1.275,0.209,1.965
		c0.139,0.689,0.344,1.396,0.619,2.117c0.273,0.729,0.652,1.33,1.137,1.812c0.207,0.207,0.654,0.533,1.346,0.98
		c0.688,0.449,1.824,0.672,3.412,0.672c1.791,0,3.051-0.223,3.771-0.672c0.725-0.447,1.188-0.773,1.396-0.98
		c0.965-1.033,1.551-2.273,1.758-3.725c0.205-1.445,0.311-2.479,0.311-3.102v-0.311v-0.104v-54.074c0-1.723,0.604-3.189,1.809-4.396
		c1.205-1.205,2.672-1.809,4.396-1.809c1.723,0,3.188,0.604,4.396,1.809c1.205,1.209,1.809,2.674,1.809,4.396v53.973
		C1454.204,2771.264,1454.186,2772.042,1454.151,2773.174z"/>
	<path fill="#FFF100" d="M1501.868,2710.366c1.723,0,3.189,0.604,4.395,1.809c1.205,1.207,1.811,2.672,1.811,4.396v68.344v0.412
		v0.312v0.104v0.205l-0.104,0.104v0.105v0.207v0.104c-0.068,0.068-0.104,0.139-0.104,0.207v0.102c0,0.072-0.018,0.105-0.053,0.105
		s-0.053,0.037-0.053,0.104c0,0.07-0.018,0.121-0.051,0.154c-0.037,0.033-0.055,0.088-0.055,0.154c0,0.068-0.016,0.121-0.051,0.154
		c-0.035,0.035-0.053,0.088-0.053,0.154c0,0.07-0.02,0.104-0.051,0.104c-0.037,0-0.053,0.037-0.053,0.105v0.104
		c-0.07,0-0.104,0.037-0.104,0.104l-0.104,0.105c0,0.066-0.037,0.139-0.104,0.207l-0.104,0.104v0.104
		c-0.07,0-0.104,0.035-0.104,0.104c0,0.07-0.033,0.105-0.104,0.105c0,0.066-0.018,0.104-0.051,0.104
		c-0.037,0-0.053,0.037-0.053,0.104h-0.105c0,0.07-0.035,0.141-0.104,0.207l-0.205,0.207l-0.209,0.207l-0.205,0.207h-0.104
		l-0.209,0.207c-0.07,0.068-0.137,0.104-0.205,0.104c0,0.068-0.037,0.105-0.104,0.105l-0.105,0.104c-0.07,0-0.104,0.018-0.104,0.051
		c0,0.035-0.033,0.055-0.104,0.055h-0.104l-0.205,0.205c-0.277,0.139-0.52,0.24-0.727,0.311c-0.207,0.066-0.482,0.137-0.828,0.205
		c-0.273,0.068-0.688,0.105-1.238,0.105c-0.414,0-0.727-0.033-0.932-0.105h-0.209h-0.102c-0.07,0-0.104-0.035-0.104-0.104h-0.416
		v-0.104h-0.207c-0.271-0.139-0.449-0.207-0.518-0.207s-0.104-0.035-0.104-0.104h-0.104c-0.068,0-0.105-0.035-0.105-0.105
		c-0.068,0-0.139-0.035-0.207-0.104c-0.066,0-0.102-0.035-0.102-0.104h-0.104c-0.07,0-0.105-0.02-0.105-0.053
		c0-0.035-0.033-0.053-0.104-0.053c-0.758-0.553-1.379-1.205-1.861-1.967v-0.102c-0.066,0-0.102-0.035-0.102-0.105l-0.104-0.104
		v-0.104c-0.07-0.066-0.105-0.137-0.105-0.207c0-0.066-0.037-0.137-0.104-0.205l-17.684-40.842v38.463
		c0,1.723-0.604,3.188-1.809,4.395c-1.207,1.205-2.672,1.809-4.396,1.809s-3.188-0.604-4.393-1.809
		c-1.209-1.205-1.812-2.672-1.812-4.395v-68.344v-0.414v-0.312v-0.104v-0.207l0.104-0.105v-0.102v-0.207v-0.104
		c0.068-0.066,0.104-0.139,0.104-0.207v-0.104c0-0.068,0.02-0.105,0.053-0.105s0.055-0.033,0.055-0.104
		c0-0.068,0.016-0.119,0.051-0.154s0.051-0.086,0.051-0.156c0-0.066,0.018-0.117,0.053-0.152c0.033-0.033,0.053-0.086,0.053-0.156
		c0-0.068,0.018-0.105,0.055-0.105c0.031,0,0.049-0.033,0.049-0.104v-0.104l0.209-0.207c0-0.066,0.018-0.104,0.051-0.104
		s0.053-0.033,0.053-0.105l0.104-0.104v-0.104c0.068-0.066,0.104-0.139,0.104-0.207h0.104c0-0.068,0.02-0.104,0.053-0.104
		s0.053-0.033,0.053-0.105h0.104c0-0.066,0.033-0.137,0.105-0.207l0.207-0.207v-0.104c0.066,0,0.137-0.033,0.207-0.104v-0.104
		c0.064,0,0.139-0.033,0.207-0.105h0.104l0.207-0.207l0.207-0.207h0.104c0-0.066,0.035-0.104,0.104-0.104
		c0.07,0,0.105-0.016,0.105-0.051c0-0.033,0.031-0.053,0.104-0.053h0.104l0.207-0.205c0.48-0.275,0.965-0.449,1.447-0.518h0.104
		c0.342-0.066,0.859-0.105,1.551-0.105h0.309h0.104l0.105,0.105h0.207h0.102h0.207c0,0.068,0.035,0.104,0.105,0.104h0.209h0.102
		c0,0.07,0.066,0.104,0.205,0.104c0.068,0.068,0.174,0.105,0.311,0.105c0.07,0.066,0.141,0.102,0.209,0.102h0.104
		c0,0.068,0.068,0.104,0.207,0.104v0.105c0.139,0,0.207,0.035,0.207,0.104h0.105c0.064,0,0.104,0.02,0.104,0.053
		c0,0.035,0.031,0.051,0.102,0.051l0.105,0.104l0.104,0.105l0.104,0.104h0.105c0.064,0.07,0.137,0.105,0.209,0.105v0.102
		c0.064,0,0.102,0.018,0.102,0.051c0,0.037,0.035,0.053,0.104,0.053v0.104c0.068,0,0.104,0.02,0.104,0.053s0.035,0.053,0.105,0.053
		v0.104l0.207,0.207l0.205,0.207l0.207,0.207c0,0.068,0.033,0.139,0.104,0.207c0.068,0,0.105,0.035,0.105,0.104
		c0,0.07,0.031,0.104,0.104,0.104c0,0.141,0.031,0.207,0.104,0.207v0.105c0.064,0.068,0.104,0.139,0.104,0.207h0.104
		c0,0.139,0.016,0.227,0.053,0.26c0.035,0.035,0.051,0.086,0.051,0.154l17.684,40.84v-38.461c0-1.723,0.604-3.189,1.809-4.396
		C1498.678,2710.969,1500.145,2710.366,1501.868,2710.366z"/>
</g>
</svg>
