<?xml version="1.0" encoding="utf-8"?>
<!-- Generator: Adobe Illustrator 16.0.0, SVG Export Plug-In . SVG Version: 6.00 Build 0)  -->
<!DOCTYPE svg PUBLIC "-//W3C//DTD SVG 1.1//EN" "http://www.w3.org/Graphics/SVG/1.1/DTD/svg11.dtd">
<svg version="1.1" id="Layer_1" xmlns="http://www.w3.org/2000/svg" xmlns:xlink="http://www.w3.org/1999/xlink" x="0px" y="0px"
	 width="2669.465px" height="2849.43px" viewBox="0 0 2669.465 2849.43" enable-background="new 0 0 2669.465 2849.43"
	 xml:space="preserve">
<g id="Layer_4">
	<path fill="#FFF100" d="M2642.467,1348.116c0,722.24-585.492,1307.732-1307.734,1307.732S26.998,2070.356,26.998,1348.116
		C26.998,625.87,612.49,40.378,1334.733,40.378S2642.467,625.871,2642.467,1348.116z"/>
	<g>
		<path fill="#FFF100" d="M1203.836,2729.026c1.205,1.174,1.811,2.652,1.811,4.443c0,1.729-0.604,3.191-1.811,4.396
			c-1.207,1.207-2.672,1.809-4.395,1.809h-9.615v62.037c0,1.727-0.604,3.189-1.809,4.396c-1.207,1.205-2.674,1.809-4.396,1.809
			c-1.729,0-3.188-0.604-4.396-1.809c-1.209-1.207-1.809-2.67-1.809-4.396v-62.037h-9.822c-1.727,0-3.189-0.602-4.396-1.809
			c-1.205-1.205-1.811-2.67-1.811-4.396c0-1.791,0.604-3.27,1.811-4.443c1.205-1.174,2.67-1.76,4.396-1.76h31.846
			C1201.165,2727.266,1202.629,2727.852,1203.836,2729.026z"/>
		<path fill="#FFF100" d="M1247.415,2727.165c1.725,0,3.188,0.604,4.396,1.809c1.203,1.207,1.807,2.672,1.807,4.396v68.445
			c0,1.725-0.604,3.188-1.807,4.395c-1.209,1.205-2.674,1.811-4.396,1.811s-3.188-0.605-4.393-1.811
			c-1.207-1.205-1.812-2.672-1.812-4.395v-23.779h-16.129v23.779c0,1.725-0.604,3.188-1.811,4.395
			c-1.207,1.205-2.672,1.811-4.395,1.811c-1.725,0-3.188-0.605-4.395-1.811s-1.811-2.672-1.811-4.395v-68.445
			c0-1.727,0.604-3.189,1.811-4.396c1.205-1.205,2.67-1.809,4.395-1.809c1.723,0,3.188,0.604,4.395,1.809
			c1.207,1.207,1.811,2.672,1.811,4.396v32.258h16.129v-32.258c0-1.727,0.605-3.189,1.812-4.396
			C1244.227,2727.768,1245.692,2727.165,1247.415,2727.165z"/>
		<path fill="#FFF100" d="M1301.854,2797.317c1.205,1.207,1.809,2.674,1.809,4.395c0,1.727-0.604,3.189-1.809,4.396
			c-1.207,1.205-2.672,1.809-4.396,1.809h-25.332c-1.723,0-3.189-0.604-4.393-1.809c-1.209-1.207-1.812-2.67-1.812-4.396v-68.447
			c0-1.723,0.604-3.188,1.812-4.395c1.201-1.205,2.67-1.811,4.393-1.811h25.332c1.725,0,3.189,0.605,4.396,1.811
			c1.205,1.207,1.809,2.672,1.809,4.395c0,1.793-0.604,3.273-1.809,4.445c-1.207,1.174-2.672,1.758-4.396,1.758h-19.129v26.057
			h13.234c1.723,0,3.188,0.604,4.395,1.811c1.205,1.207,1.811,2.672,1.811,4.395c0,1.725-0.604,3.189-1.811,4.395
			c-1.207,1.207-2.672,1.811-4.395,1.811h-13.234v17.576h19.129C1299.182,2795.506,1300.647,2796.112,1301.854,2797.317z"/>
		<path fill="#FFF100" d="M1399.819,2770.073c4.066,5.104,6.102,11.061,6.102,17.889c0,2.137-0.225,4.051-0.672,5.736
			c-0.451,1.688-1.002,3.188-1.656,4.498s-1.395,2.445-2.223,3.412c-0.826,0.967-1.654,1.793-2.479,2.48
			c-3.861,3.104-8.551,4.652-14.062,4.652c-2.688,0-5.207-0.381-7.549-1.137c-2.344-0.76-4.412-1.93-6.205-3.516
			c-0.76-0.621-1.535-1.414-2.326-2.379s-1.516-2.104-2.168-3.412c-0.658-1.311-1.189-2.824-1.604-4.549
			c-0.416-1.727-0.621-3.689-0.621-5.896c0-1.721,0.604-3.188,1.811-4.393c1.203-1.205,2.67-1.812,4.395-1.812
			c1.791,0,3.271,0.605,4.445,1.812c1.172,1.207,1.756,2.672,1.756,4.393c0,0.967,0.09,1.949,0.262,2.947
			c0.172,1,0.533,1.914,1.086,2.74c0.551,0.826,1.359,1.5,2.43,2.016c1.07,0.52,2.5,0.775,4.291,0.775
			c1.238,0,2.396-0.154,3.463-0.465c1.07-0.312,1.982-0.773,2.742-1.396c1.652-1.447,2.48-3.619,2.48-6.512
			c0-2.139-0.275-3.998-0.826-5.584c-0.555-1.586-1.363-3.053-2.432-4.396c-1.068-1.346-2.377-2.621-3.93-3.826
			c-1.551-1.203-3.291-2.496-5.221-3.875c-1.795-1.24-3.568-2.533-5.324-3.879c-1.758-1.344-3.398-2.875-4.914-4.602
			c-1.791-2.205-3.15-4.498-4.082-6.875c-0.932-2.379-1.395-4.979-1.395-7.807c0-0.414,0.016-1.172,0.053-2.275
			c0.033-1.102,0.205-2.377,0.516-3.822c0.312-1.447,0.828-2.963,1.553-4.553c0.725-1.584,1.773-3.1,3.152-4.549
			c1.172-1.311,2.93-2.584,5.271-3.826c2.344-1.238,5.377-1.859,9.1-1.859c3.791,0,6.807,0.641,9.047,1.914s3.947,2.566,5.117,3.875
			c1.311,1.588,2.293,3.258,2.949,5.016c0.652,1.758,1.086,3.379,1.291,4.859c0.207,1.48,0.273,2.773,0.207,3.877
			c-0.07,1.104-0.139,1.758-0.207,1.965c-0.205,1.24-0.619,2.273-1.238,3.102c-0.557,0.76-1.293,1.396-2.227,1.914
			c-0.932,0.516-2.188,0.604-3.771,0.258c-1.52-0.273-2.637-0.773-3.359-1.5c-0.725-0.723-1.209-1.48-1.447-2.273
			c-0.242-0.791-0.348-1.5-0.312-2.119c0.035-0.621,0.053-1,0.053-1.139c0.066-0.271,0.104-0.654,0.104-1.139
			c0-0.48-0.053-0.998-0.154-1.549c-0.104-0.551-0.258-1.104-0.465-1.656c-0.207-0.551-0.482-1.033-0.828-1.447
			c-0.826-1.033-2.414-1.551-4.756-1.551c-1.861,0-3.154,0.242-3.879,0.725c-0.721,0.482-1.188,0.826-1.396,1.033
			c-0.48,0.484-0.846,1.033-1.084,1.654c-0.244,0.619-0.432,1.242-0.566,1.861c-0.141,0.621-0.229,1.156-0.262,1.602
			c-0.035,0.451-0.051,0.775-0.051,0.984v0.207v0.207c0,1.379,0.24,2.635,0.723,3.771c0.48,1.139,1.154,2.209,2.018,3.205
			c0.863,1.002,1.949,2.002,3.258,3c1.312,1.002,2.791,2.086,4.447,3.258c1.928,1.381,3.91,2.861,5.943,4.445
			C1396.215,2766.178,1398.094,2768.006,1399.819,2770.073z"/>
		<path fill="#FFF100" d="M1454.151,2789.973c-0.035,1.141-0.225,2.449-0.568,3.934c-0.346,1.479-0.895,3.064-1.654,4.754
			c-0.758,1.689-1.826,3.26-3.203,4.705c-1.174,1.311-2.912,2.586-5.225,3.824c-2.311,1.242-5.289,1.861-8.939,1.861
			c-3.654,0-6.604-0.619-8.842-1.861c-2.24-1.238-3.945-2.516-5.119-3.824c-1.381-1.518-2.43-3.139-3.15-4.857
			c-0.723-1.723-1.242-3.359-1.551-4.912c-0.314-1.551-0.467-2.928-0.467-4.135c0-1.205,0-2.051,0-2.533v-53.354
			c0-1.723,0.604-3.189,1.811-4.396c1.205-1.205,2.67-1.811,4.396-1.811c1.721,0,3.188,0.605,4.395,1.811
			c1.203,1.207,1.809,2.672,1.809,4.396v53.867v0.207c0,0.348,0,0.826,0,1.447c0,0.619,0.066,1.275,0.209,1.965
			c0.139,0.689,0.344,1.396,0.619,2.117c0.273,0.729,0.652,1.33,1.137,1.812c0.207,0.207,0.654,0.533,1.346,0.98
			c0.688,0.449,1.824,0.672,3.412,0.672c1.791,0,3.051-0.223,3.771-0.672c0.725-0.447,1.188-0.773,1.396-0.98
			c0.965-1.033,1.551-2.273,1.758-3.725c0.205-1.445,0.311-2.479,0.311-3.102v-0.311v-0.104v-54.074
			c0-1.723,0.604-3.189,1.809-4.396c1.205-1.205,2.672-1.809,4.396-1.809c1.723,0,3.188,0.604,4.396,1.809
			c1.205,1.209,1.809,2.674,1.809,4.396v53.973C1454.204,2788.063,1454.186,2788.84,1454.151,2789.973z"/>
		<path fill="#FFF100" d="M1501.868,2727.165c1.723,0,3.189,0.604,4.395,1.809c1.205,1.207,1.811,2.672,1.811,4.396v68.344v0.412
			v0.312v0.104v0.205l-0.104,0.104v0.105v0.207v0.104c-0.068,0.068-0.104,0.139-0.104,0.207v0.102c0,0.072-0.018,0.105-0.053,0.105
			s-0.053,0.037-0.053,0.104c0,0.07-0.018,0.121-0.051,0.154c-0.037,0.033-0.055,0.088-0.055,0.154c0,0.068-0.016,0.121-0.051,0.154
			c-0.035,0.035-0.053,0.088-0.053,0.154c0,0.07-0.02,0.104-0.051,0.104c-0.037,0-0.053,0.037-0.053,0.105v0.104
			c-0.07,0-0.104,0.037-0.104,0.104l-0.104,0.105c0,0.066-0.037,0.139-0.104,0.207l-0.104,0.104v0.104
			c-0.07,0-0.104,0.035-0.104,0.104c0,0.07-0.033,0.105-0.104,0.105c0,0.066-0.018,0.104-0.051,0.104
			c-0.037,0-0.053,0.037-0.053,0.104h-0.105c0,0.07-0.035,0.141-0.104,0.207l-0.205,0.207l-0.209,0.207l-0.205,0.207h-0.104
			l-0.209,0.207c-0.07,0.068-0.137,0.104-0.205,0.104c0,0.068-0.037,0.105-0.104,0.105l-0.105,0.104
			c-0.07,0-0.104,0.018-0.104,0.051c0,0.035-0.033,0.055-0.104,0.055h-0.104l-0.205,0.205c-0.277,0.139-0.52,0.24-0.727,0.311
			c-0.207,0.066-0.482,0.137-0.828,0.205c-0.273,0.068-0.688,0.105-1.238,0.105c-0.414,0-0.727-0.033-0.932-0.105h-0.209h-0.102
			c-0.07,0-0.104-0.035-0.104-0.104h-0.416v-0.104h-0.207c-0.271-0.139-0.449-0.207-0.518-0.207s-0.104-0.035-0.104-0.104h-0.104
			c-0.068,0-0.105-0.035-0.105-0.105c-0.068,0-0.139-0.035-0.207-0.104c-0.066,0-0.102-0.035-0.102-0.104h-0.104
			c-0.07,0-0.105-0.02-0.105-0.053c0-0.035-0.033-0.053-0.104-0.053c-0.758-0.553-1.379-1.205-1.861-1.967v-0.102
			c-0.066,0-0.102-0.035-0.102-0.105l-0.104-0.104v-0.104c-0.07-0.066-0.105-0.137-0.105-0.207c0-0.066-0.037-0.137-0.104-0.205
			l-17.684-40.842v38.463c0,1.723-0.604,3.188-1.809,4.395c-1.207,1.205-2.672,1.809-4.396,1.809s-3.188-0.604-4.393-1.809
			c-1.209-1.205-1.812-2.672-1.812-4.395v-68.344v-0.414v-0.312v-0.104v-0.207l0.104-0.105v-0.102v-0.207v-0.104
			c0.068-0.066,0.104-0.139,0.104-0.207v-0.104c0-0.068,0.02-0.105,0.053-0.105s0.055-0.033,0.055-0.104
			c0-0.068,0.016-0.119,0.051-0.154s0.051-0.086,0.051-0.156c0-0.066,0.018-0.117,0.053-0.152c0.033-0.033,0.053-0.086,0.053-0.156
			c0-0.068,0.018-0.105,0.055-0.105c0.031,0,0.049-0.033,0.049-0.104v-0.104l0.209-0.207c0-0.066,0.018-0.104,0.051-0.104
			s0.053-0.033,0.053-0.105l0.104-0.104v-0.104c0.068-0.066,0.104-0.139,0.104-0.207h0.104c0-0.068,0.02-0.104,0.053-0.104
			s0.053-0.033,0.053-0.105h0.104c0-0.066,0.033-0.137,0.105-0.207l0.207-0.207v-0.104c0.066,0,0.137-0.033,0.207-0.104v-0.104
			c0.064,0,0.139-0.033,0.207-0.105h0.104l0.207-0.207l0.207-0.207h0.104c0-0.066,0.035-0.104,0.104-0.104
			c0.07,0,0.105-0.016,0.105-0.051c0-0.033,0.031-0.053,0.104-0.053h0.104l0.207-0.205c0.48-0.275,0.965-0.449,1.447-0.518h0.104
			c0.342-0.066,0.859-0.105,1.551-0.105h0.309h0.104l0.105,0.105h0.207h0.102h0.207c0,0.068,0.035,0.104,0.105,0.104h0.209h0.102
			c0,0.07,0.066,0.104,0.205,0.104c0.068,0.068,0.174,0.105,0.311,0.105c0.07,0.066,0.141,0.102,0.209,0.102h0.104
			c0,0.068,0.068,0.104,0.207,0.104v0.105c0.139,0,0.207,0.035,0.207,0.104h0.105c0.064,0,0.104,0.02,0.104,0.053
			c0,0.035,0.031,0.051,0.102,0.051l0.105,0.104l0.104,0.105l0.104,0.104h0.105c0.064,0.07,0.137,0.105,0.209,0.105v0.102
			c0.064,0,0.102,0.018,0.102,0.051c0,0.037,0.035,0.053,0.104,0.053v0.104c0.068,0,0.104,0.02,0.104,0.053s0.035,0.053,0.105,0.053
			v0.104l0.207,0.207l0.205,0.207l0.207,0.207c0,0.068,0.033,0.139,0.104,0.207c0.068,0,0.105,0.035,0.105,0.104
			c0,0.07,0.031,0.104,0.104,0.104c0,0.141,0.031,0.207,0.104,0.207v0.105c0.064,0.068,0.104,0.139,0.104,0.207h0.104
			c0,0.139,0.016,0.227,0.053,0.26c0.035,0.035,0.051,0.086,0.051,0.154l17.684,40.84v-38.461c0-1.723,0.604-3.189,1.809-4.396
			C1498.678,2727.768,1500.145,2727.165,1501.868,2727.165z"/>
	</g>
	<g>
		<path fill="#FFFFFF" d="M226.045,1382.569c3.303,3.309,4.957,7.32,4.957,12.041s-1.654,8.734-4.957,12.037
			c-3.305,3.303-7.32,4.957-12.037,4.957h-73.645c-4.723,0-8.736-1.654-12.037-4.957c-3.306-3.303-4.957-7.316-4.957-12.037
			s1.651-8.732,4.957-12.041c3.301-3.301,7.314-4.955,12.037-4.955h20.395v-129.158l-7.081,7.08
			c-3.214,3.211-7.179,4.812-11.896,4.812c-4.723,0-8.782-1.604-12.18-4.812c-3.216-3.4-4.815-7.457-4.815-12.182
			c0-4.719,1.603-8.686,4.815-11.896l35.972-35.973c2.452-2.451,5.381-4.012,8.781-4.676c3.396-0.66,6.7-0.328,9.913,0.994
			c3.209,1.322,5.757,3.396,7.646,6.229c1.886,2.832,2.834,5.949,2.834,9.35v170.229h19.26
			C218.725,1377.614,222.74,1379.268,226.045,1382.569z"/>
		<path fill="#FFFFFF" d="M270.227,1374.073c4.436-1.229,8.824-0.611,13.172,1.842c3.967,2.264,6.56,5.664,7.789,10.195
			c1.227,4.531,0.708,8.779-1.559,12.744l-20.109,35.123c-2.457,4.15-5.949,6.844-10.479,8.072
			c-4.533,1.227-8.781,0.709-12.747-1.557c-4.347-2.457-7.081-5.949-8.215-10.482c-1.133-4.527-0.469-8.777,1.982-12.746
			l20.109-35.119C262.438,1377.995,265.789,1375.301,270.227,1374.073z"/>
		<path fill="#FFFFFF" d="M413.407,1354.67c0,15.861-3.78,28.705-11.33,38.521c-10.765,13.785-27.759,20.678-50.983,20.678
			c-10.389,0-18.648-1.748-24.783-5.238c-6.141-3.492-10.812-7.033-14.021-10.623c-3.78-4.152-6.516-8.637-8.215-13.455
			c-1.699-4.812-2.832-9.299-3.398-13.455c-0.564-4.15-0.758-7.689-0.564-10.619c0.186-2.93,0.376-4.768,0.564-5.523
			c0.752-2.643,1.982-5.002,3.684-7.082c1.51-1.699,3.49-3.209,5.945-4.531c2.452-1.318,5.568-1.703,9.35-1.135
			c3.773,0.568,6.656,1.799,8.639,3.682c1.984,1.893,3.444,3.873,4.394,5.951c0.938,2.457,1.509,5.098,1.696,7.93
			c-0.188,1.322-0.141,3.732,0.145,7.225c0.283,3.494,1.461,6.373,3.54,8.637c2.266,2.834,6.604,4.25,13.028,4.25
			c5.852,0,10.666-0.52,14.443-1.559c3.776-1.033,6.657-2.643,8.641-4.814c1.981-2.17,3.352-4.814,4.105-7.932
			c0.753-3.113,1.135-6.748,1.135-10.902c0-18.504-3.398-31.346-10.197-38.523c-5.287-5.281-14.068-7.93-26.343-7.93
			c-4.722,0-8.733-1.65-12.038-4.957c-3.305-3.301-4.957-7.316-4.957-12.037v-0.283c0-4.91,1.652-8.967,4.957-12.182
			c3.305-3.209,7.316-4.812,12.038-4.812c1.7,0,3.729,0,6.091,0c2.358,0,4.676-0.096,6.939-0.285c2.266-0.186,4.34-0.467,6.23-0.85
			c1.887-0.377,3.207-0.941,3.967-1.697c0.184-0.188,0.564-0.709,1.132-1.561c0.565-0.852,1.133-2.312,1.7-4.391
			c0.564-2.076,1.033-4.859,1.416-8.354c0.377-3.492,0.565-7.979,0.565-13.455v-0.85c0.187-1.51-0.05-4.107-0.708-7.791
			c-0.664-3.682-2.223-6.75-4.676-9.205c-0.564-0.564-1.889-1.508-3.965-2.834c-2.08-1.316-5.572-1.98-10.479-1.98
			c-6.424,0-10.765,1.416-13.028,4.25c-2.079,2.268-3.258,5.146-3.54,8.641c-0.283,3.496-0.332,5.996-0.145,7.504v-0.281
			c0.188,3.021-0.188,5.76-1.133,8.213c-0.947,2.08-2.408,4.154-4.39,6.23c-1.983,2.08-5.147,3.396-9.489,3.967
			c-4.346,0.566-7.744,0.189-10.197-1.135c-2.455-1.318-4.345-2.924-5.664-4.814c-1.514-2.076-2.457-4.625-2.832-7.646
			c-0.188-0.566-0.381-2.359-0.564-5.385c-0.191-3.016,0-6.557,0.564-10.619c0.566-4.059,1.699-8.447,3.398-13.172
			c1.699-4.717,4.435-9.25,8.215-13.596c3.207-3.775,7.881-7.408,14.021-10.904c6.136-3.492,14.396-5.24,24.784-5.24
			c10.382,0,18.736,1.699,25.065,5.102c6.325,3.396,11.093,6.893,14.305,10.479c3.585,3.963,6.417,8.119,8.497,12.461
			c2.076,4.344,3.541,8.496,4.393,12.463c0.85,3.965,1.317,7.461,1.416,10.48c0.092,3.021,0.143,5.1,0.143,6.229
			c0,6.422-0.283,12.088-0.852,16.996c-0.564,4.91-1.322,9.348-2.267,13.312c-2.08,7.178-5.005,13.127-8.779,17.844l0.565,0.566
			C406.795,1306.049,413.407,1326.725,413.407,1354.67z"/>
		<path fill="#FFFFFF" d="M533.5,1197.469c1.698,2.082,2.783,4.438,3.257,7.082c0.47,2.646,0.328,5.289-0.425,7.93l-53.534,185.242
			c-0.944,3.779-2.974,6.754-6.089,8.922c-3.117,2.168-6.562,3.26-10.338,3.26c-0.758,0-1.514,0-2.266,0
			c-0.758,0-1.518-0.191-2.27-0.566c-4.529-1.324-7.93-4.012-10.195-8.074c-2.268-4.059-2.738-8.354-1.416-12.887l47.303-163.715
			h-61.746c-4.725,0-8.737-1.652-12.039-4.957c-3.307-3.303-4.956-7.316-4.956-12.039c0-4.717,1.649-8.732,4.956-12.039
			c3.302-3.301,7.314-4.955,12.039-4.955h84.122C525.568,1190.672,530.1,1192.936,533.5,1197.469z"/>
		<path fill="#FFFFFF" d="M664.491,1197.469c1.698,2.082,2.783,4.438,3.257,7.082c0.469,2.646,0.328,5.289-0.424,7.93
			l-53.535,185.242c-0.945,3.779-2.974,6.754-6.089,8.922c-3.116,2.168-6.562,3.26-10.338,3.26c-0.757,0-1.515,0-2.267,0
			c-0.759,0-1.516-0.191-2.269-0.566c-4.531-1.324-7.93-4.012-10.196-8.074c-2.266-4.059-2.736-8.354-1.417-12.887l47.304-163.715
			h-61.746c-4.725,0-8.736-1.652-12.038-4.957c-3.309-3.303-4.956-7.316-4.956-12.039c0-4.717,1.647-8.732,4.956-12.039
			c3.302-3.301,7.313-4.955,12.038-4.955h84.123C656.559,1190.672,661.091,1192.936,664.491,1197.469z"/>
		<path fill="#FFFFFF" d="M685.175,1374.073c4.437-1.229,8.824-0.611,13.171,1.842c3.967,2.264,6.562,5.664,7.788,10.195
			c1.229,4.531,0.709,8.779-1.557,12.744l-20.111,35.123c-2.455,4.15-5.948,6.844-10.479,8.072
			c-4.533,1.227-8.781,0.709-12.746-1.557c-4.349-2.457-7.081-5.949-8.215-10.482c-1.134-4.527-0.47-8.777,1.98-12.746
			l20.111-35.119C677.387,1377.995,680.737,1375.301,685.175,1374.073z"/>
		<path fill="#FFFFFF" d="M838.834,1332.01c2.076,10.953,1.983,21.717-0.283,32.289c-1.32,5.855-3.213,11.379-5.664,16.57
			c-2.457,5.195-5.57,9.871-9.348,14.021c-2.832,3.213-5.947,6.043-9.346,8.496c-3.4,2.457-6.989,4.438-10.766,5.949
			c-7.179,2.832-14.729,4.248-22.66,4.248h-4.531c-12.651-0.758-23.889-4.631-33.705-11.613c-9.445-6.605-16.995-15.67-22.66-27.191
			c-8.877-18.879-12.646-42.953-11.33-72.229c0-10.947,1.229-20.959,3.684-30.021c2.451-9.062,5.615-17.137,9.488-24.219
			c3.867-7.08,8.116-13.312,12.746-18.691c4.624-5.385,9.205-9.959,13.737-13.738c4.718-3.967,9.348-7.365,13.878-10.199
			c4.533-2.832,8.641-5.141,12.322-6.938c3.683-1.793,6.701-3.115,9.062-3.967c2.357-0.85,3.824-1.365,4.391-1.559
			c3.02-0.941,5.947-1.227,8.779-0.85c2.453,0.381,4.908,1.324,7.365,2.834c2.451,1.514,4.436,4.156,5.948,7.93
			c1.509,3.963,1.696,7.363,0.563,10.197c-1.133,2.832-2.646,5.195-4.531,7.08c-2.08,2.08-4.813,3.873-8.215,5.383
			c-2.832,0.947-5.854,2.172-9.062,3.682c-2.647,1.324-5.665,3.072-9.064,5.24c-3.398,2.174-6.896,4.771-10.479,7.789
			c-16.81,14.73-25.591,33.332-26.343,55.799c4.343-3.018,9.582-5.566,15.721-7.646c6.136-2.074,13.265-3.115,21.386-3.115
			c6.417,0,12.181,0.664,17.278,1.984s9.63,3.068,13.595,5.236c3.966,2.176,7.365,4.533,10.197,7.082
			c2.833,2.551,5.284,5.055,7.364,7.508c3.772,5.1,6.373,9.818,7.789,14.162C837.561,1327.86,838.454,1330.694,838.834,1332.01z
			 M798.047,1372.231c3.4-3.773,5.809-8.824,7.225-15.152c1.416-6.322,1.461-12.508,0.143-18.553v-0.283
			c-0.189-0.375-0.615-1.416-1.273-3.115c-0.664-1.699-1.843-3.584-3.541-5.666c-4.531-5.283-11.428-7.932-20.678-7.932
			c-9.818,0-17.846,3.213-24.076,9.631c-2.266,2.455-3.92,4.77-4.955,6.938c-1.039,2.176-1.654,3.449-1.842,3.826
			c-0.189,0.379-0.426,1.273-0.709,2.689c-0.281,1.416-0.332,3.07-0.142,4.955c0,1.516,0.327,3.447,0.991,5.809
			c0.658,2.363,1.273,4.105,1.841,5.238c0,0.383,0.093,0.664,0.284,0.852c5.662,11.33,14.729,17.375,27.189,18.127
			C786.809,1380.163,793.326,1377.709,798.047,1372.231z"/>
		<path fill="#FFFFFF" d="M940.797,1190.672c4.719,0,8.733,1.654,12.038,4.955c3.304,3.305,4.957,7.32,4.957,12.039v187.225
			c0,4.725-1.653,8.736-4.957,12.037c-3.305,3.303-7.319,4.957-12.038,4.957c-4.722,0-8.734-1.654-12.037-4.957
			c-3.306-3.301-4.957-7.312-4.957-12.037v-76.76h-64.861c-2.646,0-5.146-0.566-7.506-1.699c-2.362-1.133-4.297-2.734-5.808-4.812
			c-3.584-4.533-4.625-9.441-3.114-14.73l24.924-93.471c1.134-4.531,3.729-7.977,7.791-10.338c4.06-2.359,8.354-2.977,12.888-1.842
			c4.53,1.32,7.975,4.014,10.339,8.07c2.357,4.062,2.975,8.357,1.841,12.891l-19.26,71.941h42.768v-76.475
			c0-4.719,1.652-8.734,4.957-12.039C932.062,1192.327,936.076,1190.672,940.797,1190.672z"/>
		<path fill="#FFFFFF" d="M1100.168,1357.217c0.188,0.949,0.188,1.799,0,2.551v1.416c-0.756,13.027-4.529,23.699-11.329,32.008
			c-8.311,10.576-20.108,17.088-35.403,19.545c-3.59,0.752-7.838,1.131-12.744,1.131h-1.416h-1.135c-3.965,0-7.93-0.281-11.896-0.85
			c-15.862-2.646-28.042-9.25-36.54-19.826c-7.554-9.816-11.33-22.66-11.33-38.521c0-27.945,6.609-48.623,19.828-62.033l0.566-0.566
			c-3.779-4.715-6.705-10.666-8.781-17.844c-0.947-3.967-1.699-8.4-2.268-13.312c-0.564-4.908-0.85-10.572-0.85-16.994v-2.266
			c0-1.887,0.045-4.344,0.143-7.363c0.094-3.021,0.564-6.326,1.416-9.914c0.852-3.584,2.076-7.268,3.684-11.047
			c1.604-3.777,3.917-7.363,6.938-10.762c3.209-3.586,7.933-7.127,14.162-10.623c6.23-3.492,14.539-5.24,24.926-5.24h1.135h1.416
			c10.383,0,18.645,1.748,24.779,5.24c6.138,3.494,10.811,7.035,14.021,10.623c3.018,3.396,5.381,6.984,7.081,10.762
			c1.7,3.779,2.974,7.463,3.823,11.047c0.85,3.588,1.316,6.895,1.417,9.914c0.093,3.02,0.142,5.479,0.142,7.363
			c0,1.135-0.098,1.889-0.284,2.266c0,6.422-0.237,12.086-0.708,16.994c-0.473,4.912-1.271,9.348-2.406,13.312
			c-2.078,7.178-4.91,13.129-8.498,17.844l0.566,0.566c13.029,13.221,19.543,33.896,19.543,62.033L1100.168,1357.217
			L1100.168,1357.217z M1066.178,1354.67c0-18.504-3.305-31.344-9.912-38.521c-3.776-3.773-9.44-6.23-16.991-7.361
			c-7.745,1.133-13.312,3.588-16.712,7.361c-6.799,7.18-10.196,20.02-10.196,38.521v1.133c0.187,0.756,0.565,2.457,1.134,5.1
			c0.564,2.645,1.792,5.381,3.682,8.213c3.586,5.857,8.781,9.348,15.58,10.48c0.941,0,1.981,0.047,3.114,0.143
			c1.134,0.098,2.267,0.141,3.397,0.141c1.318,0,2.595-0.043,3.824-0.141c1.228-0.096,2.312-0.234,3.256-0.426
			c6.983-1.133,12.271-4.625,15.86-10.479c1.318-2.27,2.267-4.484,2.832-6.658c0.566-2.168,0.942-3.727,1.132-4.672V1354.67
			L1066.178,1354.67z M1020.862,1245.336c0,5.1,0.235,9.256,0.708,12.465c0.471,3.211,0.943,5.762,1.416,7.646
			c0.471,1.891,0.943,3.256,1.416,4.105c0.471,0.852,0.803,1.373,0.992,1.561c1.133,0.943,3.02,1.559,5.664,1.84
			c2.644,0.285,5.383,0.521,8.215,0.707c3.02-0.186,5.852-0.422,8.496-0.707c2.644-0.281,4.436-0.896,5.383-1.84
			c0.186-0.188,0.564-0.707,1.133-1.561c0.564-0.852,1.084-2.312,1.557-4.391c0.469-2.076,0.896-4.859,1.275-8.355
			c0.377-3.49,0.564-7.977,0.564-13.453c0-0.377,0.096-0.66,0.282-0.85v-1.418h-0.282l0.282-0.281
			c-0.188-1.887-0.614-4.389-1.271-7.508c-0.664-3.115-2.03-5.709-4.106-7.789c-0.566-0.564-1.797-1.461-3.682-2.689
			c-1.893-1.229-5.1-1.936-9.631-2.123c-4.348,0.188-7.461,0.895-9.348,2.123c-1.891,1.229-3.115,2.125-3.683,2.689
			c-2.08,2.08-3.496,4.674-4.249,7.789c-0.758,3.119-1.134,5.621-1.134,7.508v0.281
			C1021.048,1242.602,1021.048,1244.018,1020.862,1245.336z"/>
		<path fill="#FFFFFF" d="M1358.725,1399.563c-1.416,4.439-4.299,7.693-8.641,9.773c-2.266,1.131-4.812,1.697-7.646,1.697
			c-3.213,0-6.137-0.807-8.779-2.406c-2.646-1.604-4.723-3.916-6.23-6.939l-41.922-82.709l-13.027,20.963v55.232
			c0,4.723-1.654,8.734-4.955,12.039c-3.309,3.301-7.32,4.955-12.039,4.955c-4.725,0-8.736-1.654-12.037-4.955
			c-3.307-3.303-4.957-7.316-4.957-12.039v-60.049v-0.283V1207.95c0-4.717,1.65-8.732,4.957-12.039
			c3.301-3.301,7.312-4.957,12.037-4.957c4.719,0,8.73,1.656,12.039,4.957c3.301,3.307,4.955,7.322,4.955,12.039v67.127
			l46.453-75.342c2.451-4.152,5.945-6.75,10.479-7.789c4.531-1.035,8.873-0.328,13.029,2.123c3.965,2.457,6.514,5.945,7.646,10.48
			c1.133,4.531,0.375,8.779-2.268,12.746l-41.637,67.693l51.551,101.4C1359.809,1390.741,1360.141,1395.129,1358.725,1399.563z"/>
		<path fill="#FFFFFF" d="M1404.6,1189.821c4.906,0,8.965,1.654,12.18,4.957c3.209,3.307,4.812,7.318,4.812,12.039v187.508
			c0,4.723-1.604,8.734-4.812,12.037c-3.215,3.301-7.271,4.957-12.18,4.957c-4.725,0-8.738-1.656-12.039-4.957
			c-3.307-3.303-4.957-7.314-4.957-12.037v-187.51c0-4.719,1.65-8.73,4.957-12.037
			C1395.862,1191.475,1399.877,1189.821,1404.6,1189.821z"/>
		<path fill="#FFFFFF" d="M1563.459,1382.288c3.209,3.305,4.814,7.318,4.814,12.039s-1.605,8.732-4.814,12.037
			c-3.213,3.299-7.271,4.957-12.18,4.957h-73.926c-4.727,0-8.738-1.658-12.039-4.957c-3.309-3.305-4.957-7.316-4.957-12.037
			v-187.508c0-4.721,1.648-8.732,4.957-12.039c3.301-3.303,7.312-4.957,12.039-4.957c4.717,0,8.729,1.654,12.037,4.957
			c3.301,3.307,4.955,7.318,4.955,12.039v170.514h56.934C1556.188,1377.331,1560.247,1378.985,1563.459,1382.288z"/>
		<path fill="#FFFFFF" d="M1691.352,1354.954c0,1.133-0.049,3.258-0.145,6.373s-0.611,6.703-1.557,10.762
			c-0.947,4.064-2.457,8.406-4.533,13.031c-2.08,4.627-5.004,8.92-8.779,12.887c-3.215,3.588-7.979,7.082-14.305,10.48
			c-6.328,3.396-14.494,5.1-24.5,5.1c-10.012,0-18.084-1.701-24.219-5.1c-6.139-3.398-10.812-6.893-14.02-10.48
			c-3.781-4.152-6.656-8.592-8.641-13.312c-1.982-4.719-3.398-9.205-4.25-13.453c-0.852-4.25-1.271-8.025-1.271-11.33
			c0-3.303,0-5.615,0-6.941v-108.48c0-11.328,1.885-20.484,5.664-27.477c3.773-6.98,7.646-12.27,11.613-15.859
			c9.631-9.062,21.336-13.596,35.121-13.596c6.418,0,12.84,1.133,19.262,3.398c6.416,2.266,12.182,5.762,17.277,10.479
			c5.098,4.725,9.25,10.672,12.463,17.846c3.207,7.18,4.812,15.678,4.812,25.492v110.184h0.006V1354.954z M1651.698,1374.78
			c1.318-1.318,2.359-2.926,3.117-4.816c0.752-1.883,1.314-3.771,1.697-5.664c0.377-1.883,0.609-3.541,0.709-4.957
			c0.094-1.416,0.143-2.406,0.143-2.973v-0.566v-111.031c0-5.1-0.709-9.156-2.125-12.18c-1.416-3.018-3.115-5.381-5.1-7.082
			c-1.982-1.699-4.105-2.783-6.373-3.256c-2.268-0.471-4.348-0.709-6.23-0.709c-1.514,0-3.307,0.238-5.381,0.709
			c-2.08,0.473-4.064,1.463-5.949,2.975c-1.891,1.514-3.541,3.82-4.957,6.939c-1.416,3.113-2.123,7.221-2.123,12.318v109.898v0.564
			c0,0.947,0,2.268,0,3.967s0.186,3.496,0.564,5.381c0.377,1.891,0.941,3.824,1.697,5.807c0.756,1.984,1.793,3.643,3.117,4.957
			c0.566,0.566,1.793,1.467,3.684,2.691c1.887,1.229,5.002,1.842,9.348,1.842c4.908,0,8.354-0.66,10.338-1.982
			C1649.858,1376.293,1651.129,1375.346,1651.698,1374.78z"/>
		<path fill="#FFFFFF" d="M1858.084,1394.325c0,4.723-1.654,8.734-4.957,12.037c-3.305,3.301-7.32,4.957-12.037,4.957
			c-4.723,0-8.736-1.656-12.037-4.957c-3.307-3.303-4.957-7.314-4.957-12.037v-116.697l-17.844,35.121
			c-1.516,4.156-4.25,7.18-8.215,9.061c-2.266,1.137-4.629,1.703-7.08,1.703h-0.285h-0.283h-0.281h-0.283
			c-2.457,0-4.812-0.564-7.082-1.703c-3.965-1.883-6.705-4.904-8.213-9.061l-17.846-35.121v116.697
			c0,4.723-1.654,8.734-4.957,12.037c-3.307,3.301-7.318,4.957-12.035,4.957c-4.725,0-8.738-1.656-12.039-4.957
			c-3.309-3.303-4.957-7.314-4.957-12.037v-187.508v-0.852v-0.85v-0.285v-0.281c0-0.188,0.045-0.285,0.143-0.285
			c0.094,0,0.145-0.092,0.145-0.281v-0.283v-0.566c0-0.186,0.043-0.328,0.141-0.426c0.092-0.092,0.141-0.236,0.141-0.422
			c0.188-1.135,0.566-2.17,1.135-3.117c0-0.186,0.043-0.283,0.143-0.283c0.094,0,0.143-0.094,0.143-0.285l0.281-0.279l0.283-0.283
			c0-0.189,0.094-0.377,0.285-0.566v-0.285l0.562-0.562c0.377-0.377,0.709-0.752,0.992-1.133c0.283-0.377,0.611-0.754,0.992-1.137
			l0.566-0.564h0.279c0-0.188,0.047-0.283,0.145-0.283c0.094,0,0.143-0.092,0.143-0.283h0.283c0.186-0.186,0.375-0.283,0.566-0.283
			c0-0.186,0.094-0.281,0.281-0.281l0.283-0.283l0.564-0.283c0.188-0.186,0.377-0.279,0.566-0.279l0.283-0.287
			c0.188,0,0.377-0.094,0.566-0.281c0.186,0,0.328-0.045,0.426-0.141c0.092-0.096,0.234-0.145,0.424-0.145
			c0.188,0,0.328-0.043,0.424-0.143c0.096-0.092,0.236-0.143,0.428-0.143c0.186,0,0.375-0.094,0.564-0.281h0.283h0.564l0.283-0.285
			h0.283h0.566h0.283c0.188-0.188,0.375-0.283,0.564-0.283h0.283h0.85h0.852h0.85h0.566h0.283c0.188,0,0.377,0.098,0.566,0.283
			h0.566h0.281h0.566c0.752,0.381,1.416,0.615,1.98,0.709c0.566,0.098,1.135,0.33,1.701,0.707h0.281
			c0,0.189,0.186,0.287,0.566,0.287c0,0.188,0.094,0.279,0.281,0.279l0.285,0.283c0.186,0,0.375,0.1,0.564,0.283l0.566,0.564h0.283
			c0.941,0.566,1.697,1.324,2.266,2.27l0.566,0.564l0.564,0.566c0,0.188,0.045,0.283,0.143,0.283c0.094,0,0.143,0.096,0.143,0.281
			l0.283,0.283l0.283,0.283c0,0.191,0.094,0.381,0.281,0.566c0,0.189,0.045,0.332,0.143,0.424c0.094,0.1,0.143,0.24,0.143,0.426
			l35.688,69.961l35.688-69.961c0-0.377,0.096-0.658,0.283-0.85c0.188-0.186,0.283-0.375,0.283-0.566
			c0.188,0,0.283-0.094,0.283-0.283l0.283-0.283c0-0.188,0.094-0.377,0.283-0.564l0.564-0.564l0.564-0.566
			c0.568-0.943,1.32-1.701,2.268-2.268l0.566-0.566h0.283c0.188-0.186,0.377-0.283,0.564-0.283l0.283-0.281
			c0.188,0,0.285-0.096,0.285-0.281c0.375,0,0.564-0.096,0.564-0.287h0.281c0.377-0.377,0.854-0.609,1.416-0.707
			c0.566-0.092,1.037-0.234,1.418-0.424c0.375,0,0.658-0.094,0.852-0.285h0.564h0.283h0.564c0-0.186,0.094-0.283,0.283-0.283h0.566
			h0.564h0.852h0.852h0.85c0.375,0,0.658,0.098,0.85,0.283h0.566h0.566l0.281,0.285h0.566h0.283l0.564,0.283
			c0.188,0,0.328,0.049,0.426,0.141c0.094,0.1,0.234,0.143,0.426,0.143c0.188,0,0.375,0.102,0.564,0.283h0.285
			c0.186,0.189,0.375,0.283,0.564,0.283v0.285c0.377,0,0.66,0.096,0.852,0.281c0.186,0.189,0.375,0.283,0.564,0.283l0.283,0.283
			l0.283,0.281c0.186,0,0.375,0.1,0.564,0.283l0.566,0.566c0.377,0,0.564,0.188,0.564,0.564c0.943,0.566,1.699,1.324,2.268,2.268
			l0.564,0.564v0.285c0.189,0.188,0.283,0.379,0.283,0.564c0.188,0,0.285,0.1,0.285,0.283l0.283,0.281
			c0,0.189,0.092,0.383,0.279,0.566c0.377,0.947,0.752,1.982,1.137,3.117c0,0.379,0.092,0.662,0.279,0.85v0.566v0.283
			c0,0.189,0.096,0.379,0.283,0.564v0.283v0.283v0.852v0.85v187.508h0.031V1394.325z"/>
		<path fill="#FFFFFF" d="M1989.366,1382.002c3.303,3.305,4.957,7.322,4.957,12.037c0,4.723-1.654,8.738-4.957,12.039
			c-3.305,3.303-7.32,4.955-12.037,4.955h-69.395c-4.725,0-8.738-1.652-12.039-4.955c-3.307-3.301-4.957-7.316-4.957-12.039
			v-187.506c0-4.719,1.65-8.732,4.957-12.039c3.301-3.301,7.314-4.957,12.039-4.957h69.395c4.717,0,8.732,1.656,12.037,4.957
			c3.303,3.307,4.957,7.32,4.957,12.039c0,4.912-1.654,8.971-4.957,12.18c-3.305,3.211-7.32,4.814-12.037,4.814h-52.4v71.377h36.256
			c4.719,0,8.73,1.656,12.037,4.957c3.305,3.307,4.957,7.318,4.957,12.037c0,4.723-1.652,8.736-4.957,12.037
			c-3.305,3.309-7.318,4.957-12.037,4.957h-36.256v48.15h52.4C1982.045,1377.045,1986.061,1378.702,1989.366,1382.002z"/>
		<path fill="#FFFFFF" d="M2130.422,1194.92c3.301,3.215,4.955,7.271,4.955,12.178c0,4.725-1.654,8.738-4.955,12.039
			c-3.307,3.309-7.32,4.955-12.039,4.955h-26.342v169.947c0,4.723-1.656,8.738-4.957,12.039c-3.305,3.303-7.32,4.955-12.037,4.955
			c-4.723,0-8.738-1.652-12.039-4.955c-3.305-3.301-4.957-7.316-4.957-12.039v-169.947h-26.908c-4.721,0-8.736-1.646-12.037-4.955
			c-3.307-3.301-4.957-7.312-4.957-12.039c0-4.906,1.65-8.963,4.957-12.178c3.301-3.209,7.316-4.816,12.037-4.816h87.24
			C2123.1,1190.104,2127.116,1191.711,2130.422,1194.92z"/>
		<path fill="#FFFFFF" d="M2255.895,1382.002c3.303,3.305,4.957,7.322,4.957,12.037c0,4.723-1.654,8.738-4.957,12.039
			c-3.307,3.303-7.32,4.955-12.037,4.955h-69.396c-4.723,0-8.738-1.652-12.039-4.955c-3.305-3.301-4.955-7.316-4.955-12.039
			v-187.506c0-4.719,1.648-8.732,4.955-12.039c3.301-3.301,7.316-4.957,12.039-4.957h69.396c4.717,0,8.73,1.656,12.037,4.957
			c3.303,3.307,4.957,7.32,4.957,12.039c0,4.912-1.654,8.971-4.957,12.18c-3.307,3.211-7.32,4.814-12.037,4.814h-52.4v71.377h36.256
			c4.719,0,8.73,1.656,12.037,4.957c3.303,3.307,4.957,7.318,4.957,12.037c0,4.723-1.654,8.736-4.957,12.037
			c-3.307,3.309-7.318,4.957-12.037,4.957h-36.256v48.15h52.4C2248.575,1377.045,2252.588,1378.702,2255.895,1382.002z"/>
		<path fill="#FFFFFF" d="M2405.588,1387.245c2.076,4.346,2.219,8.686,0.426,13.027c-1.797,4.346-4.863,7.457-9.205,9.346
			c-2.266,0.943-4.531,1.416-6.799,1.416c-3.213,0-6.229-0.896-9.062-2.689c-2.832-1.791-5.004-4.293-6.514-7.504l-31.439-71.947
			h-16.996v65.146c0,4.723-1.654,8.738-4.957,12.039c-3.305,3.303-7.32,4.955-12.037,4.955c-4.721,0-8.736-1.652-12.037-4.955
			c-3.307-3.303-4.957-7.316-4.957-12.039v-186.941c0-4.717,1.648-8.729,4.957-12.037c3.301-3.301,7.314-4.957,12.037-4.957h41.07
			c7.174,0,14.064,2.033,20.678,6.09c6.605,4.062,12.365,9.871,17.275,17.42c8.498,13.41,12.746,28.705,12.746,45.887
			c0,8.311-1.09,16.336-3.258,24.074c-2.172,7.744-5.336,14.922-9.488,21.527c-1.889,2.832-3.873,5.379-5.945,7.646
			c-2.08,2.268-4.156,4.348-6.232,6.229L2405.588,1387.245z M2350.073,1294.905c0.943,0,2.217-0.611,3.824-1.84
			c1.602-1.227,3.443-3.354,5.521-6.373c2.451-3.775,4.293-8.025,5.523-12.746c1.227-4.721,1.84-9.535,1.84-14.447
			c0-4.908-0.613-9.771-1.84-14.586c-1.23-4.816-3.072-9.109-5.523-12.891c-2.08-2.832-3.922-4.855-5.521-6.09
			c-1.607-1.225-2.881-1.842-3.824-1.842h-24.076v70.812h24.076V1294.905z"/>
		<path fill="#FFFFFF" d="M2529.383,1307.37c11.143,13.977,16.711,30.307,16.711,49c0,5.854-0.613,11.094-1.84,15.719
			c-1.229,4.629-2.74,8.738-4.533,12.324c-1.797,3.586-3.82,6.703-6.09,9.346c-2.264,2.648-4.531,4.912-6.797,6.797
			c-10.578,8.498-23.416,12.746-38.521,12.746c-7.363,0-14.26-1.039-20.678-3.115c-6.42-2.08-12.086-5.283-16.994-9.629
			c-2.08-1.701-4.205-3.871-6.373-6.516c-2.172-2.643-4.154-5.756-5.945-9.346c-1.799-3.586-3.26-7.74-4.393-12.465
			c-1.133-4.717-1.699-10.1-1.699-16.145c0-4.719,1.65-8.73,4.957-12.039c3.303-3.303,7.314-4.955,12.037-4.955
			c4.908,0,8.969,1.652,12.18,4.955c3.209,3.309,4.814,7.32,4.814,12.039c0,2.646,0.234,5.336,0.709,8.07
			c0.469,2.74,1.459,5.24,2.975,7.508c1.51,2.264,3.729,4.105,6.654,5.521c2.928,1.416,6.844,2.125,11.758,2.125
			c3.396,0,6.561-0.426,9.486-1.273c2.928-0.85,5.428-2.125,7.508-3.826c4.529-3.963,6.797-9.912,6.797-17.844
			c0-5.85-0.756-10.947-2.268-15.293c-1.512-4.344-3.729-8.355-6.654-12.039c-2.93-3.684-6.516-7.174-10.764-10.479
			c-4.25-3.303-9.02-6.844-14.305-10.621c-4.912-3.4-9.77-6.941-14.586-10.621c-4.814-3.686-9.303-7.885-13.455-12.607
			c-4.912-6.041-8.639-12.32-11.188-18.836c-2.551-6.514-3.822-13.639-3.822-21.385c0-1.131,0.045-3.207,0.141-6.23
			c0.096-3.018,0.566-6.514,1.416-10.479c0.854-3.965,2.27-8.119,4.248-12.463c1.984-4.344,4.861-8.498,8.643-12.463
			c3.209-3.586,8.021-7.082,14.443-10.48c6.418-3.396,14.729-5.1,24.928-5.1c10.383,0,18.645,1.75,24.783,5.244
			c6.135,3.494,10.807,7.035,14.02,10.619c3.586,4.348,6.275,8.922,8.074,13.736c1.791,4.814,2.975,9.254,3.539,13.312
			c0.566,4.062,0.754,7.604,0.566,10.621c-0.189,3.023-0.381,4.816-0.566,5.381c-0.564,3.398-1.699,6.23-3.396,8.498
			c-1.516,2.08-3.541,3.822-6.092,5.238c-2.549,1.418-5.998,1.654-10.338,0.709c-4.156-0.752-7.223-2.125-9.205-4.107
			c-1.982-1.98-3.307-4.059-3.965-6.23c-0.664-2.168-0.947-4.104-0.852-5.807c0.094-1.697,0.143-2.734,0.143-3.113
			c0.186-0.754,0.281-1.793,0.281-3.119c0-1.316-0.143-2.732-0.424-4.248c-0.283-1.508-0.709-3.018-1.273-4.533
			c-0.566-1.51-1.324-2.83-2.268-3.965c-2.268-2.834-6.611-4.25-13.029-4.25c-5.1,0-8.641,0.664-10.621,1.984
			c-1.982,1.322-3.258,2.266-3.824,2.832c-1.322,1.322-2.314,2.834-2.973,4.531c-0.664,1.699-1.184,3.398-1.561,5.1
			c-0.379,1.699-0.615,3.166-0.707,4.391c-0.1,1.23-0.143,2.123-0.143,2.691v0.564v0.564c0,3.781,0.658,7.225,1.98,10.34
			c1.32,3.115,3.16,6.045,5.521,8.779c2.359,2.742,5.334,5.479,8.924,8.215c3.586,2.738,7.646,5.713,12.182,8.922
			c5.283,3.779,10.715,7.836,16.285,12.18C2519.516,1296.702,2524.663,1301.704,2529.383,1307.37z"/>
		<path fill="#FFFFFF" d="M647.639,1697.112c0.188,0.947,0.188,1.799,0,2.553v1.416c-0.757,13.023-4.529,23.697-11.33,32.004
			c-8.312,10.578-20.107,17.09-35.404,19.547c-3.59,0.752-7.837,1.131-12.745,1.131h-1.416h-1.133
			c-3.968,0-7.933-0.281-11.896-0.852c-15.86-2.646-28.041-9.248-36.539-19.826c-7.555-9.816-11.33-22.658-11.33-38.52
			c0-27.947,6.607-48.623,19.828-62.033l0.566-0.564c-3.78-4.715-6.705-10.666-8.781-17.844c-0.947-3.967-1.699-8.4-2.266-13.312
			c-0.566-4.908-0.852-10.572-0.852-16.996v-2.264c0-1.885,0.043-4.342,0.145-7.365c0.092-3.018,0.562-6.324,1.416-9.912
			c0.85-3.586,2.073-7.27,3.68-11.051c1.604-3.775,3.918-7.361,6.94-10.76c3.209-3.586,7.932-7.127,14.162-10.623
			c6.229-3.492,14.538-5.24,24.926-5.24h1.134h1.416c10.383,0,18.646,1.75,24.782,5.24c6.136,3.496,10.81,7.037,14.021,10.623
			c3.02,3.398,5.381,6.984,7.081,10.76c1.7,3.781,2.976,7.463,3.823,11.051c0.85,3.586,1.316,6.895,1.417,9.912
			c0.093,3.023,0.142,5.48,0.142,7.365c0,1.133-0.098,1.887-0.283,2.264c0,6.422-0.236,12.086-0.707,16.996
			c-0.475,4.912-1.273,9.346-2.406,13.312c-2.08,7.178-4.913,13.129-8.498,17.844l0.564,0.564
			c13.029,13.221,19.543,33.896,19.543,62.033V1697.112L647.639,1697.112z M613.65,1694.563c0-18.504-3.309-31.344-9.914-38.52
			c-3.778-3.775-9.443-6.232-16.994-7.363c-7.746,1.131-13.312,3.588-16.712,7.363c-6.798,7.178-10.197,20.018-10.197,38.52v1.133
			c0.188,0.758,0.567,2.457,1.134,5.102c0.567,2.645,1.793,5.381,3.684,8.213c3.586,5.854,8.779,9.346,15.576,10.48
			c0.943,0,1.984,0.049,3.117,0.143c1.133,0.096,2.268,0.139,3.398,0.139c1.318,0,2.594-0.043,3.823-0.139
			c1.228-0.094,2.312-0.236,3.257-0.426c6.984-1.133,12.273-4.625,15.861-10.48c1.318-2.266,2.268-4.482,2.832-6.656
			c0.566-2.17,0.943-3.727,1.135-4.674V1694.563z M568.33,1585.229c0,5.102,0.236,9.256,0.709,12.465
			c0.47,3.215,0.943,5.764,1.416,7.648c0.471,1.887,0.943,3.254,1.416,4.105c0.471,0.85,0.803,1.371,0.992,1.559
			c1.132,0.945,3.019,1.557,5.664,1.84c2.643,0.285,5.382,0.523,8.215,0.707c3.02-0.184,5.852-0.422,8.496-0.707
			c2.644-0.283,4.436-0.895,5.383-1.84c0.186-0.188,0.566-0.709,1.133-1.559c0.566-0.852,1.084-2.312,1.56-4.393
			c0.469-2.074,0.896-4.857,1.273-8.354c0.376-3.492,0.565-7.979,0.565-13.453c0-0.377,0.094-0.66,0.283-0.855v-1.416h-0.283
			l0.283-0.279c-0.189-1.889-0.615-4.393-1.273-7.506c-0.664-3.113-2.031-5.709-4.107-7.789c-0.565-0.566-1.797-1.463-3.682-2.691
			c-1.891-1.227-5.1-1.936-9.631-2.123c-4.346,0.188-7.462,0.896-9.348,2.123c-1.891,1.229-3.115,2.125-3.684,2.691
			c-2.08,2.078-3.496,4.676-4.248,7.789c-0.758,3.115-1.135,5.619-1.135,7.506v0.279
			C568.516,1582.497,568.516,1583.915,568.33,1585.229z"/>
		<path fill="#FFFFFF" d="M792.812,1671.905c2.076,10.951,1.981,21.717-0.283,32.285c-1.322,5.857-3.213,11.383-5.666,16.572
			c-2.455,5.195-5.57,9.869-9.346,14.021c-2.834,3.213-5.948,6.045-9.349,8.498c-3.397,2.457-6.987,4.436-10.765,5.947
			c-7.18,2.832-14.729,4.248-22.658,4.248h-4.533c-12.65-0.758-23.889-4.631-33.705-11.611
			c-9.443-6.605-16.995-15.674-22.658-27.191c-8.879-18.879-12.647-42.955-11.33-72.229c0-10.945,1.227-20.959,3.684-30.021
			c2.451-9.064,5.615-17.137,9.486-24.217c3.869-7.082,8.117-13.312,12.746-18.695c4.625-5.381,9.205-9.957,13.736-13.736
			c4.719-3.967,9.35-7.365,13.879-10.197c4.533-2.832,8.643-5.145,12.321-6.939c3.685-1.793,6.701-3.113,9.063-3.965
			c2.357-0.85,3.823-1.369,4.391-1.557c3.02-0.943,5.949-1.229,8.781-0.852c2.451,0.381,4.906,1.322,7.363,2.832
			c2.451,1.516,4.436,4.156,5.948,7.934c1.509,3.965,1.698,7.361,0.565,10.193c-1.133,2.834-2.646,5.197-4.533,7.084
			c-2.079,2.08-4.812,3.873-8.213,5.383c-2.832,0.945-5.854,2.172-9.063,3.68c-2.646,1.324-5.665,3.072-9.062,5.24
			c-3.4,2.174-6.896,4.771-10.48,7.789c-16.809,14.729-25.59,33.332-26.342,55.801c4.342-3.02,9.582-5.568,15.719-7.648
			c6.139-2.072,13.268-3.113,21.389-3.113c6.416,0,12.179,0.662,17.275,1.982c5.1,1.32,9.631,3.068,13.598,5.238
			c3.965,2.174,7.363,4.533,10.195,7.082s5.285,5.053,7.365,7.506c3.773,5.098,6.373,9.82,7.787,14.162
			C791.539,1667.754,792.432,1670.586,792.812,1671.905z M752.025,1712.125c3.398-3.773,5.807-8.824,7.223-15.154
			c1.416-6.322,1.461-12.506,0.143-18.551v-0.283c-0.189-0.377-0.613-1.416-1.273-3.117c-0.664-1.697-1.841-3.584-3.541-5.664
			c-4.531-5.283-11.426-7.932-20.676-7.932c-9.821,0-17.848,3.213-24.076,9.631c-2.268,2.457-3.921,4.771-4.957,6.939
			c-1.039,2.174-1.655,3.449-1.84,3.826c-0.191,0.379-0.428,1.271-0.709,2.688c-0.283,1.416-0.332,3.07-0.145,4.957
			c0,1.516,0.328,3.447,0.992,5.809c0.66,2.361,1.275,4.105,1.84,5.236c0,0.385,0.094,0.664,0.285,0.852
			c5.664,11.33,14.729,17.377,27.191,18.129C740.789,1720.055,747.303,1717.6,752.025,1712.125z"/>
		<path fill="#FFFFFF" d="M894.776,1530.563c4.719,0,8.73,1.656,12.038,4.959c3.303,3.307,4.957,7.32,4.957,12.037v187.227
			c0,4.725-1.654,8.736-4.957,12.039c-3.308,3.301-7.319,4.955-12.038,4.955c-4.724,0-8.735-1.654-12.038-4.955
			c-3.305-3.303-4.957-7.314-4.957-12.039v-76.76h-64.862c-2.646,0-5.146-0.564-7.506-1.697c-2.362-1.135-4.297-2.736-5.806-4.816
			c-3.586-4.533-4.625-9.439-3.116-14.729l24.925-93.473c1.133-4.527,3.729-7.975,7.789-10.338
			c4.061-2.355,8.355-2.977,12.889-1.842c4.531,1.322,7.977,4.016,10.34,8.072c2.357,4.062,2.974,8.355,1.842,12.887l-19.262,71.945
			h42.77v-76.477c0-4.717,1.65-8.732,4.957-12.037C886.041,1532.219,890.055,1530.563,894.776,1530.563z"/>
		<path fill="#FFFFFF" d="M947.318,1713.965c4.436-1.227,8.824-0.611,13.17,1.842c3.967,2.27,6.561,5.664,7.789,10.195
			c1.227,4.533,0.709,8.781-1.559,12.746l-20.109,35.123c-2.456,4.15-5.947,6.842-10.479,8.072
			c-4.532,1.225-8.78,0.709-12.745-1.559c-4.349-2.457-7.082-5.949-8.216-10.479c-1.134-4.531-0.47-8.781,1.982-12.748l20.11-35.121
			C939.528,1717.885,942.88,1715.198,947.318,1713.965z"/>
		<path fill="#FFFFFF" d="M1090.498,1694.563c0,15.861-3.779,28.703-11.33,38.521c-10.765,13.787-27.76,20.678-50.982,20.678
			c-10.39,0-18.65-1.748-24.783-5.238c-6.143-3.494-10.812-7.033-14.021-10.623c-3.779-4.152-6.514-8.637-8.215-13.455
			c-1.697-4.814-2.832-9.299-3.396-13.453c-0.566-4.152-0.758-7.693-0.566-10.623c0.188-2.926,0.377-4.766,0.566-5.523
			c0.752-2.641,1.98-5.002,3.683-7.08c1.509-1.699,3.491-3.209,5.946-4.531c2.453-1.318,5.568-1.701,9.349-1.135
			c3.774,0.566,6.657,1.799,8.64,3.682c1.982,1.895,3.442,3.873,4.392,5.949c0.942,2.457,1.509,5.102,1.698,7.934
			c-0.189,1.32-0.143,3.729,0.143,7.223c0.283,3.498,1.461,6.373,3.541,8.639c2.268,2.832,6.605,4.248,13.029,4.248
			c5.85,0,10.666-0.518,14.443-1.555c3.775-1.037,6.655-2.643,8.641-4.816c1.98-2.17,3.35-4.814,4.105-7.932
			c0.752-3.115,1.135-6.748,1.135-10.904c0-18.504-3.398-31.344-10.197-38.521c-5.288-5.283-14.069-7.932-26.342-7.932
			c-4.725,0-8.735-1.65-12.039-4.957c-3.307-3.301-4.955-7.314-4.955-12.037v-0.281c0-4.91,1.648-8.969,4.955-12.182
			c3.304-3.207,7.314-4.812,12.039-4.812c1.697,0,3.727,0,6.091,0c2.356,0,4.673-0.096,6.938-0.285
			c2.269-0.186,4.343-0.469,6.232-0.848c1.885-0.377,3.208-0.945,3.965-1.699c0.187-0.188,0.565-0.709,1.133-1.561
			c0.566-0.85,1.134-2.311,1.699-4.391c0.567-2.074,1.035-4.857,1.416-8.354c0.377-3.492,0.567-7.979,0.567-13.453v-0.855
			c0.186-1.506-0.051-4.104-0.709-7.789c-0.663-3.682-2.224-6.748-4.676-9.203c-0.563-0.566-1.89-1.51-3.965-2.832
			c-2.08-1.318-5.572-1.982-10.479-1.982c-6.424,0-10.766,1.416-13.029,4.248c-2.08,2.268-3.258,5.146-3.541,8.641
			c-0.283,3.496-0.332,5.996-0.143,7.504v-0.281c0.188,3.023-0.189,5.762-1.135,8.215c-0.945,2.08-2.406,4.156-4.389,6.23
			c-1.984,2.08-5.146,3.398-9.49,3.965c-4.345,0.566-7.744,0.191-10.195-1.133c-2.455-1.318-4.347-2.924-5.664-4.812
			c-1.516-2.076-2.457-4.627-2.832-7.648c-0.189-0.566-0.383-2.357-0.566-5.383c-0.189-3.02,0-6.559,0.566-10.621
			c0.564-4.059,1.697-8.449,3.396-13.172c1.701-4.717,4.436-9.248,8.215-13.596c3.208-3.773,7.881-7.408,14.021-10.904
			c6.133-3.492,14.396-5.24,24.781-5.24c10.385,0,18.737,1.701,25.066,5.104c6.324,3.395,11.092,6.895,14.305,10.479
			c3.584,3.963,6.416,8.121,8.498,12.461c2.075,4.344,3.539,8.498,4.391,12.463c0.851,3.963,1.318,7.461,1.416,10.48
			c0.093,3.02,0.143,5.1,0.143,6.229c0,6.424-0.283,12.088-0.851,16.994c-0.565,4.912-1.323,9.35-2.267,13.314
			c-2.08,7.176-5.006,13.127-8.781,17.842l0.566,0.566C1083.885,1645.94,1090.498,1666.62,1090.498,1694.563z"/>
		<path fill="#FFFFFF" d="M1216.254,1694.563c0,15.861-3.779,28.703-11.328,38.521c-10.766,13.787-27.76,20.678-50.982,20.678
			c-10.391,0-18.651-1.748-24.784-5.238c-6.141-3.494-10.812-7.033-14.021-10.623c-3.779-4.152-6.517-8.637-8.215-13.455
			c-1.699-4.814-2.832-9.299-3.397-13.453c-0.566-4.152-0.757-7.693-0.566-10.623c0.188-2.926,0.377-4.766,0.566-5.523
			c0.752-2.641,1.981-5.002,3.682-7.08c1.511-1.699,3.491-3.209,5.947-4.531c2.453-1.318,5.567-1.701,9.349-1.135
			c3.774,0.566,6.657,1.799,8.64,3.682c1.983,1.895,3.442,3.873,4.392,5.949c0.942,2.457,1.51,5.102,1.698,7.934
			c-0.188,1.32-0.142,3.729,0.143,7.223c0.283,3.498,1.462,6.373,3.541,8.639c2.267,2.832,6.607,4.248,13.029,4.248
			c5.852,0,10.666-0.518,14.445-1.555c3.773-1.037,6.654-2.643,8.639-4.816c1.982-2.17,3.352-4.814,4.105-7.932
			c0.754-3.115,1.135-6.748,1.135-10.904c0-18.504-3.4-31.344-10.197-38.521c-5.287-5.283-14.068-7.932-26.342-7.932
			c-4.723,0-8.735-1.65-12.038-4.957c-3.306-3.301-4.957-7.314-4.957-12.037v-0.281c0-4.91,1.651-8.969,4.957-12.182
			c3.303-3.207,7.315-4.812,12.038-4.812c1.7,0,3.727,0,6.09,0c2.359,0,4.674-0.096,6.939-0.285c2.266-0.186,4.342-0.469,6.23-0.848
			c1.885-0.377,3.207-0.945,3.965-1.699c0.188-0.188,0.566-0.709,1.133-1.561c0.566-0.85,1.135-2.311,1.699-4.391
			c0.566-2.074,1.035-4.857,1.416-8.354c0.377-3.492,0.568-7.979,0.568-13.453v-0.855c0.184-1.506-0.051-4.104-0.709-7.789
			c-0.664-3.682-2.225-6.748-4.676-9.203c-0.564-0.566-1.891-1.51-3.967-2.832c-2.078-1.318-5.57-1.982-10.479-1.982
			c-6.422,0-10.766,1.416-13.029,4.248c-2.08,2.268-3.258,5.146-3.541,8.641c-0.283,3.496-0.332,5.996-0.144,7.504v-0.281
			c0.188,3.023-0.188,5.762-1.133,8.215c-0.947,2.08-2.408,4.156-4.392,6.23c-1.981,2.08-5.146,3.398-9.488,3.965
			c-4.346,0.566-7.743,0.191-10.194-1.133c-2.457-1.318-4.348-2.924-5.666-4.812c-1.515-2.076-2.457-4.627-2.832-7.648
			c-0.188-0.566-0.381-2.357-0.565-5.383c-0.19-3.02,0-6.559,0.565-10.621c0.565-4.059,1.699-8.449,3.397-13.172
			c1.699-4.717,4.437-9.248,8.215-13.596c3.208-3.773,7.882-7.408,14.021-10.904c6.133-3.492,14.395-5.24,24.783-5.24
			c10.383,0,18.736,1.701,25.064,5.104c6.324,3.395,11.094,6.895,14.305,10.479c3.586,3.963,6.418,8.121,8.496,12.461
			c2.076,4.344,3.541,8.498,4.393,12.463c0.85,3.963,1.318,7.461,1.416,10.48c0.094,3.02,0.143,5.1,0.143,6.229
			c0,6.424-0.283,12.088-0.852,16.994c-0.564,4.912-1.322,9.35-2.266,13.314c-2.08,7.176-5.006,13.127-8.779,17.842l0.564,0.566
			C1209.643,1645.94,1216.254,1666.62,1216.254,1694.563z"/>
		<path fill="#FFFFFF" d="M1336.348,1537.364c1.697,2.078,2.781,4.438,3.258,7.082c0.469,2.645,0.326,5.285-0.426,7.932
			l-53.533,185.242c-0.947,3.779-2.977,6.752-6.09,8.92c-3.115,2.168-6.562,3.258-10.338,3.258c-0.76,0-1.516,0-2.268,0
			c-0.758,0-1.516-0.189-2.268-0.566c-4.531-1.322-7.932-4.01-10.197-8.072c-2.266-4.061-2.738-8.355-1.416-12.889l47.303-163.715
			h-61.746c-4.723,0-8.736-1.65-12.037-4.957c-3.309-3.301-4.957-7.314-4.957-12.039c0-4.715,1.648-8.73,4.957-12.035
			c3.303-3.303,7.314-4.959,12.037-4.959h84.123C1328.417,1530.563,1332.948,1532.831,1336.348,1537.364z"/>
		<path fill="#FFFFFF" d="M1632.336,1734.217c0,4.721-1.654,8.734-4.957,12.037c-3.305,3.301-7.318,4.957-12.037,4.957
			c-4.721,0-8.734-1.656-12.037-4.957c-3.307-3.303-4.957-7.314-4.957-12.037V1617.52l-17.844,35.121
			c-1.516,4.156-4.248,7.182-8.215,9.064c-2.266,1.133-4.631,1.699-7.08,1.699h-0.283h-0.283h-0.283h-0.283
			c-2.455,0-4.812-0.566-7.08-1.699c-3.967-1.885-6.705-4.908-8.215-9.064l-17.844-35.121v116.697c0,4.721-1.656,8.734-4.957,12.037
			c-3.309,3.301-7.32,4.957-12.037,4.957c-4.725,0-8.736-1.656-12.039-4.957c-3.307-3.303-4.955-7.314-4.955-12.037v-187.508v-0.85
			v-0.852v-0.283v-0.281c0-0.186,0.043-0.285,0.141-0.285c0.094,0,0.145-0.092,0.145-0.281v-0.283v-0.566
			c0-0.186,0.043-0.326,0.141-0.426c0.094-0.094,0.141-0.232,0.141-0.424c0.188-1.133,0.568-2.17,1.137-3.117
			c0-0.186,0.043-0.279,0.141-0.279c0.094,0,0.143-0.096,0.143-0.285l0.283-0.281l0.283-0.283c0-0.188,0.092-0.377,0.283-0.564
			v-0.285l0.564-0.566c0.375-0.377,0.707-0.752,0.99-1.133c0.283-0.377,0.611-0.752,0.992-1.135l0.566-0.564h0.281
			c0-0.188,0.043-0.285,0.145-0.285c0.092,0,0.141-0.092,0.141-0.277h0.283c0.186-0.189,0.375-0.285,0.564-0.285
			c0-0.188,0.096-0.283,0.283-0.283l0.283-0.283l0.566-0.283c0.186-0.186,0.375-0.281,0.564-0.281l0.283-0.285
			c0.188,0,0.375-0.094,0.564-0.283c0.188,0,0.328-0.045,0.428-0.141c0.092-0.096,0.232-0.145,0.424-0.145
			c0.188,0,0.328-0.043,0.426-0.141c0.094-0.092,0.234-0.145,0.426-0.145c0.186,0,0.375-0.094,0.564-0.279h0.283h0.564l0.283-0.285
			h0.283h0.566h0.283c0.188-0.188,0.375-0.281,0.564-0.281h0.285h0.848h0.852h0.852h0.564h0.283c0.186,0,0.377,0.096,0.566,0.281
			h0.564h0.283h0.564c0.752,0.383,1.416,0.617,1.982,0.709c0.566,0.096,1.133,0.332,1.699,0.707h0.283
			c0,0.188,0.188,0.285,0.564,0.285c0,0.188,0.096,0.279,0.283,0.279l0.285,0.283c0.184,0,0.375,0.102,0.562,0.285l0.568,0.566
			h0.283c0.939,0.564,1.697,1.322,2.266,2.266l0.566,0.568l0.564,0.564c0,0.189,0.043,0.283,0.143,0.283
			c0.094,0,0.143,0.096,0.143,0.283l0.283,0.285l0.283,0.277c0,0.191,0.094,0.385,0.281,0.568c0,0.189,0.043,0.332,0.145,0.424
			c0.092,0.1,0.141,0.24,0.141,0.424l35.688,69.965l35.688-69.965c0-0.375,0.094-0.656,0.283-0.848
			c0.186-0.186,0.283-0.377,0.283-0.568c0.188,0,0.281-0.092,0.281-0.279l0.283-0.283c0-0.189,0.094-0.377,0.285-0.566l0.564-0.564
			l0.564-0.568c0.568-0.943,1.32-1.699,2.268-2.266l0.566-0.566h0.283c0.184-0.186,0.375-0.285,0.564-0.285l0.283-0.283
			c0.188,0,0.283-0.092,0.283-0.281c0.375,0,0.566-0.096,0.566-0.283h0.281c0.375-0.375,0.852-0.611,1.416-0.707
			c0.566-0.094,1.035-0.236,1.416-0.426c0.375,0,0.658-0.094,0.852-0.283h0.564h0.283h0.566c0-0.188,0.094-0.281,0.283-0.281h0.564
			h0.566h0.85h0.852h0.85c0.377,0,0.66,0.096,0.85,0.281h0.566h0.566l0.281,0.283h0.568h0.283l0.562,0.281
			c0.189,0,0.328,0.051,0.428,0.145c0.094,0.096,0.232,0.141,0.426,0.141c0.186,0,0.377,0.1,0.562,0.285h0.285
			c0.186,0.188,0.375,0.283,0.564,0.283v0.283c0.377,0,0.66,0.098,0.852,0.281c0.188,0.191,0.375,0.283,0.564,0.283l0.283,0.283
			l0.283,0.283c0.188,0,0.377,0.098,0.564,0.285l0.568,0.564c0.375,0,0.564,0.188,0.564,0.562c0.941,0.566,1.699,1.324,2.268,2.27
			l0.564,0.564v0.283c0.188,0.189,0.281,0.381,0.281,0.566c0.188,0,0.285,0.098,0.285,0.283l0.283,0.281
			c0,0.191,0.092,0.383,0.281,0.566c0.377,0.947,0.754,1.982,1.135,3.117c0,0.379,0.092,0.662,0.283,0.85v0.566v0.279
			c0,0.191,0.094,0.385,0.281,0.568v0.281v0.283v0.852v0.848v187.512H1632.336L1632.336,1734.217z"/>
		<path fill="#FFFFFF" d="M1683.319,1529.715c4.908,0,8.967,1.654,12.18,4.957c3.209,3.305,4.814,7.318,4.814,12.037v187.51
			c0,4.721-1.605,8.732-4.814,12.037c-3.213,3.299-7.271,4.955-12.18,4.955c-4.723,0-8.736-1.656-12.039-4.955
			c-3.305-3.303-4.957-7.314-4.957-12.037v-187.51c0-4.719,1.652-8.732,4.957-12.037
			C1674.583,1531.372,1678.596,1529.715,1683.319,1529.715z"/>
		<path fill="#FFFFFF" d="M1846.182,1722.178c3.207,3.307,4.812,7.32,4.812,12.039c0,4.721-1.605,8.734-4.812,12.037
			c-3.213,3.301-7.271,4.957-12.184,4.957h-73.926c-4.723,0-8.734-1.656-12.037-4.957c-3.307-3.303-4.957-7.312-4.957-12.037
			v-187.508c0-4.719,1.65-8.734,4.957-12.039c3.303-3.303,7.314-4.957,12.037-4.957c4.719,0,8.732,1.654,12.039,4.957
			c3.301,3.305,4.957,7.318,4.957,12.039v170.512h56.93C1838.909,1717.221,1842.969,1718.879,1846.182,1722.178z"/>
		<path fill="#FFFFFF" d="M1973.668,1721.893c3.301,3.311,4.955,7.322,4.955,12.039c0,4.727-1.654,8.738-4.955,12.037
			c-3.307,3.305-7.32,4.957-12.039,4.957h-69.395c-4.721,0-8.736-1.652-12.037-4.957c-3.307-3.299-4.957-7.311-4.957-12.037
			v-187.506c0-4.719,1.648-8.73,4.957-12.039c3.301-3.303,7.314-4.957,12.037-4.957h69.395c4.719,0,8.732,1.654,12.039,4.957
			c3.301,3.309,4.955,7.32,4.955,12.039c0,4.912-1.654,8.971-4.955,12.178c-3.307,3.215-7.32,4.814-12.039,4.814h-52.398v71.377
			h36.256c4.719,0,8.73,1.66,12.037,4.957c3.303,3.307,4.957,7.322,4.957,12.039c0,4.723-1.654,8.736-4.957,12.037
			c-3.307,3.307-7.318,4.957-12.037,4.957h-36.256v48.15h52.398C1966.348,1716.936,1970.362,1718.594,1973.668,1721.893z"/>
		<path fill="#FFFFFF" d="M2098.247,1647.26c11.143,13.98,16.713,30.311,16.713,49c0,5.855-0.615,11.096-1.842,15.721
			c-1.23,4.631-2.74,8.738-4.533,12.324c-1.795,3.586-3.822,6.703-6.088,9.346c-2.268,2.645-4.533,4.914-6.799,6.801
			c-10.576,8.496-23.416,12.744-38.521,12.744c-7.365,0-14.26-1.039-20.678-3.115c-6.42-2.08-12.086-5.283-16.994-9.629
			c-2.08-1.701-4.205-3.869-6.373-6.52c-2.172-2.643-4.156-5.756-5.947-9.346c-1.797-3.586-3.258-7.74-4.391-12.463
			c-1.135-4.719-1.699-10.1-1.699-16.145c0-4.719,1.648-8.732,4.955-12.037c3.305-3.305,7.316-4.957,12.039-4.957
			c4.908,0,8.969,1.652,12.182,4.957c3.207,3.305,4.812,7.316,4.812,12.037c0,2.646,0.232,5.334,0.707,8.07
			c0.471,2.74,1.461,5.24,2.977,7.51c1.508,2.266,3.727,4.104,6.654,5.52c2.928,1.418,6.844,2.125,11.756,2.125
			c3.398,0,6.561-0.424,9.488-1.273c2.926-0.852,5.426-2.125,7.506-3.824c4.531-3.965,6.797-9.914,6.797-17.846
			c0-5.85-0.756-10.945-2.266-15.295c-1.514-4.342-3.73-8.354-6.656-12.037c-2.93-3.684-6.514-7.174-10.762-10.479
			c-4.25-3.301-9.021-6.842-14.307-10.621c-4.912-3.398-9.771-6.939-14.586-10.621s-9.303-7.883-13.455-12.604
			c-4.91-6.041-8.639-12.322-11.188-18.838c-2.551-6.518-3.824-13.641-3.824-21.385c0-1.135,0.043-3.209,0.143-6.23
			c0.094-3.02,0.564-6.516,1.416-10.48s2.268-8.115,4.25-12.461c1.98-4.344,4.857-8.498,8.639-12.465
			c3.209-3.584,8.021-7.08,14.443-10.48c6.418-3.396,14.729-5.1,24.928-5.1c10.383,0,18.646,1.748,24.783,5.242
			c6.135,3.496,10.809,7.035,14.02,10.621c3.586,4.346,6.275,8.92,8.074,13.736c1.791,4.816,2.977,9.256,3.539,13.314
			c0.566,4.061,0.754,7.604,0.566,10.619c-0.189,3.021-0.379,4.814-0.566,5.383c-0.562,3.396-1.699,6.229-3.395,8.498
			c-1.518,2.078-3.543,3.822-6.094,5.24c-2.549,1.416-5.996,1.652-10.338,0.707c-4.154-0.752-7.223-2.125-9.205-4.107
			c-1.98-1.982-3.307-4.059-3.965-6.23c-0.664-2.17-0.949-4.107-0.852-5.807c0.094-1.697,0.143-2.736,0.143-3.115
			c0.188-0.752,0.283-1.793,0.283-3.117c0-1.318-0.145-2.734-0.426-4.248c-0.281-1.508-0.707-3.02-1.273-4.533
			c-0.564-1.508-1.324-2.832-2.266-3.965c-2.268-2.832-6.611-4.248-13.029-4.248c-5.102,0-8.641,0.662-10.621,1.982
			c-1.984,1.322-3.258,2.266-3.824,2.832c-1.324,1.322-2.314,2.832-2.975,4.531c-0.664,1.699-1.186,3.398-1.561,5.102
			c-0.381,1.697-0.615,3.162-0.709,4.389c-0.096,1.23-0.141,2.125-0.141,2.691v0.564v0.566c0,3.779,0.658,7.223,1.98,10.338
			c1.32,3.115,3.16,6.047,5.523,8.781c2.357,2.738,5.332,5.479,8.922,8.213c3.586,2.738,7.646,5.715,12.182,8.924
			c5.283,3.779,10.713,7.838,16.287,12.18C2088.377,1636.594,2093.526,1641.596,2098.247,1647.26z"/>
		<g>
			<path fill="#FFFFFF" d="M931.213,1937.84c2.062,2.066,3.1,4.578,3.1,7.525c0,2.951-1.035,5.463-3.1,7.523
				c-2.066,2.068-4.576,3.102-7.525,3.102h-3.896l1.949,3.361c1.533,2.48,1.917,5.139,1.15,7.973
				c-0.771,2.832-2.451,5.02-5.047,6.553c-1.653,0.943-3.427,1.416-5.312,1.416c-1.771,0-3.516-0.473-5.225-1.416
				c-1.713-0.943-3.041-2.24-3.982-3.896l-1.771-3.365l-1.947,3.365c-0.946,1.654-2.242,2.951-3.896,3.896
				c-1.653,0.943-3.424,1.416-5.312,1.416c-1.89,0-3.66-0.473-5.312-1.416c-2.599-1.533-4.279-3.689-5.048-6.467
				c-0.769-2.771-0.384-5.459,1.151-8.059l1.945-3.361h-3.894c-2.953,0-5.464-1.031-7.527-3.102
				c-2.062-2.061-3.099-4.572-3.099-7.523c0-2.947,1.035-5.459,3.099-7.525c2.063-2.062,4.574-3.098,7.527-3.098h3.719l-1.771-3.189
				c-1.537-2.596-1.922-5.311-1.152-8.145c0.768-2.834,2.391-4.959,4.871-6.375c2.595-1.533,5.312-1.918,8.145-1.15
				c2.834,0.77,4.959,2.449,6.375,5.045l1.949,3.189l1.947-3.189c1.416-2.596,3.542-4.275,6.375-5.045
				c2.832-0.768,5.547-0.439,8.146,0.977c2.479,1.533,4.103,3.717,4.869,6.553c0.769,2.832,0.443,5.486-0.974,7.967l-1.949,3.365
				h3.896C926.635,1934.741,929.145,1935.778,931.213,1937.84z"/>
			<path fill="#FFFFFF" d="M954.318,1911.545c3.066,0,5.604,1.035,7.613,3.1c2.008,2.066,3.012,4.574,3.012,7.525v117.227
				c0,2.953-1.004,5.461-3.012,7.525c-2.01,2.062-4.547,3.1-7.613,3.1c-2.952,0-5.463-1.035-7.525-3.1
				c-2.066-2.064-3.1-4.574-3.1-7.525V1922.17c0-2.951,1.031-5.459,3.1-7.525C948.855,1912.581,951.366,1911.545,954.318,1911.545z"
				/>
			<path fill="#FFFFFF" d="M1048.346,1911.545c2.948,0,5.459,1.035,7.524,3.1c2.063,2.066,3.099,4.574,3.099,7.525v117.049v0.709
				v0.529v0.178v0.354l-0.177,0.178v0.178v0.355v0.176c-0.119,0.121-0.178,0.24-0.178,0.354v0.18c0,0.119-0.029,0.178-0.088,0.178
				c-0.062,0-0.089,0.061-0.089,0.176c0,0.119-0.03,0.207-0.088,0.268c-0.062,0.061-0.09,0.146-0.09,0.266s-0.029,0.207-0.089,0.268
				c-0.062,0.061-0.089,0.148-0.089,0.266c0,0.119-0.029,0.178-0.089,0.178c-0.062,0-0.088,0.061-0.088,0.18v0.178
				c-0.119,0-0.179,0.061-0.179,0.174l-0.178,0.18c0,0.117-0.062,0.236-0.178,0.354l-0.177,0.178v0.178
				c-0.119,0-0.177,0.061-0.177,0.18c0,0.117-0.062,0.176-0.178,0.176c0,0.119-0.031,0.178-0.09,0.178
				c-0.062,0-0.089,0.062-0.089,0.176h-0.178c0,0.121-0.062,0.238-0.177,0.355l-0.354,0.354l-0.354,0.354l-0.354,0.357h-0.178
				l-0.354,0.354c-0.117,0.115-0.235,0.176-0.354,0.176c0,0.117-0.062,0.18-0.178,0.18l-0.178,0.178
				c-0.119,0-0.178,0.027-0.178,0.088c0,0.059-0.061,0.09-0.176,0.09h-0.178l-0.354,0.354c-0.473,0.234-0.887,0.412-1.239,0.531
				c-0.354,0.115-0.828,0.234-1.418,0.354c-0.474,0.115-1.181,0.178-2.123,0.178c-0.709,0-1.24-0.061-1.597-0.178h-0.353h-0.178
				c-0.119,0-0.179-0.061-0.179-0.178h-0.709v-0.176h-0.354c-0.474-0.24-0.771-0.354-0.885-0.354c-0.119,0-0.179-0.062-0.179-0.178
				h-0.177c-0.118,0-0.178-0.062-0.178-0.18c-0.118,0-0.237-0.061-0.354-0.176c-0.116,0-0.176-0.061-0.176-0.178h-0.179
				c-0.118,0-0.176-0.031-0.176-0.09c0-0.061-0.062-0.088-0.179-0.088c-1.301-0.943-2.362-2.064-3.188-3.365v-0.176
				c-0.118,0-0.178-0.059-0.178-0.18l-0.177-0.174v-0.18c-0.119-0.115-0.178-0.234-0.178-0.355c0-0.115-0.062-0.234-0.177-0.354
				l-30.28-69.947v65.875c0,2.951-1.036,5.461-3.101,7.525c-2.066,2.062-4.575,3.1-7.524,3.1c-2.953,0-5.463-1.035-7.526-3.1
				c-2.066-2.064-3.099-4.574-3.099-7.525v-117.059v-0.707v-0.529v-0.18v-0.354l0.177-0.176v-0.18v-0.354v-0.178
				c0.116-0.117,0.178-0.234,0.178-0.355v-0.176c0-0.115,0.026-0.176,0.088-0.176c0.06,0,0.09-0.059,0.09-0.18
				c0-0.115,0.026-0.205,0.089-0.264c0.059-0.061,0.088-0.146,0.088-0.266c0-0.117,0.026-0.205,0.088-0.27
				c0.062-0.059,0.09-0.145,0.09-0.266c0-0.117,0.027-0.178,0.089-0.178c0.059,0,0.09-0.057,0.09-0.176v-0.178l0.354-0.355
				c0-0.115,0.025-0.178,0.09-0.178c0.057,0,0.087-0.059,0.087-0.176l0.179-0.178v-0.178c0.114-0.115,0.178-0.234,0.178-0.354h0.177
				c0-0.115,0.026-0.176,0.09-0.176c0.058,0,0.088-0.062,0.088-0.18h0.177c0-0.115,0.061-0.234,0.18-0.354l0.354-0.355v-0.176
				c0.117,0,0.235-0.059,0.354-0.18v-0.176c0.115,0,0.234-0.061,0.354-0.176h0.177l0.354-0.355l0.354-0.355h0.178
				c0-0.113,0.059-0.176,0.178-0.176c0.115,0,0.177-0.029,0.177-0.09c0-0.057,0.06-0.088,0.179-0.088h0.178l0.354-0.355
				c0.825-0.471,1.653-0.766,2.479-0.887h0.179c0.589-0.113,1.475-0.176,2.655-0.176h0.531h0.176l0.179,0.176h0.354h0.176h0.354
				c0,0.121,0.06,0.18,0.179,0.18h0.354h0.177c0,0.117,0.117,0.178,0.354,0.178c0.115,0.117,0.293,0.178,0.529,0.178
				c0.117,0.121,0.236,0.18,0.355,0.18h0.176c0,0.119,0.116,0.176,0.354,0.176v0.178c0.234,0,0.354,0.062,0.354,0.176h0.179
				c0.114,0,0.178,0.031,0.178,0.09c0,0.062,0.058,0.09,0.177,0.09l0.176,0.178l0.179,0.176l0.178,0.178h0.179
				c0.114,0.121,0.233,0.178,0.354,0.178v0.178c0.116,0,0.178,0.029,0.178,0.088c0,0.062,0.058,0.088,0.178,0.088v0.176
				c0.115,0,0.177,0.033,0.177,0.092c0,0.061,0.06,0.088,0.177,0.088v0.178l0.354,0.355l0.354,0.354l0.354,0.354
				c0,0.119,0.058,0.238,0.177,0.355c0.117,0,0.179,0.059,0.179,0.178c0,0.117,0.059,0.176,0.178,0.176
				c0,0.238,0.058,0.354,0.177,0.354v0.18c0.116,0.121,0.178,0.236,0.178,0.354h0.177c0,0.238,0.027,0.385,0.088,0.443
				c0.062,0.061,0.09,0.146,0.09,0.266l30.281,69.947v-65.873c0-2.953,1.031-5.459,3.1-7.527
				C1042.883,1912.581,1045.393,1911.545,1048.346,1911.545z"/>
			<path fill="#FFFFFF" d="M1224.713,1920.043c2.479,2.363,4.896,5.697,7.262,10.006c2.357,4.311,3.541,10.064,3.541,17.266v66.936
				c0,7.203-1.184,12.959-3.541,17.268c-2.363,4.311-4.781,7.645-7.262,10.004c-6.26,5.666-13.637,8.502-22.135,8.502h-13.281
				h-9.738c-2.951,0-5.463-1.035-7.525-3.102c-2.066-2.062-3.1-4.574-3.1-7.523V1922.17c0-2.951,1.031-5.459,3.1-7.523
				c2.062-2.064,4.574-3.102,7.525-3.102h9.738h13.281C1211.079,1911.545,1218.456,1914.377,1224.713,1920.043z M1214.266,1947.313
				c0-3.305-0.441-5.898-1.328-7.791c-0.885-1.887-1.947-3.334-3.188-4.338c-1.238-1.002-2.541-1.648-3.896-1.945
				c-1.359-0.295-2.451-0.443-3.275-0.443h-12.395v95.979h12.395c0.824,0,1.916-0.146,3.275-0.441
				c1.354-0.295,2.656-0.945,3.896-1.951c1.238-1,2.303-2.447,3.188-4.336c0.887-1.887,1.328-4.482,1.328-7.793V1947.313z"/>
			<path fill="#FFFFFF" d="M1268.096,1911.545c3.066,0,5.604,1.035,7.613,3.1c2.006,2.066,3.012,4.574,3.012,7.525v117.227
				c0,2.953-1.006,5.461-3.012,7.525c-2.01,2.062-4.547,3.1-7.613,3.1c-2.951,0-5.463-1.035-7.525-3.1
				c-2.066-2.064-3.1-4.574-3.1-7.525V1922.17c0-2.951,1.031-5.459,3.1-7.525
				C1262.633,1912.581,1265.145,1911.545,1268.096,1911.545z"/>
			<path fill="#FFFFFF" d="M1362.655,2038.864c0.59,2.951,0.088,5.639-1.506,8.059c-1.594,2.418-3.867,3.922-6.818,4.516
				c-0.473,0.115-1.123,0.176-1.945,0.176c-2.48,0-4.691-0.795-6.641-2.389c-1.949-1.596-3.219-3.631-3.809-6.111l-3.721-18.061
				h-18.945l-3.721,18.061c-0.473,2.48-1.682,4.518-3.629,6.111s-4.162,2.389-6.641,2.389c-0.947,0-1.656-0.061-2.127-0.176
				c-2.951-0.594-5.223-2.098-6.816-4.516s-2.098-5.105-1.504-8.059l23.551-117.051v-0.176v-0.354c0-0.113,0.027-0.178,0.09-0.178
				c0.059,0,0.09-0.059,0.09-0.178v-0.176v-0.18c0.113-0.113,0.176-0.234,0.176-0.354c0-0.117,0.027-0.178,0.088-0.178
				s0.088-0.057,0.088-0.178v-0.18c0.355-0.938,0.887-1.77,1.596-2.477v-0.178c0.115,0,0.178-0.027,0.178-0.09
				c0-0.057,0.059-0.086,0.178-0.086v-0.178l0.176-0.176l0.18-0.178l0.178-0.18l0.176-0.176l0.178-0.178l0.355-0.178
				c0.707-0.707,1.531-1.24,2.479-1.592h0.178c0.115-0.119,0.234-0.178,0.354-0.178c0.59-0.236,1.121-0.383,1.596-0.443
				c0.471-0.059,1-0.146,1.594-0.264h0.178h0.354h0.355c0.588,0.117,1.119,0.207,1.592,0.264c0.471,0.061,1.002,0.207,1.594,0.443
				c0.117,0,0.236,0.059,0.355,0.178h0.178c0.941,0.352,1.771,0.885,2.479,1.592c0.115,0,0.234,0.062,0.354,0.178l0.176,0.178
				l0.18,0.176l0.178,0.18l0.178,0.178l0.176,0.176l0.18,0.178l0.178,0.176v0.178c0.707,0.709,1.238,1.537,1.594,2.479v0.18
				c0,0.117,0.027,0.176,0.088,0.176s0.09,0.061,0.09,0.18c0.234,0.707,0.354,1.238,0.354,1.592L1362.655,2038.864z
				 M1328.833,1977.774l-5.312,26.027h10.447L1328.833,1977.774z"/>
			<path fill="#FFFFFF" d="M1461.286,2039.393c0,2.953-1.035,5.461-3.1,7.527c-2.066,2.062-4.576,3.098-7.525,3.098
				c-2.951,0-5.463-1.033-7.525-3.098c-2.064-2.064-3.1-4.574-3.1-7.527v-72.957l-11.154,21.959
				c-0.947,2.602-2.656,4.486-5.137,5.666c-1.416,0.707-2.895,1.064-4.426,1.064h-0.178h-0.18h-0.178h-0.176
				c-1.537,0-3.012-0.357-4.43-1.064c-2.479-1.18-4.189-3.064-5.135-5.666l-11.154-21.959v72.957c0,2.953-1.035,5.461-3.102,7.527
				c-2.066,2.062-4.576,3.098-7.523,3.098c-2.951,0-5.463-1.033-7.525-3.098c-2.068-2.064-3.1-4.574-3.1-7.527v-117.225v-0.531
				v-0.533v-0.176v-0.178c0-0.117,0.025-0.18,0.088-0.18c0.059,0,0.09-0.057,0.09-0.176v-0.176v-0.355
				c0-0.115,0.027-0.205,0.088-0.266c0.059-0.059,0.088-0.146,0.088-0.268c0.117-0.707,0.355-1.355,0.709-1.945
				c0-0.117,0.029-0.178,0.088-0.178c0.061,0,0.09-0.059,0.09-0.18l0.178-0.176l0.18-0.178c0-0.115,0.057-0.236,0.176-0.354v-0.178
				l0.354-0.355c0.234-0.234,0.443-0.471,0.621-0.707c0.178-0.234,0.381-0.471,0.619-0.711l0.354-0.35h0.178
				c0-0.119,0.027-0.178,0.088-0.178c0.059,0,0.09-0.061,0.09-0.18h0.176c0.117-0.113,0.234-0.18,0.355-0.18
				c0-0.113,0.059-0.176,0.176-0.176l0.178-0.176l0.354-0.18c0.117-0.113,0.236-0.176,0.354-0.176l0.18-0.178
				c0.115,0,0.234-0.057,0.354-0.176c0.115,0,0.205-0.029,0.268-0.09c0.057-0.061,0.145-0.092,0.266-0.092
				c0.115,0,0.205-0.023,0.264-0.086c0.061-0.059,0.148-0.09,0.27-0.09c0.115,0,0.232-0.059,0.354-0.176h0.178h0.354l0.178-0.18
				h0.178h0.354h0.18c0.115-0.113,0.234-0.176,0.354-0.176h0.17h0.531h0.531h0.529h0.355h0.176c0.117,0,0.236,0.062,0.354,0.176
				h0.354h0.178h0.354c0.469,0.238,0.885,0.387,1.24,0.445c0.354,0.061,0.707,0.207,1.062,0.441h0.176
				c0,0.119,0.117,0.178,0.355,0.178c0,0.119,0.057,0.176,0.176,0.176l0.178,0.18c0.115,0,0.234,0.061,0.354,0.176l0.354,0.354
				h0.178c0.59,0.357,1.061,0.828,1.416,1.418l0.354,0.355l0.355,0.352c0,0.119,0.025,0.18,0.09,0.18
				c0.057,0,0.088,0.061,0.088,0.178l0.178,0.178l0.178,0.176c0,0.119,0.059,0.238,0.176,0.355c0,0.117,0.027,0.207,0.092,0.264
				c0.057,0.061,0.088,0.148,0.088,0.266l22.311,43.74l22.312-43.74c0-0.232,0.059-0.412,0.178-0.529
				c0.115-0.117,0.176-0.236,0.176-0.355c0.117,0,0.18-0.059,0.18-0.176l0.178-0.178c0-0.117,0.059-0.236,0.176-0.355l0.355-0.352
				l0.354-0.355c0.354-0.59,0.824-1.061,1.416-1.418l0.354-0.354h0.18c0.115-0.115,0.234-0.176,0.352-0.176l0.18-0.18
				c0.115,0,0.178-0.057,0.178-0.176c0.234,0,0.354-0.059,0.354-0.178h0.178c0.234-0.234,0.531-0.381,0.887-0.441
				c0.354-0.059,0.645-0.148,0.885-0.266c0.236,0,0.412-0.061,0.533-0.18h0.354h0.178h0.354c0-0.113,0.059-0.178,0.178-0.178h0.354
				h0.354h0.531h0.531h0.531c0.234,0,0.412,0.062,0.529,0.178h0.355h0.354l0.178,0.18h0.354h0.178l0.354,0.176
				c0.117,0,0.205,0.031,0.268,0.09c0.059,0.061,0.146,0.086,0.266,0.086c0.115,0,0.234,0.064,0.354,0.18h0.178
				c0.117,0.119,0.234,0.176,0.355,0.176v0.178c0.234,0,0.412,0.062,0.531,0.176c0.115,0.121,0.232,0.182,0.354,0.182l0.178,0.176
				l0.178,0.176c0.115,0,0.234,0.062,0.354,0.178l0.355,0.357c0.232,0,0.354,0.117,0.354,0.35c0.59,0.357,1.062,0.83,1.416,1.418
				l0.355,0.355v0.178c0.115,0.117,0.178,0.238,0.178,0.354c0.115,0,0.178,0.061,0.178,0.178l0.176,0.176
				c0,0.121,0.061,0.238,0.178,0.355c0.234,0.592,0.473,1.238,0.709,1.945c0,0.238,0.059,0.416,0.178,0.531v0.355v0.178
				c0,0.119,0.059,0.236,0.178,0.354v0.178v0.176v0.533v0.529v117.229h-0.01V2039.393z"/>
			<path fill="#FFFFFF" d="M1543.36,2031.694c2.062,2.064,3.1,4.574,3.1,7.523c0,2.951-1.035,5.461-3.1,7.525
				c-2.066,2.062-4.576,3.1-7.525,3.1h-43.385c-2.951,0-5.463-1.037-7.525-3.1c-2.064-2.064-3.1-4.574-3.1-7.525v-117.229
				c0-2.947,1.033-5.459,3.1-7.523c2.062-2.064,4.574-3.1,7.525-3.1h43.385c2.949,0,5.459,1.033,7.525,3.1
				c2.062,2.064,3.1,4.576,3.1,7.523c0,3.072-1.035,5.609-3.1,7.615c-2.066,2.008-4.576,3.012-7.525,3.012h-32.76v44.621h22.666
				c2.949,0,5.459,1.037,7.525,3.1c2.062,2.068,3.098,4.578,3.098,7.525c0,2.953-1.033,5.463-3.098,7.525
				c-2.066,2.068-4.576,3.1-7.525,3.1h-22.666v30.104h32.76C1538.784,2028.59,1541.293,2029.629,1543.36,2031.694z"/>
			<path fill="#FFFFFF" d="M1631.545,1914.733c2.062,2.008,3.1,4.545,3.1,7.611c0,2.955-1.035,5.463-3.1,7.525
				c-2.066,2.066-4.576,3.1-7.525,3.1h-16.469v106.248c0,2.951-1.035,5.461-3.1,7.525c-2.066,2.062-4.576,3.1-7.525,3.1
				c-2.953,0-5.463-1.037-7.525-3.1c-2.066-2.064-3.1-4.574-3.1-7.525v-106.25h-16.822c-2.951,0-5.463-1.029-7.525-3.1
				c-2.064-2.061-3.1-4.57-3.1-7.523c0-3.066,1.033-5.604,3.1-7.611c2.062-2.01,4.574-3.016,7.525-3.016h54.541
				C1626.969,1911.717,1629.477,1912.723,1631.545,1914.733z"/>
			<path fill="#FFFFFF" d="M1709.989,2031.694c2.064,2.064,3.1,4.574,3.1,7.523c0,2.951-1.035,5.461-3.1,7.525
				c-2.066,2.062-4.576,3.1-7.525,3.1h-43.385c-2.951,0-5.463-1.037-7.525-3.1c-2.064-2.064-3.1-4.574-3.1-7.525v-117.229
				c0-2.947,1.033-5.459,3.1-7.523c2.062-2.064,4.574-3.1,7.525-3.1h43.385c2.949,0,5.459,1.033,7.525,3.1
				c2.064,2.064,3.1,4.576,3.1,7.523c0,3.072-1.035,5.609-3.1,7.615c-2.066,2.008-4.576,3.012-7.525,3.012h-32.76v44.621h22.666
				c2.949,0,5.459,1.037,7.525,3.1c2.064,2.068,3.1,4.578,3.1,7.525c0,2.953-1.033,5.463-3.1,7.525
				c-2.066,2.068-4.576,3.1-7.525,3.1h-22.666v30.104h32.76C1705.413,2028.59,1707.922,2029.629,1709.989,2031.694z"/>
			<path fill="#FFFFFF" d="M1803.575,2034.967c1.299,2.717,1.387,5.43,0.266,8.145c-1.123,2.721-3.041,4.666-5.756,5.848
				c-1.416,0.588-2.834,0.885-4.25,0.885c-2.008,0-3.896-0.562-5.666-1.682c-1.77-1.121-3.129-2.688-4.072-4.693l-19.656-44.979
				h-10.623v40.729c0,2.951-1.035,5.461-3.102,7.525c-2.062,2.061-4.574,3.1-7.525,3.1c-2.949,0-5.461-1.037-7.523-3.1
				c-2.064-2.064-3.1-4.574-3.1-7.525v-116.873c0-2.949,1.033-5.459,3.1-7.523c2.062-2.064,4.574-3.102,7.523-3.102h25.68
				c4.484,0,8.793,1.271,12.926,3.809c4.131,2.541,7.73,6.17,10.805,10.891c5.311,8.385,7.969,17.947,7.969,28.689
				c0,5.193-0.684,10.213-2.037,15.053c-1.357,4.84-3.336,9.328-5.932,13.457c-1.184,1.77-2.424,3.365-3.721,4.781
				c-1.301,1.418-2.598,2.719-3.896,3.895L1803.575,2034.967z M1768.868,1977.239c0.588,0,1.385-0.383,2.391-1.148
				c1.002-0.77,2.152-2.096,3.453-3.984c1.531-2.359,2.684-5.018,3.453-7.971c0.766-2.947,1.15-5.959,1.15-9.029
				c0-3.066-0.385-6.109-1.15-9.119c-0.77-3.01-1.922-5.693-3.453-8.059c-1.301-1.77-2.451-3.037-3.453-3.807
				c-1.006-0.764-1.803-1.152-2.391-1.152h-15.053v44.271h15.053V1977.239z"/>
		</g>
	</g>
</g>
</svg>
