<?xml version="1.0" encoding="utf-8"?>
<!-- Generator: Adobe Illustrator 16.0.0, SVG Export Plug-In . SVG Version: 6.00 Build 0)  -->
<!DOCTYPE svg PUBLIC "-//W3C//DTD SVG 1.1//EN" "http://www.w3.org/Graphics/SVG/1.1/DTD/svg11.dtd">
<svg version="1.1" id="Layer_1" xmlns="http://www.w3.org/2000/svg" xmlns:xlink="http://www.w3.org/1999/xlink" x="0px" y="0px"
	 width="202px" height="262px" viewBox="0 0 202 262" enable-background="new 0 0 202 262" xml:space="preserve">
<g id="Layer_4">
	<g>
		<path fill="#8BD2E4" d="M50.056,250.158c-0.017,0.553-0.109,1.188-0.271,1.91c-0.172,0.721-0.438,1.49-0.807,2.311
			c-0.37,0.822-0.887,1.584-1.558,2.287c-0.57,0.637-1.416,1.256-2.539,1.859c-1.121,0.604-2.568,0.902-4.347,0.902
			c-1.774,0-3.206-0.301-4.3-0.902c-1.088-0.604-1.915-1.225-2.485-1.859c-0.668-0.734-1.18-1.521-1.53-2.361
			c-0.354-0.836-0.605-1.635-0.757-2.387c-0.147-0.754-0.226-1.424-0.226-2.01s0-0.998,0-1.232v-25.932
			c0-0.838,0.293-1.549,0.881-2.137c0.585-0.586,1.295-0.879,2.134-0.879c0.84,0,1.549,0.293,2.135,0.879
			c0.59,0.588,0.881,1.299,0.881,2.137v26.184v0.102c0,0.168,0,0.402,0,0.703s0.033,0.621,0.1,0.955
			c0.068,0.336,0.169,0.678,0.303,1.029c0.133,0.352,0.317,0.645,0.556,0.881c0.098,0.1,0.316,0.26,0.65,0.477
			c0.334,0.221,0.887,0.328,1.659,0.328c0.87,0,1.479-0.107,1.838-0.328c0.347-0.217,0.574-0.377,0.675-0.477
			c0.47-0.504,0.754-1.107,0.852-1.812c0.104-0.703,0.153-1.205,0.153-1.506v-0.15v-0.051v-26.283c0-0.838,0.293-1.549,0.878-2.137
			c0.588-0.586,1.298-0.879,2.137-0.879c0.837,0,1.546,0.293,2.134,0.879c0.588,0.588,0.885,1.299,0.885,2.137v26.232
			C50.086,249.229,50.077,249.604,50.056,250.158z"/>
		<path fill="#8BD2E4" d="M75.916,254.656c0.367,0.771,0.391,1.541,0.07,2.311c-0.315,0.771-0.858,1.324-1.632,1.66
			c-0.398,0.166-0.804,0.252-1.206,0.252c-0.566,0-1.102-0.16-1.605-0.479c-0.499-0.318-0.891-0.764-1.155-1.332l-5.577-12.768
			h-3.018v11.561c0,0.838-0.292,1.551-0.881,2.137c-0.585,0.586-1.295,0.881-2.134,0.881c-0.837,0-1.548-0.295-2.134-0.881
			s-0.881-1.299-0.881-2.137v-33.168c0-0.838,0.295-1.549,0.881-2.135c0.586-0.588,1.296-0.881,2.134-0.881h7.289
			c1.271,0,2.498,0.357,3.667,1.08c1.174,0.723,2.196,1.752,3.068,3.092c1.506,2.379,2.261,5.094,2.261,8.141
			c0,1.477-0.194,2.898-0.579,4.271c-0.388,1.373-0.949,2.646-1.682,3.818c-0.337,0.502-0.689,0.955-1.059,1.357
			c-0.365,0.4-0.735,0.77-1.107,1.104L75.916,254.656z M66.064,238.273c0.166,0,0.39-0.109,0.676-0.328
			c0.288-0.217,0.613-0.594,0.982-1.129c0.436-0.672,0.764-1.424,0.979-2.264c0.221-0.836,0.328-1.689,0.328-2.562
			c0-0.871-0.107-1.734-0.328-2.588c-0.215-0.854-0.543-1.617-0.979-2.289c-0.37-0.502-0.694-0.859-0.982-1.078
			c-0.286-0.219-0.51-0.326-0.676-0.326h-4.273v12.562h4.273V238.273z"/>
		<path fill="#8BD2E4" d="M98.08,255.762c0.162,0.838,0.023,1.6-0.433,2.285c-0.448,0.688-1.099,1.113-1.933,1.281
			c-0.137,0.033-0.319,0.053-0.555,0.053c-0.698,0-1.332-0.229-1.889-0.68c-0.546-0.453-0.91-1.029-1.074-1.734l-1.06-5.125h-5.376
			l-1.055,5.125c-0.139,0.705-0.479,1.281-1.032,1.734c-0.55,0.451-1.181,0.68-1.883,0.68c-0.267,0-0.468-0.02-0.605-0.053
			c-0.834-0.168-1.481-0.596-1.933-1.281c-0.452-0.686-0.592-1.447-0.43-2.285l6.688-33.219v-0.053v-0.1
			c0-0.033,0.006-0.051,0.022-0.051c0.016,0,0.025-0.018,0.025-0.053v-0.051v-0.047c0.029-0.035,0.051-0.068,0.051-0.104
			c0-0.031,0.006-0.051,0.023-0.051c0.016,0,0.025-0.018,0.025-0.051v-0.049c0.099-0.271,0.25-0.504,0.449-0.705v-0.051
			c0.034,0,0.049-0.008,0.049-0.023s0.02-0.023,0.052-0.023v-0.053l0.05-0.051l0.05-0.049l0.054-0.051l0.052-0.051l0.05-0.053
			l0.102-0.051c0.196-0.199,0.433-0.35,0.699-0.451h0.051c0.032-0.031,0.071-0.051,0.103-0.051c0.171-0.064,0.317-0.105,0.45-0.127
			c0.135-0.016,0.287-0.039,0.455-0.074h0.052h0.098h0.104c0.166,0.035,0.315,0.061,0.449,0.074
			c0.133,0.021,0.286,0.062,0.451,0.127c0.035,0,0.068,0.02,0.104,0.051h0.048c0.27,0.104,0.502,0.252,0.706,0.451
			c0.03,0,0.063,0.02,0.101,0.051l0.047,0.053l0.051,0.051l0.055,0.051l0.051,0.049l0.047,0.051l0.053,0.053l0.052,0.049v0.051
			c0.2,0.201,0.349,0.438,0.45,0.705v0.049c0,0.033,0.008,0.051,0.023,0.051c0.018,0,0.027,0.02,0.027,0.051
			c0.062,0.199,0.101,0.354,0.101,0.451L98.08,255.762z M88.476,238.424l-1.508,7.391h2.968L88.476,238.424z"/>
		<path fill="#8BD2E4" d="M119.184,219.631c0.839,0,1.552,0.293,2.136,0.879c0.59,0.584,0.881,1.299,0.881,2.135v33.219v0.201v0.15
			v0.051v0.102l-0.051,0.049v0.051v0.104v0.049c-0.035,0.033-0.05,0.068-0.05,0.102v0.051c0,0.033-0.009,0.051-0.026,0.051
			c-0.017,0-0.022,0.018-0.022,0.051s-0.008,0.059-0.026,0.074c-0.018,0.02-0.021,0.043-0.021,0.076s-0.01,0.059-0.026,0.074
			c-0.019,0.018-0.026,0.041-0.026,0.076c0,0.031-0.006,0.049-0.022,0.049c-0.015,0-0.026,0.02-0.026,0.053v0.049
			c-0.031,0-0.05,0.02-0.05,0.053l-0.048,0.049c0,0.033-0.02,0.068-0.052,0.102l-0.054,0.051v0.051c-0.031,0-0.047,0.02-0.047,0.051
			s-0.018,0.053-0.054,0.053c0,0.031-0.005,0.049-0.022,0.049c-0.019,0-0.023,0.018-0.023,0.051h-0.046
			c0,0.033-0.021,0.066-0.058,0.1l-0.099,0.104l-0.103,0.1l-0.101,0.102h-0.05l-0.102,0.104c-0.034,0.031-0.07,0.049-0.102,0.049
			c0,0.033-0.021,0.051-0.05,0.051l-0.05,0.051c-0.036,0-0.051,0.008-0.051,0.023c0,0.018-0.019,0.025-0.055,0.025h-0.047
			l-0.104,0.102c-0.133,0.066-0.248,0.115-0.349,0.15c-0.101,0.031-0.233,0.066-0.401,0.102c-0.137,0.031-0.338,0.051-0.605,0.051
			c-0.197,0-0.35-0.02-0.449-0.051h-0.101h-0.054c-0.029,0-0.051-0.018-0.051-0.051h-0.197v-0.051h-0.104
			c-0.133-0.066-0.216-0.102-0.249-0.102c-0.034,0-0.053-0.02-0.053-0.051h-0.048c-0.035,0-0.055-0.02-0.055-0.049
			c-0.031,0-0.063-0.02-0.101-0.053c-0.033,0-0.047-0.016-0.047-0.051h-0.053c-0.032,0-0.048-0.008-0.048-0.023
			c0-0.018-0.021-0.025-0.054-0.025c-0.37-0.27-0.669-0.586-0.901-0.953v-0.053c-0.036,0-0.053-0.016-0.053-0.049l-0.05-0.053
			v-0.049c-0.032-0.033-0.05-0.068-0.05-0.102c0-0.035-0.02-0.066-0.047-0.102l-8.598-19.852v18.693
			c0,0.838-0.291,1.551-0.877,2.137c-0.588,0.586-1.3,0.879-2.137,0.879c-0.839,0-1.553-0.293-2.14-0.879
			c-0.583-0.586-0.875-1.299-0.875-2.137v-33.219V222.5v-0.15v-0.051v-0.1l0.047-0.051v-0.053v-0.1v-0.049
			c0.036-0.035,0.051-0.068,0.051-0.104v-0.051c0-0.033,0.013-0.049,0.025-0.049c0.016,0,0.022-0.018,0.022-0.051
			s0.01-0.061,0.027-0.076c0.015-0.018,0.027-0.041,0.027-0.076c0-0.031,0.006-0.057,0.021-0.074
			c0.017-0.016,0.026-0.041,0.026-0.072c0-0.035,0.01-0.055,0.022-0.055c0.02,0,0.024-0.014,0.024-0.049v-0.051l0.101-0.102
			c0-0.031,0.009-0.051,0.027-0.051s0.024-0.018,0.024-0.051l0.049-0.049v-0.053c0.031-0.031,0.053-0.064,0.053-0.102h0.048
			c0-0.031,0.009-0.051,0.027-0.051c0.018,0,0.022-0.016,0.022-0.049h0.055c0-0.035,0.015-0.068,0.05-0.102l0.098-0.102v-0.051
			c0.036,0,0.068-0.018,0.104-0.051v-0.051c0.027,0,0.066-0.018,0.097-0.051h0.054l0.103-0.1l0.097-0.104h0.05
			c0-0.033,0.02-0.051,0.05-0.051c0.035,0,0.051-0.008,0.051-0.023c0-0.02,0.019-0.025,0.054-0.025h0.047l0.101-0.102
			c0.239-0.133,0.472-0.217,0.707-0.25h0.047c0.168-0.031,0.42-0.051,0.754-0.051h0.149h0.054l0.051,0.051h0.101h0.047h0.104
			c0,0.033,0.014,0.051,0.047,0.051h0.104h0.051c0,0.033,0.033,0.051,0.099,0.051c0.033,0.033,0.083,0.049,0.149,0.049
			c0.035,0.035,0.068,0.053,0.103,0.053h0.053c0,0.031,0.033,0.049,0.103,0.049v0.053c0.065,0,0.101,0.018,0.101,0.049h0.05
			c0.03,0,0.051,0.008,0.051,0.025s0.018,0.023,0.051,0.023l0.05,0.051l0.047,0.051l0.054,0.053h0.051
			c0.035,0.031,0.064,0.049,0.099,0.049v0.051c0.036,0,0.053,0.008,0.053,0.023c0,0.02,0.015,0.025,0.05,0.025v0.051
			c0.029,0,0.047,0.01,0.047,0.023c0,0.018,0.02,0.025,0.056,0.025v0.051l0.101,0.102l0.103,0.102l0.097,0.1
			c0,0.035,0.02,0.068,0.05,0.102c0.036,0,0.054,0.018,0.054,0.053c0,0.031,0.017,0.049,0.052,0.049c0,0.068,0.018,0.102,0.05,0.102
			v0.051c0.036,0.033,0.05,0.066,0.05,0.102h0.05c0,0.066,0.01,0.107,0.027,0.125c0.016,0.018,0.025,0.043,0.025,0.074l8.593,19.852
			v-18.693c0-0.836,0.291-1.551,0.876-2.135C117.637,219.924,118.347,219.631,119.184,219.631z"/>
		<path fill="#8BD2E4" d="M146.646,250.158c-0.015,0.553-0.105,1.188-0.271,1.91c-0.172,0.721-0.438,1.49-0.809,2.311
			c-0.369,0.822-0.887,1.584-1.558,2.287c-0.571,0.637-1.416,1.256-2.54,1.859c-1.119,0.604-2.571,0.902-4.344,0.902
			c-1.779,0-3.211-0.301-4.301-0.902c-1.088-0.604-1.918-1.225-2.485-1.859c-0.671-0.734-1.181-1.521-1.534-2.361
			c-0.352-0.836-0.604-1.635-0.751-2.387c-0.149-0.754-0.229-1.424-0.229-2.01s0-0.998,0-1.232v-25.932
			c0-0.838,0.291-1.549,0.882-2.137c0.581-0.586,1.295-0.879,2.135-0.879c0.839,0,1.548,0.293,2.137,0.879
			c0.589,0.588,0.878,1.299,0.878,2.137v26.184v0.102c0,0.168,0,0.402,0,0.703s0.032,0.621,0.102,0.955
			c0.066,0.336,0.169,0.678,0.301,1.029c0.134,0.354,0.318,0.645,0.556,0.881c0.102,0.1,0.317,0.26,0.651,0.477
			c0.334,0.221,0.886,0.328,1.661,0.328c0.868,0,1.478-0.107,1.833-0.328c0.352-0.217,0.578-0.377,0.68-0.477
			c0.467-0.504,0.753-1.107,0.85-1.812c0.104-0.703,0.151-1.205,0.151-1.506v-0.15v-0.051v-26.283c0-0.838,0.296-1.549,0.881-2.137
			c0.589-0.586,1.298-0.879,2.138-0.879c0.838,0,1.545,0.293,2.139,0.879c0.585,0.588,0.881,1.299,0.881,2.137v26.232
			C146.677,249.229,146.668,249.604,146.646,250.158z"/>
		<path fill="#8BD2E4" d="M168.933,240.484c1.979,2.479,2.971,5.375,2.971,8.691c0,1.041-0.112,1.971-0.332,2.791
			c-0.216,0.82-0.48,1.551-0.804,2.186c-0.317,0.637-0.677,1.189-1.079,1.66c-0.402,0.469-0.804,0.871-1.208,1.205
			c-1.87,1.508-4.153,2.262-6.834,2.262c-1.303,0-2.521-0.186-3.668-0.553c-1.138-0.369-2.146-0.939-3.012-1.709
			c-0.372-0.303-0.747-0.689-1.131-1.156c-0.388-0.467-0.739-1.021-1.06-1.658c-0.314-0.637-0.576-1.373-0.775-2.211
			c-0.198-0.838-0.301-1.791-0.301-2.863c0-0.838,0.289-1.551,0.879-2.137c0.586-0.586,1.298-0.881,2.141-0.881
			c0.863,0,1.583,0.295,2.158,0.881c0.566,0.586,0.854,1.299,0.854,2.137c0,0.469,0.039,0.945,0.124,1.434
			c0.08,0.484,0.261,0.928,0.526,1.332c0.271,0.398,0.662,0.727,1.186,0.979c0.518,0.252,1.209,0.377,2.08,0.377
			c0.605,0,1.164-0.074,1.687-0.225c0.52-0.152,0.962-0.377,1.329-0.68c0.808-0.703,1.213-1.76,1.213-3.168
			c0-1.035-0.141-1.939-0.405-2.715c-0.271-0.77-0.662-1.479-1.183-2.135c-0.519-0.652-1.155-1.271-1.906-1.859
			c-0.757-0.584-1.604-1.213-2.538-1.885c-0.872-0.602-1.735-1.229-2.592-1.883c-0.853-0.654-1.649-1.398-2.386-2.236
			c-0.873-1.07-1.53-2.188-1.982-3.344c-0.452-1.154-0.682-2.42-0.682-3.795c0-0.201,0.011-0.568,0.024-1.104
			c0.017-0.535,0.103-1.154,0.254-1.859c0.15-0.701,0.402-1.439,0.755-2.209c0.353-0.771,0.859-1.51,1.533-2.211
			c0.564-0.639,1.421-1.258,2.562-1.861c1.138-0.604,2.608-0.902,4.421-0.902c1.841,0,3.311,0.311,4.397,0.93
			c1.088,0.621,1.915,1.248,2.484,1.885c0.637,0.771,1.115,1.584,1.432,2.438c0.316,0.855,0.532,1.645,0.629,2.361
			c0.104,0.723,0.137,1.35,0.104,1.885c-0.036,0.539-0.071,0.854-0.104,0.955c-0.097,0.604-0.298,1.105-0.603,1.508
			c-0.271,0.369-0.627,0.68-1.079,0.932c-0.453,0.252-1.064,0.293-1.833,0.125c-0.735-0.133-1.283-0.377-1.638-0.729
			c-0.35-0.352-0.585-0.721-0.7-1.104c-0.121-0.385-0.168-0.729-0.154-1.031c0.02-0.301,0.027-0.484,0.027-0.553
			c0.032-0.135,0.05-0.316,0.05-0.553c0-0.234-0.023-0.486-0.077-0.756c-0.047-0.268-0.124-0.535-0.225-0.805
			c-0.101-0.268-0.233-0.504-0.405-0.701c-0.402-0.504-1.17-0.754-2.309-0.754c-0.908,0-1.533,0.117-1.887,0.352
			s-0.574,0.402-0.677,0.502c-0.239,0.234-0.411,0.504-0.528,0.805c-0.117,0.305-0.207,0.604-0.277,0.904
			c-0.068,0.303-0.104,0.562-0.124,0.779c-0.019,0.217-0.022,0.377-0.022,0.479v0.1v0.102c0,0.672,0.114,1.281,0.35,1.836
			c0.234,0.553,0.562,1.072,0.982,1.559c0.416,0.484,0.943,0.973,1.578,1.459c0.639,0.484,1.362,1.012,2.164,1.578
			c0.938,0.674,1.9,1.393,2.889,2.162C167.183,238.592,168.099,239.479,168.933,240.484z"/>
	</g>
	<g>
		<path fill="#5586A0" d="M199.841,101.15c0,54.27-44,98.268-98.27,98.268c-54.277,0-98.272-43.998-98.272-98.268
			c0-54.273,43.994-98.269,98.272-98.269C155.841,2.883,199.841,46.876,199.841,101.15z"/>
		<path fill="#6EA9B7" d="M101.573,201.363c-47.475,0-86.081-38.615-86.081-86.077c0-47.467,38.606-86.084,86.081-86.084
			c47.461,0,86.078,38.617,86.078,86.084C187.651,162.748,149.034,201.363,101.573,201.363z"/>
		<path fill="#8BD2E4" d="M101.573,200.26c-37.39,0-67.803-30.41-67.803-67.794c0-37.385,30.413-67.796,67.803-67.796
			c37.381,0,67.797,30.411,67.797,67.796C169.37,169.85,138.954,200.26,101.573,200.26z"/>
	</g>
</g>
</svg>
