<?xml version="1.0" encoding="utf-8"?>
<!-- Generator: Adobe Illustrator 16.0.0, SVG Export Plug-In . SVG Version: 6.00 Build 0)  -->
<!DOCTYPE svg PUBLIC "-//W3C//DTD SVG 1.1//EN" "http://www.w3.org/Graphics/SVG/1.1/DTD/svg11.dtd">
<svg version="1.1" id="Layer_1" xmlns="http://www.w3.org/2000/svg" xmlns:xlink="http://www.w3.org/1999/xlink" x="0px" y="0px"
	 width="202px" height="262px" viewBox="34.615 41.094 202 262" enable-background="new 34.615 41.094 202 262"
	 xml:space="preserve">
<g id="Layer_1_1_">
</g>
<g id="Layer_5">
</g>
<g id="Layer_2">
</g>
<g id="neptune">
</g>
<g id="uranus">
</g>
<g id="saturn">
</g>
<g id="jupiter">
</g>
<g id="Layer_14">
</g>
<g id="mars">
</g>
<g id="venus">
</g>
<g id="mercury">
</g>
<g id="earth">
</g>
<g id="Layer_6">
</g>
<g id="Layer_4">
	<g>
		<path fill="#8BD2E4" d="M83.963,292.506c-0.017,0.553-0.109,1.188-0.271,1.91c-0.172,0.721-0.438,1.49-0.807,2.311
			c-0.37,0.822-0.887,1.584-1.558,2.287c-0.57,0.637-1.416,1.256-2.539,1.859c-1.121,0.604-2.568,0.903-4.347,0.903
			c-1.774,0-3.206-0.301-4.3-0.903c-1.088-0.604-1.915-1.224-2.485-1.859c-0.668-0.734-1.18-1.522-1.53-2.361
			c-0.354-0.837-0.605-1.635-0.757-2.387c-0.147-0.754-0.226-1.424-0.226-2.01s0-0.998,0-1.233v-25.931
			c0-0.838,0.293-1.548,0.881-2.137c0.585-0.586,1.295-0.879,2.134-0.879c0.84,0,1.549,0.293,2.135,0.879
			c0.59,0.589,0.881,1.299,0.881,2.137v26.183v0.102c0,0.169,0,0.402,0,0.703c0,0.302,0.033,0.621,0.1,0.955
			c0.068,0.336,0.169,0.678,0.303,1.029c0.133,0.353,0.317,0.646,0.556,0.882c0.098,0.099,0.316,0.259,0.65,0.476
			c0.334,0.221,0.887,0.328,1.659,0.328c0.87,0,1.479-0.107,1.838-0.328c0.347-0.217,0.574-0.377,0.675-0.476
			c0.47-0.504,0.754-1.108,0.852-1.812c0.104-0.704,0.153-1.206,0.153-1.507v-0.151v-0.05v-26.283c0-0.838,0.293-1.549,0.878-2.137
			c0.588-0.585,1.298-0.879,2.137-0.879c0.837,0,1.546,0.294,2.134,0.879c0.588,0.588,0.885,1.299,0.885,2.137v26.232
			C83.993,291.576,83.984,291.951,83.963,292.506z"/>
		<path fill="#8BD2E4" d="M109.822,297.004c0.367,0.771,0.391,1.541,0.071,2.311c-0.316,0.771-0.859,1.324-1.632,1.659
			c-0.399,0.167-0.804,0.252-1.206,0.252c-0.567,0-1.102-0.16-1.606-0.478c-0.499-0.318-0.891-0.763-1.155-1.332l-5.577-12.767
			h-3.018v11.561c0,0.838-0.292,1.55-0.881,2.136c-0.585,0.586-1.295,0.88-2.134,0.88c-0.837,0-1.548-0.294-2.134-0.88
			s-0.881-1.298-0.881-2.136v-33.169c0-0.837,0.295-1.549,0.881-2.135c0.586-0.587,1.296-0.88,2.134-0.88h7.289
			c1.271,0,2.498,0.358,3.668,1.08c1.173,0.722,2.196,1.751,3.068,3.091c1.506,2.38,2.261,5.094,2.261,8.142
			c0,1.475-0.195,2.897-0.58,4.271c-0.387,1.373-0.948,2.646-1.681,3.818c-0.337,0.503-0.689,0.955-1.059,1.357
			c-0.365,0.4-0.735,0.771-1.107,1.104L109.822,297.004z M99.971,280.621c0.166,0,0.39-0.109,0.676-0.327
			c0.288-0.218,0.613-0.595,0.982-1.13c0.435-0.671,0.763-1.424,0.979-2.264c0.22-0.836,0.328-1.689,0.328-2.562
			c0-0.87-0.108-1.735-0.328-2.588c-0.216-0.854-0.544-1.616-0.979-2.288c-0.37-0.502-0.694-0.861-0.982-1.079
			c-0.286-0.218-0.51-0.326-0.676-0.326h-4.274v12.563H99.971z"/>
		<path fill="#8BD2E4" d="M131.986,298.109c0.162,0.839,0.024,1.601-0.432,2.286c-0.449,0.688-1.099,1.114-1.933,1.281
			c-0.137,0.033-0.319,0.052-0.554,0.052c-0.699,0-1.333-0.228-1.889-0.678c-0.546-0.454-0.91-1.031-1.075-1.736l-1.059-5.125
			h-5.376l-1.055,5.125c-0.138,0.705-0.479,1.282-1.032,1.736c-0.55,0.45-1.18,0.678-1.883,0.678c-0.267,0-0.468-0.019-0.605-0.052
			c-0.834-0.167-1.481-0.595-1.933-1.281c-0.452-0.686-0.592-1.447-0.43-2.286l6.689-33.219v-0.051v-0.1
			c0-0.033,0.006-0.052,0.022-0.052c0.016,0,0.026-0.016,0.026-0.051v-0.051v-0.048c0.029-0.034,0.05-0.068,0.05-0.104
			c0-0.03,0.006-0.05,0.024-0.05c0.015,0,0.025-0.017,0.025-0.05v-0.049c0.099-0.271,0.251-0.504,0.449-0.705v-0.051
			c0.035,0,0.05-0.009,0.05-0.024s0.019-0.024,0.051-0.024v-0.052l0.05-0.05l0.05-0.049l0.053-0.052l0.052-0.05l0.05-0.052
			l0.101-0.051c0.197-0.199,0.433-0.35,0.7-0.451h0.05c0.033-0.033,0.072-0.051,0.103-0.051c0.171-0.066,0.318-0.107,0.45-0.127
			c0.135-0.017,0.288-0.039,0.456-0.074h0.051h0.098h0.104c0.166,0.035,0.316,0.059,0.449,0.074c0.133,0.02,0.287,0.061,0.452,0.127
			c0.035,0,0.068,0.018,0.104,0.051h0.048c0.269,0.103,0.502,0.252,0.706,0.451c0.031,0,0.064,0.019,0.101,0.051l0.047,0.052
			l0.051,0.05l0.054,0.052l0.051,0.049l0.047,0.05l0.053,0.052l0.051,0.05v0.051c0.2,0.201,0.349,0.436,0.451,0.705v0.049
			c0,0.033,0.007,0.05,0.023,0.05c0.018,0,0.027,0.02,0.027,0.05c0.063,0.201,0.101,0.354,0.101,0.453L131.986,298.109z
			 M122.383,280.771l-1.508,7.391h2.968L122.383,280.771z"/>
		<path fill="#8BD2E4" d="M153.089,261.978c0.839,0,1.552,0.294,2.136,0.879c0.589,0.585,0.881,1.3,0.881,2.136v33.219v0.201v0.149
			v0.051v0.102l-0.051,0.049v0.051v0.103v0.05c-0.035,0.032-0.05,0.067-0.05,0.101v0.05c0,0.034-0.009,0.051-0.026,0.051
			c-0.017,0-0.023,0.018-0.023,0.051s-0.008,0.059-0.026,0.075c-0.018,0.019-0.022,0.042-0.022,0.075s-0.01,0.06-0.026,0.075
			c-0.019,0.017-0.026,0.041-0.026,0.075c0,0.032-0.006,0.05-0.023,0.05c-0.015,0-0.026,0.019-0.026,0.052v0.05
			c-0.032,0-0.05,0.019-0.05,0.052l-0.048,0.049c0,0.034-0.019,0.068-0.052,0.102l-0.053,0.05v0.051
			c-0.032,0-0.048,0.019-0.048,0.051c0,0.031-0.017,0.052-0.053,0.052c0,0.032-0.005,0.049-0.023,0.049
			c-0.018,0-0.023,0.018-0.023,0.051h-0.046c0,0.033-0.021,0.067-0.058,0.1l-0.098,0.103l-0.102,0.1l-0.101,0.102h-0.05
			l-0.102,0.103c-0.034,0.031-0.07,0.049-0.101,0.049c0,0.032-0.021,0.051-0.05,0.051l-0.05,0.05c-0.036,0-0.051,0.008-0.051,0.024
			c0,0.018-0.018,0.025-0.054,0.025h-0.047l-0.104,0.101c-0.132,0.067-0.248,0.116-0.348,0.151
			c-0.101,0.031-0.233,0.066-0.402,0.101c-0.137,0.032-0.337,0.051-0.605,0.051c-0.198,0-0.35-0.019-0.449-0.051h-0.101h-0.054
			c-0.029,0-0.05-0.017-0.05-0.051h-0.198v-0.05h-0.103c-0.133-0.067-0.216-0.102-0.249-0.102c-0.035,0-0.053-0.019-0.053-0.051
			h-0.048c-0.035,0-0.054-0.018-0.054-0.049c-0.032,0-0.064-0.018-0.101-0.052c-0.033,0-0.047-0.016-0.047-0.051h-0.053
			c-0.032,0-0.048-0.008-0.048-0.023c0-0.018-0.021-0.025-0.053-0.025c-0.37-0.269-0.669-0.587-0.901-0.954v-0.052
			c-0.037,0-0.053-0.016-0.053-0.049l-0.05-0.052v-0.05c-0.032-0.033-0.05-0.068-0.05-0.102s-0.019-0.065-0.047-0.101l-8.597-19.851
			v18.693c0,0.838-0.292,1.55-0.877,2.136c-0.588,0.586-1.3,0.88-2.137,0.88c-0.839,0-1.553-0.294-2.14-0.88
			c-0.583-0.586-0.875-1.298-0.875-2.136v-33.219v-0.201v-0.15v-0.051v-0.099l0.047-0.051v-0.053v-0.1v-0.049
			c0.036-0.035,0.051-0.068,0.051-0.104v-0.049c0-0.034,0.012-0.05,0.025-0.05c0.016,0,0.023-0.017,0.023-0.051
			c0-0.033,0.009-0.06,0.027-0.076c0.015-0.017,0.027-0.041,0.027-0.075c0-0.033,0.006-0.058,0.021-0.076
			c0.016-0.015,0.026-0.041,0.026-0.072c0-0.034,0.01-0.054,0.023-0.054c0.019,0,0.024-0.014,0.024-0.049v-0.051l0.101-0.101
			c0-0.032,0.009-0.052,0.027-0.052c0.018,0,0.024-0.017,0.024-0.05l0.049-0.049v-0.052c0.031-0.032,0.053-0.065,0.053-0.102h0.048
			c0-0.032,0.009-0.051,0.027-0.051c0.018,0,0.023-0.016,0.023-0.049h0.054c0-0.034,0.015-0.067,0.05-0.101l0.098-0.102v-0.051
			c0.036,0,0.068-0.018,0.104-0.05v-0.051c0.028,0,0.067-0.018,0.097-0.051h0.054l0.102-0.1l0.097-0.103h0.05
			c0-0.033,0.019-0.051,0.05-0.051c0.035,0,0.051-0.007,0.051-0.023c0-0.019,0.018-0.025,0.053-0.025h0.047l0.101-0.102
			c0.239-0.133,0.471-0.217,0.706-0.25h0.047c0.168-0.032,0.42-0.05,0.754-0.05h0.15h0.053l0.051,0.05h0.101h0.047h0.104
			c0,0.033,0.014,0.05,0.047,0.05h0.104h0.051c0,0.033,0.032,0.051,0.098,0.051c0.033,0.033,0.083,0.05,0.15,0.05
			c0.035,0.034,0.068,0.052,0.102,0.052h0.053c0,0.032,0.033,0.049,0.102,0.049v0.052c0.066,0,0.101,0.018,0.101,0.05h0.05
			c0.03,0,0.05,0.008,0.05,0.025s0.018,0.023,0.051,0.023l0.05,0.051l0.047,0.051l0.054,0.052h0.05
			c0.036,0.032,0.065,0.049,0.099,0.049v0.051c0.036,0,0.053,0.008,0.053,0.024c0,0.019,0.015,0.025,0.05,0.025v0.051
			c0.029,0,0.047,0.009,0.047,0.023c0,0.018,0.019,0.025,0.055,0.025v0.051l0.101,0.102l0.102,0.101l0.097,0.1
			c0,0.035,0.019,0.068,0.05,0.102c0.036,0,0.054,0.018,0.054,0.052c0,0.032,0.016,0.049,0.051,0.049
			c0,0.068,0.018,0.102,0.05,0.102v0.05c0.036,0.034,0.05,0.067,0.05,0.102h0.05c0,0.067,0.009,0.108,0.027,0.125
			c0.015,0.018,0.026,0.043,0.026,0.075l8.592,19.851v-18.693c0-0.836,0.291-1.551,0.876-2.136
			C151.542,262.271,152.252,261.978,153.089,261.978z"/>
		<path fill="#8BD2E4" d="M180.552,292.506c-0.015,0.553-0.106,1.188-0.271,1.91c-0.172,0.721-0.438,1.49-0.808,2.311
			c-0.37,0.822-0.887,1.584-1.558,2.287c-0.571,0.637-1.416,1.256-2.54,1.859c-1.119,0.604-2.571,0.903-4.344,0.903
			c-1.779,0-3.211-0.301-4.301-0.903c-1.088-0.604-1.918-1.224-2.485-1.859c-0.671-0.734-1.181-1.522-1.534-2.361
			c-0.351-0.837-0.604-1.635-0.751-2.387c-0.15-0.754-0.229-1.424-0.229-2.01s0-0.998,0-1.233v-25.931
			c0-0.838,0.29-1.548,0.881-2.137c0.582-0.586,1.295-0.879,2.135-0.879c0.839,0,1.548,0.293,2.137,0.879
			c0.588,0.589,0.878,1.299,0.878,2.137v26.183v0.102c0,0.169,0,0.402,0,0.703c0,0.302,0.032,0.621,0.101,0.955
			c0.067,0.336,0.169,0.678,0.301,1.029c0.134,0.354,0.319,0.646,0.556,0.882c0.101,0.099,0.317,0.259,0.651,0.476
			c0.334,0.221,0.886,0.328,1.661,0.328c0.868,0,1.478-0.107,1.833-0.328c0.352-0.217,0.579-0.377,0.68-0.476
			c0.467-0.504,0.753-1.108,0.85-1.812c0.104-0.704,0.151-1.206,0.151-1.507v-0.151v-0.05v-26.283c0-0.838,0.296-1.549,0.881-2.137
			c0.589-0.585,1.298-0.879,2.138-0.879c0.838,0,1.545,0.294,2.138,0.879c0.585,0.588,0.881,1.299,0.881,2.137v26.232
			C180.582,291.576,180.573,291.951,180.552,292.506z"/>
		<path fill="#8BD2E4" d="M202.838,282.832c1.979,2.479,2.97,5.376,2.97,8.692c0,1.04-0.112,1.97-0.331,2.79
			c-0.216,0.821-0.481,1.551-0.804,2.186c-0.317,0.638-0.677,1.19-1.079,1.66c-0.402,0.469-0.804,0.871-1.208,1.205
			c-1.871,1.508-4.153,2.262-6.834,2.262c-1.303,0-2.522-0.185-3.668-0.553c-1.138-0.369-2.146-0.938-3.012-1.709
			c-0.372-0.302-0.747-0.688-1.131-1.155c-0.388-0.468-0.739-1.022-1.059-1.658c-0.315-0.637-0.577-1.374-0.776-2.212
			c-0.198-0.837-0.3-1.791-0.3-2.864c0-0.837,0.289-1.549,0.878-2.136c0.586-0.586,1.298-0.88,2.141-0.88
			c0.863,0,1.583,0.294,2.158,0.88c0.566,0.587,0.854,1.299,0.854,2.136c0,0.47,0.039,0.947,0.124,1.434
			c0.08,0.485,0.26,0.928,0.526,1.332c0.271,0.399,0.662,0.728,1.185,0.979c0.518,0.252,1.209,0.377,2.081,0.377
			c0.605,0,1.164-0.074,1.686-0.225c0.52-0.152,0.962-0.377,1.329-0.679c0.808-0.704,1.213-1.76,1.213-3.168
			c0-1.036-0.141-1.94-0.405-2.715c-0.27-0.77-0.662-1.479-1.183-2.135c-0.518-0.652-1.155-1.272-1.906-1.859
			c-0.757-0.585-1.604-1.213-2.538-1.884c-0.872-0.603-1.735-1.23-2.592-1.884c-0.853-0.654-1.649-1.399-2.386-2.237
			c-0.872-1.07-1.53-2.187-1.982-3.342s-0.681-2.421-0.681-3.795c0-0.201,0.01-0.569,0.024-1.104
			c0.017-0.535,0.103-1.155,0.254-1.859c0.15-0.702,0.402-1.44,0.754-2.21c0.353-0.771,0.86-1.509,1.534-2.211
			c0.564-0.638,1.421-1.258,2.562-1.861c1.138-0.603,2.609-0.903,4.421-0.903c1.841,0,3.311,0.311,4.398,0.93
			c1.087,0.621,1.915,1.249,2.484,1.885c0.637,0.771,1.115,1.584,1.432,2.437c0.316,0.856,0.532,1.645,0.629,2.362
			c0.104,0.722,0.136,1.35,0.104,1.885c-0.036,0.538-0.071,0.854-0.104,0.955c-0.097,0.604-0.298,1.106-0.603,1.508
			c-0.271,0.369-0.627,0.68-1.079,0.931c-0.453,0.252-1.064,0.294-1.833,0.126c-0.736-0.134-1.283-0.377-1.638-0.729
			c-0.35-0.352-0.585-0.721-0.7-1.104c-0.121-0.384-0.168-0.729-0.154-1.031c0.019-0.301,0.027-0.485,0.027-0.552
			c0.032-0.136,0.05-0.318,0.05-0.554c0-0.234-0.023-0.485-0.077-0.755c-0.047-0.268-0.124-0.535-0.225-0.804
			c-0.101-0.268-0.233-0.504-0.405-0.703c-0.402-0.503-1.17-0.754-2.309-0.754c-0.908,0-1.533,0.118-1.886,0.353
			c-0.354,0.233-0.575,0.401-0.677,0.502c-0.239,0.234-0.411,0.504-0.529,0.805c-0.117,0.303-0.207,0.603-0.277,0.904
			c-0.068,0.302-0.104,0.562-0.124,0.778c-0.019,0.218-0.023,0.377-0.023,0.479v0.1v0.102c0,0.672,0.115,1.28,0.35,1.836
			c0.235,0.553,0.562,1.071,0.983,1.557c0.416,0.486,0.943,0.973,1.578,1.459c0.639,0.485,1.362,1.012,2.164,1.58
			c0.937,0.673,1.9,1.392,2.888,2.162C201.088,280.939,202.004,281.827,202.838,282.832z"/>
	</g>
	<g>
		<path fill="#5586A0" d="M233.746,143.496c0,54.271-44,98.27-98.269,98.27c-54.276,0-98.271-43.998-98.271-98.27
			c0-54.273,43.994-98.269,98.271-98.269C189.746,45.229,233.746,89.223,233.746,143.496z"/>
		<path fill="#6EA9B7" d="M135.478,243.711c-47.473,0-86.079-38.615-86.079-86.078c0-47.467,38.606-86.084,86.079-86.084
			c47.461,0,86.079,38.617,86.079,86.084C221.557,205.096,182.939,243.711,135.478,243.711z"/>
		<path fill="#8BD2E4" d="M135.478,242.607c-37.388,0-67.801-30.409-67.801-67.795c0-37.385,30.413-67.796,67.801-67.796
			c37.382,0,67.798,30.411,67.798,67.796C203.276,212.198,172.86,242.607,135.478,242.607z"/>
	</g>
</g>
<g>
	<g>
		<path fill="#5586A0" d="M234.212,144.219c0,54.401-44.104,98.505-98.508,98.505c-54.407,0-98.508-44.104-98.508-98.505
			c0-54.407,44.102-98.51,98.508-98.51C190.111,45.709,234.212,89.812,234.212,144.219z"/>
	</g>
	<g>
		<path fill="#8BD2E4" d="M56.044,132.667c0.19,0.331,0.343,0.671,0.454,1.013c0.109,0.344,0.194,0.669,0.248,0.976
			c0.059,0.311,0.099,0.599,0.119,0.86c0.023,0.264,0.039,0.486,0.039,0.683c0,0.314-0.03,0.787-0.085,1.417
			c-0.057,0.628-0.251,1.272-0.585,1.944c-0.412,0.793-0.984,1.41-1.716,1.858c-0.796,0.49-1.789,0.736-2.983,0.736
			c-1.19,0-2.159-0.256-2.906-0.762c-0.684-0.478-1.139-1.13-1.359-1.956c-0.095-0.38-0.039-0.742,0.168-1.085
			c0.206-0.342,0.5-0.562,0.883-0.654c0.38-0.097,0.741-0.044,1.084,0.155c0.342,0.195,0.561,0.495,0.655,0.894
			c0.016,0.109,0.08,0.206,0.19,0.287c0.079,0.045,0.214,0.103,0.405,0.165c0.189,0.065,0.484,0.097,0.88,0.097
			c0.908,0,1.551-0.233,1.935-0.707c0.382-0.464,0.572-1.262,0.572-2.391c0-0.195-0.027-0.496-0.085-0.911
			c-0.056-0.413-0.193-0.822-0.416-1.234c-0.062-0.13-0.15-0.263-0.262-0.396c-0.113-0.133-0.257-0.262-0.431-0.379
			c-0.175-0.118-0.39-0.215-0.645-0.287c-0.255-0.071-0.563-0.107-0.929-0.107h-2.41c-0.397,0-0.732-0.135-1.003-0.405
			c-0.284-0.288-0.427-0.628-0.427-1.025v-6.746c0-0.398,0.138-0.738,0.416-1.016c0.277-0.275,0.615-0.417,1.014-0.417h5.389
			c0.399,0,0.735,0.142,1.016,0.417c0.277,0.276,0.417,0.616,0.417,1.016c0,0.396-0.14,0.736-0.417,1.015
			c-0.279,0.276-0.615,0.415-1.016,0.415h-3.957v3.889h0.979c1.158,0,2.16,0.26,3.002,0.785
			C55.028,131.268,55.615,131.886,56.044,132.667z"/>
		<path fill="#8BD2E4" d="M66.573,139.641c0.275,0.276,0.415,0.615,0.415,1.014s-0.14,0.734-0.415,1.014
			c-0.28,0.275-0.618,0.415-1.016,0.415h-6.198c-0.398,0-0.735-0.14-1.013-0.415c-0.279-0.278-0.418-0.615-0.418-1.014
			s0.139-0.736,0.418-1.014c0.276-0.279,0.613-0.417,1.013-0.417h1.716V128.35l-0.598,0.594c-0.27,0.271-0.604,0.408-0.998,0.408
			c-0.399,0-0.741-0.138-1.028-0.408c-0.27-0.285-0.404-0.625-0.404-1.023c0-0.396,0.136-0.729,0.404-1.001l3.028-3.025
			c0.207-0.209,0.455-0.339,0.741-0.395c0.284-0.058,0.563-0.029,0.833,0.08c0.271,0.11,0.483,0.288,0.646,0.525
			c0.158,0.24,0.237,0.502,0.237,0.787v14.332h1.621C65.955,139.224,66.292,139.362,66.573,139.641z"/>
		<path fill="#8BD2E4" d="M70.051,138.924c0.372-0.104,0.744-0.052,1.109,0.153c0.333,0.193,0.553,0.48,0.656,0.859
			c0.104,0.383,0.061,0.737-0.131,1.073l-1.693,2.958c-0.207,0.348-0.5,0.575-0.882,0.679c-0.381,0.103-0.739,0.061-1.072-0.13
			c-0.367-0.209-0.598-0.502-0.69-0.885c-0.099-0.382-0.04-0.739,0.167-1.071l1.691-2.958
			C69.397,139.255,69.678,139.03,70.051,138.924z"/>
		<path fill="#8BD2E4" d="M80.806,139.641c0.277,0.276,0.417,0.615,0.417,1.014s-0.14,0.734-0.417,1.014
			c-0.279,0.275-0.616,0.415-1.014,0.415h-6.2c-0.396,0-0.735-0.14-1.014-0.415c-0.278-0.278-0.417-0.615-0.417-1.014
			s0.139-0.736,0.417-1.014c0.277-0.279,0.616-0.417,1.014-0.417h1.719V128.35l-0.599,0.594c-0.271,0.271-0.604,0.408-1.001,0.408
			c-0.396,0-0.738-0.138-1.025-0.408c-0.271-0.285-0.404-0.625-0.404-1.023c0-0.396,0.134-0.729,0.404-1.001l3.028-3.025
			c0.205-0.209,0.454-0.339,0.74-0.395c0.284-0.058,0.562-0.029,0.834,0.08c0.271,0.11,0.484,0.288,0.645,0.525
			c0.157,0.24,0.236,0.502,0.236,0.787v14.332h1.623C80.19,139.224,80.527,139.362,80.806,139.641z"/>
		<path fill="#8BD2E4" d="M91.214,132.667c0.19,0.331,0.342,0.671,0.452,1.013c0.113,0.344,0.194,0.669,0.251,0.976
			c0.056,0.311,0.096,0.599,0.119,0.86c0.023,0.264,0.036,0.486,0.036,0.683c0,0.314-0.029,0.787-0.085,1.417
			c-0.054,0.628-0.249,1.272-0.583,1.944c-0.413,0.793-0.986,1.41-1.716,1.858c-0.796,0.49-1.789,0.736-2.98,0.736
			c-1.19,0-2.163-0.256-2.909-0.762c-0.685-0.478-1.138-1.13-1.359-1.956c-0.095-0.38-0.038-0.742,0.167-1.085
			c0.206-0.342,0.5-0.562,0.884-0.654c0.38-0.097,0.742-0.044,1.083,0.155c0.343,0.195,0.562,0.495,0.656,0.894
			c0.016,0.109,0.079,0.206,0.189,0.287c0.081,0.045,0.217,0.103,0.407,0.165c0.19,0.065,0.484,0.097,0.882,0.097
			c0.905,0,1.551-0.233,1.933-0.707c0.381-0.464,0.57-1.262,0.57-2.391c0-0.195-0.026-0.496-0.085-0.911
			c-0.055-0.413-0.192-0.822-0.416-1.234c-0.062-0.13-0.15-0.263-0.262-0.396c-0.112-0.133-0.256-0.262-0.43-0.379
			c-0.173-0.118-0.39-0.215-0.644-0.287c-0.256-0.071-0.564-0.107-0.931-0.107h-2.409c-0.396,0-0.729-0.135-1.001-0.405
			c-0.287-0.288-0.43-0.628-0.43-1.025v-6.746c0-0.398,0.139-0.738,0.419-1.016c0.275-0.275,0.615-0.417,1.012-0.417h5.391
			c0.396,0,0.733,0.142,1.013,0.417c0.28,0.276,0.418,0.616,0.418,1.016c0,0.396-0.138,0.736-0.418,1.015
			c-0.278,0.276-0.616,0.415-1.013,0.415h-3.96v3.889h0.979c1.16,0,2.161,0.26,3.005,0.785
			C90.197,131.268,90.784,131.886,91.214,132.667z"/>
		<path fill="#8BD2E4" d="M101.586,137.077c0.396,0,0.734,0.141,1.014,0.417c0.276,0.279,0.419,0.615,0.419,1.012
			c0,0.446-0.037,0.892-0.108,1.339c-0.071,0.441-0.243,0.85-0.513,1.214c-0.318,0.445-0.741,0.764-1.266,0.952
			c-0.43,0.159-0.953,0.239-1.572,0.239H94.86c-0.396,0-0.734-0.14-1.014-0.415c-0.275-0.278-0.417-0.617-0.417-1.013
			c0-0.831,0.116-1.603,0.348-2.326c0.23-0.723,0.529-1.411,0.895-2.062c0.366-0.651,0.771-1.273,1.216-1.863
			c0.445-0.585,0.891-1.149,1.336-1.689c0.35-0.429,0.684-0.85,1.002-1.265c0.317-0.413,0.604-0.821,0.858-1.228
			c0.254-0.406,0.456-0.807,0.607-1.205c0.148-0.397,0.226-0.795,0.226-1.19v-0.097c0.016-0.125-0.003-0.342-0.06-0.644
			c-0.055-0.304-0.179-0.564-0.368-0.789c-0.049-0.046-0.16-0.122-0.336-0.225c-0.174-0.104-0.468-0.156-0.883-0.156
			c-0.556,0-0.93,0.11-1.119,0.335c-0.175,0.207-0.273,0.466-0.3,0.775c-0.022,0.309-0.026,0.494-0.012,0.559
			c0.064,0.399-0.021,0.759-0.264,1.073c-0.235,0.316-0.555,0.501-0.951,0.551c-0.396,0.062-0.751-0.024-1.062-0.266
			c-0.308-0.236-0.496-0.555-0.56-0.951c0-0.049-0.008-0.2-0.023-0.454c-0.017-0.252,0-0.551,0.048-0.896
			c0.049-0.34,0.14-0.71,0.274-1.107c0.135-0.396,0.361-0.779,0.68-1.146c0.27-0.317,0.667-0.62,1.191-0.905
			c0.524-0.287,1.225-0.43,2.098-0.43c0.859,0,1.555,0.141,2.087,0.418c0.534,0.278,0.934,0.567,1.206,0.871
			c0.301,0.333,0.541,0.688,0.715,1.057c0.175,0.379,0.297,0.729,0.369,1.053c0.07,0.325,0.11,0.614,0.12,0.87
			c0.007,0.254,0.012,0.429,0.012,0.523c0,0.652-0.096,1.272-0.287,1.861c-0.19,0.588-0.444,1.156-0.763,1.701
			c-0.318,0.55-0.675,1.083-1.073,1.602c-0.396,0.516-0.805,1.021-1.216,1.515c-0.637,0.779-1.229,1.545-1.776,2.299
			c-0.547,0.758-0.933,1.557-1.157,2.398h3.054c0.144,0,0.259-0.006,0.346-0.015c0.088-0.008,0.155-0.018,0.202-0.035
			c0.017-0.063,0.028-0.152,0.037-0.272c0.006-0.118,0.012-0.305,0.012-0.562c0-0.396,0.138-0.731,0.417-1.012
			C100.85,137.217,101.189,137.077,101.586,137.077z"/>
		<path fill="#8BD2E4" d="M127.086,141.07c-0.119,0.374-0.361,0.649-0.726,0.825c-0.191,0.094-0.408,0.142-0.646,0.142
			c-0.269,0-0.515-0.068-0.737-0.201c-0.224-0.136-0.398-0.331-0.524-0.586l-3.529-6.965l-1.098,1.769v4.646
			c0,0.4-0.138,0.738-0.416,1.014c-0.279,0.279-0.615,0.421-1.013,0.421c-0.399,0-0.735-0.142-1.015-0.421
			c-0.278-0.274-0.417-0.612-0.417-1.014v-5.053v-0.023V124.94c0-0.396,0.139-0.734,0.417-1.014s0.614-0.417,1.015-0.417
			c0.396,0,0.732,0.138,1.013,0.417c0.278,0.278,0.416,0.617,0.416,1.014v5.653l3.912-6.346c0.205-0.35,0.501-0.569,0.882-0.653
			c0.38-0.09,0.746-0.026,1.096,0.179c0.336,0.204,0.551,0.502,0.646,0.88c0.095,0.383,0.032,0.739-0.191,1.076l-3.506,5.697
			l4.341,8.535C127.178,140.328,127.207,140.698,127.086,141.07z"/>
		<path fill="#8BD2E4" d="M130.794,123.416c0.416,0,0.756,0.139,1.025,0.417c0.271,0.275,0.405,0.616,0.405,1.013v15.785
			c0,0.396-0.136,0.736-0.405,1.013c-0.271,0.278-0.609,0.419-1.025,0.419c-0.396,0-0.733-0.141-1.013-0.419
			c-0.278-0.275-0.417-0.616-0.417-1.013v-15.785c0-0.396,0.139-0.736,0.417-1.013C130.06,123.554,130.398,123.416,130.794,123.416z
			"/>
		<path fill="#8BD2E4" d="M144.267,139.617c0.271,0.273,0.404,0.616,0.404,1.014c0,0.396-0.135,0.736-0.404,1.013
			c-0.271,0.278-0.613,0.419-1.023,0.419h-6.227c-0.398,0-0.734-0.141-1.014-0.419c-0.277-0.275-0.416-0.616-0.416-1.013v-15.785
			c0-0.396,0.139-0.736,0.416-1.013c0.279-0.278,0.615-0.417,1.014-0.417s0.736,0.139,1.014,0.417
			c0.279,0.275,0.418,0.616,0.418,1.013v14.354h4.795C143.654,139.198,143.995,139.339,144.267,139.617z"/>
		<path fill="#8BD2E4" d="M155.976,137.313c0,0.099-0.008,0.274-0.016,0.54c-0.008,0.262-0.051,0.562-0.129,0.907
			c-0.082,0.338-0.207,0.705-0.385,1.094c-0.172,0.394-0.42,0.754-0.736,1.088c-0.271,0.299-0.672,0.595-1.207,0.88
			c-0.529,0.287-1.219,0.429-2.061,0.429c-0.844,0-1.521-0.142-2.037-0.429c-0.521-0.285-0.912-0.581-1.182-0.88
			c-0.318-0.353-0.562-0.724-0.729-1.123c-0.166-0.396-0.285-0.775-0.357-1.134c-0.07-0.356-0.107-0.675-0.107-0.95
			c0-0.279,0-0.475,0-0.587v-9.133c0-0.952,0.158-1.725,0.477-2.312c0.32-0.591,0.645-1.033,0.98-1.337
			c0.811-0.761,1.797-1.144,2.957-1.144c0.541,0,1.08,0.097,1.619,0.285c0.541,0.19,1.025,0.485,1.455,0.885
			c0.43,0.395,0.777,0.897,1.051,1.503c0.268,0.603,0.406,1.317,0.406,2.146V137.313z M152.636,138.984
			c0.109-0.11,0.197-0.245,0.264-0.403c0.061-0.161,0.107-0.319,0.143-0.477c0.031-0.161,0.049-0.299,0.059-0.419
			c0.01-0.118,0.014-0.2,0.014-0.251v-0.048v-9.346c0-0.43-0.061-0.772-0.178-1.024c-0.121-0.256-0.266-0.455-0.432-0.598
			c-0.168-0.142-0.346-0.233-0.535-0.274c-0.193-0.039-0.367-0.061-0.525-0.061c-0.127,0-0.277,0.021-0.453,0.061
			c-0.174,0.041-0.342,0.124-0.502,0.25c-0.158,0.128-0.297,0.319-0.416,0.584c-0.121,0.262-0.178,0.609-0.178,1.037v9.253v0.045
			c0,0.083,0,0.194,0,0.337c0,0.142,0.014,0.293,0.047,0.454c0.031,0.156,0.078,0.32,0.143,0.483c0.062,0.173,0.15,0.312,0.264,0.42
			c0.049,0.05,0.15,0.121,0.311,0.227c0.158,0.105,0.42,0.157,0.787,0.157c0.412,0,0.703-0.058,0.869-0.167
			C152.482,139.112,152.585,139.033,152.636,138.984z"/>
		<path fill="#8BD2E4" d="M169.351,140.63c0,0.396-0.141,0.736-0.418,1.013c-0.277,0.278-0.615,0.419-1.016,0.419
			c-0.395,0-0.732-0.141-1.014-0.419c-0.277-0.275-0.416-0.616-0.416-1.013v-9.824l-1.502,2.957
			c-0.127,0.349-0.357,0.603-0.691,0.764c-0.191,0.095-0.391,0.142-0.598,0.142h-0.021h-0.023h-0.027h-0.02
			c-0.207,0-0.406-0.047-0.596-0.142c-0.336-0.161-0.564-0.415-0.691-0.764l-1.504-2.957v9.824c0,0.396-0.141,0.736-0.416,1.013
			c-0.279,0.278-0.617,0.419-1.016,0.419c-0.396,0-0.732-0.141-1.012-0.419c-0.279-0.275-0.418-0.616-0.418-1.013v-15.785v-0.071
			v-0.07v-0.026v-0.023c0-0.014,0.002-0.022,0.012-0.022c0.008,0,0.014-0.008,0.014-0.022v-0.023v-0.049
			c0-0.017,0.004-0.028,0.012-0.036c0.008-0.006,0.01-0.018,0.01-0.035c0.02-0.097,0.049-0.181,0.098-0.264
			c0-0.014,0.004-0.021,0.012-0.021s0.012-0.011,0.012-0.023l0.023-0.025l0.023-0.023c0-0.014,0.008-0.031,0.023-0.047v-0.023
			l0.049-0.048c0.033-0.031,0.059-0.062,0.084-0.094c0.021-0.031,0.053-0.067,0.084-0.1l0.045-0.048h0.023
			c0-0.012,0.006-0.022,0.016-0.022c0.006,0,0.01-0.008,0.01-0.023h0.025c0.016-0.016,0.031-0.022,0.045-0.022
			c0-0.019,0.01-0.023,0.023-0.023l0.025-0.021l0.047-0.025c0.016-0.016,0.033-0.026,0.049-0.026l0.023-0.021
			c0.016,0,0.031-0.008,0.049-0.023c0.014,0,0.025-0.004,0.033-0.014c0.008-0.006,0.021-0.012,0.037-0.012s0.025-0.004,0.035-0.011
			c0.008-0.01,0.021-0.015,0.035-0.015c0.016,0,0.031-0.006,0.047-0.021h0.025h0.047l0.025-0.025h0.02h0.051h0.023
			c0.016-0.019,0.031-0.021,0.047-0.021h0.023h0.072h0.07h0.07h0.051h0.021c0.016,0,0.031,0.004,0.049,0.021h0.047h0.023h0.047
			c0.062,0.031,0.121,0.052,0.17,0.062c0.047,0.007,0.094,0.025,0.141,0.06h0.023c0,0.016,0.016,0.021,0.049,0.021
			c0,0.021,0.008,0.026,0.023,0.026l0.023,0.025c0.016,0,0.031,0.006,0.047,0.021l0.049,0.047h0.023
			c0.078,0.047,0.143,0.11,0.189,0.193l0.049,0.045l0.047,0.049c0,0.016,0.004,0.023,0.012,0.023s0.012,0.007,0.012,0.023
			l0.027,0.023l0.02,0.022c0,0.017,0.01,0.032,0.025,0.048c0,0.019,0.002,0.031,0.012,0.037c0.008,0.009,0.012,0.021,0.012,0.033
			l3.006,5.893l3.004-5.893c0-0.031,0.008-0.053,0.021-0.07c0.018-0.016,0.025-0.031,0.025-0.048c0.016,0,0.023-0.008,0.023-0.022
			l0.023-0.023c0-0.018,0.008-0.032,0.023-0.048l0.047-0.049l0.049-0.045c0.047-0.083,0.109-0.146,0.189-0.193l0.049-0.047h0.023
			c0.016-0.016,0.031-0.021,0.047-0.021l0.021-0.025c0.016,0,0.025-0.006,0.025-0.026c0.031,0,0.047-0.006,0.047-0.021h0.025
			c0.031-0.033,0.072-0.053,0.119-0.06c0.047-0.01,0.086-0.021,0.119-0.035c0.029,0,0.055-0.011,0.072-0.025h0.047h0.021h0.051
			c0-0.019,0.008-0.021,0.023-0.021h0.047h0.047h0.07h0.07h0.072c0.033,0,0.057,0.004,0.072,0.021h0.047h0.049l0.023,0.025h0.049
			h0.021l0.049,0.021c0.016,0,0.027,0.005,0.035,0.015c0.008,0.007,0.02,0.011,0.037,0.011c0.014,0,0.029,0.008,0.047,0.024h0.023
			c0.018,0.017,0.031,0.023,0.047,0.023v0.021c0.031,0,0.057,0.012,0.072,0.026c0.016,0.016,0.031,0.025,0.049,0.025l0.021,0.021
			l0.023,0.023c0.016,0,0.031,0.008,0.049,0.022l0.049,0.047c0.029,0,0.047,0.021,0.047,0.048c0.08,0.048,0.143,0.114,0.189,0.192
			l0.049,0.048v0.023c0.016,0.016,0.021,0.032,0.021,0.047c0.016,0,0.025,0.009,0.025,0.023l0.023,0.025
			c0,0.014,0.008,0.031,0.023,0.045c0.033,0.083,0.062,0.167,0.096,0.264c0,0.031,0.008,0.056,0.023,0.071v0.049v0.023
			c0,0.016,0.008,0.032,0.023,0.046v0.023v0.026v0.07v0.071v15.784H169.351z"/>
		<path fill="#8BD2E4" d="M180.163,139.594c0.277,0.274,0.418,0.615,0.418,1.014c0,0.394-0.141,0.732-0.418,1.014
			c-0.279,0.277-0.615,0.415-1.014,0.415h-5.844c-0.396,0-0.734-0.138-1.012-0.415c-0.279-0.279-0.418-0.62-0.418-1.014V124.82
			c0-0.396,0.139-0.736,0.418-1.012c0.275-0.277,0.615-0.419,1.012-0.419h5.844c0.398,0,0.732,0.142,1.014,0.419
			c0.277,0.274,0.418,0.615,0.418,1.012c0,0.415-0.141,0.757-0.418,1.029c-0.279,0.27-0.615,0.402-1.014,0.402h-4.41v6.011h3.053
			c0.396,0,0.734,0.138,1.014,0.415c0.275,0.278,0.416,0.617,0.416,1.014s-0.141,0.735-0.416,1.013
			c-0.279,0.28-0.617,0.42-1.014,0.42h-3.053v4.053h4.41C179.548,139.174,179.882,139.313,180.163,139.594z"/>
		<path fill="#8BD2E4" d="M191.8,123.84c0.277,0.272,0.416,0.614,0.416,1.029c0,0.395-0.139,0.732-0.416,1.015
			c-0.277,0.274-0.615,0.417-1.016,0.417h-2.217v14.307c0,0.394-0.137,0.732-0.416,1.014c-0.277,0.277-0.617,0.415-1.014,0.415
			c-0.398,0-0.736-0.138-1.016-0.415c-0.275-0.279-0.418-0.62-0.418-1.014v-14.307h-2.264c-0.396,0-0.736-0.143-1.016-0.417
			c-0.275-0.281-0.416-0.62-0.416-1.015c0-0.415,0.141-0.757,0.416-1.029c0.279-0.268,0.617-0.402,1.016-0.402h7.344
			C191.185,123.438,191.523,123.573,191.8,123.84z"/>
		<path fill="#8BD2E4" d="M202.124,139.594c0.277,0.274,0.418,0.615,0.418,1.014c0,0.394-0.141,0.732-0.418,1.014
			c-0.277,0.277-0.617,0.415-1.014,0.415h-5.842c-0.398,0-0.736-0.138-1.014-0.415c-0.279-0.279-0.418-0.62-0.418-1.014V124.82
			c0-0.396,0.139-0.736,0.418-1.012c0.277-0.277,0.613-0.419,1.014-0.419h5.842c0.396,0,0.734,0.142,1.014,0.419
			c0.277,0.274,0.418,0.615,0.418,1.012c0,0.415-0.141,0.757-0.418,1.029c-0.277,0.27-0.617,0.402-1.014,0.402h-4.41v6.011h3.053
			c0.396,0,0.734,0.138,1.014,0.415c0.277,0.278,0.418,0.617,0.418,1.014s-0.141,0.735-0.418,1.013
			c-0.277,0.28-0.617,0.42-1.014,0.42H196.7v4.053h4.41C201.507,139.174,201.845,139.313,202.124,139.594z"/>
		<path fill="#8BD2E4" d="M214.49,140.032c0.174,0.366,0.186,0.732,0.035,1.099c-0.15,0.365-0.408,0.625-0.775,0.789
			c-0.189,0.076-0.381,0.116-0.572,0.116c-0.27,0-0.523-0.075-0.764-0.227c-0.238-0.152-0.422-0.36-0.549-0.632l-2.645-6.056h-1.434
			v5.484c0,0.394-0.137,0.732-0.416,1.014c-0.277,0.277-0.615,0.415-1.014,0.415c-0.396,0-0.734-0.138-1.014-0.415
			c-0.277-0.28-0.418-0.62-0.418-1.014v-15.737c0-0.398,0.141-0.737,0.418-1.013c0.279-0.28,0.617-0.42,1.014-0.42h3.457
			c0.604,0,1.186,0.172,1.74,0.512c0.555,0.345,1.043,0.832,1.457,1.467c0.715,1.129,1.072,2.416,1.072,3.862
			c0,0.698-0.094,1.376-0.275,2.028c-0.182,0.651-0.447,1.254-0.797,1.811c-0.16,0.238-0.326,0.455-0.504,0.646
			c-0.174,0.19-0.348,0.363-0.523,0.521L214.49,140.032z M209.814,132.262c0.082,0,0.188-0.052,0.322-0.158
			c0.135-0.104,0.291-0.281,0.465-0.535c0.207-0.318,0.361-0.675,0.467-1.072c0.102-0.396,0.154-0.805,0.154-1.218
			c0-0.411-0.053-0.82-0.154-1.228c-0.105-0.406-0.26-0.767-0.467-1.086c-0.174-0.236-0.33-0.408-0.465-0.512
			c-0.135-0.103-0.24-0.152-0.322-0.152h-2.027v5.961H209.814z"/>
		<path fill="#8BD2E4" d="M224.501,133.311c0.939,1.175,1.408,2.551,1.408,4.123c0,0.493-0.053,0.934-0.156,1.326
			c-0.102,0.385-0.229,0.732-0.381,1.034c-0.15,0.304-0.32,0.564-0.514,0.787c-0.189,0.225-0.379,0.413-0.572,0.572
			c-0.889,0.713-1.971,1.072-3.242,1.072c-0.619,0-1.197-0.086-1.738-0.263c-0.541-0.175-1.02-0.443-1.432-0.811
			c-0.176-0.144-0.354-0.326-0.537-0.547c-0.182-0.226-0.35-0.486-0.5-0.789c-0.152-0.304-0.275-0.651-0.369-1.047
			c-0.096-0.4-0.143-0.852-0.143-1.36c0-0.398,0.139-0.734,0.416-1.015c0.277-0.278,0.613-0.416,1.014-0.416
			c0.412,0,0.752,0.138,1.023,0.416c0.27,0.279,0.406,0.615,0.406,1.015c0,0.224,0.02,0.449,0.061,0.679
			c0.039,0.23,0.123,0.441,0.25,0.633c0.127,0.192,0.314,0.347,0.561,0.467c0.244,0.118,0.574,0.177,0.988,0.177
			c0.287,0,0.555-0.033,0.801-0.104c0.244-0.071,0.455-0.183,0.631-0.323c0.383-0.333,0.572-0.833,0.572-1.503
			c0-0.49-0.062-0.922-0.189-1.287c-0.129-0.364-0.314-0.703-0.562-1.014c-0.244-0.31-0.547-0.604-0.904-0.885
			c-0.357-0.276-0.762-0.573-1.203-0.894c-0.414-0.283-0.824-0.582-1.23-0.895c-0.404-0.309-0.781-0.665-1.133-1.059
			c-0.414-0.51-0.727-1.041-0.941-1.588c-0.215-0.549-0.322-1.147-0.322-1.801c0-0.096,0.006-0.271,0.012-0.523
			c0.012-0.256,0.051-0.549,0.119-0.882c0.072-0.332,0.191-0.686,0.357-1.049c0.168-0.365,0.41-0.716,0.729-1.049
			c0.271-0.304,0.676-0.599,1.215-0.882c0.543-0.289,1.242-0.432,2.098-0.432c0.877,0,1.57,0.148,2.09,0.441
			c0.516,0.293,0.908,0.592,1.18,0.894c0.301,0.368,0.525,0.753,0.678,1.155c0.152,0.406,0.252,0.781,0.301,1.121
			c0.049,0.345,0.062,0.644,0.049,0.896c-0.018,0.254-0.033,0.405-0.049,0.454c-0.049,0.287-0.143,0.523-0.287,0.715
			c-0.129,0.175-0.297,0.32-0.514,0.44c-0.213,0.118-0.504,0.142-0.871,0.062c-0.348-0.062-0.605-0.182-0.771-0.349
			c-0.168-0.165-0.279-0.341-0.336-0.523s-0.08-0.345-0.07-0.489c0.008-0.141,0.012-0.227,0.012-0.263
			c0.018-0.063,0.025-0.148,0.025-0.262c0-0.11-0.014-0.229-0.037-0.356c-0.023-0.129-0.062-0.256-0.107-0.383
			c-0.047-0.126-0.111-0.239-0.189-0.333c-0.189-0.237-0.559-0.357-1.1-0.357c-0.428,0-0.725,0.058-0.893,0.166
			c-0.168,0.112-0.273,0.191-0.322,0.237c-0.111,0.113-0.193,0.237-0.252,0.384c-0.055,0.143-0.098,0.286-0.129,0.43
			c-0.031,0.142-0.053,0.266-0.061,0.367c-0.01,0.104-0.012,0.18-0.012,0.229v0.045v0.048c0,0.316,0.057,0.608,0.166,0.87
			c0.109,0.263,0.268,0.511,0.467,0.741c0.197,0.229,0.447,0.459,0.752,0.69c0.301,0.229,0.645,0.479,1.023,0.75
			c0.443,0.318,0.902,0.659,1.371,1.026C223.673,132.413,224.107,132.83,224.501,133.311z"/>
		<path fill="#8BD2E4" d="M85.898,165.905c0,1.334-0.319,2.418-0.954,3.242c-0.907,1.161-2.338,1.744-4.292,1.744
			c-0.874,0-1.57-0.15-2.086-0.443c-0.52-0.295-0.91-0.592-1.183-0.893c-0.316-0.354-0.547-0.729-0.689-1.135
			c-0.144-0.404-0.238-0.782-0.286-1.132c-0.048-0.352-0.063-0.65-0.048-0.896c0.016-0.246,0.032-0.401,0.048-0.466
			c0.062-0.222,0.167-0.425,0.31-0.596c0.129-0.146,0.295-0.271,0.502-0.382c0.205-0.11,0.47-0.144,0.786-0.096
			c0.319,0.049,0.562,0.149,0.727,0.311c0.169,0.159,0.292,0.324,0.371,0.5c0.079,0.206,0.128,0.43,0.142,0.667
			c-0.014,0.114-0.01,0.314,0.017,0.608c0.021,0.295,0.12,0.537,0.297,0.726c0.187,0.242,0.556,0.358,1.096,0.358
			c0.492,0,0.897-0.041,1.217-0.13c0.317-0.087,0.561-0.224,0.728-0.403c0.169-0.184,0.279-0.408,0.347-0.67
			c0.062-0.262,0.095-0.566,0.095-0.918c0-1.557-0.288-2.638-0.858-3.241c-0.443-0.444-1.185-0.669-2.219-0.669
			c-0.396,0-0.734-0.139-1.013-0.418c-0.278-0.277-0.419-0.613-0.419-1.012v-0.023c0-0.413,0.141-0.76,0.419-1.026
			c0.277-0.269,0.617-0.402,1.013-0.402c0.145,0,0.315,0,0.515,0c0.198,0,0.394-0.01,0.585-0.026
			c0.188-0.018,0.364-0.039,0.523-0.069c0.158-0.032,0.271-0.081,0.334-0.145c0.016-0.018,0.046-0.062,0.095-0.13
			c0.049-0.073,0.097-0.195,0.145-0.372c0.047-0.176,0.088-0.409,0.12-0.705c0.029-0.291,0.045-0.669,0.045-1.129v-0.073
			c0.017-0.128-0.003-0.347-0.059-0.652c-0.056-0.314-0.188-0.57-0.394-0.777c-0.05-0.047-0.159-0.128-0.335-0.236
			c-0.176-0.112-0.467-0.169-0.882-0.169c-0.54,0-0.909,0.118-1.096,0.358c-0.177,0.19-0.275,0.435-0.297,0.727
			c-0.025,0.298-0.029,0.504-0.017,0.634v-0.025c0.019,0.256-0.014,0.484-0.094,0.693c-0.08,0.175-0.203,0.348-0.37,0.524
			c-0.167,0.175-0.433,0.285-0.798,0.332c-0.366,0.047-0.652,0.017-0.859-0.097c-0.207-0.108-0.365-0.244-0.478-0.407
			c-0.126-0.173-0.206-0.386-0.237-0.642c-0.016-0.047-0.032-0.198-0.048-0.45c-0.017-0.256,0-0.553,0.048-0.895
			c0.048-0.347,0.144-0.714,0.286-1.109c0.144-0.399,0.373-0.781,0.69-1.146c0.271-0.318,0.662-0.624,1.182-0.92
			c0.516-0.295,1.212-0.439,2.086-0.439c0.873,0,1.576,0.142,2.112,0.429c0.529,0.286,0.932,0.579,1.201,0.882
			c0.304,0.335,0.54,0.684,0.716,1.049c0.176,0.366,0.3,0.718,0.37,1.052c0.071,0.333,0.109,0.63,0.118,0.882
			c0.009,0.256,0.012,0.429,0.012,0.524c0,0.541-0.022,1.019-0.071,1.432c-0.047,0.415-0.109,0.785-0.189,1.12
			c-0.176,0.604-0.422,1.104-0.739,1.503l0.048,0.048C85.341,161.813,85.898,163.555,85.898,165.905z"/>
		<path fill="#8BD2E4" d="M95.185,168.251c0.277,0.279,0.417,0.619,0.417,1.016s-0.14,0.733-0.417,1.014
			c-0.278,0.277-0.616,0.415-1.015,0.415h-6.199c-0.398,0-0.735-0.138-1.015-0.415c-0.276-0.279-0.416-0.616-0.416-1.014
			c0-0.396,0.14-0.735,0.416-1.016c0.278-0.275,0.615-0.418,1.015-0.418h1.718v-10.872l-0.599,0.6c-0.27,0.271-0.604,0.404-1,0.404
			c-0.397,0-0.738-0.134-1.023-0.404c-0.272-0.285-0.407-0.628-0.407-1.025c0-0.396,0.135-0.729,0.407-1.002l3.027-3.028
			c0.204-0.209,0.45-0.339,0.738-0.394c0.285-0.055,0.563-0.027,0.833,0.082c0.271,0.112,0.487,0.286,0.646,0.523
			c0.158,0.239,0.236,0.504,0.236,0.79v14.326h1.622C94.569,167.834,94.907,167.976,95.185,168.251z"/>
		<path fill="#8BD2E4" d="M98.665,167.539c0.374-0.103,0.744-0.051,1.111,0.153c0.331,0.191,0.552,0.479,0.654,0.858
			c0.104,0.382,0.06,0.739-0.132,1.071l-1.692,2.958c-0.207,0.351-0.5,0.575-0.883,0.681c-0.382,0.104-0.737,0.059-1.073-0.131
			c-0.366-0.211-0.596-0.503-0.689-0.887c-0.098-0.378-0.041-0.736,0.166-1.07l1.693-2.958
			C98.007,167.867,98.292,167.642,98.665,167.539z"/>
		<path fill="#8BD2E4" d="M110.003,161.28c0.191,0.332,0.345,0.671,0.454,1.014c0.111,0.341,0.194,0.669,0.25,0.979
			s0.097,0.597,0.118,0.857c0.025,0.263,0.037,0.488,0.037,0.68c0,0.318-0.028,0.791-0.084,1.419s-0.252,1.274-0.584,1.943
			c-0.413,0.793-0.985,1.415-1.717,1.859c-0.796,0.49-1.788,0.738-2.98,0.738c-1.191,0-2.162-0.254-2.909-0.763
			c-0.684-0.479-1.139-1.13-1.358-1.955c-0.098-0.385-0.039-0.742,0.168-1.087c0.206-0.339,0.5-0.56,0.881-0.653
			c0.381-0.099,0.742-0.043,1.086,0.153c0.341,0.198,0.56,0.5,0.655,0.895c0.015,0.114,0.08,0.206,0.19,0.287
			c0.078,0.047,0.215,0.103,0.405,0.167c0.188,0.063,0.483,0.097,0.882,0.097c0.907,0,1.551-0.235,1.932-0.704
			s0.571-1.268,0.571-2.396c0-0.19-0.027-0.492-0.082-0.907c-0.057-0.413-0.194-0.826-0.419-1.237
			c-0.062-0.13-0.148-0.258-0.263-0.392c-0.11-0.136-0.253-0.264-0.427-0.384c-0.178-0.12-0.393-0.218-0.646-0.288
			c-0.255-0.07-0.562-0.105-0.93-0.105h-2.407c-0.397,0-0.733-0.136-1.002-0.406c-0.288-0.286-0.429-0.629-0.429-1.025v-6.748
			c0-0.397,0.139-0.731,0.417-1.014c0.276-0.277,0.614-0.415,1.014-0.415h5.389c0.396,0,0.733,0.138,1.013,0.415
			c0.277,0.281,0.416,0.615,0.416,1.014s-0.139,0.736-0.416,1.014c-0.278,0.279-0.615,0.417-1.013,0.417h-3.959v3.888h0.979
			c1.161,0,2.161,0.264,3.005,0.788C108.986,159.879,109.575,160.5,110.003,161.28z"/>
		<path fill="#8BD2E4" d="M120.531,168.251c0.278,0.279,0.418,0.619,0.418,1.016s-0.14,0.733-0.418,1.014
			c-0.278,0.277-0.616,0.415-1.014,0.415h-6.2c-0.397,0-0.735-0.138-1.014-0.415c-0.276-0.279-0.416-0.616-0.416-1.014
			c0-0.396,0.14-0.735,0.416-1.016c0.277-0.275,0.615-0.418,1.014-0.418h1.718v-10.872l-0.598,0.6
			c-0.271,0.271-0.604,0.404-0.999,0.404c-0.4,0-0.741-0.134-1.026-0.404c-0.27-0.285-0.405-0.628-0.405-1.025
			c0-0.396,0.137-0.729,0.405-1.002l3.028-3.028c0.205-0.209,0.451-0.339,0.739-0.394c0.284-0.055,0.563-0.027,0.835,0.082
			c0.269,0.112,0.483,0.286,0.643,0.523c0.16,0.239,0.24,0.504,0.24,0.79v14.326h1.62
			C119.915,167.834,120.252,167.976,120.531,168.251z"/>
		<path fill="#8BD2E4" d="M131.321,166.122c0.017,0.075,0.017,0.149,0,0.211v0.12c-0.066,1.099-0.383,1.997-0.954,2.693
			c-0.7,0.892-1.694,1.439-2.98,1.646c-0.304,0.065-0.661,0.1-1.072,0.1h-0.12h-0.095c-0.333,0-0.668-0.023-1.003-0.075
			c-1.334-0.22-2.358-0.777-3.074-1.669c-0.638-0.824-0.955-1.908-0.955-3.242c0-2.35,0.557-4.092,1.671-5.221l0.047-0.048
			c-0.318-0.397-0.563-0.897-0.74-1.504c-0.078-0.335-0.143-0.704-0.19-1.119c-0.045-0.413-0.07-0.891-0.07-1.432v-0.192
			c0-0.156,0.003-0.363,0.013-0.617c0.009-0.256,0.049-0.533,0.119-0.838c0.071-0.303,0.176-0.61,0.31-0.931
			c0.136-0.312,0.33-0.614,0.587-0.901c0.268-0.302,0.664-0.602,1.19-0.896c0.524-0.295,1.226-0.439,2.099-0.439h0.095h0.117
			c0.874,0,1.569,0.146,2.086,0.439c0.517,0.296,0.909,0.596,1.18,0.896c0.256,0.287,0.454,0.59,0.597,0.901
			c0.145,0.319,0.253,0.628,0.321,0.931c0.073,0.305,0.111,0.582,0.12,0.838c0.007,0.254,0.011,0.461,0.011,0.617
			c0,0.097-0.006,0.162-0.021,0.192c0,0.541-0.021,1.019-0.06,1.432c-0.041,0.415-0.107,0.784-0.203,1.119
			c-0.177,0.605-0.413,1.105-0.716,1.504l0.048,0.048c1.097,1.112,1.646,2.853,1.646,5.221L131.321,166.122L131.321,166.122z
			 M128.459,165.905c0-1.557-0.276-2.638-0.834-3.241c-0.317-0.318-0.795-0.524-1.432-0.62c-0.651,0.096-1.119,0.302-1.407,0.62
			c-0.572,0.604-0.856,1.686-0.856,3.241v0.098c0.016,0.062,0.048,0.205,0.096,0.429c0.047,0.222,0.15,0.451,0.31,0.691
			c0.303,0.491,0.74,0.787,1.312,0.882c0.081,0,0.167,0.002,0.265,0.013c0.095,0.008,0.189,0.01,0.284,0.01
			c0.11,0,0.219-0.002,0.32-0.01c0.104-0.011,0.195-0.021,0.275-0.035c0.587-0.097,1.033-0.392,1.335-0.887
			c0.111-0.188,0.189-0.373,0.238-0.56c0.048-0.179,0.078-0.312,0.096-0.392L128.459,165.905L128.459,165.905z M124.643,156.702
			c0,0.427,0.021,0.777,0.061,1.047c0.04,0.271,0.078,0.486,0.119,0.646c0.039,0.157,0.078,0.272,0.119,0.347
			c0.039,0.068,0.064,0.112,0.081,0.13c0.098,0.08,0.256,0.132,0.478,0.155c0.226,0.023,0.453,0.041,0.692,0.059
			c0.255-0.018,0.494-0.034,0.716-0.059c0.223-0.023,0.374-0.075,0.452-0.155c0.016-0.018,0.048-0.062,0.097-0.13
			c0.048-0.073,0.092-0.195,0.131-0.372c0.039-0.176,0.075-0.409,0.107-0.705c0.031-0.291,0.047-0.669,0.047-1.129
			c0-0.035,0.008-0.058,0.024-0.073v-0.117h-0.024l0.024-0.025c-0.018-0.157-0.052-0.368-0.108-0.63
			c-0.054-0.264-0.17-0.483-0.345-0.657c-0.049-0.047-0.151-0.122-0.311-0.225c-0.158-0.105-0.43-0.165-0.812-0.182
			c-0.366,0.017-0.629,0.075-0.787,0.182c-0.158,0.103-0.263,0.178-0.311,0.225c-0.175,0.174-0.294,0.395-0.356,0.657
			c-0.062,0.262-0.096,0.473-0.096,0.63v0.025C124.659,156.468,124.659,156.589,124.643,156.702z"/>
		<path fill="#8BD2E4" d="M155.427,169.243c0,0.397-0.141,0.736-0.42,1.017c-0.275,0.274-0.615,0.412-1.012,0.412
			s-0.734-0.138-1.014-0.412c-0.279-0.279-0.418-0.618-0.418-1.017v-9.823l-1.5,2.955c-0.127,0.354-0.357,0.606-0.693,0.765
			c-0.189,0.095-0.389,0.145-0.594,0.145h-0.023h-0.025h-0.023h-0.023c-0.207,0-0.404-0.05-0.596-0.145
			c-0.334-0.157-0.564-0.411-0.691-0.765l-1.502-2.955v9.823c0,0.397-0.141,0.736-0.418,1.017c-0.279,0.274-0.615,0.412-1.014,0.412
			c-0.396,0-0.736-0.138-1.014-0.412c-0.277-0.279-0.416-0.618-0.416-1.017v-15.786v-0.067v-0.075v-0.023v-0.021
			c0-0.018,0.004-0.024,0.01-0.024c0.01,0,0.014-0.008,0.014-0.022v-0.025v-0.047c0-0.016,0.004-0.027,0.012-0.037
			c0.008-0.006,0.012-0.019,0.012-0.036c0.016-0.093,0.049-0.183,0.096-0.262c0-0.014,0.004-0.025,0.012-0.025
			c0.01,0,0.014-0.008,0.014-0.021l0.021-0.025l0.025-0.023c0-0.015,0.008-0.029,0.025-0.045v-0.021l0.047-0.051
			c0.031-0.032,0.061-0.063,0.082-0.095c0.023-0.031,0.053-0.063,0.082-0.096l0.049-0.051h0.025c0-0.014,0.004-0.021,0.012-0.021
			c0.006,0,0.01-0.009,0.01-0.023h0.025c0.016-0.019,0.029-0.024,0.047-0.024c0-0.016,0.01-0.024,0.023-0.024l0.023-0.021
			l0.049-0.024c0.014-0.018,0.031-0.024,0.047-0.024l0.023-0.022c0.018,0,0.033-0.009,0.049-0.023c0.016,0,0.027-0.004,0.037-0.014
			c0.006-0.006,0.018-0.01,0.033-0.01s0.027-0.003,0.035-0.013c0.008-0.008,0.021-0.014,0.035-0.014
			c0.018,0,0.033-0.006,0.049-0.021h0.023h0.049l0.023-0.022h0.023h0.047h0.023c0.016-0.02,0.031-0.026,0.047-0.026h0.025h0.07h0.07
			h0.072h0.047h0.023c0.016,0,0.031,0.008,0.049,0.026h0.049h0.021h0.049c0.062,0.031,0.119,0.051,0.166,0.059
			c0.049,0.011,0.096,0.027,0.145,0.06h0.025c0,0.016,0.014,0.022,0.045,0.022c0,0.017,0.008,0.024,0.023,0.024l0.023,0.024
			c0.018,0,0.033,0.007,0.049,0.021l0.047,0.05h0.023c0.08,0.045,0.145,0.109,0.191,0.19l0.047,0.047l0.049,0.048
			c0,0.016,0.004,0.025,0.012,0.025s0.012,0.006,0.012,0.024l0.023,0.021l0.023,0.022c0,0.017,0.01,0.029,0.023,0.046
			c0,0.017,0.004,0.029,0.014,0.039c0.006,0.004,0.01,0.021,0.01,0.033l3.006,5.89l3.006-5.89c0-0.033,0.008-0.057,0.021-0.072
			c0.018-0.017,0.025-0.029,0.025-0.046c0.016,0,0.021-0.008,0.021-0.022l0.025-0.021c0-0.02,0.006-0.035,0.021-0.051l0.049-0.048
			l0.047-0.047c0.049-0.081,0.111-0.146,0.191-0.19l0.049-0.05h0.021c0.016-0.016,0.031-0.021,0.049-0.021l0.023-0.024
			c0.016,0,0.021-0.009,0.021-0.024c0.033,0,0.049-0.008,0.049-0.022h0.023c0.033-0.031,0.072-0.049,0.119-0.06
			c0.049-0.008,0.086-0.02,0.119-0.035c0.033,0,0.057-0.012,0.072-0.022h0.047h0.021h0.051c0-0.02,0.008-0.026,0.021-0.026h0.047
			h0.049h0.072h0.072h0.068c0.033,0,0.059,0.008,0.074,0.026h0.047h0.047l0.025,0.022h0.045h0.025l0.047,0.021
			c0.018,0,0.027,0.006,0.037,0.014c0.008,0.01,0.02,0.013,0.033,0.013c0.018,0,0.033,0.008,0.051,0.022h0.021
			c0.016,0.016,0.031,0.023,0.049,0.023v0.022c0.031,0,0.057,0.008,0.07,0.024c0.016,0.016,0.031,0.024,0.049,0.024l0.023,0.021
			l0.021,0.024c0.018,0,0.035,0.007,0.049,0.024l0.049,0.045c0.029,0,0.047,0.021,0.047,0.051c0.08,0.043,0.145,0.11,0.191,0.189
			l0.049,0.051v0.021c0.014,0.016,0.021,0.03,0.021,0.045c0.016,0,0.023,0.008,0.023,0.023l0.023,0.025
			c0,0.014,0.008,0.033,0.023,0.047c0.031,0.079,0.062,0.169,0.096,0.262c0,0.032,0.008,0.059,0.025,0.073v0.047v0.025
			c0,0.016,0.006,0.03,0.021,0.048v0.021v0.023v0.075v0.067v15.785H155.427z"/>
		<path fill="#8BD2E4" d="M159.48,152.027c0.412,0,0.756,0.14,1.025,0.419c0.27,0.275,0.404,0.614,0.404,1.012v15.786
			c0,0.397-0.135,0.736-0.404,1.017c-0.27,0.274-0.613,0.412-1.025,0.412c-0.396,0-0.734-0.138-1.014-0.412
			c-0.277-0.279-0.42-0.618-0.42-1.017v-15.786c0-0.396,0.143-0.735,0.42-1.012C158.745,152.166,159.083,152.027,159.48,152.027z"/>
		<path fill="#8BD2E4" d="M172.952,168.23c0.27,0.277,0.404,0.616,0.404,1.014c0,0.398-0.135,0.736-0.404,1.017
			c-0.271,0.274-0.613,0.412-1.023,0.412h-6.227c-0.396,0-0.736-0.138-1.014-0.412c-0.277-0.279-0.416-0.618-0.416-1.017v-15.786
			c0-0.396,0.139-0.735,0.416-1.012c0.277-0.279,0.617-0.419,1.014-0.419c0.398,0,0.734,0.14,1.014,0.419
			c0.279,0.275,0.418,0.614,0.418,1.012v14.355h4.795C172.339,167.813,172.681,167.95,172.952,168.23z"/>
		<path fill="#8BD2E4" d="M184.456,168.206c0.277,0.277,0.418,0.616,0.418,1.015c0,0.397-0.141,0.732-0.418,1.014
			c-0.277,0.277-0.615,0.417-1.012,0.417h-5.844c-0.396,0-0.736-0.14-1.014-0.417c-0.277-0.28-0.418-0.616-0.418-1.014v-15.788
			c0-0.396,0.141-0.732,0.418-1.013c0.277-0.276,0.615-0.417,1.014-0.417h5.844c0.395,0,0.732,0.141,1.012,0.417
			c0.277,0.279,0.418,0.616,0.418,1.013c0,0.417-0.141,0.758-0.418,1.026c-0.277,0.271-0.615,0.405-1.012,0.405h-4.414v6.01h3.053
			c0.396,0,0.736,0.139,1.016,0.419c0.275,0.275,0.416,0.614,0.416,1.013c0,0.397-0.141,0.733-0.416,1.014
			c-0.279,0.277-0.617,0.417-1.016,0.417h-3.053v4.056h4.414C183.839,167.791,184.177,167.927,184.456,168.206z"/>
		<path fill="#8BD2E4" d="M195.126,161.92c0.938,1.18,1.406,2.553,1.406,4.128c0,0.494-0.051,0.937-0.154,1.323
			c-0.104,0.391-0.23,0.733-0.381,1.037c-0.15,0.301-0.322,0.562-0.514,0.787c-0.191,0.222-0.381,0.413-0.572,0.572
			c-0.891,0.714-1.971,1.071-3.242,1.071c-0.621,0-1.199-0.086-1.74-0.262c-0.541-0.179-1.018-0.446-1.432-0.811
			c-0.176-0.146-0.352-0.327-0.537-0.549c-0.184-0.224-0.35-0.484-0.5-0.787s-0.273-0.651-0.371-1.052
			c-0.094-0.396-0.141-0.851-0.141-1.357c0-0.397,0.137-0.735,0.418-1.013c0.275-0.278,0.613-0.417,1.014-0.417
			c0.412,0,0.752,0.139,1.021,0.417c0.271,0.276,0.408,0.614,0.408,1.013c0,0.225,0.018,0.451,0.059,0.68
			c0.039,0.232,0.123,0.442,0.25,0.633c0.129,0.189,0.314,0.346,0.561,0.463c0.246,0.12,0.576,0.183,0.99,0.183
			c0.285,0,0.555-0.036,0.799-0.109c0.244-0.072,0.455-0.179,0.633-0.319c0.381-0.334,0.572-0.834,0.572-1.503
			c0-0.492-0.064-0.922-0.191-1.287c-0.127-0.366-0.312-0.703-0.561-1.017c-0.248-0.308-0.547-0.603-0.906-0.882
			c-0.357-0.277-0.76-0.574-1.203-0.891c-0.414-0.286-0.824-0.585-1.229-0.896c-0.406-0.309-0.783-0.662-1.133-1.061
			c-0.414-0.511-0.727-1.037-0.941-1.586c-0.215-0.55-0.322-1.148-0.322-1.802c0-0.094,0.004-0.271,0.012-0.522
			c0.01-0.258,0.049-0.549,0.119-0.885c0.072-0.331,0.191-0.683,0.355-1.048c0.168-0.363,0.41-0.717,0.73-1.049
			c0.27-0.302,0.674-0.597,1.215-0.882c0.541-0.287,1.24-0.431,2.1-0.431c0.873,0,1.57,0.146,2.088,0.441
			c0.516,0.293,0.908,0.594,1.178,0.895c0.303,0.365,0.529,0.752,0.682,1.155c0.148,0.406,0.25,0.777,0.299,1.12
			c0.047,0.344,0.062,0.641,0.047,0.895c-0.018,0.256-0.031,0.405-0.047,0.453c-0.049,0.287-0.145,0.524-0.287,0.714
			c-0.127,0.179-0.299,0.327-0.512,0.442c-0.217,0.119-0.506,0.141-0.873,0.062c-0.35-0.065-0.605-0.177-0.771-0.349
			c-0.168-0.165-0.279-0.338-0.334-0.521c-0.059-0.183-0.082-0.348-0.072-0.49c0.008-0.144,0.01-0.228,0.01-0.264
			c0.016-0.062,0.025-0.151,0.025-0.26c0-0.111-0.012-0.231-0.035-0.359c-0.023-0.126-0.061-0.256-0.107-0.38
			c-0.047-0.128-0.111-0.238-0.191-0.335c-0.189-0.236-0.555-0.354-1.096-0.354c-0.43,0-0.729,0.055-0.895,0.164
			c-0.168,0.112-0.275,0.19-0.322,0.237c-0.109,0.111-0.193,0.238-0.25,0.381c-0.057,0.146-0.1,0.287-0.131,0.432
			c-0.033,0.142-0.053,0.268-0.061,0.372c-0.008,0.104-0.014,0.177-0.014,0.224v0.05v0.047c0,0.318,0.057,0.608,0.17,0.868
			c0.109,0.264,0.264,0.51,0.463,0.741c0.199,0.229,0.449,0.461,0.752,0.69c0.303,0.232,0.645,0.482,1.023,0.753
			c0.445,0.315,0.902,0.657,1.371,1.023C194.294,161.026,194.73,161.447,195.126,161.92z"/>
		<path fill="#8BD2E4" d="M99.355,186.013c0.19,0.191,0.287,0.426,0.287,0.697c0,0.273-0.097,0.51-0.287,0.697
			c-0.192,0.195-0.426,0.287-0.699,0.287h-0.359l0.182,0.312c0.143,0.229,0.177,0.477,0.104,0.738
			c-0.07,0.26-0.226,0.465-0.466,0.607c-0.153,0.088-0.32,0.131-0.493,0.131c-0.164,0-0.326-0.043-0.483-0.131
			c-0.158-0.092-0.28-0.209-0.368-0.363l-0.165-0.311l-0.18,0.311c-0.088,0.154-0.21,0.271-0.362,0.363
			c-0.154,0.088-0.315,0.131-0.492,0.131c-0.175,0-0.338-0.043-0.49-0.131c-0.241-0.143-0.397-0.346-0.47-0.604
			c-0.069-0.254-0.035-0.504,0.106-0.744l0.183-0.312h-0.361c-0.272,0-0.507-0.092-0.696-0.287
			c-0.191-0.188-0.288-0.422-0.288-0.695s0.097-0.506,0.288-0.697c0.189-0.191,0.424-0.287,0.696-0.287h0.345l-0.165-0.297
			c-0.143-0.238-0.177-0.49-0.106-0.752c0.071-0.264,0.222-0.463,0.453-0.592c0.24-0.143,0.491-0.178,0.754-0.107
			c0.263,0.074,0.458,0.229,0.591,0.469l0.18,0.299l0.183-0.299c0.131-0.238,0.328-0.395,0.59-0.469
			c0.263-0.068,0.514-0.039,0.756,0.092c0.229,0.143,0.378,0.344,0.45,0.607c0.069,0.262,0.041,0.508-0.09,0.734l-0.182,0.314h0.359
			C98.929,185.728,99.163,185.822,99.355,186.013z"/>
		<path fill="#8BD2E4" d="M101.332,183.579c0.285,0,0.52,0.094,0.706,0.283c0.188,0.193,0.279,0.426,0.279,0.699v10.863
			c0,0.271-0.093,0.506-0.279,0.695c-0.188,0.191-0.421,0.285-0.706,0.285c-0.271,0-0.506-0.094-0.698-0.285
			c-0.19-0.189-0.285-0.424-0.285-0.695v-10.863c0-0.273,0.095-0.506,0.285-0.699C100.826,183.673,101.059,183.579,101.332,183.579z
			"/>
		<path fill="#8BD2E4" d="M109.879,183.579c0.274,0,0.505,0.094,0.697,0.283c0.192,0.193,0.288,0.426,0.288,0.699v10.846v0.066
			v0.049v0.016v0.035l-0.017,0.016v0.016v0.035v0.016c-0.012,0.012-0.019,0.023-0.019,0.035v0.016c0,0.01-0.002,0.014-0.008,0.014
			c-0.007,0-0.009,0.006-0.009,0.02c0,0.008-0.003,0.02-0.009,0.023s-0.009,0.016-0.009,0.023c0,0.012-0.002,0.018-0.007,0.025
			c-0.005,0.004-0.008,0.014-0.008,0.023s-0.003,0.016-0.009,0.016c-0.005,0-0.01,0.008-0.01,0.018v0.018
			c-0.012,0-0.017,0.002-0.017,0.016l-0.016,0.016c0,0.016-0.006,0.023-0.018,0.033l-0.017,0.02v0.016
			c-0.012,0-0.019,0.004-0.019,0.016s-0.005,0.016-0.015,0.016c0,0.012-0.003,0.018-0.009,0.018c-0.007,0-0.008,0.004-0.008,0.02
			h-0.018c0,0.012-0.005,0.02-0.017,0.033l-0.033,0.031l-0.033,0.033l-0.031,0.031h-0.018l-0.032,0.035
			c-0.011,0.008-0.021,0.016-0.031,0.016c0,0.01-0.005,0.016-0.019,0.016l-0.018,0.018c-0.011,0-0.017,0.002-0.017,0.008
			c0,0.004-0.005,0.008-0.017,0.008h-0.015l-0.033,0.035c-0.044,0.018-0.083,0.035-0.114,0.049c-0.034,0.01-0.077,0.021-0.131,0.029
			c-0.047,0.012-0.11,0.016-0.198,0.016c-0.063,0-0.116-0.004-0.147-0.016h-0.031h-0.019c-0.01,0-0.016-0.004-0.016-0.016h-0.065
			v-0.014h-0.032c-0.043-0.025-0.071-0.039-0.081-0.039c-0.014,0-0.02-0.004-0.02-0.012h-0.016c-0.012,0-0.016-0.01-0.016-0.018
			c-0.013,0-0.021-0.008-0.033-0.018c-0.011,0-0.018-0.006-0.018-0.016h-0.017c-0.011,0-0.016-0.004-0.016-0.008
			c0-0.008-0.008-0.01-0.019-0.01c-0.12-0.088-0.219-0.191-0.295-0.311v-0.02c-0.011,0-0.016-0.004-0.016-0.016l-0.02-0.016v-0.018
			c-0.01-0.01-0.016-0.021-0.016-0.033c0-0.01-0.005-0.021-0.018-0.033l-2.805-6.479v6.104c0,0.271-0.096,0.506-0.287,0.695
			c-0.19,0.191-0.425,0.285-0.696,0.285c-0.273,0-0.507-0.094-0.696-0.285c-0.192-0.189-0.287-0.424-0.287-0.695v-10.848v-0.064
			v-0.047v-0.02v-0.033l0.015-0.018v-0.016v-0.031v-0.018c0.013-0.012,0.018-0.021,0.018-0.031v-0.021
			c0-0.008,0.002-0.016,0.009-0.016c0.004,0,0.008-0.004,0.008-0.016c0-0.01,0.002-0.018,0.009-0.023
			c0.004-0.008,0.01-0.014,0.01-0.025c0-0.01,0.002-0.018,0.008-0.021c0.004-0.004,0.008-0.016,0.008-0.029
			c0-0.01,0.002-0.016,0.006-0.016c0.008,0,0.011-0.004,0.011-0.016v-0.016l0.032-0.031c0-0.014,0.003-0.018,0.008-0.018
			c0.006,0,0.01-0.004,0.01-0.018l0.016-0.016v-0.02c0.012-0.012,0.016-0.02,0.016-0.029h0.019c0-0.014,0.004-0.02,0.008-0.02
			c0.007,0,0.008-0.004,0.008-0.016h0.019c0-0.01,0.006-0.02,0.017-0.031l0.033-0.035v-0.016c0.011,0,0.021-0.006,0.029-0.018
			v-0.016c0.013,0,0.022-0.006,0.035-0.018h0.018l0.032-0.031l0.031-0.033h0.018c0-0.008,0.006-0.016,0.017-0.016
			c0.009,0,0.016-0.004,0.016-0.01c0-0.008,0.007-0.012,0.019-0.012h0.016l0.033-0.025c0.077-0.047,0.153-0.074,0.23-0.084h0.017
			c0.055-0.012,0.136-0.018,0.244-0.018h0.05h0.017l0.017,0.018h0.035h0.015h0.034c0,0.01,0.005,0.016,0.016,0.016h0.032h0.017
			c0,0.01,0.014,0.014,0.032,0.014c0.012,0.014,0.028,0.018,0.05,0.018c0.013,0.014,0.022,0.018,0.032,0.018h0.018
			c0,0.012,0.011,0.021,0.033,0.021v0.012c0.021,0,0.032,0.008,0.032,0.016h0.016c0.012,0,0.019,0.004,0.019,0.012
			c0,0.004,0.005,0.008,0.017,0.008l0.017,0.016l0.018,0.02l0.019,0.016h0.016c0.01,0.012,0.021,0.016,0.03,0.016v0.016
			c0.012,0,0.016,0.004,0.016,0.01s0.008,0.01,0.02,0.01v0.016c0.01,0,0.015,0.002,0.015,0.01c0,0.004,0.008,0.006,0.018,0.006
			v0.016l0.034,0.037l0.031,0.031l0.034,0.033c0,0.01,0.004,0.02,0.016,0.031c0.012,0,0.019,0.006,0.019,0.018
			c0,0.01,0.005,0.016,0.016,0.016c0,0.021,0.005,0.033,0.018,0.033v0.018c0.012,0.01,0.016,0.021,0.016,0.029h0.017
			c0,0.021,0.003,0.037,0.008,0.041c0.005,0.01,0.009,0.018,0.009,0.029l2.808,6.477v-6.102c0-0.273,0.094-0.506,0.286-0.701
			C109.373,183.673,109.606,183.579,109.879,183.579z"/>
		<path fill="#8BD2E4" d="M125.894,184.366c0.229,0.215,0.453,0.527,0.673,0.924c0.219,0.402,0.329,0.936,0.329,1.605v6.201
			c0,0.666-0.11,1.197-0.329,1.598c-0.22,0.398-0.443,0.711-0.673,0.93c-0.581,0.523-1.266,0.783-2.053,0.783h-1.229h-0.903
			c-0.272,0-0.506-0.094-0.695-0.285c-0.191-0.189-0.288-0.424-0.288-0.695v-10.863c0-0.273,0.097-0.506,0.288-0.699
			c0.189-0.188,0.423-0.283,0.695-0.283h0.903h1.229C124.629,183.579,125.313,183.839,125.894,184.366z M124.925,186.894
			c0-0.309-0.042-0.549-0.122-0.725c-0.082-0.174-0.182-0.309-0.296-0.4c-0.114-0.096-0.233-0.154-0.36-0.182
			c-0.125-0.027-0.228-0.041-0.305-0.041h-1.147v8.893h1.147c0.077,0,0.18-0.012,0.305-0.041c0.127-0.025,0.246-0.088,0.36-0.18
			c0.114-0.094,0.214-0.229,0.296-0.4c0.08-0.174,0.122-0.418,0.122-0.723V186.894z"/>
		<path fill="#8BD2E4" d="M129.747,183.579c0.287,0,0.521,0.094,0.708,0.283c0.187,0.193,0.279,0.426,0.279,0.699v10.863
			c0,0.271-0.094,0.506-0.279,0.695c-0.187,0.191-0.421,0.285-0.708,0.285c-0.271,0-0.503-0.094-0.693-0.285
			c-0.191-0.189-0.287-0.424-0.287-0.695v-10.863c0-0.273,0.096-0.506,0.287-0.699C129.244,183.673,129.476,183.579,129.747,183.579
			z"/>
		<path fill="#8BD2E4" d="M138.347,195.374c0.055,0.271,0.008,0.521-0.141,0.746s-0.355,0.365-0.631,0.42
			c-0.045,0.01-0.105,0.016-0.182,0.016c-0.23,0-0.436-0.074-0.615-0.221c-0.18-0.148-0.299-0.338-0.354-0.566l-0.344-1.674h-1.756
			l-0.345,1.674c-0.043,0.229-0.156,0.418-0.336,0.566c-0.182,0.146-0.389,0.221-0.616,0.221c-0.087,0-0.153-0.006-0.198-0.016
			c-0.271-0.055-0.48-0.195-0.63-0.42s-0.194-0.475-0.139-0.746l2.181-10.846v-0.016v-0.033c0-0.01,0.002-0.016,0.009-0.016
			c0.004,0,0.009-0.006,0.009-0.02v-0.016v-0.018c0.011-0.01,0.017-0.02,0.017-0.033c0-0.008,0.002-0.016,0.01-0.016
			c0.003,0,0.007-0.004,0.007-0.016v-0.018c0.033-0.09,0.083-0.162,0.147-0.23v-0.016c0.011,0,0.018-0.004,0.018-0.01
			c0-0.004,0.005-0.006,0.017-0.006v-0.018l0.018-0.018l0.017-0.016l0.017-0.02l0.016-0.016l0.018-0.016l0.033-0.018
			c0.066-0.066,0.142-0.115,0.228-0.148h0.018c0.012-0.012,0.023-0.016,0.033-0.016c0.055-0.021,0.104-0.035,0.146-0.039
			s0.094-0.014,0.148-0.025h0.016h0.033h0.033c0.055,0.012,0.105,0.021,0.146,0.025c0.043,0.004,0.094,0.018,0.146,0.039
			c0.014,0,0.023,0.004,0.035,0.016h0.016c0.09,0.033,0.164,0.082,0.23,0.148c0.01,0,0.021,0.006,0.031,0.018l0.016,0.016
			l0.018,0.016l0.018,0.02l0.016,0.016l0.018,0.018l0.018,0.018l0.018,0.016v0.016c0.064,0.068,0.113,0.143,0.146,0.23v0.018
			c0,0.012,0.002,0.016,0.008,0.016c0.008,0,0.01,0.008,0.01,0.016c0.021,0.066,0.031,0.117,0.031,0.148L138.347,195.374z
			 M135.212,189.714l-0.49,2.412h0.967L135.212,189.714z"/>
		<path fill="#8BD2E4" d="M147.322,195.425c0,0.271-0.096,0.506-0.287,0.695c-0.189,0.191-0.422,0.285-0.697,0.285
			c-0.273,0-0.506-0.094-0.695-0.285c-0.191-0.189-0.287-0.424-0.287-0.695v-6.76l-1.035,2.033
			c-0.086,0.242-0.246,0.414-0.475,0.525c-0.133,0.062-0.271,0.098-0.412,0.098h-0.018H143.4h-0.016h-0.018
			c-0.141,0-0.279-0.033-0.41-0.098c-0.229-0.111-0.389-0.283-0.475-0.525l-1.035-2.033v6.76c0,0.271-0.096,0.506-0.287,0.695
			c-0.191,0.191-0.424,0.285-0.695,0.285c-0.275,0-0.508-0.094-0.697-0.285c-0.191-0.189-0.287-0.424-0.287-0.695v-10.863v-0.049
			v-0.047v-0.02v-0.016c0-0.014,0.002-0.018,0.006-0.018c0.008,0,0.01-0.006,0.01-0.018v-0.018v-0.029
			c0-0.012,0.002-0.02,0.01-0.027c0.004-0.006,0.008-0.012,0.008-0.023c0.01-0.064,0.031-0.125,0.064-0.182
			c0-0.008,0.004-0.016,0.01-0.016c0.004,0,0.008-0.006,0.008-0.018l0.018-0.016l0.014-0.016c0-0.014,0.006-0.023,0.02-0.033v-0.02
			l0.033-0.029c0.02-0.021,0.041-0.045,0.057-0.064c0.018-0.025,0.035-0.049,0.057-0.068l0.033-0.033h0.016
			c0-0.012,0.004-0.016,0.01-0.016c0.004,0,0.008-0.004,0.008-0.016h0.018c0.012-0.012,0.021-0.018,0.029-0.018
			c0-0.012,0.008-0.018,0.021-0.018l0.016-0.016l0.033-0.02c0.01-0.008,0.021-0.016,0.031-0.016l0.018-0.014
			c0.01,0,0.021-0.008,0.031-0.02c0.01,0,0.021-0.002,0.025-0.008c0.006-0.004,0.016-0.012,0.023-0.012
			c0.012,0,0.02-0.002,0.023-0.006c0.008-0.004,0.014-0.01,0.025-0.01s0.021-0.004,0.031-0.014h0.018h0.033l0.016-0.016h0.018h0.033
			h0.018c0.008-0.012,0.021-0.018,0.031-0.018h0.018h0.049h0.051h0.049h0.031h0.018c0.01,0,0.021,0.006,0.033,0.018h0.031h0.02
			h0.031c0.045,0.021,0.08,0.035,0.113,0.039s0.066,0.021,0.1,0.043h0.018c0,0.01,0.01,0.014,0.031,0.014
			c0,0.012,0.006,0.016,0.016,0.016l0.018,0.02c0.012,0,0.021,0.008,0.035,0.016l0.031,0.033h0.016
			c0.055,0.031,0.1,0.076,0.133,0.133l0.033,0.031l0.031,0.033c0,0.01,0.004,0.016,0.01,0.016c0.004,0,0.008,0.004,0.008,0.016
			l0.018,0.02l0.016,0.016c0,0.014,0.006,0.021,0.018,0.033c0,0.01,0.002,0.02,0.008,0.023c0.004,0.004,0.006,0.016,0.006,0.023
			l2.068,4.055l2.068-4.055c0-0.021,0.006-0.037,0.016-0.047c0.01-0.014,0.016-0.021,0.016-0.035c0.012,0,0.018-0.006,0.018-0.016
			l0.018-0.018c0-0.012,0.006-0.021,0.018-0.031l0.033-0.033l0.031-0.031c0.033-0.057,0.078-0.102,0.131-0.133l0.033-0.033h0.018
			c0.01-0.008,0.021-0.016,0.033-0.016l0.016-0.02c0.01,0,0.018-0.004,0.018-0.016c0.021,0,0.031-0.004,0.031-0.014h0.018
			c0.021-0.021,0.051-0.039,0.082-0.043s0.059-0.014,0.08-0.023c0.025,0,0.041-0.006,0.053-0.016h0.029h0.02h0.031
			c0-0.012,0.006-0.018,0.018-0.018h0.031h0.031h0.053h0.049h0.049c0.021,0,0.041,0.006,0.051,0.018h0.033h0.029l0.018,0.016h0.033
			h0.018l0.031,0.014c0.014,0,0.02,0.006,0.025,0.01s0.014,0.006,0.023,0.006s0.021,0.01,0.033,0.02h0.016
			c0.012,0.012,0.021,0.02,0.033,0.02v0.014c0.021,0,0.037,0.008,0.049,0.016c0.012,0.012,0.021,0.02,0.033,0.02l0.018,0.016
			l0.018,0.018c0.01,0,0.02,0.004,0.031,0.018l0.033,0.031c0.02,0,0.031,0.012,0.031,0.033c0.055,0.031,0.1,0.078,0.131,0.133
			l0.031,0.029v0.02c0.016,0.01,0.02,0.02,0.02,0.033c0.012,0,0.016,0.004,0.016,0.016l0.018,0.016c0,0.012,0.006,0.023,0.018,0.031
			c0.021,0.059,0.043,0.117,0.064,0.184c0,0.021,0.006,0.039,0.018,0.051v0.029v0.018c0,0.012,0.006,0.02,0.016,0.033v0.016v0.02
			v0.049v0.049v10.863H147.322z"/>
		<path fill="#8BD2E4" d="M154.763,194.71c0.189,0.193,0.287,0.426,0.287,0.697c0,0.273-0.098,0.506-0.287,0.697
			c-0.191,0.189-0.424,0.285-0.695,0.285h-4.021c-0.273,0-0.508-0.096-0.697-0.285c-0.191-0.191-0.287-0.424-0.287-0.697v-10.863
			c0-0.271,0.096-0.504,0.287-0.693c0.189-0.193,0.424-0.291,0.697-0.291h4.021c0.271,0,0.504,0.098,0.695,0.291
			c0.189,0.189,0.287,0.422,0.287,0.693c0,0.285-0.098,0.521-0.287,0.707c-0.191,0.188-0.424,0.279-0.695,0.279h-3.037v4.135h2.102
			c0.271,0,0.506,0.096,0.695,0.289c0.191,0.188,0.287,0.42,0.287,0.693s-0.096,0.506-0.287,0.697
			c-0.189,0.191-0.424,0.291-0.695,0.291h-2.102v2.785h3.037C154.339,194.423,154.572,194.519,154.763,194.71z"/>
		<path fill="#8BD2E4" d="M162.771,183.872c0.189,0.188,0.287,0.42,0.287,0.705c0,0.275-0.098,0.508-0.287,0.697
			c-0.191,0.193-0.426,0.287-0.697,0.287h-1.527v9.846c0,0.273-0.094,0.508-0.287,0.699c-0.188,0.189-0.424,0.285-0.695,0.285
			c-0.273,0-0.508-0.096-0.697-0.285c-0.191-0.191-0.287-0.426-0.287-0.699v-9.846h-1.561c-0.273,0-0.504-0.094-0.695-0.287
			c-0.191-0.189-0.287-0.422-0.287-0.697c0-0.285,0.096-0.52,0.287-0.705s0.422-0.275,0.695-0.275h5.057
			C162.345,183.597,162.579,183.687,162.771,183.872z"/>
		<path fill="#8BD2E4" d="M169.874,194.71c0.189,0.193,0.287,0.426,0.287,0.697c0,0.273-0.098,0.506-0.287,0.697
			c-0.191,0.189-0.424,0.285-0.697,0.285h-4.02c-0.273,0-0.506-0.096-0.697-0.285c-0.191-0.191-0.287-0.424-0.287-0.697v-10.863
			c0-0.271,0.096-0.504,0.287-0.693c0.191-0.193,0.424-0.291,0.697-0.291h4.02c0.273,0,0.506,0.098,0.697,0.291
			c0.189,0.189,0.287,0.422,0.287,0.693c0,0.285-0.098,0.521-0.287,0.707c-0.191,0.188-0.424,0.279-0.697,0.279h-3.035v4.135h2.102
			c0.271,0,0.504,0.096,0.697,0.289c0.189,0.188,0.287,0.42,0.287,0.693s-0.098,0.506-0.287,0.697
			c-0.193,0.191-0.426,0.291-0.697,0.291h-2.102v2.785h3.035C169.45,194.423,169.683,194.519,169.874,194.71z"/>
		<path fill="#8BD2E4" d="M178.382,195.013c0.119,0.252,0.129,0.506,0.023,0.756c-0.104,0.252-0.281,0.434-0.533,0.543
			c-0.131,0.055-0.262,0.08-0.393,0.08c-0.188,0-0.361-0.053-0.525-0.156c-0.164-0.102-0.291-0.25-0.377-0.436l-1.822-4.164h-0.984
			v3.771c0,0.273-0.096,0.506-0.285,0.697c-0.191,0.189-0.426,0.285-0.699,0.285c-0.271,0-0.504-0.096-0.697-0.285
			c-0.189-0.191-0.285-0.424-0.285-0.697v-10.83c0-0.273,0.096-0.506,0.285-0.695c0.193-0.193,0.426-0.285,0.697-0.285h2.381
			c0.416,0,0.814,0.113,1.197,0.35c0.381,0.238,0.717,0.572,1.002,1.008c0.49,0.779,0.738,1.666,0.738,2.662
			c0,0.48-0.064,0.945-0.191,1.391c-0.125,0.449-0.307,0.865-0.547,1.248c-0.111,0.166-0.227,0.312-0.346,0.443
			s-0.24,0.252-0.361,0.363L178.382,195.013z M175.167,189.665c0.055,0,0.127-0.035,0.223-0.105
			c0.094-0.072,0.197-0.195,0.318-0.367c0.145-0.221,0.248-0.469,0.32-0.74c0.07-0.273,0.105-0.553,0.105-0.834
			c0-0.285-0.035-0.568-0.105-0.85c-0.072-0.277-0.178-0.527-0.32-0.746c-0.121-0.164-0.227-0.279-0.318-0.354
			c-0.096-0.068-0.168-0.105-0.223-0.105h-1.396v4.104h1.396V189.665z"/>
	</g>
</g>
</svg>
