<?xml version="1.0" encoding="utf-8"?>
<!-- Generator: Adobe Illustrator 16.0.0, SVG Export Plug-In . SVG Version: 6.00 Build 0)  -->
<!DOCTYPE svg PUBLIC "-//W3C//DTD SVG 1.1//EN" "http://www.w3.org/Graphics/SVG/1.1/DTD/svg11.dtd">
<svg version="1.1" id="Layer_1" xmlns="http://www.w3.org/2000/svg" xmlns:xlink="http://www.w3.org/1999/xlink" x="0px" y="0px"
	 width="64.8px" height="81.035px" viewBox="0 0 64.8 81.035" enable-background="new 0 0 64.8 81.035" xml:space="preserve">
<g id="Layer_4">
	<g>
		<path fill="#BD7221" d="M20.489,69.559c0.226,0.041,0.397,0.154,0.514,0.338c0.12,0.182,0.156,0.381,0.113,0.604l-1.755,8.678
			c-0.044,0.193-0.137,0.348-0.285,0.463c-0.146,0.113-0.312,0.174-0.497,0.174h-0.027h-0.038c-0.188,0-0.354-0.061-0.5-0.174
			c-0.146-0.115-0.238-0.27-0.271-0.463L15.978,70.5c-0.047-0.223-0.01-0.422,0.111-0.604c0.116-0.184,0.289-0.297,0.513-0.338
			c0.21-0.045,0.409-0.008,0.591,0.111c0.18,0.119,0.295,0.291,0.338,0.51l1.022,4.982l1.009-4.982
			c0.044-0.219,0.159-0.391,0.341-0.51C20.082,69.551,20.278,69.514,20.489,69.559z"/>
		<path fill="#BD7221" d="M27.083,78.463c0.158,0.154,0.236,0.344,0.236,0.564c0,0.219-0.078,0.41-0.236,0.561
			c-0.15,0.156-0.34,0.232-0.562,0.232h-3.254c-0.223,0-0.408-0.076-0.564-0.232c-0.156-0.15-0.231-0.342-0.231-0.561v-8.795
			c0-0.221,0.075-0.41,0.231-0.562c0.156-0.154,0.342-0.232,0.564-0.232h3.254c0.225,0,0.412,0.078,0.562,0.232
			c0.158,0.152,0.236,0.344,0.236,0.562c0,0.23-0.078,0.422-0.236,0.57c-0.15,0.15-0.34,0.227-0.562,0.227h-2.454v3.35h1.696
			c0.225,0,0.412,0.078,0.568,0.23c0.151,0.156,0.23,0.346,0.23,0.562c0,0.223-0.079,0.412-0.23,0.564
			c-0.156,0.154-0.345,0.232-0.568,0.232h-1.696v2.26h2.454C26.745,78.233,26.933,78.307,27.083,78.463z"/>
		<path fill="#BD7221" d="M33.27,69.45c0.22,0,0.406,0.078,0.562,0.232c0.151,0.154,0.229,0.344,0.229,0.562v8.781v0.055v0.039
			v0.014v0.025l-0.015,0.016v0.014v0.023v0.016c-0.008,0.008-0.01,0.016-0.01,0.025v0.014c0,0.01-0.002,0.016-0.008,0.016
			c0,0-0.01,0.002-0.01,0.014s0,0.016-0.006,0.021c-0.006,0.004-0.008,0.01-0.008,0.018c0,0.01-0.002,0.018-0.004,0.021
			c-0.008,0.002-0.008,0.01-0.008,0.02s-0.007,0.014-0.007,0.014s-0.008,0.006-0.008,0.016v0.012c-0.009,0-0.015,0.004-0.015,0.016
			l-0.012,0.014c0,0.01-0.007,0.018-0.016,0.027l-0.012,0.014V79.5c-0.016,0-0.016,0.004-0.016,0.014
			c0,0.006-0.005,0.012-0.013,0.012c0,0.01,0,0.016-0.009,0.016c-0.006,0-0.006,0.004-0.006,0.014h-0.016
			c0,0.01-0.005,0.02-0.014,0.027l-0.023,0.023l-0.027,0.025l-0.028,0.027H33.76l-0.021,0.025c-0.009,0.01-0.021,0.016-0.027,0.016
			c0,0.01-0.004,0.014-0.012,0.014l-0.02,0.012c-0.006,0-0.014,0.004-0.014,0.008s0,0.006-0.011,0.006h-0.013l-0.028,0.025
			c-0.034,0.02-0.063,0.033-0.093,0.041c-0.025,0.01-0.061,0.016-0.105,0.025c-0.037,0.01-0.088,0.016-0.158,0.016
			c-0.055,0-0.094-0.006-0.119-0.016h-0.025h-0.016c-0.012,0-0.014-0.002-0.014-0.014h-0.051v-0.012h-0.029
			c-0.033-0.021-0.058-0.027-0.063-0.027c-0.013,0-0.015-0.004-0.015-0.014h-0.012c-0.013,0-0.017-0.004-0.017-0.014
			c-0.006,0-0.014-0.008-0.025-0.016c0,0-0.016-0.006-0.016-0.014h-0.01c-0.012,0-0.014-0.002-0.014-0.006s-0.006-0.006-0.014-0.006
			c-0.102-0.07-0.182-0.156-0.238-0.252v-0.016c-0.013,0-0.019-0.004-0.019-0.014l-0.013-0.016v-0.012
			c-0.006-0.01-0.014-0.02-0.014-0.027c0-0.01-0.007-0.018-0.016-0.023l-2.27-5.248v4.939c0,0.223-0.074,0.408-0.23,0.562
			c-0.157,0.156-0.344,0.234-0.564,0.234c-0.223,0-0.41-0.078-0.564-0.234c-0.154-0.154-0.232-0.342-0.232-0.562v-8.777v-0.057
			v-0.039v-0.014v-0.027l0.016-0.014V70.1v-0.027v-0.012c0.008-0.01,0.008-0.02,0.008-0.027v-0.012c0-0.01,0.003-0.016,0.009-0.016
			c0,0,0.009-0.004,0.009-0.014c0-0.008,0-0.014,0.006-0.02c0.006-0.004,0.01-0.014,0.01-0.021c0-0.012,0-0.018,0.004-0.02
			c0.007-0.006,0.009-0.014,0.009-0.021c0-0.006,0.003-0.014,0.003-0.014s0.008-0.004,0.008-0.014V69.87l0.027-0.025
			c0-0.008,0.002-0.014,0.006-0.014c0,0,0.008-0.004,0.008-0.014l0.014-0.014V69.79c0.012-0.012,0.012-0.02,0.012-0.025h0.018
			c0-0.012,0-0.018,0-0.018c0.012,0,0.012-0.002,0.012-0.014h0.014c0-0.008,0.004-0.016,0.013-0.023l0.026-0.025v-0.016
			c0.013,0,0.019-0.004,0.025-0.014v-0.01c0.012,0,0.018-0.004,0.025-0.014h0.018l0.024-0.025l0.024-0.029h0.015
			c0-0.008,0.005-0.012,0.015-0.012c0,0,0.016-0.004,0.016-0.006c0-0.004,0-0.006,0.014-0.006h0.012l0.025-0.029
			c0.064-0.033,0.123-0.057,0.188-0.064h0.014c0.045-0.01,0.109-0.014,0.197-0.014h0.041h0.012l0.012,0.014h0.029h0.016h0.025
			c0,0.012,0.006,0.018,0.014,0.018h0.023h0.017c0,0.008,0.009,0.012,0.026,0.012c0.01,0.01,0.021,0.014,0.037,0.014
			c0.01,0.01,0.019,0.014,0.025,0.014h0.016c0,0.01,0.01,0.012,0.027,0.012v0.016c0.018,0,0.025,0.004,0.025,0.018h0.015
			c0.007,0,0.011,0.002,0.011,0.006c0,0.002,0.006,0.004,0.016,0.004l0.013,0.014l0.011,0.016l0.02,0.014h0.01
			c0.012,0.012,0.02,0.014,0.029,0.014v0.016c0,0,0.013,0.002,0.013,0.006c0,0.006,0.003,0.008,0.013,0.008v0.014
			c0.008,0,0.01,0.002,0.01,0.008c0,0.002,0.01,0.004,0.017,0.004v0.014l0.028,0.029l0.027,0.023l0.021,0.027
			c0,0.01,0.008,0.018,0.016,0.027c0.01,0,0.016,0.004,0.016,0.012c0,0.01,0.002,0.014,0.01,0.014c0,0.02,0.006,0.025,0.019,0.025
			v0.014c0.007,0.012,0.011,0.02,0.011,0.027h0.014c0,0.018,0.006,0.025,0.007,0.033c0.006,0.006,0.006,0.012,0.006,0.02
			l2.271,5.246v-4.941c0-0.221,0.08-0.408,0.23-0.562C32.86,69.528,33.045,69.45,33.27,69.45z"/>
		<path fill="#BD7221" d="M40.531,77.52c-0.007,0.146-0.028,0.316-0.073,0.506c-0.045,0.191-0.117,0.395-0.213,0.611
			c-0.1,0.217-0.238,0.418-0.414,0.604c-0.15,0.168-0.373,0.332-0.668,0.49c-0.301,0.16-0.68,0.24-1.15,0.24
			c-0.467,0-0.848-0.08-1.135-0.24c-0.287-0.158-0.51-0.322-0.66-0.49c-0.176-0.193-0.311-0.402-0.403-0.625
			c-0.095-0.221-0.155-0.43-0.199-0.633c-0.038-0.197-0.062-0.375-0.062-0.529c0-0.152,0-0.264,0-0.324v-6.854
			c0-0.221,0.08-0.408,0.234-0.562c0.154-0.156,0.342-0.232,0.566-0.232c0.217,0,0.402,0.076,0.562,0.232
			c0.152,0.154,0.229,0.342,0.229,0.562v6.922v0.025c0,0.047,0,0.104,0,0.188c0,0.078,0.012,0.164,0.029,0.252
			c0.016,0.09,0.041,0.18,0.078,0.271c0.035,0.094,0.086,0.172,0.146,0.23c0.024,0.025,0.086,0.068,0.173,0.127
			c0.09,0.059,0.234,0.086,0.438,0.086c0.229,0,0.394-0.027,0.486-0.086c0.09-0.059,0.15-0.102,0.178-0.127
			c0.123-0.135,0.197-0.291,0.226-0.479c0.026-0.188,0.041-0.318,0.041-0.396v-0.041v-0.014v-6.947c0-0.223,0.078-0.41,0.231-0.562
			c0.153-0.156,0.347-0.232,0.562-0.232c0.223,0,0.408,0.076,0.566,0.232c0.154,0.152,0.229,0.344,0.229,0.562v6.936
			C40.534,77.274,40.534,77.375,40.531,77.52z"/>
		<path fill="#BD7221" d="M46.418,74.963c0.523,0.654,0.785,1.422,0.785,2.299c0,0.273-0.029,0.52-0.086,0.736
			c-0.059,0.219-0.131,0.41-0.217,0.576c-0.079,0.172-0.178,0.314-0.283,0.439c-0.105,0.123-0.215,0.229-0.318,0.314
			c-0.496,0.4-1.098,0.602-1.809,0.602c-0.342,0-0.668-0.051-0.967-0.146c-0.303-0.098-0.568-0.246-0.799-0.453
			c-0.098-0.078-0.195-0.18-0.297-0.305c-0.104-0.125-0.195-0.27-0.283-0.439c-0.08-0.168-0.148-0.361-0.201-0.584
			c-0.053-0.221-0.082-0.475-0.082-0.756c0-0.223,0.078-0.41,0.232-0.562c0.154-0.158,0.344-0.234,0.564-0.234
			c0.229,0,0.422,0.076,0.571,0.234c0.149,0.152,0.228,0.342,0.228,0.562c0,0.121,0.01,0.25,0.031,0.377
			c0.021,0.129,0.068,0.246,0.137,0.354c0.074,0.104,0.178,0.191,0.315,0.26c0.136,0.066,0.315,0.1,0.548,0.1
			c0.163,0,0.312-0.021,0.446-0.061c0.138-0.039,0.256-0.098,0.353-0.18c0.213-0.188,0.317-0.465,0.317-0.836
			c0-0.273-0.033-0.516-0.104-0.719c-0.07-0.205-0.172-0.393-0.312-0.562c-0.135-0.172-0.303-0.336-0.502-0.492
			c-0.199-0.154-0.428-0.318-0.67-0.498c-0.23-0.158-0.461-0.324-0.688-0.498c-0.224-0.172-0.437-0.369-0.627-0.592
			c-0.232-0.283-0.408-0.576-0.525-0.883c-0.121-0.307-0.182-0.641-0.182-1.004c0-0.055,0-0.15,0.006-0.291
			c0.008-0.143,0.024-0.309,0.067-0.492c0.039-0.188,0.104-0.379,0.196-0.584c0.093-0.203,0.229-0.398,0.406-0.584
			c0.148-0.168,0.375-0.334,0.678-0.492c0.302-0.16,0.689-0.236,1.169-0.236c0.487,0,0.875,0.08,1.161,0.242
			c0.287,0.166,0.509,0.332,0.658,0.498c0.172,0.203,0.293,0.422,0.379,0.646c0.082,0.227,0.14,0.434,0.168,0.625
			c0.022,0.188,0.031,0.354,0.022,0.498c-0.009,0.141-0.019,0.225-0.022,0.252c-0.028,0.158-0.08,0.293-0.164,0.396
			c-0.067,0.102-0.166,0.18-0.282,0.244c-0.121,0.068-0.282,0.078-0.483,0.033c-0.193-0.035-0.338-0.1-0.433-0.191
			c-0.095-0.094-0.155-0.188-0.188-0.291c-0.027-0.104-0.043-0.191-0.037-0.271s0.006-0.129,0.006-0.146
			c0.01-0.035,0.018-0.084,0.018-0.146s-0.008-0.127-0.021-0.197s-0.035-0.143-0.061-0.213c-0.023-0.072-0.062-0.133-0.104-0.186
			c-0.107-0.135-0.314-0.199-0.613-0.199c-0.238,0-0.402,0.029-0.496,0.092c-0.096,0.062-0.152,0.107-0.184,0.135
			c-0.062,0.061-0.107,0.133-0.139,0.211c-0.033,0.078-0.058,0.16-0.074,0.238c-0.019,0.08-0.027,0.148-0.033,0.209
			c-0.002,0.057-0.004,0.098-0.004,0.123v0.027v0.027c0,0.176,0.029,0.336,0.094,0.482c0.062,0.146,0.148,0.283,0.26,0.412
			c0.109,0.129,0.248,0.258,0.418,0.387c0.169,0.127,0.357,0.268,0.57,0.416c0.248,0.178,0.504,0.369,0.765,0.572
			C45.958,74.463,46.2,74.698,46.418,74.963z"/>
	</g>
	<g>
		<path fill="#ECB43B" d="M63.788,32.248c0,17.417-14.119,31.536-31.537,31.536c-17.418,0-31.531-14.119-31.531-31.536
			C0.72,14.835,14.832,0.72,32.249,0.72S63.788,14.835,63.788,32.248z"/>
		<path fill="#CD9131" d="M63.11,38.762c2.102-9.782-1.383-17.752-1.383-17.752l-7.949,0.041L39.788,9.515l5.021,23.232v-4.625
			l-10.555,3.955l-10.401,0.959L2.387,22.313c-3.233,8.41-0.642,17.801-0.642,17.801l14.008,5.367l0.977-5.285h11.015l17.849,5.326
			l12.847-4.548L63.11,38.762z"/>
		<path fill="#BD7221" d="M31.564,46.194l0.431,6.416l10.388,9.455c0,0,9.693-2.701,14.062-9.613
			c4.363-6.914-6.189,1.488-6.189,1.488l-5.444-3.672v4.504l-4.526-8.578l-4.509,2.574L31.564,46.194z"/>
	</g>
</g>
</svg>
