<?xml version="1.0" encoding="utf-8"?>
<!-- Generator: Adobe Illustrator 16.0.0, SVG Export Plug-In . SVG Version: 6.00 Build 0)  -->
<!DOCTYPE svg PUBLIC "-//W3C//DTD SVG 1.1//EN" "http://www.w3.org/Graphics/SVG/1.1/DTD/svg11.dtd">
<svg version="1.1" id="Layer_1" xmlns="http://www.w3.org/2000/svg" xmlns:xlink="http://www.w3.org/1999/xlink" x="0px" y="0px"
	 width="64.8px" height="81.035px" viewBox="0 0 64.8 81.035" enable-background="new 0 0 64.8 81.035" xml:space="preserve">
<g>
	<path fill="#BD7221" d="M20.616,69.136c0.226,0.041,0.397,0.154,0.514,0.338c0.12,0.182,0.156,0.381,0.113,0.604l-1.755,8.677
		c-0.044,0.194-0.137,0.349-0.285,0.463c-0.146,0.114-0.312,0.175-0.497,0.175h-0.027h-0.038c-0.188,0-0.354-0.061-0.5-0.175
		s-0.238-0.269-0.271-0.463l-1.766-8.677c-0.047-0.223-0.01-0.422,0.111-0.604c0.116-0.184,0.289-0.297,0.513-0.338
		c0.21-0.045,0.409-0.008,0.591,0.111c0.18,0.119,0.295,0.291,0.338,0.51l1.022,4.982l1.009-4.982
		c0.044-0.219,0.159-0.391,0.341-0.51C20.208,69.128,20.405,69.091,20.616,69.136z"/>
	<path fill="#BD7221" d="M27.21,78.041c0.158,0.154,0.236,0.344,0.236,0.564c0,0.219-0.078,0.41-0.236,0.561
		c-0.15,0.156-0.34,0.232-0.562,0.232h-3.254c-0.223,0-0.408-0.076-0.564-0.232c-0.156-0.15-0.231-0.342-0.231-0.561V69.81
		c0-0.222,0.075-0.41,0.231-0.562c0.156-0.154,0.342-0.232,0.564-0.232h3.254c0.225,0,0.412,0.078,0.562,0.232
		c0.158,0.152,0.236,0.344,0.236,0.562c0,0.23-0.078,0.422-0.236,0.569c-0.15,0.151-0.34,0.228-0.562,0.228h-2.454v3.35h1.696
		c0.225,0,0.412,0.078,0.568,0.23c0.151,0.155,0.23,0.346,0.23,0.562c0,0.223-0.079,0.412-0.23,0.564
		c-0.156,0.154-0.345,0.232-0.568,0.232h-1.696v2.26h2.454C26.872,77.81,27.06,77.884,27.21,78.041z"/>
	<path fill="#BD7221" d="M33.398,69.027c0.219,0,0.406,0.078,0.562,0.231c0.15,0.155,0.229,0.345,0.229,0.563v8.781v0.055v0.039
		v0.014v0.025l-0.014,0.016v0.014v0.023v0.016c-0.008,0.008-0.01,0.016-0.01,0.025v0.014c0,0.01-0.002,0.016-0.008,0.016
		c0,0-0.01,0.002-0.01,0.014c0,0.011,0,0.016-0.006,0.021c-0.006,0.004-0.008,0.01-0.008,0.018c0,0.01-0.002,0.018-0.004,0.021
		c-0.008,0.002-0.008,0.01-0.008,0.02s-0.008,0.014-0.008,0.014s-0.008,0.006-0.008,0.016v0.012c-0.008,0-0.014,0.004-0.014,0.015
		l-0.012,0.015c0,0.01-0.008,0.018-0.016,0.026l-0.012,0.015v0.014c-0.016,0-0.016,0.004-0.016,0.014
		c0,0.006-0.006,0.012-0.014,0.012c0,0.01,0,0.016-0.008,0.016c-0.006,0-0.006,0.004-0.006,0.013h-0.016
		c0,0.011-0.006,0.021-0.014,0.028l-0.023,0.023l-0.027,0.025l-0.029,0.027h-0.014l-0.021,0.024
		c-0.01,0.011-0.021,0.017-0.027,0.017c0,0.01-0.004,0.014-0.012,0.014l-0.02,0.012c-0.006,0-0.014,0.004-0.014,0.008
		s0,0.006-0.012,0.006h-0.012l-0.029,0.025c-0.033,0.02-0.062,0.033-0.092,0.041c-0.025,0.01-0.061,0.016-0.105,0.025
		c-0.037,0.01-0.088,0.016-0.158,0.016c-0.055,0-0.094-0.006-0.119-0.016h-0.025h-0.016c-0.012,0-0.014-0.002-0.014-0.014h-0.051
		v-0.013h-0.029c-0.033-0.021-0.059-0.026-0.064-0.026c-0.012,0-0.014-0.004-0.014-0.015h-0.012c-0.014,0-0.018-0.004-0.018-0.013
		c-0.006,0-0.014-0.008-0.025-0.016c0,0-0.016-0.006-0.016-0.014h-0.01c-0.012,0-0.014-0.002-0.014-0.006s-0.006-0.006-0.014-0.006
		c-0.102-0.07-0.182-0.156-0.238-0.252v-0.016c-0.014,0-0.02-0.004-0.02-0.015l-0.012-0.015v-0.012
		c-0.006-0.01-0.014-0.02-0.014-0.027c0-0.01-0.008-0.018-0.016-0.024l-2.27-5.247v4.939c0,0.222-0.074,0.408-0.23,0.562
		c-0.157,0.156-0.344,0.234-0.564,0.234c-0.223,0-0.41-0.078-0.564-0.234c-0.154-0.154-0.232-0.342-0.232-0.562V69.84v-0.056v-0.039
		v-0.014v-0.027l0.016-0.014v-0.014V69.65v-0.012c0.008-0.01,0.008-0.02,0.008-0.027v-0.012c0-0.01,0.003-0.016,0.009-0.016
		c0,0,0.009-0.004,0.009-0.014c0-0.008,0-0.014,0.006-0.021c0.006-0.004,0.01-0.013,0.01-0.021c0-0.012,0-0.018,0.004-0.02
		c0.007-0.006,0.009-0.014,0.009-0.021c0-0.006,0.003-0.014,0.003-0.014s0.008-0.004,0.008-0.014v-0.014l0.027-0.025
		c0-0.008,0.002-0.014,0.006-0.014c0,0,0.008-0.004,0.008-0.014l0.014-0.015v-0.013c0.012-0.012,0.012-0.02,0.012-0.026h0.018
		c0-0.011,0-0.017,0-0.017c0.012,0,0.012-0.002,0.012-0.014h0.014c0-0.008,0.004-0.016,0.013-0.023l0.026-0.026v-0.015
		c0.013,0,0.019-0.004,0.025-0.014v-0.01c0.012,0,0.018-0.004,0.025-0.014h0.018l0.024-0.025l0.024-0.029h0.015
		c0-0.008,0.005-0.012,0.015-0.012c0,0,0.016-0.004,0.016-0.006c0-0.004,0-0.006,0.014-0.006h0.012l0.025-0.029
		c0.064-0.033,0.123-0.057,0.188-0.064h0.014c0.045-0.01,0.109-0.014,0.197-0.014h0.041h0.012l0.012,0.014h0.029h0.016h0.025
		c0,0.011,0.006,0.017,0.014,0.017h0.023h0.017c0,0.009,0.009,0.013,0.026,0.013c0.01,0.01,0.021,0.014,0.037,0.014
		c0.01,0.01,0.019,0.014,0.025,0.014h0.016c0,0.01,0.01,0.012,0.027,0.012v0.016c0.018,0,0.025,0.004,0.025,0.018h0.015
		c0.007,0,0.011,0.002,0.011,0.006c0,0.002,0.006,0.004,0.016,0.004l0.013,0.014l0.011,0.016l0.02,0.014h0.01
		c0.012,0.012,0.02,0.014,0.029,0.014v0.015c0,0,0.013,0.003,0.013,0.007c0,0.006,0.003,0.008,0.013,0.008v0.014
		c0.008,0,0.01,0.002,0.01,0.008c0,0.002,0.01,0.004,0.017,0.004v0.014l0.028,0.029l0.027,0.023l0.021,0.027
		c0,0.01,0.008,0.018,0.016,0.026c0.01,0,0.016,0.004,0.016,0.013c0,0.01,0.002,0.014,0.01,0.014c0,0.02,0.006,0.025,0.019,0.025
		v0.014c0.007,0.012,0.011,0.02,0.011,0.027h0.014c0,0.018,0.006,0.025,0.007,0.032c0.006,0.006,0.006,0.013,0.006,0.021
		l2.271,5.246V69.83c0-0.221,0.08-0.408,0.23-0.562C32.988,69.105,33.173,69.027,33.398,69.027z"/>
	<path fill="#BD7221" d="M40.658,77.097c-0.006,0.146-0.027,0.316-0.072,0.506c-0.045,0.191-0.117,0.395-0.213,0.611
		c-0.1,0.217-0.238,0.418-0.414,0.604c-0.15,0.168-0.373,0.332-0.668,0.49c-0.301,0.16-0.68,0.24-1.15,0.24
		c-0.467,0-0.848-0.08-1.135-0.24c-0.287-0.158-0.51-0.322-0.66-0.49c-0.176-0.193-0.311-0.402-0.404-0.625
		c-0.094-0.221-0.154-0.43-0.199-0.633c-0.037-0.197-0.061-0.375-0.061-0.529c0-0.153,0-0.264,0-0.324v-6.854
		c0-0.222,0.08-0.408,0.234-0.562c0.154-0.156,0.342-0.232,0.566-0.232c0.217,0,0.402,0.076,0.562,0.232
		c0.152,0.154,0.229,0.342,0.229,0.562v6.922v0.024c0,0.048,0,0.104,0,0.188c0,0.078,0.012,0.164,0.029,0.252
		c0.016,0.09,0.041,0.18,0.078,0.271c0.035,0.095,0.086,0.173,0.145,0.231c0.025,0.025,0.086,0.068,0.174,0.127
		c0.09,0.058,0.234,0.086,0.438,0.086c0.229,0,0.393-0.028,0.486-0.086c0.09-0.059,0.15-0.102,0.178-0.127
		c0.123-0.135,0.197-0.291,0.225-0.479s0.041-0.318,0.041-0.396v-0.041v-0.014v-6.947c0-0.223,0.078-0.41,0.232-0.563
		c0.152-0.155,0.346-0.231,0.562-0.231c0.223,0,0.408,0.076,0.566,0.231c0.154,0.153,0.229,0.345,0.229,0.563v6.935
		C40.662,76.851,40.662,76.953,40.658,77.097z"/>
	<path fill="#BD7221" d="M46.546,74.541c0.523,0.654,0.785,1.422,0.785,2.299c0,0.273-0.029,0.52-0.086,0.736
		c-0.059,0.219-0.131,0.41-0.217,0.576c-0.08,0.172-0.178,0.313-0.283,0.438c-0.105,0.123-0.215,0.229-0.318,0.315
		c-0.496,0.4-1.098,0.601-1.809,0.601c-0.342,0-0.668-0.05-0.967-0.146c-0.303-0.098-0.568-0.246-0.799-0.453
		c-0.098-0.078-0.195-0.18-0.297-0.305c-0.104-0.125-0.195-0.27-0.283-0.439c-0.08-0.168-0.148-0.362-0.201-0.584
		c-0.053-0.221-0.082-0.475-0.082-0.756c0-0.223,0.078-0.41,0.232-0.563c0.154-0.157,0.344-0.233,0.564-0.233
		c0.229,0,0.422,0.076,0.57,0.233c0.15,0.153,0.229,0.343,0.229,0.563c0,0.121,0.01,0.25,0.031,0.377
		c0.021,0.129,0.068,0.246,0.137,0.353c0.074,0.104,0.178,0.192,0.314,0.261c0.137,0.065,0.316,0.1,0.549,0.1
		c0.162,0,0.312-0.021,0.445-0.061c0.139-0.039,0.256-0.099,0.354-0.181c0.213-0.187,0.316-0.464,0.316-0.836
		c0-0.272-0.033-0.515-0.104-0.718c-0.07-0.205-0.172-0.393-0.312-0.562c-0.135-0.173-0.303-0.337-0.502-0.492
		c-0.199-0.154-0.428-0.318-0.67-0.498c-0.23-0.158-0.461-0.324-0.688-0.498c-0.225-0.172-0.438-0.369-0.627-0.592
		c-0.232-0.283-0.408-0.576-0.525-0.884c-0.121-0.306-0.182-0.64-0.182-1.004c0-0.054,0-0.149,0.006-0.291
		c0.008-0.142,0.023-0.308,0.066-0.491c0.039-0.188,0.105-0.38,0.197-0.584c0.092-0.203,0.229-0.398,0.406-0.584
		c0.148-0.169,0.375-0.335,0.678-0.492c0.301-0.16,0.689-0.236,1.168-0.236c0.488,0,0.875,0.08,1.162,0.242
		c0.287,0.166,0.508,0.332,0.658,0.498c0.172,0.203,0.293,0.422,0.379,0.646c0.082,0.228,0.139,0.435,0.168,0.625
		c0.021,0.188,0.031,0.354,0.021,0.498c-0.008,0.142-0.018,0.226-0.021,0.252c-0.029,0.159-0.08,0.293-0.164,0.397
		c-0.068,0.101-0.166,0.18-0.283,0.244c-0.121,0.068-0.281,0.078-0.482,0.033c-0.193-0.035-0.338-0.1-0.434-0.191
		c-0.094-0.094-0.154-0.188-0.188-0.291c-0.027-0.104-0.043-0.192-0.037-0.272s0.006-0.129,0.006-0.146
		c0.01-0.035,0.018-0.084,0.018-0.146s-0.008-0.127-0.021-0.197s-0.035-0.143-0.061-0.213c-0.023-0.072-0.062-0.133-0.104-0.186
		c-0.107-0.135-0.314-0.199-0.613-0.199c-0.238,0-0.402,0.029-0.496,0.092c-0.096,0.062-0.152,0.107-0.184,0.135
		c-0.062,0.061-0.107,0.133-0.139,0.211c-0.033,0.078-0.059,0.16-0.074,0.238c-0.02,0.08-0.027,0.148-0.033,0.209
		c-0.002,0.057-0.004,0.098-0.004,0.123v0.027v0.027c0,0.176,0.029,0.336,0.094,0.481c0.062,0.147,0.148,0.284,0.26,0.412
		c0.109,0.129,0.248,0.258,0.418,0.388c0.168,0.127,0.357,0.268,0.57,0.416c0.248,0.178,0.504,0.368,0.764,0.571
		C46.085,74.041,46.328,74.275,46.546,74.541z"/>
</g>
<g>
	<g>
		<path fill="#ECB43B" d="M64.189,32.283c0,17.559-14.232,31.793-31.795,31.793c-17.555,0-31.783-14.234-31.783-31.793
			c0-17.555,14.229-31.786,31.783-31.786C49.957,0.496,64.189,14.729,64.189,32.283z"/>
	</g>
	<g>
		<path fill="#CD9131" d="M31.007,23.656"/>
		<path fill="#BD7221" d="M5.797,31.284c0.094,0.092,0.137,0.204,0.137,0.338c0,0.136-0.043,0.244-0.137,0.34
			c-0.092,0.091-0.207,0.139-0.34,0.139H3.391c-0.131,0-0.246-0.048-0.338-0.139c-0.09-0.096-0.139-0.204-0.139-0.34
			c0-0.135,0.049-0.246,0.139-0.338c0.092-0.092,0.207-0.14,0.338-0.14h0.572v-3.622l-0.199,0.198
			c-0.088,0.087-0.199,0.134-0.33,0.134c-0.135,0-0.25-0.047-0.346-0.134c-0.09-0.1-0.133-0.209-0.133-0.346
			c0-0.134,0.043-0.243,0.133-0.335l1.01-1.011c0.07-0.066,0.15-0.111,0.248-0.128c0.096-0.019,0.188-0.014,0.279,0.026
			c0.09,0.039,0.162,0.097,0.213,0.175c0.053,0.081,0.08,0.165,0.08,0.262v4.778h0.539C5.589,31.146,5.706,31.192,5.797,31.284z"/>
		<path fill="#BD7221" d="M9.02,30.432c0.133,0,0.244,0.045,0.336,0.139c0.094,0.093,0.141,0.207,0.141,0.339
			c0,0.146-0.01,0.295-0.035,0.446C9.438,31.5,9.381,31.64,9.29,31.759c-0.105,0.145-0.244,0.254-0.42,0.318
			c-0.144,0.051-0.318,0.072-0.527,0.072H6.778c-0.135,0-0.244-0.043-0.338-0.135c-0.094-0.093-0.139-0.207-0.139-0.338
			c0-0.277,0.037-0.534,0.115-0.774c0.074-0.242,0.176-0.471,0.299-0.688c0.121-0.217,0.256-0.424,0.404-0.622
			c0.147-0.193,0.297-0.385,0.445-0.565c0.119-0.141,0.229-0.281,0.334-0.424c0.105-0.133,0.201-0.266,0.285-0.403
			c0.086-0.138,0.154-0.271,0.203-0.403c0.051-0.131,0.076-0.265,0.076-0.397v-0.03c0.004-0.039-0.002-0.115-0.02-0.216
			c-0.02-0.102-0.061-0.189-0.123-0.259c-0.016-0.019-0.053-0.042-0.111-0.078c-0.059-0.033-0.156-0.053-0.295-0.053
			c-0.187,0-0.309,0.039-0.373,0.112c-0.059,0.067-0.092,0.157-0.1,0.26c-0.008,0.104-0.01,0.162-0.002,0.188
			c0.02,0.131-0.008,0.251-0.09,0.354c-0.078,0.104-0.188,0.168-0.316,0.184c-0.135,0.021-0.252-0.008-0.355-0.086
			c-0.104-0.084-0.166-0.188-0.188-0.318c0-0.02-0.002-0.067-0.008-0.153c-0.004-0.081,0-0.182,0.016-0.293
			c0.018-0.115,0.047-0.241,0.092-0.372c0.045-0.133,0.121-0.261,0.227-0.384c0.09-0.104,0.223-0.204,0.396-0.304
			c0.178-0.095,0.41-0.142,0.701-0.142c0.287,0,0.518,0.044,0.695,0.14c0.176,0.091,0.312,0.188,0.402,0.289
			c0.1,0.112,0.18,0.232,0.238,0.358c0.059,0.125,0.1,0.234,0.121,0.345c0.025,0.11,0.039,0.21,0.043,0.293
			c0.002,0.084,0.004,0.143,0.004,0.174c0,0.215-0.031,0.426-0.098,0.621c-0.062,0.194-0.148,0.386-0.254,0.567
			c-0.107,0.188-0.225,0.358-0.357,0.531c-0.133,0.176-0.268,0.34-0.404,0.508c-0.213,0.262-0.41,0.516-0.594,0.764
			c-0.182,0.254-0.311,0.523-0.385,0.802H8.34c0.051,0,0.09,0,0.119-0.003c0.027-0.004,0.051-0.006,0.066-0.012
			c0.004-0.022,0.008-0.053,0.012-0.092c0.002-0.041,0.004-0.104,0.004-0.188c0-0.132,0.045-0.246,0.139-0.339
			C8.777,30.477,8.887,30.432,9.02,30.432z"/>
		<path fill="#BD7221" d="M10.646,31.046c0.123-0.037,0.246-0.02,0.369,0.052c0.111,0.064,0.187,0.159,0.219,0.288
			c0.035,0.123,0.02,0.248-0.043,0.354l-0.566,0.988c-0.068,0.115-0.168,0.19-0.293,0.227c-0.127,0.035-0.248,0.021-0.357-0.043
			c-0.121-0.069-0.201-0.164-0.229-0.293c-0.035-0.129-0.016-0.246,0.055-0.359l0.562-0.984
			C10.428,31.157,10.521,31.079,10.646,31.046z"/>
		<path fill="#BD7221" d="M14.232,31.284c0.09,0.092,0.137,0.204,0.137,0.338c0,0.136-0.047,0.244-0.137,0.34
			c-0.096,0.091-0.207,0.139-0.338,0.139h-2.068c-0.133,0-0.246-0.048-0.338-0.139c-0.092-0.096-0.139-0.204-0.139-0.34
			c0-0.135,0.047-0.246,0.139-0.338c0.092-0.092,0.205-0.14,0.338-0.14h0.572v-3.622l-0.199,0.198
			c-0.09,0.087-0.201,0.134-0.332,0.134c-0.135,0-0.248-0.047-0.344-0.134c-0.092-0.1-0.135-0.209-0.135-0.346
			c0-0.134,0.043-0.243,0.135-0.335l1.012-1.011c0.065-0.066,0.149-0.111,0.242-0.128c0.098-0.019,0.189-0.014,0.281,0.026
			c0.092,0.039,0.162,0.097,0.215,0.175c0.053,0.081,0.078,0.165,0.078,0.262v4.778h0.543
			C14.025,31.146,14.137,31.192,14.232,31.284z"/>
		<path fill="#BD7221" d="M17.589,30.504c0,0.027,0,0.089-0.004,0.181c-0.002,0.092-0.018,0.193-0.045,0.303
			c-0.025,0.115-0.066,0.238-0.123,0.369c-0.055,0.128-0.135,0.248-0.242,0.358c-0.096,0.104-0.23,0.204-0.404,0.298
			c-0.176,0.096-0.404,0.139-0.686,0.139c-0.285,0-0.512-0.043-0.684-0.139c-0.17-0.094-0.297-0.193-0.389-0.298
			c-0.105-0.114-0.188-0.237-0.246-0.371c-0.059-0.134-0.1-0.259-0.125-0.374c-0.025-0.123-0.033-0.229-0.033-0.324
			c0-0.09,0-0.153,0-0.192v-3.045c0-0.324,0.053-0.581,0.158-0.774c0.104-0.19,0.213-0.343,0.322-0.447
			c0.273-0.256,0.602-0.382,0.99-0.382c0.178,0,0.359,0.029,0.541,0.097c0.18,0.062,0.34,0.159,0.481,0.293
			c0.144,0.132,0.26,0.299,0.353,0.503c0.088,0.198,0.135,0.438,0.135,0.712L17.589,30.504L17.589,30.504z M16.365,26.821
			c-0.049-0.025-0.098-0.047-0.148-0.055c-0.049-0.006-0.096-0.011-0.137-0.011c-0.037,0-0.086,0.005-0.146,0.019
			c-0.059,0.017-0.117,0.044-0.17,0.089c-0.057,0.048-0.104,0.109-0.143,0.193c-0.041,0.087-0.062,0.204-0.062,0.351v1.51
			L16.365,26.821z M16.476,31.066c0.068-0.076,0.113-0.173,0.137-0.281c0.018-0.115,0.027-0.196,0.021-0.244v-0.022v-1.729
			l-0.889,2.318c0.027,0.021,0.062,0.042,0.115,0.062c0.049,0.023,0.127,0.032,0.225,0.032c0.135,0,0.227-0.02,0.281-0.057
			C16.422,31.106,16.463,31.079,16.476,31.066z"/>
		<path fill="#BD7221" d="M20.428,25.9c0.131,0,0.244,0.042,0.338,0.137c0.092,0.092,0.137,0.207,0.137,0.335v5.263
			c0,0.128-0.045,0.239-0.137,0.335c-0.094,0.092-0.207,0.139-0.338,0.139c-0.133,0-0.244-0.047-0.338-0.139
			c-0.094-0.096-0.139-0.207-0.139-0.335V29.48h-1.822c-0.072,0-0.143-0.021-0.211-0.052c-0.064-0.029-0.119-0.076-0.162-0.131
			c-0.102-0.131-0.129-0.269-0.086-0.414l0.697-2.628c0.033-0.126,0.105-0.224,0.221-0.285c0.111-0.068,0.232-0.087,0.359-0.056
			c0.131,0.033,0.227,0.111,0.293,0.229c0.064,0.112,0.08,0.229,0.051,0.36l-0.541,2.017h1.201v-2.148
			c0-0.128,0.045-0.243,0.139-0.335C20.184,25.942,20.295,25.9,20.428,25.9z"/>
		<path fill="#BD7221" d="M28.702,31.763c-0.041,0.125-0.123,0.215-0.242,0.271c-0.064,0.029-0.14,0.049-0.218,0.049
			c-0.088,0-0.172-0.023-0.243-0.066c-0.076-0.048-0.136-0.113-0.177-0.197l-1.176-2.321l-0.367,0.594v1.549
			c0,0.133-0.045,0.246-0.142,0.338c-0.092,0.092-0.203,0.139-0.338,0.139c-0.131,0-0.242-0.047-0.338-0.139
			c-0.092-0.092-0.139-0.205-0.139-0.338v-1.688v-0.009v-3.563c0-0.133,0.047-0.246,0.139-0.338c0.096-0.097,0.207-0.14,0.338-0.14
			c0.135,0,0.246,0.043,0.338,0.14c0.097,0.092,0.142,0.205,0.142,0.338v1.883l1.304-2.113c0.067-0.116,0.168-0.189,0.295-0.219
			c0.127-0.027,0.248-0.011,0.364,0.062c0.113,0.063,0.185,0.164,0.218,0.293c0.03,0.128,0.008,0.248-0.064,0.354l-1.168,1.897
			l1.445,2.85C28.73,31.515,28.74,31.64,28.702,31.763z"/>
		<path fill="#BD7221" d="M29.938,25.874c0.137,0,0.25,0.045,0.342,0.14c0.088,0.095,0.136,0.207,0.136,0.338v5.263
			c0,0.133-0.048,0.244-0.136,0.34c-0.092,0.095-0.205,0.14-0.342,0.14c-0.134,0-0.246-0.045-0.341-0.14
			c-0.092-0.096-0.139-0.207-0.139-0.34v-5.263c0-0.131,0.047-0.243,0.139-0.338C29.691,25.919,29.806,25.874,29.938,25.874z"/>
		<path fill="#BD7221" d="M34.429,31.275c0.09,0.093,0.135,0.207,0.135,0.337c0,0.135-0.045,0.246-0.135,0.342
			c-0.09,0.094-0.205,0.139-0.344,0.139h-2.075c-0.133,0-0.246-0.045-0.338-0.139c-0.092-0.096-0.139-0.207-0.139-0.342v-5.262
			c0-0.131,0.047-0.243,0.139-0.338c0.092-0.094,0.205-0.14,0.338-0.14c0.131,0,0.244,0.045,0.338,0.14
			c0.096,0.095,0.141,0.207,0.141,0.338v4.789h1.598C34.224,31.141,34.339,31.188,34.429,31.275z"/>
		<path fill="#BD7221" d="M38.335,30.513c0,0.027-0.002,0.087-0.004,0.175c-0.006,0.09-0.021,0.191-0.045,0.301
			c-0.027,0.115-0.068,0.238-0.129,0.369c-0.059,0.128-0.141,0.248-0.246,0.358c-0.09,0.104-0.225,0.204-0.4,0.298
			c-0.178,0.096-0.408,0.139-0.689,0.139c-0.279,0-0.51-0.043-0.682-0.139c-0.17-0.094-0.301-0.193-0.393-0.298
			c-0.105-0.114-0.188-0.237-0.24-0.371c-0.057-0.134-0.098-0.259-0.121-0.374c-0.021-0.123-0.033-0.229-0.033-0.324
			c0-0.09,0-0.153,0-0.192v-3.045c0-0.316,0.051-0.575,0.156-0.771c0.105-0.196,0.215-0.345,0.326-0.444
			c0.27-0.256,0.6-0.384,0.986-0.384c0.182,0,0.357,0.033,0.541,0.096c0.178,0.063,0.34,0.16,0.482,0.297
			c0.145,0.128,0.26,0.301,0.352,0.5c0.09,0.197,0.137,0.441,0.137,0.717v3.092H38.335z M37.22,31.066
			c0.035-0.039,0.064-0.084,0.086-0.136c0.021-0.053,0.035-0.104,0.049-0.162c0.016-0.048,0.02-0.098,0.021-0.137
			c0.004-0.039,0.004-0.067,0.004-0.086v-0.013v-3.113c0-0.146-0.021-0.257-0.061-0.343c-0.039-0.09-0.088-0.152-0.145-0.199
			c-0.059-0.05-0.113-0.081-0.178-0.092c-0.064-0.017-0.125-0.021-0.178-0.021c-0.043,0-0.094,0.005-0.148,0.021
			c-0.062,0.011-0.115,0.04-0.17,0.084c-0.053,0.045-0.102,0.106-0.139,0.195c-0.039,0.087-0.061,0.201-0.061,0.343v3.087v0.02
			c0,0.022,0,0.061,0,0.109c0,0.047,0.006,0.1,0.018,0.146c0.012,0.058,0.025,0.112,0.045,0.167c0.023,0.052,0.053,0.101,0.092,0.14
			c0.014,0.011,0.051,0.042,0.102,0.072c0.055,0.039,0.145,0.054,0.266,0.054c0.137,0,0.23-0.02,0.291-0.057
			C37.169,31.106,37.207,31.079,37.22,31.066z"/>
		<path fill="#BD7221" d="M42.792,31.613c0,0.135-0.045,0.246-0.143,0.342c-0.088,0.094-0.201,0.139-0.336,0.139
			c-0.133,0-0.244-0.045-0.338-0.139c-0.092-0.096-0.139-0.207-0.139-0.342V28.34l-0.5,0.985c-0.043,0.117-0.119,0.2-0.232,0.254
			c-0.061,0.033-0.129,0.047-0.199,0.047h-0.008H40.89h-0.006h-0.01c-0.068,0-0.135-0.014-0.197-0.047
			c-0.111-0.054-0.189-0.137-0.23-0.254l-0.5-0.985v3.272c0,0.135-0.047,0.246-0.143,0.342c-0.09,0.094-0.205,0.139-0.334,0.139
			c-0.137,0-0.246-0.045-0.34-0.139c-0.094-0.096-0.137-0.207-0.137-0.342v-5.262v-0.022v-0.026v-0.003v-0.01
			c0-0.007,0-0.012,0-0.012c0.004,0,0.008,0,0.008-0.008v-0.007v-0.014c0-0.006,0-0.012,0.002-0.015
			c0.002-0.005,0.006-0.008,0.006-0.008c0.004-0.034,0.014-0.064,0.027-0.092c0-0.005,0.004-0.008,0.006-0.008
			s0.002-0.002,0.002-0.008l0.01-0.006l0.01-0.011c0-0.005,0.002-0.01,0.006-0.016v-0.003l0.02-0.021
			c0.01-0.008,0.02-0.021,0.025-0.031c0.012-0.008,0.018-0.021,0.027-0.027l0.02-0.017h0.006c0-0.008,0.002-0.014,0.006-0.014
			c0,0,0.004,0,0.004-0.005h0.008c0.004-0.005,0.008-0.008,0.018-0.008c0,0,0.004-0.012,0.008-0.012l0.01-0.008l0.016-0.005
			c0.002-0.005,0.01-0.008,0.014-0.008l0.008-0.011c0.008,0,0.014,0,0.02-0.005c0.006,0,0.01,0,0.014-0.007
			c0.002,0,0.006-0.003,0.012-0.003c0.004,0,0.008,0,0.01-0.002c0.002-0.003,0.008-0.003,0.016-0.003
			c0.004,0,0.01-0.003,0.016-0.011h0.008h0.018v-0.002h0.012h0.016h0.008c0.008-0.002,0.012-0.008,0.018-0.008h0.01h0.023h0.021
			h0.021h0.016h0.01c0.004,0,0.014,0.006,0.02,0.008h0.016h0.008h0.016c0.02,0.008,0.039,0.019,0.055,0.021s0.033,0.009,0.049,0.017
			h0.008c0,0.011,0.004,0.011,0.02,0.011c0,0.005,0.002,0.008,0.008,0.008l0.008,0.005c0.006,0,0.012,0.007,0.016,0.009l0.016,0.02
			h0.008c0.027,0.019,0.049,0.039,0.064,0.062l0.016,0.021l0.016,0.013c0,0.006,0.002,0.012,0.004,0.012c0.008,0,0.01,0,0.01,0.011
			l0.008,0.005l0.008,0.011c0,0.003,0.002,0.008,0.008,0.017c0,0.003,0.002,0.008,0.004,0.011c0.002,0.002,0.002,0.005,0.002,0.01
			l1.002,1.965l1.004-1.965c0-0.01,0.002-0.018,0.006-0.021c0.006-0.009,0.01-0.014,0.01-0.017c0.006,0,0.008-0.005,0.008-0.011
			l0.006-0.005c0-0.011,0.004-0.017,0.014-0.021l0.016-0.013l0.016-0.02c0.016-0.022,0.037-0.045,0.062-0.062l0.018-0.02h0.008
			c0.004-0.002,0.012-0.009,0.018-0.009l0.006-0.005c0.004,0,0.008-0.003,0.008-0.008c0.012,0,0.02,0,0.02-0.011h0.01
			c0.008-0.008,0.02-0.015,0.039-0.017c0.016-0.003,0.025-0.006,0.039-0.014c0.012,0,0.018-0.005,0.02-0.008h0.021h0.006h0.018
			c0-0.002,0.002-0.008,0.008-0.008H42.3h0.016h0.023h0.023h0.023c0.01,0,0.018,0.006,0.021,0.008h0.02h0.016l0.008,0.008h0.016
			h0.01l0.016,0.011c0.006,0,0.014,0,0.016,0.003c0,0,0.006,0.002,0.01,0.002c0.008,0,0.012,0.004,0.018,0.01h0.01
			c0.004,0.005,0.008,0.005,0.014,0.005v0.011c0.012,0,0.021,0.003,0.025,0.008c0.006,0.005,0.01,0.005,0.016,0.005l0.008,0.009
			l0.008,0.011c0.008,0,0.012,0.003,0.018,0.008l0.018,0.019c0.01,0,0.014,0.006,0.014,0.017c0.031,0.016,0.049,0.036,0.064,0.06
			l0.016,0.021v0.005c0.008,0.006,0.01,0.011,0.01,0.016c0.006,0,0.008,0.003,0.008,0.012l0.008,0.005
			c0,0.006,0.002,0.011,0.006,0.016c0.014,0.026,0.023,0.058,0.035,0.089c0,0.009,0,0.02,0.008,0.024v0.009v0.008
			c0,0.008,0,0.014,0.006,0.02v0.01v-0.004v0.026v0.022v5.262H42.792L42.792,31.613z"/>
		<path fill="#BD7221" d="M46.396,31.269c0.094,0.095,0.143,0.208,0.143,0.336c0,0.135-0.049,0.25-0.143,0.338
			c-0.092,0.094-0.205,0.144-0.338,0.144h-1.947c-0.133,0-0.246-0.05-0.34-0.144c-0.092-0.088-0.137-0.203-0.137-0.338v-5.262
			c0-0.131,0.045-0.243,0.137-0.34c0.094-0.089,0.207-0.134,0.34-0.134h1.947c0.133,0,0.246,0.045,0.338,0.134
			c0.094,0.097,0.143,0.209,0.143,0.34c0,0.139-0.049,0.254-0.143,0.34c-0.092,0.089-0.205,0.139-0.338,0.139h-1.469v2.001h1.018
			c0.131,0,0.244,0.053,0.334,0.14c0.096,0.094,0.143,0.209,0.143,0.34c0,0.131-0.047,0.243-0.143,0.337
			c-0.09,0.095-0.203,0.139-0.334,0.139h-1.018v1.355h1.469C46.191,31.132,46.304,31.174,46.396,31.269z"/>
		<path fill="#BD7221" d="M50.277,26.02c0.094,0.089,0.139,0.204,0.139,0.34c0,0.134-0.045,0.246-0.139,0.338
			c-0.094,0.095-0.205,0.142-0.34,0.142h-0.734v4.768c0,0.135-0.049,0.25-0.145,0.338c-0.09,0.094-0.203,0.144-0.336,0.144
			s-0.246-0.05-0.338-0.144c-0.094-0.088-0.141-0.203-0.141-0.338v-4.768H47.49c-0.135,0-0.246-0.047-0.34-0.142
			c-0.094-0.092-0.139-0.204-0.139-0.338c0-0.136,0.045-0.251,0.139-0.34s0.205-0.137,0.34-0.137h2.445
			C50.072,25.882,50.183,25.931,50.277,26.02z"/>
		<path fill="#BD7221" d="M53.718,31.269c0.092,0.095,0.141,0.208,0.141,0.336c0,0.135-0.049,0.25-0.141,0.338
			c-0.092,0.094-0.207,0.144-0.336,0.144h-1.951c-0.133,0-0.246-0.05-0.338-0.144c-0.092-0.088-0.139-0.203-0.139-0.338v-5.262
			c0-0.131,0.047-0.243,0.139-0.34c0.092-0.089,0.205-0.134,0.338-0.134h1.951c0.129,0,0.244,0.045,0.336,0.134
			c0.092,0.097,0.141,0.209,0.141,0.34c0,0.139-0.049,0.254-0.141,0.34c-0.092,0.089-0.207,0.139-0.336,0.139h-1.475v2.001h1.02
			c0.133,0,0.246,0.053,0.338,0.14c0.092,0.094,0.141,0.209,0.141,0.34c0,0.131-0.049,0.243-0.141,0.337
			c-0.092,0.095-0.205,0.139-0.338,0.139h-1.02v1.355h1.475C53.511,31.132,53.628,31.174,53.718,31.269z"/>
		<path fill="#BD7221" d="M57.841,31.414c0.059,0.126,0.062,0.246,0.012,0.365c-0.053,0.121-0.139,0.209-0.26,0.26
			c-0.062,0.033-0.127,0.045-0.189,0.045c-0.092,0-0.176-0.025-0.256-0.075c-0.078-0.047-0.141-0.12-0.182-0.212l-0.883-2.021
			h-0.479v1.828c0,0.135-0.045,0.25-0.139,0.338c-0.092,0.094-0.205,0.143-0.336,0.143c-0.135,0-0.246-0.049-0.342-0.143
			c-0.092-0.088-0.137-0.203-0.137-0.338v-5.246c0-0.134,0.045-0.243,0.137-0.34c0.096-0.089,0.207-0.137,0.342-0.137h1.148
			c0.199,0,0.396,0.059,0.58,0.173c0.189,0.11,0.35,0.274,0.486,0.487c0.236,0.376,0.355,0.809,0.355,1.291
			c0,0.229-0.031,0.455-0.09,0.673c-0.062,0.214-0.15,0.418-0.266,0.604c-0.057,0.08-0.109,0.148-0.17,0.214
			c-0.061,0.065-0.115,0.12-0.176,0.174L57.841,31.414z M56.281,28.822c0.029,0,0.064-0.019,0.107-0.053
			c0.047-0.034,0.098-0.089,0.154-0.175c0.072-0.107,0.123-0.225,0.156-0.361c0.033-0.131,0.053-0.267,0.053-0.399
			c0-0.145-0.02-0.276-0.053-0.41c-0.033-0.142-0.084-0.259-0.156-0.366c-0.059-0.075-0.107-0.134-0.154-0.17
			c-0.043-0.034-0.078-0.05-0.107-0.05h-0.676v1.984H56.281z"/>
		<path fill="#BD7221" d="M61.179,29.175c0.312,0.391,0.469,0.848,0.469,1.371c0,0.162-0.018,0.312-0.051,0.44
			c-0.033,0.13-0.076,0.249-0.127,0.353c-0.051,0.096-0.105,0.184-0.172,0.256c-0.064,0.078-0.127,0.145-0.189,0.195
			c-0.299,0.234-0.656,0.355-1.08,0.355c-0.207,0-0.398-0.027-0.582-0.088c-0.182-0.061-0.34-0.15-0.479-0.27
			c-0.059-0.053-0.117-0.109-0.178-0.188c-0.061-0.074-0.117-0.156-0.168-0.261c-0.049-0.1-0.09-0.218-0.125-0.354
			c-0.027-0.128-0.045-0.281-0.045-0.449c0-0.132,0.045-0.245,0.139-0.334c0.092-0.093,0.205-0.146,0.34-0.146
			s0.252,0.053,0.34,0.146c0.092,0.089,0.141,0.202,0.141,0.334c0,0.073,0.006,0.148,0.02,0.229
			c0.012,0.075,0.041,0.145,0.082,0.209c0.043,0.064,0.104,0.117,0.188,0.156c0.08,0.037,0.189,0.059,0.33,0.059
			c0.098,0,0.186-0.011,0.268-0.035c0.08-0.022,0.15-0.06,0.209-0.105c0.127-0.11,0.191-0.282,0.191-0.505
			c0-0.165-0.023-0.304-0.064-0.427c-0.041-0.12-0.104-0.237-0.186-0.338c-0.082-0.104-0.184-0.203-0.303-0.293
			c-0.117-0.092-0.256-0.19-0.402-0.299c-0.139-0.094-0.275-0.194-0.408-0.301c-0.137-0.103-0.264-0.223-0.379-0.354
			c-0.139-0.164-0.24-0.343-0.312-0.528c-0.066-0.182-0.104-0.384-0.104-0.6c0-0.03,0-0.089,0.004-0.173
			c0.002-0.083,0.014-0.183,0.041-0.293c0.02-0.114,0.061-0.229,0.115-0.354c0.059-0.118,0.137-0.235,0.242-0.349
			c0.094-0.103,0.229-0.198,0.406-0.296c0.178-0.094,0.412-0.139,0.697-0.139c0.291,0,0.521,0.047,0.695,0.145
			c0.174,0.103,0.305,0.198,0.395,0.302c0.1,0.116,0.176,0.253,0.229,0.384c0.051,0.134,0.082,0.262,0.102,0.377
			c0.016,0.112,0.02,0.212,0.016,0.293c-0.006,0.086-0.01,0.136-0.016,0.154c-0.02,0.094-0.047,0.175-0.096,0.234
			c-0.045,0.062-0.104,0.109-0.178,0.148c-0.066,0.04-0.166,0.051-0.287,0.021c-0.113-0.022-0.199-0.061-0.26-0.114
			c-0.055-0.059-0.092-0.115-0.105-0.179c-0.021-0.058-0.029-0.111-0.023-0.162c0.002-0.045,0.002-0.075,0.002-0.084
			c0.006-0.024,0.008-0.052,0.008-0.089c0-0.039-0.002-0.078-0.01-0.12c-0.01-0.042-0.021-0.086-0.037-0.128
			s-0.037-0.075-0.062-0.109c-0.064-0.081-0.188-0.12-0.367-0.12c-0.145,0-0.242,0.016-0.299,0.058
			c-0.057,0.037-0.09,0.062-0.107,0.081c-0.035,0.034-0.061,0.073-0.084,0.123c-0.018,0.05-0.031,0.097-0.043,0.146
			c-0.01,0.044-0.018,0.086-0.02,0.117c-0.002,0.041-0.002,0.062-0.002,0.08v0.015v0.017c0,0.104,0.016,0.201,0.055,0.293
			c0.037,0.086,0.088,0.167,0.154,0.246c0.066,0.075,0.148,0.153,0.25,0.229c0.102,0.072,0.213,0.156,0.342,0.248
			c0.15,0.107,0.301,0.221,0.457,0.343C60.902,28.877,61.048,29.017,61.179,29.175z"/>
		<path fill="#BD7221" d="M16.824,35.63c0.047,0.061,0.078,0.126,0.09,0.195c0.014,0.076,0.01,0.152-0.012,0.227L15.4,41.25
			c-0.025,0.104-0.082,0.189-0.172,0.25c-0.088,0.061-0.184,0.092-0.289,0.092c-0.023,0-0.043,0-0.064,0
			c-0.02,0-0.043-0.002-0.062-0.016c-0.127-0.037-0.223-0.109-0.287-0.227c-0.062-0.111-0.076-0.23-0.039-0.363l1.326-4.594h-1.732
			c-0.133,0-0.246-0.049-0.338-0.145c-0.094-0.094-0.139-0.203-0.139-0.334s0.045-0.245,0.139-0.338
			c0.092-0.096,0.205-0.143,0.338-0.143h2.361C16.601,35.437,16.729,35.502,16.824,35.63z"/>
		<path fill="#BD7221" d="M17.717,40.583c0.125-0.03,0.248-0.016,0.371,0.057c0.111,0.064,0.184,0.159,0.219,0.287
			c0.033,0.125,0.021,0.243-0.043,0.354l-0.566,0.988c-0.068,0.115-0.166,0.191-0.293,0.227c-0.127,0.033-0.25,0.021-0.359-0.041
			c-0.121-0.071-0.199-0.166-0.23-0.293c-0.031-0.131-0.012-0.252,0.057-0.361l0.562-0.982
			C17.499,40.701,17.594,40.621,17.717,40.583z"/>
		<path fill="#BD7221" d="M21.499,38.498c0.062,0.111,0.113,0.225,0.152,0.34c0.033,0.115,0.062,0.225,0.08,0.324
			c0.02,0.104,0.033,0.197,0.041,0.283c0.006,0.09,0.012,0.166,0.012,0.229c0,0.11-0.008,0.267-0.025,0.474
			c-0.02,0.213-0.086,0.428-0.197,0.651c-0.139,0.265-0.326,0.472-0.57,0.616c-0.266,0.168-0.598,0.248-0.996,0.248
			c-0.396,0-0.721-0.086-0.967-0.256c-0.23-0.158-0.381-0.373-0.455-0.65c-0.031-0.131-0.012-0.246,0.055-0.361
			c0.068-0.117,0.166-0.186,0.295-0.222c0.125-0.028,0.248-0.011,0.361,0.056c0.115,0.066,0.188,0.166,0.219,0.297
			c0.004,0.035,0.027,0.068,0.062,0.098c0.027,0.018,0.072,0.031,0.135,0.057c0.064,0.021,0.162,0.031,0.295,0.031
			c0.303,0,0.518-0.076,0.645-0.234s0.189-0.425,0.189-0.802c0-0.062-0.008-0.165-0.025-0.298c-0.021-0.141-0.066-0.279-0.139-0.413
			c-0.023-0.042-0.051-0.089-0.09-0.134c-0.037-0.045-0.082-0.094-0.143-0.125c-0.057-0.043-0.131-0.076-0.215-0.1
			c-0.086-0.021-0.188-0.039-0.311-0.039h-0.805c-0.129,0-0.24-0.041-0.332-0.133c-0.094-0.095-0.143-0.209-0.143-0.338v-2.252
			c0-0.133,0.047-0.246,0.139-0.338c0.094-0.094,0.207-0.139,0.336-0.139H20.9c0.133,0,0.246,0.045,0.34,0.139
			c0.092,0.092,0.137,0.205,0.137,0.338c0,0.135-0.045,0.243-0.137,0.338c-0.094,0.092-0.207,0.137-0.34,0.137h-1.318v1.295h0.324
			c0.387,0,0.723,0.09,1.002,0.268C21.158,38.031,21.354,38.242,21.499,38.498z"/>
		<path fill="#BD7221" d="M24.958,39.97c0.131,0,0.244,0.047,0.336,0.141c0.094,0.094,0.141,0.207,0.141,0.34
			c0,0.146-0.014,0.295-0.035,0.443c-0.027,0.148-0.082,0.281-0.172,0.404c-0.107,0.146-0.246,0.258-0.422,0.318
			c-0.143,0.054-0.318,0.076-0.525,0.076h-1.564c-0.132,0-0.244-0.045-0.339-0.137c-0.094-0.092-0.139-0.207-0.139-0.341
			c0-0.274,0.039-0.532,0.115-0.771c0.076-0.242,0.178-0.475,0.299-0.689c0.121-0.217,0.258-0.426,0.406-0.622
			c0.146-0.196,0.297-0.382,0.445-0.565c0.114-0.139,0.227-0.277,0.334-0.418c0.104-0.139,0.201-0.271,0.285-0.406
			c0.082-0.141,0.153-0.271,0.202-0.4c0.052-0.131,0.074-0.271,0.074-0.4v-0.029c0.004-0.043,0-0.112-0.021-0.217
			c-0.02-0.098-0.057-0.188-0.123-0.264c-0.016-0.013-0.053-0.039-0.111-0.072c-0.057-0.039-0.153-0.053-0.293-0.053
			c-0.186,0-0.311,0.036-0.375,0.112c-0.057,0.069-0.092,0.149-0.1,0.256c-0.006,0.106-0.008,0.165-0.004,0.188
			c0.021,0.133-0.008,0.254-0.088,0.357c-0.078,0.104-0.184,0.162-0.316,0.184c-0.133,0.021-0.25-0.014-0.354-0.09
			c-0.104-0.08-0.168-0.186-0.188-0.318c0-0.018,0-0.062-0.008-0.15c-0.006-0.086,0-0.184,0.016-0.296
			c0.019-0.116,0.047-0.237,0.09-0.368c0.047-0.134,0.123-0.262,0.229-0.385c0.088-0.104,0.223-0.206,0.396-0.305
			c0.176-0.092,0.408-0.145,0.701-0.145c0.285,0,0.52,0.049,0.695,0.143c0.176,0.092,0.311,0.188,0.399,0.293
			c0.103,0.107,0.183,0.229,0.237,0.355c0.062,0.125,0.104,0.236,0.123,0.348c0.025,0.109,0.037,0.203,0.043,0.289
			c0.002,0.086,0.002,0.146,0.002,0.176c0,0.219-0.03,0.425-0.096,0.623c-0.062,0.193-0.147,0.386-0.254,0.566
			c-0.105,0.182-0.227,0.357-0.357,0.531c-0.135,0.174-0.27,0.34-0.405,0.508c-0.211,0.26-0.407,0.516-0.595,0.766
			c-0.18,0.254-0.309,0.52-0.385,0.799h1.019c0.049,0,0.086,0,0.114-0.004c0.031-0.002,0.054-0.004,0.066-0.012
			c0.006-0.021,0.012-0.054,0.016-0.092c0-0.039,0.005-0.104,0.005-0.188c0-0.131,0.045-0.246,0.137-0.338
			C24.712,40.017,24.822,39.97,24.958,39.97z"/>
		<path fill="#BD7221" d="M28.699,40.828c0.091,0.093,0.138,0.201,0.138,0.336c0,0.131-0.047,0.246-0.138,0.336
			c-0.094,0.096-0.207,0.143-0.342,0.143h-2.063c-0.133,0-0.246-0.047-0.34-0.143c-0.095-0.09-0.138-0.205-0.138-0.336
			c0-0.135,0.043-0.243,0.138-0.336c0.094-0.094,0.207-0.145,0.34-0.145h0.569v-3.621l-0.196,0.198
			c-0.09,0.089-0.203,0.132-0.332,0.132c-0.136,0-0.248-0.043-0.345-0.132c-0.092-0.097-0.137-0.212-0.137-0.343
			s0.045-0.246,0.137-0.334l1.013-1.012c0.065-0.066,0.149-0.111,0.242-0.131c0.098-0.019,0.188-0.01,0.28,0.028
			c0.09,0.036,0.162,0.097,0.213,0.173c0.056,0.082,0.078,0.17,0.078,0.262v4.779h0.541C28.492,40.685,28.605,40.734,28.699,40.828z
			"/>
		<path fill="#BD7221" d="M37.113,41.154c0,0.133-0.047,0.244-0.141,0.342c-0.092,0.092-0.207,0.136-0.336,0.136
			c-0.137,0-0.246-0.044-0.342-0.136c-0.092-0.098-0.139-0.209-0.139-0.342v-3.272l-0.498,0.985
			c-0.043,0.115-0.119,0.201-0.23,0.254c-0.066,0.031-0.131,0.048-0.201,0.048h-0.008H35.21h-0.008h-0.006
			c-0.07,0-0.137-0.017-0.201-0.048c-0.109-0.053-0.189-0.139-0.23-0.254l-0.5-0.985v3.272c0,0.133-0.045,0.244-0.139,0.342
			c-0.092,0.092-0.205,0.136-0.338,0.136s-0.244-0.044-0.338-0.136c-0.094-0.098-0.139-0.209-0.139-0.342V35.89v-0.021v-0.023v-0.01
			v-0.01c0,0,0-0.008,0.002-0.008c0.004,0,0.006,0,0.006-0.006v-0.01v-0.014c0-0.006,0-0.014,0.002-0.014
			c0.004-0.006,0.006-0.008,0.006-0.01c0.004-0.035,0.016-0.062,0.029-0.09c0-0.006,0.004-0.008,0.006-0.008
			s0.004-0.004,0.004-0.008l0.008-0.012l0.01-0.008c0-0.007,0.002-0.012,0.006-0.016v-0.01l0.018-0.016
			c0.014-0.009,0.021-0.021,0.029-0.031c0.004-0.008,0.02-0.021,0.025-0.031l0.016-0.014h0.01c0-0.012,0.002-0.014,0.008-0.014
			c0,0,0.004,0,0.004-0.006h0.004c0.008-0.006,0.014-0.008,0.02-0.008c0-0.004,0.002-0.012,0.008-0.012l0.006-0.006l0.018-0.008
			c0.004-0.003,0.01-0.008,0.014-0.008l0.012-0.012c0.008,0,0.012,0,0.02-0.004c0.004,0,0.008,0,0.01-0.01c0.004,0,0.006,0,0.012,0
			c0.002,0,0.01,0,0.014-0.004c0-0.007,0.004-0.007,0.01-0.007s0.01,0,0.021-0.005h0.008h0.014l0.01-0.012h0.008h0.018h0.008
			c0.002-0.002,0.008-0.004,0.02-0.004h0.006h0.021H33.8h0.023h0.016h0.006c0.008,0,0.014,0.002,0.02,0.004h0.02h0.008h0.012
			c0.023,0.012,0.043,0.017,0.057,0.021c0.018,0.006,0.035,0.01,0.051,0.02h0.008c0,0.008,0.004,0.011,0.02,0.011
			c0,0.005,0.004,0.008,0.008,0.008l0.008,0.009c0.004,0,0.01,0.002,0.018,0.004l0.016,0.021h0.006
			c0.027,0.019,0.049,0.036,0.064,0.062l0.016,0.018l0.014,0.016c0,0.006,0.002,0.008,0.008,0.008c0.002,0,0.004,0.006,0.004,0.01
			l0.01,0.01l0.008,0.008c0,0.003,0.004,0.008,0.008,0.014c0,0.012,0.002,0.014,0.008,0.014c0,0.006,0.002,0.009,0.002,0.015
			l1,1.964l1-1.964c0-0.011,0.006-0.017,0.012-0.026c0.006-0.006,0.008-0.01,0.008-0.014c0.002,0,0.008-0.005,0.008-0.005
			l0.006-0.013c0-0.004,0.004-0.012,0.01-0.018l0.021-0.016l0.014-0.018c0.018-0.025,0.037-0.045,0.061-0.062l0.02-0.021h0.01
			c0.004-0.002,0.012-0.004,0.016-0.004l0.008-0.008c0.002,0,0.006-0.004,0.006-0.009c0.012,0,0.016-0.003,0.016-0.011h0.012
			c0.01-0.01,0.021-0.014,0.037-0.02c0.02-0.006,0.029-0.006,0.041-0.011c0.012,0,0.021-0.009,0.025-0.011h0.014h0.012h0.014
			c0-0.002,0.002-0.006,0.01-0.006h0.018h0.016h0.025h0.02h0.025c0.008,0,0.018,0.004,0.021,0.006h0.014h0.018l0.01,0.011h0.018
			h0.008l0.016,0.005c0.008,0,0.01,0,0.014,0.006c0,0,0.008,0.006,0.012,0.006c0.006,0,0.012,0,0.018,0.008h0.01
			c0.006,0.006,0.01,0.006,0.016,0.006v0.011c0.012,0,0.018,0.005,0.021,0.009c0.008,0.004,0.012,0.008,0.02,0.008l0.008,0.004
			l0.006,0.012c0.006,0,0.012,0.004,0.018,0.009l0.018,0.019c0.01,0,0.014,0.004,0.014,0.016c0.029,0.016,0.051,0.035,0.064,0.062
			l0.016,0.016v0.011c0.006,0.003,0.012,0.008,0.012,0.015c0.006,0,0.008,0.002,0.008,0.008l0.006,0.012
			c0,0.004,0.004,0.01,0.01,0.016c0.01,0.025,0.02,0.055,0.033,0.09c0,0.008,0,0.018,0.006,0.021v0.014v0.012
			c0,0.004,0.004,0.01,0.01,0.014v0.009v0.011v0.021v0.021v5.266h-0.041V41.154z"/>
		<path fill="#BD7221" d="M38.462,35.416c0.141,0,0.254,0.045,0.346,0.137c0.088,0.094,0.133,0.209,0.133,0.338v5.266
			c0,0.131-0.045,0.242-0.133,0.34c-0.092,0.093-0.205,0.137-0.346,0.137c-0.129,0-0.242-0.044-0.336-0.137
			c-0.094-0.098-0.141-0.209-0.141-0.34V35.89c0-0.129,0.047-0.244,0.141-0.338C38.218,35.46,38.333,35.416,38.462,35.416z"/>
		<path fill="#BD7221" d="M42.957,40.818c0.088,0.092,0.135,0.205,0.135,0.336c0,0.133-0.047,0.244-0.135,0.342
			c-0.092,0.092-0.205,0.136-0.344,0.136h-2.074c-0.133,0-0.242-0.044-0.34-0.136c-0.092-0.098-0.139-0.209-0.139-0.342V35.89
			c0-0.13,0.047-0.244,0.139-0.339c0.098-0.093,0.207-0.136,0.34-0.136s0.244,0.043,0.338,0.136
			c0.094,0.095,0.141,0.209,0.141,0.339v4.789h1.6C42.751,40.679,42.865,40.726,42.957,40.818z"/>
		<path fill="#BD7221" d="M46.792,40.81c0.092,0.094,0.139,0.203,0.139,0.34c0,0.129-0.047,0.24-0.139,0.338
			c-0.094,0.09-0.205,0.14-0.338,0.14h-1.949c-0.131,0-0.244-0.05-0.336-0.14c-0.096-0.098-0.143-0.209-0.143-0.338v-5.266
			c0-0.133,0.047-0.246,0.143-0.337c0.092-0.093,0.205-0.14,0.336-0.14h1.949c0.133,0,0.244,0.047,0.338,0.14
			c0.092,0.091,0.139,0.204,0.139,0.337c0,0.137-0.047,0.252-0.139,0.344c-0.094,0.086-0.205,0.133-0.338,0.133h-1.471v2.004h1.018
			c0.133,0,0.244,0.049,0.338,0.14c0.094,0.093,0.141,0.207,0.141,0.341c0,0.131-0.047,0.245-0.141,0.338
			c-0.094,0.094-0.205,0.139-0.338,0.139h-1.018v1.354h1.471C46.587,40.671,46.699,40.715,46.792,40.81z"/>
		<path fill="#BD7221" d="M50.347,38.714c0.314,0.396,0.475,0.852,0.475,1.373c0,0.168-0.02,0.312-0.057,0.441
			c-0.035,0.127-0.076,0.242-0.127,0.349c-0.049,0.097-0.105,0.188-0.17,0.263c-0.062,0.072-0.127,0.139-0.189,0.191
			c-0.299,0.234-0.654,0.355-1.08,0.355c-0.207,0-0.398-0.027-0.582-0.09c-0.182-0.057-0.338-0.146-0.479-0.268
			c-0.057-0.053-0.117-0.107-0.178-0.184c-0.062-0.076-0.117-0.164-0.168-0.265c-0.051-0.103-0.092-0.22-0.123-0.354
			c-0.031-0.131-0.049-0.279-0.049-0.449c0-0.137,0.047-0.248,0.141-0.336c0.092-0.096,0.205-0.143,0.338-0.143
			c0.139,0,0.252,0.047,0.342,0.143c0.092,0.088,0.139,0.199,0.139,0.336c0,0.072,0.008,0.148,0.02,0.229
			c0.01,0.073,0.041,0.146,0.082,0.209c0.043,0.062,0.105,0.115,0.189,0.154c0.082,0.039,0.188,0.061,0.328,0.061
			c0.098,0,0.186-0.008,0.268-0.033c0.08-0.025,0.15-0.061,0.209-0.109c0.127-0.109,0.191-0.275,0.191-0.502
			c0-0.162-0.021-0.303-0.064-0.43c-0.041-0.119-0.105-0.231-0.186-0.338c-0.08-0.103-0.188-0.201-0.305-0.293
			c-0.121-0.094-0.254-0.189-0.398-0.301c-0.143-0.09-0.275-0.191-0.41-0.299c-0.137-0.1-0.262-0.223-0.375-0.35
			c-0.141-0.172-0.244-0.348-0.314-0.531c-0.074-0.186-0.109-0.383-0.109-0.602c0-0.029,0-0.088,0.004-0.174
			c0.004-0.088,0.016-0.182,0.039-0.291c0.025-0.113,0.066-0.232,0.119-0.354c0.057-0.12,0.137-0.24,0.244-0.35
			c0.088-0.104,0.227-0.199,0.404-0.295c0.184-0.098,0.414-0.145,0.699-0.145c0.293,0,0.52,0.05,0.693,0.146
			c0.176,0.1,0.307,0.201,0.396,0.301c0.104,0.119,0.176,0.252,0.229,0.386c0.049,0.133,0.08,0.256,0.1,0.372
			c0.016,0.113,0.02,0.211,0.016,0.297c-0.006,0.087-0.014,0.135-0.016,0.15c-0.02,0.096-0.049,0.176-0.098,0.238
			c-0.041,0.059-0.1,0.109-0.17,0.145c-0.072,0.045-0.168,0.051-0.289,0.023c-0.119-0.023-0.203-0.061-0.26-0.117
			c-0.057-0.055-0.092-0.115-0.113-0.17c-0.02-0.062-0.023-0.121-0.021-0.168c0.002-0.045,0.002-0.078,0.002-0.086
			c0.006-0.023,0.01-0.051,0.01-0.09c0-0.033-0.006-0.072-0.012-0.119c-0.008-0.039-0.02-0.084-0.035-0.127
			c-0.016-0.039-0.039-0.078-0.061-0.107c-0.064-0.082-0.189-0.119-0.367-0.119c-0.146,0-0.242,0.016-0.297,0.051
			c-0.061,0.042-0.092,0.068-0.107,0.081c-0.039,0.037-0.064,0.081-0.084,0.125c-0.02,0.054-0.033,0.099-0.043,0.149
			c-0.012,0.045-0.018,0.08-0.021,0.121c-0.002,0.035-0.004,0.06-0.004,0.076v0.014v0.017c0,0.104,0.02,0.2,0.057,0.291
			c0.037,0.089,0.09,0.167,0.156,0.245c0.064,0.078,0.148,0.156,0.25,0.229c0.102,0.08,0.215,0.16,0.342,0.252
			c0.148,0.106,0.301,0.221,0.457,0.344S50.216,38.556,50.347,38.714z"/>
		<g>
			<path fill="#BD7221" d="M21.271,46.894c0.057,0.059,0.086,0.125,0.086,0.209c0,0.078-0.029,0.146-0.086,0.209
				c-0.057,0.053-0.125,0.084-0.207,0.084h-0.107l0.053,0.092c0.041,0.068,0.051,0.143,0.033,0.219
				c-0.023,0.078-0.068,0.141-0.141,0.18c-0.045,0.023-0.094,0.041-0.146,0.041c-0.049,0-0.096-0.018-0.143-0.041
				c-0.047-0.023-0.084-0.057-0.109-0.107l-0.051-0.094L20.4,47.779c-0.023,0.051-0.062,0.084-0.107,0.107
				c-0.047,0.023-0.094,0.041-0.146,0.041c-0.051,0-0.098-0.018-0.146-0.041c-0.07-0.039-0.117-0.1-0.139-0.176
				c-0.02-0.078-0.01-0.15,0.033-0.223l0.055-0.092h-0.109c-0.08,0-0.15-0.031-0.205-0.084c-0.059-0.062-0.088-0.131-0.088-0.209
				c0-0.084,0.029-0.15,0.088-0.209c0.055-0.06,0.125-0.086,0.205-0.086h0.104l-0.049-0.089c-0.043-0.071-0.053-0.146-0.033-0.222
				c0.021-0.082,0.064-0.141,0.135-0.18c0.072-0.041,0.146-0.055,0.223-0.027c0.078,0.021,0.141,0.062,0.178,0.141l0.051,0.086
				l0.057-0.086c0.039-0.076,0.098-0.117,0.176-0.141c0.076-0.025,0.152-0.014,0.223,0.021c0.07,0.043,0.113,0.104,0.135,0.186
				c0.02,0.074,0.012,0.146-0.027,0.218l-0.053,0.093h0.107C21.146,46.808,21.214,46.835,21.271,46.894z"/>
			<path fill="#BD7221" d="M21.859,46.171c0.084,0,0.154,0.025,0.209,0.084s0.082,0.125,0.082,0.209v3.225
				c0,0.084-0.027,0.152-0.082,0.209s-0.125,0.088-0.209,0.088c-0.082,0-0.15-0.031-0.209-0.088
				c-0.055-0.057-0.082-0.125-0.082-0.209v-3.225c0-0.084,0.027-0.15,0.082-0.209C21.709,46.197,21.777,46.171,21.859,46.171z"/>
			<path fill="#BD7221" d="M24.4,46.171c0.08,0,0.149,0.025,0.207,0.084c0.056,0.059,0.086,0.125,0.086,0.209v3.223v0.02v0.016
				v0.002v0.014l-0.006,0.004v0.006v0.006v0.012c-0.005,0.004-0.005,0.004-0.005,0.01v0.006c0,0-0.002,0.002-0.004,0.002
				c0,0-0.004,0-0.004,0.006c0,0.009,0,0.009,0,0.013c-0.004,0-0.004,0-0.004,0.005c0,0,0,0.006-0.002,0.006
				s-0.002,0.006-0.002,0.006c0,0.004-0.002,0.008-0.004,0.008s-0.002,0-0.002,0.006v0.004c-0.002,0-0.004,0-0.004,0.004
				l-0.004,0.002c0,0.008-0.004,0.008-0.006,0.014l-0.006,0.002v0.008c-0.004,0-0.004,0-0.004,0.002
				c0,0.008-0.002,0.008-0.006,0.008c0,0.005,0,0.011-0.002,0.011c-0.004,0-0.004,0-0.004,0h-0.002c0,0-0.002,0.009-0.007,0.015
				l-0.008,0.008l-0.011,0.012l-0.01,0.008h-0.006l-0.01,0.01c-0.002,0.002-0.006,0.008-0.01,0.008c0,0,0,0-0.004,0l-0.006,0.006
				c-0.002,0-0.004,0-0.004,0c0,0.006,0,0.006-0.006,0.006H24.54l-0.009,0.011c-0.019,0.009-0.026,0.013-0.036,0.017
				c-0.009,0-0.023,0.006-0.039,0.006c-0.015,0.006-0.031,0.012-0.058,0.012c-0.021,0-0.035-0.006-0.048-0.012h-0.008h-0.004
				c-0.004,0-0.006,0-0.006,0h-0.018v-0.006h-0.012c-0.014-0.008-0.021-0.01-0.023-0.01c-0.004,0-0.004-0.002-0.004-0.007h-0.004
				c-0.006,0-0.008,0-0.008-0.009c-0.004,0-0.006-0.002-0.01-0.002c-0.002,0-0.006,0-0.006-0.006h-0.004c-0.005,0-0.007,0-0.007,0
				c0-0.004,0-0.006-0.002-0.006c-0.037-0.022-0.067-0.055-0.09-0.092v-0.008c-0.002,0-0.005,0-0.005,0l-0.006-0.006v-0.012
				c-0.002-0.004-0.004-0.008-0.004-0.01c0,0-0.004-0.008-0.004-0.01l-0.834-1.929v1.812c0,0.084-0.029,0.152-0.086,0.209
				c-0.059,0.057-0.125,0.088-0.209,0.088c-0.08,0-0.15-0.031-0.205-0.088c-0.057-0.057-0.088-0.125-0.088-0.209v-3.219v-0.023
				v-0.014v-0.002v-0.014l0.008-0.006v-0.006v-0.012v-0.004c0.004-0.004,0.006-0.008,0.006-0.008v-0.006c0-0.002,0-0.006,0-0.006
				c0.002,0,0.002,0,0.002-0.004c0-0.008,0-0.012,0.002-0.012c0.005,0,0.007-0.004,0.007-0.004c0-0.009,0-0.009,0-0.009
				c0.002-0.002,0.004-0.004,0.004-0.008c0,0,0-0.009,0.002-0.009s0.002-0.002,0.002-0.002V46.32l0.011-0.012
				c0,0,0-0.002,0.002-0.002s0.002-0.002,0.002-0.002l0.004-0.008v-0.004c0.004-0.002,0.006-0.006,0.006-0.008h0.006
				c0,0,0-0.006,0.004-0.006c0,0,0.002-0.004,0.002-0.006h0.006c0,0,0-0.008,0.002-0.015l0.01-0.011v0.005
				c0.004,0,0.006-0.005,0.008-0.007v-0.002c0.004,0,0.008-0.004,0.013-0.01h0.004l0.013-0.008l0.008-0.01h0.004
				c0,0,0.004-0.002,0.008-0.002c0.002,0,0.004,0,0.004-0.004c0,0,0-0.002,0.004-0.002h0.007l0.009-0.014
				c0.026-0.012,0.047-0.021,0.069-0.023h0.006c0.017-0.002,0.041-0.002,0.074-0.002h0.012h0.009l0.004,0.002h0.01h0.006h0.008
				c0,0.006,0,0.008,0.004,0.008h0.012h0.004c0,0.006,0.004,0.006,0.012,0.006c0.003,0.002,0.007,0.002,0.013,0.002
				c0.004,0.004,0.007,0.004,0.011,0.004h0.004c0,0.004,0.006,0.004,0.014,0.004v0.008c0.004,0,0.008,0.004,0.008,0.008h0.004
				c0.004,0,0.004,0,0.004,0c0,0.006,0.004,0.006,0.008,0.006l0.004,0.002l0.004,0.004l0.006,0.008h0.004
				c0.003,0.002,0.009,0.002,0.013,0.002v0.006c0,0,0.004,0,0.004,0.006c0,0,0.005,0.002,0.007,0.002v0.004c0.002,0,0.004,0,0.004,0
				s0.002,0.005,0.006,0.005v0.004l0.008,0.011l0.012,0.014l0.008,0.01c0,0.004,0.004,0.006,0.008,0.008
				c0.002,0,0.002,0,0.002,0.006c0,0,0.002,0.006,0.006,0.006c0,0.006,0,0.008,0.006,0.008v0.006
				c0.002,0.006,0.005,0.006,0.005,0.013h0.006c0,0.009,0,0.011,0,0.013c0.004,0,0.004,0.004,0.004,0.006l0.832,1.928v-1.812
				c0-0.084,0.03-0.15,0.086-0.209C24.249,46.197,24.318,46.171,24.4,46.171z"/>
			<path fill="#BD7221" d="M29.158,46.404c0.067,0.063,0.138,0.156,0.201,0.274c0.063,0.119,0.097,0.276,0.097,0.474v1.85
				c0,0.195-0.031,0.352-0.097,0.475c-0.063,0.117-0.134,0.209-0.201,0.271c-0.172,0.158-0.375,0.236-0.606,0.236h-0.367h-0.268
				c-0.082,0-0.152-0.029-0.209-0.086c-0.058-0.058-0.084-0.125-0.084-0.209v-3.226c0-0.084,0.026-0.151,0.084-0.209
				c0.057-0.06,0.127-0.084,0.209-0.084h0.268h0.367C28.783,46.171,28.986,46.248,29.158,46.404z M28.872,47.152
				c0-0.09-0.015-0.156-0.037-0.209c-0.023-0.055-0.054-0.094-0.088-0.121c-0.033-0.027-0.068-0.049-0.107-0.055
				c-0.037-0.011-0.066-0.015-0.088-0.015H28.21v2.646h0.342c0.021,0,0.051-0.004,0.088-0.013c0.039-0.008,0.074-0.022,0.107-0.056
				c0.034-0.026,0.062-0.064,0.088-0.121c0.022-0.047,0.037-0.122,0.037-0.209V47.152z"/>
			<path fill="#BD7221" d="M30.306,46.171c0.086,0,0.154,0.025,0.211,0.084c0.053,0.059,0.08,0.125,0.08,0.209v3.225
				c0,0.084-0.027,0.152-0.08,0.209c-0.057,0.057-0.125,0.088-0.211,0.088c-0.08,0-0.152-0.031-0.207-0.088
				c-0.057-0.057-0.084-0.125-0.084-0.209v-3.225c0-0.084,0.027-0.15,0.084-0.209C30.152,46.197,30.226,46.171,30.306,46.171z"/>
			<path fill="#BD7221" d="M32.859,49.677c0.02,0.08,0.004,0.154-0.041,0.221c-0.045,0.067-0.105,0.105-0.188,0.123
				c-0.012,0.006-0.033,0.006-0.053,0.006c-0.07,0-0.131-0.021-0.188-0.063c-0.051-0.048-0.086-0.104-0.104-0.166l-0.102-0.5h-0.52
				l-0.105,0.5c-0.014,0.062-0.047,0.118-0.1,0.166c-0.053,0.043-0.115,0.063-0.182,0.063c-0.027,0-0.047,0-0.059-0.006
				c-0.082-0.018-0.146-0.057-0.188-0.123c-0.047-0.066-0.06-0.141-0.043-0.221l0.647-3.227v-0.006v-0.008
				c0-0.004,0.002-0.004,0.004-0.004l0,0v-0.011v-0.007c0.005-0.002,0.007-0.006,0.007-0.006c0-0.006,0-0.008,0.002-0.008
				c0,0,0.004,0,0.004-0.006v-0.004c0.011-0.029,0.022-0.051,0.043-0.068v-0.006c0.002,0,0.004,0,0.004,0
				c0-0.006,0.003-0.006,0.007-0.006V46.31l0.006-0.006l0.006-0.004l0.004-0.006l0.004-0.006l0.004-0.002l0.012-0.006
				c0.02-0.023,0.043-0.035,0.066-0.047h0.004c0.006-0.004,0.008-0.006,0.012-0.006c0.016-0.006,0.031-0.011,0.045-0.011
				c0.01-0.004,0.026-0.004,0.043-0.006h0.004h0.012h0.009c0.017,0.002,0.03,0.002,0.043,0.006c0.017,0,0.028,0.005,0.045,0.011
				c0.005,0,0.009,0.002,0.013,0.006h0.004c0.024,0.012,0.047,0.022,0.065,0.047c0.005,0,0.009,0.004,0.013,0.006l0.004,0.002
				l0.004,0.006l0.006,0.006l0.004,0.004l0.006,0.006l0.007,0.002l0.006,0.006v0.006c0.019,0.021,0.033,0.039,0.045,0.068v0.004
				c0,0.006,0,0.006,0.003,0.006c0,0,0.002,0.002,0.002,0.006c0.004,0.021,0.008,0.033,0.008,0.041L32.859,49.677z M31.931,47.992
				l-0.15,0.721h0.292L31.931,47.992z"/>
			<path fill="#BD7221" d="M35.527,49.689c0,0.084-0.025,0.151-0.088,0.209c-0.055,0.057-0.125,0.088-0.205,0.088
				c-0.082,0-0.148-0.031-0.209-0.088c-0.055-0.058-0.084-0.125-0.084-0.209v-2.008l-0.305,0.605
				c-0.027,0.068-0.076,0.123-0.143,0.156c-0.043,0.019-0.08,0.025-0.123,0.025h-0.004h-0.004h-0.008h-0.004
				c-0.041,0-0.082-0.008-0.123-0.025c-0.066-0.033-0.115-0.088-0.141-0.156l-0.309-0.605v2.008c0,0.084-0.025,0.151-0.086,0.209
				c-0.057,0.057-0.129,0.088-0.207,0.088c-0.082,0-0.146-0.031-0.207-0.088c-0.059-0.058-0.084-0.125-0.084-0.209v-3.226v-0.021
				v-0.012v-0.004v-0.006c0,0,0-0.006,0.002-0.006h0.004v-0.008v-0.012v-0.008c0.004,0,0.004-0.005,0.004-0.005
				c0.006-0.021,0.01-0.039,0.02-0.056c0-0.008,0.004-0.008,0.004-0.008c0.002,0,0.002,0,0.002-0.004l0.006-0.006l0.006-0.002
				c0-0.006,0.002-0.012,0.004-0.012v-0.006l0.008-0.008c0.008-0.008,0.014-0.014,0.018-0.023c0.004-0.004,0.016-0.01,0.021-0.018
				L33.3,46.23h0.004c0-0.002,0.002-0.004,0.004-0.004c0,0,0,0,0-0.004h0.006c0.004-0.005,0.008-0.009,0.01-0.009
				c0-0.002,0.002-0.002,0.008-0.002l0.004-0.003l0.012-0.006c0.002-0.006,0.006-0.01,0.01-0.01l0.006-0.004
				c0.004,0,0.006,0,0.01-0.006c0.004,0,0.006,0,0.008,0c0,0,0.004-0.002,0.006-0.002c0.006,0,0.008,0,0.008-0.004
				c0.002,0,0.006,0,0.008,0c0.004,0,0.006,0,0.012-0.004h0.002h0.012l0.004-0.008h0.004h0.012h0.008
				c0-0.004,0.004-0.004,0.008-0.004h0.004h0.014h0.018h0.016h0.01h0.004c0.006,0,0.008,0,0.014,0.004h0.008h0.008h0.008
				c0.014,0.01,0.023,0.012,0.033,0.012c0.01,0.004,0.021,0.006,0.029,0.012h0.006c0,0.002,0.002,0.006,0.01,0.006
				c0,0.002,0,0.008,0.004,0.008l0.006,0.006c0.002,0,0.006,0,0.012,0.003l0.01,0.011h0.004c0.016,0.008,0.031,0.02,0.041,0.036
				l0.008,0.015l0.008,0.01c0,0.004,0.002,0.004,0.002,0.004c0.006,0,0.006,0.002,0.006,0.004l0.008,0.006l0.004,0.006
				c0,0,0,0.006,0.004,0.008c0,0.006,0.002,0.006,0.004,0.008s0.002,0.002,0.002,0.01l0.615,1.205l0.609-1.205
				c0-0.008,0.004-0.012,0.008-0.018c0.006-0.002,0.006-0.006,0.006-0.006c0.004-0.002,0.006-0.008,0.006-0.008l0.004-0.006
				c0-0.002,0-0.004,0.004-0.008l0.008-0.01l0.014-0.015c0.01-0.017,0.02-0.028,0.041-0.036l0.008-0.011h0.006
				c0.002-0.003,0.006-0.003,0.01-0.003l0.006-0.006c0.002,0,0.006-0.006,0.006-0.008c0.006,0,0.01-0.004,0.01-0.006h0.004
				c0.006-0.006,0.014-0.008,0.021-0.012c0.014,0,0.021,0,0.025-0.004c0.008,0,0.012-0.004,0.014-0.008h0.01h0.006h0.014
				c0-0.004,0-0.004,0.004-0.004h0.01h0.008h0.018h0.016h0.014c0.01,0,0.012,0,0.016,0.004h0.012h0.008l0.01,0.008h0.008h0.006
				l0.008,0.004c0.004,0,0.008,0,0.008,0c0.002,0.004,0.004,0.004,0.008,0.004c0.002,0,0.01,0.002,0.014,0.002h0.004
				c0.002,0.006,0.004,0.006,0.01,0.006v0.004c0.006,0,0.01,0.004,0.014,0.01c0.006,0.002,0.008,0.006,0.014,0.006l0.004,0.003
				l0.004,0.002c0.004,0,0.008,0.004,0.01,0.009l0.01,0.008c0.01,0,0.012,0.006,0.012,0.012c0.018,0.008,0.027,0.023,0.039,0.041
				l0.01,0.008v0.006c0.004,0,0.004,0.006,0.004,0.012c0.002,0,0.006,0,0.006,0l0.004,0.008c0,0.004,0.004,0.004,0.006,0.012
				c0.008,0.017,0.016,0.031,0.021,0.056c0,0.005,0.002,0.013,0.006,0.013v0.012v0.006c0,0,0,0.004,0.004,0.008v0.008v0.002v0.014
				v0.021v3.224H35.527z"/>
			<path fill="#BD7221" d="M37.738,49.48c0.059,0.059,0.086,0.127,0.086,0.207c0,0.078-0.027,0.145-0.086,0.207
				c-0.057,0.053-0.125,0.08-0.207,0.08h-1.193c-0.08,0-0.152-0.027-0.207-0.08c-0.059-0.062-0.086-0.129-0.086-0.207v-3.23
				c0-0.077,0.027-0.148,0.086-0.207c0.055-0.059,0.127-0.09,0.207-0.09h1.193c0.082,0,0.15,0.031,0.207,0.09
				c0.059,0.059,0.086,0.13,0.086,0.207c0,0.087-0.027,0.156-0.086,0.209c-0.057,0.059-0.125,0.08-0.207,0.08h-0.9v1.23h0.625
				c0.08,0,0.146,0.028,0.209,0.09c0.053,0.059,0.082,0.125,0.082,0.207c0,0.08-0.029,0.146-0.082,0.205
				c-0.062,0.061-0.129,0.088-0.209,0.088H36.63v0.828h0.9C37.613,49.394,37.681,49.423,37.738,49.48z"/>
			<path fill="#BD7221" d="M40.121,46.255c0.055,0.059,0.084,0.131,0.084,0.215c0,0.078-0.029,0.145-0.084,0.203
				c-0.061,0.059-0.125,0.088-0.209,0.088h-0.453v2.926c0,0.078-0.029,0.146-0.086,0.207c-0.059,0.053-0.127,0.08-0.207,0.08
				c-0.082,0-0.15-0.027-0.207-0.08c-0.057-0.061-0.086-0.129-0.086-0.207v-2.926h-0.465c-0.076,0-0.148-0.029-0.203-0.088
				c-0.061-0.059-0.09-0.125-0.09-0.203c0-0.084,0.029-0.156,0.09-0.215c0.055-0.055,0.127-0.08,0.203-0.08h1.504
				C39.996,46.175,40.06,46.201,40.121,46.255z"/>
			<path fill="#BD7221" d="M42.228,49.48c0.055,0.059,0.084,0.127,0.084,0.207c0,0.078-0.029,0.145-0.084,0.207
				c-0.057,0.053-0.125,0.08-0.207,0.08h-1.193c-0.082,0-0.15-0.027-0.207-0.08c-0.057-0.062-0.09-0.129-0.09-0.207v-3.23
				c0-0.077,0.033-0.148,0.09-0.207s0.125-0.09,0.207-0.09h1.193c0.082,0,0.15,0.031,0.207,0.09c0.055,0.059,0.084,0.13,0.084,0.207
				c0,0.087-0.029,0.156-0.084,0.209c-0.057,0.059-0.125,0.08-0.207,0.08h-0.898v1.23h0.623c0.078,0,0.148,0.028,0.207,0.09
				c0.057,0.059,0.086,0.125,0.086,0.207c0,0.08-0.029,0.146-0.086,0.205c-0.059,0.061-0.129,0.088-0.207,0.088h-0.623v0.828h0.898
				C42.103,49.394,42.173,49.423,42.228,49.48z"/>
			<path fill="#BD7221" d="M44.757,49.572c0.037,0.07,0.039,0.145,0.008,0.223c-0.029,0.07-0.082,0.129-0.158,0.16
				c-0.039,0.016-0.076,0.02-0.115,0.02c-0.057,0-0.105-0.012-0.156-0.041s-0.086-0.076-0.111-0.131l-0.543-1.236H43.39v1.121
				c0,0.078-0.029,0.146-0.086,0.207c-0.057,0.053-0.127,0.08-0.207,0.08c-0.082,0-0.15-0.027-0.207-0.08
				c-0.057-0.061-0.086-0.129-0.086-0.207V46.47c0-0.084,0.029-0.154,0.086-0.209c0.057-0.059,0.125-0.086,0.207-0.086h0.707
				c0.123,0,0.242,0.035,0.354,0.105c0.115,0.068,0.219,0.168,0.303,0.299c0.145,0.229,0.219,0.494,0.219,0.791
				c0,0.143-0.021,0.281-0.055,0.412c-0.039,0.131-0.094,0.26-0.164,0.373c-0.033,0.051-0.066,0.092-0.104,0.133
				c-0.039,0.039-0.07,0.074-0.107,0.105L44.757,49.572z M43.8,47.976c0.016,0,0.039-0.009,0.066-0.029
				c0.027-0.019,0.059-0.057,0.094-0.107c0.043-0.066,0.076-0.143,0.096-0.221c0.021-0.08,0.031-0.164,0.031-0.248
				c0-0.086-0.01-0.168-0.031-0.25c-0.02-0.082-0.053-0.158-0.096-0.225c-0.035-0.047-0.066-0.08-0.094-0.105
				c-0.027-0.023-0.051-0.03-0.066-0.03h-0.414v1.218H43.8V47.976z"/>
		</g>
	</g>
</g>
</svg>
