<?xml version="1.0" encoding="utf-8"?>
<!-- Generator: Adobe Illustrator 16.0.0, SVG Export Plug-In . SVG Version: 6.00 Build 0)  -->
<!DOCTYPE svg PUBLIC "-//W3C//DTD SVG 1.1//EN" "http://www.w3.org/Graphics/SVG/1.1/DTD/svg11.dtd">
<svg version="1.1" id="Layer_1" xmlns="http://www.w3.org/2000/svg" xmlns:xlink="http://www.w3.org/1999/xlink" x="0px" y="0px"
	 width="574px" height="756px" viewBox="44.127 -32.763 574 756" enable-background="new 44.127 -32.763 574 756"
	 xml:space="preserve">
<g id="Layer_1_1_">
</g>
<g id="Layer_5">
</g>
<g id="Layer_2">
</g>
<g id="neptune">
</g>
<g id="uranus">
</g>
<g id="saturn">
</g>
<g id="jupiter">
</g>
<g id="Layer_14">
</g>
<g id="mars">
</g>
<g id="venus">
</g>
<g id="mercury">
</g>
<g id="earth">
</g>
<g id="Layer_6">
</g>
<rect x="183.642" y="643.135" fill="none" width="260.495" height="103.289"/>
<text transform="matrix(1 0 0 1 188.1343 704.8101)" fill="#005700" font-family="'MenschBold'" font-size="80.4075">JUPITER</text>
<g>
	<g>
		<path fill="#005700" d="M603.977,334.704c10.822,143.428-116.064,279.113-263.432,279.113
			c-147.363,0-270.224-131.748-270.224-279.113c0,0-3.952-281.308,236.203-289.609C306.525,45.095,577.974-9.808,603.977,334.704z"
			/>
		<path fill="#449300" d="M409.045,603.973l56.02-100.846l-48.332-26.983l39.336-58.489l-33.247-45.408l41.664-68.141
			l-24.358-41.062v-54.168l-40.138-27.964l16.206-44.672l-25.982-18.241l49.054-10.486l1.407-48.738c0,0,46.729,16.033,84.14,57.564
			l-59.231,20.809l19.236,35.089h-27.085l25.341,37.541l-18.349,29.689l44.87,37.57l-27.398,60.4l21.85,55.809l-32.337,55.916
			l26.069,49.805l-25.189,43.697l16.292,22.538C488.882,565.203,453.234,591.989,409.045,603.973z"/>
		<path fill="#449300" d="M160.259,539.557l11.744-29.227l-19.222-38.445l19.222-35.829l-37.573-47.185l30.581-61.162
			l-25.337-12.238l27.957-50.675l-22.713-26.214l39.32-45.439l-32.337-23.593l6.748-67.224c0,0-24.915,22.523-43.723,56.288
			l26.491,29.286l-20.973,25.339l25.345,47.183l-34.077,22.723l15.725,51.553l-15.725,27.959l21.841,62.914l-16.601,24.468
			l24.465,34.952l-13.108,3.493l-8.57,3.441C119.74,491.925,140.471,522.059,160.259,539.557z"/>
		<path fill="#449300" d="M559.377,493.434l-23.002-25.921l9.57-26.214l-16.562-57.67l26.131-17.475l-26.131-48.932l13.063-41.943
			l-32.851-19.224l22.953-31.457l-18.895-20.096l7.756-28.833l-11.814-21.848l39.729-5.458c0,0,9.526,14.739,10.177,17.183
			c0.895,3.357-26.953,30.218-26.953,30.218l17.803,17.475l-17.803,42.816l35.283,30.582l-29.122,28.834l37.858,52.43
			l-27.085,19.225l10.484,58.545l-9.616,18.351l17.627,15.962C567.979,479.983,562.852,488.448,559.377,493.434z"/>
		<path fill="#449300" d="M209.85,577.165l75.567-74.693L232.295,481.5l36.318-134.355l-62.534-15.084l62.534-65.515l-52.046-41.389
			l65.368-73.603l-58.384,0.641l28.871-38.494l-50.915-42.12c28.349-16.553,62.786-23.319,91.473-25.712
			c12.149-1.012,22.307-2.185,29.618-2.9c8.131-0.795,12.657-0.844,12.657-0.844l-13.834,35.682l15.729,10.484l-15.729,30.577
			l42.775,17.371l-42.775,30.694l63.47,58.224l-12.83,20.418l34.908,59.187l-69.819,29.941l69.819,80.412L342.395,481.5
			l52.425,20.971l-64.443,111.135C330.376,613.606,269.426,613.606,209.85,577.165z"/>
	</g>
	<path fill="#005700" d="M295.597,45.813c0,0-15.586-6.854-4.038-28.024c8.455-15.5,20.184-11.09,7.703-34.967
		c-7.379-14.113,19.243-4.49,17.318,16.682s-16.672,25.021-13.473,32.72c3.203,7.699,9.436,11.928,9.436,11.928L295.597,45.813z"/>
</g>
</svg>
