<?xml version="1.0" encoding="utf-8"?>
<!-- Generator: Adobe Illustrator 16.0.0, SVG Export Plug-In . SVG Version: 6.00 Build 0)  -->
<!DOCTYPE svg PUBLIC "-//W3C//DTD SVG 1.1//EN" "http://www.w3.org/Graphics/SVG/1.1/DTD/svg11.dtd">
<svg version="1.1" id="Layer_1" xmlns="http://www.w3.org/2000/svg" xmlns:xlink="http://www.w3.org/1999/xlink" x="0px" y="0px"
	 width="574px" height="756px" viewBox="44.127 -32.763 574 756" enable-background="new 44.127 -32.763 574 756"
	 xml:space="preserve">
<g id="Layer_1_1_">
</g>
<g id="Layer_5">
</g>
<g id="Layer_2">
</g>
<g id="neptune">
</g>
<g id="uranus">
</g>
<g id="saturn">
</g>
<g id="jupiter">
</g>
<g id="Layer_14">
</g>
<g id="mars">
</g>
<g id="venus">
</g>
<g id="mercury">
</g>
<g id="earth">
</g>
<g id="Layer_6">
</g>
<rect x="183.642" y="643.135" fill="none" width="260.495" height="103.289"/>
<text transform="matrix(1 0 0 1 188.1343 704.8101)" fill="#005700" font-family="'MenschBold'" font-size="80.4075">JUPITER</text>
<g>
	<g>
		<path fill="#005700" d="M603.977,334.704c10.822,143.428-116.064,279.113-263.432,279.113
			c-147.363,0-270.224-131.748-270.224-279.113c0,0-3.952-281.308,236.203-289.609C306.525,45.095,577.974-9.808,603.977,334.704z"
			/>
		<path fill="#449300" d="M409.045,603.973l56.02-100.846l-48.332-26.983l39.336-58.489l-33.247-45.408l41.664-68.141
			l-24.358-41.062v-54.168l-40.138-27.964l16.206-44.672l-25.982-18.241l49.054-10.486l1.407-48.738c0,0,46.729,16.033,84.14,57.564
			l-59.231,20.809l19.236,35.089h-27.085l25.341,37.541l-18.349,29.689l44.87,37.57l-27.398,60.4l21.85,55.809l-32.337,55.916
			l26.069,49.805l-25.189,43.697l16.292,22.538C488.882,565.203,453.234,591.989,409.045,603.973z"/>
		<path fill="#449300" d="M160.259,539.557l11.744-29.227l-19.222-38.445l19.222-35.829l-37.573-47.185l30.581-61.162
			l-25.337-12.238l27.957-50.675l-22.713-26.214l39.32-45.439l-32.337-23.593l6.748-67.224c0,0-24.915,22.523-43.723,56.288
			l26.491,29.286l-20.973,25.339l25.345,47.183l-34.077,22.723l15.725,51.553l-15.725,27.959l21.841,62.914l-16.601,24.468
			l24.465,34.952l-13.108,3.493l-8.57,3.441C119.74,491.925,140.471,522.059,160.259,539.557z"/>
		<path fill="#449300" d="M559.377,493.434l-23.002-25.921l9.57-26.214l-16.562-57.67l26.131-17.475l-26.131-48.932l13.063-41.943
			l-32.851-19.224l22.953-31.457l-18.895-20.096l7.756-28.833l-11.814-21.848l39.729-5.458c0,0,9.526,14.739,10.177,17.183
			c0.895,3.357-26.953,30.218-26.953,30.218l17.803,17.475l-17.803,42.816l35.283,30.582l-29.122,28.834l37.858,52.43
			l-27.085,19.225l10.484,58.545l-9.616,18.351l17.627,15.962C567.979,479.983,562.852,488.448,559.377,493.434z"/>
		<path fill="#449300" d="M209.85,577.165l75.567-74.693L232.295,481.5l36.318-134.355l-62.534-15.084l62.534-65.515l-52.046-41.389
			l65.368-73.603l-58.384,0.641l28.871-38.494l-50.915-42.12c28.349-16.553,62.786-23.319,91.473-25.712
			c12.149-1.012,22.307-2.185,29.618-2.9c8.131-0.795,12.657-0.844,12.657-0.844l-13.834,35.682l15.729,10.484l-15.729,30.577
			l42.775,17.371l-42.775,30.694l63.47,58.224l-12.83,20.418l34.908,59.187l-69.819,29.941l69.819,80.412L342.395,481.5
			l52.425,20.971l-64.443,111.135C330.376,613.606,269.426,613.606,209.85,577.165z"/>
	</g>
	<path fill="#005700" d="M295.597,45.813c0,0-15.586-6.854-4.038-28.024c8.455-15.5,20.184-11.09,7.703-34.967
		c-7.379-14.113,19.243-4.49,17.318,16.682s-16.672,25.021-13.473,32.72c3.203,7.699,9.436,11.928,9.436,11.928L295.597,45.813z"/>
</g>
<g>
	<g>
		<path fill="#005700" d="M603.977,334.704c10.822,143.428-116.064,279.113-263.432,279.113
			c-147.363,0-270.224-131.748-270.224-279.113c0,0-3.952-281.308,236.203-289.609C306.525,45.095,577.974-9.808,603.977,334.704z"
			/>
	</g>
	<g>
		<path fill="#449300" d="M122.545,296.743c1.019,0,1.886,0.357,2.599,1.07s1.071,1.58,1.071,2.599c0,1.142-0.092,2.284-0.275,3.425
			c-0.184,1.143-0.622,2.182-1.314,3.119c-0.817,1.142-1.896,1.957-3.241,2.446c-1.101,0.407-2.446,0.611-4.038,0.611h-12.047
			c-1.021,0-1.887-0.356-2.6-1.07c-0.715-0.713-1.07-1.579-1.07-2.599c0-2.119,0.295-4.107,0.887-5.963
			c0.59-1.855,1.355-3.618,2.293-5.291c0.938-1.671,1.979-3.261,3.12-4.77c1.141-1.509,2.282-2.957,3.424-4.343
			c0.896-1.101,1.753-2.181,2.569-3.241c0.815-1.061,1.549-2.109,2.201-3.15c0.652-1.039,1.172-2.068,1.561-3.088
			c0.387-1.02,0.58-2.039,0.58-3.059v-0.244c0.04-0.326-0.01-0.876-0.152-1.651c-0.144-0.774-0.459-1.446-0.948-2.019
			c-0.123-0.122-0.408-0.314-0.855-0.58c-0.45-0.266-1.204-0.398-2.263-0.398c-1.429,0-2.386,0.287-2.875,0.856
			c-0.449,0.53-0.705,1.192-0.765,1.987c-0.062,0.796-0.071,1.275-0.03,1.438c0.163,1.02-0.062,1.938-0.674,2.752
			c-0.611,0.816-1.427,1.285-2.446,1.406c-1.019,0.164-1.925-0.061-2.722-0.672c-0.795-0.611-1.273-1.427-1.437-2.445
			c0-0.123-0.021-0.51-0.062-1.163c-0.041-0.651,0-1.416,0.123-2.294c0.121-0.875,0.355-1.824,0.703-2.843
			c0.345-1.019,0.927-1.997,1.743-2.936c0.692-0.815,1.713-1.59,3.058-2.324c1.346-0.734,3.139-1.101,5.383-1.101
			c2.201,0,3.984,0.357,5.351,1.07c1.365,0.714,2.394,1.458,3.088,2.232c0.774,0.856,1.386,1.764,1.835,2.722
			c0.447,0.958,0.765,1.855,0.948,2.691c0.183,0.836,0.284,1.58,0.307,2.232c0.021,0.652,0.029,1.101,0.029,1.345
			c0,1.673-0.244,3.263-0.733,4.771c-0.49,1.51-1.142,2.967-1.957,4.373c-0.816,1.406-1.734,2.773-2.752,4.098
			c-1.02,1.325-2.059,2.62-3.12,3.883c-1.63,1.999-3.149,3.967-4.556,5.902c-1.407,1.938-2.396,3.986-2.966,6.146h7.827
			c0.368,0,0.663-0.01,0.889-0.031c0.223-0.02,0.397-0.05,0.519-0.091c0.041-0.163,0.071-0.397,0.093-0.704
			c0.02-0.305,0.029-0.784,0.029-1.437c0-1.019,0.357-1.886,1.07-2.599S121.526,296.743,122.545,296.743z"/>
		<path fill="#449300" d="M154.654,285.428c0.489,0.855,0.876,1.723,1.161,2.599c0.284,0.878,0.499,1.712,0.644,2.508
			c0.142,0.795,0.243,1.528,0.306,2.201c0.061,0.673,0.09,1.254,0.09,1.743c0,0.816-0.071,2.029-0.213,3.639
			c-0.144,1.611-0.642,3.272-1.498,4.984c-1.061,2.04-2.528,3.629-4.403,4.771c-2.04,1.263-4.587,1.896-7.646,1.896
			c-3.058,0-5.545-0.652-7.461-1.956c-1.754-1.224-2.916-2.896-3.486-5.015c-0.244-0.979-0.102-1.906,0.428-2.783
			c0.53-0.877,1.285-1.438,2.263-1.682c0.979-0.246,1.907-0.112,2.784,0.396c0.877,0.511,1.436,1.275,1.681,2.295
			c0.041,0.285,0.204,0.529,0.49,0.732c0.203,0.123,0.55,0.266,1.039,0.429s1.243,0.245,2.263,0.245
			c2.324,0,3.975-0.602,4.954-1.805c0.979-1.202,1.468-3.252,1.468-6.146c0-0.489-0.072-1.264-0.214-2.324
			c-0.144-1.06-0.5-2.119-1.07-3.18c-0.165-0.326-0.389-0.662-0.673-1.01c-0.285-0.346-0.652-0.672-1.102-0.979
			c-0.449-0.306-0.998-0.551-1.65-0.733c-0.652-0.185-1.448-0.275-2.385-0.275h-6.178c-1.02,0-1.875-0.347-2.568-1.04
			c-0.734-0.733-1.102-1.609-1.102-2.629v-17.308c0-1.019,0.356-1.886,1.071-2.6c0.713-0.713,1.579-1.07,2.599-1.07h13.822
			c1.018,0,1.885,0.357,2.598,1.07c0.715,0.714,1.071,1.581,1.071,2.6s-0.356,1.886-1.071,2.6c-0.713,0.712-1.58,1.07-2.598,1.07
			h-10.152v9.969h2.508c2.975,0,5.544,0.673,7.704,2.018C152.043,281.84,153.552,283.43,154.654,285.428z"/>
		<path fill="#449300" d="M163.643,300.961c1.02,0,1.886,0.357,2.6,1.07c0.713,0.714,1.07,1.581,1.07,2.6
			c0,1.061-0.357,1.947-1.07,2.66c-0.714,0.715-1.58,1.07-2.6,1.07c-1.062,0-1.949-0.355-2.66-1.07c-0.713-0.713-1.07-1.6-1.07-2.66
			c0-1.019,0.357-1.886,1.07-2.6C161.694,301.319,162.582,300.961,163.643,300.961z"/>
		<path fill="#449300" d="M196.729,292.399c0.448,2.365,0.428,4.689-0.061,6.973c-0.285,1.264-0.693,2.457-1.223,3.578
			c-0.531,1.121-1.203,2.131-2.019,3.027c-0.612,0.693-1.284,1.305-2.019,1.835s-1.51,0.957-2.324,1.284
			c-1.551,0.611-3.18,0.917-4.893,0.917h-0.979c-2.731-0.163-5.159-0.999-7.277-2.507c-2.039-1.428-3.67-3.385-4.893-5.871
			c-1.918-4.077-2.731-9.275-2.447-15.596c0-2.365,0.266-4.525,0.796-6.483c0.528-1.957,1.212-3.7,2.049-5.229
			c0.834-1.528,1.752-2.874,2.752-4.035c0.999-1.162,1.987-2.15,2.966-2.967c1.02-0.856,2.019-1.59,2.997-2.202
			s1.864-1.11,2.66-1.498s1.446-0.673,1.956-0.857c0.511-0.183,0.827-0.295,0.949-0.336c0.652-0.204,1.284-0.264,1.896-0.183
			c0.53,0.082,1.06,0.285,1.59,0.611c0.53,0.327,0.958,0.897,1.285,1.712c0.325,0.856,0.366,1.59,0.122,2.202
			c-0.245,0.611-0.571,1.122-0.979,1.529c-0.449,0.449-1.04,0.836-1.773,1.162c-0.612,0.205-1.264,0.469-1.957,0.795
			c-0.571,0.285-1.224,0.664-1.957,1.131c-0.734,0.471-1.488,1.031-2.263,1.683c-3.631,3.18-5.526,7.196-5.688,12.048
			c0.938-0.652,2.069-1.202,3.395-1.65c1.325-0.449,2.863-0.674,4.617-0.674c1.385,0,2.631,0.144,3.731,0.429
			c1.101,0.286,2.079,0.663,2.935,1.132c0.857,0.469,1.591,0.979,2.201,1.528c0.611,0.55,1.143,1.091,1.592,1.621
			c0.814,1.101,1.376,2.12,1.682,3.058C196.454,291.502,196.647,292.115,196.729,292.399z M187.922,301.084
			c0.734-0.815,1.255-1.906,1.561-3.271c0.305-1.366,0.314-2.701,0.03-4.007v-0.062c-0.041-0.08-0.134-0.305-0.275-0.672
			c-0.144-0.367-0.397-0.774-0.765-1.224c-0.979-1.142-2.468-1.712-4.465-1.712c-2.12,0-3.853,0.693-5.198,2.079
			c-0.489,0.53-0.846,1.03-1.071,1.499c-0.224,0.469-0.356,0.744-0.396,0.824c-0.041,0.082-0.092,0.275-0.152,0.582
			c-0.062,0.306-0.072,0.662-0.031,1.07c0,0.326,0.071,0.744,0.214,1.254s0.276,0.887,0.398,1.131c0,0.082,0.02,0.144,0.06,0.184
			c1.224,2.446,3.182,3.752,5.872,3.914C185.497,302.797,186.904,302.267,187.922,301.084z"/>
		<path fill="#449300" d="M227.002,297.842c0.039,0.205,0.039,0.389,0,0.551v0.306c-0.163,2.813-0.979,5.117-2.447,6.911
			c-1.794,2.284-4.342,3.689-7.645,4.22c-0.773,0.163-1.691,0.245-2.752,0.245h-0.307h-0.243c-0.856,0-1.713-0.062-2.569-0.184
			c-3.424-0.571-6.055-1.997-7.89-4.281c-1.631-2.119-2.446-4.893-2.446-8.318c0-6.033,1.428-10.497,4.281-13.393l0.123-0.123
			c-0.816-1.018-1.448-2.303-1.896-3.852c-0.206-0.857-0.368-1.814-0.491-2.875c-0.121-1.061-0.183-2.283-0.183-3.67v-0.489
			c0-0.407,0.01-0.938,0.03-1.591c0.021-0.65,0.122-1.365,0.307-2.14c0.184-0.774,0.447-1.569,0.795-2.385
			c0.346-0.815,0.846-1.59,1.498-2.324c0.693-0.774,1.713-1.539,3.059-2.293c1.345-0.754,3.139-1.131,5.382-1.131h0.243h0.307
			c2.241,0,4.025,0.377,5.352,1.131c1.324,0.755,2.334,1.52,3.027,2.293c0.651,0.734,1.162,1.509,1.529,2.324
			c0.366,0.816,0.641,1.611,0.825,2.385s0.284,1.489,0.307,2.14c0.02,0.653,0.03,1.184,0.03,1.591c0,0.245-0.021,0.408-0.062,0.489
			c0,1.387-0.051,2.609-0.152,3.67s-0.274,2.018-0.52,2.875c-0.449,1.549-1.061,2.834-1.834,3.852l0.121,0.123
			c2.813,2.854,4.221,7.318,4.221,13.393V297.842z M219.663,297.292c0-3.994-0.713-6.767-2.141-8.316
			c-0.815-0.814-2.039-1.346-3.67-1.59c-1.672,0.244-2.873,0.775-3.607,1.59c-1.467,1.55-2.202,4.322-2.202,8.316v0.246
			c0.04,0.162,0.123,0.529,0.245,1.101c0.123,0.571,0.387,1.161,0.795,1.773c0.774,1.265,1.896,2.019,3.364,2.263
			c0.203,0,0.427,0.01,0.673,0.03c0.244,0.021,0.489,0.03,0.732,0.03c0.286,0,0.562-0.01,0.826-0.03s0.498-0.05,0.703-0.091
			c1.51-0.246,2.65-1,3.426-2.264c0.284-0.489,0.489-0.969,0.612-1.438c0.121-0.468,0.202-0.805,0.243-1.009V297.292z
			 M209.876,273.685c0,1.101,0.052,1.998,0.154,2.69c0.101,0.694,0.204,1.245,0.305,1.652c0.103,0.408,0.204,0.703,0.307,0.887
			c0.101,0.184,0.173,0.297,0.215,0.336c0.243,0.205,0.65,0.336,1.224,0.397c0.569,0.062,1.161,0.112,1.771,0.153
			c0.652-0.041,1.265-0.092,1.835-0.153c0.571-0.062,0.958-0.192,1.163-0.397c0.041-0.039,0.123-0.152,0.244-0.336
			c0.122-0.184,0.234-0.499,0.338-0.948c0.1-0.448,0.191-1.049,0.273-1.804c0.082-0.754,0.122-1.723,0.122-2.905
			c0-0.081,0.021-0.142,0.062-0.184v-0.306h-0.062l0.062-0.062c-0.041-0.407-0.133-0.948-0.275-1.62
			c-0.143-0.674-0.438-1.232-0.886-1.683c-0.124-0.122-0.389-0.315-0.796-0.581c-0.407-0.264-1.1-0.417-2.08-0.458
			c-0.938,0.041-1.609,0.194-2.018,0.458c-0.408,0.266-0.672,0.459-0.795,0.581c-0.449,0.45-0.754,1.009-0.918,1.683
			c-0.163,0.672-0.245,1.213-0.245,1.62v0.062C209.917,273.094,209.917,273.401,209.876,273.685z"/>
		<path fill="#449300" d="M287.733,297.231c0,0.123-0.012,0.52-0.031,1.193c-0.021,0.672-0.122,1.467-0.307,2.385
			c-0.182,0.917-0.499,1.906-0.946,2.967c-0.45,1.061-1.102,2.039-1.958,2.936c-0.693,0.773-1.723,1.527-3.088,2.262
			c-1.367,0.734-3.129,1.102-5.291,1.102c-2.161,0-3.904-0.367-5.229-1.102c-1.324-0.734-2.334-1.488-3.026-2.262
			c-0.816-0.896-1.447-1.855-1.896-2.875c-0.449-1.02-0.765-1.988-0.948-2.905s-0.275-1.732-0.275-2.446c0-0.713,0-1.213,0-1.498
			v-23.485c0-2.486,0.408-4.474,1.224-5.962c0.815-1.488,1.651-2.64,2.507-3.456c1.02-0.938,2.182-1.661,3.486-2.171
			c1.305-0.509,2.671-0.765,4.098-0.765c1.385,0,2.782,0.245,4.188,0.734c1.408,0.49,2.661,1.245,3.762,2.263
			c1.101,1.02,1.997,2.304,2.691,3.853c0.692,1.55,1.04,3.384,1.04,5.504c0,1.062-0.357,1.937-1.07,2.63
			c-0.715,0.693-1.58,1.04-2.6,1.04c-1.021,0-1.886-0.347-2.6-1.04s-1.069-1.568-1.069-2.63c0-1.101-0.154-1.978-0.459-2.63
			c-0.306-0.651-0.673-1.151-1.102-1.498c-0.428-0.346-0.897-0.582-1.406-0.703c-0.51-0.123-0.968-0.184-1.376-0.184
			c-0.285,0-0.653,0.052-1.102,0.152c-0.448,0.104-0.886,0.328-1.314,0.674c-0.428,0.347-0.795,0.846-1.1,1.498
			c-0.307,0.652-0.459,1.55-0.459,2.69v23.607v0.306c0,0.205,0,0.48,0,0.826s0.039,0.733,0.121,1.162
			c0.082,0.428,0.204,0.855,0.367,1.283c0.162,0.429,0.387,0.786,0.674,1.07c0.121,0.123,0.387,0.316,0.794,0.582
			s1.101,0.396,2.079,0.396c1.061,0,1.794-0.131,2.203-0.396c0.406-0.266,0.671-0.479,0.795-0.643
			c0.569-0.57,0.926-1.284,1.07-2.141c0.143-0.856,0.214-1.488,0.214-1.896c0-0.04,0-0.265,0-0.673s0.101-0.846,0.305-1.314
			s0.54-0.908,1.01-1.315c0.469-0.407,1.152-0.632,2.049-0.673c0.938-0.041,1.661,0.122,2.171,0.489
			c0.509,0.366,0.908,0.774,1.192,1.224C287.447,295.926,287.65,296.538,287.733,297.231z"/>
		<path fill="#449300" d="M315.589,303.194c0.713,0.715,1.07,1.58,1.07,2.6s-0.357,1.887-1.07,2.6
			c-0.714,0.713-1.58,1.07-2.599,1.07h-14.984c-1.02,0-1.887-0.357-2.6-1.07s-1.07-1.58-1.07-2.6v-40.487
			c0-1.019,0.357-1.885,1.07-2.599c0.713-0.713,1.58-1.07,2.6-1.07h14.984c1.019,0,1.885,0.357,2.599,1.07
			c0.713,0.714,1.07,1.58,1.07,2.599c0,1.061-0.357,1.938-1.07,2.63c-0.714,0.693-1.58,1.041-2.599,1.041h-11.315v15.41h7.829
			c1.02,0,1.885,0.358,2.6,1.071c0.713,0.714,1.07,1.58,1.07,2.599c0,1.02-0.357,1.887-1.07,2.6c-0.715,0.714-1.58,1.07-2.6,1.07
			h-7.829v10.396h11.315C314.009,302.124,314.875,302.481,315.589,303.194z"/>
		<path fill="#449300" d="M344.059,261.698c1.018,0,1.885,0.357,2.6,1.07c0.712,0.714,1.07,1.581,1.07,2.599v40.426v0.244v0.184
			v0.062v0.122l-0.062,0.061v0.062v0.121v0.062c-0.04,0.041-0.062,0.082-0.062,0.121v0.062c0,0.041-0.011,0.061-0.029,0.061
			c-0.021,0-0.03,0.021-0.03,0.061c0,0.041-0.012,0.072-0.032,0.092c-0.02,0.021-0.029,0.052-0.029,0.092
			c0,0.041-0.011,0.072-0.031,0.092c-0.021,0.021-0.03,0.052-0.03,0.092c0,0.041-0.01,0.061-0.031,0.061
			c-0.021,0-0.03,0.021-0.03,0.062v0.061c-0.041,0-0.062,0.021-0.062,0.062l-0.061,0.062c0,0.041-0.021,0.082-0.062,0.122
			l-0.061,0.061v0.062c-0.041,0-0.062,0.021-0.062,0.061c0,0.041-0.021,0.062-0.061,0.062c0,0.041-0.012,0.062-0.031,0.062
			c-0.021,0-0.03,0.021-0.03,0.061h-0.061c0,0.041-0.022,0.082-0.062,0.123l-0.123,0.121l-0.121,0.123l-0.124,0.123h-0.06
			l-0.123,0.121c-0.042,0.041-0.082,0.062-0.123,0.062c0,0.04-0.02,0.062-0.061,0.062l-0.062,0.061c-0.04,0-0.061,0.01-0.061,0.031
			c0,0.02-0.021,0.03-0.061,0.03h-0.062l-0.123,0.122c-0.164,0.082-0.305,0.143-0.427,0.184c-0.123,0.041-0.286,0.082-0.491,0.123
			c-0.163,0.039-0.408,0.061-0.732,0.061c-0.244,0-0.429-0.021-0.551-0.061h-0.123h-0.061c-0.041,0-0.062-0.021-0.062-0.062h-0.244
			v-0.062h-0.122c-0.164-0.082-0.267-0.121-0.306-0.121c-0.042,0-0.062-0.021-0.062-0.062h-0.062c-0.041,0-0.062-0.021-0.062-0.061
			c-0.041,0-0.082-0.021-0.121-0.062c-0.043,0-0.062-0.021-0.062-0.062h-0.062c-0.041,0-0.062-0.01-0.062-0.03
			s-0.021-0.03-0.062-0.03c-0.448-0.326-0.814-0.713-1.101-1.162v-0.061c-0.04,0-0.062-0.021-0.062-0.062l-0.061-0.062v-0.061
			c-0.041-0.041-0.061-0.082-0.061-0.123c0-0.04-0.021-0.081-0.061-0.122l-10.459-24.157v22.75c0,1.02-0.358,1.887-1.07,2.6
			c-0.713,0.713-1.581,1.07-2.6,1.07s-1.886-0.357-2.599-1.07c-0.714-0.713-1.071-1.58-1.071-2.6v-40.425v-0.245v-0.183v-0.061
			v-0.123l0.062-0.062v-0.061v-0.123v-0.061c0.039-0.04,0.061-0.081,0.061-0.122v-0.061c0-0.041,0.01-0.061,0.03-0.061
			s0.031-0.02,0.031-0.062c0-0.04,0.01-0.071,0.03-0.092c0.02-0.02,0.029-0.051,0.029-0.091s0.01-0.071,0.032-0.092
			c0.021-0.02,0.029-0.05,0.029-0.091c0-0.04,0.01-0.062,0.032-0.062c0.02,0,0.031-0.02,0.031-0.061v-0.061l0.121-0.123
			c0-0.04,0.01-0.061,0.031-0.061c0.02,0,0.029-0.021,0.029-0.061l0.062-0.062v-0.061c0.04-0.04,0.062-0.081,0.062-0.122h0.062
			c0-0.04,0.01-0.061,0.029-0.061c0.021,0,0.032-0.02,0.032-0.061h0.061c0-0.04,0.02-0.081,0.061-0.123l0.123-0.122v-0.061
			c0.039,0,0.08-0.02,0.122-0.062v-0.061c0.04,0,0.081-0.02,0.123-0.061h0.061l0.121-0.122l0.124-0.122h0.061
			c0-0.04,0.02-0.061,0.061-0.061s0.062-0.01,0.062-0.031c0-0.02,0.021-0.03,0.06-0.03h0.063l0.122-0.123
			c0.283-0.163,0.57-0.265,0.856-0.306h0.061c0.203-0.04,0.509-0.061,0.917-0.061h0.185h0.061l0.061,0.061h0.122h0.062h0.121
			c0,0.041,0.021,0.061,0.062,0.061h0.123h0.062c0,0.041,0.039,0.061,0.121,0.061c0.041,0.041,0.102,0.062,0.184,0.062
			c0.039,0.041,0.082,0.061,0.123,0.061h0.061c0,0.042,0.04,0.062,0.122,0.062v0.061c0.082,0,0.122,0.021,0.122,0.062h0.062
			c0.04,0,0.062,0.01,0.062,0.03c0,0.021,0.02,0.031,0.062,0.031l0.061,0.061l0.061,0.061l0.062,0.061h0.062
			c0.039,0.041,0.081,0.061,0.121,0.061v0.061c0.041,0,0.061,0.011,0.061,0.031c0,0.021,0.021,0.03,0.062,0.03v0.061
			c0.041,0,0.062,0.011,0.062,0.031c0,0.021,0.02,0.03,0.062,0.03v0.061l0.122,0.122l0.122,0.123l0.122,0.122
			c0,0.041,0.021,0.082,0.062,0.122c0.04,0,0.062,0.021,0.062,0.061c0,0.042,0.02,0.062,0.062,0.062
			c0,0.082,0.019,0.122,0.062,0.122v0.061c0.039,0.042,0.06,0.083,0.06,0.123h0.062c0,0.083,0.009,0.133,0.031,0.153
			c0.02,0.021,0.029,0.052,0.029,0.092l10.459,24.157v-22.75c0-1.018,0.356-1.885,1.07-2.599
			C342.171,262.056,343.04,261.698,344.059,261.698z"/>
		<path fill="#449300" d="M376.442,262.799c0.712,0.694,1.07,1.57,1.07,2.63c0,1.02-0.358,1.886-1.07,2.599
			c-0.715,0.715-1.581,1.07-2.6,1.07h-5.688v36.695c0,1.02-0.356,1.887-1.069,2.6c-0.715,0.713-1.58,1.07-2.6,1.07
			s-1.887-0.357-2.6-1.07s-1.069-1.58-1.069-2.6v-36.695h-5.811c-1.021,0-1.887-0.355-2.6-1.07
			c-0.714-0.713-1.069-1.579-1.069-2.599c0-1.06,0.355-1.936,1.069-2.63c0.713-0.692,1.579-1.04,2.6-1.04h18.837
			C374.861,261.759,375.727,262.106,376.442,262.799z"/>
		<path fill="#449300" d="M385.584,261.698c1.06,0,1.936,0.357,2.629,1.07c0.693,0.714,1.041,1.581,1.041,2.599v40.487
			c0,1.02-0.348,1.887-1.041,2.6s-1.569,1.07-2.629,1.07c-1.02,0-1.888-0.357-2.6-1.07c-0.713-0.713-1.069-1.58-1.069-2.6v-40.487
			c0-1.018,0.356-1.885,1.069-2.599C383.697,262.056,384.565,261.698,385.584,261.698z"/>
		<path fill="#449300" d="M425.215,305.854c0,1.02-0.359,1.887-1.071,2.6c-0.714,0.713-1.581,1.07-2.599,1.07
			c-1.021,0-1.888-0.357-2.6-1.07c-0.714-0.713-1.07-1.58-1.07-2.6v-25.197l-3.854,7.584c-0.326,0.897-0.918,1.55-1.773,1.957
			c-0.488,0.244-1,0.367-1.528,0.367h-0.062h-0.061h-0.062h-0.062c-0.531,0-1.039-0.123-1.529-0.367
			c-0.855-0.407-1.447-1.06-1.773-1.957l-3.853-7.584v25.197c0,1.02-0.358,1.887-1.071,2.6s-1.58,1.07-2.598,1.07
			c-1.021,0-1.887-0.357-2.6-1.07c-0.715-0.713-1.07-1.58-1.07-2.6v-40.487v-0.183v-0.183v-0.061v-0.062
			c0-0.04,0.009-0.061,0.03-0.061c0.02,0,0.03-0.02,0.03-0.062v-0.061v-0.123c0-0.04,0.01-0.07,0.03-0.091
			c0.021-0.02,0.03-0.051,0.03-0.092c0.041-0.245,0.123-0.468,0.244-0.673c0-0.04,0.01-0.061,0.032-0.061
			c0.021,0,0.029-0.02,0.029-0.062l0.062-0.061l0.061-0.061c0-0.04,0.021-0.081,0.062-0.123v-0.061l0.122-0.122
			c0.081-0.081,0.152-0.162,0.215-0.245c0.061-0.081,0.132-0.163,0.214-0.245l0.122-0.122h0.061c0-0.04,0.01-0.061,0.03-0.061
			s0.032-0.02,0.032-0.061h0.06c0.04-0.04,0.082-0.061,0.122-0.061c0-0.04,0.021-0.061,0.062-0.061l0.062-0.061l0.121-0.061
			c0.041-0.041,0.082-0.062,0.121-0.062l0.063-0.061c0.039,0,0.081-0.021,0.121-0.062c0.041,0,0.071-0.009,0.093-0.03
			c0.02-0.02,0.05-0.03,0.092-0.03c0.039,0,0.07-0.009,0.09-0.031c0.021-0.02,0.052-0.031,0.094-0.031
			c0.039,0,0.08-0.02,0.121-0.061h0.062h0.122l0.061-0.061h0.062h0.121h0.062c0.041-0.04,0.082-0.061,0.123-0.061h0.061h0.184h0.185
			h0.183h0.122h0.062c0.04,0,0.081,0.021,0.123,0.061h0.121h0.062h0.123c0.162,0.082,0.306,0.133,0.427,0.153
			c0.122,0.021,0.245,0.071,0.368,0.153h0.061c0,0.041,0.04,0.061,0.122,0.061c0,0.042,0.021,0.062,0.062,0.062l0.061,0.061
			c0.04,0,0.081,0.021,0.123,0.061l0.121,0.122h0.062c0.204,0.122,0.367,0.286,0.49,0.489l0.121,0.123l0.123,0.122
			c0,0.041,0.01,0.061,0.03,0.061s0.031,0.021,0.031,0.061l0.061,0.061l0.062,0.062c0,0.041,0.021,0.082,0.062,0.122
			c0,0.041,0.009,0.072,0.03,0.092c0.021,0.021,0.031,0.051,0.031,0.091l7.706,15.106l7.705-15.106c0-0.081,0.021-0.143,0.062-0.184
			c0.04-0.04,0.06-0.082,0.06-0.122c0.041,0,0.063-0.02,0.063-0.062l0.061-0.061c0-0.04,0.021-0.081,0.061-0.122l0.122-0.122
			l0.123-0.123c0.122-0.203,0.284-0.367,0.488-0.489l0.123-0.122h0.062c0.04-0.04,0.081-0.061,0.121-0.061l0.063-0.061
			c0.039,0,0.06-0.02,0.06-0.062c0.081,0,0.122-0.02,0.122-0.061h0.062c0.081-0.082,0.184-0.132,0.305-0.153
			c0.124-0.02,0.225-0.051,0.307-0.092c0.081,0,0.144-0.02,0.183-0.061h0.123h0.062h0.122c0-0.04,0.021-0.061,0.062-0.061h0.123
			h0.121h0.185h0.183h0.184c0.082,0,0.143,0.021,0.183,0.061h0.123h0.121l0.062,0.061h0.123h0.062l0.122,0.061
			c0.041,0,0.071,0.011,0.091,0.031c0.021,0.021,0.052,0.031,0.093,0.031c0.04,0,0.081,0.021,0.122,0.061h0.062
			c0.04,0.042,0.082,0.062,0.122,0.062v0.061c0.081,0,0.143,0.021,0.185,0.062c0.039,0.041,0.081,0.061,0.121,0.061l0.061,0.061
			l0.062,0.061c0.041,0,0.081,0.021,0.123,0.061l0.122,0.122c0.081,0,0.123,0.041,0.123,0.122c0.202,0.123,0.366,0.287,0.488,0.49
			l0.123,0.122v0.061c0.04,0.042,0.061,0.083,0.061,0.123c0.04,0,0.062,0.021,0.062,0.061l0.061,0.061
			c0,0.042,0.021,0.083,0.061,0.123c0.082,0.205,0.163,0.428,0.245,0.673c0,0.082,0.021,0.143,0.061,0.183v0.123v0.061
			c0,0.042,0.021,0.083,0.063,0.123v0.062v0.061v0.183v0.183V305.854z"/>
		<path fill="#449300" d="M452.949,303.194c0.713,0.715,1.069,1.58,1.069,2.6s-0.356,1.887-1.069,2.6s-1.58,1.07-2.6,1.07h-14.983
			c-1.02,0-1.887-0.357-2.6-1.07s-1.07-1.58-1.07-2.6v-40.487c0-1.019,0.357-1.885,1.07-2.599c0.713-0.713,1.58-1.07,2.6-1.07
			h14.983c1.02,0,1.887,0.357,2.6,1.07c0.713,0.714,1.069,1.58,1.069,2.599c0,1.061-0.356,1.938-1.069,2.63s-1.58,1.041-2.6,1.041
			h-11.314v15.41h7.829c1.019,0,1.885,0.358,2.6,1.071c0.713,0.714,1.07,1.58,1.07,2.599c0,1.02-0.357,1.887-1.07,2.6
			c-0.715,0.714-1.581,1.07-2.6,1.07h-7.829v10.396h11.314C451.369,302.124,452.236,302.481,452.949,303.194z"/>
		<path fill="#449300" d="M482.794,262.799c0.712,0.694,1.07,1.57,1.07,2.63c0,1.02-0.358,1.886-1.07,2.599
			c-0.715,0.715-1.581,1.07-2.6,1.07h-5.688v36.695c0,1.02-0.357,1.887-1.069,2.6c-0.715,0.713-1.581,1.07-2.6,1.07
			c-1.021,0-1.887-0.357-2.6-1.07c-0.714-0.713-1.069-1.58-1.069-2.6v-36.695h-5.811c-1.021,0-1.886-0.355-2.6-1.07
			c-0.714-0.713-1.07-1.579-1.07-2.599c0-1.06,0.356-1.936,1.07-2.63c0.714-0.692,1.579-1.04,2.6-1.04h18.837
			C481.213,261.759,482.08,262.106,482.794,262.799z"/>
		<path fill="#449300" d="M509.275,303.194c0.713,0.715,1.07,1.58,1.07,2.6s-0.357,1.887-1.07,2.6
			c-0.714,0.713-1.58,1.07-2.599,1.07h-14.983c-1.021,0-1.887-0.357-2.6-1.07c-0.715-0.713-1.071-1.58-1.071-2.6v-40.487
			c0-1.019,0.356-1.885,1.071-2.599c0.713-0.713,1.578-1.07,2.6-1.07h14.983c1.019,0,1.885,0.357,2.599,1.07
			c0.713,0.714,1.07,1.58,1.07,2.599c0,1.061-0.357,1.938-1.07,2.63c-0.714,0.693-1.58,1.041-2.599,1.041h-11.314v15.41h7.828
			c1.019,0,1.885,0.358,2.6,1.071c0.712,0.714,1.069,1.58,1.069,2.599c0,1.02-0.357,1.887-1.069,2.6
			c-0.715,0.714-1.581,1.07-2.6,1.07h-7.828v10.396h11.314C507.695,302.124,508.561,302.481,509.275,303.194z"/>
		<path fill="#449300" d="M540.986,304.326c0.447,0.938,0.479,1.876,0.092,2.813c-0.389,0.938-1.052,1.609-1.987,2.018
			c-0.49,0.204-0.979,0.307-1.469,0.307c-0.693,0-1.346-0.194-1.957-0.581c-0.612-0.388-1.08-0.927-1.406-1.621l-6.789-15.534H523.8
			v14.066c0,1.02-0.358,1.887-1.07,2.6c-0.715,0.713-1.581,1.07-2.6,1.07c-1.021,0-1.887-0.357-2.599-1.07
			c-0.715-0.713-1.07-1.58-1.07-2.6v-40.365c0-1.019,0.355-1.885,1.07-2.599c0.712-0.713,1.578-1.07,2.599-1.07h8.868
			c1.548,0,3.036,0.438,4.464,1.315c1.428,0.877,2.67,2.131,3.73,3.761c1.835,2.896,2.753,6.198,2.753,9.907
			c0,1.795-0.234,3.527-0.703,5.199s-1.152,3.221-2.05,4.648c-0.407,0.611-0.836,1.161-1.284,1.65
			c-0.449,0.489-0.896,0.938-1.345,1.346L540.986,304.326z M528.999,284.387c0.203,0,0.479-0.131,0.825-0.396
			c0.346-0.265,0.743-0.723,1.192-1.377c0.529-0.814,0.928-1.732,1.193-2.752c0.265-1.019,0.396-2.059,0.396-3.119
			c0-1.06-0.132-2.109-0.396-3.148c-0.266-1.041-0.664-1.967-1.193-2.783c-0.449-0.611-0.847-1.049-1.192-1.315
			c-0.347-0.265-0.622-0.397-0.825-0.397H523.8v15.289H528.999z"/>
		<path fill="#449300" d="M566.672,287.079c2.404,3.018,3.607,6.545,3.607,10.581c0,1.264-0.133,2.396-0.396,3.394
			c-0.267,1-0.593,1.887-0.979,2.66c-0.388,0.775-0.825,1.449-1.314,2.019c-0.489,0.571-0.979,1.062-1.468,1.468
			c-2.284,1.835-5.057,2.752-8.318,2.752c-1.59,0-3.079-0.225-4.465-0.672c-1.387-0.449-2.609-1.142-3.669-2.08
			c-0.449-0.367-0.908-0.835-1.376-1.406c-0.469-0.57-0.896-1.243-1.284-2.018c-0.388-0.775-0.703-1.672-0.948-2.691
			c-0.244-1.02-0.367-2.182-0.367-3.486c0-1.02,0.356-1.885,1.071-2.6c0.713-0.713,1.578-1.07,2.599-1.07
			c1.06,0,1.936,0.357,2.631,1.07c0.692,0.715,1.039,1.58,1.039,2.6c0,0.571,0.051,1.152,0.152,1.742
			c0.102,0.592,0.316,1.133,0.643,1.621c0.325,0.489,0.805,0.887,1.437,1.193c0.632,0.306,1.479,0.459,2.538,0.459
			c0.734,0,1.417-0.092,2.049-0.275c0.633-0.184,1.172-0.459,1.622-0.826c0.978-0.856,1.466-2.141,1.466-3.853
			c0-1.264-0.162-2.364-0.488-3.303c-0.327-0.938-0.807-1.805-1.437-2.6c-0.633-0.795-1.407-1.55-2.325-2.263
			c-0.917-0.713-1.946-1.478-3.089-2.293c-1.061-0.734-2.108-1.499-3.149-2.294c-1.039-0.795-2.008-1.702-2.904-2.722
			c-1.061-1.305-1.865-2.66-2.416-4.066c-0.551-1.407-0.825-2.945-0.825-4.618c0-0.244,0.009-0.692,0.031-1.345
			c0.019-0.652,0.121-1.407,0.306-2.264c0.183-0.855,0.488-1.752,0.917-2.69c0.429-0.938,1.048-1.835,1.864-2.691
			c0.693-0.774,1.734-1.529,3.119-2.262c1.386-0.734,3.181-1.102,5.383-1.102c2.242,0,4.024,0.377,5.352,1.132
			c1.324,0.755,2.334,1.52,3.026,2.293c0.774,0.938,1.356,1.927,1.744,2.967c0.387,1.04,0.642,1.999,0.764,2.874
			c0.122,0.878,0.163,1.643,0.122,2.294c-0.04,0.653-0.082,1.04-0.122,1.163c-0.122,0.732-0.367,1.345-0.733,1.834
			c-0.326,0.449-0.765,0.825-1.316,1.131c-0.549,0.307-1.294,0.357-2.23,0.152c-0.898-0.162-1.56-0.458-1.988-0.886
			c-0.429-0.429-0.714-0.876-0.855-1.346c-0.144-0.468-0.205-0.886-0.185-1.254c0.021-0.366,0.031-0.591,0.031-0.673
			c0.039-0.162,0.062-0.387,0.062-0.672s-0.031-0.591-0.093-0.918c-0.062-0.326-0.152-0.651-0.274-0.979
			c-0.123-0.326-0.285-0.611-0.49-0.856c-0.488-0.612-1.428-0.917-2.812-0.917c-1.102,0-1.866,0.143-2.293,0.428
			c-0.429,0.286-0.704,0.489-0.826,0.611c-0.286,0.287-0.501,0.612-0.643,0.979c-0.144,0.367-0.254,0.734-0.336,1.102
			s-0.134,0.684-0.153,0.947c-0.021,0.266-0.03,0.459-0.03,0.582v0.122v0.122c0,0.816,0.143,1.56,0.428,2.232
			c0.285,0.672,0.684,1.306,1.192,1.896c0.51,0.592,1.152,1.184,1.928,1.774c0.774,0.591,1.651,1.233,2.628,1.926
			c1.142,0.816,2.314,1.692,3.518,2.63C564.541,284.776,565.652,285.856,566.672,287.079z"/>
		<path fill="#449300" d="M203.395,376.707c0.714,0.714,1.071,1.581,1.071,2.6s-0.357,1.886-1.071,2.599
			c-0.713,0.713-1.58,1.07-2.598,1.07h-15.902c-1.018,0-1.886-0.357-2.598-1.07c-0.715-0.713-1.071-1.58-1.071-2.599
			s0.356-1.886,1.071-2.6c0.712-0.713,1.58-1.07,2.598-1.07h4.404v-27.888l-1.529,1.528c-0.693,0.694-1.549,1.04-2.568,1.04
			s-1.896-0.346-2.629-1.04c-0.693-0.733-1.041-1.61-1.041-2.63c0-1.019,0.348-1.875,1.041-2.568l7.767-7.768
			c0.528-0.529,1.162-0.865,1.896-1.009c0.734-0.142,1.446-0.071,2.14,0.214c0.693,0.286,1.243,0.734,1.652,1.346
			c0.406,0.611,0.611,1.284,0.611,2.019v36.756h4.159C201.815,375.636,202.682,375.994,203.395,376.707z"/>
		<path fill="#449300" d="M231.069,370.682c0,0.245-0.01,0.714-0.029,1.406c-0.021,0.694-0.133,1.479-0.337,2.355
			s-0.521,1.814-0.948,2.812c-0.428,1-1.05,1.928-1.865,2.783c-0.733,0.775-1.773,1.529-3.118,2.263
			c-1.347,0.734-3.101,1.101-5.26,1.101c-2.202,0-3.956-0.366-5.261-1.101c-1.305-0.733-2.303-1.487-2.996-2.263
			c-0.816-0.896-1.447-1.855-1.896-2.875c-0.449-1.018-0.765-1.986-0.947-2.904c-0.184-0.918-0.276-1.732-0.276-2.446
			c0-0.712,0-1.213,0-1.499v-23.424c0-2.486,0.407-4.474,1.224-5.962c0.815-1.488,1.651-2.64,2.509-3.456
			c2.078-1.957,4.606-2.936,7.582-2.936c1.386,0,2.772,0.244,4.16,0.734c1.386,0.488,2.63,1.244,3.729,2.262
			c1.102,1.021,1.998,2.305,2.691,3.854c0.693,1.551,1.039,3.385,1.039,5.504V370.682z M221.651,342.366
			c-0.367-0.203-0.745-0.336-1.132-0.396c-0.387-0.062-0.745-0.093-1.07-0.093c-0.285,0-0.651,0.052-1.101,0.153
			s-0.887,0.326-1.314,0.673s-0.796,0.847-1.102,1.498c-0.306,0.653-0.459,1.55-0.459,2.69v11.621L221.651,342.366z
			 M222.507,375.025c0.529-0.571,0.876-1.294,1.04-2.171c0.162-0.877,0.224-1.499,0.183-1.865v-0.184v-13.333l-6.849,17.858
			c0.202,0.163,0.499,0.326,0.885,0.489c0.388,0.163,0.97,0.245,1.745,0.245c1.017,0,1.742-0.143,2.17-0.429
			C222.11,375.352,222.385,375.147,222.507,375.025z"/>
		<path fill="#449300" d="M237,374.352c1.02,0,1.887,0.357,2.6,1.07s1.07,1.58,1.07,2.6c0,1.061-0.357,1.947-1.07,2.66
			c-0.713,0.714-1.58,1.07-2.6,1.07c-1.061,0-1.946-0.356-2.66-1.07c-0.713-0.713-1.07-1.6-1.07-2.66c0-1.02,0.357-1.887,1.07-2.6
			C235.054,374.709,235.94,374.352,237,374.352z"/>
		<path fill="#449300" d="M265.104,376.707c0.713,0.714,1.07,1.581,1.07,2.6s-0.357,1.886-1.07,2.599
			c-0.714,0.713-1.58,1.07-2.6,1.07h-15.901c-1.02,0-1.886-0.357-2.599-1.07c-0.714-0.713-1.07-1.58-1.07-2.599
			s0.356-1.886,1.07-2.6c0.713-0.713,1.579-1.07,2.599-1.07h4.403v-27.888l-1.529,1.528c-0.693,0.694-1.549,1.04-2.567,1.04
			c-1.021,0-1.896-0.346-2.631-1.04c-0.694-0.733-1.039-1.61-1.039-2.63c0-1.019,0.345-1.875,1.039-2.568l7.768-7.768
			c0.53-0.529,1.161-0.865,1.896-1.009c0.732-0.142,1.446-0.071,2.14,0.214c0.693,0.286,1.244,0.734,1.651,1.346
			s0.611,1.284,0.611,2.019v36.756h4.159C263.524,375.636,264.39,375.994,265.104,376.707z"/>
		<path fill="#449300" d="M292.136,376.707c0.712,0.714,1.069,1.581,1.069,2.6s-0.357,1.886-1.069,2.599
			c-0.715,0.713-1.581,1.07-2.6,1.07h-15.901c-1.021,0-1.887-0.357-2.6-1.07c-0.714-0.713-1.07-1.58-1.07-2.599
			s0.356-1.886,1.07-2.6c0.713-0.713,1.579-1.07,2.6-1.07h4.402v-27.888l-1.528,1.528c-0.694,0.694-1.55,1.04-2.568,1.04
			c-1.021,0-1.896-0.346-2.631-1.04c-0.693-0.733-1.039-1.61-1.039-2.63c0-1.019,0.346-1.875,1.039-2.568l7.768-7.768
			c0.53-0.529,1.161-0.865,1.896-1.009c0.733-0.142,1.446-0.071,2.14,0.214c0.693,0.286,1.244,0.734,1.651,1.346
			s0.612,1.284,0.612,2.019v36.756h4.159C290.555,375.636,291.421,375.994,292.136,376.707z"/>
		<path fill="#449300" d="M334.243,335.088c1.061,0,1.936,0.357,2.629,1.07c0.693,0.714,1.04,1.58,1.04,2.6v40.486
			c0,1.02-0.347,1.887-1.04,2.6s-1.568,1.07-2.629,1.07c-1.021,0-1.888-0.357-2.6-1.07c-0.714-0.713-1.069-1.58-1.069-2.6v-40.486
			c0-1.02,0.355-1.886,1.069-2.6C332.355,335.446,333.222,335.088,334.243,335.088z"/>
		<path fill="#449300" d="M366.104,335.088c1.02,0,1.887,0.357,2.6,1.07c0.714,0.714,1.07,1.58,1.07,2.6v40.426v0.244v0.184v0.061
			v0.123l-0.061,0.061v0.061v0.123v0.062c-0.04,0.041-0.061,0.082-0.061,0.122v0.062c0,0.04-0.011,0.061-0.031,0.061
			s-0.03,0.021-0.03,0.062c0,0.041-0.011,0.072-0.03,0.092c-0.022,0.021-0.031,0.051-0.031,0.092s-0.01,0.072-0.03,0.092
			c-0.021,0.021-0.031,0.051-0.031,0.092s-0.011,0.061-0.03,0.061c-0.021,0-0.03,0.021-0.03,0.062v0.062
			c-0.041,0-0.061,0.021-0.061,0.061l-0.062,0.062c0,0.041-0.021,0.082-0.062,0.122l-0.062,0.061v0.062
			c-0.041,0-0.061,0.021-0.061,0.062c0,0.041-0.022,0.061-0.062,0.061c0,0.041-0.011,0.062-0.03,0.062
			c-0.021,0-0.029,0.021-0.029,0.062h-0.063c0,0.041-0.021,0.082-0.062,0.122l-0.121,0.122l-0.123,0.123l-0.122,0.122h-0.061
			l-0.122,0.122c-0.041,0.04-0.082,0.061-0.123,0.061c0,0.041-0.021,0.062-0.061,0.062l-0.061,0.062c-0.043,0-0.062,0.01-0.062,0.03
			s-0.02,0.03-0.061,0.03h-0.062l-0.121,0.123c-0.164,0.081-0.307,0.143-0.43,0.184c-0.122,0.04-0.285,0.081-0.488,0.122
			c-0.163,0.04-0.409,0.062-0.735,0.062c-0.244,0-0.427-0.021-0.551-0.062h-0.121h-0.061c-0.042,0-0.061-0.021-0.061-0.062h-0.245
			v-0.061h-0.124c-0.162-0.082-0.266-0.123-0.305-0.123c-0.041,0-0.062-0.021-0.062-0.061h-0.062c-0.039,0-0.061-0.021-0.061-0.062
			c-0.041,0-0.082-0.02-0.122-0.061c-0.041,0-0.062-0.021-0.062-0.061h-0.061c-0.041,0-0.062-0.01-0.062-0.031
			c0-0.021-0.021-0.03-0.061-0.03c-0.448-0.325-0.817-0.713-1.102-1.161v-0.062c-0.04,0-0.062-0.021-0.062-0.062l-0.061-0.061
			v-0.062c-0.042-0.04-0.062-0.081-0.062-0.122s-0.02-0.082-0.06-0.123l-10.459-24.157v22.751c0,1.02-0.356,1.887-1.069,2.6
			c-0.715,0.713-1.58,1.07-2.6,1.07s-1.887-0.357-2.6-1.07c-0.715-0.713-1.069-1.58-1.069-2.6v-40.426v-0.244v-0.184v-0.062v-0.122
			l0.061-0.062v-0.062v-0.121v-0.062c0.04-0.039,0.061-0.08,0.061-0.121v-0.062c0-0.039,0.01-0.061,0.031-0.061
			c0.021,0,0.03-0.02,0.03-0.061s0.01-0.071,0.031-0.092c0.02-0.02,0.03-0.051,0.03-0.092s0.01-0.071,0.03-0.092
			s0.031-0.051,0.031-0.092c0-0.04,0.009-0.061,0.03-0.061c0.019,0,0.03-0.021,0.03-0.062v-0.062l0.123-0.123
			c0-0.039,0.01-0.061,0.029-0.061c0.021,0,0.032-0.021,0.032-0.061l0.06-0.062v-0.061c0.041-0.04,0.062-0.081,0.062-0.122h0.061
			c0-0.04,0.01-0.062,0.032-0.062c0.02,0,0.03-0.02,0.03-0.061h0.061c0-0.04,0.021-0.082,0.062-0.123l0.121-0.121v-0.062
			c0.041,0,0.082-0.02,0.124-0.061v-0.062c0.039,0,0.081-0.021,0.121-0.062h0.062l0.123-0.121l0.122-0.123h0.061
			c0-0.04,0.021-0.061,0.062-0.061c0.04,0,0.061-0.01,0.061-0.031c0-0.02,0.021-0.03,0.062-0.03h0.062l0.123-0.122
			c0.284-0.163,0.569-0.266,0.854-0.307h0.062c0.204-0.039,0.51-0.061,0.918-0.061h0.183h0.062l0.062,0.061h0.122h0.062h0.123
			c0,0.041,0.019,0.062,0.06,0.062h0.123h0.061c0,0.041,0.04,0.062,0.123,0.062c0.039,0.041,0.102,0.061,0.183,0.061
			c0.041,0.041,0.082,0.062,0.123,0.062h0.062c0,0.041,0.041,0.062,0.121,0.062v0.061c0.082,0,0.123,0.021,0.123,0.062h0.062
			c0.04,0,0.062,0.011,0.062,0.03c0,0.021,0.02,0.031,0.06,0.031l0.062,0.061l0.061,0.061l0.062,0.062h0.061
			c0.04,0.041,0.081,0.061,0.123,0.061v0.061c0.039,0,0.062,0.012,0.062,0.031c0,0.021,0.021,0.03,0.06,0.03v0.062
			c0.041,0,0.062,0.01,0.062,0.031c0,0.02,0.021,0.029,0.062,0.029v0.062l0.123,0.121l0.122,0.123l0.123,0.122
			c0,0.041,0.019,0.082,0.061,0.122c0.039,0,0.062,0.021,0.062,0.061c0,0.042,0.02,0.062,0.06,0.062
			c0,0.082,0.021,0.121,0.062,0.121v0.062c0.041,0.041,0.062,0.082,0.062,0.122h0.061c0,0.082,0.01,0.132,0.029,0.152
			c0.021,0.021,0.031,0.052,0.031,0.092l10.458,24.157v-22.75c0-1.02,0.357-1.886,1.069-2.6
			C364.219,335.446,365.086,335.088,366.104,335.088z"/>
		<path fill="#449300" d="M399.497,370.622c0,0.122-0.01,0.52-0.03,1.192s-0.122,1.468-0.307,2.385
			c-0.182,0.917-0.499,1.907-0.946,2.966c-0.449,1.061-1.102,2.04-1.958,2.937c-0.692,0.774-1.723,1.528-3.088,2.263
			c-1.366,0.733-3.13,1.102-5.291,1.102c-2.162,0-3.904-0.368-5.229-1.102c-1.324-0.734-2.334-1.488-3.026-2.263
			c-0.815-0.896-1.448-1.854-1.896-2.874c-0.449-1.02-0.766-1.988-0.948-2.906c-0.184-0.917-0.274-1.732-0.274-2.445
			s0-1.213,0-1.499v-23.485c0-2.486,0.406-4.474,1.223-5.962c0.814-1.488,1.651-2.64,2.507-3.456c1.02-0.938,2.182-1.66,3.486-2.171
			c1.304-0.509,2.67-0.765,4.098-0.765c1.386,0,2.782,0.244,4.188,0.734c1.408,0.488,2.661,1.244,3.762,2.262
			c1.101,1.021,1.998,2.305,2.691,3.854c0.693,1.551,1.039,3.385,1.039,5.504c0,1.061-0.356,1.938-1.069,2.631
			c-0.715,0.693-1.58,1.039-2.6,1.039c-1.021,0-1.887-0.346-2.6-1.039c-0.714-0.693-1.07-1.57-1.07-2.631
			c0-1.1-0.153-1.977-0.458-2.629c-0.307-0.652-0.673-1.152-1.102-1.498c-0.428-0.347-0.896-0.582-1.406-0.703
			c-0.51-0.123-0.969-0.185-1.376-0.185c-0.286,0-0.653,0.052-1.102,0.153s-0.886,0.326-1.315,0.673
			c-0.427,0.347-0.793,0.847-1.1,1.498c-0.306,0.653-0.459,1.55-0.459,2.69v23.607v0.307c0,0.204,0,0.479,0,0.825
			c0,0.347,0.04,0.733,0.122,1.161c0.081,0.43,0.204,0.857,0.366,1.285c0.163,0.428,0.388,0.785,0.674,1.07
			c0.122,0.123,0.388,0.316,0.795,0.581c0.407,0.266,1.102,0.397,2.079,0.397c1.06,0,1.794-0.132,2.202-0.397
			c0.407-0.265,0.672-0.479,0.795-0.642c0.57-0.571,0.928-1.285,1.07-2.141c0.143-0.857,0.214-1.488,0.214-1.896
			c0-0.04,0-0.265,0-0.673c0-0.407,0.103-0.845,0.306-1.314c0.204-0.468,0.541-0.907,1.01-1.315
			c0.468-0.406,1.151-0.632,2.049-0.672c0.938-0.041,1.66,0.121,2.172,0.488c0.508,0.367,0.906,0.775,1.191,1.223
			C399.211,369.317,399.415,369.928,399.497,370.622z"/>
		<path fill="#449300" d="M426.651,335.088c1.019,0,1.886,0.357,2.599,1.07c0.713,0.714,1.071,1.58,1.071,2.6v40.486
			c0,1.02-0.358,1.887-1.071,2.6s-1.58,1.07-2.599,1.07c-1.02,0-1.887-0.357-2.6-1.07s-1.07-1.58-1.07-2.6v-14.066h-9.541v14.066
			c0,1.02-0.356,1.887-1.069,2.6c-0.714,0.713-1.581,1.07-2.6,1.07s-1.886-0.357-2.599-1.07c-0.714-0.713-1.071-1.58-1.071-2.6
			v-40.486c0-1.02,0.357-1.886,1.071-2.6c0.713-0.713,1.58-1.07,2.599-1.07s1.886,0.357,2.6,1.07c0.713,0.714,1.069,1.58,1.069,2.6
			v19.08h9.541v-19.08c0-1.02,0.357-1.886,1.07-2.6C424.764,335.446,425.631,335.088,426.651,335.088z"/>
		<path fill="#449300" d="M458.851,376.584c0.713,0.714,1.069,1.58,1.069,2.6s-0.356,1.886-1.069,2.599
			c-0.714,0.713-1.581,1.07-2.6,1.07h-14.983c-1.02,0-1.887-0.357-2.6-1.07s-1.07-1.579-1.07-2.599v-40.488
			c0-1.018,0.357-1.885,1.07-2.598c0.713-0.714,1.58-1.07,2.6-1.07h14.983c1.019,0,1.886,0.356,2.6,1.07
			c0.713,0.713,1.069,1.58,1.069,2.598c0,1.062-0.356,1.938-1.069,2.631c-0.714,0.693-1.581,1.039-2.6,1.039h-11.314v15.412h7.829
			c1.019,0,1.884,0.357,2.599,1.07c0.713,0.715,1.071,1.58,1.071,2.6s-0.358,1.886-1.071,2.599c-0.715,0.714-1.58,1.071-2.599,1.071
			h-7.829v10.396h11.314C457.27,375.514,458.137,375.872,458.851,376.584z"/>
		<path fill="#449300" d="M486.219,360.469c2.405,3.018,3.609,6.543,3.609,10.58c0,1.264-0.135,2.396-0.398,3.395
			c-0.266,1-0.592,1.887-0.979,2.66c-0.389,0.775-0.826,1.447-1.315,2.018c-0.489,0.572-0.979,1.062-1.468,1.469
			c-2.283,1.834-5.057,2.752-8.317,2.752c-1.59,0-3.079-0.225-4.465-0.672c-1.386-0.45-2.609-1.143-3.67-2.08
			c-0.448-0.367-0.907-0.836-1.376-1.406c-0.468-0.57-0.897-1.244-1.284-2.02c-0.388-0.773-0.703-1.671-0.947-2.689
			c-0.244-1.02-0.368-2.182-0.368-3.486c0-1.02,0.357-1.887,1.07-2.6c0.714-0.713,1.58-1.07,2.6-1.07c1.061,0,1.937,0.357,2.63,1.07
			c0.692,0.713,1.04,1.58,1.04,2.6c0,0.57,0.051,1.152,0.152,1.742c0.102,0.592,0.315,1.132,0.643,1.621
			c0.326,0.488,0.806,0.887,1.438,1.193c0.631,0.305,1.477,0.458,2.538,0.458c0.733,0,1.417-0.093,2.049-0.275
			s1.172-0.458,1.62-0.825c0.979-0.857,1.469-2.141,1.469-3.854c0-1.264-0.164-2.364-0.489-3.303
			c-0.327-0.938-0.806-1.805-1.438-2.6c-0.634-0.795-1.407-1.549-2.324-2.262c-0.918-0.713-1.948-1.479-3.088-2.295
			c-1.062-0.732-2.111-1.498-3.15-2.293s-2.009-1.701-2.905-2.721c-1.061-1.305-1.865-2.66-2.414-4.067
			c-0.551-1.407-0.827-2.945-0.827-4.618c0-0.244,0.01-0.692,0.03-1.345c0.021-0.651,0.123-1.407,0.306-2.263
			c0.185-0.856,0.491-1.753,0.918-2.691c0.428-0.938,1.049-1.834,1.866-2.691c0.692-0.773,1.731-1.528,3.119-2.262
			c1.386-0.734,3.18-1.102,5.38-1.102c2.243,0,4.027,0.377,5.352,1.131c1.325,0.756,2.334,1.521,3.028,2.295
			c0.774,0.938,1.354,1.926,1.743,2.966c0.388,1.04,0.644,1.997,0.765,2.874s0.162,1.643,0.121,2.293
			c-0.041,0.653-0.08,1.041-0.121,1.163c-0.121,0.733-0.367,1.345-0.734,1.835c-0.326,0.448-0.764,0.824-1.314,1.131
			c-0.551,0.306-1.295,0.357-2.232,0.152c-0.896-0.162-1.561-0.459-1.988-0.887c-0.427-0.428-0.714-0.876-0.856-1.346
			c-0.144-0.468-0.204-0.886-0.183-1.254c0.02-0.366,0.03-0.59,0.03-0.672c0.041-0.162,0.061-0.387,0.061-0.673
			c0-0.284-0.029-0.591-0.091-0.917s-0.153-0.652-0.275-0.979c-0.122-0.325-0.286-0.61-0.488-0.856
			c-0.49-0.611-1.43-0.917-2.815-0.917c-1.099,0-1.864,0.144-2.293,0.429c-0.428,0.285-0.702,0.488-0.825,0.611
			c-0.285,0.286-0.499,0.611-0.642,0.979c-0.144,0.367-0.256,0.734-0.337,1.102c-0.082,0.366-0.133,0.683-0.152,0.947
			c-0.022,0.266-0.031,0.459-0.031,0.581v0.122v0.123c0,0.815,0.143,1.559,0.429,2.231c0.284,0.673,0.682,1.306,1.192,1.896
			c0.51,0.592,1.151,1.184,1.926,1.774s1.651,1.233,2.631,1.927c1.141,0.815,2.312,1.691,3.518,2.629
			C484.088,358.167,485.199,359.246,486.219,360.469z"/>
		<path fill="#449300" d="M232.977,421.42c0.53,0.531,0.795,1.176,0.795,1.934c0,0.759-0.265,1.404-0.795,1.934
			c-0.531,0.531-1.176,0.797-1.935,0.797h-1l0.5,0.864c0.394,0.638,0.492,1.319,0.296,2.048c-0.199,0.727-0.629,1.289-1.296,1.684
			c-0.426,0.242-0.881,0.363-1.365,0.363c-0.456,0-0.903-0.121-1.343-0.363c-0.439-0.243-0.781-0.576-1.023-1.002l-0.455-0.864
			l-0.501,0.864c-0.242,0.426-0.576,0.759-1,1.002c-0.426,0.242-0.88,0.363-1.364,0.363c-0.487,0-0.941-0.121-1.366-0.363
			c-0.668-0.395-1.101-0.948-1.297-1.662c-0.197-0.711-0.099-1.402,0.296-2.069l0.5-0.864h-1c-0.759,0-1.402-0.266-1.935-0.797
			c-0.53-0.529-0.794-1.175-0.794-1.934c0-0.758,0.264-1.402,0.794-1.934c0.532-0.529,1.176-0.796,1.935-0.796h0.955l-0.455-0.819
			c-0.395-0.666-0.493-1.365-0.296-2.092c0.196-0.729,0.614-1.274,1.251-1.639c0.667-0.394,1.365-0.492,2.093-0.295
			c0.729,0.197,1.275,0.629,1.64,1.297l0.499,0.818l0.501-0.818c0.364-0.668,0.91-1.1,1.638-1.297
			c0.729-0.197,1.426-0.114,2.094,0.25c0.636,0.395,1.054,0.955,1.251,1.684c0.196,0.727,0.113,1.41-0.251,2.047l-0.5,0.864h1
			C231.801,420.625,232.446,420.891,232.977,421.42z"/>
		<path fill="#449300" d="M238.458,414.665c0.788,0,1.44,0.266,1.956,0.796c0.516,0.531,0.773,1.176,0.773,1.935v30.119
			c0,0.758-0.258,1.402-0.773,1.933s-1.168,0.796-1.956,0.796c-0.759,0-1.403-0.266-1.935-0.796s-0.795-1.175-0.795-1.933v-30.119
			c0-0.759,0.264-1.403,0.795-1.935C237.055,414.93,237.7,414.665,238.458,414.665z"/>
		<path fill="#449300" d="M262.163,414.665c0.758,0,1.402,0.266,1.934,0.796c0.53,0.531,0.797,1.176,0.797,1.935v30.073v0.182v0.137
			v0.046v0.09l-0.047,0.047v0.045v0.091v0.046c-0.031,0.03-0.046,0.061-0.046,0.091v0.046c0,0.029-0.008,0.045-0.021,0.045
			c-0.016,0-0.023,0.016-0.023,0.046s-0.009,0.053-0.022,0.067c-0.016,0.017-0.022,0.039-0.022,0.068
			c0,0.031-0.008,0.055-0.024,0.068c-0.014,0.016-0.021,0.039-0.021,0.068c0,0.031-0.008,0.045-0.022,0.045
			c-0.016,0-0.023,0.017-0.023,0.047v0.045c-0.03,0-0.046,0.016-0.046,0.045l-0.045,0.047c0,0.029-0.016,0.061-0.045,0.09
			l-0.045,0.046v0.046c-0.032,0-0.046,0.016-0.046,0.045c0,0.031-0.016,0.046-0.046,0.046c0,0.03-0.008,0.045-0.022,0.045
			c-0.016,0-0.023,0.017-0.023,0.046h-0.045c0,0.031-0.017,0.061-0.046,0.091l-0.091,0.091l-0.092,0.092l-0.091,0.09h-0.045
			l-0.091,0.092c-0.03,0.029-0.062,0.045-0.092,0.045c0,0.03-0.016,0.046-0.046,0.046l-0.045,0.046
			c-0.029,0-0.045,0.007-0.045,0.021c0,0.016-0.016,0.023-0.046,0.023h-0.046l-0.09,0.091c-0.121,0.06-0.229,0.106-0.318,0.138
			c-0.092,0.029-0.214,0.06-0.364,0.09c-0.122,0.029-0.305,0.045-0.546,0.045c-0.183,0-0.318-0.016-0.41-0.045h-0.091h-0.046
			c-0.029,0-0.045-0.016-0.045-0.045h-0.182v-0.045h-0.091c-0.122-0.062-0.198-0.092-0.229-0.092c-0.031,0-0.045-0.016-0.045-0.046
			h-0.047c-0.029,0-0.044-0.016-0.044-0.046c-0.031,0-0.062-0.016-0.092-0.045c-0.03,0-0.044-0.016-0.044-0.045h-0.047
			c-0.03,0-0.046-0.008-0.046-0.023s-0.015-0.022-0.045-0.022c-0.334-0.242-0.607-0.53-0.818-0.864v-0.045
			c-0.031,0-0.046-0.016-0.046-0.047l-0.046-0.045v-0.045c-0.031-0.03-0.045-0.061-0.045-0.092c0-0.029-0.017-0.061-0.045-0.091
			l-7.781-17.972v16.926c0,0.758-0.266,1.402-0.797,1.933c-0.53,0.53-1.175,0.796-1.934,0.796c-0.758,0-1.402-0.266-1.933-0.796
			s-0.797-1.175-0.797-1.933V417.44v-0.182v-0.137v-0.045v-0.092l0.047-0.046v-0.045v-0.091v-0.046
			c0.029-0.03,0.046-0.061,0.046-0.091v-0.045c0-0.031,0.006-0.046,0.021-0.046s0.023-0.015,0.023-0.046
			c0-0.029,0.007-0.053,0.022-0.068c0.015-0.015,0.022-0.037,0.022-0.068c0-0.029,0.007-0.053,0.023-0.068
			c0.014-0.014,0.021-0.037,0.021-0.068c0-0.029,0.007-0.045,0.023-0.045c0.016,0,0.022-0.016,0.022-0.045v-0.046l0.091-0.091
			c0-0.03,0.008-0.046,0.023-0.046c0.015,0,0.022-0.015,0.022-0.046l0.045-0.045v-0.045c0.03-0.031,0.047-0.061,0.047-0.092h0.046
			c0-0.029,0.006-0.045,0.021-0.045c0.016,0,0.022-0.016,0.022-0.046h0.047c0-0.03,0.015-0.061,0.045-0.091l0.092-0.092v-0.045
			c0.029,0,0.061-0.016,0.09-0.045v-0.046c0.03,0,0.061-0.015,0.092-0.046h0.046l0.091-0.091l0.092-0.091h0.044
			c0-0.03,0.016-0.045,0.046-0.045c0.029,0,0.046-0.008,0.046-0.023s0.015-0.022,0.045-0.022h0.046l0.091-0.091
			c0.212-0.121,0.425-0.197,0.638-0.229h0.045c0.151-0.029,0.379-0.045,0.682-0.045h0.138h0.046l0.045,0.045h0.09h0.047h0.091
			c0,0.031,0.015,0.047,0.045,0.047h0.092h0.045c0,0.029,0.029,0.045,0.092,0.045c0.029,0.029,0.074,0.045,0.136,0.045
			c0.03,0.031,0.061,0.045,0.091,0.045h0.046c0,0.031,0.029,0.047,0.091,0.047v0.045c0.06,0,0.091,0.016,0.091,0.046h0.045
			c0.03,0,0.047,0.007,0.047,0.022s0.014,0.023,0.045,0.023l0.045,0.045l0.047,0.045l0.044,0.046h0.046
			c0.029,0.03,0.062,0.046,0.091,0.046v0.045c0.03,0,0.046,0.008,0.046,0.023s0.016,0.022,0.045,0.022v0.046
			c0.03,0,0.047,0.007,0.047,0.021c0,0.017,0.014,0.023,0.045,0.023v0.045l0.09,0.092l0.092,0.091l0.091,0.091
			c0,0.031,0.016,0.061,0.046,0.092c0.03,0,0.045,0.016,0.045,0.045c0,0.03,0.016,0.045,0.046,0.045
			c0,0.062,0.015,0.092,0.046,0.092v0.045c0.029,0.03,0.045,0.061,0.045,0.092h0.046c0,0.061,0.007,0.099,0.022,0.113
			c0.016,0.016,0.023,0.038,0.023,0.068l7.779,17.971v-16.924c0-0.759,0.266-1.403,0.797-1.935
			C260.758,414.93,261.403,414.665,262.163,414.665z"/>
		<path fill="#449300" d="M306.566,416.848c0.638,0.607,1.259,1.465,1.867,2.57c0.605,1.108,0.91,2.587,0.91,4.437v17.198
			c0,1.851-0.305,3.329-0.91,4.436c-0.608,1.107-1.229,1.965-1.867,2.57c-1.606,1.457-3.502,2.184-5.687,2.184h-3.412h-2.502
			c-0.758,0-1.404-0.266-1.935-0.796s-0.796-1.175-0.796-1.933v-30.119c0-0.759,0.266-1.403,0.796-1.935
			c0.53-0.53,1.177-0.796,1.935-0.796h2.502h3.412C303.064,414.665,304.959,415.393,306.566,416.848z M303.883,423.855
			c0-0.849-0.113-1.517-0.342-2.002c-0.227-0.485-0.5-0.856-0.819-1.114c-0.317-0.258-0.651-0.425-1-0.502
			c-0.349-0.074-0.631-0.113-0.843-0.113h-3.185v24.66h3.185c0.212,0,0.494-0.037,0.843-0.113s0.683-0.242,1-0.501
			c0.319-0.257,0.593-0.63,0.819-1.114c0.229-0.485,0.342-1.152,0.342-2.002V423.855z"/>
		<path fill="#449300" d="M317.258,414.665c0.789,0,1.44,0.266,1.957,0.796c0.516,0.531,0.773,1.176,0.773,1.935v30.119
			c0,0.758-0.258,1.402-0.773,1.933c-0.517,0.53-1.168,0.796-1.957,0.796c-0.758,0-1.402-0.266-1.933-0.796
			c-0.532-0.53-0.797-1.175-0.797-1.933v-30.119c0-0.759,0.265-1.403,0.797-1.935C315.856,414.93,316.5,414.665,317.258,414.665z"/>
		<path fill="#449300" d="M341.099,447.377c0.151,0.758,0.022,1.448-0.388,2.069c-0.409,0.622-0.992,1.009-1.75,1.161
			c-0.122,0.029-0.29,0.045-0.501,0.045c-0.638,0-1.205-0.205-1.706-0.614s-0.827-0.933-0.979-1.569l-0.955-4.641h-4.869
			l-0.955,4.641c-0.121,0.637-0.432,1.16-0.933,1.569s-1.069,0.614-1.706,0.614c-0.242,0-0.425-0.016-0.546-0.045
			c-0.759-0.152-1.342-0.539-1.752-1.161c-0.409-0.621-0.54-1.312-0.386-2.069l6.05-30.074v-0.045v-0.092
			c0-0.029,0.008-0.045,0.024-0.045c0.014,0,0.021-0.016,0.021-0.045v-0.047v-0.045c0.029-0.029,0.046-0.061,0.046-0.091
			s0.008-0.046,0.021-0.046c0.016,0,0.024-0.016,0.024-0.045v-0.046c0.09-0.242,0.227-0.455,0.409-0.637v-0.046
			c0.029,0,0.045-0.007,0.045-0.022c0-0.015,0.015-0.022,0.046-0.022v-0.046l0.046-0.046l0.045-0.045l0.046-0.045l0.045-0.047
			l0.045-0.045l0.091-0.045c0.183-0.183,0.396-0.318,0.638-0.41h0.045c0.03-0.029,0.061-0.045,0.092-0.045
			c0.15-0.061,0.288-0.098,0.41-0.114c0.12-0.015,0.257-0.038,0.408-0.067h0.046h0.092h0.09c0.152,0.029,0.288,0.053,0.41,0.067
			c0.12,0.017,0.258,0.054,0.409,0.114c0.03,0,0.061,0.016,0.091,0.045h0.046c0.242,0.092,0.455,0.228,0.637,0.41
			c0.03,0,0.06,0.016,0.091,0.045l0.046,0.045l0.045,0.047l0.045,0.045l0.047,0.045l0.046,0.046l0.045,0.046l0.046,0.045v0.046
			c0.182,0.182,0.318,0.395,0.409,0.637v0.046c0,0.029,0.007,0.045,0.022,0.045c0.015,0,0.022,0.016,0.022,0.046
			c0.06,0.183,0.092,0.317,0.092,0.409L341.099,447.377z M332.41,431.68l-1.366,6.688h2.685L332.41,431.68z"/>
		<path fill="#449300" d="M365.985,447.514c0,0.758-0.266,1.402-0.796,1.933c-0.531,0.53-1.177,0.796-1.933,0.796
			c-0.759,0-1.404-0.266-1.935-0.796c-0.532-0.53-0.796-1.175-0.796-1.933v-18.746l-2.867,5.643
			c-0.242,0.667-0.683,1.152-1.318,1.455c-0.364,0.183-0.743,0.273-1.138,0.273h-0.046h-0.045h-0.045h-0.045
			c-0.396,0-0.775-0.091-1.139-0.273c-0.638-0.303-1.077-0.788-1.32-1.455l-2.866-5.643v18.746c0,0.758-0.265,1.402-0.796,1.933
			c-0.53,0.53-1.176,0.796-1.934,0.796s-1.403-0.266-1.933-0.796c-0.532-0.53-0.798-1.175-0.798-1.933v-30.119v-0.137v-0.137v-0.045
			v-0.047c0-0.029,0.008-0.045,0.023-0.045c0.015,0,0.023-0.016,0.023-0.046v-0.045v-0.091c0-0.03,0.008-0.053,0.021-0.068
			c0.016-0.016,0.023-0.038,0.023-0.068c0.03-0.182,0.091-0.349,0.183-0.5c0-0.031,0.007-0.046,0.022-0.046
			c0.014,0,0.022-0.016,0.022-0.046l0.045-0.045l0.046-0.046c0-0.03,0.016-0.061,0.046-0.091v-0.045l0.092-0.092
			c0.059-0.061,0.113-0.121,0.158-0.182c0.046-0.061,0.099-0.121,0.159-0.182l0.091-0.092h0.046c0-0.029,0.008-0.045,0.021-0.045
			c0.017,0,0.024-0.016,0.024-0.046h0.044c0.031-0.03,0.061-0.046,0.092-0.046c0-0.029,0.015-0.045,0.045-0.045l0.046-0.045
			l0.091-0.046c0.029-0.03,0.061-0.046,0.092-0.046l0.045-0.045c0.03,0,0.061-0.016,0.092-0.047c0.029,0,0.053-0.006,0.067-0.021
			c0.016-0.016,0.038-0.023,0.068-0.023s0.053-0.007,0.068-0.022c0.016-0.015,0.038-0.022,0.068-0.022s0.062-0.016,0.092-0.045
			h0.044h0.093l0.044-0.047h0.047h0.089h0.047c0.03-0.029,0.061-0.045,0.091-0.045h0.046h0.137h0.136h0.137h0.091h0.046
			c0.029,0,0.061,0.016,0.091,0.045h0.091h0.045h0.092c0.12,0.062,0.228,0.1,0.318,0.114c0.092,0.016,0.182,0.054,0.273,0.114h0.046
			c0,0.029,0.028,0.045,0.09,0.045c0,0.031,0.015,0.046,0.046,0.046l0.046,0.046c0.029,0,0.061,0.015,0.091,0.045l0.09,0.091h0.047
			c0.15,0.091,0.273,0.212,0.363,0.364l0.091,0.091l0.091,0.091c0,0.031,0.008,0.045,0.023,0.045c0.015,0,0.022,0.016,0.022,0.047
			l0.046,0.045l0.046,0.045c0,0.031,0.013,0.062,0.045,0.092c0,0.029,0.007,0.053,0.021,0.068c0.016,0.016,0.024,0.037,0.024,0.068
			l5.732,11.236l5.732-11.236c0-0.062,0.015-0.107,0.046-0.137c0.028-0.03,0.046-0.061,0.046-0.092c0.029,0,0.044-0.015,0.044-0.045
			l0.046-0.045c0-0.031,0.016-0.061,0.046-0.092l0.092-0.091l0.089-0.091c0.092-0.152,0.213-0.273,0.365-0.364l0.09-0.091h0.047
			c0.03-0.03,0.06-0.045,0.091-0.045l0.045-0.046c0.03,0,0.046-0.015,0.046-0.046c0.061,0,0.092-0.016,0.092-0.045h0.045
			c0.061-0.061,0.137-0.099,0.229-0.114c0.09-0.015,0.166-0.038,0.227-0.067c0.061,0,0.105-0.016,0.136-0.047h0.091h0.047h0.09
			c0-0.029,0.016-0.045,0.047-0.045h0.09h0.091h0.138h0.136h0.136c0.061,0,0.105,0.016,0.138,0.045h0.091h0.09l0.046,0.047h0.091
			h0.046l0.091,0.045c0.029,0,0.054,0.008,0.068,0.022c0.016,0.016,0.038,0.022,0.068,0.022s0.06,0.016,0.092,0.045h0.045
			c0.03,0.031,0.061,0.047,0.091,0.047v0.045c0.061,0,0.106,0.016,0.137,0.046s0.06,0.046,0.091,0.046l0.046,0.045l0.046,0.045
			c0.029,0,0.06,0.016,0.09,0.046l0.092,0.091c0.061,0,0.091,0.031,0.091,0.092c0.151,0.09,0.272,0.212,0.363,0.363l0.091,0.092
			v0.045c0.031,0.03,0.046,0.061,0.046,0.091c0.03,0,0.046,0.016,0.046,0.046l0.046,0.045c0,0.03,0.015,0.061,0.046,0.092
			c0.059,0.151,0.12,0.318,0.182,0.5c0,0.061,0.014,0.106,0.045,0.137v0.091v0.045c0,0.03,0.016,0.062,0.045,0.091v0.047v0.045
			v0.137v0.137V447.514z"/>
		<path fill="#449300" d="M386.62,445.535c0.529,0.53,0.795,1.175,0.795,1.934s-0.266,1.403-0.795,1.934
			c-0.533,0.53-1.178,0.796-1.935,0.796h-11.147c-0.759,0-1.403-0.266-1.933-0.796c-0.532-0.53-0.797-1.175-0.797-1.934v-30.119
			c0-0.759,0.265-1.403,0.797-1.935c0.529-0.529,1.174-0.795,1.933-0.795h11.147c0.757,0,1.401,0.266,1.935,0.795
			c0.529,0.531,0.795,1.176,0.795,1.935c0,0.788-0.266,1.44-0.795,1.956c-0.533,0.516-1.178,0.773-1.935,0.773h-8.418v11.465h5.824
			c0.758,0,1.402,0.267,1.933,0.797c0.531,0.531,0.797,1.176,0.797,1.934s-0.266,1.402-0.797,1.934
			c-0.53,0.531-1.175,0.797-1.933,0.797h-5.824v7.734h8.418C385.442,444.739,386.086,445.004,386.62,445.535z"/>
		<path fill="#449300" d="M408.821,415.483c0.531,0.517,0.796,1.168,0.796,1.957c0,0.758-0.265,1.402-0.796,1.934
			c-0.53,0.531-1.176,0.797-1.934,0.797h-4.23v27.298c0,0.759-0.268,1.403-0.797,1.934c-0.531,0.53-1.177,0.796-1.934,0.796
			c-0.759,0-1.404-0.266-1.934-0.796c-0.531-0.53-0.797-1.175-0.797-1.934V420.17h-4.321c-0.759,0-1.404-0.266-1.934-0.797
			c-0.531-0.531-0.797-1.176-0.797-1.934c0-0.789,0.266-1.44,0.797-1.957c0.529-0.516,1.175-0.773,1.934-0.773h14.013
			C407.645,414.709,408.291,414.967,408.821,415.483z"/>
		<path fill="#449300" d="M428.52,445.535c0.531,0.53,0.797,1.175,0.797,1.934s-0.266,1.403-0.797,1.934
			c-0.53,0.53-1.175,0.796-1.933,0.796H415.44c-0.758,0-1.403-0.266-1.934-0.796s-0.796-1.175-0.796-1.934v-30.119
			c0-0.759,0.266-1.403,0.796-1.935c0.53-0.529,1.176-0.795,1.934-0.795h11.147c0.758,0,1.402,0.266,1.933,0.795
			c0.531,0.531,0.797,1.176,0.797,1.935c0,0.788-0.266,1.44-0.797,1.956c-0.53,0.516-1.175,0.773-1.933,0.773h-8.418v11.465h5.824
			c0.758,0,1.403,0.267,1.935,0.797c0.529,0.531,0.795,1.176,0.795,1.934s-0.266,1.402-0.795,1.934
			c-0.531,0.531-1.177,0.797-1.935,0.797h-5.824v7.734h8.418C427.345,444.739,427.99,445.004,428.52,445.535z"/>
		<path fill="#449300" d="M452.111,446.375c0.333,0.698,0.356,1.396,0.069,2.094c-0.29,0.697-0.782,1.197-1.479,1.501
			c-0.364,0.151-0.729,0.228-1.093,0.228c-0.516,0-1-0.145-1.455-0.432c-0.455-0.288-0.805-0.689-1.047-1.206l-5.05-11.556h-2.73
			v10.464c0,0.759-0.265,1.403-0.796,1.934s-1.176,0.796-1.935,0.796c-0.757,0-1.402-0.266-1.933-0.796
			c-0.532-0.53-0.796-1.175-0.796-1.934V417.44c0-0.758,0.264-1.402,0.796-1.934c0.53-0.531,1.176-0.797,1.933-0.797h6.599
			c1.152,0,2.258,0.326,3.321,0.979c1.06,0.652,1.985,1.585,2.774,2.799c1.366,2.153,2.047,4.61,2.047,7.37
			c0,1.335-0.173,2.624-0.522,3.866c-0.349,1.244-0.858,2.397-1.524,3.459c-0.303,0.455-0.621,0.864-0.955,1.229
			c-0.334,0.363-0.668,0.697-1.002,1L452.111,446.375z M443.194,431.543c0.15,0,0.355-0.098,0.613-0.295s0.555-0.539,0.889-1.023
			c0.393-0.607,0.689-1.289,0.886-2.047c0.198-0.759,0.296-1.532,0.296-2.321c0-0.788-0.098-1.569-0.296-2.343
			c-0.196-0.773-0.493-1.464-0.886-2.07c-0.334-0.455-0.631-0.781-0.889-0.979s-0.463-0.295-0.613-0.295h-3.868v11.373H443.194z"/>
	</g>
</g>
</svg>
